<svg xmlns="http://www.w3.org/2000/svg" viewBox="0 0 160.1 68.1"><path fill="#fff" d="M3.1 60.5H0l6.5-8.2a10.6 10.6 0 01.9-1.1 6.5 6.5 0 01.9-.8 4 4 0 01.9-.5 3.6 3.6 0 011.1-.2 3 3 0 011 .2 2.6 2.6 0 01.6.5 1.9 1.9 0 01.4.9 10.4 10.4 0 01.3 1.2l1.9 8.1h-3l-.8-2.8H5.3l-2.2 2.7zm4.5-5.6h2.6l-.6-2.3zm8.6-5.2h15.4l-.8 2.7h-6.3l-2.3 8.1h-2.7l2.3-8.1h-6.4zm17.3 11.1l-2.8-.1 2.4-8.6a3.7 3.7 0 01.5-1.1 7 7 0 01.8-1 1.6 1.6 0 01.9-.5 2.1 2.1 0 011.1-.2 2.4 2.4 0 01.9.2 1.8 1.8 0 01.7.5 2.2 2.2 0 01.5.8l.3 1 .9 6.4 4.9-6.8a7.8 7.8 0 011.5-1.6 3.2 3.2 0 011.9-.5 2 2 0 011.1.3 2.3 2.3 0 01.7.7 1.7 1.7 0 01.3 1 4.9 4.9 0 01-.1 1.2l-2.4 8.3h-2.8l2.5-8.7-4.5 6.4a10.6 10.6 0 01-.9 1.1l-.8.9a4 4 0 01-.9.5 3.6 3.6 0 01-1.1.2 3 3 0 01-1-.2 1.7 1.7 0 01-.6-.6 1.9 1.9 0 01-.4-.9 3.5 3.5 0 01-.2-1l-.9-6.2-2.5 8.5zm23.4-11.2h8a2.1 2.1 0 011.2.3 2.3 2.3 0 01.9.8 2.1 2.1 0 01.4 1.1 2.9 2.9 0 01-.1 1.3l-1.1 4a3.5 3.5 0 01-.4.9l-.6.8-.7.7a4 4 0 01-.9.5 3.2 3.2 0 01-.9.3 2.8 2.8 0 01-.9.1h-8.4a2.8 2.8 0 01-1.3-.3 2.2 2.2 0 01-.9-.7 2.1 2.1 0 01-.4-1.1 3.4 3.4 0 01.1-1.4l1.2-4.1a3.3 3.3 0 01.7-1.3 4 4 0 011.2-1 6.1 6.1 0 011.4-.7 7.7 7.7 0 011.5-.2zm7.8 2.8h-9.6l-1.5 5.2h9.6zm21.8-2.9l-.8 2.7H73.1l-1.5 5.4h12.6l-.8 2.7H71.5a3.7 3.7 0 01-1.2-.2 3.6 3.6 0 01-1-.7 2 2 0 01-.5-1 2 2 0 01.1-1.3l1-3.6a7.5 7.5 0 01.8-1.8 4.9 4.9 0 011.2-1.3 3.5 3.5 0 011.5-.7 5.5 5.5 0 011.8-.2zm21.7.9a6.8 6.8 0 011.4.2 2.5 2.5 0 011 .7 2.4 2.4 0 01.6 1.1 8.2 8.2 0 01-.3 2.1 4.6 4.6 0 01-.7 1.6 4.3 4.3 0 01-2 1.8 5.7 5.7 0 01-1.8.3h-6.9l-.6 2H96l.6-2.1h-6.2a2.8 2.8 0 01-1.3-.3 3 3 0 01-1.8-1.8 4.1 4.1 0 01-.2-1.6 5.8 5.8 0 01.7-2.1 4.8 4.8 0 01.9-1.1 5.4 5.4 0 011.3-.7 4 4 0 011.4-.3H99l.3-1h2.9l-.3 1 6.3.2zm-10.9 5l.7-2.3h-7.5l-.7 2.2zm3.5-2.2l-.7 2.3h7.6l.7-2.3zm17.5-3.9h11.4l-.8 2.8h-12.5l-.4 1.3h12.5l-.8 2.8h-12.5l-.3 1.2h12.5l-.8 2.9h-11.4a3.2 3.2 0 01-1.4-.3 2.5 2.5 0 01-1-.7 3.7 3.7 0 01-.5-1.1 2.3 2.3 0 01.1-1.4l1.1-3.9a10 10 0 01.7-1.5 5.7 5.7 0 011.1-1.1 6.1 6.1 0 011.4-.7 11 11 0 011.6-.3zm26.5-.1a6.8 6.8 0 011.4.2 2.5 2.5 0 011 .7 2.4 2.4 0 01.6 1.1 2.3 2.3 0 01-.1 1.4 3.3 3.3 0 01-.7 1.3 5.7 5.7 0 01-1.1 1.1 4.2 4.2 0 01-1.3.7 4 4 0 01-1.4.3h-9.4l-1.1 4h-2.9l3.1-10.9 11.9.1zm-9.9 2.8l-.4 1.4h10.1l.4-1.4zm12.3 8h-3.1l6.5-8.2a10.6 10.6 0 01.9-1.1 6.5 6.5 0 01.9-.8 4 4 0 01.9-.5 3.6 3.6 0 011.1-.2 3 3 0 011 .2 2.6 2.6 0 01.6.5 1.9 1.9 0 01.4.9 10.4 10.4 0 01.3 1.2l1.9 8.1h-3l-.8-2.8h-5.4l-2.2 2.7zm4.5-5.6h2.6l-.6-2.3zM6.4 63a2.2 2.2 0 01.8.1 3.3 3.3 0 01.6.3 1 1 0 01.4.5 1.4 1.4 0 01.2.7v1.8a1.9 1.9 0 01-.2.7 2.2 2.2 0 01-.4.5l-.6.3-.8.1h-6v-1.3H7v-.5H.4v-1.3H7v-.6H.4V63zM20 63h3l-4.9 2.5 5 2.5h-3l-2.6-1.3-.3-.2-.3-.2-.2-.2-.2-.3v2.1h-1.6v-5.1h1.6V65l.2-.3.2-.2.3-.2.4-.2L20 63zm17.7 0v1.3h-6.6v2.5h6.6v1.3h-6.3a1.7 1.7 0 01-.7-.1l-.6-.3a1 1 0 01-.4-.5 1.4 1.4 0 01-.2-.6v-1.7a2 2 0 01.5-1.4 2.5 2.5 0 011.6-.5zm6.5 0h8.1v1.3H49v3.8h-1.5v-3.8h-3.3zm20.9-.1a2.2 2.2 0 01.8.1 3.3 3.3 0 01.6.3 1 1 0 01.4.5 1 1 0 010 1.2 1 1 0 01-.4.5l-.6.3a1.7 1.7 0 01-.7.1h-5v1.9h-1.5v-5.1l6.4.2zm-4.8 1.3v.6h5.3v-.6zm21.3-.2v4h-1.4v-3.8l-3.9 3.4a2 2 0 01-.6.4 1.9 1.9 0 01-1.2 0 1.4 1.4 0 01-.4-.3 2.2 2.2 0 01-.3-.5 1 1 0 01-.1-.5V63h1.5v3.8l3.9-3.4a2 2 0 011.2-.5.8.8 0 01.5.1l.5.2a1.4 1.4 0 01.3.4v.4zm7.9 3.9h-1.4v-3.8a.9.9 0 01.1-.5 1.4 1.4 0 01.3-.4l.4-.3.5-.1a.8.8 0 01.5.1l.4.2.3.3.3.4 1.3 2.8 1.4-3 .2-.4.3-.3.4-.2a4.3 4.3 0 01.5-.1 1.3 1.3 0 01.6.1l.5.3c.2.1.2.3.3.4a.8.8 0 01.1.5v3.7h-1.4v-3.7l-1.4 2.7a2.2 2.2 0 01-.3.5 1.4 1.4 0 01-.3.4.5.5 0 01-.4.2 1.3 1.3 0 01-1 0l-.4-.3a1.4 1.4 0 01-.3-.4l-.3-.4-1.4-2.6.2 3.9zm20.1 0h-1.5v-5.1h8.2v5.1h-1.5v-3.8h-5.2v3.8zm14.9-.1h-1.6l2.2-3.8a2.2 2.2 0 01.3-.5 1.4 1.4 0 01.3-.4l.4-.3a1 1 0 01.6-.1l.5.1.4.2a1.4 1.4 0 01.3.4l.3.5 2.2 3.8h-1.6l-.9-1.3h-2.8l-.6 1.4zm1.5-2.6h1.4l-.7-1.1zm17.4-2.5a2.2 2.2 0 01.8.1 3.3 3.3 0 01.6.3 1 1 0 01.4.5 1 1 0 010 1.2 1 1 0 01-.4.5l-.6.3a1.7 1.7 0 01-.7.1h-5v1.9H137v-5.1l6.4.2zm-4.8 1.3v.6h5.3V64zm18.4-1.3h3l-4.9 2.5 5 2.5h-3l-2.6-1.3-.3-.2-.3-.2-.2-.2-.2-.3v2.1h-1.6v-5.1h1.6v2.2l.2-.3.2-.2.3-.2.4-.2 2.4-1.1zm-56.2 2.1h3.2a.3.3 0 01.1.2v1l-.1.2h-3.2a.3.3 0 01-.1-.2v-1l.1-.2zM73.5 46.1a15.5 15.5 0 01-11.4-4.9 16.8 16.8 0 01-4.7-11.7V16.6C57.4 7.5 64.6 0 73.5 0h13.8a15.5 15.5 0 0111.4 4.9 16.8 16.8 0 014.7 11.7v12.9c0 9.1-7.2 16.6-16.1 16.6zM94.3 5.3a13 13 0 00-5.8-2.6L61 24.6c-.1 3.5 0 6.3.6 7.4l25.1-21-2.6 11.7-7.5-1.7-4.2 3.6L83 27l-3 13.8 6.9-.1z"/></svg>
