<svg xmlns="http://www.w3.org/2000/svg" viewBox="0 0 505.9 101.8"><g data-name="Layer 2"><g fill="#fefefe" data-name="1"><path d="M357.7 86.8a.8.8 0 00-1-.2 2 2 0 00-1 .6c-.2.2.1.4 1 .4.8-.3 1.2-.5 1-.8zM371.2 86.5a1 1 0 00-.9 0 1.1 1.1 0 00-.5.8 3.4 3.4 0 000 1.4c.3.6.6.9 1 .8a1 1 0 00.9-.6 2.5 2.5 0 00.2-1.5 1.2 1.2 0 00-.7-.9zM419 87.7c-.3 0-.5.1-.5.3a4.5 4.5 0 000 .6c0 .3 0 .5.4.5.7 0 1-.2 1-.6a1.5 1.5 0 00-.3-.7l-.6-.1zM364 87.8h-.2l-.1.2a4 4 0 000 .5c0 .3 0 .4.4.4.5 0 .8-.2.8-.5a.5.5 0 00-.2-.5 1.5 1.5 0 00-.6-.1zM445 86.7a1 1 0 00-.8.4 1.4 1.4 0 00-.1.9.8.8 0 00.3.6 1.3 1.3 0 00.8.3 1 1 0 00.8-.5 1.2 1.2 0 00.3-.8 1 1 0 00-.4-.7 1.2 1.2 0 00-.9-.2zM436.7 86.7a1 1 0 00-.8.4 1.5 1.5 0 00-.1.9.9.9 0 00.3.6 1.4 1.4 0 00.8.3 1 1 0 00.8-.5 1.1 1.1 0 00.3-.8 1 1 0 00-.4-.7 1.3 1.3 0 00-.9-.2zM433.1 86.5a1 1 0 00-.9 0 1.1 1.1 0 00-.5.8 3.4 3.4 0 000 1.4c.3.6.6.9 1 .8a1 1 0 001-.6 2.4 2.4 0 00.1-1.5 1.2 1.2 0 00-.7-.9zM396.3 86.8a1 1 0 00-.6-.2 1.5 1.5 0 00-.7.5 2.1 2.1 0 00-.3 1 .8.8 0 00.4.8 1.4 1.4 0 001.1 0 .8.8 0 00.2-.4 7.2 7.2 0 00.2-1 1.6 1.6 0 000-.4.5.5 0 00-.3-.3zM386.7 86.7a1 1 0 00-.8.4 1.5 1.5 0 00-.1.9.9.9 0 00.4.6 1.4 1.4 0 00.7.3 1 1 0 00.8-.5 1.2 1.2 0 00.3-.8 1 1 0 00-.3-.7 1.2 1.2 0 00-1-.2zM392.3 86.5a1 1 0 00-1 0 1.1 1.1 0 00-.5.8 3.4 3.4 0 000 1.4c.3.6.6.9 1 .8a1 1 0 001-.6 2.4 2.4 0 00.1-1.5 1.2 1.2 0 00-.6-.9zM409 88a3.5 3.5 0 00-.6 0l-.4.1a5.6 5.6 0 000 .7c0 .4.2.5.8.4s.8-.4.7-.7a.7.7 0 00-.5-.4zM408.1 87.1a.7.7 0 00.4.1 1 1 0 00.4-.1.3.3 0 00.2-.3.4.4 0 00-.2-.3.9.9 0 00-.5-.1h-.3a.4.4 0 000 .2v.3a.3.3 0 000 .2zM375.8 86.8a.8.8 0 00-1-.2 2.1 2.1 0 00-1 .6c-.2.2.1.4 1 .4.8-.3 1.2-.5 1-.8zM414.2 87.8a1.4 1.4 0 00.2.8.6.6 0 00.6.3.8.8 0 00.7-.5 1.8 1.8 0 00.1-1 .7.7 0 00-.6-.7.7.7 0 00-.7.3 1.6 1.6 0 00-.3.8zM404.3 86.7a1 1 0 00-.8.4 1.4 1.4 0 00-.2.9.8.8 0 00.4.6 1.4 1.4 0 00.8.3 1 1 0 00.8-.5 1.1 1.1 0 00.3-.8 1 1 0 00-.4-.7 1.3 1.3 0 00-1-.2zM146.8 51.3c-1.5-2.2-3.8-2.7-7-1.7a15.6 15.6 0 00-7.5 4.6q-2.5 3 7 3 9.6-2.7 7.5-6zM465.4 86.8a.9.9 0 00-.6-.2 1.5 1.5 0 00-.7.5 2.1 2.1 0 00-.3 1 .8.8 0 00.4.8 1.4 1.4 0 001.1 0 .7.7 0 00.2-.4 6 6 0 00.2-1 1.7 1.7 0 000-.4.5.5 0 00-.3-.3zM469.2 50.7c-1-.7-2.4-1-4.5-.8q-4 1.7-5.3 3.7a16.7 16.7 0 00-1.6 6.3c-.3 3 .5 5.1 2.4 6.3s4.7 1.3 8.2.3a5.6 5.6 0 001.6-3.2 48 48 0 001-7.5 14.6 14.6 0 00-.2-3 3.9 3.9 0 00-1.6-2.1z"/><path d="M263.6 94.5a42.9 42.9 0 01-9.2 3.2l52.7-1 101.8-1.9 90.3-1.6a5.8 5.8 0 005.6-5.7l.2-12.3.3-12.3.3-12.6.3-12.7a6 6 0 00-5.5-6.2l-93.6-3.7L301 23.6l-23-1A41.4 41.4 0 01289.4 46a47 47 0 01-19.5 44.8zM347 43q-1-.2 0 7 .7 11.2.6 19.2a3.7 3.7 0 01-1.8 3 7 7 0 01-3.7.4c-1.5-.1-2.3-1.1-2.3-2.9l-.3-8.6c-.2-4-.7-9.8-1.4-17.8q-13.1.4-16 1-.7 16-.7 20.2c0 2.8-.1 5.2-.3 7.1s-.5 3.2-1.2 3.6a14.8 14.8 0 01-4.3 1.2c-2 .3-3.2 0-3.4-1a19.6 19.6 0 01-.1-4l.1-4.2.2-4.2.2-4.8-.7-15.3c-4.8.4-7.4-.3-7.6-2.2a15.6 15.6 0 01.1-4.7c.3-1.4 1.7-2.3 4.3-2.7a58.3 58.3 0 0110.8-.3l28.5 1a2.8 2.8 0 012 .8 4.8 4.8 0 011 2.7 4.5 4.5 0 01-1.3 3.8c-1.1 1.3-2 1.9-2.7 1.7zm6.8 46.6a2.3 2.3 0 01-1.1.4 1.9 1.9 0 01-1.3-.5 1.9 1.9 0 01-.8-1.3 3.2 3.2 0 010-1 2.6 2.6 0 011-1.6 1.9 1.9 0 011.8 0 1.5 1.5 0 01.8.7 1.2 1.2 0 01-.1.4.6.6 0 01-.4.2 2.7 2.7 0 01-.5-.2 2.1 2.1 0 00-.6-.3c-.3 0-.5.2-.8.6a2.4 2.4 0 00-.2 1 2 2 0 00.1.8 1.1 1.1 0 00.9.4 1.4 1.4 0 00.5-.2l.3-.2a.8.8 0 01.4-.1l.2.2a2.4 2.4 0 00.2.2c.1 0 0 .3-.4.6zm-1.6-14.8q-.8-.7-1-5.6c-.3-3.2-.5-8.2-.8-15s1-10 4-10 4.4.7 4.6 1.8a34.4 34.4 0 01.5 7v5.7l13.9-12.3a11.7 11.7 0 014-2 4.6 4.6 0 012.6.3c.7.3 1.1 1.3 1.3 3a80 80 0 01.3 9v10.5c0 2.8-.5 4.4-1.3 4.8a5.8 5.8 0 01-3 .6c-1.3 0-2-.3-2.4-1a6.1 6.1 0 01-.5-2.3l-.1-8.2a77.5 77.5 0 00-10.1 8l-4.7 4.5a6.1 6.1 0 01-4 1.8 4.9 4.9 0 01-3.3-.6zm5.6 14.8a3.3 3.3 0 01-1.1.3 2.1 2.1 0 01-1.5-.5 2.6 2.6 0 01-.6-1.4 3 3 0 01.5-1.7 1.8 1.8 0 011.5-.8 1.6 1.6 0 011.1.3 1.4 1.4 0 01.8 1.2.7.7 0 01-.3.7c-1 .6-1.8.8-2.3.6 0 .4.2.6.8.7a1.7 1.7 0 00.7-.2l.5-.4a.4.4 0 01.4 0 2.4 2.4 0 01.2.2 1.6 1.6 0 01.2.2c0 .2-.2.5-.9.9zm4.4-3.2a.4.4 0 01-.2.2 3.4 3.4 0 01-1 .1v2.4c0 .4-.1.8-.4.8h-.6a1.1 1.1 0 010-.6v-2.5a4.2 4.2 0 01-1 0 .3.3 0 01-.1-.5 2 2 0 010-.5c0-.2 1-.3 2.7-.2a4 4 0 01.5 0c.1 0 .2.1.2.3a2.3 2.3 0 01-.1.5zm3.1 3.1a3.8 3.8 0 01-1.5.2 1 1 0 01-1.2-1 9.8 9.8 0 010-1.8l.2-1c0-.2.2-.4.4-.3q.6 0 .6.4v1c.8-.2 1.4-.2 1.7.1a1.6 1.6 0 01.4 1.3 1.1 1.1 0 01-.6 1.1zm10.6.1a3.3 3.3 0 01-1.1.3 2.1 2.1 0 01-1.5-.5 2.4 2.4 0 01-.5-1 4.6 4.6 0 01-.1 1 2.2 2.2 0 01-1.1 1l-1.6.3.1.5c0 .5 0 .7-.2.7h-.5a2.7 2.7 0 01-.5 0c-.2 0-.2-.1-.2-.4l-.1-4.4a6.5 6.5 0 01.1-1.8 1.1 1.1 0 01.5-.2 1.3 1.3 0 01.4 0 .3.3 0 01.2.2h.5a1.7 1.7 0 011 0 3 3 0 011.2.9 4.3 4.3 0 01.3 1.2 2.8 2.8 0 01.4-1.2 1.8 1.8 0 011.5-.7 1.6 1.6 0 011.2.3 1.4 1.4 0 01.7 1.1.7.7 0 01-.3.7c-1 .7-1.8.9-2.3.7 0 .3.2.6.8.6a1.7 1.7 0 00.7-.1l.5-.4a.4.4 0 01.4-.1 1.5 1.5 0 01.2.2 1 1 0 01.2.3c.1.2-.2.5-.9.9zm4.3 0a2.3 2.3 0 01-1 .3 1.9 1.9 0 01-1.4-.4 1.9 1.9 0 01-.8-1.4 3.2 3.2 0 010-1 2.6 2.6 0 011-1.5 1.9 1.9 0 011.9 0 1.5 1.5 0 01.8.7 1.2 1.2 0 01-.2.4.5.5 0 01-.3.2 2.7 2.7 0 01-.5-.2 2.1 2.1 0 00-.7-.3c-.2 0-.5.1-.7.6a2.4 2.4 0 00-.3 1 2 2 0 00.2.8 1.1 1.1 0 00.8.4 1.4 1.4 0 00.5-.2l.4-.2a.8.8 0 01.3-.2l.2.3a2.4 2.4 0 00.3.2s0 .3-.5.6zm4.1-3.3a.4.4 0 01-.2.3 3.6 3.6 0 01-1 0v2.5c0 .5 0 .8-.4.8l-.5-.1a1.1 1.1 0 010-.6v-2.4a4.2 4.2 0 01-1-.1.3.3 0 01-.2-.4 2 2 0 010-.5c0-.2 1-.3 2.6-.2a4 4 0 01.6 0c.1 0 .2 0 .2.2a1.7 1.7 0 010 .6zm4.4 2.5a1.8 1.8 0 01-1.6 1 2.6 2.6 0 01-1.8-.4 1.7 1.7 0 01-.6-1.3 3.6 3.6 0 01.4-1.7 1.8 1.8 0 011.8-1 1.8 1.8 0 011.9 1.2 2.4 2.4 0 01-.1 2.3zm9 1a2 2 0 01-.4.3c-.2.2-.5 0-.7-.3a1.3 1.3 0 01-.8.3 2.8 2.8 0 01-.7-.1 2.6 2.6 0 01-1-.6 1.6 1.6 0 01-.3-.7 3.3 3.3 0 01-.1.6 2.2 2.2 0 01-1.1 1.2l-1.5.1v.6c0 .5 0 .7-.2.7h-.5a2.7 2.7 0 01-.5 0c-.1 0-.2-.1-.2-.4V87a6.5 6.5 0 010-1.7 1.1 1.1 0 01.5-.2 1.3 1.3 0 01.5 0 .3.3 0 01.2.2h.4a1.7 1.7 0 011 0 3 3 0 011.2.9 3.9 3.9 0 01.3 1.2 2.6 2.6 0 01.7-1.2 2 2 0 011.5-.6 1.9 1.9 0 01.7.1 1 1 0 01.4.4.8.8 0 01.2.3v.5a5.2 5.2 0 010 .8 3.2 3.2 0 000 .8l.2.6a2 2 0 00.2.5.5.5 0 010 .3zm4.1-3.3v1.6a4.6 4.6 0 01-.2 1.1c0 .2-.2.3-.3.3h-.5l-.2-.2V88a9.5 9.5 0 00-1.6.2v1c0 .3-.3.4-.6.4s-.5-.1-.6-.4v-1.7-1.6a.4.4 0 01.2-.4.8.8 0 01.5-.1.7.7 0 01.3.1c.2.1.2.5.2 1.2a3 3 0 001.6 0c0-.8 0-1.2.2-1.3a.6.6 0 01.4-.1.7.7 0 01.4.2q.2.2.2 1zm4.4 2.3a1.8 1.8 0 01-1.6 1 2.6 2.6 0 01-1.7-.4 1.7 1.7 0 01-.7-1.3 3.7 3.7 0 01.4-1.7 2.2 2.2 0 013.7.2 2.4 2.4 0 010 2.3zm3.3 1a4.3 4.3 0 01-1.6.2c-.5 0-.7-.1-.7-.3V88v-1.9-.4a1 1 0 01.4-.1 3.8 3.8 0 01.9 0 2.4 2.4 0 011 .3 1 1 0 01.7 1 1 1 0 01-.3.7 2.4 2.4 0 01.4.5 1.6 1.6 0 01.1.9c0 .4-.3.7-1 .9zm-1-11.2c-1.4-.3-2-1.9-1.7-4.7h-9.7c-4.3 0-7.3-.4-8.9-1s-2.4-3.5-2.4-8.2L386 52c0-3.9.5-6 1.4-6.7A6.7 6.7 0 01391 44a3.2 3.2 0 013.1 1.1q1 1.3.7 10c0 5.8.5 9 1.7 9.4l5.7-.2A4 4 0 00405 63a14 14 0 001.2-6.9l-.2-6.2c-.1-3 .6-4.7 2.1-5a6.2 6.2 0 014.1.2c1.3.5 1.7 3.1 1.4 7.8l-.9 14.1a3 3 0 012.9 2.5 13.7 13.7 0 01.2 4l-.4 3.4a2.1 2.1 0 01-1.1 1.7 4.7 4.7 0 01-2.2.5 16.3 16.3 0 01-3.5-.4zm8.1 6.1a5.2 5.2 0 01-1 .2.8.8 0 00-.6.5 1.3 1.3 0 011.4.7 2.7 2.7 0 01.4 1.6 3.1 3.1 0 01-.6 1.6 1.6 1.6 0 01-1.5.6 1.5 1.5 0 01-1.3-.8 4 4 0 01-.4-1.8 4.4 4.4 0 01.4-1.9 2.5 2.5 0 011-1.2 2 2 0 011.1-.4c.4 0 .6 0 .6-.2a.4.4 0 01.4-.3.5.5 0 01.5.3 1.3 1.3 0 010 .6c0 .3 0 .5-.4.6zm3.6 4.7a2.7 2.7 0 01-1.2.3 8 8 0 01-1.1 0c-.2 0-.3-.1-.4-.3a12.2 12.2 0 010-1.7 11.9 11.9 0 010-1.8.4.4 0 01.5-.4c.4 0 .6.2.6.4v1a2.4 2.4 0 011.5.2 1.2 1.2 0 01.6 1.1 1.1 1.1 0 01-.5 1.3zm2 .3a1.6 1.6 0 01-.6 0l-.3-.7a10.5 10.5 0 010-1.4v-1.2a1.1 1.1 0 01.1-.6.6.6 0 01.5-.2c.2 0 .4.2.4.7V89c0 .5 0 .8-.2.8zm3.8-.1a2.3 2.3 0 01-1.1.3 1.9 1.9 0 01-1.3-.4 1.9 1.9 0 01-.8-1.4 3.2 3.2 0 010-1 2.6 2.6 0 011-1.6 1.9 1.9 0 011.8 0 1.5 1.5 0 01.8.8 1.6 1.6 0 010 .3.6.6 0 01-.5.3 3 3 0 01-.4-.3 2.1 2.1 0 00-.7-.2q-.4-.1-.8.6a2.4 2.4 0 00-.2 1 1.8 1.8 0 00.1.8 1.1 1.1 0 001 .3 1.5 1.5 0 00.4-.1l.4-.2a.8.8 0 01.3-.2l.2.3a1.6 1.6 0 00.2.2c.1 0 0 .3-.4.6zm4.1-3.3a.4.4 0 01-.2.3 3.4 3.4 0 01-1 0V89c0 .4-.1.8-.4.9s-.5 0-.5-.1a1.1 1.1 0 01-.1-.6v-2.5a4.4 4.4 0 01-1 0l-.2-.4a2.5 2.5 0 010-.6c0-.1 1-.2 2.7-.2a4 4 0 01.5 0c.2 0 .3.1.3.3a2.3 2.3 0 01-.1.6zm8.6 2.5a1.8 1.8 0 01-1.7 1.1 2.6 2.6 0 01-1.7-.4 1.6 1.6 0 01-.6-.9 3.5 3.5 0 01-.1.8 2.2 2.2 0 01-1.1 1.1l-1.5.2v.6c0 .4 0 .6-.2.6h-.5a2.7 2.7 0 01-.5 0c-.2 0-.2 0-.2-.3l-.1-4.5a6 6 0 01.1-1.8 1 1 0 01.5-.2 1.2 1.2 0 01.4 0 .3.3 0 01.3.2c0 .1.1.1.4 0a1.7 1.7 0 011 0 3 3 0 011.2 1 4 4 0 01.3 1.2 4 4 0 01.3-1.1 2.2 2.2 0 013.7.2 2.4 2.4 0 010 2.3zm3.6-2.3a7.7 7.7 0 01-1.2 0c-.4 0-.6.3-.5 1a11 11 0 010 1.6c0 .4-.1.6-.2.6a1 1 0 01-.4 0l-.4-.1a2.5 2.5 0 010-.6v-1.5-1.7c0-.3.3-.5 1-.5h1.4a3.3 3.3 0 01.6 0 .3.3 0 01.1.2 1.2 1.2 0 010 .5c0 .4-.1.5-.4.6zm4.7 2.4a1.8 1.8 0 01-1.6 1 2.6 2.6 0 01-1.8-.4 1.7 1.7 0 01-.6-1.4 3.6 3.6 0 01.4-1.7 1.8 1.8 0 011.8-.9 1.8 1.8 0 011.9 1.2 2.4 2.4 0 01-.1 2.2zm1-15.5l-.5 3.3a2 2 0 01-1 1.7 4.7 4.7 0 01-2.2.5 17.8 17.8 0 01-3.5-.4q-2.2-.5-1.7-4.7l-9.7-.1c-4.3 0-7.3-.4-9-1s-2.3-3.4-2.3-8l.2-12.8c.1-3.8.5-6.1 1.4-6.8a6.8 6.8 0 013.5-1.2 3.2 3.2 0 013.2 1.1q.9 1.3.7 10c-.2 5.8.4 9 1.7 9.3l5.7-.1a4 4 0 002.6-1.4 14.2 14.2 0 001.2-6.8l-.2-6.2c0-3 .6-4.7 2.1-5.1a6.2 6.2 0 014.2.2q1.8.9 1.3 7.8l-.9 14.2a3 3 0 012.9 2.4 13.7 13.7 0 01.2 4.1zm6 16a.7.7 0 010 .3.6.6 0 01-.5.1h-.4a.6.6 0 010-.4v-2.5a3.3 3.3 0 00-1.7 0l-.1 2.7c-.1.2-.2.2-.5.2s-.5 0-.5-.3a3.6 3.6 0 010-.6v-1.3-1.3a.7.7 0 01.2-.5 1.4 1.4 0 011-.2h1.5c.5 0 .8.1 1 .3a1.5 1.5 0 01.1.9v1.5a7.7 7.7 0 010 1zm4.9-2v1.4c0 .4-.1.6-.2.7a.9.9 0 01-.4 0h-.4a.6.6 0 010-.4V88a9.7 9.7 0 00-1.4 1l-.7.7a.8.8 0 01-.5.2.6.6 0 01-.5 0l-.1-.8-.1-2c-.1-.9.2-1.5.6-1.5s.6.1.6.3a5.5 5.5 0 010 1v.8l2-1.7a1.5 1.5 0 01.5-.3.6.6 0 01.4 0l.2.4a9.8 9.8 0 010 1.2zm3.6-1a.4.4 0 01-.2.3 3.6 3.6 0 01-1 0v2.5c0 .5 0 .8-.4.8l-.5-.1a1.2 1.2 0 01-.1-.6v-2.5a4.2 4.2 0 01-.9 0 .3.3 0 01-.2-.4 2 2 0 010-.5c0-.2 1-.3 2.7-.3a4 4 0 01.5 0l.2.3a1.7 1.7 0 01-.1.5zm4.2 3.6a2.4 2.4 0 01-.3.2c-.2.2-.5 0-.7-.3a1.3 1.3 0 01-.7.3 2.8 2.8 0 01-.8-.2 2.6 2.6 0 01-1-.5 2.2 2.2 0 01-.4-1.5 2.6 2.6 0 01.8-1.6 2 2 0 011.5-.7 1.9 1.9 0 01.7.2 1 1 0 01.5.3.8.8 0 01.1.4v.5a4.2 4.2 0 010 .8 3.2 3.2 0 000 .8l.2.5a2.4 2.4 0 00.2.5.4.4 0 010 .2zm4.2-3.4v1.6a5.4 5.4 0 01-.2 1.1c0 .2-.1.3-.3.3h-.5a.2.2 0 01-.2-.2V88a9.5 9.5 0 00-1.6.2v1c0 .2-.2.4-.6.4s-.5-.1-.6-.4v-1.8V86a.4.4 0 01.2-.3.8.8 0 01.5-.1.7.7 0 01.4.1v1.2a3 3 0 001.7 0c0-.8 0-1.2.2-1.3a.6.6 0 01.4-.1.7.7 0 01.5.2l.1 1zm4.8.8v1.4c0 .4-.1.6-.2.7a.9.9 0 01-.4 0h-.4a.6.6 0 010-.4V88a9.7 9.7 0 00-1.4 1l-.7.7a.8.8 0 01-.5.2.6.6 0 01-.5 0l-.1-.8v-2c0-.9 0-1.5.5-1.5s.6.1.6.3a4.5 4.5 0 010 1v.8l2-1.7a1.4 1.4 0 01.5-.3.6.6 0 01.4 0l.2.4v1.2zm3.4 2.3a.4.4 0 01-.3.1 1.6 1.6 0 01-.4 0l-.2-.1-.1-.9-.5.7a.7.7 0 01-.7.4 1.4 1.4 0 01-.5 0s-.1-.2 0-.4a5.8 5.8 0 01.5-1.1 1 1 0 01-.8-1 1.2 1.2 0 01.6-1.3 2.8 2.8 0 011.5-.4c.5 0 .7 0 .8.2a.9.9 0 01.1.4v3.2a.4.4 0 010 .2zm-.3-16a13.4 13.4 0 01-2.3 1.7c-1.8 1.2-3.5.5-5-2.2q-3.2 2.2-5.6 2.2a22.2 22.2 0 01-5.7-1 18.4 18.4 0 01-6.7-4q-3.2-3.6-3-11a18.5 18.5 0 015-11.8 14.9 14.9 0 0111-4.8A14 14 0 01472 44a7.5 7.5 0 013 2.3 5.7 5.7 0 011.2 2.7l.5 3.6a31.4 31.4 0 01.1 5.9 23.5 23.5 0 00.2 5.7l1 4a13.5 13.5 0 001.5 3.6 3 3 0 01-.7 1.9zM206 63.7a47 47 0 0117.3-43.2l-57-2.2Q93.5 15.3 10 12C3.3 11.8-1 15.6.2 20.4l4.4 18.9c1.4 6.3 3 12.4 4.5 18.6L13.4 76l4.4 18c1 4.4 6.8 8 13 7.8L179 99.1l58.8-1.1A40.1 40.1 0 01206 63.7zm-148 .1q-.7 11.7-2.2 12.9a7.4 7.4 0 01-4.5 1.1c-2.1 0-3.4-.2-3.7-.7s-.6-2.1-.7-4.9l.2-8q-11.2 2.2-17.5-2.8t-6.4-11.1a91.8 91.8 0 00-.5-9.3 11 11 0 010-4.6q.5-1.4 3-2.4a8.8 8.8 0 015-.5 2.5 2.5 0 012.4 3A37 37 0 0033 42c0 1.9.2 3.9.4 6a8.7 8.7 0 001.6 4.5 7 7 0 004.4 2.1 15.7 15.7 0 005.6 0 3.4 3.4 0 003-2.6 82.9 82.9 0 001-10.3q.5-8.1 1.3-9a2.8 2.8 0 012-.7 11.7 11.7 0 013.5.7 3.7 3.7 0 012.5 3.4q.4 2.6.4 9.3t-.6 18.4zm38.9-8.1l-.1 10.9q-.1 4.4-1.2 5a6 6 0 01-3.2.5c-1.3 0-2.2-.3-2.5-1a6.2 6.2 0 01-.5-2.3l-.1-8.5a81.4 81.4 0 00-10.5 8.2L74 73.3a6.3 6.3 0 01-4.2 1.7 5.1 5.1 0 01-3.2-.6c-.6-.5-1-2.4-1.2-5.7l-.7-15.5c-.3-7 1-10.4 4-10.4s4.7.7 5 1.9a35.2 35.2 0 01.4 7.2v6L88.5 45a12 12 0 014-2.1 4.8 4.8 0 012.7.3c.8.3 1.2 1.4 1.4 3.1a85 85 0 01.3 9.3zm25.3 16c-.2 1-.7 1.6-1.6 1.7l-3 .3q-3.5-.4-4.4-2.3a52.9 52.9 0 00-3.8-5.9 58 58 0 010 7.2c-.1 1-1 1.5-2.7 1.5a5.5 5.5 0 01-3.6-.6q-1.1-.9-1.3-7t0-11.8q.2-5.6.5-8.9c.2-2.2 1-3.2 2.3-3.2a18.6 18.6 0 013.9.3 2.2 2.2 0 011.8 2.1 26.9 26.9 0 01-.2 5q8-6.7 10.6-4.3c1.6 1.5 1.9 3.4.8 5.7a19.7 19.7 0 01-7 4.5 93 93 0 015.4 9c1.8 3.4 2.6 5.6 2.4 6.7zm25.8 1.1a24.4 24.4 0 01-8.9 2.2q-7.5 0-11-3.3a19.7 19.7 0 01-4.6-10.7 23.2 23.2 0 014-13q3.6-5.3 10.9-5.7 5.8-.4 8.7 2c3.1 1.4 5 4.2 5.6 8.6a5.3 5.3 0 01-2 5.1q-11.3 7.7-17.3 5.2-.2 4 5.8 5a13 13 0 005.6-1.2l3.8-3.3a2.8 2.8 0 012.8-.6 11.4 11.4 0 011.7 1.7 8.2 8.2 0 011 2q1.6 1.7-6.1 6zm38.2-23.3l-.4 12a38.3 38.3 0 01-.8 8c-.5 1.7-1.3 2.5-2.6 2.3l-3.3-.4c-1-.1-1.5-.6-1.6-1.3l-.6-9.2a67 67 0 00-11.4 1.2l-.8 7.3q0 3-4 3.2c-2.5 0-4-1-4.1-3s-.4-6.5-.3-13 0-10.7-.1-12a2.9 2.9 0 011.5-3 5.8 5.8 0 013.2-.6 5 5 0 013 1.1c.7.7 1 3.6 1 8.7a21.9 21.9 0 0012 0q0-8.8 1.4-9.8a4.9 4.9 0 013.2-1 5.7 5.7 0 013.4 1.7c1 1 1.5 3.5 1.3 7.8z"/><path d="M478.1 86.4a1.2 1.2 0 00-.7.1c-.2 0-.3.3-.2.6a.7.7 0 00.5.6c.5 0 .8-.1.7-.6l-.1-.7a.3.3 0 00-.2 0zM267 89c-3.3.5-4.6 1-6.2.7a25 25 0 01-4.5-1.3 1.3 1.3 0 010 .6l-1-7a1.1 1.1 0 00.8-1.7c1.3 1.5 3.9-.1 1.5-.8-.6-.3.6-1.1 1.7-1.7a39 39 0 002.5-1.1l-.1-.4a16.7 16.7 0 004.3-4.6 8.2 8.2 0 003.2.1 3.8 3.8 0 01-2-2.2l.3-.4c1.4 3.8 6 4.1 8.5.7 1-1.4 2.2-4.3 1-6a14 14 0 01-2.5 3.1l-.5.5V69l-.3-.8c-.5.3-1.2.4-1.8.8a11 11 0 002-1.4l.6-.5a14 14 0 002.8-4.6 19.3 19.3 0 001.3-7c.5.6 1.6 0 1.9.5.2-.1-.7-1.4-.4-1.6.5-.3.3.7.8.4 0-1.6.2-1.7-1-2.7-7.6-2.8-15.3-2.1-20.4-4.2a2 2 0 00-1.5-2.2 5.7 5.7 0 01-.2 1.3c-2.1-1.3-3.6-3.5-4.1-7.2a14.4 14.4 0 002.6-3.5c1.2-2.2.6-3-.7-3.3a22.7 22.7 0 001-7.6c.8 0 1.5-.6 2.2-2.6.1-1-.3-1.2-1-1.2l2-1.3c6.2 6.1 11 2 12.4-2.4s-.8-9.2-8.2-5.6c12.7-15.1-24.3-16.1-12.5-3.4l-.3 2.2-.5 3c-2.2-1.6-4.1-1.4-2.8 1.4.3.6 1.5 1.6 1 2.8-3.9-3.8-7.4-5.3-9.6-4-4.7 2.9-.6 9.5 2.2 8.4 1.3-.5 2-2.4 4.8-.2a7.5 7.5 0 00-2.4 3.4c-1.6 0-2.8 1.6-2.8 3.5a3.6 3.6 0 001.8 3.2 68.7 68.7 0 01-7.4 1.2c2.1 3.1 3.8 4 7.6 4.6a12 12 0 01-4 10l.4-1.9c-1.4-.3-2 1.5-2.5 3.7-.6.5-1.2 1-2 1.4a1.9 1.9 0 001.5 1v.5l-1 .8-.4-.3a6.6 6.6 0 00-.2.8 5.7 5.7 0 01-1 .5c-.2.7.3 1.3-.2 1.9a15 15 0 00-.7-4.3c3.4-4.1 2.2-12.5-1-13.3h-.2a1 1 0 01-.4.7h-.1a2.6 2.6 0 000 .6c.4 2.7 1.5 6.2-1.7 4.2-1.4-.9-3.4-3.2-1.3-5 .5-.4 1.7 1.1 3 .3a.8.8 0 01.4-.7c.3-2.3-11-5-6.4 3.7-3.7-3.5-6.8-5.4-8.8-5.5s-2.8 1.2.1 2.3c2.2.8 5 3.5 5.3 4.2-1.7-2.1-4.4-3.8-6.7-2.5-1.3.7-.6 1.2.5 1.7a12 12 0 015.3 3.8c3.7 5.8 2.4 13.1 7 18.6.5-.1.6-.5.6-1 .7 1.3 2 1.5 3.3 1.4-1.2-.8-1.3-1.3-1.7-1.6a9.7 9.7 0 003.7 1.2c-2.6 7.7-2.2 9-2.2 10.7a.8.8 0 010 .2c2.9-.2 6 .6 9.9 1.7l1.1 1c-2.4.8.3 2.3 1.5.9-.5 1.2.1 2 1.1 1.9.2 2.3.1 4.9.2 7a1.2 1.2 0 010-.5 11.5 11.5 0 01-7 1.7c-2 0-6.5-1.5-7.7.3a2.3 2.3 0 00-.3 2c0 .9 1.3 1.8 3 1.8.3-4.2 4.9-3.3 6.4-3.1-1.4 0-6.3-.3-6 2.7 1.2 1.6 3.3 1.5 5.6.8 3.4-1 6.2-3.2 7.8-3.7 1-.3 3.3 0 3.8-.6a1.5 1.5 0 00.1-1.8 2.4 2.4 0 00-3.3 0 34.9 34.9 0 01-.5-7.3c.8.8 2.1.8 1.3-.8 0-.3.7-.4 1.6-.5.8.2 1.2.4 1.1.7-1 1.8 1 1.6 1.6.4a1.4 1.4 0 00.3.4l1.2 7.4c0-.3-.1-.7-.7-.7-1.3 0-1.9 1.4-1.2 2 .5.6 1.7.5 2.7.8 2.3.6 4.6 2.1 6.7 3a13 13 0 001.7.6l.2.1a4.5 4.5 0 003.2 0 2 2 0 001.5-1.6 1.3 1.3 0 000-1.2 1.6 1.6 0 00-.9-.5 12.3 12.3 0 00-3.5-.4c1.2-.2 3.7-.3 4.5.8a1.5 1.5 0 01.2 1.1 1 1 0 001.1-.8 2.1 2.1 0 000-1.2 2.6 2.6 0 00-.4-.9c-.7-.9-1.6-.8-2.5-.8zm.3-20.3c0-.3 0-.2 0 0z"/></g></g></svg>
