<svg xmlns="http://www.w3.org/2000/svg" viewBox="0 0 359.1 312.6"><g data-name="Layer 2"><g fill="#fff" fill-rule="evenodd" data-name="Слой 1"><path d="M113.7 208.7c-7.2 21-20.3 40.6-27.6 64 7-14.1 13-30 20.7-45.6 8.3-8 13-35.9-9.4-25.7-5.6.7-11.9 6.3-21.8 13.7-28.2 16.5-45.2 50.7-74.8 69 3.3-1.2 8.3-4.7 12.9-4.6-10 5-17.7 4-11.1 18.4 1 2.1-3 6.6-2.6 12.2 1-6.7 12.4-27.8 4-5.9-3.7 6.2 8.7 12 11.4 5.5-2.4-2.3 2.1-9.2 6.5-16.5 9.3-8 28.4-5 42.4-10.4-.9 4.7-3.7 8.2-4 14.9 6.6-22.5 10.2-20.3 1.6 4.8-1.3 7.5 5 7.1 9.9 6.9 6.5-23.5 15.9-44.1 25.3-65.3 0-.1.2 0 .2 0v-.7c.7-.8 1.7-3.9 2.8-5.4 3.3-8.2 8.4-16.6 12.3-27a11 11 0 011.3-2.3zm225 18.5l-4.6.4c-1-8.2 18.6-60.4-7.9-41.6-5 3-8.4 8.5-12.8 14.2-10.2 11.6-18.1 28.3-26.8 40.4.7-.7.5-1.6 2.8-2.1-5 12.1-12 24.9-10.5 39.8-.8-2.5 2.8-20.6 1.6-4.6-1.3 5.2 10.4 4.3 9.1 0-3.8-3 6.6-25 7.8-26.2 7.8-1.7 14.4-3 25-4.6.5 6.8-4.4 22.4 8.5 15.5 1.6-3.8-3.4-16 3.2-17.7 9.3-3.9 22.4.9 25-11 .2-2.5-7.3-3-14.7-3 2.2 1 3-.7-1.7 1.6l-9 1.5c-.4-2 2.9-2 5-2.5zm-5 .5h-.7c.2-2.2.7-5.4 2.2-15.7 0-.1.2 0 .2 0l-.1-.6c.3-.6.4-2.8.8-4 .6-5.9 2.4-11.9 3-19.7 1.7 3.6-5.2 28-5.5 40zm-.8.6c0 .2 0-.2.7-.3.4-.4-1 5-.7.3zm-.3 2.3a1.3 1.3 0 01.2.1h-.2v-.1zm-9.9 2c-3.8.7-8.7 1.5-13.5 2.8-3.5.4-1.1.3-8.1 1.9 0 .2.2-.7.5-.3a1.6 1.6 0 011.3-.3c3.5-1.4 8.4-1.6 13.1-3.3-3.8.6-9.8 2-14.5 3-.2-2.3 8.8-4 19.4-6.3.2-.1-.7.8.6 1.3.2-.4-.1-.2.2-1.6.7-6.7 1-15.3 2.7-23.9.1-.7-.4-2.8 1-3.8 0-.2-.3-.3.4-.4.4-.9 0 0 1.6-2 .4 0-.8 4-.7 6-.2.2-.5 0-.2.5 0 .1-.2 0-.2 0s.3.4 0 .6c-1.3 6.8-2 17.2-3.6 25.7zm-33 8.2c-.2 0-.4.2-.5.3.2 0 0-.8.8-1.1l-.4.8zm-1.6 2.7c-.2 1.4.6.4-3 8-.6 0 0-1.5 3-8zm56-6.7c.7 0 11.2-1.4 9.6-.6-5.5.1-13.3 1.7-20.5 2.2a72.6 72.6 0 0110.9-1.6zm-24.3 4c.3-.6.8-.2 1.3-.5 0 .6-1 .8-1.3.5zm-3.7.4c9.4-1.1-10.5 2.5-18.2 4.6l.1-.3-.4.2c4.7-1.8 12.2-2.8 18.5-4.5zm-26-1.4h-.3c.4-.3-.2-.4 1.2-2l-.9 2zM321 230a89.3 89.3 0 00-13.5 2.7c-.2 0-.4-.3-1 .3-.7-.2-.9.3-2.6.4a142.7 142.7 0 0110.7-16.7 68 68 0 017.7-10.3c0-.4 0 .2 1.2-2 0 6.8-2.1 16.9-2.4 25.6zm-17.4 3.6c-.1 0-.1.2-.5.2 5.2-9 13.2-24.4 21-31.6-5.6 9.2-14.6 19.8-20.5 31.4zm-12.1 3.6a1 1 0 01-.4.1 207.8 207.8 0 0111.2-20.2c.2-.4.7-.3.6-1 .3 0 0 .3.2.4a167.4 167.4 0 00-11.6 20.7zm35.9-39.9c1-2.5 1.4 1.2-2.3 4.2a7 7 0 012.2-4.2zm-3.1 16c-.8 5.7-1.6 11.7-2.1 18.5 0-7.4.2-10.2 2.2-20.5-.2.7 0 1.4-.1 2zm-60.4 55a2.5 2.5 0 00.2.3c-.2 0-.1 0-.2-.3zm.3 1c-1-.4.5-.4-2.8-2.6-.4 1.8 2.9 5.4.3 2.7-.1-4-6-7.2-11.8-16.3.1-.6-.7-1-.8-2-2.1-3.4-3-6-4.8-12.7-3.6 3.7 4.2 17 11.7 25.5-.3-.3-8.5-8.6-10.8-15.3-.4-.2-.5-1.5-1.1-2.4-.3-1.1-.6-1.7-1.2-4.2a96.5 96.5 0 00-3.7 9.2 37.5 37.5 0 00-2 5.4c-.3-.4 0-.3.8-3.5-1.3 4.3-7.2 16.4-2 20-.2 1.6-4.9.1-3 2 .8 0 1-.3 1.8-.3-1.5 2.3-3.6-2.2-4.9-2-.8-.5-4 2-4.6-1.7 1 1.2.3 2 3.2 1.3-4.6-3.2-2.6-11.6-1-17.8a52 52 0 00-2.6 12c-.7-1.3 2.1-13.5 2.5-12.2a2.2 2.2 0 00.3-1.7c.5.4-.2-.2.4-.2 0 0 9.8-32.1 15.8-27.8.4-.1 0-.4 1.3-.6.5.2 1.1-.2 1 1.1.4-.7 3 .5 1.7 1.7 1.2 0-1.5 3.5.4 1.8 0 0-1.8 3.4 1.5 12 0 .5 0 0 .5 1.6 0 .3 0 .5.8 1.5-.3-1.7-1-3.2-1.3-5a63.2 63.2 0 0012.3 23.6 81.2 81.2 0 014.8-14.5c-3.7 6.6 4-8.5 6.8-15-.8 1.4-1.3 3.9.1-.3l2-4.7c3.4-6.8 6.3-13.8 11.4-22.5-1.1-2 16.3-23.1 8.4-12 1.4.2 4-6.5 6-3.3.3 0 2-1.2 2.2 1.4 1 0 .9.9 1.3 1.5-5.3 7-11.4 19.3-16.3 28.2a3.9 3.9 0 01-.8 2.1c1.2-4.3-5.9 14-8.8 20.1-2.5 7-12.6 17.6-8.5 27.7-.8 0-1-.7-1.3-1.2a2.6 2.6 0 010 .4c1.3 2-1.9.1-.3 2.6-.8 0 .4-.7-2-1.5.3.6 0 0 .3 1.2-.2-.7-2.3-2.6-3.2-3.3h-.1zm-21.8-30.7c.5 0 .8-1.4 1.4-2.3-.5-.4 0-.4-1.4 2.3zm3.1-.7c.5.2.4.5-.3-1.9 0 .8.4 1.1.3 1.9zm-3.7 2c-2 4.8-3.9 8-5.8 15 1.4-4.5 4.2-9.3 6-15.7 0 .4-.2.6-.2.7zm-12.1 24.8c0-.3-.3-.3.1-1.2l1.3-7.9c-.1 2.4-4.4 10.5-1.7 14.5 0-1.9.2-4 .3-5.4zm3.6 2.5c1.9-8.5-.3-5.4-.1 3.1a23.3 23.3 0 01.1-3zm49.8-32a100.4 100.4 0 015-11.7c-1.3 2.7-2.7 7.3-5 11.7zm-14.5 14.6c.6-2 1.5-3.2 4.5-10.8-1.7 5.5-9 15.2-8.6 22.9a72 72 0 014-12.1zm-45.7-24.2c.2 0 .3 0 .2-.3 1.8-3.2-47.7 3.5-46 10.7 11.8-3.8 26.8-8.6 41.6-9.3-.2-.6 1-1.3 3.3-.3l.9-.8zm-60.5 56.8c.6.2 1.4-.4 1.9-.7-1.7-2.4.6-10.2 3.2-14.6a149.6 149.6 0 0110.5-21c-.2-1.2 1-1.9 2.4-4.8-.3 3.1-5.4 10.3-6 14.3 1-1.5 4.4-9.3 5.8-10.2-1.6 4.2-2.8 6.2-4.7 10.8-.2 0 9-12.4 5.4-15.3-6.3 6.9-10.9 22-16.1 29.2-1.6-3.3 17.5-25 12.2-31.7 0-1.6 63.5-19.8 48.7-4.6-10 2.1-24.8 4.8-36 8.3.6 4.3-1 5.1-2.4 10.3 35.3-8.7 34-7-1.7 3.9 5 0 39.6-12.4 30.7-3.8-14.2 7.9-33.6-.5-38.8 23 .8-.2.9-.2-.1.5 6.7.3 36.4-10.7 42.3-6.3 1.3-.4 2.6.2 4.2 3-14.4 4.8-33.7 6.8-48.8 13.7-.8 1-.8 0-4 2 3 2 12.6 2 11.4 6-.2.6-5.7.4-4.6 2.8-5.4-.8-10.4-4.5-16.7-5.4 3.7 1.8 8 3.2 13.6 5.4-2 0-5.3-1.8-8.7-3-2.4-.6-5.8-2.8-9.8-4.1-63.4-26.8-48.2-15.9.2 1a31.2 31.2 0 006 2.3c.1 0 0 .2 0 .2a.7.7 0 00.5 0v.2c.5 0 .1-.2 1.4.4.2.4-.8 0-1-.1 0-.1-.4.2-.3-.2l-.5.1v-.2c.1-.2-.3.4-.3-.2-.1 0-.3.2-.4 0s0-.1 0-.1c-.6 0-3.2-1-4.4-1.4-2-.4-6.1-2.7-9.3-3.3-3.2-1.8-29-11.3-32.3-13-4-7.6-11.8 28.5-15.4 21.1-.4-.5 1-5-.4-2.2 1.2 4.2-10 7.6-2.4-10 .5 0 1.7-5.1 3-7.1 2.3-6 3.4-7.6 9-19.5-.4 0-.5.2-.6.6-.6-.1 0-.5.1-.6.6-2.4 2.2-5.2 4-8.5-1.2-.9 2.7-5.1-.5-2.1 2-8.8 56.3-32.7 56.4-4.7-.7 3.5-6 7.1-8.9 10 .1 0-.4-.2-.4.2h-.4c.2.2-.4.3-.5.6a57.4 57.4 0 01-7.6 4.8c-1.8 1.6-5.6 3-9 4.8a33 33 0 01-3.4 1.2c-16 8-31.6-1.1 31.2 23.4.2-4.9-7.4-3-8.2-7.4.2-.3 0 .4.5 1.9zm22.8-39.8c-.6 3-3.7 7-4.8 11.6.1-2.3 4.4-7.1 5.2-12.5 0 .5-.4.7-.4.9zM173.4 260c-.7 2-2 4-2.7 6.6-.2.6-1.2 1.5-1.2 3-.5.1-.4 1-1 1.7 0 0 0 .3.2.4a20 20 0 00-2.3 6s-.5.3 0 .5c-.2-.5.5-.2.4-1.8l.3-.3a3 3 0 01.6-1.4 7 7 0 011.2-2.8c-.4-1.4 7.2-12.8 4.5-11.9zm-6 18.3c-.2.1-.8.5-.3 1.3-.2-.5.8-.8.2-1.8a.9.9 0 010 .5zm-1.2 5.2c.4 0 0 0 1-.3.1-.7.1-1.2-1 .3zm4.3 4.5c.6-.2 1.4-.4 1.3-1-.4.1-.9.4-1.3.2a1.8 1.8 0 000 .8zm-60.6-36c-.7 2.3-2 4.4-5.4 9.6a57 57 0 015.4-9.6zm54.1-18.5c-.7-.4-1-.6 0 0zm-36.5 11.4c-9.5 18.7-13.2 24.4 22.2 2.4 1.5-1.5 1.2-.6 4.6-4 16-13.7-24.2-.8-26.8 1.6zm31.8-6.5a10.4 10.4 0 00-1.8 2.9c1-1.6 1.3-.8 3.2-4.3-.5.3-.6-.2-1.1 0 .1.6 0 0-.3 1.4zm-38 15.3a69.3 69.3 0 00-4.6 8.6c3.3-5.2 14.7-25.1 4.6-8.6zm-6.7 13.5c-.7-.1-.2-.7-.1-1 .6.2 0 0 0 1zm-1.7 2.4a.7.7 0 00.2-.6h.5c-.2.2-.3.6-.7.6zm-1.5 3.7c-.4-.6.2-.7.2-1.2.6.2 0 1.2-.2 1.2zm-1.8 2.8c4.6-8-4.8 11.7-8 21.1 1.6-6.7 5.4-14.4 8-21.1zm-6.9-4.4c-.6 3-3.3 7-4.3 11.2-.1 0-.6.4-.5 1.1-.7.7-1 2.7-2 4.7.2.2-1 2-1.2 3.6h-.1c-.1 1 0 .2-.7 2.2-.3-.2 0 0 .2-1.5v-.3s.3.1 0-.3h.3s0-.8.2-.8v-.4c2.4-6.3 3.7-10.7 8.1-19.5zm0-6.2c-2.7 6.7-7.4 17.3-9.7 26.1-3.8 12.1.3-6.2 3.8-13.2.2 0-.4-.5.4-1a70.1 70.1 0 015.5-11.8zm-9-47c2.7-2.7.9 2.7-4.6 4.8a9.6 9.6 0 014.6-4.8zM83 240c.4-.8.4-2 1-3-4.2 5.8-9.4 24-11.8 27.5 4.1-10.6 8.8-24 14.3-35.2.6-1 .8-4 3-4.8.1-.2-.3-.6.5-.5.6-.6.9-.7 3-2.1-.2 1.8-2.6 4.9-3.6 8.5-.3 0-.6-.3-.4.6h-.3s.2.5-.1.7c-5.4 8-10.6 31-16.4 34.4 3-7.5 6.6-16.4 10.8-26.1zM65 243c-3.8 3.8-13.4 11.6-15.8 15.8a151.9 151.9 0 0120.5-19c3.5-3.2 8.5-7.8 13.9-11 .6-1 .3-.2 2.3-2.2-3.6 11.1-11 26-15.2 39-8.6-.6-19.9 1.7-30 3 5.7-11.3 33.4-37.1 47-44.8C82 230.1 73 235.2 64.8 243zm-10.4-9.3c.4-.4 1.1-.1 1.2-1.2a400.8 400.8 0 00-36.7 42 229 229 0 0135.5-40.8zM67 266.6c2-1 5.3.9.4 1.2-.6 0-4-1.3-.4-1.2zM49.6 270l9.1-1.1c-5.8 1.7-13.9 2.4-22 4 3-2 7.4-2 12.9-2.9zm16.7 9.4c1 0 1.6-.6 2.8-.3-.3 2-1.2 2.7-3.2 2.2a7 7 0 00.4-2zm-2.9.3c.7 0 1-.5 2.1-.3-8.8 7.6-29.2 6-41.5 10.5 1.2-5.9 29.7-8.1 39.4-10.2zM4.1 295.4c0-1 .1-1.5 1-1.4-.2.6 0 1.5-1 1.4zm40.4-32c0-.4 0-.4.3-.4-.5 1-3.8 4-.3.3z"/><path d="M136 175.8h18l6.3-7.1V90l74.8 85.7H258l6.2-7v48.8l-6.2-7.1H136l-6.2 7v-48.7l6.2 7zm122-134l6.1 7V0L258 7H136l-6.3-7v48.8l6.2-7h22.9l74.8 85.7V48.8l6.2-7z"/></g></g></svg>
