<svg xmlns="http://www.w3.org/2000/svg" viewBox="0 0 359.12 312.56">
  <title>n1-aena</title>
  <g id="Layer_2" data-name="Layer 2">
    <g id="Слой_1" data-name="Слой 1">
      <path d="M113.72,208.72c-7.24,21-20.32,40.59-27.65,64,7-14.17,13.1-29.93,20.76-45.65,8.24-7.91,12.94-35.87-9.48-25.66-5.58.68-11.83,6.24-21.72,13.69-28.19,16.5-45.24,50.66-74.8,69.06,3.23-1.29,8.31-4.73,12.86-4.67-10.07,5-17.68,4-11.1,18.44,1,2.1-2.92,6.54-2.57,12.15.92-6.63,12.39-27.82,3.92-5.88-3.64,6.19,8.73,11.92,11.42,5.47-2.4-2.31,2.16-9.2,6.56-16.47,9.29-8,28.35-5.06,42.36-10.42-.84,4.7-3.65,8.24-3.93,14.89,6.51-22.47,10.16-20.27,1.51,4.83-1.23,7.48,5.12,7.13,9.91,6.87,6.55-23.46,15.93-44.08,25.3-65.24,0-.15.26,0,.26,0,0-.15,0-.61,0-.76.65-.81,1.69-3.82,2.72-5.33,3.32-8.27,8.4-16.66,12.3-27.08A11,11,0,0,1,113.72,208.72Zm225,18.51c-1.54.11-3.09.23-4.64.38-.9-8.19,18.63-60.36-7.88-41.61-5.05,3-8.41,8.53-12.83,14.19-10.22,11.6-18.11,28.34-26.8,40.43.73-.76.53-1.64,2.8-2.15-5,12.15-12,24.91-10.44,39.84-.81-2.48,2.79-20.61,1.58-4.63-1.3,5.18,10.38,4.31,9.13.1-3.8-3,6.58-25.08,7.71-26.33,7.86-1.64,14.48-3,25.06-4.57.52,6.82-4.38,22.44,8.52,15.54,1.57-3.87-3.39-16,3.19-17.7,9.25-3.91,22.35.85,25-11,.15-2.56-7.35-3.11-14.72-3,2.18.93,3-.75-1.74,1.54l-8.93,1.54c-.4-2.05,2.83-2,5-2.55Zm-5.09.42-.64.07c.2-2.21.74-5.4,2.24-15.73,0-.09.19-.07.19-.07s-.13-.37-.16-.47c.29-.63.4-2.8.83-4,.61-5.92,2.43-11.92,3.08-19.76,1.68,3.57-5.26,28.08-5.54,39.93Zm-.72.68c.05.13.07-.2.68-.32.43-.42-1,5.05-.68.32Zm-.27,2.25a1.31,1.31,0,0,1,.11.12l-.13.06,0-.18Zm-9.91,1.94c-3.86.74-8.76,1.58-13.56,2.88-3.49.42-1.07.31-8.09,1.88,0,.19.19-.67.56-.25a1.55,1.55,0,0,1,1.29-.28c3.47-1.48,8.39-1.6,13.08-3.34-3.85.63-9.86,2-14.49,3.08-.26-2.41,8.79-4.12,19.33-6.39.25-.15-.68.8.62,1.26.22-.37-.08-.14.26-1.52l-.12,0c.81-6.71,1-15.33,2.74-23.94.18-.66-.31-2.8,1.11-3.77,0-.18-.36-.28.29-.42.44-.86.1,0,1.67-2.1.36.06-.81,4-.75,6.13-.14.12-.52,0-.16.48,0,.09-.2.07-.2.07s.26.28.06.5c-1.33,6.79-2.16,17.17-3.64,25.71Zm-33.12,8.27c-.14.1-.29.2-.42.31.19,0,0-.85.79-1.13l-.37.82Zm-1.52,2.71c-.21,1.39.56.36-3,8C284.5,251.5,285.08,250,288.08,243.5Zm56-6.72c.71,0,11.24-1.34,9.63-.6-5.48.15-13.32,1.69-20.53,2.21A72.63,72.63,0,0,1,344.05,236.78Zm-24.31,4.06c.35-.64.77-.26,1.29-.51.1.56-1,.72-1.29.51Zm-3.65.33c9.33-1.09-10.51,2.54-18.23,4.62,0-.09.08-.19.11-.28l-.42.2C302.29,243.92,309.82,242.86,316.09,241.17Zm-26-1.39c-.08.06,0,0-.31.09.4-.37-.25-.47,1.2-2-.3.62-.6,1.24-.89,1.87Zm30.8-9.81a89.35,89.35,0,0,0-13.58,2.71c-.13,0-.39-.32-1,.27-.61-.17-.81.3-2.59.49a142.73,142.73,0,0,1,10.72-16.72,68,68,0,0,1,7.74-10.37c0-.38-.07.22,1.16-2-.06,6.86-2.11,16.9-2.42,25.63Zm-17.46,3.63c-.09,0-.07.19-.51.17,5.28-9,13.23-24.35,21.07-31.57-5.64,9.15-14.67,19.77-20.56,31.4Zm-12.09,3.58a.94.94,0,0,1-.37.16,207.81,207.81,0,0,1,11.17-20.21c.2-.39.74-.38.62-1.07.31,0,0,.32.15.47a167.44,167.44,0,0,0-11.57,20.65Zm35.87-39.87c1.12-2.48,1.49,1.19-2.26,4.21A6.94,6.94,0,0,1,327.17,197.31Zm-3.05,16c-.82,5.7-1.61,11.64-2.14,18.47,0-7.43.26-10.16,2.22-20.49-.2.71.05,1.45-.08,2Zm-60.36,55a2.45,2.45,0,0,0,.12.33C263.78,268.51,263.88,268.63,263.76,268.3Zm.23.95c-.9-.33.56-.37-2.73-2.58-.46,1.86,2.83,5.39.24,2.72-.13-3.95-5.89-7.17-11.75-16.29.11-.64-.74-.95-.87-2-2.09-3.4-2.89-6.09-4.73-12.71-3.63,3.69,4.16,16.95,11.68,25.51-.33-.3-8.54-8.59-10.84-15.32-.33-.2-.43-1.49-1.09-2.41-.29-1.08-.54-1.66-1.19-4.21a96.51,96.51,0,0,0-3.68,9.19,37.5,37.5,0,0,0-2,5.42c-.31-.43,0-.32.8-3.51-1.27,4.29-7.19,16.41-2.1,20-.15,1.65-4.81.15-2.9,2.12.75-.06,1.08-.38,1.77-.44-1.45,2.37-3.6-2.12-4.84-2-.82-.5-4,2-4.63-1.63,1,1.18.33,2,3.15,1.3-4.57-3.19-2.58-11.66-1.05-17.87a51.91,51.91,0,0,0-2.55,12.12c-.69-1.34,2.17-13.61,2.54-12.29a2.2,2.2,0,0,0,.26-1.66c.5.36-.14-.22.44-.27.09,0,9.83-32.09,15.82-27.74.36-.12,0-.41,1.29-.58.51.19,1.1-.24.91,1.08.48-.73,3.08.45,1.78,1.71,1.24-.08-1.46,3.52.42,1.73.07.07-1.79,3.41,1.43,12,.1.5.07.14.5,1.64h.11c0,.32,0,.52.72,1.51-.33-1.72-1-3.23-1.32-5.07A63.17,63.17,0,0,0,262,262.35a81.24,81.24,0,0,1,4.82-14.41c-3.73,6.52,3.92-8.54,6.75-15.06l.05.06c-.78,1.35-1.35,3.84.13-.33l-.08,0c.59-1.36,1.31-2.94,2.1-4.68,3.29-6.86,6.19-13.81,11.28-22.54-1.08-1.9,16.33-23.13,8.42-12,1.43.17,4.1-6.49,6-3.34.35.05,2-1.14,2.23,1.45.91,0,.89.89,1.28,1.46-5.27,7.1-11.37,19.32-16.32,28.23a3.9,3.9,0,0,1-.75,2.11c1.17-4.31-5.91,13.91-8.85,20.15-2.42,6.88-12.57,17.58-8.43,27.69-.8-.07-1-.77-1.29-1.29a2.64,2.64,0,0,1,0,.4l-.11,0c1.38,2-1.8.19-.26,2.69-.73,0,.47-.7-1.94-1.56.23.61.06.11.26,1.2-.14-.66-2.28-2.53-3.18-3.24,0,0-.07,0-.13-.08Zm-21.75-30.71c.51,0,.74-1.32,1.38-2.22-.5-.39-.06-.4-1.38,2.22Zm3.08-.67c.47.2.44.56-.33-1.84.06.75.38,1.07.33,1.84Zm-3.72,2.07h0c-1.95,4.75-3.88,8-5.74,15,1.32-4.56,4.13-9.38,6-15.8,0,.47-.24.6-.28.78Zm-12.11,24.74c.1-.34-.3-.25.13-1.18.14-1-.05-.23,1.29-7.87-.13,2.36-4.37,10.44-1.65,14.43,0-1.86.17-4,.23-5.38Zm3.66,2.53c1.86-8.56-.31-5.44-.14,3.1a23.26,23.26,0,0,1,.14-3.1ZM283,235.15a100.37,100.37,0,0,1,4.92-11.61c-1.21,2.68-2.67,7.24-4.92,11.61Zm-14.52,14.61c.59-2,1.55-3.13,4.51-10.73-1.74,5.49-9,15.18-8.59,22.82A71.93,71.93,0,0,1,268.43,249.76ZM222.8,225.57c.17,0,.26,0,.23-.22,1.75-3.21-47.77,3.49-46,10.7,11.73-3.81,26.81-8.65,41.58-9.32-.23-.62,1.08-1.36,3.25-.31C222.29,226.15,221.82,226.31,222.8,225.57Zm-60.55,56.85h0c.64.17,1.45-.39,1.93-.73-1.7-2.35.6-10.17,3.22-14.64a149.64,149.64,0,0,1,10.54-20.91c-.19-1.21,1-1.94,2.39-4.81-.34,3.07-5.4,10.26-6.12,14.28,1-1.56,4.54-9.33,5.91-10.17-1.57,4.13-2.78,6.12-4.75,10.79-.17-.05,9.06-12.41,5.43-15.32-6.27,6.89-10.87,22-16.14,29.22-1.56-3.34,17.51-25.12,12.2-31.74,0-1.6,63.54-19.75,48.78-4.62-10,2.14-24.84,4.85-36,8.37.56,4.26-1,5.11-2.48,10.26,35.39-8.68,34-7-1.63,3.9,5,0,39.6-12.4,30.63-3.83-14.15,7.89-33.6-.46-38.76,23,.81-.14.86-.15-.1.54,6.74.3,36.39-10.72,42.35-6.3,1.22-.41,2.51.19,4.19,3-14.39,4.83-33.7,6.76-48.88,13.69-.73,1.06-.8,0-3.94,1.93,2.91,2.15,12.58,2.05,11.34,6.13-.18.57-5.61.36-4.59,2.71-5.39-.79-10.32-4.48-16.7-5.35,3.74,1.76,8.05,3.22,13.62,5.4-2-.07-5.33-1.85-8.65-3-2.39-.59-5.87-2.82-9.79-4.13-63.46-26.74-48.27-15.89.1,1a31.24,31.24,0,0,0,6.11,2.34c.08,0,0,.17,0,.17a.67.67,0,0,0,.41-.07c0,.09,0,.26,0,.25.54,0,.14-.15,1.43.45.18.37-.8,0-1-.17,0-.1-.38.25-.35-.12l-.41.06s.05-.17,0-.16c.08-.2-.37.33-.37-.2-.08,0-.31.14-.33,0s0-.16,0-.16c-.66.11-3.2-.93-4.44-1.42-1.92-.33-6.12-2.66-9.29-3.29-3.18-1.75-29-11.31-32.32-13-4-7.54-11.77,28.54-15.44,21.14-.34-.46,1-5-.33-2.24,1.22,4.21-10,7.66-2.45-10,.55-.05,1.75-5.1,3.1-7.11,2.24-6,3.33-7.59,9-19.49-.5,0-.62.26-.72.61-.51-.09.07-.51.16-.53.59-2.42,2.22-5.22,3.91-8.57-1.14-.85,2.79-5.08-.39-2.12,2-8.76,56.23-32.65,56.34-4.62-.64,3.47-6,7.07-8.85,9.91.08.1-.39-.18-.38.22l-.4.07c.18.18-.49.28-.56.58a57.43,57.43,0,0,1-7.55,4.76c-1.81,1.58-5.68,2.93-9,4.8a33.08,33.08,0,0,1-3.45,1.2c-16,8.06-31.56-1.11,31.19,23.44.23-4.9-7.35-3-8.18-7.42.17-.33-.08.41.47,1.88Zm22.89-39.86c-.67,3.13-3.77,7.11-4.82,11.68.13-2.33,4.42-7.16,5.14-12.53,0,.45-.34.68-.32.85ZM173.45,260c-.72,2-2,4.06-2.75,6.56-.21.64-1.17,1.52-1.22,3.12-.47.05-.33,1-.9,1.65-.09,0,0,.26.14.34-.82.9-1.73,3.81-2.31,5.95-.08,0-.47.43-.09.55-.08-.48.55-.19.44-1.76.08-.1.33-.23.31-.31a3,3,0,0,1,.59-1.43,7,7,0,0,1,1.27-2.77c-.38-1.44,7.22-12.83,4.52-11.9Zm-6.14,18.29c-.15.13-.69.47-.16,1.27-.28-.42.76-.79.19-1.72a.88.88,0,0,1,0,.45Zm-1.07,5.23c.34-.09,0,0,.94-.29C167.32,282.52,167.34,282,166.24,283.51Zm4.24,4.52c.58-.26,1.45-.4,1.35-1.09-.42.15-.91.49-1.31.2a1.82,1.82,0,0,0,0,.89ZM109.88,252c-.63,2.29-2,4.37-5.39,9.63A56.94,56.94,0,0,1,109.88,252ZM164,233.49c-.74-.39-1-.6,0,0Zm-36.46,11.42c-9.49,18.74-13.19,24.42,22.16,2.42,0,0-.09-.07,0-.08,1.48-1.4,1.16-.51,4.6-4,15.94-13.68-24.2-.77-26.75,1.63Zm31.78-6.51a10.44,10.44,0,0,0-1.81,2.88c1-1.58,1.27-.73,3.22-4.27-.54.25-.63-.24-1.17,0C159.73,237.58,159.54,237,159.3,238.4Zm-38,15.26a69.25,69.25,0,0,0-4.64,8.68c3.28-5.26,14.71-25.17,4.64-8.68Zm-6.75,13.53c-.69-.14-.12-.65-.08-.91C115.08,266.44,114.47,266.28,114.55,267.19Zm-1.63,2.44a.73.73,0,0,0,.13-.61l.49-.08c-.11.27-.22.62-.62.69Zm-1.57,3.68c-.37-.62.2-.71.27-1.22.55.25,0,1.17-.27,1.22Zm-1.74,2.78c4.52-8-4.85,11.72-8.09,21.12,1.67-6.73,5.41-14.37,8.09-21.12Zm-6.91-4.41h0c-.59,3.11-3.32,7.07-4.34,11.24-.1-.06-.57.42-.47,1.08-.71.75-1,2.7-2,4.67.22.26-.93,2.08-1.17,3.62l-.16,0c-.13.95.06.22-.67,2.2-.29-.22-.06,0,.22-1.46,0-.08-.06-.33-.06-.33s.3.1.1-.35l.25,0c0,.06-.08-.72.2-.7,0-.16-.07-.41-.09-.49C97,284.93,98.32,280.5,102.7,271.68Zm0-6.13c-2.68,6.68-7.4,17.21-9.76,26.08-3.76,12.08.3-6.25,3.88-13.27.15,0-.4-.42.34-.89A70.13,70.13,0,0,1,102.72,265.55Zm-9.07-47.09c2.72-2.61.91,2.76-4.56,4.89A9.58,9.58,0,0,1,93.65,218.46ZM83,240.08c.41-.76.43-2,1-2.89-4.18,5.67-9.41,24-11.77,27.39,4.1-10.55,8.73-24,14.27-35.14.56-1,.77-4.13,3-4.88.12-.2-.34-.6.54-.46.53-.62.83-.71,2.93-2.15-.15,1.87-2.56,4.94-3.56,8.52-.29.09-.59-.31-.4.61,0,.15-.27,0-.27,0s.2.49-.14.76c-5.43,8-10.56,31-16.37,34.4C75.17,258.69,78.82,249.79,83,240.08ZM64.91,243c-3.75,3.77-13.29,11.59-15.68,15.76a151.9,151.9,0,0,1,20.48-19c3.48-3.16,8.51-7.79,13.88-10.89.59-1,.33-.22,2.28-2.29-3.54,11.16-10.91,26-15.12,38.93-8.61-.5-19.9,1.79-30.12,3.17,5.76-11.33,33.52-37.18,47-44.85C82,230.06,73.08,235.23,64.91,243Zm-10.27-9.29c.4-.46,1.06-.16,1.2-1.22-11.66,12-25.45,26.43-36.79,42,8.58-14.14,22.7-28.23,35.59-40.8ZM66.91,266.6c1.91-1.06,5.28.9.38,1.21-.58-.06-4-1.32-.38-1.21ZM49.58,270c2.78-.33,6-.82,9.12-1.15-5.78,1.73-13.86,2.48-22,4C39.63,270.85,44.12,270.89,49.58,270Zm16.73,9.38c1.06,0,1.6-.62,2.78-.33-.3,2-1.23,2.74-3.2,2.3a7,7,0,0,0,.42-2Zm-2.9.33c.66,0,1.06-.47,2.11-.32-8.82,7.59-29.19,6.1-41.57,10.55,1.2-5.9,29.73-8.17,39.46-10.23ZM4.08,295.39c0-.91.16-1.52.94-1.37-.14.6,0,1.51-.94,1.37Zm40.46-32.06c-.12-.3,0-.3.27-.3C44.26,264,41,267,44.54,263.33Z" fill="#fff" fill-rule="evenodd"/>
      <path d="M135.93,175.76h18.14l6.19-7.09V90l74.89,85.74H258l6.19-7.09v48.84l-6.19-7.1h-122l-6.19,7.1V168.67l6.19,7.09Zm122-134,6.2,7.09V0L258,7.09h-122L129.74,0V48.84l6.19-7.09h22.82l74.88,85.73V48.84l6.2-7.09Z" fill="#fff" fill-rule="evenodd"/>
    </g>
  </g>
</svg>
