<?xml version="1.0" standalone="no"?>
<!DOCTYPE svg PUBLIC "-//W3C//DTD SVG 20010904//EN"
 "http://www.w3.org/TR/2001/REC-SVG-20010904/DTD/svg10.dtd">
<svg version="1.0" xmlns="http://www.w3.org/2000/svg"
 width="192.000000pt" height="192.000000pt" viewBox="0 0 192.000000 192.000000"
 preserveAspectRatio="xMidYMid meet">
<metadata>
Created by potrace 1.11, written by Peter Selinger 2001-2013
</metadata>
<g transform="translate(0.000000,192.000000) scale(0.100000,-0.100000)"
fill="#000000" stroke="none">
<path d="M938 1915 c-2 -1 -32 -5 -68 -8 -36 -3 -87 -11 -115 -17 -27 -7 -55
-13 -62 -14 -7 -1 -16 -5 -19 -9 -4 -4 -14 -7 -23 -7 -28 0 -204 -94 -267
-142 -98 -75 -254 -258 -254 -297 0 -5 -7 -14 -15 -21 -8 -6 -14 -15 -13 -18
1 -4 -8 -28 -20 -54 -31 -70 -56 -162 -68 -253 -5 -38 -5 -202 0 -235 42 -263
161 -470 361 -629 73 -58 219 -137 277 -150 4 -1 27 -9 50 -17 24 -8 59 -17
78 -19 19 -3 46 -7 60 -10 33 -7 207 -7 245 0 30 6 136 27 145 30 61 18 194
81 251 118 79 51 259 229 259 256 0 5 4 11 8 13 21 8 132 238 115 238 -3 0 -1
6 5 13 6 7 14 28 17 47 3 19 8 42 10 50 9 34 16 104 16 172 3 368 -204 700
-535 862 -52 26 -105 49 -117 51 -12 3 -37 9 -56 16 -41 13 -66 17 -158 24
-38 4 -78 8 -87 9 -9 2 -18 3 -20 1z"/>
</g>
</svg>
