<svg xmlns="http://www.w3.org/2000/svg" viewBox="0 0 230.01 47.99"><title>acoola</title><path d="M78,23.75c1,0,1.31-.63,1.35-1.45.05-1.38,0-2.82.05-4.27,0-.85-.69-1.63-2-1.63l-34,.12a1.82,1.82,0,0,0-1.89,1.7,86.73,86.73,0,0,0-1.12,13.32,102.35,102.35,0,0,0,.94,14.05A2.47,2.47,0,0,0,44.06,48c10.85,0,22.21,0,33.29,0a1.85,1.85,0,0,0,2-1.86c0-1.43-.07-2.78-.09-4.12-.05-.83-.5-1.47-1.28-1.46-3.15,0-13.16.12-13.17.12a85.66,85.66,0,0,1-.44-9.09,77.54,77.54,0,0,1,.4-8C65.73,23.56,77,23.71,78,23.75ZM36.52,14C27.74,12.77,15,11.17,5.27,9.88a1.33,1.33,0,0,0-1.62.93,39.76,39.76,0,0,0-1.15,5,1.41,1.41,0,0,0,1.21,1.52c6.48.86,19.55,2.19,27.89,3.27l-.32,3.29c-5.42-.37-28.72-2.81-28.72-2.81a1.33,1.33,0,0,0-1.34,1.22A60.24,60.24,0,0,0,0,34.27a88.65,88.65,0,0,0,.84,12A2,2,0,0,0,3,48c.72,0,33.91,0,33.91,0,1,0,1.6-1,1.54-1.89a165.59,165.59,0,0,1,0-29.8A2.11,2.11,0,0,0,36.52,14ZM24,40.62c-.13-1.35-.25-2.83-.25-4.13,0-1.51,0-4.3.18-6.16l7,.39c-.07,2.33.41,9.14.41,9.76C30.54,40.48,24.77,40.62,24,40.62ZM228,14c-8.78-1.21-21.52-2.81-31.25-4.1a1.34,1.34,0,0,0-1.63.93,47.88,47.88,0,0,0-1.14,5,1.43,1.43,0,0,0,1.21,1.52c6.47.86,19.55,2.19,27.89,3.27l-.32,3.29c-5.43-.37-28.72-2.81-28.72-2.81a1.34,1.34,0,0,0-1.35,1.22,60.41,60.41,0,0,0-1.21,11.91,88.8,88.8,0,0,0,.84,12A2,2,0,0,0,194.54,48c.71,0,33.91,0,33.91,0,1,0,1.6-1,1.53-1.89a165.67,165.67,0,0,1,0-29.81A2.1,2.1,0,0,0,228,14ZM215.48,40.62c-.14-1.35-.25-2.83-.25-4.13,0-1.51,0-4.3.18-6.16l7,.39c-.06,2.33.41,9.14.41,9.76C222.05,40.48,216.28,40.62,215.48,40.62Zm-97.2-24.37-33.78,0a1.76,1.76,0,0,0-1.88,1.63,109.94,109.94,0,0,0-1,12.19,139.22,139.22,0,0,0,1,15.74,1.87,1.87,0,0,0,1.76,1.91h33.89a1.85,1.85,0,0,0,2-1.86c-.14-4.87-.15-9-.19-13.89s.14-8.55.21-13.79A1.93,1.93,0,0,0,118.28,16.25Zm-5.19,24s-4.91,0-7.33.13a78.47,78.47,0,0,1-.47-8.42c0-2.74.13-6.09.4-8.7,2.51,0,7.4.14,7.4.14-.19,2.8-.3,5.26-.29,8.6C112.8,34.73,112.94,36.24,113.09,40.27Zm45-24-33.77,0a1.93,1.93,0,0,0-2,1.91c.07,5.24.21,8.92.21,13.79s-.06,9-.19,13.89a1.85,1.85,0,0,0,2,1.86h33.89c.57,0,1.58-.39,1.76-1.91A139.2,139.2,0,0,0,161,30.05,120,120,0,0,0,160,17.86,1.78,1.78,0,0,0,158.13,16.23ZM136.88,40.4c-2.42-.09-7.33-.13-7.33-.13.15-4,.28-5.54.29-8.25,0-3.34-.11-5.8-.29-8.6,0,0,4.88-.14,7.39-.14.27,2.6.41,6,.41,8.7A78.47,78.47,0,0,1,136.88,40.4Zm50.84-13.16a157.88,157.88,0,0,1,1.5-18.15A1.88,1.88,0,0,0,187.51,7s-6.64,0-10.22,0H166.91A2,2,0,0,0,165,8.72a132.47,132.47,0,0,0-1.67,18.44A134.64,134.64,0,0,0,165,45.79a2,2,0,0,0,1.76,1.9c3.23.14,6.35.21,10.38.21,4.22,0,7.21,0,10.31-.17a1.88,1.88,0,0,0,1.76-2.13A139.29,139.29,0,0,1,187.72,27.24ZM87.92,11.37c.12,1.6,1.07,2,2.64,1.87l21.7-1.71c1.27-.07,2.11-.53,2-2.13L114,6.14c-.11-1.45-.86-1.74-2.62-1.6L89.79,6.21c-1.58.12-2.21.77-2.09,2.37Zm40.89-4.29L150.38,10c1.26.2,2.18-.07,2.38-1.65l.42-3.25C153.37,3.63,152.7,3.2,151,3L129.49.05c-1.56-.22-2.31.29-2.52,1.87l-.36,2.79C126.4,6.29,127.25,6.87,128.81,7.08Z" fill="#fff"/></svg>