<svg xmlns="http://www.w3.org/2000/svg" viewBox="0 0 111.33 39.49"><path fill="#fff" d="M8.13 36.65a1 1 0 010 .18.76.76 0 010 .15.31.31 0 010 .1v.08l-.08.1-.22.15a2.69 2.69 0 01-.34.17 2.58 2.58 0 01-.49.12 2.25 2.25 0 01-.46 0 2.14 2.14 0 01-.87-.16 1.67 1.67 0 01-.64-.47 2.23 2.23 0 01-.39-.77 3.68 3.68 0 01-.13-1.05 3.55 3.55 0 01.16-1.15 2.08 2.08 0 01.46-.8 1.83 1.83 0 01.67-.46 2.32 2.32 0 01.84-.15 2.85 2.85 0 01.42 0 2.9 2.9 0 01.38.11 1.79 1.79 0 01.31.15 1.25 1.25 0 01.19.15l.09.1v.08a.36.36 0 010 .11.66.66 0 010 .15.63.63 0 010 .28L8 34a.26.26 0 01-.17-.09c-.07 0-.15-.12-.25-.18a2.12 2.12 0 00-.37-.19 1.56 1.56 0 00-.51-.08 1.07 1.07 0 00-.93.46 2.4 2.4 0 00-.32 1.35 3 3 0 00.05.73 1.51 1.51 0 00.24.56 1 1 0 00.4.33 1.33 1.33 0 00.54.11 1.36 1.36 0 00.51-.09 2.12 2.12 0 00.37-.2l.27-.2a.34.34 0 01.17-.07h.06a.13.13 0 010 .07.37.37 0 01.07.14zm4.79-3.73a.13.13 0 00-.05-.07.13.13 0 00-.08 0H9.22a.09.09 0 00-.07 0 .22.22 0 00-.06.07v.12a.7.7 0 000 .16.72.72 0 000 .17 1 1 0 000 .12.13.13 0 00.05.07.13.13 0 00.08 0h1.37v3.93a.15.15 0 000 .07h.8a.08.08 0 000-.07v-3.9h1.37a.11.11 0 00.08 0 .13.13 0 00.05-.07.36.36 0 000-.11v-.18A.78.78 0 0013 33zm5.38 1.24a3.61 3.61 0 01.14 1 3.42 3.42 0 01-.15 1 2 2 0 01-.44.8 1.79 1.79 0 01-.73.53 2.46 2.46 0 01-1 .19 2.61 2.61 0 01-1-.16 1.77 1.77 0 01-.7-.49 2 2 0 01-.42-.78 3.63 3.63 0 01-.13-1 3.42 3.42 0 01.14-1 2.27 2.27 0 01.44-.81 1.91 1.91 0 01.72-.52 2.9 2.9 0 012 0 1.79 1.79 0 01.69.48 2 2 0 01.44.76zm-.73 1.08a3.2 3.2 0 00-.07-.7 1.62 1.62 0 00-.22-.57 1.18 1.18 0 00-.43-.4 1.52 1.52 0 00-.68-.14 1.41 1.41 0 00-.64.13 1.14 1.14 0 00-.44.37 1.49 1.49 0 00-.26.57 2.73 2.73 0 00-.09.72 4 4 0 00.07.71 1.62 1.62 0 00.23.57 1.08 1.08 0 00.43.39 1.42 1.42 0 00.68.15 1.41 1.41 0 00.64-.13 1.24 1.24 0 00.45-.37 1.65 1.65 0 00.25-.57 2.77 2.77 0 00.08-.73zm5.92-2.41h-2.34a.21.21 0 00-.18.07.37.37 0 00-.08.23 24.87 24.87 0 01-.34 2.31 5.06 5.06 0 01-.22.71 2.14 2.14 0 01-.24.48.83.83 0 01-.29.25.61.61 0 01-.32.08h-.07a.09.09 0 000 .06 1 1 0 000 .12v.2a.92.92 0 000 .19.16.16 0 000 .11.1.1 0 00.05.06h.08a1.49 1.49 0 00.52-.08 1.3 1.3 0 00.46-.28 2.2 2.2 0 00.39-.52 4.18 4.18 0 00.32-.78 10.15 10.15 0 00.25-1.1c.08-.42.14-.9.2-1.44h1.26v4a.08.08 0 000 .07h.8a.14.14 0 000-.07v-4.37a.37.37 0 00-.07-.23.25.25 0 00-.18-.07zm5.89 2.61a1.61 1.61 0 01.12.63 1.75 1.75 0 01-.13.65 1.26 1.26 0 01-.39.53 1.82 1.82 0 01-.68.35 3.28 3.28 0 01-1 .13h-1.07a.42.42 0 01-.41-.48V33a.08.08 0 010-.07.1.1 0 01.06 0 .28.28 0 01.13 0h.19a.88.88 0 01.34 0 .13.13 0 01.1.12v1.6h.79a3.59 3.59 0 01.93.11A2.06 2.06 0 0129 35a1.25 1.25 0 01.38.44zm-.76.69a1.12 1.12 0 00-.06-.38.66.66 0 00-.21-.29.9.9 0 00-.38-.18 2 2 0 00-.58-.07h-.73V37h.76a1.43 1.43 0 00.91-.24.85.85 0 00.29-.63zm2.48-3.29a.23.23 0 00-.13 0h-.41a.25.25 0 00-.13 0 .1.1 0 00-.06 0 .08.08 0 000 .07v4.56a.08.08 0 000 .07H31.19a.09.09 0 000-.07V33a.09.09 0 000-.07.1.1 0 00-.09-.09zm9 0h-.59l-.08.05-.06.07-2 2.68-.26.37-.23.37V36v-3a.11.11 0 00-.09-.11.85.85 0 00-.33 0h-.33a.22.22 0 00-.07.06.14.14 0 000 .06v4.58a.14.14 0 000 .06.1.1 0 00.06 0H36.76l.07-.07 1.93-2.65.28-.39a3.42 3.42 0 00.26-.4v3.44a.07.07 0 000 .06.1.1 0 00.07 0h.76a.18.18 0 00.07 0 .14.14 0 000-.06V33a.14.14 0 000-.07zm8.26 3.7v-.07h-.06a.31.31 0 00-.17.09l-.27.2a1.91 1.91 0 01-.38.2 1.41 1.41 0 01-1 0 1 1 0 01-.4-.33 1.7 1.7 0 01-.25-.56 3.5 3.5 0 01-.08-.77 2.4 2.4 0 01.25-1.4 1.06 1.06 0 01.93-.46 1.6 1.6 0 01.51.08 2 2 0 01.36.19 2.28 2.28 0 01.26.18.26.26 0 00.17.09.14.14 0 00.11-.08.63.63 0 000-.28.66.66 0 000-.15.36.36 0 000-.11.2.2 0 000-.08.31.31 0 00-.08-.1l-.21-.18a2.23 2.23 0 00-.31-.15 3.44 3.44 0 00-.38-.11 3 3 0 00-.42 0 2.32 2.32 0 00-.84.15 1.86 1.86 0 00-.68.46 2.2 2.2 0 00-.45.8 3.55 3.55 0 00-.16 1.15 3.68 3.68 0 00.13 1.05 2.23 2.23 0 00.39.77 1.59 1.59 0 00.64.47 2.14 2.14 0 00.87.16 2.32 2.32 0 00.46 0 2.58 2.58 0 00.42-.12 2.69 2.69 0 00.34-.17 1.16 1.16 0 00.21-.15.41.41 0 00.08-.1.11.11 0 000-.08.3.3 0 000-.1.76.76 0 000-.15 1 1 0 000-.18.35.35 0 00.02-.17zm4.82-3.61s0-.06-.06-.07a.09.09 0 00-.07 0h-3.57a.11.11 0 00-.07 0v.07a.35.35 0 000 .12.7.7 0 000 .16.72.72 0 000 .17.21.21 0 000 .12.13.13 0 000 .07.11.11 0 00.07 0h1.37v3.93a.14.14 0 000 .07h.8a.14.14 0 000-.07v-3.91h1.37a.11.11 0 00.08 0 .13.13 0 000-.07.2.2 0 000-.11 1 1 0 000-.18.81.81 0 000-.16 1 1 0 00.09-.15zm5-.11h-.48a.33.33 0 00-.13 0 .22.22 0 00-.07.13l-1.26 3.68L54.89 33a.58.58 0 000-.11.22.22 0 00-.07-.06h-.62a.27.27 0 00-.13 0 .12.12 0 000 .1.41.41 0 000 .16l1.62 4.37a.24.24 0 00.06.09l.09.07-.63 1.59a.27.27 0 000 .12.14.14 0 000 .08.34.34 0 00.12 0h.22a1.25 1.25 0 00.38 0 .24.24 0 00.15-.12l.61-1.68 1.64-4.54a.49.49 0 000-.15.12.12 0 000-.1.27.27 0 00-.18-.01zm4.81 0h-2.38a.21.21 0 00-.18.07.45.45 0 00-.07.23c0 .49-.11.93-.16 1.31s-.12.71-.19 1a4.07 4.07 0 01-.21.71 2.12 2.12 0 01-.25.48.8.8 0 01-.28.25.61.61 0 01-.27.13h-.07l-.05.06a.37.37 0 000 .12 1.15 1.15 0 000 .2 1 1 0 000 .19.53.53 0 000 .11s0 .05.06.06H59a1.55 1.55 0 00.53-.08 1.5 1.5 0 00.46-.28 2.19 2.19 0 00.38-.52 3.6 3.6 0 00.32-.78 10 10 0 00.26-1.1c.08-.42.14-.9.19-1.44h1.26v4a.14.14 0 000 .07h.79a.08.08 0 000-.07v-4.41a.37.37 0 00-.06-.23.25.25 0 00-.13-.07zm6 2.61a1.61 1.61 0 01.12.63 1.57 1.57 0 01-.13.65 1.29 1.29 0 01-.4.53 1.84 1.84 0 01-.7.35 3.37 3.37 0 01-1 .13h-1.12a.45.45 0 01-.31-.14.48.48 0 01-.1-.34V33a.15.15 0 010-.07.13.13 0 01.07 0 .23.23 0 01.13 0h.4a.23.23 0 01.13 0 .1.1 0 01.07 0 .08.08 0 010 .07v1.6H67a3.84 3.84 0 011 .11 2.07 2.07 0 01.65.31 1.25 1.25 0 01.35.42zm-.76.69a1.12 1.12 0 00-.06-.38.77.77 0 00-.22-.29 1.06 1.06 0 00-.4-.18 2.06 2.06 0 00-.6-.07H66.12V37H67a1.53 1.53 0 00.94-.24.84.84 0 00.25-.63zM74 33a.36.36 0 01.08.23v4.34a.14.14 0 010 .07.1.1 0 01-.06 0h-.68a.1.1 0 01-.06 0 .14.14 0 010-.07V35.6h-.48a2 2 0 00-.49 0 .83.83 0 00-.32.17 1.53 1.53 0 00-.25.3 4.09 4.09 0 00-.21.46l-.37.89-.06.11a.24.24 0 01-.08.06.33.33 0 01-.15 0h-.52a.13.13 0 01-.07 0 .07.07 0 010-.06.35.35 0 010-.12l.11-.27.37-.86a2 2 0 01.35-.56 1.35 1.35 0 01.48-.35 1.44 1.44 0 01-.79-.39 1.12 1.12 0 01-.29-.8 1.33 1.33 0 01.14-.6 1.3 1.3 0 01.4-.45 2 2 0 01.66-.28 3.36 3.36 0 01.89-.1H73.81A.31.31 0 0174 33zm-.76.49h-.73a2.4 2.4 0 00-.58.06 1.15 1.15 0 00-.37.17.56.56 0 00-.19.25.88.88 0 00-.06.33.72.72 0 00.07.33.64.64 0 00.2.24 1 1 0 00.36.15 2.44 2.44 0 00.61.06h.69zm-40.45-6.3c0 .89-1.09 1.6-3.06 1.6s-3.06-.71-3.06-1.6c0 0-.14-2.21-.5-5.23H13.42c-.36 3-.49 5.23-.49 5.23 0 .89-1.09 1.6-3.07 1.6s-3.06-.71-3.06-1.6c0-1.65.07-3.42.23-5.23H1.4C.63 22 0 21.1 0 19.54s.63-2.41 1.4-2.41h6.24C9.13 8.32 12.77 0 19.8 0c9.77 0 12.99 16.07 12.99 27.19zm-7.32-10.06c-1-5.8-2.75-11.94-5.67-11.94s-4.67 6.14-5.68 11.94zm27.31 6.49H41.49v-5h8.25c.78 0 1.4-.86 1.4-2.42s-.62-2.42-1.4-2.42h-8.25V8.09h11.29c.77 0 1.39-.86 1.39-2.42s-.62-2.42-1.39-2.42H36.64a1.4 1.4 0 00-1.4 1.4v22.4a1.4 1.4 0 001.4 1.4h16.14c.77 0 1.39-.86 1.39-2.42s-.62-2.41-1.39-2.41zm58.47-.35C108.86 29.85 102.91 37 92.16 37c-16.33 0-20-15.6-29.78-15.6V27c0 1-1.13 1.83-3.16 1.83S56.07 28 56.07 27V4.71a1.4 1.4 0 011.4-1.4h10.85c6.24 0 10.18 3.18 10.18 8.2a7.55 7.55 0 01-7.27 7.65c5.94 2.35 10.81 12.7 20.93 12.7 5.35 0 10.49-3 13.5-8.94.37-.74 1.27-1.55 3.26-1.55 2.23 0 2.61 1.12 2.33 1.9zM71.83 11.74c0-2.77-2.24-3.95-5.39-3.95h-4.08v8.28h4.08c3.56 0 5.39-1.41 5.39-4.33zM79.91 16c0-7.29 5.48-13.19 12.23-13.19S104.38 8.72 104.38 16 98.9 29.2 92.14 29.2 79.91 23.29 79.91 16zm6.87 0c0 4.72 2.4 8.55 5.36 8.55S97.5 20.73 97.5 16s-2.4-8.56-5.36-8.56-5.36 3.84-5.36 8.56z"/></svg>
