<svg xmlns="http://www.w3.org/2000/svg" viewBox="0 0 251.22 295.42"><title>alena-goretskaya</title><path d="M97.89,108.61c-2.33.31-4.68.5-7,1-13.31,2.65-26.15,6.62-37.61,14.15-9.75,6.41-17.52,14.54-20,26.34-2.71,12.76-1.32,24.86,7.54,35.26a9.58,9.58,0,0,1,.84,1.69c-1.49.14-2.74.35-4,.35-9.5,0-19-.16-28.5.11-3.73.1-5.38-1.42-6.45-4.7-6.53-20.13-1.62-43.46,18.71-57.38,12.27-8.4,26.05-13.43,40.27-17,14.49-3.64,29.23-6.27,43.86-9.34,1.47-.31,3.13-.26,4.35-1s2.78-2.16,2.76-3.25c-.33-15.47-.06-31-1.63-46.36C109.14,30,96.89,19.77,79.74,15a59.12,59.12,0,0,0-28.66-.74C35.3,17.72,29.3,29.5,30.73,44.42c.52,5.42,2.2,10.72,3.37,16.08.35,1.62.9,3.21,1.09,4.85.5,4.3-.48,5.4-4.83,5.5A40.08,40.08,0,0,1,10.19,66c-8.52-4.56-10.41-8.72-7.74-18C6.25,34.86,14.88,25,25.13,16.48,37.89,5.88,52.94,1,69.33.19,82-.43,94.59.36,106.87,4.11c24.84,7.58,38.34,25.51,38.43,51.41,0,10.5,0,21,0,31.5v6.17h6.82c24.34.13,47.62,4.66,69,16.92a5.28,5.28,0,0,0,6.44-.4c1.41-1,2.95-1.93,5.17-3.36a57.53,57.53,0,0,1,1.48,5.77c1.6,12.18,3.1,24.37,4.68,36.56.26,2,1.05,4.43-1.51,5-1,.22-3.08-1.58-3.79-2.92-12-22.68-30.83-37.18-54.65-45.62A84,84,0,0,0,150,100.46c-3.33,0-4.77.93-4.74,4.51.14,17.83,0,35.67.21,53.49a88.31,88.31,0,0,0,1.9,15.84c3.18,16,13.41,22.73,29.53,19.62.65-.13,1.31-.59,1.91-.51,2,.25,4,.68,6,1.05-1,1.91-1.41,4.59-3,5.63-13.59,9.09-35.81,12.47-51.23,3.12-12.73-7.72-17.46-19.65-17.68-33.75-.26-17.16-.1-34.33-.12-51.5,0-1.78,0-3.55,0-6.53-2.57,1.68-4.28,2.57-5.72,3.77C91.93,127.89,83,144.21,79,163.44c-5,24.62-3.58,48.79,6.48,71.92,9,20.66,22.82,37.52,44.21,46.08,24.52,9.8,48.52,8.49,70.72-7.2,10.7-7.56,16.12-17.62,15.51-31.06-.5-11.15-.07-22.33-.11-33.5s-3.1-14.57-14-16.2a56.6,56.6,0,0,1-6.41-1,25.6,25.6,0,0,1-4.52-2.16l.06-1.64c1.91-.47,3.81-1.33,5.72-1.36q25.23-.32,50.46-.31c1.36,0,2.71,1.11,4.07,1.71-1.11,1-2.05,2.46-3.36,3-8.3,3.44-11.46,7.79-11.39,16.75q.19,27.48.65,55c0,2.61-1.08,3.83-3.38,4.8-5.94,2.5-12.13,4.68-17.58,8-18.71,11.49-38.84,18.21-60.76,19.05-52.46,2-90.4-30.21-98.85-73.32-8.65-44.11,2.84-81.77,39.19-110.24.86-.68,1.66-1.44,2.49-2.16Z" fill="#fff"/></svg>