<svg xmlns="http://www.w3.org/2000/svg" viewBox="0 0 137 734.9"><path fill="#fff" d="M132.2 99.6v42.2a1.7 1.7 0 01-3.4 0V99.6a1.7 1.7 0 013.4-.2zM132.2 590.6v42.2a1.7 1.7 0 01-3.4 0v-42.2a1.7 1.7 0 113.4 0zM122.3 558.4l14.2-5.8v-3.2l-14.2-5.7h14.2v-3h-16.4v5L134 551l-13.9 5.5v5h16.4v-3h-14.2zm13.2-37.8a6.2 6.2 0 00-4.3-2.1v3.1a3.2 3.2 0 012.5 1.3 4 4 0 01.9 2.7 3.7 3.7 0 01-1.7 3.4 9.2 9.2 0 01-4.3 1.1v-11.7h-1.1a9 9 0 00-6 1.8 6.7 6.7 0 00-2.1 5.3 7.2 7.2 0 002.4 5.7 9.7 9.7 0 006.6 2.1 8.8 8.8 0 006.2-2.1 7.4 7.4 0 002.2-5.7 6.5 6.5 0 00-1.3-4.9zm-9 9.5a5.8 5.8 0 01-3.1-1.1 4 4 0 01-1.6-3.2 4 4 0 011.3-3.4 6.5 6.5 0 013.3-.9v8.6zm8.2-31.9a10 10 0 00-6.5-2 9.4 9.4 0 00-6.3 2 7 7 0 00-2.3 5.6 7.7 7.7 0 001.4 4.7 6.6 6.6 0 01-1.5-.5 4 4 0 01-2.4-3.7 10.3 10.3 0 00-1.5-5 4 4 0 00-3.2-1.8v2.5a2 2 0 011.6 1 7.7 7.7 0 01.7 3.2q.3 4 3 5.7c1.8 1.1 4.8 1.7 9.1 1.7a12.4 12.4 0 007.4-2 6.7 6.7 0 002.7-5.6 7.1 7.1 0 00-2.2-5.8zm-11.2 2.4a8 8 0 014.7-1.2 8.1 8.1 0 014.8 1.2 4 4 0 010 6.5 8.1 8.1 0 01-4.8 1.2 8 8 0 01-4.7-1.2 3.9 3.9 0 01-1.7-3.3 4.1 4.1 0 011.7-3.2zm12-24.1a6.6 6.6 0 00-4.3-2.2v3.1a3.6 3.6 0 012.5 1.3 4 4 0 01.9 2.7 3.7 3.7 0 01-1.7 3.4 9.2 9.2 0 01-4.3 1.1v-11.7h-1.1a9 9 0 00-6 1.8 6.7 6.7 0 00-2.1 5.3 7.2 7.2 0 002.4 5.7 9.7 9.7 0 006.6 2.1 8.8 8.8 0 006.2-2.1 7.4 7.4 0 002.2-5.7 6.4 6.4 0 00-1.3-4.8zm-9 9.5a5.8 5.8 0 01-3.1-1.1 4 4 0 01-1.6-3.2 4 4 0 011.3-3.4 6.5 6.5 0 013.3-.9v8.6zm10-30.4v-3h-16.4v13h10.2a5.2 5.2 0 012.9.5 2 2 0 01.7 1.8v.6h2.7v-1.3c0-1.7-.5-2.9-1.4-3.5s-2.6-1-4.9-1h-8v-7h14.2zm0-11.4v-5.8q0-4.2-1.2-6c-.8-1.2-2.2-1.7-4.1-1.7a4.2 4.2 0 00-3.9 1.9 11.7 11.7 0 00-1.3 6v2.5h-5.9v3.1zm-8.2-3v-2.5a6.5 6.5 0 01.7-3.6 3 3 0 014.2-.5 3.2 3.2 0 01.4.5 6.2 6.2 0 01.7 3.4v2.8h-6v-.1zm8.2-17.3v-3h-7.4v-8.1h7.4v-3h-16.4v2.9h6.7v8.1h-6.7v3h16.4zm-1.5-32.4a5.8 5.8 0 00-1-.7l1.4-.1a3 3 0 001.1-.3v-2.9a5.7 5.7 0 01-2 .3l-3.9.1h-5.7a4.5 4.5 0 00-3.8 1.8 7.2 7.2 0 00-1.5 4.8 9 9 0 001.1 4.8 4.9 4.9 0 003.6 1.8v-3.2a2.6 2.6 0 01-1.8-.9 3.8 3.8 0 01-.7-2.2 4.6 4.6 0 01.7-2.9 2.7 2.7 0 012.3-.9h1.4v2.7a10.2 10.2 0 001.5 6 4.5 4.5 0 004.1 2.2 4.6 4.6 0 003.8-1.6 6.6 6.6 0 001.4-4.4 5.6 5.6 0 00-2-4.4zm-5.2-.5a5.7 5.7 0 013.7 1.1 4.2 4.2 0 011.3 3.3 4 4 0 01-.7 2.6 2.6 2.6 0 01-2.1.9 2.7 2.7 0 01-2.5-1.3 6.9 6.9 0 01-.8-3.9v-2.8h1.1v.1zm6.7-24v3h-7.2v4a3.6 3.6 0 00.5 2.1 2 2 0 001.6.9l2.4.6a15 15 0 011.5.4 5.6 5.6 0 011.2.4v3.2a3.5 3.5 0 00-.9-.5 9.5 9.5 0 00-1.8-.6l-2.6-.7a3.9 3.9 0 01-2.5-1.3 3.2 3.2 0 01-.5-1.3l-.6 1.3a3.6 3.6 0 01-3.2 1.8 3.6 3.6 0 01-3.1-1.7 8.4 8.4 0 01-1.1-4.6v-7.3h16.3v.3zm-14.2 3v3.2a6.3 6.3 0 00.6 3.1 2 2 0 001.9.9 2 2 0 001.7-.9 4.5 4.5 0 00.6-2.5V370zm14.2-25.6v-3h-7.4v-1a5 5 0 01.7-3 4.9 4.9 0 012.2-1.7l1.8-.7 2.7-1v-3.3a3.5 3.5 0 01-.9.5l-1.8.7-2.7 1a4.8 4.8 0 00-2.8 2.6 5.7 5.7 0 00-.5 1.4l-.2-.6a3.1 3.1 0 00-2.2-2l-1.6-.3a1.8 1.8 0 01-1-.5 1.5 1.5 0 01-.3-1v-.5h-2.4v1a3.2 3.2 0 00.9 2.4 5.3 5.3 0 002.8 1.3l.7.1a2.5 2.5 0 011.7 1.2 5.4 5.4 0 01.5 2.8v.5H120v3h16.5v.1zm.5-27.7a7.5 7.5 0 00-2.3-5.8 9.3 9.3 0 00-6.4-2.1 8.9 8.9 0 00-6.3 2.1 8.5 8.5 0 000 11.6 8.9 8.9 0 006.3 2.1 9.1 9.1 0 006.4-2.1 7.5 7.5 0 002.3-5.8zm-2.3 0a4.3 4.3 0 01-1.7 3.5 8.1 8.1 0 01-4.8 1.2 8 8 0 01-4.7-1.2 4.2 4.2 0 01-1.7-3.5 4.3 4.3 0 011.7-3.5 8 8 0 014.7-1.2 8.1 8.1 0 014.8 1.2 4.3 4.3 0 011.7 3.5zm-12.4-18.6l14.2-5.8v-3.2l-14.2-5.6h14.2v-3h-16.4v5l13.9 5.3-13.9 5.5v4.9h16.4v-3h-14.2v-.1zm14.2-28.8h-14.2v-8.1h14.2v-3h-16.4v14.2h16.4zM135 240a5.8 5.8 0 00-1-.7l1.4-.1a3 3 0 001.1-.3V236a5.7 5.7 0 01-2 .3l-3.9.1h-5.7a4.5 4.5 0 00-3.8 1.8 7.2 7.2 0 00-1.5 4.8 9 9 0 001.1 4.8 4.9 4.9 0 003.6 1.8v-3.2a2.6 2.6 0 01-1.8-.9 3.8 3.8 0 01-.7-2.2 4.6 4.6 0 01.7-2.9 2.7 2.7 0 012.3-.9h1.4v2.7a10.2 10.2 0 001.5 6 4.5 4.5 0 004.1 2.2 4.6 4.6 0 003.8-1.6 6.6 6.6 0 001.4-4.4 5.3 5.3 0 00-2-4.4zm-5.2-.5a5.7 5.7 0 013.7 1.1 4.4 4.4 0 011.3 3.3 4 4 0 01-.7 2.6 2.6 2.6 0 01-2.1.9 2.7 2.7 0 01-2.5-1.3 6.8 6.8 0 01-.8-3.8v-2.8zm6.7-11.3v-3h-7.4v-8.1h7.4v-3h-16.4v3h6.7v8.1h-6.7v3zm-12.3-33.5h12.3v-3h-16.4v3.4l12.3 7.7h-12.3v3h16.4v-3.4l-12.3-7.7zm12.3-24v3h-7.2v4a3.6 3.6 0 00.5 2.1 2 2 0 001.6.9l2.4.6a15 15 0 011.5.4 5.6 5.6 0 011.2.4v3.3a3.5 3.5 0 00-.9-.5 9.5 9.5 0 00-1.8-.6l-2.6-.7a3 3 0 01-3-2.6l-.6 1.3a3.6 3.6 0 01-3.2 1.8 3.6 3.6 0 01-3.1-1.7 8.4 8.4 0 01-1.1-4.6v-7.3h16.3zm-14.2 3v3.2a5.7 5.7 0 00.6 3 2.1 2.1 0 001.9 1 2 2 0 001.7-.9 4.5 4.5 0 00.6-2.5v-3.8zM81.5 409.7c0 27-17.1 46.3-40.7 46.3C17.7 456 .4 436.6.1 410.3v-1.4c.2-14.3 6.9-28.4 14.8-34a5.5 5.5 0 016.9.5 6.2 6.2 0 010 8.4 36 36 0 00-10.3 25.8c0 19.4 12.3 32.3 29.4 32.3s29.4-12.8 29.4-32.3c0-12.9-5.5-20.2-11-26.2a6 6 0 01-.4-7.6c2.3-2.9 5.9-2.4 8.2-.8a44.2 44.2 0 0114.4 34.7zM33 611.7v-48.5H7.8a6.6 6.6 0 010-13.2h66a6.6 6.6 0 010 13.2H44.6v48.5h29.2a6.6 6.6 0 110 13.2h-66a6.6 6.6 0 010-13.2H33zM14.2 321.1h59.6a6.6 6.6 0 110 13.2H14.2v25.6a5.9 5.9 0 11-11.8 0v-64.3a5.9 5.9 0 1111.8 0zM2.3 511.9v-45.6a5.9 5.9 0 0111.8 0v39h59.6a6.6 6.6 0 010 13.2H8.9a6.7 6.7 0 01-6.6-6.6zM33.7 165.3v-38.7a5.8 5.8 0 0111.6 0v38.7h22.2v-52a5.8 5.8 0 0111.6 0v58.5a6.7 6.7 0 01-6.6 6.6H8.8a6.7 6.7 0 01-6.6-6.6v-57.4a5.8 5.8 0 1111.6 0v50.8h19.9v.1zM28.3 276.1c-16.5 0-28.3-11.2-28.3-37 0-24.6 10.6-37.3 26.1-37.3 16.3 0 25.7 14.1 25.7 37.7V263h21.9a6.6 6.6 0 110 13.2H28.3zm12.1-13.2v-23.4c0-16.1-4.8-24.2-14.3-24.2-10 0-14.9 12.3-14.9 23.8 0 15.8 6.6 23.8 17.1 23.8zM22.8 13.1l26.4 25.1a6.5 6.5 0 012 4.8 6.8 6.8 0 01-2 4.8l-25.1 25h49.7a6.6 6.6 0 010 13.2H7.7a6.4 6.4 0 01-6.5-6.3 7.3 7.3 0 012.4-5.3L5.1 73l30.7-30.6L5.2 13.1l-1.6-1.5a7 7 0 01-2.4-5.2A6.4 6.4 0 017.5 0h66.3a6.6 6.6 0 110 13.2h-51zM.9 689.4a7.3 7.3 0 013.6-6.3l66-38.1a6.7 6.7 0 019 2.4 6.5 6.5 0 01-2.3 9H77l-19.5 11.1v44.4l19.7 11.2a6.2 6.2 0 012.4 8.5l-.1.1a6.2 6.2 0 01-8.5 2.4l-.1-.1-66.5-38.3a7.3 7.3 0 01-3.6-6.3zm45.3-15.5l-27.8 15.8 27.7 15.8v-31.6z"/></svg>
