<svg xmlns="http://www.w3.org/2000/svg" viewBox="0 0 66.71 77.12"><title>antilopa</title><path d="M29.5,67.29a1.79,1.79,0,0,0-.7-.66,2.53,2.53,0,0,0-1.26-.31,9.43,9.43,0,0,0-3.49.69s0,0,0,0c-.37.13-.62.24-.62.24a.63.63,0,0,0-.35.51V74c0,.2.13.25.33.25h1.12c.2,0,.39,0,.39-.25V68.16s.2-.07.38-.12l.56-.14a6,6,0,0,1,.61-.09,1.88,1.88,0,0,1,.54,0,1.15,1.15,0,0,1,.91.59,2.66,2.66,0,0,1,.23,1.16l0,4.37c0,.2.1.28.3.28h1.15c.12,0,.22,0,.26,0a.28.28,0,0,0,.08-.2V69.39a10.56,10.56,0,0,0-.08-1.15,2.61,2.61,0,0,0-.33-.95" fill="#fff"/><path d="M36,72.89a.23.23,0,0,0-.29-.22l-.56,0-.5,0-.52,0a.58.58,0,0,1-.32-.1.45.45,0,0,1-.15-.26,2.23,2.23,0,0,1,0-.49V67.93h1.67a.51.51,0,0,0,.31-.07.34.34,0,0,0,.12-.23v-.79c0-.1-.09-.13-.12-.18s-.19,0-.31,0H33.59V64.46c0-.18-.12-.24-.33-.19l-1.07.29c-.09,0-.1,0-.16.1s0,.13,0,.25v1.7h-.93c-.11,0-.24,0-.28,0s-.11.09-.11.2v.77a.32.32,0,0,0,.11.23.41.41,0,0,0,.28.07h.67v4a9.06,9.06,0,0,0,.11,1,2.1,2.1,0,0,0,.27.81,1.41,1.41,0,0,0,.59.54,2.49,2.49,0,0,0,1.09.2h.45l.56-.06a5.21,5.21,0,0,0,.57-.1,2.7,2.7,0,0,0,.48-.16.33.33,0,0,0,.21-.39Z" fill="#fff"/><path d="M38.73,66.66c0-.06-.17,0-.28,0H37.33c-.21,0-.33,0-.33.23V74c0,.2.12.25.33.25h1.12c.11,0,.24,0,.28-.06s.1-.11.1-.19V66.84c0-.09-.06-.13-.1-.18" fill="#fff"/><path d="M43.19,73.06c0-.09,0-.14-.09-.16a.66.66,0,0,0-.23-.05,1,1,0,0,1-.52-.09c-.11-.06-.1-.21-.1-.45V63.42c0-.2-.22-.24-.42-.24H40.71c-.2,0-.3,0-.3.24v9.31a1.77,1.77,0,0,0,.36,1.21,1.63,1.63,0,0,0,1.26.4,3.44,3.44,0,0,0,.51,0,1.87,1.87,0,0,0,.52-.15.29.29,0,0,0,.2-.3Z" fill="#fff"/><path d="M49,71.5a2,2,0,0,1-.25.78,1.13,1.13,0,0,1-.53.46,2.21,2.21,0,0,1-.88.15,1.76,1.76,0,0,1-.82-.16,1.11,1.11,0,0,1-.49-.47,2.18,2.18,0,0,1-.24-.77,7.09,7.09,0,0,1-.07-1.1,8.39,8.39,0,0,1,.07-1.08,2.31,2.31,0,0,1,.25-.78,1.22,1.22,0,0,1,.5-.48,1.9,1.9,0,0,1,.82-.16,2,2,0,0,1,.87.16,1.24,1.24,0,0,1,.52.47,1.84,1.84,0,0,1,.25.77,8.77,8.77,0,0,1,.06,1.1A9.05,9.05,0,0,1,49,71.5m1.21-3.87a2.62,2.62,0,0,0-1-.91,4.13,4.13,0,0,0-1.84-.35,3.46,3.46,0,0,0-1.8.4,2.85,2.85,0,0,0-1,1A3.64,3.64,0,0,0,44,69a8,8,0,0,0-.1,1.23,13.6,13.6,0,0,0,.08,1.4A3.4,3.4,0,0,0,44.42,73a2.63,2.63,0,0,0,1,1,3.73,3.73,0,0,0,1.86.39A4,4,0,0,0,49.23,74a2.69,2.69,0,0,0,1-1,3.36,3.36,0,0,0,.43-1.34,11.33,11.33,0,0,0,.09-1.4,8.16,8.16,0,0,0-.12-1.39,3.43,3.43,0,0,0-.49-1.24" fill="#fff"/><path d="M57.06,71.58a2.21,2.21,0,0,1-.26.8,1,1,0,0,1-.47.42,1.9,1.9,0,0,1-.72.12,8,8,0,0,1-.83,0,5,5,0,0,1-1-.21V68.18a1.91,1.91,0,0,1,.42-.12l.57-.14.61-.09a2.37,2.37,0,0,1,.54,0,1.16,1.16,0,0,1,.91.59,2.76,2.76,0,0,1,.21.81h0a8.08,8.08,0,0,1,.06,1.11,9.75,9.75,0,0,1-.09,1.23m1.7-3.31a2.46,2.46,0,0,0-.3-1,1.72,1.72,0,0,0-.7-.66,2.53,2.53,0,0,0-1.26-.31,9.59,9.59,0,0,0-3.9.86s0,0,0,0-.11.08-.11.08a.54.54,0,0,0-.25.51v9.07c0,.11-.07.15,0,.2s0,.05.16.05h1.12c.13,0,.22,0,.26-.06a.32.32,0,0,0,.07-.19v-2.8a5.69,5.69,0,0,0,1.06.27,6.35,6.35,0,0,0,.91.08,3.83,3.83,0,0,0,1.54-.27,2.14,2.14,0,0,0,1-.79,3.36,3.36,0,0,0,.5-1.28,9.57,9.57,0,0,0,.14-1.7,11.69,11.69,0,0,0-.07-1.27s-.05-.58-.09-.84" fill="#fff"/><path d="M64.85,72.25c0,.08-.31.17-.5.26l-.58.25q-.3.1-.6.18a2.88,2.88,0,0,1-.55.06,1.12,1.12,0,0,1-.76-.2,1,1,0,0,1-.21-.72,1.2,1.2,0,0,1,.35-1,1.45,1.45,0,0,1,1-.25h1.92v1.44Zm1.7-4.18a1.81,1.81,0,0,0-.44-.91,2.09,2.09,0,0,0-.93-.58,5.22,5.22,0,0,0-1.64-.2l-.64,0-.72.06-.71.1a2.89,2.89,0,0,0-.6.16.66.66,0,0,0-.33.21.37.37,0,0,0,0,.26l.14.58c0,.12.06.18.12.2a1.21,1.21,0,0,0,.32,0c.16,0,.33,0,.53,0l.59,0,.57,0h.47a4.47,4.47,0,0,1,.81.06,1.2,1.2,0,0,1,.51.22.79.79,0,0,1,.25.41,2.13,2.13,0,0,1,.06.6v.39h-2a3.44,3.44,0,0,0-2.24.63,2.45,2.45,0,0,0-.73,2,3.76,3.76,0,0,0,.1.92,1.65,1.65,0,0,0,.35.7,1.51,1.51,0,0,0,.67.46,2.9,2.9,0,0,0,1,.16,5.14,5.14,0,0,0,1.56-.25,17.79,17.79,0,0,0,2.46-1.08s0,0,0,0a1.53,1.53,0,0,1,.21-.07.71.71,0,0,0,.39-.52V69.26a7.8,7.8,0,0,0-.16-1.19" fill="#fff"/><path d="M20.18,72.25a3,3,0,0,0-.54.26c-.19.09-.4.17-.6.25s-.41.13-.61.18a2.89,2.89,0,0,1-.56.06,1.15,1.15,0,0,1-.77-.2,1,1,0,0,1-.21-.72,1.23,1.23,0,0,1,.35-1,1.45,1.45,0,0,1,1-.25h2Zm1.53-4.18a1.84,1.84,0,0,0-.39-.91,2,2,0,0,0-.91-.58,5.11,5.11,0,0,0-1.63-.2l-.64,0-.72.06-.71.1a2.89,2.89,0,0,0-.6.16.66.66,0,0,0-.33.21.37.37,0,0,0,0,.26l.14.58c0,.12.06.18.12.2a1.21,1.21,0,0,0,.32,0c.16,0,.33,0,.53,0l.59,0,.57,0h.47a4.54,4.54,0,0,1,.81.06,1.1,1.1,0,0,1,.5.22.78.78,0,0,1,.28.41,2.05,2.05,0,0,1,.09.6v.39H18.1a3.44,3.44,0,0,0-2.24.63,2.45,2.45,0,0,0-.73,2,3.76,3.76,0,0,0,.1.92,1.78,1.78,0,0,0,.35.7,1.54,1.54,0,0,0,.66.46,2.9,2.9,0,0,0,1.05.16,5.14,5.14,0,0,0,1.56-.25,17.79,17.79,0,0,0,2.46-1.08s0,0,0,0a.28.28,0,0,0,.12-.07.6.6,0,0,0,.29-.52V69.26a5.79,5.79,0,0,0,0-1.19" fill="#fff"/><path d="M37.9,63.58a.88.88,0,0,0-.75.26,1.1,1.1,0,0,0-.18.64,2,2,0,0,0,0,.34.59.59,0,0,0,.13.29.54.54,0,0,0,.28.2,1.34,1.34,0,0,0,.5.08,1.52,1.52,0,0,0,.48-.07.65.65,0,0,0,.28-.2.78.78,0,0,0,.14-.29,2,2,0,0,0,0-.36,1.1,1.1,0,0,0-.18-.66,1,1,0,0,0-.76-.23" fill="#fff"/><path d="M58.35,13.45A24.48,24.48,0,0,0,41.13,5.78h-.65a24.36,24.36,0,0,0-5.8.69c-.38.09-.75.19-1.13.3A24.72,24.72,0,0,0,17.14,22.52l.24.05A24.48,24.48,0,0,1,33.64,7q.57-.17,1.14-.3A24.53,24.53,0,0,1,40.47,6h.64A24.39,24.39,0,0,1,57.49,47.88a24.22,24.22,0,0,1-13.7,6.67v0a23.49,23.49,0,0,1-3.26.22c-.21,0-.43,0-.64,0a24.72,24.72,0,0,1-4.57-.55l0,0h-.05A24.37,24.37,0,0,1,16.11,29.79,23.06,23.06,0,0,1,16.69,25l-.2-.06h0a25.13,25.13,0,0,0-.6,4.84A24.63,24.63,0,0,0,39.84,55h.65A24.63,24.63,0,0,0,58.35,13.45Z" fill="#fff"/><path d="M29.19.59l.3.27c.12.1.24.24.39.38s.31.3.47.49l.26.29.13.15.13.16A15.06,15.06,0,0,1,32,3.87c.09.15.19.29.29.45s.18.32.28.48L32.7,5l.13.26.27.52c.15.3.29.62.43.94.37-.11.75-.21,1.13-.3-.21-.4-.42-.78-.64-1.14l-.33-.52-.16-.26-.17-.24L33,3.83l-.34-.44a19.25,19.25,0,0,0-1.31-1.5l-.15-.16-.15-.14-.29-.27a6.65,6.65,0,0,0-.53-.46C30.09.73,30,.6,29.81.5L29.47.25,29.19,0a.21.21,0,0,0-.28,0,.22.22,0,0,0,0,.3Z" fill="#fff"/><path d="M16.7,25h0c.92.29,1.85.55,2.76.8,1.37.37,2.69.68,3.93,1s2.41.72,3.48,1.13a22.89,22.89,0,0,1,2.84,1.35,13.77,13.77,0,0,1,2.09,1.47l.4.36.19.17.17.18.31.33L33,32a6.58,6.58,0,0,0-.83,2.1s0,.1,0,.15a4.5,4.5,0,0,1-.49.14,7,7,0,0,1-1.45.08c-1.64-.07-3.21-.58-4.84-.71a14.62,14.62,0,0,0-6.7.66c-.95.4,1.2,1.83,1.47,2,2.07,1.46,4.77,3.38,7.45,2.77,1.69-.38,3-1.86,4.61-2.39a13.87,13.87,0,0,0,2.13,4.81c1.53,2.35,4.41,4.85,3.93,8a8.47,8.47,0,0,1-2.14,3.88c-.26.27-.55.52-.81.8a25,25,0,0,0,4.52.54l.64,0a25.14,25.14,0,0,0,3.26-.22h0c.25-1,.55-1.89,0-2.89s-1.59-1.73-2.24-2.7a5.63,5.63,0,0,1-1.15-2.32c-.16-1.39,1.85-1.23,2.69-1.43,1.71-.41,3.46-.71,5.15-1.22a21.2,21.2,0,0,0,2.31-1,3.33,3.33,0,0,1,2.14-.36c.31.07,1,.39,1.06-.14s-.71-.82-1-1.07-.48-.7-.27-.88.68,0,.9,0c.61,0,2,0,2.32-.67a2.12,2.12,0,0,0,0-.5,4.2,4.2,0,0,0-.63-1.87,14.62,14.62,0,0,0-1-1.59,34.56,34.56,0,0,0-4.39-4.66,19.29,19.29,0,0,0-5.15-3.81,6.49,6.49,0,0,0-4.32-.41L40.15,27l-.23-.26-.12-.13a1.47,1.47,0,0,1-.1-.13l-.12-.15c0-.06-.09-.13-.14-.2s-.2-.31-.31-.49-.22-.39-.33-.62a10.77,10.77,0,0,1-.63-1.62,17,17,0,0,1-.49-2.09q-.2-1.15-.33-2.46c-.09-.87-.16-1.78-.24-2.72s-.16-1.9-.29-2.87c-.07-.49-.13-1-.24-1.47l-.07-.35,0-.17,0-.18-.19-.73a21,21,0,0,0-1-2.67c-.15-.34-.31-.66-.47-1q-.57.13-1.14.3c.16.37.3.75.44,1.14a20.91,20.91,0,0,1,.69,2.56c0,.22.07.43.11.65l0,.16,0,.18L35,12c.06.44.08.9.1,1.36.08,1.85,0,3.75,0,5.57,0,.91,0,1.8.12,2.66a21.84,21.84,0,0,0,.35,2.43,14.2,14.2,0,0,0,.6,2.07c.11.31.24.59.36.85s.24.5.37.71.12.2.17.3l.13.2-.11,0a9.46,9.46,0,0,0-1.35.81l-.05,0-.46-.41L35,28.38l-.27-.21-.56-.43a17.93,17.93,0,0,0-2.77-1.64A24.37,24.37,0,0,0,28,24.78c-1.23-.37-2.53-.67-3.86-.93s-2.7-.48-4-.72q-1.35-.24-2.67-.54l-.24-.05L16,22.26a24.62,24.62,0,0,1-3.79-1.34A16.59,16.59,0,0,1,10.53,20l-.21-.12-.05,0,0,0-.11-.07-.42-.28c-.29-.19-.52-.38-.77-.56a20.8,20.8,0,0,1-2.7-2.48,29,29,0,0,1-2.11-2.59C3.53,13,3,12.2,2.56,11.47c-.22-.36-.42-.71-.61-1s-.35-.62-.49-.89C1.17,9,.94,8.58.8,8.29L.57,7.84h0a.3.3,0,0,0-.38-.14.3.3,0,0,0-.16.4l.2.47c.12.31.32.76.57,1.33l.43.94c.16.34.34.7.54,1.09.39.78.86,1.64,1.42,2.57a30.7,30.7,0,0,0,2,2.88,24,24,0,0,0,2.69,2.9c.26.23.54.48.8.68l.4.32.1.08,0,0,.05,0,0,0,.22.16a20.31,20.31,0,0,0,1.83,1.17,25.68,25.68,0,0,0,4,1.79c.37.14.74.25,1.11.38h0Zm26,8.73c.18-.15.49-.11.71-.14,1.52-.26,3.51-1.23,4.62.44a2.57,2.57,0,0,1,.24,2,2.74,2.74,0,0,1-.52,1.1,2,2,0,0,1-.76.55,2.9,2.9,0,0,1-1.79.18,2.75,2.75,0,0,1-1.86-1.74A11.64,11.64,0,0,1,42.66,33.73Z" fill="#fff"/><path d="M10.26,19.84h0S10.24,19.82,10.26,19.84Z" fill="#fff"/><path d="M47.2,36.66c.49-.29.53-1,.55-1.51s-.25-1.66-.93-1.42a1.53,1.53,0,0,0-.9,1.72,2.37,2.37,0,0,0,.19.73C46.33,36.66,46.65,37,47.2,36.66Z" fill="#fff"/></svg>