<svg xmlns="http://www.w3.org/2000/svg" viewBox="0 0 281.2 175.9"><path fill="#fff" d="M178.6 33.8c.3 5.6-2.3 10.8-5.1 15.8a56 56 0 01-18 19.8 36.3 36.3 0 01-11.6 5c-7 1.6-12.4-4.1-10.9-11.1a20.5 20.5 0 0113.7-15.6c2.5-1 3.9-2 4.4-4.8 1.1-5.2 5.6-9.1 10.2-9 1.5 0 3 1.4 4.5 2.2-1 1.6-1.8 4.3-3 4.6-4.1.9-4.8 3.3-4.7 6.8.1 3.9-2.2 6-6.3 6.4A14.4 14.4 0 00140.2 64c-.7 2.7.7 3.8 2.9 3.2a33.9 33.9 0 009-4.2A49.3 49.3 0 00170.6 39c1.4-3.9 2.7-8-1-11.5-3.4-3-9.5-3.2-13.6.3A66.1 66.1 0 00144.7 40c-4.5 6.4-6.3 6.9-12.6 2.6a41 41 0 00-11-5.4c-5.4-1.6-9.8 2.2-10.2 7.9a25.9 25.9 0 003.7 15 43.6 43.6 0 0014.7 15.6 22 22 0 0022.8 1 55.2 55.2 0 007.3-4.6c1.8-1.3 3.5-2 5.2.1s1.2 4-.8 5.5c-12.5 9.9-27 12.6-40.6 2.5a45.8 45.8 0 01-18.7-26.7 26.8 26.8 0 01.1-12.9c2.5-8.8 10.7-12.8 19.5-10a45.8 45.8 0 0110.4 5c2.3 1.4 3.4 1.4 5.1-1a69.8 69.8 0 019-10.4c5.5-5 11.8-8 19.5-5.4 7.3 2.3 10.5 6.9 10.5 15zM139.5 135l-4.5 24.2c-.4 2.3-1 4.6-1.3 7-.3 2.6-1.2 4-4.2 4.1-3.1 0-4-1.6-4.4-4.3l-5-30a2 2 0 00-1.2-1.4l-.2 3.6v28.1c0 3.3-2 5-4.3 3.6-1-.6-1.7-2.6-1.7-4-.2-8.5-.1-17-.1-25.5V110c0-2.3 0-4.3 3.2-4.3 2.8 0 5.3-.3 6 3.8 2 12.2 4.3 24.3 6.6 36.5.2 1.3.6 2.5 1 3.8h1l3.2-16.7 4.1-23.2a5.2 5.2 0 017.8-3.8c1 .5 1.5 2.5 1.5 3.8l.1 31v24.5c0 2.2.3 4.7-3.1 4.8-3.6 0-3.5-2.6-3.5-5v-28.5l-.2-1.7zM197.9 149.1c-1.2 5.9-2.3 11.7-3.8 17.5a5.8 5.8 0 01-3.4 3.5c-2.6.8-4.4-.3-4.9-3.5A138.1 138.1 0 00182 149a18.2 18.2 0 00-.3 2.6v15.3c0 2-.6 3.4-3 3.5s-3.1-1.1-3.1-3.3v-46c0-2.3 1-3.3 3.2-3.2s4.6-.3 5.2 2.9l3.6 19 2.3 11.4h1l2.7-14c1-5.2 2.1-10.5 3-15.8.5-3.7 3-3.6 5.8-3.6 3.1 0 3.2 2.2 3.2 4.5v43.5c0 2.4-.2 4.6-3.5 4.5-3.1 0-3.2-2.2-3.2-4.4v-16.5zM272.9 143.1c-1.9 7.9-3.8 15.7-5.9 23.5a5.6 5.6 0 01-3.1 3.5c-3.7 1-5-.3-5.1-4.2v-43.4c0-2.5.4-4.7 3.5-4.7 3.5 0 3.1 2.6 3.1 4.8 0 7.9 0 15.8.7 23.7l1-2.8c2-7.5 3.9-15 5.6-22.6.7-2.9 2.5-3.3 5-3.1s2.7 2 2.7 4V166c0 2.2-.2 4-3 4.2s-3.5-1.8-3.5-4.2v-22.8zM235.4 118c11.3.3 19.2 7.8 20 20.6a31 31 0 01-14.1 29.2C227.4 177 212 170 209 153.7a31.9 31.9 0 0119.5-34.4 45.1 45.1 0 016.9-1.3zm13.7 23.6c0-1.9 0-3-.2-4.1-1.2-9.8-9.5-15.2-18.6-12-11.7 4-18.8 21.3-13.3 32.4a13 13 0 0018.5 5.8 24.6 24.6 0 0013.6-22zM69 141v19c0 2 .1 3.5 2.5 4.5s2.4 9.5.2 10.7c-2 1.2-4.3 1.1-4.7-1.5-.6-3-2.4-3.5-4.8-3.4s-5 0-7.5 0c-2.7 0-5.3-.2-5.6 3.7 0 .7-2 1.8-3.1 1.8a3.9 3.9 0 01-2.9-2.3 22 22 0 010-7 3.4 3.4 0 012.4-2.2c3.3-.2 4.5-2 4.7-4.8.6-7.2 1.2-14.4 1.5-21.6.2-5.4.1-10.8 0-16.1 0-2.9 1.2-4.1 4-4H65c3-.1 4 1.3 4 4V141zm-6 3.3c0-5.5 0-11-.2-16.4 0-1.2-1.3-2.2-2-3.3a15.8 15.8 0 00-2.3 3.4c-.4 1.1 0 2.5-.1 3.7-.6 9.5-1 18.9-1.7 28.3-.2 2-1 3.9 2 4.1 2.8.3 4.3-.7 4.2-3.7v-16zM0 138c0-9.2.2-18.5 0-27.7 0-3.4 1.3-4.7 4.7-4.5h10.8c2.1 0 3.3 1 3.4 3.1s-1.1 3.5-3.4 3.5a2.3 2.3 0 00-.4 0c-2.6.4-7.3.2-7.5 1.2-1 3.9-.7 8-.5 12.2 0 .6 2 1.5 3.2 1.6 7.5.6 10.7 3.9 10.7 11.4v21c0 6.7-3.8 10.5-10.4 10.5-12 0-10.4 1.3-10.5-10.2V138zm6.7 11v11.5c0 1.9.2 3.6 2.7 3.6s4.8-.4 4.8-3.4c.2-7.9.3-15.7.2-23.6 0-2.7-2.2-3.4-4.6-3.5-2.5 0-3.1 1.6-3 3.7v11.6zM93.7 141.5v19.9c-.2 5.3-3.8 8.7-8.8 8.9a8.6 8.6 0 01-9.3-8 4.6 4.6 0 011.8-3.7c1.8-.8 3.5-.3 4.5 2 .4 1.3 2 2.1 3 3.1.7-1.4 1.8-2.7 2-4.2.6-3.4.3-6-4.5-6-3.9-.1-7.2-4.4-7.3-8.8-.2-7.9 0-15.7 0-23.6 0-2 .8-3.3 3-3.3s3 1.5 3 3.5V140c0 1.3-.3 2.7.3 3.7.7 1.3 2.1 2.3 3.2 3.4.8-1.3 2.3-2.5 2.3-3.7.3-7 .1-14 .1-21 0-2.2 0-4.5 3.1-4.6s3.6 2.1 3.6 4.6v19zM42.6 141.1c0 6 .4 12-.1 18a17.5 17.5 0 01-3.2 8.8c-2.2 2.8-5.9 3.1-9.3 1.8a8.7 8.7 0 01-5.7-7.3c-.1-1.2 1.2-3.5 2-3.6 1.3-.2 3 1 4.2 1.9a32.4 32.4 0 013.4 3.1c.7-1.4 1.8-2.8 2-4.3.6-3.5 0-5.9-4.6-6-4-.2-7.2-4.2-7.3-8.3-.2-8 0-16 0-24 0-2 .7-3.4 3-3.4s3 1.4 3 3.4V140c0 1.2-.4 2.5.1 3.4a20.3 20.3 0 003 3.6c1-1.2 2.6-2.4 2.7-3.6.3-5.4.1-10.8.2-16.1v-5.6c0-2.1.4-3.8 3-3.8s3.5 1.5 3.5 3.8v19.5zM170.3 144.2v16.5c0 5.7-3.3 9.2-8.5 9.5a9.2 9.2 0 01-10-8.4c-1.1-9.7-.4-19 9-24.8 3.4-2.1 4-5.4 3.3-8.8-.3-1.3-2-2.4-3-3.6a21.6 21.6 0 00-2.7 3.4c-.4.8.2 2.2-.3 3-.7 1-2 2.3-3 2.3s-3-1.2-3.2-2.1c-.7-4 0-8 3.3-11a8.3 8.3 0 019.4-1.6c4.1 1.8 5.9 5 5.8 9.5-.1 5.4 0 10.8 0 16.1zm-6.2 8.5c0-1.3.2-2.7 0-4 0-1.6-.4-3.2-.7-4.7a32.6 32.6 0 00-4 3.5 5.3 5.3 0 00-1 3.1 63 63 0 000 9.7c.2 1.3 1.7 2.3 2.6 3.5 1-1.2 2.7-2.3 3-3.6.4-2.4.1-5 .1-7.5z"/><path fill="#fff" d="M147.8 12.8c0 9-6.6 16.4-14.6 16.5-6.4 0-11.6-5.7-11.6-12.6 0-9 7-16.8 15-16.7 6.5 0 11.2 5.4 11.2 12.8zM128 16.4c1.5 2.2 2.4 4.7 4 5.3 1.5.6 4.4-.4 5.5-1.6a15.9 15.9 0 003.2-7.6c.2-1.5-1.4-4-2.8-4.7a5.8 5.8 0 00-5.2 1.1c-2 2-3 4.7-4.7 7.5zM270.2 115.8c-2.7-1.9-5.2-3.2-7.2-5-.8-.8-.5-2.7-.7-4 1.4-.3 3.3-1.1 4.1-.5 3.2 2.3 6 1.9 9-.1a1.2 1.2 0 01.7-.2c1.7 0 3.4.2 5 .4-.7 1.5-1.1 3.4-2.3 4.3-2.5 1.8-5.4 3.2-8.6 5zM229.8 140.5c1.2-.6 2.5-1.5 3.8-1.7 2-.3 4.6-.8 5.7.1s1.9 4.2 1.2 5.5a28.3 28.3 0 01-6.7 7.7c-2.3 1.9-5.1 1-7-1.3s-4.4-5-2.5-8.2c1-1.5 3-2.3 4.7-3.4z"/></svg>
