<svg xmlns="http://www.w3.org/2000/svg" viewBox="0 0 498.9 501.1"><path fill="#fff" d="M147.2 106l5.8-14c2.4-6 4.5-6.8 10.3-3.4l32.8 19 5.1 2.7-4.8-32.6c-1.9-12.7-3.9-25.4-5.6-38.1-.2-2 .2-5.4 1.5-6.1 1.6-1 4.7-.3 6.7.7 6.1 2.9 12 6.2 18.5 9.6l13.3-20.1 13-19.5c3.8-5.6 10.2-5.6 13.9 0l23.5 35.4c1 1.3 2 2.6 3 4.2 6.1-3.3 12-6.6 18-9.4 2-1 5.3-1.8 7-.9 1.4.7 1.8 4.4 1.5 6.6-3 21.3-6.3 42.6-9.4 63.8l-.9 6.6 37-21.4c7-4 8.5-3.5 11.7 4.2l5.3 12.7c13.1-2.2 26-4.4 39-6.3 2.5-.3 6.5 0 7.6 1.7 1.3 1.8 1 5.6 0 8.1a505 505 0 01-11.5 27.6c-1.2 2.8-1 4.4 1.1 6.5 3.6 3.5 6.8 7.3 10.1 11 4.6 5.3 4.1 9.8-1.5 14-20 14.8-40.1 29.8-60.3 44.5-2.6 2-3.6 3.8-2.7 7.1 1.3 4.6 2.1 9.4 3 14.2 1.2 6-2.4 9.2-8.2 8.1-26-4.8-52-9.8-78.2-14-5.5-.9-11.5 1.1-17.2 2.2l-65.8 12c-4.9 1-8.5-2.6-7.6-7.7a127.5 127.5 0 013.1-14.6c1-3.5-.1-5.3-2.9-7.4-19.9-14.6-39.6-29.3-59.4-44-6.5-4.8-7-9-1.6-14.9 3.3-3.7 6.9-7.2 10-11.2a6.1 6.1 0 00.8-5c-3.5-9-7.6-17.8-11-26.8a14 14 0 010-9.3c1.5-3.6 5.2-2.4 8.4-1.9l37.6 6zM312.6 354.5c-9.8-4.7-7.3-13.8-9.4-21-.2-.6 2-3 3.3-3 11.1-.2 22.3-.3 33.4 0 1.3 0 3.4 2.5 3.6 4a116.3 116.3 0 010 13.5c-.3 22.3-17.8 33-34.5 35.6a50.1 50.1 0 01-58-51.6 50.3 50.3 0 0140.6-44.8 45.5 45.5 0 0146.7 17.4c3.6 4.3 3.1 5.8-1.7 8.5-4.5 2.6-9 4.9-13.5 7.6-3 1.8-5.2 1.7-7.8-1-7.2-7.8-16.7-9-24.7-3.6-8.7 6-12 18.7-7.5 29.2 4 9 13 14 22.3 12 2.1-.5 4.1-1.6 7.2-2.8zM55.9 332.8c2.7 1 5 1.7 7.2 2.8a23 23 0 016 38.5 38.3 38.3 0 01-26 9.8c-12.5.4-25 .2-37.4.2-4 0-5.7-1.7-5.7-5.8V295c0-3.4 1.3-5.7 4.7-5.7 13 .2 26 .6 39 1a17.8 17.8 0 013.8.9c9.1 2.3 16.2 6.9 18.4 16.9 2.2 10.3-.3 18.8-10 24.8zM28.8 354c0 8.2 0 8.2 6.5 8.2 7.5 0 11.8-2.8 12-7.6s-4.4-8-11.6-8c-7 0-7 0-7 7.4zm-.1-38.2c0 7 .5 7.7 5.2 7.8 5.6.1 9-2.5 9-7 0-4-3.4-6.6-8.5-7s-6.3 2.5-5.7 6.2zM392.7 450l6.2 2.3c17.5 7.6 19.8 29.2 4.3 41A40.6 40.6 0 01379 501c-12.1.3-24.3 0-36.4.2-4 0-5.7-1.7-5.7-5.7q.2-41.7 0-83.4c0-3.2.6-6 4.4-5.9 12.8.3 25.6.5 38.4 1.1 3 .1 6.2 1.3 9.1 2.4 8.3 3 13 9 14 17.8s-1 16.2-8.9 21.2a7.4 7.4 0 00-1 1.3zm-20.3 13.8l-.5-1c-2.2 1.2-5.8 2-6.4 3.7-3.2 9.6.2 13.6 10 12.9 4.4-.4 8.2-4 8.2-7.8s-3.8-7.4-8.3-7.8h-3zm-7.3-29.6c-.6 4.2.5 7 5.7 6.6s8.6-2.8 8.7-7-3.8-6.7-9.1-7c-5.7-.2-5.6 3.3-5.3 7.3zM420.8 335l-.1-39.5c-.1-4.7 1.6-6.6 6.4-6.4 14 .4 28 0 41.9 1.1 12.4 1 20.9 8.5 24.3 20.6 3.4 12 1.3 22.7-8.6 31.3-1 .8-1.2 3.5-.6 4.8 4.3 9.2 9 18.2 13.5 27.3 2.6 5.2 1.4 7.2-4.6 7.2-5.7.1-11.3-.1-17 .1-3.7.2-5.8-1.2-7.1-4.7-3-7.6-6.3-15-9.3-22.6-1.2-3-2.9-4.9-6.3-4.3s-3.5 3.4-3.5 6.2v20c0 3.8-1.6 5.4-5.4 5.4H426c-3.8 0-5.3-1.7-5.2-5.5.1-13.7 0-27.3 0-41zm29-13.8c0 7.6.3 8 7.2 8s9.2-2 9.3-7.4c0-5.7-2.3-7.7-9-7.7-7 0-7.5.4-7.5 7.1zM170.7 335.5c0-13.3.1-26.6-.1-40 0-4.6 1.4-6.6 6.3-6.4 14 .4 28 0 41.9 1.1 12.1 1 20.7 8.2 24.2 20 3.6 12 1.7 23-8.4 31.8-1 .8-1.3 3.6-.7 4.8 4.4 9.2 9 18.2 13.5 27.3 2.7 5.3 1.5 7.3-4.6 7.3l-17.5.1c-3.3.1-5.2-1.2-6.4-4.3-3-7.7-6.4-15.3-9.5-23-1.2-3-2.8-4.9-6.3-4.3-3.7.6-3.4 3.5-3.4 6.2v20c0 3.8-1.6 5.5-5.4 5.4h-18.5c-3.9 0-5.3-1.8-5.2-5.5v-40.5zm29-14.3c0 7.5.3 8 6.6 8 7.4 0 9.8-1.7 9.8-7.3s-2.2-7.7-8.9-7.8c-7.1 0-7.5.3-7.5 7zM324.6 439.1v25c-.2 21.7-16.3 37-38.6 37-22 0-37.8-15.5-38-37.1v-51.5c-.2-4.7 1.5-6.6 6.3-6.4a164.7 164.7 0 0016.5 0c4.9-.3 6.3 1.8 6.2 6.5v49.5a24.2 24.2 0 00.4 5.4c1.1 4.6 4.2 7.1 9 7.3 4.2.1 7.7-2.9 8.7-7.4a28.8 28.8 0 00.4-6c0-16.3.2-32.6 0-49 0-4.7 1.6-6.6 6.4-6.4 5.3.3 10.7 0 16 .1 6.1 0 6.7.6 6.7 7v26zM82 321.9l-.1-27c-.1-4.4 1.7-6 6-5.8h16.4c6.1 0 6.7.6 6.7 6.5v49.5a23.5 23.5 0 00.6 6c1.1 4.3 4.3 6.7 8.8 6.6s7.6-2.5 8.6-7a30 30 0 00.5-6.4c0-16.4.2-32.7 0-49-.1-5 1.7-6.6 6.4-6.3 5.9.2 11.7.1 17.5 0 3.6-.1 5.2 1.5 5.2 5 0 18.4.4 36.7-.2 55-.8 21.3-17.6 35.5-40 35A36 36 0 0182 347.3v-25.5zM135.6 501a50.1 50.1 0 01-50.2-45.4c-2.2-23.9 16.6-47 41.6-51.4a45.3 45.3 0 0145.5 17c4 4.7 3.6 6.2-1.7 9.2l-13.5 7.6c-3 1.8-5 1.4-7.4-1.2-7-7.6-16.3-9-24.2-4-8.8 5.7-12.4 17.8-8.4 28.5 3.4 9.3 12.4 15.3 21.4 13a32 32 0 0012.5-7.5c2.7-2.4 4.6-3.1 7.7-1.2 4.4 2.6 9 5 13.5 7.5 5 2.9 5.3 4 2.1 8.5a44.5 44.5 0 01-38.9 19.5zM350.6 334.6v-39.4c-.1-4.7 1.7-6.2 6.2-6.1q24.2.2 48.4 0c4.2 0 6.2 1.3 6 5.7-.2 4.7-.1 9.4 0 14 .2 3.8-1.5 5.5-5.3 5.4h-22c-3.8-.2-4.3 1.7-4.3 4.9s1 4.5 4.3 4.3c4-.2 8 0 12 0 3.3 0 4.9 1.7 4.9 5v14c0 3.4-1.6 4.9-5 4.9h-12.4c-3.8-.2-3.7 2.2-3.8 4.9s.7 4.4 3.9 4.3h23c4.4-.2 6.4 1.5 6.2 6.1s-.1 9 0 13.5c.1 3.7-1.4 5.5-5.3 5.5H356c-4.2 0-5.4-2-5.4-6 .1-13.7 0-27.3 0-41zM182.6 452.4v-40c-.1-4.7 1.6-6.6 6.3-6.3 5.2.2 10.4 0 15.5 0 6.7 0 7.2.5 7.2 7v52.5c0 6 .6 6.5 6.6 6.5h17c3.8 0 5.6 1.4 5.5 5.3v16c0 3.6-1.6 5.2-5.1 5.1h-48c-4 0-5-2-5-5.6v-40.5z"/></svg>
