<svg xmlns="http://www.w3.org/2000/svg" viewBox="0 0 391.9 228.1"><g data-name="Layer 2"><g fill="#fff" data-name="Слой 1"><path d="M196 0a71.3 71.3 0 1071.3 71.3A71.3 71.3 0 00196 0zm-14.8 83.7a82.1 82.1 0 01-25.4 7.4c.9-3.7 3.2-3.2 4.7-3.7 4.6-1.6 9.1-3.2 13.2-5.9 2.6-1.7 3.3-4.1 1.5-6.9s-3.9-1.7-6-.4a54.8 54.8 0 00-11 9.4 8.8 8.8 0 01-4.1 2.6c-4.7 1.1-7.1-.2-8.1-5.1-1.8-8.5-3.3-17-3.2-25.7.1-7.4 2.5-8.8 10.1-6.1 0 8.7 0 17.6 2 26.9 5.8-4.5 11.5-8 18.6-7.3a27.7 27.7 0 016.4 1.1c3.5 1.2 6.3 3.6 6.8 7.3s-3 5.2-5.5 6.4zm7.7 1.6a4.5 4.5 0 01-.4-5.2c1.7-2.4 4.4-1.7 7.4-1l.5 6.4c-2.7.6-5.3 2-7.6-.2zm45.5-1.6c-7.9 3.9-16.3 6-25.3 7.6.1-3.5 2-3.1 3.3-3.6a64.3 64.3 0 0013.3-5.5c2.9-1.7 4.8-3.9 2.8-7.3-2.2-3.7-4.7-1.6-7.1-.1a50.4 50.4 0 00-10.1 8.9 8.4 8.4 0 01-4.6 2.5c-4.4 1.2-6.4-.6-7.4-4.8-1.9-8.6-3.5-17.2-3.3-26.1.1-7.2 2.7-8.9 10-5.9a155.8 155.8 0 001.9 26.8l5.5-3.7a22 22 0 0119.6-2.4c3.5 1.1 6.3 3.5 6.8 7.3.4 3.6-3 5-5.5 6.3zm7.9 2.2c-.9-1.9-2-4.2-.5-6 1.7-2.1 4.5-1.7 7.2-.6l.6 6a9.7 9.7 0 01-7.3.6zM392 224.2c-6.6 2.4-13 4.7-20.3 3.1-5.2-1.2-9.5-3.6-11.6-8.5-3.7-8.8-4-17.8 1-26.3a19.7 19.7 0 0122-8.8c4.2 1.2 7.4 3.7 8.1 8.4.8 5.5-.5 10.2-5.5 13.4a33.3 33.3 0 01-17.2 4c0 10.3 8.7 13.3 20.1 7.1 1.8 1 3.3 6.6 3.3 7.6zm-24-21.6c4.6 0 8.6-.5 12-3.2 2.2-1.7 3.2-4 1.7-6.6s-3.8-3-6.5-2c-4.4 1.2-6.9 5.1-7.2 11.8zM30.5 195.8c8.5 5.4 10.8 10.3 9.2 18.2-1.4 7-7 12-15 13.3a33 33 0 01-9.4.3c-9.8-1-14.9-5.9-15-15.8-.5-13.4-.2-26.9-.2-41 9.7 0 19.3-1.6 28.6 1.4 8.7 2.8 11.4 14 5.5 20.8a22.4 22.4 0 01-3.7 2.8zm-20 5.5c0 3.6-.2 6.6 0 9.6.4 5.8 3.3 8.6 8.8 8.7s9-2.9 9.5-8.2c.6-5.6-2.2-9.3-8-10-3-.4-6.5 0-10.3 0zm.3-22.4v14.2c5.3-.2 10.8 1.8 14.5-3.4 1.8-2.5 2.1-5.6.1-7.9-3.9-4.7-9.3-2.8-14.6-2.9zM247.7 170.6c9 .1 17.4-.8 25.7.7 5 1 9 3.4 10.5 8.7 1.6 5.6.5 10.5-3.9 14.5a12.9 12.9 0 01-2.6 1.2c9 5.3 11.1 9.7 9.7 17.7-1.3 7.3-6.6 12.3-14.5 13.8a33 33 0 01-9.4.4c-10.6-.9-15.5-6-15.5-16.8zm10.2 30.8v9.3c.2 5.7 3.2 8.7 8.5 9 5.7.2 9.3-2.7 9.8-8.2.6-5.7-2-9.2-7.8-10-3.2-.5-6.5 0-10.5 0zm.3-8c5.6-.5 11.4 1.7 15-4 1.3-2.5 1.5-5.5-.4-7.6-4-4.5-9.4-2.8-14.6-3zM194.8 226.1h-10.4v-41.7h7.7c1.3.7.4 2.4 1.3 3.5.4-.2 1-.2 1.2-.5A15.8 15.8 0 01205 183c8.8-.4 13.8 3.4 14.3 12.2.5 10.1.1 30.7.1 30.7l-10.3.1v-26c0-6.6-1.6-8.9-6-9-4.9-.1-8.2 3.5-8.3 9.1l.1 26zM159.8 183c11.5 0 17.7 5.3 19.1 15.5a39.6 39.6 0 01.1 11.9c-1.9 12.9-13 20.2-25.6 16.4a12.8 12.8 0 01-4-1.9c-8.8-6.6-8.7-15.9-7.6-25.3 1-7.9 5.1-13.6 13.1-15.8a36.7 36.7 0 015-.8zm9.2 22.2a22.6 22.6 0 00-1.3-9.3c-1.2-3-3.2-5-6.6-5.2s-6.3 1.2-7.6 4.5a26 26 0 00.1 20.3 6.8 6.8 0 006.6 4.5c3.2.1 5.3-1.6 6.8-4.3 1.8-3.2 2.1-6.8 2-10.5zM80.8 226.4c-3.2-.8-7.6 2.3-9.2-3.5a18 18 0 01-12.3 5c-7.5 0-12.9-4-13.2-11.4-.5-10.6 0-21.2 0-32H56c0 9.4-.1 18.7.1 28 .1 3.4 1.1 6.7 5.4 7.1 3.8.3 7-1 8.4-4.8a13.4 13.4 0 00.5-4.9v-25.2h10.4zM317.2 184.4h10.3v27.8c0 3.6.8 7 5.2 7.3s7.5-1.6 8.8-5.8a16.4 16.4 0 00.4-5v-24.3H352V226c-2.8-.2-7 3-9.1-3a20.5 20.5 0 01-10.2 4.7c-8.7 1-14.8-3-15.4-11.6-.6-10.4 0-20.9 0-31.6zM137.7 192.2h-11.2v18.6c.1 8.7 2.3 10.3 11 7.6 1.5 1.7 1.7 4 2.7 6.3a20.6 20.6 0 01-18 1.8c-3.5-1.2-4.9-4-5.6-7.6-1-5.6-.6-11.3-.6-16.9v-30.6h10.3v12.8h11.3l.1 8zM110 192.1H99c0 8-.2 15.7.1 23.4.1 3 2.5 4.2 5.3 4a36.4 36.4 0 005.4-1 15.8 15.8 0 012.5 6.2 20.1 20.1 0 01-17.7 1.7c-3.7-1.3-5.4-4.4-5.7-8-1.2-15.5-.6-47.2-.6-47.2h10.4V184h11.2zM293.3 171.5h10.5v39.8c0 8.5 1 9.3 9.7 7.4l2.5 7.1a21.8 21.8 0 01-16.4 1.3c-3.6-.9-5.2-3.8-5.7-7.4-.9-6-.4-11.9-.5-17.9-.2-10 0-19.9 0-30.3z"/></g></g></svg>
