<svg xmlns="http://www.w3.org/2000/svg" xmlns:xlink="http://www.w3.org/1999/xlink" viewBox="0 0 190 33"><path fill="#fff" d="M17.4 13.4l.7 1.7-.1.7-4.7 8.2 10.2-6.2c1.1-.8 1.4-2.3.7-3.4L15.7 1.1c-.2-.4 0-1.1.6-1.1h1.8c.5 0 1 0 1.7.6l17.8 15c.8.7 1 2 .4 3-.6 1.1-1.6 2.1-3.8 3L6.3 32.3A9 9 0 013 33H.6c-.5 0-.8-.7-.4-1l16.3-18.8c.3-.3.8-.2 1 .2" /><path fill="#fff" d="M107 17.8c-.2-.4-.8-.6-1.4-.6H92.9l1.4-2.7h15.3c1.2 0 2.4-.7 2.9-1.5l.6-1.2c.2-.4.2-.9-.2-1.2-.3-.4-.8-.6-1.5-.6H90.6c-1.2 0-2.4.7-2.8 1.5l-7.9 15.7c-.2.4-.2.9.1 1.2.3.4.9.6 1.5.6h20.7c1.2 0 2.4-.7 2.9-1.5l.6-1.2a1 1 0 00-.1-1.2c-.3-.4-1-.6-1.5-.6H89.3l1.4-2.8h13c1.2 0 2.5-.7 3-1.5l.5-1.1c.3-.5.2-1-.1-1.3M190 10.6c.1.4-.2 1-1 1.4l-12.2 7.4 4.9 7.6c.2.4.2.8-.1 1.1-.3.4-1 .7-1.7.7l-3.7.2c-1.5 0-2.5-.5-3.1-1.4l-2.8-4.3-7 4.2a8 8 0 01-4 1.3h-4.4c-.9 0-1.2-.4-1.3-.6-.2-.4.1-1 .9-1.5l13-7.8-4.7-7a1 1 0 01.1-1.2c.3-.4 1-.7 1.7-.7h3.9c1.5 0 2.4.5 3 1.5L174 15l6.7-4c.9-.6 2.5-1 4.3-1h3.8c.9 0 1.2.4 1.2.6M158.2 10.6c.3.3.4.8.2 1.2l-7.8 15.7c-.4.9-1.6 1.5-2.8 1.5h-3.3c-.6 0-1.2-.2-1.5-.6a1 1 0 01-.1-1.2l7.7-15.7c.4-.8 1.6-1.5 2.8-1.5h3.3c.7 0 1.2.2 1.5.6M147.4 10.6c.3.3.4.8.1 1.3l-7.7 15.6c-.4.9-1.6 1.5-2.8 1.5h-3.2c-.7 0-1.2-.2-1.5-.6-.3-.3-.4-.8-.1-1.2l4.7-9.8-10 10.3c-.9.7-2.2 1.3-3.3 1.3h-1.3c-1.2 0-2.1-.7-2.1-1.6l-.2-10-5 10c-.3 1-1.5 1.5-2.7 1.5H109c-.7 0-1.2-.1-1.5-.5-.3-.3-.4-.8-.1-1.3l7.7-15.6c.4-.8 1.6-1.5 2.8-1.5h5.8c.6 0 1.2.2 1.6.5.4.3.6.7.5 1.2V21l9.6-9.7a5 5 0 013.2-1.4h7.2c.7 0 1.2.2 1.5.6M81.7 12.8c1.4 1.5 1.3 3.8-.2 6.9C78.2 26 72 29 61.5 29H50c-.6 0-1.2-.2-1.5-.6-.3-.3-.3-.8-.1-1.2L54 16.1h8l-4 8h5.2c6.7 0 8.7-1.3 10.4-4.8 1-1.9 1.1-3 .5-3.7-.7-.7-2.4-1.1-5.5-1.1h-2.1-10.9l-2.1-.1c-.5-.1-.7-.3-.6-.6.2-1 1-2.5 2.2-3.2.4-.4 1-.6 2.4-.6h13c5.9 0 9.6 1 11.2 2.8"/></svg>
