<svg xmlns="http://www.w3.org/2000/svg" viewBox="0 0 31 89"><g data-name="Layer 2"><g fill="#fff" data-name="Layer 1"><path fill-rule="evenodd" d="M6.2 61.3c-3.9 0-6.2-2.4-6.2-5.9s2.2-5.8 6-5.8 6.2 2.4 6.2 5.9-2.2 5.8-6 5.8zM6 57.7c1.9 0 3.5-.6 3.5-2.2S8 53.2 6 53.2s-3.5.6-3.5 2.3 1.6 2.2 3.5 2.2zM9.3 63.6v-.4a1 1 0 011-1h3.5a1 1 0 011 1v1.4a1 1 0 01-1 1H12v6.9h1.7a1 1 0 011.1 1v1.4a1 1 0 01-1 1h-3.5a1 1 0 01-1-1v-.3a14.7 14.7 0 00-8-1.6 1 1 0 01-1-1v-7.3a1 1 0 011-1zm0 7.6V67H3v2.7a14.2 14.2 0 016.3 1.4z"/><path d="M27.7 80.6a5.5 5.5 0 01.2 2c-.1 2-1.2 2.8-3 2.8a2.7 2.7 0 01-3-3 5 5 0 01.4-2c.5-1-1-1.2-1.9-1.1-1.5.1-1.5 2.2-1.5 3.3A6 6 0 0025 89c3.8 0 6-2.4 6-6.2 0-1.2-.1-3.3-1.8-3.4-.8 0-1.9 0-1.5 1.2zM20.2 50.2a1 1 0 00-1.1 1v1.5a1 1 0 001 1h3.5v3.7h-3.4a1 1 0 00-1.1 1v1.4a1 1 0 001 1h9.6a1 1 0 001-1v-1.4a1 1 0 00-1-1h-3.4v-3.7h3.4a1 1 0 001-1v-1.5a1 1 0 00-1-1zM19 64.5a1 1 0 011.2-1h9.5a1 1 0 011 1V66a1 1 0 01-1 1h-9.5a1 1 0 01-1.1-1z"/><path fill-rule="evenodd" d="M22.4 72.7v1.4h-2.2a1 1 0 00-1.1 1v1.4a1 1 0 001 1h9.6a1 1 0 001-1v-2.7c0-3.7-1.4-5.7-4.4-5.7-2.7 0-4 1.8-4 4.6zm6 .8v.6h-3.6v-.8a1.5 1.5 0 011.7-1.7c1.3 0 1.9.6 1.9 1.9z"/><path d="M19 19.8a1 1 0 011.2-1h3.3V18c0-.5-.3-.6-.6-.8l-3-1.5a1.2 1.2 0 01-.8-1.3V13c0-.6.6-1 1.2-.5l4.1 2.6 4.8-2.7c.8-.5 1.6-.4 1.6.8v1.2a1.4 1.4 0 01-1 1.6l-3.2 1.7a.7.7 0 00-.4.7v.4h3.5a1 1 0 011 1v1.4a1 1 0 01-1 1h-9.5a1 1 0 01-1.1-1zM20.2 31.5a1 1 0 00-1.1 1v1.4a1 1 0 001 1h3.4c2.7 0 3.8-1.6 3.8-3.7a7 7 0 00-.6-2.8h3a1 1 0 001-1V26a1 1 0 00-1-1h-9.5a1 1 0 00-1.1 1v1.4a1 1 0 001 1h4a3 3 0 01.4 1.6c0 1-.4 1.5-1.7 1.5z"/><path fill-rule="evenodd" d="M25 48.3c-3.8 0-6.2-2.4-6.2-6s2.2-5.7 6-5.7S31 39 31 42.4s-2.2 5.9-6 5.9zm0-3.6c1.8 0 3.4-.6 3.4-2.3s-1.6-2.2-3.5-2.2-3.5.6-3.5 2.2 1.6 2.3 3.5 2.3z"/><path d="M20.2 0A1 1 0 0019 1v1.4a1 1 0 001 1h4.7c1.6 0 2.9 1 2.9 2.1 0 1-.6 1.4-2.3 1.4h-5.2a1 1 0 00-1.1 1v1.4a1 1 0 001 1h7c2.4 0 3.8-1 3.8-3.2a4.5 4.5 0 00-2-3.7h.8a1 1 0 001-1V1a1 1 0 00-1-1zM1.3 44.5a1 1 0 00-1 1V47a1 1 0 001 1h3.3c2.8 0 3.9-1.6 3.9-3.7a7 7 0 00-.6-2.9h3a1 1 0 001-1V39a1 1 0 00-1-1H1.3a1 1 0 00-1 1v1.4a1 1 0 001 1h4a3 3 0 01.4 1.6c0 1-.5 1.5-1.7 1.5zM1.3 31.8a1 1 0 00-1 1v1.5a1 1 0 001 1h9.5a1 1 0 001.1-1v-1.4a1 1 0 00-1-1H7.3v-.5a.7.7 0 01.3-.7L11 29a1.4 1.4 0 001-1.6v-1.2c0-1.2-.9-1.2-1.7-.8l-4.8 2.7-4-2.6c-.6-.4-1.2 0-1.2.5v1.4a1.2 1.2 0 00.8 1.3l3 1.6c.2.1.5.3.5.7v.8zM.3 14a1 1 0 011-1h9.5a1 1 0 011.1 1v1.5a1 1 0 01-1 1H10a4.4 4.4 0 012 3.7c0 2-1.4 3.2-3.7 3.2h-7a1 1 0 01-1-1V21a1 1 0 011-1h5.3c1.6 0 2.2-.4 2.2-1.4 0-1.2-1.2-2-2.8-2H1.3a1 1 0 01-1-1z"/></g></g></svg>
