<svg xmlns="http://www.w3.org/2000/svg" viewBox="0 0 19.4 70.3"><path fill="#fff" d="M.2 54.3c0-.9.1-1.6.7-2.3.6-.7 1.6-1 2.7-1s2.1.2 2.9 1c.6.6.8 1.2.8 2.3V57H.2v-2.7zm6 1.5v-1.5c0-1.7-1.1-2.1-2.6-2.1s-2.4.6-2.4 2.2v1.4h5zm1.1-10.5h-3v1.4l2.9 2v1.6l-3-2.2c-.4 1.3-1.2 1.5-2.1 1.5-1.2 0-2-.8-2-2.4V44h7.1v1.3zm-6.1 0v1.9c0 .8.3 1.2 1.1 1.2.7 0 1.1-.4 1.1-1.2v-1.9H1.2zm0-8.2v2.3h6v1.2h-6v2.3h-1v-5.8h1zm6.1-4.3v3.1H.2v-1.2h2.7v-1.9c0-1.6.8-2.4 2.2-2.4 1.4 0 2.2.8 2.2 2.4zm-3.4 0v1.8h2.4v-1.8c0-.8-.4-1.2-1.2-1.2-.8 0-1.2.5-1.2 1.2zm-.9-7l4.3-3v1.5l-3.4 2.3 1 1h2.4v1.2H.2v-1.2h3.2L.2 24.5v-1.6L3 25.8zm.7-10.4c2.2 0 3.7 1.4 3.7 3.4s-1.5 3.4-3.7 3.4c-2.1 0-3.7-1.3-3.7-3.4 0-2 1.5-3.4 3.7-3.4zm0 5.5c1.7 0 2.7-.8 2.7-2.2 0-1.3-1.1-2.1-2.7-2.1S1 17.4 1 18.8c0 1.3 1.1 2.1 2.7 2.1zM.2 10.6C.2 9.1.9 8.3 2 8.3c.7 0 1.3.4 1.5 1 .1-.8.8-1.3 1.7-1.3 1.3 0 2.1.9 2.1 2.2v3.6H.2v-3.2zm2.9 2.1V11c0-.9-.3-1.4-1-1.4-.9 0-1 .6-1 1.4v1.7h2zm3.1 0v-1.9c0-.8-.2-1.5-1.1-1.5-.9 0-1.1.7-1.1 1.5v1.8h2.2zM3.7 0c2.2 0 3.7 1.4 3.7 3.4S5.9 6.8 3.7 6.8C1.6 6.8 0 5.6 0 3.4 0 1.4 1.5 0 3.7 0zm0 5.6c1.7 0 2.7-.8 2.7-2.2 0-1.3-1.1-2.1-2.7-2.1S1 2.1 1 3.4s1.1 2.2 2.7 2.2zM15 53.9l4.3-3v1.5l-3.4 2.3 1 1h2.4v1.2h-7.1v-1.2h3.2l-3.2-3.1V51l2.8 2.9zm-2.9-3.3v-1.4l3.8-1.7-3.8-1.8v-1.3l5.7 2.8c1.2.6 1.6 1.2 1.6 2 0 .3-.1.6-.2.8h-1c.1-.1.2-.4.2-.8 0-.5-.4-.7-1.1-1.1l-5.2 2.5zm3.4-9L12.1 44v-1.5l2.5-1.6-2.5-1.7v-1.4l3.4 2.4 3.7-2.5v1.5L16.5 41l2.7 1.8v1.4l-3.7-2.6zm3.7-10.8V32H16v3.2h3.2v1.2h-7.1v-1.2h2.8V32h-2.8v-1.2h7.1zm-7.1-1.9v-1.2h5.4l-5.4-3v-1.4h7.1v1.2h-5.4l5.4 3v1.4h-7.1zM7.3 63.2v7.1H.1v-7.1h7.2zm-.6 6.6v-6.1h-6v6.1h6zm-2.8-4.2V65h1.5v.6H3.9zm0 .8c0 .2.1.4.2.5-.1.1-.2.2-.2.5 0 .2.1.4.2.5h-.2v.6h1.5v-.6h-.8c-.1 0-.2-.1-.2-.2s.1-.2.2-.2h.9v-.6h-.9c-.1 0-.2-.1-.2-.2s.1-.2.2-.2h.9v-.6h-1c-.3-.1-.6 0-.6.5M3 65.3c0-.2.2-.4.4-.4s.4.2.4.4-.2.4-.4.4c-.3-.1-.4-.2-.4-.4m.2 1.4c0 .2-.2.4-.4.4s-.4-.2-.4-.4.2-.4.4-.4c.2.1.4.2.4.4m-1.9-.3h.8c-.1.1-.1.3-.1.5 0 .5.5.8.9.8.5 0 .9-.4.9-.8 0-.2-.1-.4-.2-.5h.2v-.6H1.3v.6z"/></svg>
