<svg xmlns="http://www.w3.org/2000/svg" viewBox="0 0 10.5 31.3"><title>ecola</title><path d="M3,27.4s0,3.8,3.6,3.9,3.9-3.8,3.9-3.8h-1s-.4,2.7-2.4,2.7v-2H6.3l-.1,2c-2,0-2.3-2.8-2.3-2.8Zm3.6-3c-2.6,0-2.7-2.8-2.7-2.8H3s0,3.8,3.6,3.8,3.9-3.7,3.9-3.7h-1a2.86,2.86,0,0,1-2.9,2.8Zm0-5.7c1.3,0,3-.5,3-2.2,0-1.5-1.5-2.2-2.9-2.2s-2.8.6-2.8,2.2c0,1.8,1.6,2.2,2.8,2.2ZM3,16.5c0-2.2,2.2-3.2,3.8-3.1s3.7,1,3.6,3.1-1.9,3.1-3.7,3.1S3,18.4,3,16.6ZM0,11.3H6.7a3.65,3.65,0,0,0,2.6-.7,2.63,2.63,0,0,0,1.2-2.2c0-.9-.2-1-.2-1L9.6,8a1.86,1.86,0,0,1-.7,1.7,2.47,2.47,0,0,1-2.2.7H0ZM6.7,5.5c1.2,0,2.8-.5,2.9-2.2S8.1,1.1,6.7,1s-2.8.7-2.8,2.3S5.5,5.4,6.7,5.5ZM3.2,0l7.1.2v.9h-1a2.32,2.32,0,0,1,1.1,2.2c0,2-1.9,3-3.7,3S3,5.2,3,3.3A3,3,0,0,1,4.1,1h-1l.1-1Z" fill="#fff"/></svg>