<svg xmlns="http://www.w3.org/2000/svg" viewBox="0 0 145.2 536.6"><path fill="#fff" d="M1.7 509.1c-2.5-10.8-1.5-22-1.7-33h20.2v23c0 4.1.5 8.6 3.3 11.8 3.2 3.4 8.1 4 12.5 4.6.2-13 0-26.2 0-39.3h20.1v39.3h89l-17 21.1H36.2c-8.1 0-16.7-1.8-23-7.2-6.3-5-9.9-12.6-11.6-20.3zm34-41.5v-20h85.6v20H35.6zm7.4-33.2c-5.6-6-7.2-14.3-7.3-22.2v-48.6l19.6 10.7v40c0 2.2.3 5.5 2.8 6.3 3 .6 5-2.2 5.8-4.7 4.2-11.4 6-24 12.5-34.6a23.5 23.5 0 0121.9-11 23.4 23.4 0 0119 11 33 33 0 014 18V438l-19.6-.1v-39.7a13.6 13.6 0 00-1.5-6.8c-2.7-1-6-.4-7.2 2.5-5 11.5-6.4 24.4-12.8 35.3A23.8 23.8 0 0163.5 441a23 23 0 01-20.4-6.6zM35.7 355l19.7 10.7v-45.6c0-2.3.2-5.5 2.8-6.5 3-.5 5 2.4 5.8 4.8 3.7 10.2 5.6 21 10.3 30.8 2.7 5.6 7 10.7 13 13a25 25 0 0027.4-5.7 28.2 28.2 0 006.6-19.3v-40.9h-19.6v39.8c-.1 2.2.1 5-1.6 6.7-2.9 1.7-6.3-.1-7.4-3-4.5-11.1-6.2-23.4-12-34a24.2 24.2 0 00-16.3-12.4c-7.5-1.3-16 .6-21.3 6.5-5.8 6.2-7.3 15-7.3 23.2V355zm13-72.2a32 32 0 01-13.4-32.7c1-6.5 4.7-12.2 9.5-16.6-5-4.6-8.8-10.5-9.6-17.3-2.2-12 3-25.2 13.1-32 6.5-4.3 14.5-5 22-5h51v20h-51c-4.4.1-9.6.5-13 4-4.7 4.7-4 13.6 1.5 17.5 3.4 2.4 7.7 2.6 11.6 2.7h50.9v20H71.4c-4.6.2-9.8 0-13.4 3.3a12.2 12.2 0 00-.5 17.2c3.4 3.4 8.4 3.7 13 3.7h50.8v20.1H71.4c-7.7 0-16-.7-22.6-5zM55.5 164c-21.6-13-27-44.9-12.4-65 8.4-11.7 23.3-16.9 37.3-17.3 13.7-.1 27.3 0 41 0v20h-39c-7.9.2-16.4 1.7-22 7.5-6 6.3-7.2 16-5 24a22.9 22.9 0 0017 16.3c8.2 1.8 17.7.7 24-5.4a26 26 0 001.4-34.5c7-.2 14.1 0 21.1 0 5.5 10.8 5.4 24 1 35.2A40.2 40.2 0 0196.2 168a48 48 0 01-40.7-4zM36.6 73.2v-38a35 35 0 0114-27.8A43.3 43.3 0 0176.2.1c15-.2 30.1 0 45.1 0v20h-44c-4 0-8.3.4-12 2.1a15.8 15.8 0 00-9.4 14v17h65.5v20z"/><path fill="#fff" d="M.3 457.7a10.2 10.2 0 011.3-5 9.2 9.2 0 013.7-3.7 10 10 0 0110 0 9.3 9.3 0 013.7 3.7 10 10 0 010 10 9.3 9.3 0 01-3.7 3.7 10 10 0 01-5 1.3 10.2 10.2 0 01-5-1.3 9.4 9.4 0 01-3.7-3.8 10.2 10.2 0 01-1.3-4.9zm1.7 0a8.5 8.5 0 001 4.1 7.8 7.8 0 003.2 3.1 8.3 8.3 0 008.3 0 7.8 7.8 0 003-3 8.3 8.3 0 000-8.4 7.9 7.9 0 00-3-3 8.3 8.3 0 00-8.3 0 7.7 7.7 0 00-3.1 3 8.6 8.6 0 00-1.1 4.2zm13.9 4.4v-1.7h-4.6v-1a2.3 2.3 0 01.4-1.4 8.8 8.8 0 012.5-1.9l1.7-1v-2l-2.1 1.2a11.8 11.8 0 00-2.2 1.6 2.5 2.5 0 00-.5 1 3.4 3.4 0 00-1-2.3 2.8 2.8 0 00-2.1-.8 2.8 2.8 0 00-1.6.5 2.7 2.7 0 00-1 1.3 9.4 9.4 0 00-.3 2.8v3.7zm-6-1.7v-2.2a3.4 3.4 0 00-.5-2 1.5 1.5 0 00-1.2-.6 1.4 1.4 0 00-.8.3 1.5 1.5 0 00-.6.7 5.6 5.6 0 00-.2 1.8v2z"/></svg>
