<svg xmlns="http://www.w3.org/2000/svg" viewBox="0 0 379.5 35.7"><path fill="#fff" d="M33.9 6.6l-2.6 2.5a18 18 0 00-6.2-4.2 15.7 15.7 0 00-19.8 5.9 13.9 13.9 0 000 14.3c1.4 2.3 3.2 4.1 5.6 5.4s5 2 7.9 2c3.5 0 6.4-1 8.8-2.9a12 12 0 004.3-7.6H21.4v-3.3h14.5a17 17 0 01-4.6 12.4A16.6 16.6 0 0119 35.7c-6.2 0-11.2-2.1-14.8-6.4A17.1 17.1 0 010 17.9 17.9 17.9 0 0118.5.2c2.9 0 5.6.5 8.1 1.5s4.9 2.6 7.3 4.9zM42.5.9h6.7c3.7 0 6.3.2 7.6.5 2 .5 3.6 1.4 4.9 3a8.3 8.3 0 011.9 5.6 8.4 8.4 0 01-5 8c-1.6.8-3.8 1.1-6.7 1.1L64 34.8h-4.2L47.7 19.1h-1.9v15.7h-3.4L42.5.9zm3.4 3.3v11.5h5.8c2.3 0 3.9-.2 5-.6a4.7 4.7 0 002.5-2.1c.6-.9.9-2 .9-3.2 0-1.1-.3-2.2-.9-3.1-.6-.9-1.4-1.6-2.4-2s-2.7-.6-5-.6l-5.9.1zM84.7.9l15.7 33.8h-3.6l-5.3-11.1H77l-5.3 11.1h-3.8L83.8.9h.9zm-.5 7.2l-5.8 12.2h11.5L84.2 8.1zM103 .9h3.9l8.6 13.9L124 .9h3.9l-10.7 17.6v16.1h-3.3V18.5L103 .9zM177.9 7.2l-2.7 2a13.7 13.7 0 00-5.3-4.3c-2.1-1-4.3-1.5-6.8-1.5-2.7 0-5.2.6-7.5 1.9s-4.1 3-5.3 5.2a14 14 0 00-1.9 7.4c0 4.1 1.4 7.6 4.2 10.3 2.8 2.8 6.4 4.1 10.7 4.1 4.7 0 8.7-1.9 11.9-5.6l2.7 2a18.2 18.2 0 01-14.7 6.8c-5.9 0-10.6-2-14-5.9a17.5 17.5 0 01-4.3-12c0-4.9 1.7-9.1 5.2-12.5s7.8-5.1 13-5.1a18 18 0 0114.8 7.2zM198.5.9l15.7 33.8h-3.6l-5.3-11.1h-14.6l-5.3 11.1h-3.7L197.6.9h.9zm-.5 7.2l-5.8 12.2h11.5L198 8.1zM219.6.9h6.7c3.7 0 6.3.2 7.6.5 2 .5 3.6 1.4 4.9 3a8.3 8.3 0 011.9 5.6 8.4 8.4 0 01-5 8 17 17 0 01-6.7 1.1l12.1 15.7h-4.2l-12.1-15.7h-1.9v15.7h-3.4V.9h.1zm3.4 3.3v11.5h5.8c2.3 0 3.9-.2 5-.6a4.7 4.7 0 002.5-2.1c.6-.9.9-2 .9-3.2 0-1.1-.3-2.2-.9-3.1s-1.4-1.6-2.4-2-2.7-.6-5-.6l-5.9.1zM248 34.7V.9h7c5 0 8.7.4 11 1.2 3.3 1.1 5.8 3.1 7.7 6s2.8 6.2 2.8 10.1a17 17 0 01-2.2 8.9 14.2 14.2 0 01-5.7 5.7 21.7 21.7 0 01-9.8 1.8l-10.8.1zm3.2-3.2h3.9a35 35 0 009.7-.9c2.5-.8 4.5-2.3 6-4.5 1.5-2.1 2.2-4.8 2.2-7.9 0-3.3-.8-6-2.4-8.3S266.8 6 264 5.2c-2.1-.6-5.6-1-10.4-1h-2.4v27.3zM282.5.9h3.4v33.8h-3.4V.9zM293.6 34.7V.9h.7l22.5 25.9V.9h3.3v33.8h-.8L297 9.1v25.6h-3.4zM342.1.9l15.7 33.8h-3.6l-5.3-11.1h-14.5l-5.3 11.1h-3.8L341.2.9h.9zm-.4 7.2l-5.8 12.2h11.5l-5.7-12.2zM363.1.9h3.4v30.5h13v3.3h-16.4V.9z"/></svg>
