<svg xmlns="http://www.w3.org/2000/svg" viewBox="0 0 749.03 124.58"><title>grosshaus</title><path d="M103.35,40.94c-8.6,0-16.9.09-25.19-.11A4.5,4.5,0,0,1,75,38.37C69.64,25.09,49.08,23,38.91,33.87c-13.16,14-13.7,42.52-.93,56.88,8.18,9.19,27,10.94,36.75,3.4,2.74-2.13,4.68-10.57,2.75-13.22-.59-.83-2.25-1.2-3.43-1.23-4.83-.15-9.67-.18-14.5,0-3.09.09-4.6-.83-4.47-4.24.22-5.33.18-10.67,0-16-.09-2.95.89-4.24,4-4.22q21.5.12,43,0c2.73,0,3.84,1,3.82,3.83-.09,13.34,0,26.67-.1,40a7.87,7.87,0,0,1-1.64,4.48C85.06,127.34,44.26,131.85,21,112.41,4.27,98.42-.84,79.42.11,58.54c.78-17.18,6.26-32.67,19.31-44.7C42.08-7.06,79.1-3.85,96.85,20.5A34.11,34.11,0,0,1,103.35,40.94Z" fill="#fff"/><path d="M438.3,46.48c9.48,0,18.42.12,27.35-.2.9,0,2.41-2.71,2.44-4.18.2-11.66.35-23.32,0-35-.15-4.8,1.54-6,6-5.75,6.14.33,12.32.22,18.48,0,3.3-.1,4.31,1.18,4.3,4.37q-.1,54.71,0,109.41c0,3.62-1.41,4.58-4.74,4.49-6.49-.18-13-.19-19.48,0-3.57.12-4.56-1.28-4.51-4.69.16-11.66.06-23.32.06-35V74c-9.46,0-18.39-.12-27.31.19-.91,0-2.44,2.69-2.47,4.15-.2,12-.26,24,0,36,.08,4.15-1.23,5.61-5.39,5.42-6.31-.29-12.65-.19-19,0-3.19.08-4.45-1.06-4.44-4.32q.09-55,0-109.91c0-3,1.17-4.1,4.15-4,6.49.14,13,.23,19.48,0,3.91-.16,5.25,1.1,5.17,5.07-.22,11.32-.08,22.65-.08,34Z" fill="#fff"/><path d="M566.64,112.53c-14.85,11.29-27.35,12.52-40.52,4.45-13.77-8.44-21.53-26.62-18.52-43.36,3.39-18.88,16.22-31.84,33.28-33.53,9.4-.94,17.68,1.82,25.47,8.87-.79-6.36,2.48-6.89,6.8-6.65,5.15.29,10.33.25,15.48,0,3.56-.15,4.58,1.33,4.56,4.7Q593,81,593.2,115c0,3.82-1.34,5-5,4.76-4.65-.25-9.33-.2-14,0C569.45,119.88,564.7,120.32,566.64,112.53ZM534.62,81c-.09,10.1,6.31,16.84,16.11,17s16.55-6.57,16.62-16.5c.07-10.09-6.4-17.13-15.91-17.31C541.49,63.92,534.72,70.71,534.62,81Z" fill="#fff"/><path d="M263.62,81.36c.05,23.68-16.94,40.87-40.45,40.91-23.33,0-40.66-17.31-40.75-40.78-.1-23.85,17.54-41.79,41-41.75C246,39.77,263.56,57.94,263.62,81.36Zm-55.4,0c.05,10.12,6.17,16.81,15.23,16.66,8.75-.15,14.71-7,14.66-16.81s-6.35-17.11-15.05-17.07S208.16,71.32,208.22,81.37Z" fill="#fff"/><path d="M677.94,70.2c0,6.83.11,13.66,0,20.49-.29,15.6-8.27,25.91-23.28,29.62A64.41,64.41,0,0,1,621,119.8c-12.92-3.71-20.84-13.11-21.28-26.46-.53-15.65-.18-31.33-.32-47,0-3.14,1.39-4,4.25-4,6,.1,12,.18,18,0,3.62-.13,4.53,1.42,4.5,4.75-.13,11.83-.19,23.67.06,35.49a30.91,30.91,0,0,0,2,10.65c1.88,4.72,5.81,7.15,11.09,6.9a10.87,10.87,0,0,0,10.18-7.59,30.4,30.4,0,0,0,1.75-9.73c.2-11.83.18-23.67,0-35.49-.05-3.61,1-5.14,4.83-5,5.83.23,11.67.17,17.5,0,3.2-.09,4.43,1.07,4.36,4.35-.17,7.83,0,15.67,0,23.5Z" fill="#fff"/><path d="M746.72,44.87c-3.2,6.32-6,11.77-8.78,17.37-3.26-.94-6.21-1.88-9.22-2.62a18.26,18.26,0,0,0-4.93-.57c-3.45.11-7.27.75-7.77,4.74s3.41,4.71,6.44,5.52c3.21.86,6.55,1.33,9.68,2.41,18.16,6.26,22.65,27.57,8.68,40.91-6.06,5.77-13.55,8.31-21.66,9.21-11.27,1.26-21.8-1.25-31.74-6.6-2.48-1.34-3.42-2.68-1.88-5.48,2.77-5.05,5.21-10.28,7.68-15.23,5.56,2.25,10.49,4.64,15.68,6.18a19.25,19.25,0,0,0,9.27.22c4.33-1,5.23-4.85,2-7.91a15.73,15.73,0,0,0-5.56-3.1c-2.81-1-5.81-1.45-8.68-2.29C690.38,83.07,684.49,68,693.11,54.1A25.14,25.14,0,0,1,701,45.93C715.61,37,730.68,38.74,746.72,44.87Z" fill="#fff"/><path d="M388.72,62.18c-4-1.09-7.26-2.29-10.66-2.81a14.78,14.78,0,0,0-7.31.5c-1.69.65-3.63,2.72-3.88,4.39-.18,1.22,2,3.34,3.55,4.11,2.18,1.07,4.78,1.3,7.22,1.81,14.45,3,22.14,11.33,21.91,23.71-.24,12.87-8.67,23.09-22.33,26.61s-26.72,1.39-39.11-5.31c-2.58-1.4-3.25-2.72-1.75-5.47,2.77-5,5.17-10.3,7.71-15.43,4.69,2.11,8.67,4.16,12.85,5.67a31.56,31.56,0,0,0,8.28,1.54c3.34.27,7.28-.6,7.2-4.29,0-2.31-3.11-5.14-5.5-6.64s-5.68-1.72-8.58-2.48c-8.47-2.23-15.95-5.89-17.55-15.54-1.68-10.21,1-19.13,9.55-25.75,11.22-8.7,35.25-9.41,46.7-1Z" fill="#fff"/><path d="M273,94.42c5.34,2.24,10,4.35,14.78,6.12a20.83,20.83,0,0,0,6.36,1c3.32.13,7.3-.51,7.19-4.28-.07-2.33-3.06-5.17-5.44-6.67s-5.68-1.69-8.57-2.48c-8.2-2.25-15.7-5.55-17.41-15-1.84-10.19.55-19.17,9-25.94,11.18-9,35.57-9.85,47.09-1.35L317.6,62.5a42.25,42.25,0,0,0-5.21-2,46.65,46.65,0,0,0-8.82-1.45c-3.43-.1-7.26.69-7.75,4.71s3.45,4.69,6.46,5.52c2.4.67,4.9,1,7.29,1.66,11.88,3.37,17.94,9.54,18.81,19.94.94,11.3-3.37,20.51-13.46,25.86-16.45,8.73-32.79,6.58-48.59-2.22-.89-.5-1.8-2.64-1.44-3.45C267.46,105.4,270.35,99.83,273,94.42Z" fill="#fff"/><path d="M175.64,67.22c-5.51-.61-10.43-1.53-15.36-1.6-9.41-.13-15.57,4.57-16.46,13.9a308.3,308.3,0,0,0-.9,33.86c.08,5.16-1.41,6.75-6.46,6.36-5.45-.43-11-.17-16.46-.08-2.75,0-3.86-1-3.86-3.83.06-23.29,0-46.59.19-69.88,0-1.19,2.21-3.3,3.47-3.37a182.88,182.88,0,0,1,19.45,0c1.23.06,3,2,3.37,3.42.57,2.09.15,4.46.59,7.06C150.13,43,160.13,41.24,171,41.4c3.32.05,4.81.85,4.68,4.49C175.47,53,175.64,60.12,175.64,67.22Z" fill="#fff"/></svg>