<svg xmlns="http://www.w3.org/2000/svg" viewBox="0 0 1965 1275"><path fill="#fff" fill-rule="evenodd" d="M210 327h15c26 2 52 8 76 19l24 11c14 7 26 17 35 29 7 9 14 18 15 30 2 9 0 19-7 26-7 8-15 15-25 17s-20-3-28-8c-16-8-28-21-43-31-14-10-32-15-49-16-32-3-65 6-90 25a171 171 0 00-53 89c-6 28-2 57 4 84 8 30 27 58 54 75 25 15 56 19 85 16 22-2 45-9 62-24 14-12 29-27 34-47 3-11 2-23 1-34-36 2-71-2-106 1-11 1-22 3-32 7-8 2-16 5-24 3-8-1-14-5-20-10-8-6-12-15-14-24-3-8-3-17 1-25 4-7 11-13 19-17 12-6 25-8 39-10 27-3 55-2 83-1l102 3c11 0 22 4 30 11 9 8 14 19 13 31 0 10-6 18-14 24 1 26-1 53-11 77-9 24-25 44-44 61-30 27-68 43-107 47-33 5-68 2-100-8-19-6-37-14-53-26-26-21-48-47-62-78-14-28-18-59-20-90v-21a236 236 0 0146-132 221 221 0 0199-69c22-8 43-13 65-15zm517 4c13-3 27-1 37 6 9 7 13 18 13 29l1 95 1 106v147c-1 11 0 23-4 33-3 8-10 15-18 18-10 3-20 3-29 0s-17-10-20-19c-5-10-3-22-3-34v-52-61c1-55-1-110-1-164l-1-60c-1-9-1-19 3-28 4-8 12-14 21-16zm110 0c9-2 19-2 29 2 8 3 14 10 17 18 4 10 3 20 3 30l2 93 1 112-1 139c1 12-2 24-10 32-5 6-14 10-22 10-9 1-19-1-27-6-7-4-11-11-13-18-3-10-2-21-2-31l1-59-1-90-2-188c0-9-1-19 3-27 4-9 12-15 22-17zm115 25a43 43 0 0146 24 39 39 0 01-30 56c-19 3-39-7-47-25-5-11-5-26 2-36s17-17 29-19zm725 110c10-3 20-6 30-5 11 0 22 4 29 11 7 6 10 15 10 24v6c-1 10-6 21-14 27-8 5-17 6-26 7-10 0-20 2-30 5-12 3-22 10-31 19a54 54 0 00-17 39v134c0 10-3 20-11 26-8 7-19 9-29 9-8-1-16-3-22-9-7-7-10-17-10-27V566l1-70c0-8 3-17 9-22 8-7 18-9 27-8 8 0 16 3 22 8 6 7 9 15 11 23 14-14 32-25 51-31zm-1222 4c14-7 32-5 44 5 8 7 13 18 12 28l-4 40-3 42-1 36c0 11-1 22 1 33 1 12 6 24 15 32 7 7 17 10 27 9 19-2 36-12 50-25 2-2 5-4 6-7l-1-50-1-55c0-19 2-38 4-58 1-8 4-17 10-23 8-8 20-11 31-10 10 1 18 6 25 13 5 7 7 15 7 23l-4 84-1 55c1 25 1 50 3 74 0 9 1 18-2 27-3 8-8 15-16 19-9 5-21 5-31 3-5-1-10-4-13-8-4-6-5-13-6-19-18 15-40 25-63 28-23 1-46-2-65-14-10-6-18-14-25-23a85 85 0 01-18-43c-5-28-6-58-5-87v-36c0-22 2-45 6-67 2-10 8-21 18-26zm778-3c16-4 35 5 42 20 4 7 5 15 3 22-12 35-27 69-42 102l-60 123c-2 3-2 6-2 8-2 8-6 15-13 19-8 6-19 7-30 5-10-2-19-9-24-18-5-8-8-18-12-27l-71-178c-5-12-10-24-13-36-1-7 0-15 4-21 7-10 17-17 29-19 10-1 21 2 28 8 6 5 9 11 12 18a63552 63552 0 0057 146l28-57c14-29 25-59 37-89 4-12 14-23 27-26zm-286 1c11-2 24-1 33 7 9 7 14 18 14 29-2 38-1 76 0 114l3 113c0 10-4 20-11 27a41 41 0 01-47 3c-11-7-16-19-16-31l-3-159v-70c0-6 2-13 5-18 5-8 13-13 22-15zm405 14c-17 8-33 19-46 32-10 10-17 22-23 35a204 204 0 00-14 124c4 18 13 36 25 51a160 160 0 00150 40c17-4 33-11 48-19 14-7 28-16 37-30 6-9 10-21 8-32-2-7-6-14-12-18-7-7-18-10-28-8-7 1-13 7-18 12-4 5-6 10-11 14-10 9-23 13-36 16-20 4-41 5-60-3-7-3-12-7-17-11-8-6-12-14-15-22l105-40 57-23c11-5 21-12 27-22 5-9 7-19 5-30-2-17-12-32-24-44-12-13-27-21-43-27-18-7-38-9-57-9-20-1-40 5-58 14zm31 57c10-5 21-6 32-6 17 0 33 7 46 17-18 9-37 15-56 23-22 9-45 17-67 27l9-27c8-14 21-27 36-34zm317 169a30 30 0 00-16 47c7 10 20 15 32 12 10-2 18-9 22-19 3-9 2-19-3-27-7-11-22-17-35-13zm5 3c-6 1-12 4-16 8-9 10-9 27 1 37 9 10 27 10 37 1a27 27 0 00-22-46zm-9 8v37h6v-16h6l10 16h6l-10-16 7-4c3-3 3-7 2-11-2-4-6-5-10-6h-17zm6 5v11l12-1c4-1 5-7 1-9s-9-1-13-1zM961 857l7-1 2 7c2 3 7 3 9 0 2-2 2-4 3-7l6 2c0 2 0 5-2 7-5 7-15 8-21 2-2-2-3-6-4-10zm338 0l7 1c-1 4-2 8-6 11-5 3-14 3-18-2l-3-9 6-1 2 5c2 4 8 4 10 0l2-5zM84 879c8-5 19-3 25 4l-3 6c-4-2-7-5-12-5s-9 3-10 7c-3 7-3 15-1 22 0 5 3 9 8 10s10-2 15-4l3 6c-7 5-16 7-24 4-5-2-9-7-10-13-2-6-2-12-1-19 1-6 4-14 10-18zm34 4c7-8 21-9 28 0 4 6 5 15 4 22h-30l3 12c2 4 8 7 13 6 4 0 7-2 11-4l2 7c-7 5-18 7-26 2-7-3-10-10-11-17-1-10 0-21 6-28zm7 3c-4 3-5 8-5 13h22c-1-5-1-9-4-13s-10-4-13 0zm68-8l7-2 1 22c6 0 12-1 18 3 8 5 8 18 1 25-3 2-6 3-10 3h-17v-51zm8 44c4 0 9 1 13-2 5-3 4-12-1-14-4-2-8-1-12-1v17zm102-41c6-4 14-5 21-4 4 0 9 3 10 7 2 5 2 10 2 15v19l3 9-6 4-4-7-8 6c-6 2-14 1-17-4-5-8-4-19 4-24 6-4 13-5 20-5 0-4 0-10-4-12-6-2-13 0-18 3l-3-7zm9 27c-5 5-4 15 3 16 5 0 9-3 13-7v-13c-6 0-12 0-16 4zm63-29c7-2 15-4 22-1 5 2 7 7 7 11v27c0 4 2 8 3 11l-6 4-3-7c-3 3-7 6-11 6-5 1-11 0-14-4-5-7-4-19 4-24 5-4 13-5 19-5 0-4 1-10-3-12-6-3-13 0-18 2l-1-2h-19v44h-7l-1-7v-44h17c4 0 8-1 11 1zm6 29c-5 4-4 14 2 16 5 1 10-3 13-7v-13c-5 0-11 0-15 4zm32-25c4-5 12-7 18-7 4 1 8 3 10 6 5 6 3 16-4 20 11 4 11 20 2 25-8 6-20 4-28-1l3-7c5 3 11 6 17 4 6-1 8-10 4-14-4-3-8-2-12-3v-6c3-1 7 0 9-2 4-2 5-8 3-11s-6-4-9-4c-4 1-7 4-10 6l-3-6zm42-5l7-2v41l21-39 7-2v53h-7v-38l-21 38h-7v-51zm47 3c-1-4 5-4 8-5v23h20v-21l7-2v53h-7v-23h-20v23h-8v-48zm60-4c6-1 13 0 18 4 5 6 7 14 7 21 0 8-1 17-7 23-5 6-16 7-23 3-6-3-9-10-10-17s-1-15 2-22c2-6 7-11 13-12zm1 7c-3 1-5 4-6 8-2 5-2 12-2 17 1 5 2 9 5 12 4 4 11 4 15-1 3-5 4-11 4-17 0-5-1-12-5-16-2-3-7-4-11-3zm108-7c7-2 14 1 19 5 1-1 0-4 2-4h36l-2 7h-13v44h-8v-44h-15l-2 5c-3-3-6-5-10-6s-9 2-11 5c-4 7-3 14-3 21 1 5 2 11 8 13s11-2 16-4l3 7c-7 4-15 6-23 4-6-2-10-8-11-14-2-8-2-17 0-25 3-6 7-12 14-14zm61 1l8-2-1 41 21-39 8-2v53h-8v-38l-19 36c-2 4-6 2-9 2v-51zm91 0l8-2v22c6 0 13-1 18 2 9 5 10 21 1 26-5 4-12 3-19 3h-7l-1-9v-42zm8 27v17c5 0 10 1 14-1 5-3 4-12-1-15-4-2-8-1-13-1zm33-27l7-2 1 23h19v-21l8-2v53h-8v-23h-19l-1 23h-7l-1-40 1-11zm59-1c7-1 14 0 18 5 6 6 7 14 7 21 0 8-1 16-7 22-5 7-16 8-24 3-5-3-8-10-9-17s-1-14 1-21c3-6 8-12 14-13zm1 7c-5 2-7 8-8 13 0 8-1 16 3 22 3 5 10 6 15 3 4-3 5-9 5-14 1-7 1-14-3-21-2-3-7-5-12-3zm33-6l8-2-1 41 21-39 8-2v53h-8v-38l-15 29-6 9h-7v-51zm118 2c7-5 18-5 23 2 6 6 6 15 6 23h-30c0 4 0 8 2 12 3 4 7 7 12 6 5 0 9-2 13-4l2 6c-9 8-24 8-32-2-5-6-6-15-6-23 1-7 3-16 10-20zm3 6c-3 3-4 8-4 13h22c-1-5-1-10-5-13-3-4-10-3-13 0zm76-7c8-5 19-3 25 4l-3 6c-4-2-7-5-12-5-4 0-8 3-10 7-3 6-2 13-2 19 1 5 3 11 8 13 6 2 11-2 16-4l3 7c-7 4-16 6-24 3-5-2-9-7-10-13-2-7-2-14-1-22 2-6 5-11 10-15zm32-1l8-2v23c3 0 7 1 9-2 3-5 2-12 6-17 2-3 6-3 9-4l2 7c-2 1-5 1-6 3-2 6-2 13-8 16 7 4 6 12 9 18 1 3 5 3 7 4l-2 7c-4 0-9-1-11-4-3-6-3-13-6-18-2-4-6-2-9-3v24l-8-1v-51zm55-1c6-1 14 0 18 6 5 5 6 13 7 20-1 8-2 16-7 22-6 7-17 8-24 3-5-3-8-9-9-15-2-7-2-15 0-22s8-13 15-14zm0 7c-5 2-7 9-8 14 0 7 0 15 4 21 3 5 11 6 15 2s4-10 5-15c0-6 0-13-4-18-2-4-7-6-12-4zm33-6l8-2v41c5-12 11-22 17-33l4-6 7-2v53h-8v-38l-16 30-5 8h-7v-51zm80-1c6-1 13 0 18 5 5 6 6 14 7 21 0 8-2 16-7 21-6 8-17 9-24 4-6-4-9-10-10-16-1-8-1-16 2-23 2-6 7-11 14-12zm0 7c-5 2-7 8-7 13-1 7-1 15 2 22 3 5 11 6 15 3 4-4 5-10 6-15 0-6 0-13-4-19-2-4-7-6-12-4zm89-7c7-2 15 0 20 6 4 6 5 15 4 22h-30l3 12c2 4 7 7 12 6 4 0 8-2 12-4l3 7c-8 5-18 7-27 2-6-3-9-9-11-15-1-7-1-15 1-21 2-7 7-13 13-15zm-3 11c-2 3-3 7-3 11h22c0-5-1-10-4-13-4-4-12-3-15 2zm33-11c4-1 8 1 10 5l6 15c1 3 5 2 8 2v-21l8-2v23c2 0 6 1 8-2 3-5 2-12 6-17 2-3 6-3 10-4l1 7c-2 1-6 1-7 4-1 5-2 12-7 15 7 4 6 13 10 19 0 2 3 2 4 2l7-1c6-14 5-29 5-44h29v44h6v22h-8v-15h-29v15h-8v-19l-2 6c-4-1-8 0-11-4-3-6-3-13-6-19-2-2-6-2-8-2v23h-8v-23c-3 0-7-1-9 3-2 5-2 12-6 18-2 4-7 4-11 4l-2-7c3-1 6-1 7-4 3-6 3-14 9-18-5-3-5-10-7-15-1-3-5-3-7-4l2-6zm77 8c0 12-1 25-5 37h18v-37h-13zm33-7l8-2v22c6 0 13-1 19 3s8 13 5 20c-2 5-7 7-12 8l-19 1-1-52zm8 27v17c5 0 9 1 13-1 6-3 5-13-1-15-3-2-8-1-12-1zm31-27l7-2v53h-8l1-51zm-1471 7h14l1 44h7v-44h14l2-7h-37l-1 7zm100 44l2-51h9c3 10 8 20 10 31l10-31h9l3 52-8-1-1-40-10 29h-6l-10-30-1 41h-7zm345-51c8 0 16-1 24 1 10 2 11 18 2 23 10 4 11 19 2 25-4 2-9 2-13 2h-15v-51zm8 7v14h12c5-2 6-11 1-13-4-2-9-1-13-1zm0 21v16h13c7-2 7-14 0-16h-13zm178 10c2-13 1-26 2-38h27v51h-8l1-44h-13l-1 28c-1 6-3 13-9 16-2 2-5 2-8 2l-1-7c4 0 9-3 10-8zm246-38h29v44h6v22h-8v-15h-29v15h-8v-22h4c7-14 6-29 6-44zm8 7c0 12-1 25-5 37h18v-37h-13zm69-7h38l-3 7h-13v42c1 4-5 2-8 2v-44h-14v-7zm281 44c6-14 5-29 6-44h28v44h6v22h-8v-15h-29v15h-8v-22h5zm13-37c0 12 0 25-5 37h18v-37h-13z" clip-rule="evenodd"/></svg>
