<svg xmlns="http://www.w3.org/2000/svg" viewBox="0 0 73 55"><g fill="#fff" fill-rule="evenodd"><path d="M72 34.4l-1.2 5.5c0 .3-.4.5-.7.5h-1a.7.7 0 01-.8-.8c.3-1.8-.6-3.3-3.4-3.3-4.4 0-7.5 3.8-7.5 8 0 4 2.9 7 8 7 1.9 0 3.7-.7 4.6-1 .2 0 .4.1.4.4l-.5 2.6c-.1.4-.4.7-.8.8-1.5.5-3.8.9-6.5.9-9.3 0-12.9-4.6-12.9-9.4C49.7 41 53 33 66 33c2.1 0 4.4.5 5.6.8a.5.5 0 01.4.6m-20.8-.2l-1.2 5a.7.7 0 01-.6.4h-1.9a.7.7 0 01-.6-.7c0-1.3-.4-2-2-2h-4.8l-1.3 5.6h6.8c.4 0 .7.4.6.8l-.6 2.7a.7.7 0 01-.6.5h-7.2l-.8 3.6c-.3 1.3.7 1.9 1.2 2 .2.1.3.3.2.5l-.3 1.6a.7.7 0 01-.7.5h-7.8a.7.7 0 01-.7-.8L32.5 38c.4-1.6-.7-2.1-1.3-2.3a.4.4 0 01-.3-.5l.3-1.4a.7.7 0 01.7-.6h18.6c.4 0 .8.4.7.9m-21.4 0l-.3 1a.7.7 0 01-.6.5 6 6 0 00-3 1.1L18.4 43l5.8 7.6c1.1 1.5 1.6 1.7 3.2 1.7.2 0 .3.2.3.4l-.4 1.6a.7.7 0 01-.7.5h-4.4c-5 0-6.4-2.1-10.6-9.5l-1.2 5.4c-.2 1 .8 1.4 1.3 1.5.2 0 .3.3.2.4l-.3 1.6a.7.7 0 01-.7.6H.7a.7.7 0 01-.7-.9l.3-1.2a.5.5 0 01.5-.4c1 0 2-.6 2.6-3.6l2.4-10.5c.3-1.6-.6-2.1-1.3-2.3a.4.4 0 01-.3-.5l.4-1.4a.7.7 0 01.7-.6H15c.4 0 .6.3.6.7l-.3 1.2a1 1 0 01-.6.6 2 2 0 00-1.4 1.4l-1.3 5.9 7.7-6.2c.5-.5.3-1-.3-1.2a.3.3 0 01-.3-.4l.3-1.4a.7.7 0 01.7-.6h8.9c.4 0 .8.4.7.9"/><path fill-rule="nonzero" d="M3 0h14v17H3zm28 0h14v17H31zm28 0h14v17H59z"/></g></svg>
