<svg xmlns="http://www.w3.org/2000/svg" viewBox="0 0 92.5 81.7"><path fill="#fff" d="M49.7 56.6a4.5 4.5 0 01-1 1 5.9 5.9 0 01-3 .8h-.6a8.2 8.2 0 01-2.4-.4 7.8 7.8 0 01-1-.4l-1-.5a8 8 0 002.3 1.4 7.8 7.8 0 002.9.6H47a14.2 14.2 0 002.8-.8c.5-.2 2-.9 2-1.6v-.1a.9.9 0 00-.8-.8H51a1.7 1.7 0 00-1.2.8zM33.4 64.3l.5 1a7.5 7.5 0 01.4 1 9.2 9.2 0 01.3 2.2v.2c0 2.8-2.2 3.5-2.2 4.4v.2a.7.7 0 00.7.7c1.2 0 2-3 2-4.4v-.4a8 8 0 00-.5-2.8 7.2 7.2 0 00-1.2-2zM39.9 50.4h.3c.5 0 .5-.4.6-.7h-1.6a1 1 0 00.7.7z"/><path fill="#fff" d="M39.6 52.5h-.3a3 3 0 01-1.7-1 8.4 8.4 0 01-.8-1.8h-.6c1.1 4.4 4.3 8.1 8.7 8.1h.1c2.5 0 4.4-1.3 4.4-3.7v-.2a3.2 3.2 0 00-3-3.2h-.2c-1.6 0-3 1-3 2.5v.3a2.8 2.8 0 00.6 1.8c0-.8.3-1.7 1.1-1.7h.3a1.1 1.1 0 011 1v.1c0 1-1.2 1.9-2.3 1.9h-.2a6.8 6.8 0 01-3.5-1.4 11.7 11.7 0 01-2.1-2.7 4.6 4.6 0 001.2.4h.6a2.3 2.3 0 002-2.4v-.1a1.8 1.8 0 000-.7h-1a1.2 1.2 0 01.5 1.1 1.7 1.7 0 01-1.8 1.7zM40.8 67.7h.4c.7 0 1.7-.5 1.7-1.2 0-1.2-1.5-1.6-2.4-1.8l-1.8-.4a11.1 11.1 0 01-1.5-.5 14.4 14.4 0 01-2.7-1.5c-.9-.6-1.6-1.5-2.2-2a36.5 36.5 0 003.6 4.3c1 1 3.3 3.1 4.9 3.1zM36.1 49.7zM17.6 49.7a7.8 7.8 0 004 1 5.5 5.5 0 01-3-1zM24 61.6a11.3 11.3 0 01-2.1 1.8 9.4 9.4 0 01-2.9 1 14.2 14.2 0 01-1.8.1c-.5.1-1.4 0-1.4.6 0 .1.2.3.4.3h.6a10 10 0 005.5-2c.8-.6 3.3-3 3.4-4l-.8 1.1a11.2 11.2 0 01-.9 1.1zM39.2 69l-1.7-1.6-1.6-1.7-1.5-1.7a21.5 21.5 0 00-1.5-1.8 22.7 22.7 0 002.2 3.3 36.7 36.7 0 002.7 3c1 .9 2 1.7 2.8 2.7.6.7 1.8 2.6 1.8 3.8v.7c0 1.7-2.7 2.7-2.7 4.6v.2a1 1 0 00.4.8c.3.3.6.2.8.4h.7c.4-.3.8-.2 1.2-.6a3.6 3.6 0 001-1 6 6 0 00.7-3v-.3c0-3.8-3.1-6-5.3-7.8z"/><path fill="#fff" d="M73.8 61.4h-.2a4 4 0 00-2.4.8 6.3 6.3 0 00-1.6 1.6l.1-1.4V62c0-5-3.5-9.2-8.5-9.2H61c-3.2 0-6 2.1-6 5.3a4.3 4.3 0 003.9 4.2h.7c1 0 2.4-1 2.4-1.8v-.1c0-.7-.4-1.3-1-1.3-.2 0-.4.1-.4.3a.3.3 0 00.3.3l.4-.2a.6.6 0 01.5.5v.4c0 .6-1.2 1.5-2 1.5h-.3c-.7 0-1.8-.6-1.8-1.3v-.3a7.8 7.8 0 011-1.8c.4-.6.2-1.8.3-2.6.2-1.5 1.5-2.3 3.2-2.3a9.8 9.8 0 013 .7 8 8 0 012.2 1.7 9.2 9.2 0 012 5.5v1.1a11.5 11.5 0 01-4.5 8.5 16.6 16.6 0 01-9.7 3.2H55a18 18 0 01-3.8-.5 20 20 0 01-3.2-1c.5 0 1.4.4 2 .4a16.2 16.2 0 002.2.2 17.9 17.9 0 012-.6l2-.6a25.8 25.8 0 003.5-1.5c1.5-.7 5-3 5-5.1V65a1.4 1.4 0 00-.2-.5.6.6 0 01.2.6v.4a5.8 5.8 0 01-1.6 2.8 11.3 11.3 0 01-2.5 1.9 31.4 31.4 0 01-2.9 1.4c-.6.3-3 .9-3.2 1.1l1.3-.3 2.6-.8a15.7 15.7 0 003.5-1.6c1.7-1 4-3.3 4-6v-.4a7.8 7.8 0 00-.4-1.5 3.4 3.4 0 01.4 1.8v.1c0 3.4-2.5 5.4-4.7 6.7a15.8 15.8 0 01-4.1 1.5l-1.2.2a7.6 7.6 0 01-1.3.3l-2 .5a22 22 0 009-2.1 8.6 8.6 0 003.2-2.5 7.1 7.1 0 001.5-4V64c0-1.6-1.3-3.7-2.7-3.7a1 1 0 00-1 .8.8.8 0 00.7.9c.5 0 .7-.5 1-.5h.2c.2 0 .6.4.6.7v.2c0 1-2.7 1.7-2.7 4l.1.7v.3c-.4 0-1.2-1-2.2-1h-.5a3.5 3.5 0 00-2.4 1.4L56 70.3a6 6 0 01-5 2.5h-.2c-1.1 0-4-.4-4.5-.9l1.6.3h.4c2.9 0 6.2-2.6 6.2-5.4a2.7 2.7 0 00-2.8-2.8 2.4 2.4 0 00-2.6 2.5 2 2 0 001.8 1.8h.7c-.2-.3-.8-.4-.8-1a.8.8 0 01.7-.8h.3c.5 0 1 .9 1 1.5v.4a3.7 3.7 0 01-1.7 2.4 6.5 6.5 0 01-3.1 1H47c-2 0-4.3-1.4-5.6-2.2l-2.3-1.6a23.3 23.3 0 00-2.3-1.7c.1.4 3.4 2.7 4 3a30.4 30.4 0 004.3 2.6 33 33 0 005 1.9 21 21 0 006 .9h.1c4.4 0 8.5-1.9 10.5-4.3a12.5 12.5 0 002.5-4.7 4.2 4.2 0 011.3-2.4 3.5 3.5 0 012.4-1.2h.4c.8 0 1.8.7 1.8 1.4 0 .4-.2.8-.6.8h-.3c-.3 0-.5-.5-.5-.7v-.3a.7.7 0 010-.3c-.3.1-.7.8-.7 1.2v.4a1.9 1.9 0 001.9 1.6 2 2 0 002-2v-.6c.1-1.3-1.7-2-3-2zm-17 10a20 20 0 002.2-1l2-1.4a8.2 8.2 0 00.8-.7l.8-1c-.3 1-2.7 2.6-3.5 3a26.6 26.6 0 01-4.5 2l2.3-.9zM27.9 54.7a13.8 13.8 0 01-1 1.5 12.8 12.8 0 01-2.2 2.6 10.9 10.9 0 01-3.1 1.7l-1.8.5c-.6.2-1.6.2-1.6.8a.4.4 0 00.4.4h.3a12.1 12.1 0 003.5-1.3 13.1 13.1 0 002.7-2 15.2 15.2 0 002-2.6 9 9 0 001.5-3.3 9.4 9.4 0 00-.4.9zM49 75l-4-1.8 3 2.8c.6.5 2.5 2.1 3.4 2.1h.4a.5.5 0 00.5-.5c0-1-2.5-2.3-3.3-2.6zM39.4 47.5zM48.3 31.5a15 15 0 00-3.2 3.4l-.2.2h1.7a13.8 13.8 0 011.7-3.6zM43.7 40.5a1.7 1.7 0 00-.6.4 2.5 2.5 0 00-.4.6l-.5.7-2.8 5.3h2.2l1-1.8h3.7l1.2 1.8h2l-3-5.3a14 14 0 00-.4-.7 2.4 2.4 0 00-.5-.6 1.7 1.7 0 00-.5-.3 1.6 1.6 0 00-.7-.2 2 2 0 00-.7.1zm1.6 3.4h-1.8l.9-1.5zM17.6 49.7zM50.7 36.9v7.3a2.9 2.9 0 00.3 1.3 3.8 3.8 0 00.8 1 4 4 0 001.1.8 3.5 3.5 0 001.3.2h12.3v-2.9H53.6V37zM39.5 33.8a7.9 7.9 0 00-1.1.6 8 8 0 01-1.3.6l-.4.1h1.5a8.3 8.3 0 001.3-1.3zM34.3 56.9h.3c.4 0 1-.7 1-1.2v-.5a32.4 32.4 0 00-1.9-3.1 12.2 12.2 0 01-.9-2.5h-2v.8a8.4 8.4 0 001 4.1c.3.8 1.4 2.4 2.5 2.4z"/><path fill="#fff" d="M30.2 51.1v1.6a12 12 0 002.2 6.1c.8 1.1 3 3.5 4.8 3.5a1.2 1.2 0 001-1V61c0-.5-.7-1-1.1-1.1l-1.9-.4a5.7 5.7 0 01-2.6-2 11.8 11.8 0 01-2.3-6.8.9.9 0 00-.1.4zM49.7 62.3a5.3 5.3 0 003.4-1.1 4.5 4.5 0 001.5-3c0-1-.6-2-1.4-2H53c-.3 0-.9.4-.9.7v.3a.6.6 0 00.7.6.6.6 0 00.5-.5l-.2.1h-.3l-.2-.3a.4.4 0 01.4-.4h.1a.9.9 0 01.8.9v.1a1.4 1.4 0 01-1 1.3 8.4 8.4 0 01-2.1 0h-.3c-.6 0-1.2.6-1.5 1a6.8 6.8 0 01-1.3 1 12 12 0 01-2.8-.6 13.5 13.5 0 01-2.3-1 15 15 0 01-3.7-3 16.2 16.2 0 01-2.6-4.2 19.6 19.6 0 01-.9-2.6h-.8a17.5 17.5 0 004.3 7.9 15.5 15.5 0 004.6 3.2 11.4 11.4 0 003 1 2.3 2.3 0 011.7 2.1 1.4 1.4 0 01-1.3 1.5c-.4 0-1-.1-1-.5h.1a.6.6 0 00.5-.6.8.8 0 00-.8-.8 1 1 0 00-1 1c0 1 1 1.4 1.9 1.4a2 2 0 001.9-1.9 2.7 2.7 0 00-.6-1.7l1.4.2zm-1.6-.8l.5-.3.5-.3c.4-.3.5-.5 1-.7 1.2-.8 1.4-.2 2.7-.2h.2a4.3 4.3 0 01-3.3 1.7h-.6zM57.7 52.5a6.5 6.5 0 004-1.5 7.5 7.5 0 001.2-1.3h-.8a4 4 0 01-.7 1 6.3 6.3 0 01-3.7 1.8zM50.6 49.7l.2.2a7.5 7.5 0 004.6 2.2h.4a5.7 5.7 0 004.7-2.4h-10zM31 40.8H29l3.1 5.5a5.8 5.8 0 00.4.6 3 3 0 00.5.6 2.2 2.2 0 00.6.3 2.3 2.3 0 00.7.2 1.9 1.9 0 00.6-.1 1.8 1.8 0 00.6-.3 3 3 0 00.4-.5 3.9 3.9 0 00.3-.6l3.1-5.7h-2.1l-3 5.3z"/><path fill="#fff" d="M32.6 62.8c0-1.2-1.6-3-2-4.3a13.4 13.4 0 01-1-5.1l.1-1.9A41.5 41.5 0 0029 58v.9a9.5 9.5 0 00.5 3.3c.3.8 1 1.9 2 1.9h.4c.5 0 .8-.6.8-1zM25.6 30.4h-.8c-.8 0-1.6.8-2 1.4a4.8 4.8 0 00-.7 2.6v.2a2.3 2.3 0 000 .5h1v-.5c0-.3.5-1 .8-1 .5 0 .2 1.5 1.8 1.5h.5a2.1 2.1 0 001.8-2.2v-.4a2.6 2.6 0 00-2.4-2.1zM14.3 22.7a2 2 0 011.6 1 7.4 7.4 0 011 4.2 14.3 14.3 0 00.5-3.3c0-1.9-1.5-4.1-3.2-4.1h-.3c-.5 0-1.3.5-1.3 1v.2c0 .5 1.1 1 1.7 1zM62.4 16.8a3.4 3.4 0 01-.2-1v-.6c0-.9 1-1.7 1-3 0-.7-.5-1.6-.5-2.2v-.2a1.4 1.4 0 011.2-1.3 1 1 0 011 .7.5.5 0 01-.5.4.4.4 0 01-.3-.3.8.8 0 010-.3.7.7 0 00-.3.5.6.6 0 00.7.6.8.8 0 00.7-.7v-.5c0-.3-.8-.9-1.2-.9h-.8a4 4 0 00-2 1.4 4.3 4.3 0 00-1 2.6v.4a6.5 6.5 0 002.2 4.4zM62 10c0 .8.5 1.2.5 1.7v.5c0 1.1-.7 1.9-.7 2.7A3.8 3.8 0 0161 13v-.7a4.1 4.1 0 01.9-2.3zM19.5 54.4c.6 0 1 0 1-.6v-.2a1 1 0 00-.9-.8 1.4 1.4 0 00-1.3 1.4c0 1.5 1.9 2.8 3.4 2.8h.9a6 6 0 004.6-2.6 8.4 8.4 0 001.7-4.7h-.5a3.9 3.9 0 01-.2.3 3 3 0 01-1.1.9c-.9.4-2.2.4-3 .9-1 .6-1 1.1-1.6 2.2a2.5 2.5 0 01-2 1.6 1.4 1.4 0 01-1.6-1.2v-.2c0-.4.2-.8.6-.8a.5.5 0 01.6.5c0 .3-.4.4-.6.5zm4-.3a3 3 0 011.1-1.2 7.3 7.3 0 011.6-.8 5.6 5.6 0 00.8-.3 4.7 4.7 0 00.7-.5 5.7 5.7 0 01-5 4.4 5.5 5.5 0 00.8-1.6zM10.8 49.7zM3.1 43a3 3 0 00.8 1 5.7 5.7 0 001.2.8l5 2.7h5.8l-9.6-5.2 9.7-5.4h-5.8l-5 2.8-.7.4a5 5 0 00-.5.4 2.6 2.6 0 00-.4.5 3.7 3.7 0 00-.4.5v-4.6H0v10.6h3.1zM15 49.7a4.1 4.1 0 001.3.2 7.2 7.2 0 00-.7-.2zM66.8 52.8v.2a1 1 0 001 1 .7.7 0 00.7-.7.7.7 0 00-.4-.6v.4a.4.4 0 01-.3.3.5.5 0 01-.4-.3v-.2a1 1 0 011-.8h.2a1.6 1.6 0 011.3 1.4v.3c0 1-.5 1.6-.5 2.6 0 1.6 1.6 2.3 1.6 4a5.2 5.2 0 01-.2 1.3c.4-.1 1.3-1.6 1.5-2a8.1 8.1 0 00.7-2.8v-.6a4.9 4.9 0 00-1.2-3.3 4.6 4.6 0 00-2.8-1.5h-.2c-1 0-2 .5-2 1.3zm4 1a5 5 0 011.3 3.2v.2a5 5 0 01-.7 2.4c0-1.3-1.1-2-1.1-3.7 0-.9.6-1.2.6-2.1z"/><path fill="#fff" d="M19.3 52c1.4 0 4.9-.5 5.3-1.1l-1.2.3-1.4.3a20.6 20.6 0 01-2.9.2 10.5 10.5 0 01-5.7-1.5l-.8-.5h-1.8a18 18 0 002 1 14.9 14.9 0 005.7 1.3zM10.9 27.9h.2c.4 0 1-.5 1-1v-.3a1 1 0 00-.5-.8c-.2 0-1 .2-1-.3s1-1 1.6-1h.7c1.7 0 2.4 3.3 2.4 5.1v.2a40.6 40.6 0 00.1 5.3h1.2a8.4 8.4 0 01-.1-1.3v-.2a8 8 0 011.4-4.5 7.2 7.2 0 011.5-1.5 10.5 10.5 0 011.8-1.2l2 .7a10.4 10.4 0 002.4.5h.4l2.9-.4a5.9 5.9 0 012.4 4.5v.2a6.5 6.5 0 01-.8 3.2h.7a5.2 5.2 0 00.7-2.2c.4.4.5.7 1.3 1a6 6 0 002 .2h.6a12.5 12.5 0 003.6-.8 12.2 12.2 0 001.5-.6l1.5-.7-1.7 1.4a18 18 0 00-1.5 1.5l-.3.3h.8l.8-.8c2.9-3 5.8-4.6 9.6-6.6l.7.1c-.3.3-1.7 1-2.2 1.3l-2.2 1.2a30 30 0 00-4 3l-2 1.8H44a20.5 20.5 0 012.5-3c1.4-1.5 6.4-5.4 9-5.4 1.2 0 1.8.7 2.4.8a10 10 0 00-3.1-3.2 10.5 10.5 0 00-4.8-1.7h-.5c-3 0-6.3 2.4-6.3 5.3v.2a2.8 2.8 0 00.4 1.4c.5.6.7.4 1 .8-.4 0-.8.3-1.3.5l-1.4.4a14.8 14.8 0 01-3.1.4h-1.4a6.8 6.8 0 01-3.1-.8 3.4 3.4 0 01-1.7-2.3v-.2c0-.4.6-.9 1-.9s.7.3.7.6c0 .6-.4.7-.6 1h.6a2.4 2.4 0 002.5 1.8h.4a5.5 5.5 0 004-2 7 7 0 001.4-4.4v-.3c0-1.2-.6-3.7-1.1-4.1 0 1.5-.2 2.1-1 3a14.2 14.2 0 00-1.9 1.8c-.6.9-.4 2-.5 3.3a2 2 0 01-1.8 2c-.6 0-1.3-.5-1.3-1v-.4a.6.6 0 01.5-.5.5.5 0 01.4.4c0 .4-.2.4-.3.6.3-.1.7-.4.7-.7v-.3c0-.3-.4-.6-.8-.6h-.3c0-1-.6-1.4-1.1-1.8a10.7 10.7 0 002.7-.9 9.1 9.1 0 002.3-1.4 5.5 5.5 0 001.5-2.1c.2-.5.7-2.4 1.1-2.5a7.1 7.1 0 00.4.8c0 .3.1.5.3.8s.1 1.5.7 1.5c.5 0 1.6-1.5 1.9-2a12.2 12.2 0 001.2-2.5c.7-1.6 1-4 1.6-5.9 1-3.1 4.5-6.6 8.5-6.6a3.4 3.4 0 012.1.7 7.1 7.1 0 011.3 1.6c.1 0 .2 0 .2-.2 0-.6-1-1.5-1.6-1.7a6 6 0 00-2.6-.7h-.1c-2.3 0-5.4 2-6.8 2.9A20.5 20.5 0 0046 9.9L45 11l-1.1 1.3c-1.5 1.5-2.7 3.8-4.1 5.5a9.2 9.2 0 01-2.6 2.3 8.2 8.2 0 01-3.6 1.2h-1a4.5 4.5 0 01-4.3-4.3c0-1.2 1-2.7 2.1-2.7.3 0 .8.4.8.7 0 .4-1.3.5-1.3 1.6v.4a2.1 2.1 0 001.8 1.7h.3a2.7 2.7 0 002.3-2.3V16a2.9 2.9 0 00-2.8-2.8H31a4 4 0 00-3.8 4v.1a5.2 5.2 0 005.2 5.2h.5l1.1-.2a5.9 5.9 0 01-2.3.5h-.6a6.6 6.6 0 01-4.8-2.8 3.4 3.4 0 00-.5-2.2c-.3-.4-1-1.3-1.3-1.4l-.2-1.4v-.4a5 5 0 011.5-3.3c.6-.7 2-1.8 3.1-1.8h.9A3 3 0 0132 11c.4.7.4 2.2 1.4 2.2h.2c.4 0 .7-.5.7-.8v-.6c0-1.6-2.2-3.2-4-3.2a6.8 6.8 0 00-6.7 6.4v.8a4.8 4.8 0 00-1.5-.5h-.9c-2.2 0-4.5 2.7-4.5 5.1a5.3 5.3 0 001.3 3.4 8.3 8.3 0 001.1 1.2l1.3 1a10.6 10.6 0 00-2 1.5 6.2 6.2 0 00-1 .9c-.2.3-.4.9-.8.9s-.4-1.6-.5-1.9a7 7 0 00-.7-1.6c-.4-.7-1.6-2-2.6-2h-.4a3 3 0 00-2.7 2.5c0 .6.6 1.6 1.2 1.6zM50.4 24a7.2 7.2 0 012.6.5 6.6 6.6 0 012 1.3l-.4-.1h-.1c-1 0-2.2.7-3.4.7h-.7c-1.5 0-2.4-1.5-3.4-1.6.3-.4 2.5-.8 3.4-.8zm-6.6 4.2v-.1a2.2 2.2 0 012.2-2c1.4 0 2.6 1.2 3.7 1.5l-3.4 1.7.1-.4c0-.4-.4-.9-.9-.9a1 1 0 00-.8.4.7.7 0 01.3 0h.2c.2 0 .4.2.4.5a.7.7 0 01-.6.6c-.6 0-1.1-.8-1.1-1.3zm-4.7-1.5a4.6 4.6 0 011-2.1c.4-.5 1.3-1.3 1.4-1.9h.1l.1 1.2v.5a5.5 5.5 0 01-.9 2.7 6.3 6.3 0 01-1.7 1.8.6.6 0 000-.3v-.5zm-15.5-1.2H24.5a6.5 6.5 0 012.7.6c-1 0-3.1-.2-3.6-.6zm7 2.4l-1-1 1.6-.5a2.8 2.8 0 00-.6 1.5zm-10-5.9a1.8 1.8 0 011.6-2h.3a1.6 1.6 0 011.5 1.7 3.1 3.1 0 01-.7 1.8 4 4 0 001.4-.8l1-1a16.6 16.6 0 013 1 9 9 0 003.3.5h.4a3 3 0 00.9-.2c0 1.2-1.4 1.7-2.7 1.8l.6.4-2.7.8a8 8 0 00-4.1-1.2h-.2l-1.7.2c-.2 0-1-.8-1.2-1a3.2 3.2 0 01-.7-1.7zM79.5 40.5v5.3l-5-4.8a2.3 2.3 0 00-1.7-.7 1.8 1.8 0 00-.7.1 2 2 0 00-.6.4 1.6 1.6 0 00-.4.5 1.3 1.3 0 00-.1.7v5.5h1.9v-5.3L78 47l.4.3a4 4 0 00.4.2 1.6 1.6 0 00.4.2h.4a1.8 1.8 0 00.8-.2 1.6 1.6 0 00.6-.4 1.8 1.8 0 00.3-.6 2.2 2.2 0 00.2-.8v-5.2zM82.4 47.5zM84.6 47.5l1-1.8h3.7l1.2 1.8h2l-3-5.3a14 14 0 00-.4-.7 2.4 2.4 0 00-.5-.6 1.7 1.7 0 00-.5-.3 1.6 1.6 0 00-.7-.2 2 2 0 00-.7.1 1.7 1.7 0 00-.6.4 2.5 2.5 0 00-.4.6l-.4.7-2.9 5.3zm2.8-5.1l1 1.5h-1.9zM22.1 49.7a9.6 9.6 0 001.2 0H21a4.4 4.4 0 00.8 0zM69.9 40.4h-2.1v7.1h2.1v-7.1z"/><path fill="#fff" d="M49.5 14c0 3.6 4.8 6.6 7.5 7.7l2.6 1.1 3 1a28 28 0 006.3 1h.3a14.8 14.8 0 004.6-.7c.8-.3 2.8-1.5 3-2.3a8.8 8.8 0 01-2.5 1.5 11 11 0 01-3.3.6h-.9a21.2 21.2 0 01-10.3-3.3 17.9 17.9 0 01-3.6-3.1 8.3 8.3 0 01-2.1-4.7v-.3c0-1.4.5-3.6 1.8-3.6h.3a1.4 1.4 0 011.3 1.2v.2c0 .6-1.2 1-1.9 1a2.8 2.8 0 001.5.6h.6c1 0 2-1.3 2-2.4v-.7a3.6 3.6 0 00-3.5-3.3h-.6A5 5 0 0053 6.7a4 4 0 00-1.3 2.5v.8a3.4 3.4 0 00.3 1 2.9 2.9 0 00-2.5 3zM48.1 16.9h-.5a1.4 1.4 0 00-1.1 1.2v.2c0 1 1.4 2.1 2 2.5a16 16 0 003 1.5 22.7 22.7 0 007.5 1.5l-1.7-.6-1.5-.7a20 20 0 01-2.9-1.6 10.3 10.3 0 01-2.3-2c-.5-.5-1.7-2-2.5-2z"/><path fill="#fff" d="M57.8 12.8a1.2 1.2 0 00-1 1.2v.3c0 2.6 3.5 5 5.2 6 2 1.2 5.2 3 8.3 3h.8l1.8-.1H71a13 13 0 01-4.8-1.2 10 10 0 01-3.3-2.6 16.4 16.4 0 01-2.3-3.6c-.5-1.2-1.3-3-3-3zM71.9 18.1a1 1 0 00-.8.9 1 1 0 001 1h.3c1.8 0 4-1.7 5-2.7a8.8 8.8 0 001.5-2.2 8.2 8.2 0 00.9-2.7l-.4 1a9.4 9.4 0 01-.4 1 9.6 9.6 0 01-1.3 1.6c-.8.8-2 2-3.6 2h-.7a4.7 4.7 0 00-1.5.1zM19 40.7a3 3 0 00-1 .4 2 2 0 00-.5.6 1.6 1.6 0 00-.2.9v2.7a2 2 0 00.2.9 2 2 0 00.5.7 2.4 2.4 0 00.8.5 2.7 2.7 0 001 .1h5.7a2.3 2.3 0 001-.1 2.4 2.4 0 00.7-.5 2.3 2.3 0 00.5-.7 1.8 1.8 0 00.2-.8v-2.6a1.9 1.9 0 00-.2-.9 2.4 2.4 0 00-.6-.7 2.6 2.6 0 00-.7-.5 2.2 2.2 0 00-1-.2H20a3.3 3.3 0 00-1 .2zm7 1.6v3.5h-6.7v-3.5z"/><path fill="#fff" d="M69.9 9.3h.2a8.2 8.2 0 004.6-1.6c.6-.5 2.7-2.4 2.9-3.2a10 10 0 011 1.6 5.5 5.5 0 01.6 2.1V9a3.5 3.5 0 01-.9 2.1 3.6 3.6 0 01-1.9 1H76a1.9 1.9 0 01-1.8-1.6.7.7 0 01.5-.5c.4 0 .2 1 1.3 1a1.5 1.5 0 001.4-1.4A2 2 0 0075.5 8a2.1 2.1 0 00-2.2 1.9v.8a3.2 3.2 0 001 1.5 2.5 2.5 0 001.7.8h.6A3.6 3.6 0 0080 9.5a7.3 7.3 0 01.3 2.3v.1a10.4 10.4 0 01-2.6 6.6 7.8 7.8 0 01-6.2 3 8.3 8.3 0 01-4.5-1.6 5 5 0 01-2-4 1.7 1.7 0 011.7-1.8c.5 0 .6.6.6 1.1a2 2 0 00.3 1.4 2.7 2.7 0 002.3 1.2 3.5 3.5 0 003.5-3.4 4.6 4.6 0 00-4.5-4.7h-.4c-2.8 0-5 2.7-5 5.4v.7a6.8 6.8 0 002.2 4.9 8 8 0 005.2 2h.9a9.4 9.4 0 006.7-3.4 12 12 0 001.9-3.1 11.3 11.3 0 00.8-4.2v-.4a14.3 14.3 0 00-.4-2.8c0-.5-.2-.8-.3-1.3L80 6.4A7.5 7.5 0 0182 11v1.3a16.5 16.5 0 01-3.7 9.2 14.8 14.8 0 01-3.4 3 9.5 9.5 0 01-5 1.5c-3.5 0-6-1.8-9.4-1.8h-1c-.8 0-2.9.3-2.9 1 0 .3 1 1 1.2 1.2s1.3 1.4.8 1.4H58l-2.5-.2a9.2 9.2 0 00-5 1.7A7 7 0 0049 31a4.5 4.5 0 00-.8 2.4l.2 1.2c.3-.1.9-1.6 2-1.7-.2.6-.7 1.3-1 1.8l-.3.4h1.3a5 5 0 011-1.3 8.9 8.9 0 013-2.2c-.2.3-.9.7-1 1a8.3 8.3 0 00-1 1.2 7.7 7.7 0 00-.5 1.3h.8c.4-2.2 2.7-4 4.4-4.6a21.2 21.2 0 014-.8l2.2-.2 2.2-.3a4.8 4.8 0 00-1 3v.4a2.4 2.4 0 002.2 2.5h.2a2 2 0 002-1.8V33a1.7 1.7 0 00-1.6-1.8 1.7 1.7 0 00-1.3.5c.7 0 1.2 0 1.2.7a.7.7 0 01-.6.7h-.1a1.4 1.4 0 01-1.2-1.4v-.1a4.4 4.4 0 01.5-1.8c.5-.6.5-.7 1.4-.9a33.8 33.8 0 003.4-1 21.9 21.9 0 005.8-3.3 17.6 17.6 0 004.2-4.8 15.3 15.3 0 001.5-3 14.2 14.2 0 00.8-3.8v-1.6a10.8 10.8 0 00-1.4-5c-.4-.8-2.3-3.4-3-3.5a10.3 10.3 0 00.8-2.9c-.3.2-.7 1-1.1 1.3a4 4 0 01-1.6.8 6.5 6.5 0 01-2 .3 6.6 6.6 0 00-2.2.3A5 5 0 0070 4.9c-.6.7-1.5 2-2.8 2h-.3a2 2 0 01-2-2c0-.5.4-1.3 1-1.3.2 0 .6.3.6.5v.3c0 .3-.4.5-.8.5a1 1 0 00.6.2c.5 0 1-.4 1-.8V4a1.3 1.3 0 00-1.1-1h-.2a2 2 0 00-1.9 2V5c0 2.5 3.2 4.3 5.9 4.3zm2.6-5a8.8 8.8 0 012.3-.6 4.9 4.9 0 002.4-.7A7.3 7.3 0 0176 4.9a7.8 7.8 0 01-1.6 1.4 7.8 7.8 0 01-4.9 1.2c1.4-1.2 1-2.2 3-3.1z"/></svg>
