<svg xmlns="http://www.w3.org/2000/svg" viewBox="0 0 119.09 28.35"><title>moon</title><path d="M101.34,4.25C99.85,2.71,97.11,0,95,0V28.35h6.37V12.4l11.35,11.69c1.59,1.64,4,4.25,6.37,4.26V0h-6.37V16Zm-87.17,22L6.38,14.94V28.35H0V0C3,0,5.13,3.28,6.38,5l7.79,11.29L22,5c1.12-1.55,3.32-5,6.37-5V28.35H22V14.94L14.2,26.22ZM46.07,5.67c-4.79,0-7.09,4.55-7.09,8.5s2.3,8.51,7.09,8.51,7.08-4.55,7.08-8.51S50.85,5.67,46.07,5.67ZM32.6,14.17C32.6,6.14,38.22,0,46.07,0S59.53,6.14,59.53,14.17,53.91,28.35,46.07,28.35,32.6,22.21,32.6,14.17Zm44.65-8.5c-4.79,0-7.09,4.55-7.09,8.5s2.3,8.51,7.09,8.51,7.09-4.55,7.09-8.51S82,5.67,77.25,5.67Zm-13.47,8.5C63.78,6.14,69.4,0,77.25,0S90.72,6.14,90.72,14.17,85.1,28.35,77.25,28.35,63.78,22.21,63.78,14.17Z" fill="#fff"/></svg>