<svg xmlns="http://www.w3.org/2000/svg" viewBox="0 0 135.4 87"><g fill="#fff"><path d="M70.4 50.3h1.4l-.9-14.4z"/><path d="M0 24v39h115.4V24H0zm28.6 32.1h-5.4V38.4L20 56.1h-4.3l-3.1-17.7v17.7h-5V30.9h8.1l2.5 13.4 2.4-13.4h8.1v25.2zm12.7-24.4c-.2.1-.3.1-.3.2v21.3c-.1 1.1-.4 2.1-1.5 2.6-1 .5-2.1.5-3.1-.1-1.1-.7-1.3-1.9-1.3-3.1V31.9c0-.1-.2-.2-.3-.2-.1-.1-.3-.2-.2-.4 0-.1.2-.2.3-.2h2.9c.1 0 .2.1.3.2.1.2-.1.3-.2.4-.2.1-.3.1-.3.2v21.5c0 .2 0 .5.2.7.2.2.4.4.7.4.3 0 .5-.2.7-.4.1-.2.2-.5.2-.7V31.9c0-.1-.2-.2-.3-.2s-.3-.2-.2-.4c0-.1.2-.2.3-.2h2.3c.1 0 .2.1.3.2-.2.2-.3.3-.5.4zm10.8 22.2c-.5 1.7-1.5 2.4-2.9 2.4-1.1 0-2.1-.5-2.6-1.4-.7-1.1-.7-3.3-.6-5.1 0-.1 0-.1.1-.2.4-.4 2.2-2.3 2.3-2.4.1-.1.3 0 .3.2s-.2.6-.4 1.6c-.2 1.1-.1 4.1.2 5.1.3.8.9.6 1.1.2.4-.7.3-1.7.3-2.5-.1-1.9-.1-3.9-.8-5.5-1-2.4-2.7-4.6-3.1-7.2-.3-2.1-.4-4.3.2-6.3.3-1.1 1.2-1.8 2.3-1.8 1-.1 2 .4 2.6 1.1.8 1 .9 3.3.9 5.1 0 .1 0 .1-.1.2s-1.9 2.1-2.2 2.3c-.1.1-.4-.1-.3-.2.2-.5.3-1 .3-1.5.2-1.6.1-3.2-.2-4.7-.1-.5-.2-.7-.5-.8-.3 0-.5.1-.6.4-.2.8-.3 1.5-.3 2.3 0 1.7-.1 3.3.6 4.9 1.1 2.4 2.6 4.7 3.2 7.2.5 2.1.7 4.8.2 6.6zm11.8-14.4c-.1.1-.3 0-.4-.1-.5-2.1-1-4.5-1.5-6.2 0-.2-.2-.3-.3-.4h-.3v22.5c0 .1.2.2.5.2.2 0 .3.2.2.3 0 .1-.1.2-.2.2h-3.3c-.1 0-.2-.1-.2-.2-.1-.2 0-.2.2-.3.2-.1.5-.1.5-.2V32.8c-.1-.1-.2-.1-.3 0-.2.1-.3.2-.3.4-.5 1.7-1.1 4.1-1.5 6.2-.1.1-.2.2-.4.1-.1 0-.1-.1-.1-.1l.3-8.1h3.5c1.1 0 3.3 0 3.6.1l.3 8.1c-.2-.1-.2-.1-.3 0zm10.6 16.6h-2.8s-.2 0-.2-.1c-.2-.4.5-.3.5-.6l-.2-3.4h-1.6l-.1 3.4c0 .3.7.2.5.6 0 .1-.2.1-.2.1H68c-.1 0-.2-.2-.2-.3 0-.3.5-.2.5-.5l1.9-24.2H72l2.3 24.1c0 .3.5.2.5.5s-.1.4-.3.4zm12.1-24.4c-.2.1-.3.1-.3.2v24.2h-1.5l-4-18.9.7 18.2c0 .2.8.2.6.6 0 .1-.2.1-.2.1h-2.7c-.1 0-.2-.1-.3-.2-.1-.2.1-.3.2-.4.2-.1.3-.1.3-.2V32.1c0-.2-.1-.2-.3-.3-.2 0-.3-.2-.2-.3.1-.2.3-.2.3-.2h2.2L85 47.6l-.8-15.7c0-.2-.8-.2-.6-.6 0-.1.2-.1.2-.1h2.7c.1 0 .2.1.3.2.1.2 0 .3-.2.3zm21 24.4h-5v-2c-1 1.9-3.3 2.4-5 2.2-1.9-.2-3.5-1.4-4.3-3.1-1.5-3.2-1.2-6.8-1.2-10.2 0-3.5.4-7.4 2.6-10 2-2.5 6-2.7 8.4-2.1 1.3.3 2.5 1 3.3 2.1 1.2 1.6 1.4 4 1.3 6.3v1h-5.4v-.7c0-2.2.1-4.1-1.3-4.6-.6-.2-1.2 0-1.5.5-.4.4-.6.8-.6 1.4-.3 3.3-.4 9.3 0 13 .1.6.4 1.2 1 1.5.6.3 1.2.2 1.8 0 1.1-.5 1.1-1.8 1.2-2.9V46h-2.5v-3.5h7.5v13.6zM109 32c-1.4 0-2.6-1.1-2.6-2.6 0-1.4 1.2-2.6 2.6-2.6 1.5 0 2.6 1.2 2.6 2.6 0 1.5-1.2 2.6-2.6 2.6z"/><path d="M111.1 29.4c0-1.1-.9-2.1-2.1-2.1s-2.1.9-2.1 2.1.9 2.1 2.1 2.1 2.1-.9 2.1-2.1zm-1.5 1.4l-.3-.9c-.1-.2-.2-.3-.4-.3h-.2v1.2h-.6V28h.6c.6 0 1.3 0 1.3.8 0 .4-.2.6-.6.7.2 0 .2.2.3.3l.5 1.1h-.6z"/><path d="M108.8 28.4h-.2v.8h.2c.3 0 .6-.1.6-.4s-.3-.4-.6-.4z"/></g></svg>
