<svg xmlns="http://www.w3.org/2000/svg" viewBox="0 0 273.6 82.1"><path fill="#fff" d="M91 62.6a4.5 4.5 0 11-4.5-4.5 4.4 4.4 0 014.5 4.5M145 8c4 2.3-10.8 25.3-34.3 37.5-1.7 7.3.2 12.2 1.8 12 4.9-1.5 2.8-13.7 2.8-13.7l9.5-4.6c3.6 11-2.2 27.4-13.3 27.8-14-.5-13.1-16.5-13.1-16.5L90 53.1l2.4-6.4 6.5-1.7c9.5-32.3 39.4-40.7 46.1-37m-32 31.1c5.5-1.1 27.1-24.1 22.6-23.7-9 2.2-24.4 22.7-22.7 23.8m17.5-1.7V42s6-4 6.5-3.2c.2 2-7.4 19.5-7.6 22.2-.1 1.2.5 6 4.5 6a10 10 0 004.5-1.2c5.9-3.2 12.2-9.4 12.2-9.4s-1.5 3.9-.9 7 4 4.4 7.5 3 8-4.3 9.7-6.4l-1.3-3.8s-3.1 3-3.9 2.6 9.2-29.5 9.2-29.5h-11c-1.6 7.4-11 26.7-17.4 27.6-2.1-.2 7.7-22.2 8-24.7.8-3.3-1.6-4.8-4.5-4-3 1-15.5 9.2-15.5 9.2m66.5-8h10.4L190.5 82H180s5.9-20.3 7.1-21.9c-8.3 10.5-15.7 6.4-17-2.3a26.5 26.5 0 0111.6-26.2c8.6-5.4 12.7-1.3 14 .7l1.2-3m-4.3 10.1c.1-4.4-3-4.3-5.4-1.6-1 1.1-6 8.8-5.8 14.9.3 5.2 2.6 3.8 4 3 3.5-2.4 7-11.2 7.2-16.3M36.1 67c9.3 0 20.6-26.9 25.6-37 .9-2 1.5-3.4 2-3.5 1.7 1.9-14.6 30.8-5.5 38.6a6.9 6.9 0 003.2 1.8c8.7 1.7 14.8-9.3 20-15.1L78.8 49c-1.7 2-3.8 7-5.2 4.4C70.6 48.8 88.3 0 88.3 0H71.7C70 2.9 51.5 44.8 48 45.4c-.6.2-.9-.3-.9-1A235 235 0 0158.3 0H41.7a298 298 0 01-18.4 44.8c-4.3 8.1-10.7 13.3-6 .6H2C-.8 53.2-2 66 7.3 67H8c10.3 0 21.5-26.3 22.7-27.5-.9 9-5 19.8.3 25.3A7.5 7.5 0 0036 67m181.3-9.4c3.7 5.3 14.3-4.8 14.3-4.8l2.4 3.8s-8.3 10.6-17.9 10.4c-4.5 0-6-1.4-8.9-3.7l-4.4 2.7-1.8-5 3.8-2.1C202.1 34 227 25 236 30c6.2 3.7 1.4 17-18.5 27.4m-.6-4.5c10.7-8.5 15.3-16.5 13-18s-7 2.3-9.8 7.4-3.7 9.8-3.3 10.6m22.2 7.7c.7 1.5 3.3 6.2 9 6.3 2.5.1 5.1-.7 9.1-3 13.5-7.3 16.8-25.6 16.6-29.1 0-7.4-5.3-6.4-6.1-6.1A34.2 34.2 0 00254 40.2l3.1 3.1s3-5.6 5.8-5.6-1.6 11-2.4 12.6c-3.7 8.3-10.5 11.9-12.4 4.5-2.3-12 14-24.9 14-24.9H251s-18.6 14.5-12.1 30.8"/></svg>
