<svg xmlns="http://www.w3.org/2000/svg" viewBox="0 0 644.9 265.4"><g fill="#FFF" fill-rule="evenodd" clip-rule="evenodd"><path d="M440.5 85.6h2.8V75c0-1.3 1.3-4.4 4.6-4.4 2.6 0 3.3 1.6 3.3 3.8v11.3h2.8V75c0-2.7 1.8-4.4 4.5-4.4 2.8 0 3.3 1.7 3.3 3.8v11.3h2.9V73c0-3.6-2.3-5-5.8-5a6.4 6.4 0 0 0-5.4 3c-.7-2.2-2.6-3-4.7-3-2.4 0-4.3 1-5.6 3v-2.6h-2.7v17.2zM484 68.4h-3l-4.7 14.3h-.1l-4.8-14.3h-3.2l6.4 17.2h3.1zm3.7 17.2h2.8V68.4h-2.8v17.2zm2.8-23.8h-2.8v3.5h2.8v-3.5zm20.8 0h-2.8v8.9h-.1c-1.3-2-3.8-2.7-5.6-2.7-5.2 0-7.8 4-7.8 9 0 4.8 2.6 9 7.9 9 2.4 0 4.6-.8 5.5-2.7v2.3h2.9V61.8zM498 77.1c0-3.3 1.3-6.6 5.1-6.6 4 0 5.5 3.1 5.5 6.5 0 3.2-1.5 6.5-5.3 6.5-3.7 0-5.3-3.1-5.3-6.4zm30.5 3c-.5 2.3-2.1 3.4-4.4 3.4-3.8 0-5.5-2.7-5.4-5.7h12.9c.2-4.1-1.7-9.8-7.8-9.8-4.7 0-8.1 3.8-8.1 9 .2 5.2 2.8 9 8.3 9 3.8 0 6.6-2 7.3-5.9h-2.8zm-9.8-4.8c.2-2.6 2-4.8 5-4.8a5 5 0 0 1 4.9 4.8h-10zm17.2 1.7c0 5 2.9 9 8.3 9 5.5 0 8.4-4 8.4-9s-2.9-9-8.4-9c-5.4 0-8.3 4-8.3 9zm3 0c0-4.2 2.4-6.5 5.3-6.5 3 0 5.4 2.3 5.4 6.5s-2.4 6.5-5.4 6.5c-3 0-5.3-2.3-5.3-6.5zm18.6 4.9h3.7v3.7h-3.7zm9.5 3.7h2.9V78c0-4.3 1.6-7 6.2-7v-3c-3 0-5 1.3-6.3 4.1h-.1v-3.6H567v17.2zm27.5-17.2h-2.9V78c0 3.1-1.6 5.4-5 5.4-2.2 0-3.6-1.4-3.6-3.5V68.4h-2.8v11.3c0 3.7 1.4 6.3 6 6.3a6 6 0 0 0 5.5-3.1v2.7h2.8V68.4zM239.3 61.4h1.6l2.6 4h1.5l-2.6-4c1.4-.2 2.4-1 2.4-2.6 0-1.8-1.1-2.7-3.3-2.7h-3.6v9.3h1.4v-4zm0-4h2c1 0 2 .1 2 1.3 0 1.4-1 1.5-2.3 1.5h-1.7v-2.9z"/><path d="M241 69c4.4 0 8.3-3.6 8.3-8.2a8 8 0 0 0-8.3-8c-4.5 0-8.4 3.3-8.4 8 0 4.6 4 8.2 8.4 8.2zm0-15c3.8 0 6.6 3 6.6 6.8 0 3.9-2.8 6.7-6.6 6.7a6.6 6.6 0 0 1-6.7-6.7c0-3.8 3-6.7 6.7-6.7zm-10.1 125a8.9 8.9 0 1 1-17.8 0 8.9 8.9 0 0 1 17.8 0zM341.1 71c-13-7.3-71.4 9.2-90.1 72.3l-12.8 3.4-4.6 12.4 16.4-5s-1.8 30.2 25.7 31.1c21.6-.8 32.9-31.5 26-53.1l-18.6 9s4 23.7-5.6 26.6c-3.1.4-6.8-9-3.4-23.3 45.9-23.9 75-68.9 67-73.4zm-18.3 14.4c8.8-.8-33.5 44.3-44.3 46.5-3.5-2 26.8-42.2 44.3-46.5z"/><path d="M315.9 128.6v8.9s11.7-7.6 12.6-6.2c.3 4-14.5 37.8-14.8 43-.3 3 2.6 14.8 16.3 8.6 6.7-2.9 24.7-17.6 24.7-17.6s-2.9 7.5-1.7 13.5c1.3 6 8.7 7.6 15.4 5.1a48 48 0 0 0 17.8-11.6l-2.4-7.3s-6 5.7-7.6 5c-1.4-.8 17.2-55.3 17.2-55.3l-21-.8c-3.2 14.4-21 50.7-33.3 52.3-4.2-.3 15-43 15.6-47.7 1.4-6.3-3.3-9.2-8.9-8-5.9 2-29.9 18-29.9 18zM447 113.3l-2.7 6.7c-2.4-4.1-10.8-12.3-28-1.5A53.2 53.2 0 0 0 393 171c2.7 17.4 21.5 19.5 34.3 4.7a14313 14313 0 0 0-14.9 45.3l21 .1 34.3-107.4-20.7-.5zm-23 52c-3 1.6-7.5 4.3-8.2-6.1-.3-12.3 9.6-26 11.5-28.2 5-5.6 11-5.7 11 3.2-.7 10.2-7.3 26.3-14.3 31zm-313.6 18.5c-10.5-11-2.3-31.4-.6-49.5-2.3 2.3-25.6 56.5-46.6 54.2-18.7-5.8-16.3-26.8-10.5-42.5H83c-9.3 25.6 3.5 15.1 12.2-1.2 17.5-35.6 18.7-38.5 38-92h33.1c-9.9 30.2-19.2 60-23.3 91.4 0 1.2.6 2.3 1.8 1.8 7-1.2 45.4-87.5 49-93.3h32c0 3-35.6 100.2-29.7 109.6 2.9 5.2 7-4.7 10.4-8.8l5.3 5.3c-10.5 11.6-22.7 32.6-40.2 29.1-2.3-.6-4.7-1.7-6.4-3.5-18.1-15.7 14.5-72.6 11-76.3-1 0-2.1 3-4 7-10 20.4-32.7 74-51.3 74-3 0-8.8-3-10.5-5.3zm377.6-16c38.8-20.4 48.2-46.3 36.2-53.5-17.7-9.9-66 7.8-60.6 56.2l-7.5 4.2 3.6 9.6 9-5.5c24.7 20 51.8-12.9 51.8-12.9l-4.8-7.3s-20.5 19.8-27.7 9.3zm5.1-29.6c5.6-9.9 14.6-17.5 19-14.5 4.4 3.1-4.5 18.7-25.4 35.2-.8-1.4.8-10.8 6.4-20.7z"/><path d="M551.6 115l22.5-.6s-31.6 25-27 48.5c3.7 14.3 17 7.4 24.4-8.9 1.4-3.2 10.3-24.8 4.7-24.8-5.6 0-11.4 11.1-11.4 11.1l-6.1-6.1s12.4-17.7 26.5-22.5c1.7-.5 11.9-2.6 12 12 .4 6.8-7 44.2-32.5 57.3-23.4 12-33.7-2.4-35.6-6.7-12.9-31.9 22.5-59.2 22.5-59.2z"/></g></svg>
