<svg xmlns="http://www.w3.org/2000/svg" viewBox="0 0 265.1 88.7"><path fill="#fff" d="M0 26.6V5.1C0 1 .3.8 4.6.6 15.2.3 15.2.3 20.7 9.2l5 8c1.6 2.3 1.9 2.3 3.3 0 2.9-4.5 5.8-9 8.5-13.5A5.6 5.6 0 0143 .6h8c3.6.2 4 .6 4 4.3 0 3.3-.4 6.6-.4 10v31.9c0 5 0 5-5 5h-6c-2.7.1-3.5-1.1-3.5-3.6.2-7 .2-14 .2-21a4.7 4.7 0 00-.6-1.5 7 7 0 00-1 1l-6 9.2c-3.4 5.4-7.6 5.4-10.9.1l-5.8-9.3a6.2 6.2 0 00-1.4-1.2 12.2 12.2 0 00-.3 2v19.4c0 4.8 0 4.9-4.6 4.8-11.4 0-9.6 1.7-9.8-9.6V26.6zM117 26.1V4.3c0-2.1.6-3.6 3-3.5 8.9.1 17.7.2 26.5.5 8.2.3 17.2 10.6 11.9 22-1 2.3-1.4 4-.2 6.3A15.3 15.3 0 01144.6 52c-7.8.2-15.6 0-23.4 0-4 0-4 0-4.1-4.3V26.2zm20.4-5.7h3.5a6.5 6.5 0 001 0c2.5-.4 4-1.8 3.8-3.8-.2-2.3-1.7-3.5-4-3.6h-8.3a2.4 2.4 0 00-1.7 1.3c-1.4 4 0 6 4.3 6.1zm.8 19.9a27.4 27.4 0 003.8-.2c2.5-.4 4-2 3.7-3.9a3.6 3.6 0 00-3.7-3.4 102 102 0 00-8.3 0c-.7 0-2 .6-2 1a17.1 17.1 0 00.3 5.7c.2.6 2.4.5 3.6.7h2.6zM191.6 52.9c-14.4 0-26.6-12-26.3-26.4.3-15.6 12-26.5 26.3-26.5a26.2 26.2 0 0126.7 26.4A26.4 26.4 0 01191.6 53zm-.2-13.6c7.1.2 13.5-5.6 13.4-12.6-.1-7.7-5.7-13.1-12.8-13.1-7.3 0-12.7 5-12.9 12.3-.2 7.6 5 13.3 12.3 13.4zM59.3 88.7A75.1 75.1 0 018.2 70.2c-3.3-2.9-3.2-3-.2-6 2.3-2.3 4.7-4.4 7-6.5l7.1 5.1a58 58 0 0070.5-2c4.5-3.7 3.4-4.3 8 .5 1.4 1.3 2.7 2.6 3.9 4 2.2 2.3 2.2 2.5-.2 4.7a67.7 67.7 0 01-28.1 15.5c-6.6 1.8-13.4 2.5-16.9 3.2zM256.5 51.7c-5 1.6-8.2-1.5-10.4-6.4-.7-1.5-1.8-2.8-2.6-4.2-1.1-2-2-1.3-2.8.1-1.6 2.6-3.4 5-4.8 7.6a5 5 0 01-5.3 3c-2.4-.2-5 0-7.4 0-4.6-.1-4.8-.4-2.3-4.5 3.4-5.5 6.7-11.1 10.5-16.4 2.2-3.1 2.5-5.5.1-8.8-4-5.6-7.6-11.6-11.3-17.6-1.7-2.6-1.3-3.3 1.8-3.7a18.8 18.8 0 012 0c9.6-.3 9.6-.3 14.6 7.7 3.5 5.6 3.5 5.6 7 0 5-8 5-8 14.6-7.8a19 19 0 012.5.2c2.7.3 3 1 1.4 3.5-3.7 5.9-7.4 11.8-11.3 17.6-2.1 3-2.6 5.5-.1 8.8 4.2 5.8 7.8 12 11.5 18.1 1.3 2 1 2.6-1.4 2.7-1.8.2-3.7 0-6.3 0zM76.9 41.4c1.3-6.2-1.2-11.2-4.7-16.2-4.5-6.5-8.6-13.4-12.8-20.2C57.3 1.6 57.8.9 61.8.7 72.2.2 72.2.2 78 9.2l5.4 8.4c1.1 2 1.7 1.3 2.6-.1 2.8-4.5 5.8-9 8.4-13.5A5.8 5.8 0 0199.9.7h8c3.5.3 3.9 1 2 3.9-5 7.8-9.8 15.7-15 23.5a14.5 14.5 0 00-2.6 9.3c.2 3.6 0 7.3 0 11 .1 2.6-1 3.6-3.5 3.5-3.2-.2-6.3 0-9.5 0a2.1 2.1 0 01-2.4-2.4v-8z"/></svg>
