<svg xmlns="http://www.w3.org/2000/svg" viewBox="0 0 247 115.3"><path fill="#fff" d="M17.5 51.4a17.5 17.5 0 110 35 17.5 17.5 0 010-35zM26 68.9c0-7.6-3.4-12.7-8.5-12.7S9 61.3 9 68.9s3.4 12.7 8.5 12.7S26 76.5 26 68.9zm157.7-17.2l.3.5v3.4c0 .6-.5 1-1.1 1h-9.3v28.8c0 .1 0 .4-.3.7-.3.3-.7.3-.7.3h-7.2a1 1 0 01-1-1V82 56.6H155l-.7-.3a1 1 0 01-.3-.7v-3.2c0-.6.5-1 1.1-1h28l.6.3zm29 34.4c-.3.3-.7.3-.7.3h-22a1 1 0 01-1-1v-33l.3-.7c.3-.3.7-.3.7-.3h22s.4 0 .7.3c.3.3.3.7.3.7v3.2c0 .6-.5 1-1 1h-6.5-7.1v7.5h9.3c.1 0 .5.1.7.3.3.3.3.7.3.7v3.1c0 .6-.5 1-1.1 1h-9.3v11.9H212c.6 0 1 .5 1 1v3.2c0 .1 0 .5-.3.8zm14-34.4l.3.6v33.1c0 .6-.5 1-1 1h-7s-.4 0-.7-.3c-.3-.3-.3-.6-.3-.7v-33c0-.6.5-1 1-1h7s.4 0 .7.3zM69 85.7c0 .3-.3.6-.6.6h-3c-3.3.1-6.1-.7-8.6-5l-5.6-10.6-.1-.3c0-.3.3-.6.6-.6 4.1-.2 9.1-2.3 9-7.5-.1-5.3-5.4-6.3-9.6-6.3h-1.8v29.3c0 .6-.5 1-1 1H41c-.1 0-.5 0-.7-.3l-.3-.6v-33c0-.6.5-1 1.1-1h13.6c7 0 12.3 4.5 12.4 10.7.1 7.4-5.8 9.6-5.8 9.6l7.6 13.8.1.2zm43.6-33.4l3.4 33.1c0 .3 0 .5-.2.7-.2.2-.5.3-.8.3h-7.3s-.4 0-.7-.3l-.3-.6-2.2-21.9L96.7 86c-.1.3-.3.4-.6.4h-4.6c-.9 0-1.2-.4-1.5-1.2L82.3 63l-2.8 22c-.1.9-.8 1.4-1.8 1.4h-3c-.4 0-.6-.3-.6-.6l4.3-33.3c.1-.7.6-1.1 1.3-1.1h7.2c.1 0 .4 0 .7.3l.2.3 7.6 21.9 7.4-21.3c.3-.8.8-1.1 1.6-1.1h7.3c.1 0 .4 0 .7.3l.2.5zm40.7 34.1h-2.9a7.8 7.8 0 01-7.3-5L142 78l-2.3-6.4-4-11.4-4.1 11.4h2.7c2.4 0 4.7 1.2 5.8 4.4 0 .3-.1.5-.3.7l-.3.1h-9.7l-3.1 8.6c-.3.8-.6 1.1-1.3 1.1h-3.9c-.4 0-.7-.3-.7-.6l.1-.2 12-33.2c.3-.7.6-.9 1.2-.9h7.2l.6.3.2.4 11.6 33.3V85.9c.3.2 0 .5-.4.5zm93.7-.7c0 .3-.3.6-.6.6h-2.9c-3.3.1-5.9-.7-8.3-5l-6-11.7-.1-.4.1-.5 8.7-14.2 1.4-2.2s.6-1 1.5-1h4.2c.3 0 .6.3.6.6l-.1.3-8.8 14.3 10.2 18.8.1.4zM42 111.7h-1v-6.9h6v6.9h-1v-6.1h-4v6.1zm8.7 3.5h-1v-10.5h1v1.2c.3-.5.7-.8 1.2-1a4 4 0 013 0c.5.2.8.4 1.2.8.3.3.6.7.7 1.2.2.4.3.9.3 1.4 0 .5-.1 1-.3 1.4l-.7 1.2c-.3.3-.7.6-1.2.8a4 4 0 01-3 0 3 3 0 01-1.2-1v4.5zm5.3-7l-.2-1.1-.5-.9c-.2-.3-.5-.5-.8-.6l-1.1-.2-1.1.2-.9.6-.6.9-.2 1.1.2 1.1.6.9.9.6 1.1.2 1.1-.2c.3-.1.6-.3.8-.6.2-.3.4-.5.5-.9l.2-1.1zm10.3 0l-.3 1.5a3.6 3.6 0 01-2 2 4 4 0 01-3 0c-.5-.2-.9-.4-1.2-.8-.3-.3-.6-.7-.8-1.2a4 4 0 010-3 3.6 3.6 0 012-2 4 4 0 013 0c.5.2.9.4 1.2.8.3.3.6.7.8 1.2l.3 1.5zm-1.1 0l-.2-1.1-.5-.9c-.2-.3-.5-.5-.8-.6l-1.1-.2-1.1.2c-.3.1-.6.3-.8.6-.2.3-.4.5-.5.9l-.2 1.1.2 1.1.5.9c.2.3.5.4.8.6l1.1.2 1.1-.2c.3-.1.6-.3.8-.6.2-.3.4-.5.5-.9.2-.3.2-.7.2-1.1zm8.4-1.9c-.2-.3-.4-.5-.8-.7a2 2 0 00-1.1-.3l-1.1.2-.9.6c-.2.3-.4.5-.5.9l-.2 1.1.2 1.1.5.9c.2.3.5.4.8.6l1.1.2c.5 0 .8-.1 1.2-.3l.8-.7.8.6c-.3.4-.7.7-1.1.9-.4.2-1 .3-1.6.3-.6 0-1.1-.1-1.6-.3-.5-.2-.9-.4-1.2-.8-.3-.3-.6-.7-.8-1.2a4 4 0 010-3 3.6 3.6 0 012-2c.5-.2 1-.3 1.6-.3.5 0 1 .1 1.4.3.5.2.9.5 1.2.9l-.7 1zm1.3-1.6h6.2v.8h-2.7v6.1h-1v-6.1h-2.5v-.8zm8.8 10.5h-1v-10.5h1v1.2c.3-.5.7-.8 1.2-1a4 4 0 013 0c.5.2.8.4 1.2.8.3.3.6.7.7 1.2.2.4.3.9.3 1.4 0 .5-.1 1-.3 1.4l-.7 1.2c-.3.3-.7.6-1.2.8a4 4 0 01-3 0 3 3 0 01-1.2-1v4.5zm5.2-7l-.2-1.1-.5-.9c-.2-.3-.5-.5-.8-.6l-1.1-.2-1.1.2-.9.6-.6.9-.2 1.1.2 1.1.6.9.9.6 1.1.2 1.1-.2c.3-.1.6-.3.8-.6.2-.3.4-.5.5-.9.2-.3.2-.7.2-1.1zm7.8-1c0-.6-.2-1-.5-1.3-.3-.3-.8-.4-1.4-.4a5 5 0 00-1.2.2c-.4.1-.7.3-.9.6l-.6-.7c.3-.3.7-.5 1.2-.7.5-.2 1-.3 1.6-.3l1.1.2.9.5c.3.2.4.5.6.8l.2 1.1v3.8l.1.7h-.9l-.1-.5v-.6c-.3.5-.7.8-1.1 1-.4.2-.9.3-1.5.3l-.8-.1-.8-.4-.6-.7c-.2-.3-.2-.6-.2-1 0-.5.1-1 .4-1.3a3 3 0 011.1-.7c.5-.2 1-.3 1.6-.3l1.9-.1v-.1zm-.3 1l-1.3.1a5 5 0 00-1.2.2l-.9.5c-.2.2-.3.5-.3.8l.1.6.4.4.5.2.6.1 1-.2.7-.5.4-.7.2-.9v-.5h-.2zm4.9 3.5h-1v-6.9h1v2.8h4v-2.8h1v6.9h-1v-3.3h-4v3.3zm12.8-5.4c-.2-.3-.4-.5-.8-.7a2 2 0 00-1.1-.3l-1.1.2-.9.6c-.2.3-.4.5-.5.9l-.2 1.1.2 1.1.5.9c.2.3.5.4.8.6l1.1.2c.5 0 .8-.1 1.2-.3l.8-.7.8.6c-.3.4-.7.7-1.1.9-.4.2-1 .3-1.6.3-.6 0-1.1-.1-1.6-.3-.5-.2-.9-.4-1.2-.8-.3-.3-.6-.7-.8-1.2a4 4 0 010-3 3.6 3.6 0 012-2c.5-.2 1-.3 1.6-.3.5 0 1 .1 1.4.3.5.2.9.5 1.2.9l-.7 1zm1.3-1.6h6.2v.8h-2.7v6.1h-1v-6.1h-2.5v-.8zm10.9 7h-3.2v-6.9h3.1c.9 0 1.6.2 2 .5.4.3.7.8.7 1.4l-.1.6-.3.4-.5.3-.6.2.7.1.6.3.4.5.2.7c0 .6-.2 1-.7 1.3-.7.4-1.4.6-2.3.6zm-.2-3.9l1.2-.2c.3-.2.4-.5.4-.9l-.2-.6c-.1-.1-.3-.3-.5-.3l-.7-.1h-2.2v2.3h2zm-2 3.1h2.3l.8-.1.5-.4.2-.7c0-.5-.2-.8-.5-.9l-1.4-.2h-1.9v2.3zm14.3-2.7l-.3 1.5a3.6 3.6 0 01-2 2 4 4 0 01-3 0c-.5-.2-.9-.4-1.2-.8-.3-.3-.6-.7-.8-1.2a4 4 0 010-3 3.6 3.6 0 012-2 4 4 0 013 0c.5.2.9.4 1.2.8.3.3.6.7.8 1.2l.3 1.5zm-1.1 0l-.2-1.1-.5-.9c-.2-.3-.5-.5-.8-.6l-1.1-.2-1.1.2c-.3.1-.6.3-.8.6-.2.3-.4.5-.5.9l-.2 1.1.2 1.1.5.9c.2.3.5.4.8.6l1.1.2 1.1-.2c.3-.1.6-.3.8-.6.2-.3.4-.5.5-.9l.2-1.1zm8-.6l1.1.1 2.5-2.9h1.2l-2.8 3.1c.8.3 1.5.7 2 1.3.5.6.8 1.4 1.1 2.5h-1.1l-.5-1.5-.8-1c-.3-.3-.7-.4-1.1-.5a6 6 0 00-1.5-.2v3.2h-1v-6.9h1v2.8zm14.3.6l-.3 1.5a3.6 3.6 0 01-2 2 4 4 0 01-3 0c-.5-.2-.9-.4-1.2-.8-.3-.3-.6-.7-.8-1.2a4 4 0 010-3 3.6 3.6 0 012-2 4 4 0 013 0c.5.2.9.4 1.2.8.3.3.6.7.8 1.2l.3 1.5zm-1.1 0l-.2-1.1-.5-.9c-.2-.3-.5-.5-.8-.6l-1.1-.2-1.1.2c-.3.1-.6.3-.8.6-.2.3-.4.5-.5.9l-.2 1.1.2 1.1.5.9c.2.3.5.4.8.6l1.1.2 1.1-.2c.3-.1.6-.3.8-.6.2-.3.4-.5.5-.9.2-.3.2-.7.2-1.1zm4.2-3.5l3.1 3.6 3.1-3.6h.9v6.9h-1v-5.5l-2.7 3.3h-.4l-2.7-3.2v5.4h-1v-6.9h.7zm13.8-.1l1.5.3c.5.2.9.4 1.2.8.3.3.6.7.8 1.2.2.4.3.9.3 1.4 0 .5-.1 1-.3 1.4-.2.4-.4.8-.8 1.1-.3.3-.7.6-1.2.8a4 4 0 01-1.5.3v3.4h-.9v-3.4a4 4 0 01-1.5-.3c-.5-.2-.8-.4-1.2-.8l-.8-1.1c-.2-.4-.3-.9-.3-1.4 0-.5.1-1 .3-1.4a3.6 3.6 0 012-2 4 4 0 011.5-.3v-4.1h.9v4.1zm-3.6 3.6l.2 1.1.5.9.8.6 1.1.2v-5.6l-1.1.2c-.3.1-.6.3-.8.6-.2.3-.4.5-.5.9l-.2 1.1zm6.3 0l-.2-1.1-.5-.9c-.2-.3-.5-.5-.8-.6l-1.1-.2v5.6l1.1-.2c.3-.1.6-.3.8-.6.2-.2.4-.5.5-.9l.2-1.1zm10.3 0l-.3 1.5a3.6 3.6 0 01-2 2 4 4 0 01-3 0c-.5-.2-.9-.4-1.2-.8-.3-.3-.6-.7-.8-1.2a4 4 0 010-3 3.6 3.6 0 012-2 4 4 0 013 0c.5.2.9.4 1.2.8.3.3.6.7.8 1.2l.3 1.5zm-1.1 0l-.2-1.1-.5-.9c-.2-.3-.5-.5-.8-.6l-1.1-.2-1.1.2c-.3.1-.6.3-.8.6-.2.3-.4.5-.5.9l-.2 1.1.2 1.1.5.9c.2.3.5.4.8.6l1.1.2 1.1-.2c.3-.1.6-.3.8-.6.2-.3.4-.5.5-.9l.2-1.1zm4.3 7h-1v-10.5h1v1.2c.3-.5.7-.8 1.2-1a4 4 0 013 0c.5.2.8.4 1.2.8.3.3.6.7.7 1.2.2.4.3.9.3 1.4 0 .5-.1 1-.3 1.4l-.7 1.2c-.3.3-.7.6-1.2.8a4 4 0 01-3 0 3 3 0 01-1.2-1v4.5zm5.3-7l-.2-1.1-.5-.9c-.2-.3-.5-.5-.8-.6l-1.1-.2-1.1.2-.9.6-.6.9-.2 1.1.2 1.1.6.9.9.6 1.1.2 1.1-.2c.3-.1.6-.3.8-.6.2-.3.4-.5.5-.9.2-.3.2-.7.2-1.1zm2.1-3.5h6.2v.8h-2.7v6.1h-1v-6.1h-2.5v-.8zm12.2 2.5c0-.6-.2-1-.5-1.3-.3-.3-.8-.4-1.4-.4a5 5 0 00-1.2.2c-.4.1-.7.3-.9.6l-.6-.7c.3-.3.7-.5 1.2-.7s1-.3 1.6-.3l1.1.2.9.5c.3.2.4.5.6.8l.2 1.1v3.8l.1.7h-.9l-.1-.5v-.6c-.3.5-.7.8-1.1 1-.4.2-.9.3-1.5.3l-.8-.1-.8-.4-.6-.7c-.2-.3-.2-.6-.2-1 0-.5.1-1 .4-1.3a3 3 0 011.1-.7c.5-.2 1-.3 1.6-.3l1.9-.1v-.1zm-.3 1l-1.3.1a5 5 0 00-1.2.2l-.9.5c-.2.2-.3.5-.3.8l.1.6.4.4.5.2.6.1 1-.2.7-.5.4-.7.2-.9v-.5h-.2z"/></svg>
