<svg xmlns="http://www.w3.org/2000/svg" viewBox="0 0 130 27.45">
  <title>ostin</title>
  <g id="Layer_2" data-name="Layer 2">
    <g id="Слой_1" data-name="Слой 1">
      <path d="M32.67,10a5,5,0,1,0-5-5,5,5,0,0,0,5,5" fill="#fff"/>
      <path d="M18.83,21.38A9,9,0,1,1,21.48,15a9,9,0,0,1-2.65,6.39M12.45,2.53A12.46,12.46,0,1,0,24.9,15,12.47,12.47,0,0,0,12.45,2.53" fill="#fff"/>
      <path d="M98.08,3.07H96.33a.88.88,0,0,0-.9.9V26a.88.88,0,0,0,.9.91h1.75A.88.88,0,0,0,99,26V4a.88.88,0,0,0-.9-.9" fill="#fff"/>
      <path d="M52.07,27.45A16.57,16.57,0,0,1,41.88,24.1l-.23-.18a.82.82,0,0,1-.1-1.21c.15-.2.59-.69,1.09-1.22a.8.8,0,0,1,.17-.15.9.9,0,0,1,1.19,0,12.23,12.23,0,0,0,8.18,2.92c3.13,0,5.32-1.48,5.32-3.61v-.06c0-1.9-1-3.05-6.37-4.09s-9-2.69-9-7.15V9.33c0-3.94,3.74-6.79,8.89-6.79A14.54,14.54,0,0,1,59.69,5l.26.19a.85.85,0,0,1,.19,1.17c-.17.2-.76.9-1.06,1.24s-.62.65-1.69,0l-.32-.18A12.11,12.11,0,0,0,51,5.69c-3,0-5.07,1.4-5.07,3.4v.07c0,1.91,1,3.08,6.67,4.18,6.12,1.22,8.73,3.32,8.73,7v.06c0,4.14-3.79,7-9.22,7" fill="#fff"/>
      <path d="M87.26,3.07H67.79a.88.88,0,0,0-.9.9V5.75a.88.88,0,0,0,.9.9h8V26a.89.89,0,0,0,.91.91h1.74a.88.88,0,0,0,.9-.91h0V6.65h7.93a.88.88,0,0,0,.9-.9V4a.88.88,0,0,0-.9-.9" fill="#fff"/>
      <path d="M129.11,3.07h-1.79a.88.88,0,0,0-.9.9V14.76c0,3.38,0,6.6,0,7.43L112.67,3.8a1.91,1.91,0,0,0-1.43-.73h-2.38a.88.88,0,0,0-.9.9V26a.88.88,0,0,0,.89.9h1.84a.88.88,0,0,0,.91-.9V7.87l13.76,18.29a1.94,1.94,0,0,0,1.44.72h2.3a.88.88,0,0,0,.9-.9V4a.88.88,0,0,0-.89-.9" fill="#fff"/>
    </g>
  </g>
</svg>
