<svg xmlns="http://www.w3.org/2000/svg" viewBox="0 0 39.08 111.98"><title>papa-karlo</title><path d="M3.64,54.87h.3c.56,0,.76-.92.76-1.51V52l6.07.88h.46a21.43,21.43,0,0,0,8.07-1.36l-.35-8c-1.27.1-3.22,2.27-6.51,2.27h-3c-3,0-6.36-1.39-6.36-4.24,0-1,.45-2.42,1.51-2.42H9.1c3.06,0,5.83,1.67,7.88,1.67.69,0,.9-1.37.9-2.12V37.31c0-2.5-.3-3.89-2.33-4.48a23.91,23.91,0,0,0-6-1H3.07L2.89,30H2.43C1,30,.76,35.31.76,37.16A96.38,96.38,0,0,0,1.23,47c.23,2,.52,7.88,2.42,7.88ZM0,84.86v7.73s1.2,9.81,1.32,10.64C1.59,105,3.22,112,4.54,112h.31c.76,0,1.67-2.28,1.67-3V108a.57.57,0,0,0-.6-.6H5.77a4.11,4.11,0,0,0-1.36.31,10,10,0,0,1-.91-3.49V103a.58.58,0,0,1,.6-.6l1.07-.08,3.32.53H14.7c1.41,0,3.95-.57,3.95-1.81V99.57c0-.81-.27-4.4-.91-4.4l-1.22-.06-6.82.66a25.37,25.37,0,0,1-4.61-.39,2.92,2.92,0,0,1-2.2-2.79v-.76c0-1.13,1.29-1.51,2.42-1.51H7.12a26.36,26.36,0,0,1,5.14.77c.57.18,4.49,1,5,1H18a1.44,1.44,0,0,0,1.37-1.51v-3c0-5.16-2.15-4.21-6.31-4.91A61.65,61.65,0,0,0,2.89,81.53H1.67C.4,81.53.43,84.19,0,84.86ZM3.78,74.57c.7-2.95-.6-3.34,1.34-5.79.69-.88,2.9-3,4.28-3H10c-.38,1.6-1.37,3.55-1.37,5.3V72.3c0,3,1.26,7.42,3.95,7.42h.91c3.15,0,5.9-5.84,5.9-9.24v-.91c0-1.71-.45-5.59-1.67-5.91V67.3c0,2.62-1.29,5.45-3.63,5.45h-.31a2.37,2.37,0,0,1-2.42-2.12V68.5c0-2,2.31-3.91,3.74-4.6,2.34-1.1,3.53-1.1,3.53-4.79l.1-1.23L18.18,55c-1,.25-.68,1.35-1.57,1.92a18.71,18.71,0,0,1-3,.48A29.46,29.46,0,0,0,8.27,59.2C4.69,61,2.11,62,2.11,67.29v3.48c0,1.41.42,3.69,1.67,3.79ZM4.4,27c.29,0,.64-.82.63-1.07l-.18-1.36c-.79-.54-1.67-.79-1.67-2.13v-.31c0-2.48,4.13-5.69,6.76-5.76L9.4,20.62v2.73c0,2.91,1.07,6.51,3.78,6.51,3.86,0,6.21-6.43,6.21-10.76V16.23a2.25,2.25,0,0,0-.14-.77H18.19c-.57,2.46-.52,7.73-3.33,7.73h-.14c-1.53,0-3-1.82-3-3.33V18.5c0-2.13,1.21-3,2.86-3.5,2.33-.72,3.21,0,3.21-3.32V10.17c0-.87-.43-2.87-1.22-2.87h-.3c-2.53,0-7.7,2.32-9.36,3.37-2.57,1.6-5,3.75-5,7.84v3.33C1.84,23.2,3.13,27,4.42,27ZM22.5,95l.82-.92c1.77.15,3.48,6.82,6.67,6.82h.61c3,0,7.72-5.83,7.72-8.49v-.76c0-2-4.66-3.64-7.12-3.64.22,1,.91,1.4.91,2.58v.15c0,1.78-2.92,4.4-4.7,4.4h-.14c-1.45,0-2.5-2.37-3-3.55-.4-1-1.35-4.13-1.58-5.09h-.45a2.14,2.14,0,0,0-.15.76L22,91.08,22.51,95Zm.68,15c.64-.43.72-2.19,1.36-2.18l6.82.65h4.85c1.62,0,2.12-1.14,2.12-2.72,0-1.33.1-5-1-5-2.21,0-5.45,1.36-8.18,1.36h-3c-1.32,0-2.13-.45-3-.45h-.15c-.58,0-.76.75-.76,1.36v1.22C22.12,105.61,22.5,109.51,23.18,110ZM25.9,56.54c-1.24,0-2.11-.76-2.87-.76h-.15c-.34,0-.45.1-.45.45v1.06a17.17,17.17,0,0,0,.29,3.19c.26,1.22.56,1.83.78,2.72h.76v-.61c0-1,6-.45,7.42-.45H32c1.81,0,6.81,0,6.81-1.51v-.31a33.07,33.07,0,0,0-.32-4.07,21.51,21.51,0,0,0-.89-3.35c-1.73,0-2.42,3.33-5.46,3.33H31.08c-1.89,0-4.86-3.3-4.86-4.85v-.31c0-1,1.69-2,2.58-2H30a1.14,1.14,0,0,1,1.22,1.21v1.06c0,1.1-.58,1.28-.6,2.42l1,.36.84-6.71-.07-.16c0-1.14-.3-4.09-1.21-4.09H29.57c-3.24,0-6.51,1.35-6.51,4.4v1.51c0,2.28,2.87,6.33,2.87,6.81v.61Zm6.67,29.08c3.76,0,6.51-6.77,6.51-11.05V73.35l-.33-3.18c-1.34.11-2.23,3.28-2.71,4.52s-2.26,3.66-3.63,3.66H31.5c-.72,0-1.05-.5-1.05-1.21v-2c0-3.11,5.6-3.74,5.6-6.36V65.48c0-.61-.66-1.67-1.22-1.67h-1c-1.62,0-6.78,3-7.92,3.9-3.4,2.61-3.74,2.25-3.74,8.08v1c0,1.42.39,4.13,1.67,4.24,0-2.21,0-4.32,1-5.64.52-.66,2.89-2.85,3.82-2.85.61,0,.15,5.06.15,5.91C28.79,81.21,29.93,85.62,32.57,85.62ZM24.7,23.82c-.32-.6-.55-1.73-1.36-1.82l-.71,9.09c-.07,2.26,2,10.16,3.27,10.16h.46c.55,0,4.25-3.49,8.78-3.49,1,0,2.73.48,2.73,1.36v.6c0,.63-.9,2.58-1.51,2.58s-.66-.69-1.37-1c-.64.33-.91.67-.91,1.67v1.51c0,.61.16,1.36.77,1.36,1.68,0,4.23-5.32,4.23-7.58V34c0-1.18-1.41-2-2.58-2H35.14c-4.22,0-6.55,3.64-8.49,3.64H26.2c-.63,0-1.51-1.63-1.51-2.27,0-2.26,3.06-4.4,5.3-4.4h1.37l6.2.51a2.84,2.84,0,0,0,.16-.82v-.15a16.48,16.48,0,0,0-1.24-4.21,3.53,3.53,0,0,0-3.3-2H30.45c-.35,0-5.48,1.38-5.76,1.51ZM31.21,0h-3c-1.11.77-1.63.33-3,1.69C24.73,2.19,23.31,4,22.72,4c-.36,0-.67-.31-1.21-.31-.19,0-.46.31-.46.6,0,2,1.73,8.18,3.18,8.18.83,0,1.66-3.54,2.46-4.5.6-.71,3.21-2.62,4.36-2.62h1.51c2.63,0,4.4,3.3,4.4,6.05v.91c0,1.39-1.57,2.13-3,2.13H32.56c-2.91,0-3.77-1.61-5.45-2.73a4.88,4.88,0,0,0-.91,3v1.37c0,2.55,2.63,4.54,5.14,4.54h2.73c2.87,0,4.85-2.54,4.85-5.45V13a21.46,21.46,0,0,0-2.27-8.18,12.3,12.3,0,0,0-2.15-3c-1.67-1.67-2-1-3.3-1.86Z" fill="#fff"/></svg>