<svg xmlns="http://www.w3.org/2000/svg" viewBox="0 0 117.1 444.3"><path fill="#fff" d="M0 444.3v-297h113.9v296.9H0zm62.5-34l.2-2.1c.3-6.4-.2-12.6-3.2-18.4a17.6 17.6 0 00-17.3-10c-8.3.6-14 4.8-16.3 12.5-2.8 9-2 17.7 1.6 26.3a1.6 1.6 0 001.7 1h57.9v-8c0-1.2-.3-1.4-1.4-1.4h-20zm21.6-69.6l-7.7 3.3.5 1.3a26.9 26.9 0 012.6 11.7c-.2 5-2.3 9-7 11.2a10.8 10.8 0 01-1 .4L70 356a25.3 25.3 0 00-4.5-11.8c-6.4-8.7-20.3-6.5-24.4 2.3a24.1 24.1 0 00-2.1 8.3c-.7 8 2.6 16.5 10.9 20.6a29.6 29.6 0 0026 .7A18.8 18.8 0 0087.5 362a27.3 27.3 0 00-.5-12.6l-2.8-8.7zM56 229.3l.7 7a35.8 35.8 0 003.6 12.7 14 14 0 0017.2 7.1c5-1.5 7.8-5.3 9.2-10.2a34 34 0 00.9-14 32.1 32.1 0 00-3-11 1.5 1.5 0 00-1.5-1H54c-7 0-12.2 4-14 11a33.7 33.7 0 001.9 21l1.3 2.8 7.4-3.1-.4-1.1a26.1 26.1 0 01-3-14.7c.5-5 3.8-7.5 8.9-6.5zm8.8-17.2h21c1 0 1.4-.2 1.4-1.3v-6.7c0-1-.3-1.4-1.3-1.3H49.6c-1 0-1.4-.3-1.6-1.3a30.8 30.8 0 01-.5-10.3c.6-3.9 2.7-6.2 6.3-6.9a14.6 14.6 0 012.4 0h29.6c1 0 1.4-.4 1.4-1.5V176c0-.9-.3-1.1-1.1-1.1H55.3c-8.4 0-14 4.7-15.6 13a40 40 0 002.6 23A1.6 1.6 0 0044 212h20.8zM43.4 261a22.5 22.5 0 00-4.2 11.3 20 20 0 0011.4 20.4 28.9 28.9 0 0011 2.6 32.3 32.3 0 0013.3-2c10.4-4 15.5-15 12-26a19.9 19.9 0 00-3.4-6.2l-7.4 3.6 1.5 2.2a12.8 12.8 0 011.7 9.4c-1 4.7-4.2 7.3-8.5 8.7a26 26 0 01-12 .6 20.5 20.5 0 01-3.4-.8c-8.6-3-10-11.4-6.2-17.8l1.5-2.3zM87 322.5H20.5v9H87zm-47-9.7h47v-9H40zm-5.4-4.6a5.4 5.4 0 10-10.8 0 5.6 5.6 0 005.3 5.6 5.5 5.5 0 005.4-5.6zm4.7-141.8a4.7 4.7 0 004.7 4.8 4.8 4.8 0 004.7-4.8 4.9 4.9 0 00-4.9-4.9 4.8 4.8 0 00-4.6 4.9zM0 36h55.6a1.7 1.7 0 012 1.4c2.2 6 3 12.3 1.6 18.7A16.2 16.2 0 0148 68.4a27 27 0 01-18.5-.3 16.4 16.4 0 01-11.2-15.6 69 69 0 01.5-8H0zm38.9 8.4H26.3c-.8 0-1.2.2-1.3 1l-.5 3.3c-.5 4.9 1.5 9 5.8 11a20.6 20.6 0 0017.1.3 9.4 9.4 0 005.8-7.3 16.5 16.5 0 00-.5-7.2 1.2 1.2 0 00-1.4-1.1H39zM0 119.5l1.5-.1H37l-1-1-16.5-14.1a2.1 2.1 0 01-.9-1.8v-7l.1-1.4 19 16.4L59 93.2V101.4a2.2 2.2 0 01-.8 1.9l-18.8 15.1-1 1H59v8H0zM57 28.3l-6.2-2.7a23.7 23.7 0 002.5-8.3 10.5 10.5 0 00-.8-5.6 5 5 0 00-9-1 25.7 25.7 0 00-2 4.3c-1 2-1.6 4-2.6 6-2.6 4.8-6.3 6.8-11.6 6.1-4.3-.5-7.6-3.7-8.9-8.6a24.5 24.5 0 012.1-17.2L26 3.7a43.3 43.3 0 00-1.8 5.9 15.7 15.7 0 00.1 5.3 4.6 4.6 0 004 3.9 4.7 4.7 0 005.2-2.5c1-1.7 1.7-3.6 2.5-5.4s1.6-3.8 2.6-5.5a10.1 10.1 0 0110-5.4 10.5 10.5 0 019.3 6 18.7 18.7 0 012 7.7 28.7 28.7 0 01-2.2 13.5l-.6 1.1zM18.6 78.8H59v8H18.6zM101.5 51c2.2-4.4 6.8-5 10.5-7.4v3.6c0 .3-.5.7-.8.8l-5.4 2.7a4.8 4.8 0 00-2.9 4.2h6.7c2.5 0 2.5 0 2.5 2.4v1h-9a4 4 0 002 3.8 47.7 47.7 0 005.5 2.7c1.2.5 1.8 1.1 1.6 2.4a18.4 18.4 0 000 2.4c-3.8-2.3-8.4-3-10.6-7.3l-8.4 7v-4c0-.2.4-.6.7-.8l6.8-5.2 1-.9h-8.6v-3.5h8.2l.1-.3-3-2.3L94 49a2 2 0 01-1-2v-3zM117 90.7v2.8h-5v14l5 .3v2.6l-7 .2a.9.9 0 01-.6-.3c-2.3-3-5.5-4-9-4.7l-6.8-1.1a2.8 2.8 0 01-.5-.2V93.9l9.3-1 5.2-.5c.8-.1 1.6-.2 1.8-1.2a1 1 0 01.7-.5h7zm-8 5h-1.5l-8.2 1c-3.5.3-3.5.2-3.4 3.7 0 .7.2 1 1 1.1 4.2.7 8.6 1 12.2 4.2zM93.1 35.4V25l8.4-1 6.8-.7c.4 0 .7-.5 1-.8s.7-.8 1-.8h6.8v2.9l-5 .2v13.8h4.9v2.8l-7 .3a1 1 0 01-.7-.4c-2.1-2.8-5.1-3.9-8.4-4.5-2.5-.6-5.1-1-7.8-1.4zm16-8.7l-10.3 1c-1 .2-2.2 0-2.7.6s-.1 1.9-.2 2.8c-.1 1.1.3 1.5 1.4 1.6 4.1.6 8.3 1.1 11.6 4l.2-.1zM66.9 122.6v-10.4l5-.6 9.7-1a1.6 1.6 0 001.2-.7 1.3 1.3 0 011.6-1h6.2v2.8l-5 .3V124.4c0 1.1.3 1.4 1.3 1.4h3c1 0 .8.7.8 1.3s.3 1.4-.7 1.4l-6.1.2a1.1 1.1 0 01-.8-.4c-2.2-2.8-5.3-3.9-8.6-4.6l-7.6-1.1zm2.8-7.3v3.3c0 .8.2 1 1 1.2 4.2.7 8.5 1 12 4.1v-10zM102.4 129.8a37.8 37.8 0 01-5.6-1.7c-2.8-1.3-4-3.8-4.1-7a7.3 7.3 0 014-7 12.4 12.4 0 0111.6 0c3 1.5 4.5 4.7 4 8.4a8 8 0 01-6.5 6.6l-3.3.4zm.1-13.5a41.7 41.7 0 00-4.6 1.3 3.5 3.5 0 00-2.2 3.5 3.6 3.6 0 002.2 3.6 10.9 10.9 0 009.2 0 3.6 3.6 0 002.2-3.6 3.5 3.5 0 00-2.2-3.5 39.9 39.9 0 00-4.6-1.3zM104.2 84.2c3.3-.2 5.4-2.6 5.2-6.1a17.3 17.3 0 00-.4-2.5c-.1-.8-.4-1.5-.7-2.4l2.8-1.1a14.4 14.4 0 01.8 2.6 26.4 26.4 0 01.3 6c-.6 4.4-3.7 7-8.7 7.3a14.5 14.5 0 01-5-.6c-5.7-1.7-6.7-7.2-5.3-11.2a8 8 0 018.7-4.6c.3.1.6.6.6.9l1.5 10.3.2 1.4zm-3.8-8.9c-2 0-3.6.4-4.5 2.1a4.4 4.4 0 00.4 5c1.3 1.7 3.2 2 5.4 2.1l-1.3-9.2zM94 17.5a15.5 15.5 0 01-.7-10.4 4.9 4.9 0 014.8-3.4c4.1-.1 8.2 0 12.3 0a1.3 1.3 0 011 .7 16.5 16.5 0 01.4 10.3 5.2 5.2 0 01-5.1 4 5 5 0 01-5.3-3.4 36.8 36.8 0 01-1.2-5.4 23.4 23.4 0 01-.3-2.5c-2.6-.6-4.2.5-4.4 3.1a14 14 0 00.2 3.1c.1 1 .5 2 .8 3zm8.2-10.3c.4 2.1.7 4 1.3 5.9a2.8 2.8 0 003.2 2 2.8 2.8 0 002.7-2.5 23.8 23.8 0 000-4.6c0-.3-.6-.7-.9-.7h-6.3zM85.6 19c-3-1.7-6.4-2.2-8.6-5l-.4 1a4.6 4.6 0 01-4 3 4.9 4.9 0 01-4.8-2.3 9 9 0 01-1.3-5.7 43.4 43.4 0 011-5.7 1.3 1.3 0 011-.8h17V7h-7.4a30.5 30.5 0 000 3.3 2.9 2.9 0 002 2.3l4.6 2a1.3 1.3 0 011 1.4c-.2.9-.1 1.8-.1 3zM75.8 7h-3.4c-3.5 0-3.8.3-3.5 4a5.5 5.5 0 00.1.7 3.1 3.1 0 003.3 2.5 3 3 0 003.2-2.6c.2-1.5.2-3 .3-4.6zM77.9 102.6c3-.3 4.9-2.1 5-5.1a14.2 14.2 0 00-.2-3 28.5 28.5 0 00-.7-2.8l2.8-1.1c1.3 4 2 7.9-.1 11.8a7.3 7.3 0 01-4.4 3.3 12.9 12.9 0 01-8.4 0 8.1 8.1 0 01-5.2-10c1-3.7 4.5-6 8.7-5.5a1.3 1.3 0 01.8.8l1.4 10 .3 1.6zm-2.9.6l.3-.6-1.1-8.2c0-.2-.6-.6-1-.6a4 4 0 00-3.8 2.8 4.3 4.3 0 001.7 5 25.6 25.6 0 003.9 1.6zM73.6 26c-3.1-.3-4.5.8-4.4 3.8a49.8 49.8 0 00.8 5.4l-2.3 1c-1.3-3.7-2-7.3-.5-10.9 1-2 2.8-2.9 4.9-2.9h11.8a1.4 1.4 0 011 .7 16.5 16.5 0 01.5 10 5.2 5.2 0 01-4.9 4.1c-2.6.1-4.5-1-5.5-3.5a40.2 40.2 0 01-1.2-5.7 19.3 19.3 0 01-.2-2zm2.3-.1c.4 2 .7 4 1.2 5.8a2.8 2.8 0 003.2 2 2.7 2.7 0 002.6-2.4 24.8 24.8 0 000-4.8c0-.2-.5-.6-.8-.6H76zM75.3 47.3c2-4.5 6.6-5.3 10.3-7.9v4c0 .2-.5.6-.8.7L79.6 47a5 5 0 00-3 4.5h9V55H66.8v-3.6H75l.1-.3-2.5-2.1-5-4.1a1.9 1.9 0 01-.8-1.8v-3.3zM67.8 58.8l2.5 1.2-.4 1a4.6 4.6 0 002.8 6.3 9.7 9.7 0 006.9 0 4.7 4.7 0 002.8-6.5L82 60l2.6-1.2a8.1 8.1 0 01-2.8 11.7 12 12 0 01-11.1 0c-4.3-2-5.6-7.6-3-11.7zM69.8 87.7h-2.9V74.2a.9.9 0 01.3-.2c2.6-.1 2.6-.1 2.6 2.4V79h15.7v3.8H69.8zM1.9 82.8A4.7 4.7 0 016.5 78a4.8 4.8 0 01-.1 9.7 4.7 4.7 0 01-4.5-5z"/><path fill="#fff" d="M43.9 410.2h-9.4c-.6 0-1 0-1.2-.8a27.3 27.3 0 010-12.6c1.3-4.7 4.3-7.1 9.3-7.6a9.7 9.7 0 0110 6 21.7 21.7 0 011.8 9.4l-.1 4.5c0 .9-.4 1.2-1.2 1.1h-9.2zM62.6 369.8a21.6 21.6 0 01-9.2-2.4 12 12 0 01-5.8-13 15 15 0 01.8-3 6 6 0 015.2-3.8 5.5 5.5 0 015.7 3 17.6 17.6 0 012.3 7.3l1 11a6.8 6.8 0 010 1zM63.9 229.1H78c.6 0 1 0 1.2.8a28 28 0 01.1 12.4c-.9 3.2-2.8 5-5.4 5.3-3.5.3-6-1-7.3-4.1a38.7 38.7 0 01-2-7.5c-.4-2.2-.5-4.4-.7-6.9zM40 166.4a3.9 3.9 0 013.9-4 4 4 0 11-3.9 4zm6.6-1.8l-.3-.2-2 1c-1-1-1.5-1.2-2.2-.8s-1 1.5-.7 3.4H45a6.2 6.2 0 001.4-.4l-1.3-.4-.7-.3a2.3 2.3 0 01.4-.7c.3-.2.8-.4 1-.7a4.2 4.2 0 00.8-.9z"/><path fill="#fff" d="M43.9 167.1H42a9.8 9.8 0 01.4-1.6h.9a9.5 9.5 0 01.6 1.6z"/></svg>
