<svg xmlns="http://www.w3.org/2000/svg" viewBox="0 0 1560.68 514.01"><title>profildoors</title><path d="M0,512.34V0H358.52V512.34Z" fill="#fff"/><path d="M1362.81,509.73c-22.93,0-44.57.06-66.21-.13-1.37,0-3.13-1.63-4-3q-19.36-28.81-38.46-57.81c-1.81-2.75-3.68-4.26-7.2-4.06a160.48,160.48,0,0,1-17,0c-3.79-.2-4.81,1.14-4.78,4.83.17,18.32.08,36.65.07,55,0,1.47-.13,2.95-.21,4.78h-58.59V295.74h98.74c15.74,0,31.31,1.39,46.14,7.07,33.34,12.77,47.33,40.32,44.21,74.49-2.42,26.61-16.63,45-40.41,56.4-.9.43-1.76.91-3.13,1.62,8.46,12.37,16.81,24.57,25.15,36.78S1353.78,496.5,1362.81,509.73ZM1225.23,398.21a22.84,22.84,0,0,0,2.42.38c11.66,0,23.32.22,35,0a66.38,66.38,0,0,0,15.29-1.87c12.64-3.32,18.89-12.34,18.43-25.53-.42-12-7.27-21.07-20-22.41-16-1.68-32.2-1.35-48.32-1.59-.91,0-2.65,2.57-2.68,4-.25,9-.13,18-.13,27Z" fill="#fff"/><path d="M632.35,5.28A15.06,15.06,0,0,1,634.49,5c36.48.15,73,0,109.43.62,16.66.27,32.74,4.2,47,13.28,22.37,14.22,31.26,35.48,30.68,61.23-.66,29.28-14.39,50.22-40.83,62.82-.87.41-1.68.94-3,1.71l50.52,73.95c-2.24.16-3.66.34-5.08.34-19.33,0-38.65-.07-58,.15-3.87.05-6-1.38-8-4.47-12.4-19-25-37.74-37.47-56.67-1.73-2.64-3.51-4-6.8-3.85-7.13.25-14.26.08-22,.08v64.53H632.35Zm59.07,50.35v51.79c15.5,0,30.62.1,45.75-.08a27.53,27.53,0,0,0,8.24-1.89c11.67-4,17.42-13,16.71-25.85-.62-11-7.73-20.43-19.28-21.62C725.9,56.22,708.76,56.33,691.42,55.63Z" fill="#fff"/><path d="M428.78,509.46V296.12c1.33-.13,2.59-.36,3.85-.36,27.48,0,55-.29,82.45.1,25,.36,48.95,5.38,70.51,18.83,26.79,16.72,41.5,41.23,45.29,72.27,3,24.78-.51,48.59-13.52,70.3-17,28.31-43.12,43.23-74.72,49.27a189.14,189.14,0,0,1-32.24,3.05c-25.65.44-51.31.16-77,.15C432,509.73,430.52,509.57,428.78,509.46Zm59.39-161.2V456.77c11.33,0,22.32.62,33.22-.13,27.9-1.91,46-18.9,49.22-46.67,2.94-25.61-7.19-48.69-34.24-58C520.72,346.56,504.51,348.71,488.17,348.26Z" fill="#fff"/><path d="M947.51,223.38c-43.11.12-86.23-29.45-101.84-74.83C823.18,83.2,865.38,13.39,933.85,2.61c35.31-5.56,67.84,1,95.91,23.67,63.65,51.41,50.1,152.8-24.56,186.29C989.14,219.78,972.31,223.15,947.51,223.38ZM900.42,113.3a127.51,127.51,0,0,0,1.83,13.22c9.11,40.36,57.08,57.36,87.72,30.9,16.62-14.35,21.76-33.21,19.16-54.55A54.93,54.93,0,0,0,938,56.64C915.85,63.53,901.29,84.5,900.42,113.3Z" fill="#fff"/><path d="M1136.71,402.25a111.17,111.17,0,0,1-96.28,110.34c-36.5,4.89-69.87-2.54-97.71-27.46-63.26-56.61-41.41-159.63,39.39-187.23,49.8-17,105.09-.31,134.46,40.6A110.3,110.3,0,0,1,1136.71,402.25Zm-60.19,1c-.46-4.12-.73-8.28-1.42-12.37-6.71-39.41-51.92-59.32-84.23-36.57-20.67,14.56-26.64,35.78-22.81,60,5.22,32.89,36.39,52.92,68.56,44.46C1060.21,452.49,1076.13,430.19,1076.52,403.21Z" fill="#fff"/><path d="M760.12,514c-39.45-1.7-76.52-20.94-97-65.12-30.63-65.94,11.06-143.35,82.8-155.26,35.38-5.88,68.13.28,96.57,22.89,28.65,22.79,42.49,53.21,41,89.6C880.77,468.68,831.76,514,760.12,514Zm63.6-111.09c-.86-5.4-1.35-10.89-2.64-16.18-9-37.31-53.31-54.45-83.86-32.08-20.23,14.81-26,35.85-22.14,59.8,5.31,32.8,36.79,52.86,68.73,44.19C807.39,452.25,823.21,429.9,823.72,402.92Z" fill="#fff"/><path d="M1373.45,478.05l32.15-38.41c10.46,5.74,20.18,11.9,30.56,16.57a88.66,88.66,0,0,0,46.8,7.52,29.62,29.62,0,0,0,10.84-3.37c8.56-4.77,9.18-16.49.67-21.28-6.85-3.85-14.64-6.18-22.22-8.56-17.27-5.42-34.93-9.7-51.91-15.89-13.71-5-25-13.94-31.43-27.76-11.29-24.46-7.15-65.34,30.21-84.36,18.76-9.55,38.8-11.23,59.36-9.93,26,1.64,50.06,8.81,71.21,24.51,1.44,1.07,2.81,2.24,4.47,3.56l-28.85,40.73c-10.11-4.9-19.47-10-29.25-14.05a77.57,77.57,0,0,0-35.19-5.83,28.74,28.74,0,0,0-4.44.61c-8.12,1.83-12.57,6.07-13.13,12.41s2.28,11.3,10.45,14c13.09,4.31,26.68,7.08,39.78,11.34,12.61,4.09,25.45,8.15,37.18,14.18,22.77,11.7,32.66,33.69,28.89,59-4.68,31.38-24.13,49.43-53.46,56.19-46.09,10.62-88.9,1.89-127.19-26.58C1377.23,481.36,1375.64,479.89,1373.45,478.05Z" fill="#fff"/><path d="M487.8,157.74v13c0,14.66,0,29.32.05,44,0,2.78-.48,4.3-3.78,4.27-17.66-.12-35.31-.05-53-.08a13.1,13.1,0,0,1-2.24-.46V4.91h5.25c27.82,0,55.63-.06,83.45,0C536,5,554.13,7.2,570.87,15.75c21.21,10.83,33.94,28,37.2,51.66s-.79,45.86-17.79,64.06c-12.9,13.82-29.44,21.43-47.78,23.81-15.61,2-31.51,1.75-47.29,2.45C492.94,157.83,490.65,157.74,487.8,157.74Zm.29-45.39c13.87-.88,27.58-.63,40.85-2.9,13.85-2.37,21.34-13.38,21.07-27-.26-13.9-7.79-24.11-22-26.22-13-1.93-26.41-1.53-40-2.17Z" fill="#fff"/><path d="M1260,93.35v49H1159.07v76.18h-58.81V5.24h170.25V56.5H1159.4V93.35Z" fill="#fff"/><path d="M1398.92,5.17h58.8V166.88h103v51.8c-1.79.1-3.56.26-5.32.26q-75.49,0-151,.09c-4.09,0-5.85-.66-5.84-5.37q.24-101.74.14-203.48C1398.67,8.7,1398.82,7.22,1398.92,5.17Z" fill="#fff"/><path d="M1305.33,218.67V5.28h58.74c.11,1.81.31,3.58.31,5.34q0,101.43.13,202.87c0,4.45-1.21,5.63-5.59,5.56-16.15-.26-32.31-.09-48.47-.11C1308.83,218.94,1307.22,218.78,1305.33,218.67Z" fill="#fff"/></svg>