<svg xmlns="http://www.w3.org/2000/svg" viewBox="0 0 10.7 56.88"><title>stilnyashka</title><path d="M5.83,36.9a.65.65,0,0,1-.2.47.67.67,0,0,1-1,0,.62.62,0,0,1-.21-.47.69.69,0,0,1,1.18-.49A.7.7,0,0,1,5.83,36.9ZM9,56.86V0h.14V56.86ZM9.42,0H9.7V56.86H9.42ZM10,0h.28V56.86H10Zm.57,0h.14V56.86h-.14ZM4.27,40.27l1.55.46v4.21H5.66v-.21a.52.52,0,0,0-.18-.46,1.49,1.49,0,0,0-.68-.11H1.13a1,1,0,0,0-.7.15.55.55,0,0,0-.14.42v.21H.13V42.48H.29A2,2,0,0,0,.35,43a.51.51,0,0,0,.2.28,1.56,1.56,0,0,0,.69.09H4.8c.29,0,.47,0,.55-.13a1.47,1.47,0,0,0,.1-.71v-.39a3.14,3.14,0,0,0-.06-.76,1.16,1.16,0,0,0-.3-.52,2.89,2.89,0,0,0-.85-.48Zm1.55,5v2.33H5.66v-.2q0-.37-.18-.48a1.7,1.7,0,0,0-.67-.1H1.13A1.18,1.18,0,0,0,.44,47a.54.54,0,0,0-.15.44v.2H.13V45.3H.29v.2a.63.63,0,0,0,.13.41c.09.11.32.17.71.17H4.81A1.33,1.33,0,0,0,5.43,46a.43.43,0,0,0,.17-.2,1.07,1.07,0,0,0,.06-.3v-.2ZM1.46,48v.15c-.65.06-1,.39-1,1v.77H4.83a1,1,0,0,0,.7-.15.66.66,0,0,0,.13-.42v-.2h.16v2.31H5.66v-.2a.63.63,0,0,0-.13-.41c-.09-.11-.33-.16-.7-.16H.48v.64a1.18,1.18,0,0,0,.21.77,1,1,0,0,0,.77.31v.15L.13,52.52V48.09ZM6,56.68v.15H4v-.15c1.07-.19,1.62-.74,1.62-1.62a1.16,1.16,0,0,0-.26-.77A.84.84,0,0,0,4.68,54a1,1,0,0,0-.81.45c-.43.71-.81,1.29-1.12,1.75a1.47,1.47,0,0,1-2.32.24A1.6,1.6,0,0,1,0,55.29a2.29,2.29,0,0,1,.22-.92,1,1,0,0,0,.11-.32c0-.14-.11-.23-.33-.28v-.15H2v.15a1.9,1.9,0,0,0-1.25.55,1.39,1.39,0,0,0-.38,1A1,1,0,0,0,.59,56a.81.81,0,0,0,.62.27.83.83,0,0,0,.5-.19,4,4,0,0,0,.8-1.16c.24-.39.42-.7.56-.9a1.89,1.89,0,0,1,.55-.5,1.42,1.42,0,0,1,.74-.22,1.51,1.51,0,0,1,1.13.5A1.73,1.73,0,0,1,6,55a3.1,3.1,0,0,1-.2,1,1.67,1.67,0,0,0-.13.49C5.62,56.56,5.73,56.64,6,56.68ZM2.52,32.07V29.42H.11v-1H2.52V26.93h.77v1.45H5.6v1H3.29v2.65H5.6v1H.11v-1Zm1.21-7.74a2.62,2.62,0,0,1-.68,1,1.46,1.46,0,0,1-1,.39A1.59,1.59,0,0,1,.81,25a3.62,3.62,0,0,1-.64-1.65,7.2,7.2,0,0,1-.06-1.14v-.29H5.6v1H.94a2.32,2.32,0,0,0,.32,1.16,1,1,0,0,0,.82.55,1,1,0,0,0,.79-.5,2.22,2.22,0,0,0,.36-1.11V23l0,0A4.53,4.53,0,0,1,4.83,24.1a4.63,4.63,0,0,1,1,1.94v.06H5.05v0A3.67,3.67,0,0,0,3.73,24.33Zm1.52-8A2.54,2.54,0,0,1,5.81,18a2.63,2.63,0,0,1-.47,1.58,1.38,1.38,0,0,1-1.16.65H.11v-1H4.18a.74.74,0,0,0,.63-.33A1.41,1.41,0,0,0,5.06,18a1.43,1.43,0,0,0-.24-.87.75.75,0,0,0-.64-.33H.11v-1H4.18a.73.73,0,0,0,.63-.34,1.41,1.41,0,0,0,.25-.86,1.45,1.45,0,0,0-.24-.87.76.76,0,0,0-.64-.32H.11v-1H4.18A1.4,1.4,0,0,1,5.35,13a2.62,2.62,0,0,1,.46,1.58A2.56,2.56,0,0,1,5.25,16.33ZM2.44,9.8a2.84,2.84,0,0,0-.51-1.27A3.7,3.7,0,0,0,1,7.63a2.21,2.21,0,0,0-.88-.34h0v-1h0a2.81,2.81,0,0,1,1.66.79,4.49,4.49,0,0,1,1.11,1.8A3.16,3.16,0,0,0,4.21,8,3.38,3.38,0,0,0,5,6.3v0h.78l0,.06a5.27,5.27,0,0,1-1,2.36A4.21,4.21,0,0,1,3.08,9.8H5.6v1H.11v-1ZM4.29,3.9A4.84,4.84,0,0,0,2.52,1.79,4.33,4.33,0,0,0,.15,1.1h0v-1H5.6v1H3.21A7.16,7.16,0,0,1,5.6,4.88v.06H.11v-1Z" fill="#fff"/></svg>