<svg xmlns="http://www.w3.org/2000/svg" viewBox="0 0 319 1599"><path fill="#fff" fill-rule="evenodd" d="M0 77L59 6a28 28 0 004-6h2c1 4 5 7 7 10l56 67H96v34a5 5 0 005 5h27c10 0 20 0 30 2a67 67 0 0133 19c11 12 19 28 23 44l74-1v76h-74a104 104 0 01-14 31c-8 14-21 25-36 30-11 4-23 3-35 3H33l1-73h100a17 17 0 0013-6c6-6 7-15 7-23s-1-17-7-23c-4-4-10-5-15-5H97a96 96 0 01-25-2c-10-3-19-8-26-16a63 63 0 01-14-44V78H0zm28 386c-3-26-2-53 8-77 9-19 24-36 44-43a71 71 0 0126-4h182v74h-74v55h74v75H104c-17-1-35-7-48-19-17-16-25-39-28-61zm64-8c2 7 8 13 16 13l48 1v-56h-41c-4 0-8-1-12 1a20 20 0 00-11 12 49 49 0 000 29zM33 872v-75h178a15 15 0 0012-6c5-6 5-15 3-23-1-7-7-13-14-12H33v-75l168 1 12-1c7 0 12-6 13-12 2-7 2-16-2-22a14 14 0 00-12-7H34v-75h162c12 1 24 0 35 3a72 72 0 0140 24c15 18 21 41 21 64 1 23-6 45-20 63 12 14 18 32 20 50 0 14 0 29-4 43-4 17-13 33-27 44a77 77 0 01-47 16H34zm218-724c3 9 14 15 24 12a17 17 0 009-9c5-7 2-18-5-23a18 18 0 00-22 2c-5 4-7 11-6 18zm4 0a14 14 0 007 8c7 4 18 0 21-8 4-10-5-21-15-20-10 0-17 11-13 20zm3 1h21v-2h-9v-4l9-6v-3l-9 6c0-6-9-7-11-2l-1 11zm3-2h6v-8c-1-1-4-2-5 0-2 2-1 5-1 8zM34 1457c-1-14-2-29-1-43l1-63h61l-1 91c0 4 0 8 3 11a10 10 0 0013 0 34 34 0 014-3l21-42c9-20 19-40 35-55a61 61 0 0137-15c11 0 22 0 32 4a63 63 0 0139 34 92 92 0 019 36v51l-1 41v18h33v1l-21 25-21 25-1 2-20 24-2-1-62-75h-2l35-1 1-97c0-3 0-7-2-10-4-5-12-5-16-1-5 5-8 11-10 17-12 23-21 47-37 68-6 9-15 18-25 22-10 5-22 7-33 7a64 64 0 01-54-27c-9-13-14-28-15-44zm-1-132l1-75h175c8 1 15-5 18-12l1-4a27 27 0 011-6c1-6 1-12-1-18-2-8-9-16-18-16H34v-75l177 1a70 70 0 0139 9l17 14a29 29 0 015 7l5 7 2 3a42 42 0 012 4 86 86 0 015 13l3 10a160 160 0 014 41l-1 15-1 6-1 6-4 14a200 200 0 01-7 17 114 114 0 01-9 13c-5 6-11 11-18 15a33 33 0 01-5 3 70 70 0 01-33 8H33zm1-228l-1-122 3-21h-2 2l1-7 1-4a69 69 0 015-12l4-8c9-13 23-23 39-26 15-4 31-3 45 5a69 69 0 0122 21 139 139 0 0112-16l7-7 3-2a83 83 0 0110-5c15-6 33-6 49-2s30 14 39 27a17 17 0 002 3l2 4 2 3c5 10 7 20 8 31l1 31v106H115l-81 1zm55-75h45v-34a18 18 0 00-8-15c-6-4-14-4-21-3-5 1-10 3-13 8l-3 9v35zm94 0h48v-39a18 18 0 00-11-17l-3-1c-10-3-23-2-30 6a15 15 0 00-2 4 22 22 0 01-1 3c-2 15-1 30-1 44z"/></svg>
