<svg xmlns="http://www.w3.org/2000/svg" viewBox="0 0 238 26.2"><g fill="#fff">
  <path d="M46 .1H31.3A5.3 5.3 0 0 0 26 5.4v11.7a5.3 5.3 0 0 0 5.3 5.3H46a.3.3 0 0 0 .3-.3v-3.6a.3.3 0 0 0-.3-.3H30.7a.5.5 0 0 1-.4-.5v-4.5H42a.3.3 0 0 0 .3-.3V9.3a.3.3 0 0 0-.3-.3H30.2V4.8a.5.5 0 0 1 .6-.5h15.1a.3.3 0 0 0 .4-.4V.4a.3.3 0 0 0-.3-.3zM21.6.1H.3a.3.3 0 0 0-.3.3v3.7a.3.3 0 0 0 .3.3h8.3V22a.3.3 0 0 0 .4.3h4a.3.3 0 0 0 .3-.3V4.4h8.3A.3.3 0 0 0 22 4V.4a.3.3 0 0 0-.4-.3zM62.7 13.5L69 22a1.4 1.4 0 0 0 1 .5h4c.2 0 .3 0 .3-.2a2.2 2.2 0 0 0-.3-.6l-7.8-10.4L74.1 1a2.4 2.4 0 0 0 .4-.6c0-.1 0-.2-.4-.2h-4a1.3 1.3 0 0 0-1 .5L62.7 9 56.2.6a1.3 1.3 0 0 0-1-.5h-4c-.2 0-.3 0-.3.2a2.4 2.4 0 0 0 .3.6L59 11.2l-7.8 10.4a2.2 2.2 0 0 0-.4.6l.4.2h4a1.4 1.4 0 0 0 1-.5zM101.2.1h-3.8a.3.3 0 0 0-.3.3V9H84.4V.4a.3.3 0 0 0-.3-.3h-3.8a.3.3 0 0 0-.3.3v21.7a.3.3 0 0 0 .3.3h3.8a.3.3 0 0 0 .3-.3v-8.9h12.7v8.9a.3.3 0 0 0 .3.3h3.8a.3.3 0 0 0 .3-.3V.4a.3.3 0 0 0-.3-.3zM153.4.1h-11.1a5.3 5.3 0 0 0-5.3 5.3v16.7a.3.3 0 0 0 .3.3h3.8a.3.3 0 0 0 .3-.3V4.9a.5.5 0 0 1 .5-.5h12a.5.5 0 0 1 .4.5V22a.3.3 0 0 0 .4.3h3.7a.3.3 0 0 0 .4-.3V5.4a5.3 5.3 0 0 0-5.4-5.3zM207 .1h-9.6a5.3 5.3 0 0 0-5.3 5.3v16.7a.3.3 0 0 0 .3.3h3.7a.3.3 0 0 0 .3-.3v-6h11.1c3 0 4.8-2.4 4.8-5.3V5.4A5.3 5.3 0 0 0 207 .1zm1 11.3a.5.5 0 0 1-.5.5h-11V4.7a.5.5 0 0 1 .4-.5h10.6a.5.5 0 0 1 .5.5zM228.6 10.6l8.2-9.8s.7-.7-.5-.7h-3.5a1.4 1.4 0 0 0-1 .5l-7.1 8.6h-3V.4a.3.3 0 0 0-.4-.3h-3.6a.3.3 0 0 0-.4.3v21.7a.3.3 0 0 0 .4.3h3.6a.3.3 0 0 0 .3-.3v-8.6h4.1l7 8.4a1.6 1.6 0 0 0 1 .5h3.6c1.2 0 .5-.8.5-.8z"/><path d="M125.3.1h-12a5.3 5.3 0 0 0-5.3 5.3v8.3a5.3 5.3 0 0 0 5.3 5.3h12a5.3 5.3 0 0 0 5.4-5.3V5.4a5.3 5.3 0 0 0-5.3-5.3zm1 14a.5.5 0 0 1-.5.6h-13a.5.5 0 0 1-.5-.5V4.9a.5.5 0 0 1 .5-.5h13a.5.5 0 0 1 .5.5z"/><rect width="22.6" height="4.2" x="108" y="22.1" rx=".3" ry=".3"/><path d="M169.3 17.3l-1.6 4.8s0 .3-.3.3h-3.8a.2.2 0 0 1-.2-.3l5.8-17.7c.7-2.2 2.3-4.4 6.4-4.4s5.6 2.2 6.3 4.4l5.8 17.7a.2.2 0 0 1-.2.3h-3.8c-.2 0-.3-.3-.3-.3l-1.6-4.8zm6.2-4h5L178 5.8a2.7 2.7 0 0 0-5 0l-2.5 7.5z"/>
</g></svg>
