<svg xmlns="http://www.w3.org/2000/svg" viewBox="0 0 983 488"><path fill="#fff" d="M332 458l13-28c1-4 4-4 8-4 2 0 2 1 2 3v45c0 4-3 2-5 2s-4 1-4-3a152 152 0 00-1-24l-7 16c-1 3-2 4-6 4-3 1-4-2-5-4a124 124 0 00-8-16v23c0 5-2 4-5 4-4 1-4 0-4-4v-42c0-1-2-4 1-4s6-2 8 3l12 26 1 3zM36 449l-8 17c-1 3-2 3-5 3s-4 0-5-3a123 123 0 00-9-18v24c0 4-1 4-5 4-3 0-4-1-4-4v-41c0-2-1-5 2-5s6-1 8 3l11 24 2 5 12-27c2-4 4-5 8-5 2 0 3 1 3 3v44c0 4-2 3-5 3s-4 1-4-3v-24zM853 447v16c0 2-2 6 3 6 2 0 2 1 2 2v12c0 3 0 5-4 5-4-1-4-2-4-5 0-7 0-7-7-7h-21c-5 0-7 1-6 6s-1 6-5 5c-2 0-3-1-3-3v-9c0-3 0-6 5-7 3-1 4-5 5-9l1-29c1-3 1-4 4-4h26c3 0 4 1 4 3v18zm-30 21l18 1c3 0 3-2 3-4v-20c0-11 0-11-11-11-5-1-6 1-6 5 0 10 0 20-4 29zM973 444l-19 29c-1 1-2 3-4 3-5 1-7 0-7-5v-40c0-3 0-5 5-5s4 2 4 5v29c2 0 3-2 3-3l19-28c2-4 4-3 7-3 2 0 2 2 2 3v44c0 5-3 3-5 3s-4 1-4-3v-24c0-1 1-3-1-5zM708 476c3-7 2-16 8-22 2-1 0-1-1-2-5-4-6-9-5-16a13 13 0 0113-10h20c2 0 3 1 3 3v45c0 3-3 2-5 2s-4 1-4-3v-15c0-2-1-3-4-3-8 0-10 2-13 9l-1 5c-2 8-2 8-11 7zm22-28c2-2 6 2 7-2v-10c0-2-1-2-2-2h-12c-3 1-4 4-4 7s2 5 5 6a44 44 0 006 1zM213 451v22c0 3-2 3-4 3-3 0-5 1-5-3v-15c0-2-1-3-3-3h-12c-3 0-4 0-4 4v14c0 4-2 4-4 3-2 0-5 1-5-3v-44c0-4 3-3 5-3s4 0 4 3v15c0 2 1 3 3 3h12c3 0 4-1 4-4v-14c0-4 2-3 5-3s4-1 4 3v22zM561 451l-1 12c-2 9-9 14-19 14-9-1-16-6-17-15a65 65 0 01-1-21c2-10 9-16 20-15s17 7 17 17l1 8zm-9 1v-9c-1-5-4-9-9-9-6 0-10 2-11 8a61 61 0 000 18c1 6 5 9 10 8 5 0 9-3 9-9a71 71 0 000-7zM627 450v-9c2-10 9-15 19-15s16 5 18 14a67 67 0 010 21c-1 10-8 16-19 16-11-1-17-7-18-18v-9zm28 1v-8c0-5-4-9-9-9s-10 3-10 9a119 119 0 000 16c0 6 4 9 9 9s10-3 10-9a68 68 0 000-8zM865 451v-21c0-3 0-4 4-4h27c3 0 3 2 3 4s0 4-3 4h-19c-3 0-3 1-3 3-1 10-1 10 9 10h8c3 0 4 0 4 4s-2 4-4 4h-13c-4-1-4 1-4 4 0 9 0 9 8 9h14c4 0 3 3 3 5s0 3-3 3h-28c-3 0-3-1-3-3v-22zM446 451v-21c0-3 1-4 4-4h27c3 0 3 1 3 4 0 2 0 4-3 4h-18c-3 0-4 1-4 3 0 10 0 10 9 10h8c2 0 4 0 5 4 0 3-2 4-5 4h-13c-3 0-4 1-4 3 0 10 0 10 10 10h11c3 0 4 1 4 4s-1 4-4 4h-25c-4 0-5 0-5-4v-21zM269 451v-21c0-3 0-4 3-4h27c4 0 4 1 4 4s0 4-4 4h-18c-2 0-3 1-3 3-1 10-1 10 9 10h7c3 0 5 0 5 4s-2 4-5 4h-13c-2 0-3 0-3 3-1 10-1 10 9 10h13c3 0 3 2 3 4-1 2 1 5-3 4h-28c-3 0-3-1-3-3v-22zM263 476c-9 1-9 1-11-7-1-3-3-4-6-4a33 33 0 01-5 0c-9 0-9 0-12 8-3 6-7 2-11 3l15-39 3-7c1-3 2-4 5-4s4 1 5 4l16 42 1 4zm-22-39l-6 18c-1 1 0 2 1 2h9c2 0 2-1 2-2l-6-18zM56 451v-21c-1-5 2-4 4-4 3 0 5 0 5 4v13c-1 3 0 3 3 3l13 1c8 2 12 7 12 14s-4 13-12 14c-7 2-15 1-23 1-3 0-2-2-2-3v-22zm15 17h8c4-2 6-6 4-10-2-3-15-5-18-3v12c1 3 4 1 6 1zM160 450c6 3 8 8 8 14-1 6-6 10-11 11-9 3-19 1-24-5-1-2-4-4-1-5 2-1 5-5 8-1s7 5 12 4c4-1 7-3 7-7-1-5-3-7-7-7a13 13 0 00-4 0c-3 0-3-2-3-4 0-3 0-4 3-4 4 0 8 0 10-5a5 5 0 00-2-6c-4-2-11-2-14 2s-5 2-8 0c-1 0-2-1-1-2 1-5 10-10 18-9 9 0 14 3 16 10s-1 10-7 14zM603 459l-7 10c-4 8-4 8-14 7l10-16c6-6 6-13 0-19l-8-13a2 2 0 010-1c8-2 8-2 12 5l7 11 6-11c4-7 5-7 13-5l-12 19c-2 4-2 6 0 9l13 21c-9 1-9 1-13-6l-6-11a5 5 0 00-1 0zM436 452v21c0 4-2 3-5 3s-4 1-4-3v-14c0-3 0-5-4-3a20 20 0 01-9 1c-9 0-14-5-14-14v-12c-1-4 0-5 4-5s5 1 4 5a105 105 0 000 11c0 4 2 7 6 8a15 15 0 0012-3l1-3v-15c0-4 3-3 5-3s4-1 4 3v23zM765 455v-18c0-2 0-3-3-3h-6c-3 0-5 0-5-4s2-4 5-4h28c3 0 4 0 4 4 0 2 0 4-4 4-10 0-10 0-10 11v28c0 4-2 3-5 3s-4 0-4-3v-18zM682 455v-17c0-3-1-4-4-4h-5c-3 0-5 0-5-4s2-4 5-4h28c3 0 4 1 4 4s0 4-4 4c-10 0-10 0-10 11v27c0 4-2 4-5 5-3 0-4-1-4-5v-17zM915 455v-17c0-4-1-5-5-4h-5c-2 0-4 0-4-4s2-4 5-4h28c3 0 4 1 4 4s-1 4-4 4c-10 0-10 0-10 10v29c0 3-2 3-5 3-2 0-5 1-4-3v-18zM487 451v-22c0-2 1-3 3-3h28c3 0 3 2 3 4s0 4-3 4h-17c-4 0-5 1-5 5v33c0 3-1 4-4 4s-5 0-5-4v-21zM106 451v22c0 4-2 3-5 3-2 0-4 0-4-3v-43c0-4 2-4 4-4s5 0 5 4v21zM374 472c1 5-3 9-5 13l-3 1c-1 0-2-1-1-2 2-4 0-8-1-12 0-4 0-6 5-6s6 2 5 6zM675 198l4-4c0-2-3-3-4-5l-88-88c-1-1-3-2-3-5l-5-4-90-89c-3-3-4-3-7 0l-20 20-73 73-6 6-88 89-3 3 93 93 4 4 4 4 89 89c3 3 5 3 8 0l89-90 5-3a8 8 0 012-4l1-1 88-88zm-230-87c5-6 11-6 17-4 8 2 16 5 25 10-4-10-8-18-10-27-1-6 0-12 4-16 2-2 4-2 6 0s6 4 4 7c-3 4-3 8-1 12l11 27a12 12 0 002 4l18 18c2 1 2 3 1 5-4 6-7 6-12 1a19 19 0 01-2-2 79 79 0 00-41-26c-5-1-10-3-16 0-3 2-5-2-7-4-1-2-1-3 1-5zm-8 120c-2 2-4 5-8 2l-41-42c-2-3-4-2-6 0a46 46 0 01-6 6c-1 1-2 4-5 2s-5-3-6-6l2-4 28-28c2-1 3-3 5-2 3 2 5 4 7 9a38 38 0 00-5 3c-8 8-8 8 0 16l37 36c3 4 1 6-2 8zm9-38a224 224 0 01-27-27c-6-7-7-16-3-25s12-14 23-14c6 0 11 3 16 7l23 23c9 10 9 23 1 33-10 10-22 11-33 3zm52 109c-2 0-10-7-10-10s8-9 10-9 10 8 10 10-7 9-10 9zm63-61c-7 6-13 8-21 4l-17-8c-5-3-6 2-9 4-2 2 1 4 2 5l18 17c4 4 0 6-2 8s-4 5-8 1l-50-50c-2-2-2-3 0-5l15-16c5-4 10-7 18-7 12 0 24 14 21 28-1 2 0 4 2 5 5 1 9 4 14 6 3 1 6 1 9-1 4-3 6 1 8 3s2 4 0 6zm9-17c-8 0-13-2-18-6l-38-38v-5c3-6 7-7 12-2l34 34c5 5 11 6 16 2 5-5 5-11 0-17l-35-35c-1-1-4-2-3-6a14 14 0 018-7l3 2 37 38c7 7 9 16 5 25s-12 15-21 15z"/><path fill="#fff" d="M385 287l-93-93-4-4-89-89c-2-2-3-4-5-4L3 288c-3 2-2 4 0 6l91 90c3 3 4 3 7 0l89-89c5-5 4-5 9 0l89 89c3 3 4 3 7 0l40-40 54-53-4-4zM97 327c-19 1-36-16-36-36-1-21 17-37 36-37 20 0 38 18 37 36 1 19-15 37-37 37zm143-131l-42 43c-3 2-4 2-6 0l-43-43c-2-2-3-3 0-5l43-44c2-2 3-2 5 1l43 43a34 34 0 013 2l-3 3zm84 123c0 3-1 4-4 4h-57c-3 0-4-1-4-4l1-14v-15-7l-1-21c0-3 1-4 4-4h57c3 0 4 1 4 4v57zM830 150l-40-40c-4-4-9-8-12-14l-5-3-89-90c-3-3-4-3-8 0l-90 90-2 3c0 3 2 4 3 5l88 88c2 2 4 3 4 5 1-1 2 0 3 2l94 93a9 9 0 011 2l4-4 68-68 25-25-11-12-33-32zm-150-17c-21 0-37-17-36-37 0-22 16-36 36-36 21 0 37 15 37 37a36 36 0 01-37 36zm97 97c-21 0-36-16-37-37 0-19 17-37 37-36 20-1 37 17 37 37-1 20-17 36-37 36z"/><path fill="#fff" d="M199 101l89 89 4 4 3-3 88-89 6-6a9 9 0 00-1-1L294 2c-2-3-3-2-6 0l-42 42-52 53c2 0 3 2 5 4zm93-41c21 0 36 16 36 37s-16 36-36 36c-21 0-37-16-37-37 1-20 15-36 37-36zM682 196c-1-1-2-3-3-2l-4 4-88 88-1 1a8 8 0 00-2 4 10 10 0 001 1l93 93c2 3 3 1 5 0l60-61 34-34a9 9 0 00-1-1l-94-93zm-2 131c-22 0-37-18-37-37 1-19 17-37 38-36 18-1 36 17 36 37-1 20-16 36-37 36zM968 93L878 3c-3-3-4-3-7 0l-73 73-20 20c3 6 8 10 12 14l40 40 33 32 11 12a12 12 0 001-1l94-94c3-3 1-4-1-6zm-48 7l-42 42-4 2c-2 0-2-1-3-2l-42-42c-3-2-3-4 0-7l43-42c2-3 3-2 6 0l42 42c3 3 2 4 0 7zM508 208c-4-2-8-1-11 2l-6 6c-2 2-2 3 0 5l11 11c1 1 2 2 3 1 4-1 11-11 11-15 0-5-4-8-8-10zM447 144c-3-2-6-4-9-4-5 0-8 3-10 6a10 10 0 001 12 288 288 0 0025 24c6 5 11 4 16-1 4-4 3-10-1-15l-22-22z"/></svg>
