<svg xmlns="http://www.w3.org/2000/svg" viewBox="0 0 43.44 104.58"><path fill="#fff" d="M.17 71.27a.43.43 0 00-.09.6A220.82 220.82 0 0024.68 100a22.41 22.41 0 013 3.15c.06.2.06.33 0 .39-.94.78-7.5-1.56-12-4a64.75 64.75 0 00-11.47-4.8.43.43 0 00-.23.83 64.53 64.53 0 0111.26 4.83c.11.06 10.92 5.56 13 3.85a1.12 1.12 0 00.27-1.3c-.18-.57-1.13-1.49-3.19-3.5A221.12 221.12 0 01.77 71.36a.43.43 0 00-.6-.09zm13.39-30a86.49 86.49 0 001.38 10.46 373.39 373.39 0 01-4.51-8.5.39.39 0 00-.34-.21H10a.38.38 0 00-.28.39c.27 5.3 2.74 11.62 4.22 15.4l.48 1.19c.66 1.72.47 2 .47 2.05a3.51 3.51 0 01-1-.41l-.25-.13a.53.53 0 00-.67.07c-.84.83 1.82 6.44 1.85 6.49.69 1.43 1.66 3.09 2.51 4.55a37.8 37.8 0 011.74 3.17 24.23 24.23 0 01-3.05-2.26l-.11-.09a.45.45 0 00-.28-.09.44.44 0 00-.25.08c-.33.27-.33.27 1.92 4.46l1.56 2.95.63 1.21c1.27 2.39 3.18 6 3.15 8.17 0 .23-.05.39-.12.41h-.1a3.66 3.66 0 01-1.56-.87c-.76-1.81-2-4.6-3-5.59a2.34 2.34 0 00-1.52-.81.86.86 0 00-.58.21c-.43.37-.46 1.42.59 2.8a25.71 25.71 0 003.87 3.86c.34.81.57 1.41.58 1.43a.39.39 0 00.36.25.35.35 0 00.14 0 .38.38 0 00.22-.5l-.15-.39a2.65 2.65 0 001.11.39.82.82 0 00.28 0c.29-.09.64-.37.65-1.13 0-2.36-1.86-5.94-3.24-8.54l-.63-1.2-1.57-3-1.34-2.52c1.83 1.43 2.53 1.75 2.87 1.75a.45.45 0 00.29-.1A.56.56 0 0020 76a27.33 27.33 0 00-2-3.72 65.91 65.91 0 01-2.48-4.5 25.46 25.46 0 01-1.95-5.4 3.05 3.05 0 001.29.46.77.77 0 00.52-.18c.45-.4.37-1.23-.27-2.89l-.49-1.26c-1.28-3.27-3.31-8.47-4-13.19 4.09 7.9 4.73 8.8 5.08 8.8a.7.7 0 00.14 0c.1 0 .33-.17.23-.58a77.73 77.73 0 01-1.8-12.33.4.4 0 00-.41-.36.37.37 0 00-.34.41zm3.37 44.56c-.74-1-.73-1.52-.64-1.6a.13.13 0 01.08 0 1.63 1.63 0 011 .58 16.15 16.15 0 012.2 3.89 24.5 24.5 0 01-2.61-2.85zM9 .26a3.28 3.28 0 00.18 3.13.5.5 0 00.33.13h.12v.41a16.21 16.21 0 00.19 4.44l.15 1.23c.12 1.46-.11 5-.41 5.35s-.2 1.29 1.07 5.23l.58 1.92a1.09 1.09 0 010 .13 4.83 4.83 0 01-.64-.33l-.31-.19a.38.38 0 00-.19-.05.52.52 0 00-.25.07c-.27.21-.52.4 1.41 8.07a5 5 0 01.29 1.94.18.18 0 00-.07.05c-.07.09-.16.19-.12.3.83 2.41 1.93 6.59 1.37 7.55v.06a1.54 1.54 0 01-.46-.46c-1-1.34-2.11-4.57-2-5.64a2.36 2.36 0 01.5.53.35.35 0 00.28.14.36.36 0 00.2-.06.34.34 0 00.08-.47c-.27-.38-.79-1-1.26-.9a.62.62 0 00-.46.53c-.32 1.46 1.54 6.45 2.84 7a.68.68 0 00.88-.33c.85-1.43-.78-6.56-1.22-7.86.18-.22.28-.72-.17-2.5a65.26 65.26 0 01-1.56-7.09 2.19 2.19 0 001 .42.56.56 0 00.33-.1c.34-.25.22-.75.19-.92l-.6-2A24.18 24.18 0 0110 15.38c.63-.78.65-5 .59-5.84l-.16-1.27A15.23 15.23 0 0110.26 4c.22-1.46.08-3.68-.63-4A.51.51 0 009 .26zm2.67 32a.26.26 0 01-.17 0 .48.48 0 00.17 0zm.17-.63a.53.53 0 00-.27 0l.07-.06h.2zM9.66 2.83a.35.35 0 00-.11 0 3.44 3.44 0 01-.11-2 6.17 6.17 0 01.22 2zM28.48 75.75v-.07c0-.39.2-.79.59-.79l.5.13 5.15 2.16-5.59 2.23-.33.07c-.21 0-.33-.2-.33-.56v-.07H28.18v2.8h.28v-.06a1.16 1.16 0 01.92-1.15l6.74-2.64v-.54l-6.91-2.86a1.11 1.11 0 01-.75-1.06v-.07h-.28v2.5h.3zm5.86-9.43a2.06 2.06 0 011.18 2.07v1.74c0 .68-.38.79-.61.79H32v-2.28a.86.86 0 01.29-.76.58.58 0 01.37-.11h.07l.07-.07v-.26h-2v.33h.13a.55.55 0 01.36.11.87.87 0 01.29.77v2.28H29.3c-.42 0-.64-.25-.64-.7V68.4a1.9 1.9 0 01.41-1.19 2.48 2.48 0 01.72-.52v-.39l-1.63.29v6.34h.28v-.06c.08-.87.63-.87 1-.87h5.16c.4 0 1 0 1 .87v.06h.4v-6.6L34.33 66v.32zm-5.87-7v-.06c.08-.8.57-.87 1-.87h5l-6.3 4.77V65h.28c.07-.72.52-.87.87-.87h5.32c.46 0 1 .07 1 .87H36v-2.36h-.28v.06c-.08.8-.57.87-1 .87h-5.18l6.58-5.21v-.52h-6.61c-.46 0-1-.07-1-.87v-.06h-.28v2.39h.28zm-.28-4.51l1.66.66v-.32a3.86 3.86 0 01-1.2-3.23v-1.38L36 55.89v-6.33l-1.76-.62v.32c.66.48 1.3 1.23 1.3 3.64v1.31l-7.35-5.31v5.9zm6.55-13.11l-6.91 2.4v.63h.05a1.34 1.34 0 01.95 1.27v.06h.3v-.29c0-.27.11-.41.28-.41h.23l5.2 2.07a1.3 1.3 0 01.84 1.14v.06H36v-2.37h-.3v.07a.53.53 0 01-.55.6h-.17l-1.36-.47V43.2l1.38-.44.24-.06c.29 0 .49.25.49.63v.21H36v-3.07h-.28v.06a1.31 1.31 0 01-.95 1.16zm-1.58 4.57l-3.86-1.55 3.86-1.33v2.87zm-4.69-11.75v-.06c.08-.8.57-.87 1-.87h5l-6.3 4.77v1.88h.28v-.06c.07-.72.52-.87.87-.87h5.32c.46 0 1 .07 1 .87v.06H36v-2.39h-.28v.06c-.08.8-.57.87-1 .87h-5.18l6.58-5.21v-.52h-6.61c-.46 0-1-.07-1-.87v-.06h-.28v2.39h.28zM29.36 24a4.28 4.28 0 000 6.18 4 4 0 005.45 0 4.28 4.28 0 000-6.18 4 4 0 00-5.45 0zm5.2.89a2.75 2.75 0 011.11 2.2 2.78 2.78 0 01-1.11 2.2 4.33 4.33 0 01-2.48.71 4.25 4.25 0 01-2.48-.71 2.75 2.75 0 01-1.11-2.2 2.78 2.78 0 011.11-2.2 4.33 4.33 0 012.48-.71 4.38 4.38 0 012.48.71zM42.77 65.28a1.41 1.41 0 01.14.61 1 1 0 01-1 1 1 1 0 01-1.07-1 1.34 1.34 0 01.12-.58h-.53a1.81 1.81 0 00-.11.65 1.5 1.5 0 001.6 1.62A1.45 1.45 0 0043.44 66a2.28 2.28 0 00-.13-.75h-.54zm-2.52-2.51a1.6 1.6 0 101.59-1.43 1.41 1.41 0 00-1.59 1.43zm.45 0c0-.22.09-.8 1.14-.8s1.14.58 1.14.8-.09.8-1.14.8-1.14-.58-1.14-.8zm-.41-2.6h3.1v-1.75h-.52v1.16h-2.58v.59zm0-2.82h3.1V55.6h-.52v1.16h-2.58v.59zm0-2.81h3.1V52.8h-.55V54h-.79v-1.1h-.51V54h-.7v-1.2h-.55v1.74zm2.48-5.07a1.41 1.41 0 01.14.61 1 1 0 01-1 1 1 1 0 01-1.07-1 1.34 1.34 0 01.12-.58h-.53a1.81 1.81 0 00-.11.65 1.5 1.5 0 001.6 1.62 1.45 1.45 0 001.57-1.52 2.28 2.28 0 00-.13-.75h-.54zm-2.48-.95h.55v-.84h2.55v-.59h-2.55v-.84h-.55v2.27zm3.1-3.33v-.59h-3.1v.59zM40.25 42a1.6 1.6 0 101.59-1.43A1.41 1.41 0 0040.25 42zm.45 0c0-.22.09-.8 1.14-.8s1.16.58 1.16.8-.09.8-1.14.8-1.14-.58-1.14-.8zm-.41-2.6h3.1v-.59H41l.35-.15 2-1v-.77h-3.1v.59h2.38l-.42.15-2 1v.78z"/></svg>
