<svg xmlns="http://www.w3.org/2000/svg" viewBox="0 0 512 512"><path d="M256 117c-77.2 0-140 62.8-140 140s62.8 140 140 140 140-62.8 140-140-62.8-140-140-140zm0 260a120.1 120.1 0 1 1 120-120c0 66.2-53.8 120-120 120zm0 0"/><path d="M502 343.8V10a10 10 0 0 0-18-6.1 314 314 0 0 0-57.6 122A213.6 213.6 0 0 0 256 42a213.6 213.6 0 0 0-156 67V10a10 10 0 1 0-20 0v120H60V10a10 10 0 1 0-20 0v120H20V10a10 10 0 1 0-20 0v130c0 15.8 7.5 30.6 20 40v163.8C14 399.6 10 462.6 10 472a40 40 0 0 0 80 0c0-7-2.2-44.1-5.9-85.8A213.6 213.6 0 0 0 256 472c57.4 0 111.4-22.4 152-63a216.4 216.4 0 0 0 31.4-39.7c-4.6 48-7.4 94.7-7.4 102.7a40 40 0 0 0 80 0c0-9.4-4-72.4-10-128.2zM462 275h20v20h-20zm-20-124.7A294 294 0 0 1 482 42v213h-25.9L442 240.9zM40 275h20v20H40zm38.3-125c-2.4 6.6-7 12.4-13.3 16-3.1 1.8-5 5-5 8.6V255H40v-80.4a10 10 0 0 0-5-8.6c-6.3-3.6-11-9.4-13.3-16zM50 492c-11 0-20-9-20-20 0-7.6 10-127.3 10-127.7V315h20v29.3c0 .4 10 120 10 127.7 0 11-9 20-20 20zm206-40A195.3 195.3 0 0 1 80 341V180a50.2 50.2 0 0 0 20-39.8 194.8 194.8 0 0 1 322 14.7v90c0 2.7 1 5.3 3 7.2l17 17v46.5c-25 79-98.9 136.4-186 136.4zm216 40c-11 0-20-9-20-20 0-7.6 10-127.3 10-127.7V315h20v29.3c0 .4 10 120 10 127.7 0 11-9 20-20 20zm0 0"/><path d="M257.3 337a10 10 0 0 0-9.9 10.1 10 10 0 0 0 10 9.9h.2a10 10 0 0 0-.3-20zm0 0M336 257c0 30.6-17 58-44.5 71.7a10 10 0 0 0-4.5 13.4 10 10 0 0 0 13.4 4.5A100.1 100.1 0 0 0 356 257a10 10 0 0 0-20 0zm0 0"/></svg>