<svg xmlns="http://www.w3.org/2000/svg" viewBox="0 0 33 33"><path d="M24.2 24.5H8.8a.5.5 0 0 1-.5-.5v-8.12a4.12 4.12 0 0 0-4.1-4.11A3.2 3.2 0 0 0 1 14.96c0 1.35 1.1 2.45 2.45 2.45 1.03 0 1.87-.83 1.87-1.86 0-.77-.63-1.39-1.4-1.39a.5.5 0 0 1 0-1 2.4 2.4 0 0 1 2.4 2.4 2.87 2.87 0 0 1-2.87 2.85A3.46 3.46 0 0 1 0 14.96a4.2 4.2 0 0 1 4.2-4.2c2.81 0 5.1 2.3 5.1 5.12v7.63h14.4v-7.63c0-2.82 2.29-5.11 5.1-5.11a4.2 4.2 0 0 1 4.2 4.19c0 1.9-1.55 3.45-3.45 3.45a2.87 2.87 0 0 1-2.87-2.86 2.4 2.4 0 0 1 2.4-2.39.5.5 0 0 1 0 1 1.4 1.4 0 0 0-1.4 1.4c0 1.02.84 1.85 1.87 1.85 1.35 0 2.45-1.1 2.45-2.45a3.2 3.2 0 0 0-3.2-3.2 4.12 4.12 0 0 0-4.1 4.12v8.13a.5.5 0 0 1-.5.5z"/><path d="M28.1 29.3H5.01a2.07 2.07 0 0 1-2.06-2.06v-9.32a.5.5 0 0 1 1 0v9.32c0 .59.47 1.06 1.06 1.06h23.07c.59 0 1.06-.47 1.06-1.06v-9.32a.5.5 0 0 1 1 0v9.32c0 1.14-.92 2.06-2.06 2.06z"/><path d="M24.2 20.27H8.8a.5.5 0 0 1 0-1h15.4a.5.5 0 1 1 0 1zM8.8 30.93a.5.5 0 0 1-.5-.5V29.2a.5.5 0 0 1 1 0v1.23a.5.5 0 0 1-.5.5zM24.2 30.93a.5.5 0 0 1-.5-.5V29.2a.5.5 0 0 1 1 0v1.23a.5.5 0 0 1-.5.5zM27.56 11.77a.5.5 0 0 1-.5-.5V8a4.94 4.94 0 0 0-4.93-4.94H10.98a4.94 4.94 0 0 0-4.94 4.94v3.26a.5.5 0 0 1-1 0V8a5.94 5.94 0 0 1 5.94-5.94h11.15a5.94 5.94 0 0 1 5.93 5.94v3.26a.5.5 0 0 1-.5.5z"/></svg>