<svg xmlns="http://www.w3.org/2000/svg" viewBox="0 0 416 416"><path d="M70 73H54v54h17c15 0 27-8 27-27S86 73 70 73zm-1 43h-1V84h1c8 0 14 3 14 16s-6 16-14 16zM130 72c-15 0-25 10-25 28s10 28 25 28 25-10 25-28-10-28-25-28zm0 44c-6 0-10-6-10-16s4-16 10-16c7 0 11 6 11 16s-4 16-11 16zM198 111c-2 3-5 5-9 5-7 0-12-6-12-16s6-16 12-16c4 0 6 2 9 4l8-9c-4-4-10-7-17-7-14 0-26 10-26 28 0 19 12 28 26 28 6 0 13-3 17-8l-8-9zM240 100l14-27h-15l-3 9-4 9-4-9-3-9h-16l13 26-14 28h15l4-10 4-9c1 4 2 7 4 9l4 10h16l-15-27zM32 112h16v16H32z"/><path d="M414 82L334 2l-6-2H120C98 0 80 18 80 40H40C18 40 0 58 0 80v40c0 22 18 40 40 40h40v184c0 22 18 40 40 40h24a8 8 0 100-16h-24c-13 0-24-11-24-24V160h152c22 0 40-18 40-40V80c0-22-18-40-40-40H96c0-13 11-24 24-24h192v48c0 22 18 40 40 40h48v240c0 13-11 24-24 24h-24a8 8 0 100 16h24c22 0 40-18 40-40V88l-2-6zM248 56c13 0 24 11 24 24v40c0 13-11 24-24 24H40c-13 0-24-11-24-24V80c0-13 11-24 24-24h208zm104 32c-13 0-24-11-24-24V19l69 69h-45z"/><path d="M296 256h-96c-22 0-40 18-40 40v80c0 22 18 40 40 40h96c22 0 40-18 40-40v-80c0-22-18-40-40-40zm24 120c0 13-11 24-24 24h-96c-13 0-24-11-24-24v-80c0-13 11-24 24-24h96c13 0 24 11 24 24v80z"/><path d="M264 293l-48 48v35h35l48-48-35-35zm-19 67h-13v-13l32-32 13 13-32 32z"/></svg>
