<svg xmlns="http://www.w3.org/2000/svg" viewBox="0 0 59 59"><path d="M58 57a8 8 0 0 1-8-8v-.03A28.9 28.9 0 0 0 58 29C58 13.01 44.99 0 29 0S0 13.01 0 29s13.01 29 29 29c7.34 0 14.05-2.75 19.16-7.26A10 10 0 0 0 58 59a1 1 0 1 0 0-2zM2 29C2 14.11 14.11 2 29 2s27 12.11 27 27-12.11 27-27 27S2 43.89 2 29z"/><path d="M29 4C15.21 4 4 15.21 4 29s11.21 25 25 25 25-11.21 25-25S42.78 4 29 4zm0 48C16.32 52 6 41.68 6 29S16.32 6 29 6s23 10.32 23 23-10.32 23-23 23z"/><path d="M41 22c-.33 0-.66.03-.98.08l-.02-.04-.75.19h-.03c-.37.1-.73.23-1.07.38l-.04.02c-.34.16-.66.33-.97.53l-.02.02c-.28.19-.55.4-.8.63l-.15.14c-.23.22-.45.45-.65.7l-.12.17c-.2.27-.39.54-.55.84v.01c-.17.3-.3.61-.42.94l-.06.17a7 7 0 0 0-.25.97l-.03.19a7.13 7.13 0 0 0 0 2.12c0 .07.02.13.03.19.06.33.14.66.25.97l.06.17c.12.32.25.64.41.94l.01.02c.16.29.35.56.55.83l.12.16c.2.26.42.5.65.71l.15.14c.26.23.52.44.8.63l.03.02c.3.2.62.37.96.53l.04.02c.35.15.7.28 1.07.37l.03.01.75.2.02-.05A7 7 0 1 0 41 22zm-1 7c0 1.58-.34 3.15-1 4.58a5.01 5.01 0 0 1-.71-.4c-.08-.04-.16-.1-.24-.16a5.24 5.24 0 0 1-1.13-1.14l-.08-.1c-.16-.24-.29-.5-.4-.76l-.1-.23a4.9 4.9 0 0 1-.2-.63l-.05-.26a5.05 5.05 0 0 1 0-1.8l.06-.26c.05-.22.12-.43.2-.63l.08-.23c.12-.26.25-.52.41-.75l.08-.1c.14-.2.3-.4.47-.57l.2-.2c.14-.13.3-.26.47-.38l.23-.17c.22-.15.46-.28.71-.39.66 1.43 1 3 1 4.58zm1 5h-.01a13 13 0 0 0 0-10H41a5 5 0 0 1 0 10zM22.48 33.34l.12-.16c.2-.27.39-.54.55-.83v-.03c.17-.3.3-.6.42-.93l.06-.17c.1-.31.2-.64.25-.97l.03-.19a7.14 7.14 0 0 0 0-2.12c0-.07-.02-.13-.03-.19a6.92 6.92 0 0 0-.25-.97l-.06-.18a6.85 6.85 0 0 0-.41-.93l-.01-.02a7.1 7.1 0 0 0-.55-.83l-.12-.17c-.2-.25-.42-.48-.65-.7l-.15-.14a7.03 7.03 0 0 0-.8-.63l-.03-.02a7.1 7.1 0 0 0-.96-.53l-.04-.02c-.35-.15-.7-.28-1.07-.37l-.03-.01-.75-.2-.03.05A7 7 0 1 0 17 36c.33 0 .66-.03.98-.08l.02.04.75-.19h.03c.37-.1.72-.23 1.07-.38l.04-.02c.34-.16.66-.33.97-.53l.02-.02c.28-.19.54-.4.8-.63l.15-.13c.23-.23.45-.46.65-.72zm-.57-3.44l-.06.26a4.9 4.9 0 0 1-.2.63l-.08.23c-.12.26-.26.52-.41.75l-.08.1c-.14.2-.3.4-.47.57l-.2.2c-.15.13-.3.26-.47.38l-.23.17c-.23.15-.46.28-.71.39a11.04 11.04 0 0 1 0-9.16c.25.11.49.24.71.4a5.24 5.24 0 0 1 1.36 1.31l.09.1c.16.23.29.49.4.75l.1.23.2.63.05.26a5.05 5.05 0 0 1 0 1.8zM12 29a5 5 0 0 1 5-5h.01A13 13 0 0 0 16 29a13 13 0 0 0 1.01 5H17a5 5 0 0 1-5-5zM22.04 18l.19.75v.03c.1.37.23.72.38 1.07l.02.04c.16.34.33.66.53.96l.02.03c.19.28.4.54.63.8l.14.15c.22.23.45.45.7.65l.17.12a6.99 6.99 0 0 0 1.79.97l.17.06a7 7 0 0 0 .97.25l.19.03a7.15 7.15 0 0 0 2.12 0c.07 0 .13-.02.19-.03.33-.06.66-.14.97-.25l.18-.06c.32-.12.63-.25.93-.41l.02-.01c.29-.16.56-.35.83-.55l.17-.12c.25-.2.48-.42.7-.65l.14-.15c.23-.25.44-.52.63-.8l.02-.02c.2-.31.37-.63.53-.97l.02-.04c.15-.35.28-.7.37-1.07l.01-.03.2-.75-.05-.02A7 7 0 1 0 22 17c0 .33.03.66.08.98l-.04.02zm11.15 1.71l-.17.23a5.24 5.24 0 0 1-1.14 1.14l-.1.08c-.24.16-.5.29-.76.4l-.23.1c-.2.07-.41.14-.63.19l-.26.06a4.96 4.96 0 0 1-1.8 0l-.26-.06a4.9 4.9 0 0 1-.63-.2l-.23-.08a4.99 4.99 0 0 1-.75-.41l-.1-.08c-.2-.14-.4-.3-.57-.47l-.2-.2c-.13-.15-.26-.3-.38-.47l-.17-.23a4.97 4.97 0 0 1-.39-.71 11.15 11.15 0 0 1 9.16 0c-.11.25-.24.49-.4.71zM29 12a5 5 0 0 1 5 5v.02a13.28 13.28 0 0 0-10 0V17a5 5 0 0 1 5-5zM35.97 40l-.2-.75v-.03c-.1-.37-.23-.72-.38-1.07l-.02-.04a6.99 6.99 0 0 0-.53-.97l-.02-.02c-.19-.28-.4-.55-.63-.8l-.13-.15a6.94 6.94 0 0 0-.72-.65l-.16-.12c-.27-.2-.54-.39-.83-.55h-.03c-.3-.17-.6-.3-.93-.42l-.17-.06c-.31-.1-.64-.2-.97-.25l-.19-.03a7.12 7.12 0 0 0-2.12 0c-.07 0-.13.02-.19.03-.33.06-.66.14-.97.25l-.17.06c-.33.12-.64.25-.94.41l-.02.01c-.29.16-.56.35-.83.55l-.16.12c-.26.2-.5.42-.72.65l-.13.15c-.23.26-.44.52-.63.8l-.02.03c-.2.3-.37.62-.53.96l-.02.05c-.15.34-.28.7-.37 1.06l-.01.03-.2.75.05.03A6.93 6.93 0 0 0 29 48a7 7 0 0 0 6.92-7.98l.05-.02zM24.8 38.3l.17-.23a5.24 5.24 0 0 1 1.14-1.14l.1-.08c.24-.16.5-.29.76-.4l.23-.1c.2-.07.41-.14.63-.19l.26-.06a5.03 5.03 0 0 1 1.8 0l.26.06c.22.05.43.12.63.2l.23.08c.26.12.52.25.75.41l.1.08a4.95 4.95 0 0 1 1.15 1.14l.17.23c.15.22.28.46.39.71a11.15 11.15 0 0 1-9.16 0c.11-.25.24-.49.4-.71zM29 46a5 5 0 0 1-5-5v-.01a13 13 0 0 0 10 0V41a5 5 0 0 1-5 5z"/></svg>