<svg xmlns="http://www.w3.org/2000/svg" viewBox="0 0 100 100">
  <path d="M50 6.3c-1 0-1.9.8-1.9 1.9v9.4a1.9 1.9 0 103.8 0V8.2c0-1-.9-2-1.9-2zM50 80.5c-1 0-1.9.9-1.9 2v9.3a1.9 1.9 0 003.8 0v-9.4c0-1-.9-1.9-1.9-1.9zM93.7 50c0-1-.8-1.9-1.9-1.9h-9.4a1.9 1.9 0 000 3.8h9.4c1 0 2-.9 2-1.9zM19.5 50c0-1-.9-1.9-2-1.9H8.3a1.9 1.9 0 100 3.8h9.4c1 0 1.9-.9 1.9-1.9zM81 19c-.8-.7-2-.7-2.8 0l-6.6 6.8a1.9 1.9 0 002.7 2.6l6.6-6.6c.8-.8.8-2 0-2.7zM28.4 71.6c-.7-.8-2-.8-2.6 0L19 78.2a1.9 1.9 0 102.7 2.7l6.6-6.7c.8-.7.8-1.9 0-2.6zM81 81c-.8.6-2 .6-2.8 0l-6.6-6.8a1.9 1.9 0 012.7-2.6l6.6 6.6c.8.8.8 2 0 2.7zM28.4 28.4c-.7.8-2 .8-2.6 0L19 21.8a1.9 1.9 0 112.7-2.7l6.6 6.7c.8.7.8 1.9 0 2.6zM50 22.4a27.6 27.6 0 100 55.2 27.6 27.6 0 000-55.2z"/>
</svg>
