<svg xmlns="http://www.w3.org/2000/svg" viewBox="0 0 512 512"><path d="M53.3 0H10.7C4.7 0 0 4.8 0 10.7v42.6C0 59.3 4.8 64 10.7 64h42.6c6 0 10.7-4.8 10.7-10.7V10.7C64 4.7 59.2 0 53.3 0zM42.7 42.7H21.3V21.3h21.4v21.4zM501.3 0h-42.6c-6 0-10.7 4.8-10.7 10.7v42.6c0 6 4.8 10.7 10.7 10.7h42.6c6 0 10.7-4.8 10.7-10.7V10.7c0-6-4.8-10.7-10.7-10.7zm-10.6 42.7h-21.4V21.3h21.4v21.4zM53.3 448H10.7c-6 0-10.7 4.8-10.7 10.7v42.6c0 6 4.8 10.7 10.7 10.7h42.6c6 0 10.7-4.8 10.7-10.7v-42.6c0-6-4.8-10.7-10.7-10.7zm-10.6 42.7H21.3v-21.4h21.4v21.4zM501.3 448h-42.6c-6 0-10.7 4.8-10.7 10.7v42.6c0 6 4.8 10.7 10.7 10.7h42.6c6 0 10.7-4.8 10.7-10.7v-42.6c0-6-4.8-10.7-10.7-10.7zm-10.6 42.7h-21.4v-21.4h21.4v21.4z"/><path d="M32 42.7c-5.9 0-10.7 4.7-10.7 10.6v405.4a10.7 10.7 0 0 0 21.4 0V53.3c0-5.9-4.8-10.6-10.7-10.6zM458.7 21.3H53.3a10.7 10.7 0 0 0 0 21.4h405.4a10.7 10.7 0 0 0 0-21.4zM480 42.7c-5.9 0-10.7 4.7-10.7 10.6v405.4a10.7 10.7 0 0 0 21.4 0V53.3c0-5.9-4.8-10.6-10.7-10.6zM458.7 469.3H53.3a10.7 10.7 0 0 0 0 21.4h405.4a10.7 10.7 0 0 0 0-21.4z"/></svg>