<svg xmlns="http://www.w3.org/2000/svg" viewBox="0 0 469.3 469.3"><path d="M354.5 312.8a21.3 21.3 0 01-15-36.4l56.8-56.9A103.7 103.7 0 00249.9 73l-57 57a21.3 21.3 0 11-30-30.2l56.8-56.9a146.4 146.4 0 01206.7 206.8l-56.8 56.8a21.2 21.2 0 01-15.1 6.3zm0 0M146.3 469.3A146.4 146.4 0 0143 219.6l56.8-56.8a21.3 21.3 0 1130.1 30.2l-56.8 56.8a103.7 103.7 0 00146.3 146.5l57-56.9a21.3 21.3 0 1130.1 30.2l-56.8 56.8a144.5 144.5 0 01-103.4 43zm0 0"/><path d="M149.3 341.3a21.3 21.3 0 01-15-36.4l170.6-170.7a21.3 21.3 0 1130.2 30.2L164.4 335.1a21.3 21.3 0 01-15 6.2zm0 0"/></svg>