<svg xmlns="http://www.w3.org/2000/svg" version="1" viewBox="0 0 512 512"><path d="M498 176L336 14c-8-9-20-14-33-14-12 0-24 5-32 14L14 271c-9 8-14 20-14 32 0 13 5 25 14 33l20 20 134 135h-19a11 11 0 0 0 0 21h214a11 11 0 0 0 0-21H249l249-250c19-18 19-47 0-65zm-15 50L226 483c-4 5-11 8-17 8-7 0-14-3-18-8L56 349l247-247a11 11 0 1 0-15-15L41 334l-12-13c-5-5-8-11-8-18 0-6 3-13 8-17L286 29c4-5 11-8 17-8 7 0 13 3 18 8l58 57-247 247a11 11 0 0 0 15 15l247-247 89 90c10 10 10 26 0 35z"/><path d="M263 308c-4-4-11-4-15 0l-84 84a11 11 0 0 0 15 15l84-84c4-4 4-11 0-15zM228 388l-34 34a11 11 0 0 0 15 15l34-34a11 11 0 0 0-15-15zM260 356l-4 5a11 11 0 0 0 15 15l4-5a11 11 0 0 0-15-15zM407 164a11 11 0 0 0-15 0l-45 45c-2 2-3 5-3 8s1 5 3 7l30 30a11 11 0 0 0 15 0l45-45c4-4 4-11 0-15l-30-30zm-23 68l-15-15 31-31 15 16-31 30zM320 80c3 0 6-1 8-3l4-4a11 11 0 0 0-15-16l-4 5a11 11 0 0 0 7 18zM107 358l-4 5a11 11 0 0 0 15 15l4-5a11 11 0 0 0-15-15z"/></svg>