<svg xmlns="http://www.w3.org/2000/svg" viewBox="0 0 38 47.8"><path fill="#fff" fill-rule="evenodd" d="M31 41.8a.2.2 0 00-.2.1v1.5H29v-1.5a.2.2 0 00-.2-.1h-.5a.1.1 0 00-.1.1v3.8a.1.1 0 00.1.2h.5a.2.2 0 00.2-.2v-1.6h1.8v1.6a.2.2 0 00.2.2h.5a.2.2 0 00.1-.2v-3.8a.2.2 0 00-.1-.1zM27 40a.2.2 0 01.2.1v.5a.2.2 0 01-.2.1h-3.1a.1.1 0 01-.2-.1v-.5a.1.1 0 01.2-.1zM6.5 40a.2.2 0 00-.1.1v4c0 1 .3 1.7 1.6 1.7h.2c1.8 0 2.1-1.3 2.1-1.9a1.8 1.8 0 00-2-1.9h-1v-1.3h2.3a.2.2 0 00.2-.1v-.5a.2.2 0 00-.2-.1zm1.8 2.8A1 1 0 019.5 44c0 .7-.4 1-1.2 1H8c-.6 0-.8-.1-.8-.8V43zm11.7-1a.1.1 0 000 .1v.5a.2.2 0 00.2 0 3.4 3.4 0 011.1-.1c.7 0 .8.2.8.7l-1 .1c-1.4.1-1.5 1-1.5 1.3 0 .9.5 1.4 1.6 1.4a2 2 0 001-.3l.1.2a.1.1 0 00.2 0h.3a.1.1 0 00.1 0V43c0-1-.5-1.5-1.6-1.5a3.2 3.2 0 00-1.2.2zm.5 2.7c0-.3 0-.6.6-.7h1v1a1.5 1.5 0 01-1 .3c-.3 0-.7-.1-.7-.6zm-6.7 1.2a.1.1 0 00.1.1h.4a.2.2 0 00.1-.2V42a.2.2 0 00-.1-.1h-.5a.2.2 0 00-.2.1v2.7a1.8 1.8 0 01-1.1.5c-.5 0-.8-.3-.8-1V42a.2.2 0 00-.1-.1H11a.2.2 0 00-.2.1v2.5a1.4 1.4 0 001.4 1.5 2.2 2.2 0 001.4-.5v.4zm12.7 0a.2.2 0 00.2.1h.3a.2.2 0 00.2-.2V42a.2.2 0 00-.2-.1h-.5a.2.2 0 00-.1.1v2.7a1.8 1.8 0 01-1.1.5c-.6 0-.8-.3-.8-1V42a.2.2 0 00-.2-.1h-.5a.2.2 0 00-.1.1v2.5a1.4 1.4 0 001.4 1.5 2.1 2.1 0 001.3-.5l.1.4zm-10.8-1.4c0 .6-.2.7-.6.8a.2.2 0 00-.2.1v.4a.2.2 0 00.1.2c1 0 1.4-.5 1.5-1.5l.1-1c0-.7.2-.9.8-.9h.7v3.2a.2.2 0 00.1.2h.5a.2.2 0 00.2-.2v-3.8a.2.2 0 00-.2-.1h-1.3c-1.2 0-1.5.6-1.6 1.5zM14.3 36.2a6 6 0 009.2 0 38.4 38.4 0 01-4.6.1 36.8 36.8 0 01-4.6-.1zM24.9 33.5a6.1 6.1 0 00.1-1.3 6 6 0 00-.2-1.6H13a6 6 0 00-.2 1.6 6.3 6.3 0 00.2 1.4h11.9zM23.5 28.1a6.1 6.1 0 00-9.2 0A40.2 40.2 0 0119 28a38.9 38.9 0 014.6.1z"/><path fill="#fff" fill-rule="evenodd" d="M25 32.2a6.1 6.1 0 11-6.1-6.1 6.1 6.1 0 016.1 6zm-6.1-6.3a6.3 6.3 0 106.3 6.3 6.3 6.3 0 00-6.3-6.3z"/></svg>
