<svg xmlns="http://www.w3.org/2000/svg" viewBox="0 0 72 66"><path fill="#fff" d="M42.29 11.2a1.37 1.37 0 00-.64-.76 1.08 1.08 0 00.47-1.34A1.11 1.11 0 0041 8.31h-3.41v.08a.56.56 0 01.2.54v3.15a.88.88 0 01-.24.77h3a3.66 3.66 0 00.87-.08 1.24 1.24 0 00.87-1.57zm-2.83-2.14h1.21c.31 0 .52.15.53.48a.49.49 0 01-.52.53h-1.63c-.25 0-.29-.09-.29-.31-.01-.7-.02-.7.7-.7zm1.4 2.94a5 5 0 01-1 .05h-.32c-.25 0-.61.12-.72-.06s0-.66 0-1c0-.12.09-.14.19-.14h1.82a.57.57 0 01.03 1.15zM4.66 10.44a1.09 1.09 0 00.48-1.33 1.13 1.13 0 00-1.09-.8H.94a.48.48 0 00-.4.09c.29.13.23.39.23.62v3a.93.93 0 01-.27.87h3.2a3 3 0 00.42 0 1.28 1.28 0 001.19-.94 1.24 1.24 0 00-.65-1.51zM2.49 9.06h1.27a.43.43 0 01.43.48.42.42 0 01-.42.49H1.92a.14.14 0 01-.16-.16v-.06c.03-.91-.12-.73.73-.75zM3.89 12a4.17 4.17 0 01-1 .06h-.2c-1 0-1 0-.88-1 0-.14.05-.22.2-.21a16.37 16.37 0 011.85 0 .51.51 0 01.49.45.53.53 0 01-.46.7zM48 12.56l-1.08-1.47c-.14-.18.07-.16.15-.19a1.24 1.24 0 001-1.43 1.21 1.21 0 00-1.25-1.14c-1.12-.09-2.25 0-3.37 0l-.07.07c.2.12.21.31.21.52v3.07c0 .29.06.6-.21.84h1.4c0-.16-.18-.2-.18-.34V11.2c0-.17.11-.17.23-.18.61-.07 1.15 0 1.42.66 0 0 0 .06.06.09.11.36.66.53.43 1 0 0 .1.05.16.05h1.43c-.12-.18-.27-.17-.33-.26zm-1.46-2.37a6.1 6.1 0 01-1.81 0c-.42-.07-.1-.55-.18-.84 0-.14 0-.31.21-.3h1.74a.56.56 0 010 1.11zM59.89 8.92a.57.57 0 01.28-.6h-1.41a6.77 6.77 0 01.16 2.93l-2.3-2.39c-.15-.16-.31-.31 0-.54h-1.7a.59.59 0 01.29.6v3.07c0 .28.06.57-.22.81h1.23a18.29 18.29 0 010-3c.82.8 1.6 1.6 2.37 2.41.12.12.33.23.16.47-.05.07 0 .1.1.1h1.26a.78.78 0 01-.17-.6zM64.43 8.33c-1-.1-2 0-3 0-.15 0-.32 0-.1.2s.07.27.07.4v3.22a.82.82 0 01-.19.69 18.75 18.75 0 003.52-.09 1.75 1.75 0 001.34-1.36 2.89 2.89 0 000-1.46 1.86 1.86 0 00-1.64-1.6zm.74 2.67A1.16 1.16 0 0164 12h-1.37c-.21 0-.21-.12-.21-.27v-1.19-1.21c0-.2.06-.28.26-.27h1.36a1.11 1.11 0 011.06.93 2.29 2.29 0 01.07 1.01zM27.47 8.32a2.82 2.82 0 00-2.88.68 2.1 2.1 0 00-.47.82 2.35 2.35 0 002.47 3.08 2.35 2.35 0 002.56-2.9 2.11 2.11 0 00-1.68-1.68zm-.87 3.81a1.54 1.54 0 01-1.6-1.55 1.58 1.58 0 013.15 0 1.52 1.52 0 01-1.55 1.55zM10.75 11.77c-.16.35-.4.29-.62.29H8.39c-.83 0-.82 0-.83-.84 0-.28.06-.41.37-.38s.76 0 1.14 0c.23 0 .45 0 .6.23a2.2 2.2 0 000-1.2c-.11.28-.33.23-.53.23h-.86c-.73 0-.72 0-.72-.72 0-.24.07-.33.33-.32h1.89a1.17 1.17 0 01.92.2V8c-.22.31-.48.26-.72.26H6.75c-.13 0-.28-.06-.41.1.24.1.22.31.22.51v3.19c0 .25.06.51-.18.74h3.67a.79.79 0 01.76.28 8.57 8.57 0 00-.06-1.31zM70.54 10.21a6.13 6.13 0 00-1.27-.21c-.24 0-.48-.05-.72-.1a.35.35 0 01-.32-.28.39.39 0 01.19-.42.91.91 0 01.35-.15 2.13 2.13 0 012.17.68l.56-1.12a.91.91 0 01-.76-.09 3.6 3.6 0 00-2.42-.18 1.37 1.37 0 00-1 .84 1.25 1.25 0 001.08 1.72c.54.09 1.08.13 1.62.21.18 0 .38.09.41.33a.49.49 0 01-.25.47c-.57.44-2.3.17-2.59-.67l-.53 1.24a.68.68 0 01.62.06 3.59 3.59 0 002.87.13 1.29 1.29 0 00.87-1.3 1.23 1.23 0 00-.88-1.16zM13.22 9.08a2.2 2.2 0 012.29.65l.57-1.12a.88.88 0 01-.76-.09 3.63 3.63 0 00-2.45-.18 1.33 1.33 0 00-1 1.47 1.24 1.24 0 001.21 1.1l1.47.18c.22 0 .48.08.51.37s-.19.42-.42.53a2.15 2.15 0 01-2.45-.71l-.52 1.18a.74.74 0 01.62.08 3.71 3.71 0 002.74.19 1.37 1.37 0 00.94-.86 1.29 1.29 0 00-1-1.7 16.54 16.54 0 00-1.72-.24c-.22 0-.46-.07-.49-.34s.24-.42.46-.51zM53.71 12c-.48-1-1-2-1.45-2.91-.13-.25-.26-.48 0-.74h-1.63a.48.48 0 01.09.69c-.13.26-.24.53-.38.78a27.68 27.68 0 01-1.54 3h1.52c-.46-.36-.1-.61 0-.88s.26-.26.47-.26H52c.18 0 .42-.1.51.18s.49.56.07.94h1.75a1.75 1.75 0 01-.62-.8zm-1.77-1h-1c-.15 0-.18-.07-.12-.19l.63-1.35.62 1.36c.05.18.01.18-.13.18zM33.59 11a3.73 3.73 0 000-1.2.48.48 0 01-.51.27h-.88c-.78 0-.77 0-.74-.77 0-.22.08-.28.29-.27h2a.91.91 0 01.8.24 7.71 7.71 0 000-1.27.55.55 0 01-.57.26h-3.3c-.14 0-.28 0-.43.08.23.15.21.38.21.6v3.15a.86.86 0 01-.23.68h1.47c-.15-.15-.25-.26-.24-.43v-1.29c0-.18.06-.24.24-.24H33c.18.03.41-.01.59.19zM18.27 9.06c.24 0 .3.08.29.3v2.7a.8.8 0 01-.24.74h1.43c0-.17-.2-.23-.2-.4V9.28c0-.1 0-.22.15-.21.52 0 1.07-.16 1.56.17V8a.59.59 0 01-.65.31h-3a.9.9 0 01-.75-.21v1.12a.77.77 0 01.53-.16zM18.38 16.25c-.16 0-.16.12-.19.22l-.24 1a4.56 4.56 0 01-.35-1c0-.11 0-.22-.2-.23s-.19.12-.23.24l-.27 1h-.07l-.24-1c0-.11 0-.29-.21-.24s-.05.19 0 .28l.31 1.18c0 .11 0 .27.21.26s.14-.15.17-.25l.34-1.19.34 1.21c0 .1 0 .24.19.24s.15-.16.18-.26c.12-.4.23-.8.33-1.21 0-.07.14-.21-.07-.25zM28.69 17.09c0-.06 0-.14-.08-.15s-.11 0-.13.1 0 .15-.06.27c-.22-.2-.49-.32-.17-.63a.33.33 0 00-.08-.5.47.47 0 00-.57 0 .34.34 0 00-.14.49c.09.16.11.26 0 .41a.56.56 0 000 .76.6.6 0 00.8.1c.15-.08.28-.23.43 0a.1.1 0 00.14 0s.07-.1 0-.13c-.26-.23-.14-.48-.14-.72zm-.82-.79c.13 0 .21.08.19.2s-.09.22-.23.2a.2.2 0 01-.15-.23c0-.13.09-.17.19-.17zm.13 1.45a.35.35 0 01-.43-.13.35.35 0 01.09-.47c.17-.17.23 0 .32.11a2.13 2.13 0 01.26.26.29.29 0 01-.24.23zM47.93 17.42c-.14-.15-.14-.25 0-.42a.46.46 0 00-.32-.76c-.9-.14-1-.08-1 .83v.72c0 .08 0 .19.13.18s.11-.11.11-.19a.61.61 0 000-.19c-.06-.36.15-.39.42-.36a.51.51 0 01.4.36c.07.15 0 .48.31.36s-.07-.3-.08-.46a.15.15 0 00.03-.07zm-.61-.42c-.24 0-.42 0-.42-.27s.13-.33.37-.31.51-.05.53.27-.31.31-.48.31zM39 17.75h-.57c-.19 0-.33 0-.33-.28s.11-.3.32-.29a2.94 2.94 0 00.42 0c.09 0 .2 0 .19-.12s-.12-.11-.2-.12h-.5c-.16 0-.22-.05-.22-.22s0-.27.22-.27h.64c.22 0 .13 0 .13-.11s-.07-.1-.13-.1h-.23c-.89 0-.89 0-.89.88v.64c0 .13 0 .23.17.23h1c.07 0 .12 0 .13-.1s-.03-.14-.15-.14zM24.78 17a.46.46 0 00-.31-.75c-.88-.15-1-.06-1 .81v.76c0 .13 0 .16.11.16s.12-.06.12-.15a1.09 1.09 0 000-.18c0-.4.25-.54.59-.35.12.06.16.18.22.29s0 .48.3.37 0-.33-.09-.47-.13-.31.06-.49zm-.65 0c-.23 0-.41 0-.41-.26s.12-.34.36-.32.54-.05.53.31-.31.27-.48.27zM45 16.21a.89.89 0 10.85.9.82.82 0 00-.85-.9zm0 1.56c-.34 0-.55-.27-.55-.67s.24-.7.59-.69a.63.63 0 01.56.69.59.59 0 01-.6.67zM51.21 17.75h-.53c-.18 0-.33 0-.32-.28s.09-.31.31-.29.33 0 .5 0 .15 0 .14-.13-.07-.1-.14-.1h-.61c-.18 0-.2-.1-.2-.24s0-.25.21-.25a1.87 1.87 0 00.41 0c.14 0 .38.09.38-.11s-.25-.1-.38-.1c-.87 0-.87 0-.87.86v.65c0 .14 0 .24.21.23h.91c.07 0 .16 0 .17-.1s-.1-.14-.19-.14zM40.81 17h-.22c-.15-.05-.38-.05-.33-.28s.27-.23.46-.21a.37.37 0 01.3.21c0 .09.11.14.21.08s0-.14 0-.21a.59.59 0 00-.57-.3c-.25 0-.49 0-.61.28a.39.39 0 00.22.59c.19.07.39.11.58.17s.23.11.21.27-.12.21-.25.23a.5.5 0 01-.59-.22c-.06-.09-.12-.2-.23-.12s0 .19 0 .27a.63.63 0 00.64.31c.39 0 .65-.17.67-.47s-.2-.55-.49-.6zM42.93 17l-.4-.11c-.09 0-.17-.09-.16-.19a.23.23 0 01.15-.2c.24-.08.46-.09.61.14s.13.19.23.1 0-.19 0-.26a.71.71 0 00-.76-.22.45.45 0 00-.43.41.41.41 0 00.34.47l.55.16a.23.23 0 01.18.22.26.26 0 01-.2.25.52.52 0 01-.66-.22c-.06-.09-.12-.19-.23-.1s0 .16 0 .24a.56.56 0 00.57.33c.41 0 .68-.09.74-.44s-.23-.53-.53-.58zM53.09 17l-.41-.11a.2.2 0 01-.2-.2.24.24 0 01.21-.23.43.43 0 01.56.18c0 .09.11.16.21.09s0-.17 0-.23a.7.7 0 00-.74-.27c-.24 0-.44.13-.47.41s.13.41.36.49.35.09.51.14a.24.24 0 01.19.25.25.25 0 01-.22.23c-.26.06-.51.05-.64-.23 0-.1-.11-.16-.21-.11s0 .16 0 .24a.65.65 0 00.65.35c.31 0 .59-.07.67-.42s-.17-.52-.47-.58zM20.36 17.75a1.86 1.86 0 01-.41 0c-.19 0-.48.15-.48-.26s.26-.27.46-.29h.3c.07 0 .16 0 .17-.1s-.09-.13-.18-.14h-.46c-.15 0-.29 0-.29-.22s.1-.28.29-.27a4.17 4.17 0 00.5 0c.08 0 .2 0 .21-.1s-.14-.1-.23-.11h-.15c-.86 0-.86 0-.86.86v.65c0 .11 0 .23.16.23h1c.08 0 .16 0 .15-.12s-.1-.13-.18-.13zM32.62 17.81c-.2-.48-.39-1-.59-1.43a.19.19 0 00-.2-.14c-.13 0-.16.09-.2.19-.16.42-.33.84-.48 1.27 0 .08-.17.21 0 .27s.19-.09.22-.2a.37.37 0 01.4-.34c.31 0 .51.07.57.4a.18.18 0 00.22.15c.06 0 .08 0 .07-.1a.64.64 0 00-.01-.07zm-.59-.6a.5.5 0 01-.36 0c-.14 0 0-.17 0-.25a2 2 0 01.15-.38.58.58 0 01.18.42s.16.15 0 .21zM22.16 16.4c0-.09-.08-.16-.19-.16a.18.18 0 00-.2.13l-.55 1.45c0 .05-.06.12 0 .15a.14.14 0 00.17 0 .52.52 0 00.09-.2c0-.26.21-.29.44-.29s.42 0 .48.29c0 .12.05.26.23.25s.1-.11.07-.19zm0 .78c0 .13-.28.06-.45 0a2 2 0 01.22-.64.8.8 0 01.24.64zM34.74 17.42c-.12-.07-.18 0-.23.14a.37.37 0 01-.37.21.51.51 0 01-.55-.41.73.73 0 01.26-.88.47.47 0 01.68.19c0 .09.13.14.22.08s0-.16 0-.23a.53.53 0 00-.28-.25c-.59-.28-1.16.14-1.15.92a2.42 2.42 0 000 .26.73.73 0 00.68.55.69.69 0 00.74-.28c.02-.09.13-.21 0-.3zM36.76 17.57a.5.5 0 01-.88-.12.8.8 0 01.18-.94.48.48 0 01.76.2.12.12 0 00.17 0c.09-.05 0-.13 0-.2a.67.67 0 00-.4-.32.81.81 0 00-1 .89.76.76 0 00.52.83.73.73 0 00.86-.21c.07-.09.17-.21.07-.3s-.21.09-.28.17zM49.2 16.45c0-.08 0-.19-.1-.2s-.14.09-.14.18v1.36c0 .09 0 .19.13.18s.11-.12.11-.2v-.64-.68z"/></svg>
