<svg xmlns="http://www.w3.org/2000/svg" viewBox="0 0 102.63 24"><title>betty-barclay</title><path d="M18.14,10.59a2.27,2.27,0,0,0-.21,1.3c2.56.59,6-3.95,7.35-6.88a7,7,0,0,0,.37-.85c0-.11.33-.79.35-.86l.36-.87c.42-.85,1.81-.61,1.28,1.07-.15,1-.58,2.81-.75,4.26,1.89.79,1.76-3.09,2.29-5.35,1.92-1.45,1.36,3,.94,5a2.82,2.82,0,0,0,1.09-.21A6.81,6.81,0,0,0,33.35,6c.19.07.23-.51.68-.16.53.75-.51,4.87.62,5.84a17.35,17.35,0,0,0,1.4-1.34c.26-.22.68-.8,1-1.16.32-.59.63-.45.84-1.52,2.85-8.07,1.22,11.52-1.35,14.3C33.19,29.05,38.75,12.46,38,9.84c-3,4.09-5.54,6-5.5-2.08-.52.38-2,.06-2.88,1.73.67,2.79-2.12,8.14-1.58-.37-.15.09-.93-.44-1.53.48,0,.05-.05.64-.09,1.31.58,1.39-1.7,4.18-1.62.39-.27-.18,1-2.89-.21-3-1.69.81-4.73,7.33-8.4,4.7-2.42-8,13.8-9.31,2-2.56A.58.58,0,0,0,18.14,10.59ZM3,13.15C3.08,9.85,4,5.9,4.18,2c.46-.11,2.69-1.4,4-.08.13,1-.62,1.58-1.73,2.68.35-.16-2.11,1.33-2,1.46-.71,3,6,0,9.05,2.45,2.64,2-3.1,5.15-6.78,4.31-.15,0-1.65.45-.08,1.24,9.32.43,14.82-7.88.06-8C19.34-5.67-8.76,5.32,2.9,2.55c.58,1.52-3,11.12-.28,11.49C2.54,14,2.85,14,3,13.15ZM18.34,9.37c0,.14,2.88-1,2.73-2.22C20.27,7,18.82,8,18.34,9.37ZM26,5.16c0,.24-.5.67-.62,1.45a1.17,1.17,0,0,0,.26,0A5.31,5.31,0,0,0,26,5.16Zm22.39,6.56c.52-1.34.29-7.1,2.17-8.64C52,2.93,54.29,1.6,56.1,2.64c-.13,2.2-4.29,2.44-5.32,4.81.78,1.15,2.21.79,4.27,1,8.13,1.08.83,7.76-5.93,5-.07.1-.75.17-.55,1.08,6.26,4,20-5.52,4.82-7.61,0-.14,0,0,.33-.29.89-.72,5.88-3.36,2.44-5-2.76-.45-7.63.89-10.77,2.25C44.33,6,45.69,5,48.13,4c.26.74-3.78,12.6.11,8.69A3.63,3.63,0,0,0,48.36,11.72Zm17.44.83c1,.5,4.14-3.36,5.18-1.64-1.9,3,1.88,3.3,1.43-1.29.08.11-.16-.73.38-1,.5-.06,2.69-.43,4-.47C73,16.24,79,12.63,82.89,10.68c-.28.76.14,3.63,1.59,2.23a12.64,12.64,0,0,1,.08-4.27C85.36,6.88,91.8,2,87.33,0c-3.87,2.4-2.62,11.56-10.27,11.94-.43-2.19,1.28-3.48,3.32-4.17-.08-2-5.77.6-8.83-1-.67,0-.66.94-.35,2.1-1,.54-3.23,1.25-4.79,1.85,3.74-6.08-3.78-6.08-5.55.58a1.68,1.68,0,0,0,0,1.35c.82.89,1.47.79,3-.46.58-.55.86-.77.86-.77C64.84,11.88,65.25,12.55,65.8,12.55Zm-2.74-1.12c5-2.81,2.59-7.9-.76.43A4.39,4.39,0,0,0,63.06,11.43ZM84.71,7c3.77-3.2,3.83-11.25-.31.39A2.34,2.34,0,0,0,84.71,7Zm6.15,4.31c.43,1.71,1.83,2.39,3.82,0,.19.26-.08.66.8,1.59,1.39,1.3,3.44.12,5-1.82l0,.07c.87,3.53-3.46,9.4-3.33,12.89,1.24-1.78,8.86-16.53,3.74-17.08-.42.2-.46.8-.34,1.78-.7.75-.89,2.31-3.29,3.27-2.83.1,1.16-4-.13-5.45-1.41.55-2,3.74-4.11,4.65-1,.6-1-1.53-.37-3,.7-3.3-6-1.15-7,2.76-.83,3.94,3.31,2.72,5.13,0C90.72,11,90.81,10.94,90.86,11.31Zm-2.92.76c1.46-.17,6.37-6.74,1.25-3.88-.32.21-3.81,2.88-1.88,4.12A1.35,1.35,0,0,0,87.94,12.07Z" fill="#fff" fill-rule="evenodd"/></svg>