<svg xmlns="http://www.w3.org/2000/svg" viewBox="0 0 113 41"><title>boft</title><path d="M21.12,40.06c10.73,0,15.13-3.24,15.13-10.59,0-5.06-3.34-7.83-7.34-8.87,4.17-1.56,5.45-3.7,5.45-8.08C34.36,6.83,30,3.6,20.74,3.6H0v6.73H3.22v23H0v6.78H21.12Zm-1.94-6.79H14.73V24.2H19a4.29,4.29,0,0,1,4.66,4.59,4.37,4.37,0,0,1-4.5,4.48h0Zm-.95-22.79a3.52,3.52,0,0,1,3.67,3.81c0,2.5-.83,4-3.78,4H14.73V10.48ZM54.08,40.73c8.45,0,15.29-4.95,15.18-13.61S62.59,13.45,53.81,13.35c-7.67,0-15.18,4.85-15.23,13.56-.11,9.23,7.56,13.82,15.51,13.82h0Zm0-6.67C51.75,34.06,50,31.24,50,27c0-3.81,1.67-6.83,3.83-6.83,2.62.05,4.07,3.08,4.07,7s-1.39,6.93-3.79,6.93h0ZM93.88,1.3A25.45,25.45,0,0,0,85.71,0c-10,0-11,6.57-11,9.54V14H72.42v6.78H74.7V33.23H72.48v6.83H89.05V33.23H85.71V20.76h5.06V14H85.71V9.54c0-1.87.56-2.76,1.78-2.76a7.5,7.5,0,0,1,3.06.53l3.33-6Zm.61,19.46h3V30c.17,6.68.44,11,8.78,11A27.19,27.19,0,0,0,113,40V33.33a13.4,13.4,0,0,1-3.5.89c-2.17,0-1.78-2.39-1.78-4.17V20.77H113V14h-5.28V6.11L97.49,9.18V14h-3v6.79Z" fill="#fff" fill-rule="evenodd"/></svg>