<svg xmlns="http://www.w3.org/2000/svg" viewBox="0 0 130 130"><path fill="#fff" fill-rule="evenodd" d="M24.8 59.7c-3.1 0-4.9 2.2-4.9 5.2 0 3.2 1.8 5.4 4.9 5.4 2.2 0 3.3-1 4.3-2 .6-.6 1.4-1 2.4-1a3 3 0 012.3 5.1 11 11 0 01-9 4c-6.8 0-11.9-4.8-11.9-11.5 0-6.5 5.1-11.2 11.9-11.2 4.2 0 6.8 1.5 9 4.2A3.1 3.1 0 1129 62v-.2h-.2c-.8-1.2-2.4-2.1-4-2.1zm85.2 2.6c-3-.7-4.4-.8-4.4-2 0-.9.8-1.3 2.4-1.3 1.6 0 3.1.7 4.2 1.6.4.5 1 .7 1.8.7a2.7 2.7 0 001.8-4.6c-1.8-1.9-4.3-3-7.9-3-4.6 0-8.4 2-8.4 6.9 0 4.5 3.3 6.1 6.3 6.9 3.5 1 4.9 1 4.9 2s-.7 1.4-3 1.4c-1.7 0-3.4-.6-4.7-1.7-1-1-2.8-1-3.8.2a2.7 2.7 0 00-.4 3.3l.2.2.1.2.2.1.1.2c2 1.6 4.6 3 8.8 3 6.8 0 8.9-3.3 8.9-7.3 0-4.6-4-6-7.1-6.8zm-46-8.6c6.7 0 12 4.7 12 11.3 0 6.6-5.3 11.3-12 11.3s-12-4.7-12-11.2c0-6.7 5.3-11.4 12-11.4zm0 16.8c3 0 4.9-2.2 4.9-5.4 0-3.3-1.8-5.5-4.9-5.5-3 0-5 2.2-5 5.5 0 3.2 2 5.4 5 5.4zm24.4-10.8c1.6 0 3.2.9 4 2l.1.1.1.2c.6.7 1.5 1.2 2.5 1.2a3.1 3.1 0 002.3-5.3 10.6 10.6 0 00-9-4.2c-6.8 0-11.9 4.7-11.9 11.3 0 6.6 5.1 11.3 11.9 11.3a11 11 0 009-3.9 3 3 0 10-4.6-4c-1 1-2.2 2-4.4 2-3.1 0-4.9-2.3-4.9-5.5 0-3 1.8-5.2 4.9-5.2zm-36.8-4.6c-1-.6-1.8-.7-3.4-.6a9 9 0 00-5.4 2.8v0a3.5 3.5 0 00-7 .1v15.4a3.5 3.5 0 007 0v-4.2c0-5.7 3.3-7.2 5.1-7.2.5 0 1.8.5 2.7.3a3.5 3.5 0 001-6.6z"/></svg>
