<svg xmlns="http://www.w3.org/2000/svg" viewBox="0 0 642 141"><path fill="#fff" d="M198.6 120.3L178 99.6h-16.6V132H132V.6h78.2l12.2 12.2L234.5 25v50.4l-10.2 10.2-10.2 10.2 12.6 12.6 12.6 12.6-10 10-10.2 10-20.7-20.7zm2.5-51.7l3.5-3.4V35.8L201 32l-3.7-3.8h-35.8V72h36.2l3.5-3.4zm-189 51.3l-12-12.2V24.9l12.1-12.2L24.4.5h54.4l12 11.8L102.5 24v29.8H73.2V35.5l-3.8-3.7-3.8-3.7H36.8l-3.4 3.5L30 35v62.4l3.5 3.4 3.5 3.4h29.4l3.5-3.4 3.5-3.4V80.9h29.4v27.4L91 120 79 131.9H24.4l-12-12.2zm263.7-7l-19-19V59.7l29.6-29.5L316 .7h33L368.3 20l19.3 19.4v34.2l-29.3 29.2L329 132h-34.2l-19-19.1zM338 81.9l21.4-21.5V50L349 39.7l-10.3-10.4h-10.2L306.7 51 285 72.7v9.6l10.3 10.4 10.3 10.4h10.8l21.4-21.5zm71.8-15.4V.7H488l12 11.8 11.8 11.8v54.6l-11.9 11.8-11.9 11.8h-48.8v29.4h-29.4V66.2zm69.1 5.3l3.5-3.4V35.9l-3.7-3.8-3.7-3.8h-35.8V75h36.2l3.5-3.4zm60.6-5.1l.2-65.5 39-.2 39-.2 12.2 12L642 25v54l-11.9 11.8-11.9 11.8h-48.8v29.4h-30l.2-65.5zm69.6 5l3.5-3.3V35.9l-3.7-3.8-3.7-3.8h-35.8V75h36.2l3.5-3.4z"/></svg>
