<svg xmlns="http://www.w3.org/2000/svg" viewBox="0 0 257 232.8"><title>easystep</title><path d="M27.6,225.2c-2.6,0-4.1-2.1-4.1-5.6,0-3.3,1.5-5.2,4.1-5.2s4.1,1.9,4.1,5.4C31.7,224.7,28.8,225.2,27.6,225.2Zm198.8.2h-.3v-4h1.1c1.5,0,2.4.6,2.4,2s-1,2-3.2,2Zm1.3-6.2c-.5,0-1,.1-1.5.1l-.1.1v-3.9h-2.9v12H227c3.5,0,5.6-1.6,5.6-4.3s-1.8-4-4.9-4Zm6.3,8.3h3v-12h-3Zm-19.8-2.2a7.08,7.08,0,0,1-1.4-.1h-.1v-6.9h.1a5.8,5.8,0,0,1,2.1-.6c1.9,0,2.7,1.2,2.7,3.7s-1.2,3.9-3.4,3.9Zm1.9-10.1a6.71,6.71,0,0,0-3.6,1.2h-.1l-.1-1h-2.9l.5,2.9v14.5h2.9v-5.3h.1a8.6,8.6,0,0,0,1.6.1c3.8,0,6.2-2.7,6.2-6.8-.1-3.4-1.8-5.6-4.6-5.6Zm-12.5,9.5h0a4.79,4.79,0,0,1-2.5.8,1.33,1.33,0,0,1-1.5-1.5c0-1.1.7-1.5,2.6-1.5h1.5v2.2Zm3-5.5c0-2.7-1.5-3.9-4.7-3.9a19.32,19.32,0,0,0-4.5.7h-.1v2.6h.1a12.39,12.39,0,0,1,4-.7c1.5,0,2.2.6,2.2,1.8v1h-1.4c-3.5,0-5.7,1.3-5.7,3.6a3.23,3.23,0,0,0,3.5,3.4,6.19,6.19,0,0,0,3.6-1.3l.1-.1.2,1.1h2.9l-.4-2.9v-5.3Zm-16.8,5.2-.7-2.6-1.9-6.3h-3.3l4.2,12h.5l-2.3,5.2.1.1h3l2.1-5.9,4.5-11.5h-3.2Zm-10.7-9.2c-3.7,0-6.1,2.6-6.1,6.5s2.1,6,5.8,6a7.53,7.53,0,0,0,3.7-.8h.1v-2.4h-.1a6.26,6.26,0,0,1-2.7.6c-2.3,0-3.5-1.3-3.5-3.7s1.1-3.6,3.3-3.6a5.2,5.2,0,0,1,2.9.7l.2.1v-2.8l-.1-.1a11.3,11.3,0,0,0-3.5-.5Zm-11.3,0c-3.6,0-6,2.6-6,6.5s2,6,5.8,6a7.81,7.81,0,0,0,3.7-.8h0v-2.4h-.1a6.6,6.6,0,0,1-2.7.6c-2.4,0-3.6-1.3-3.6-3.7s1.1-3.6,3.4-3.6a5.43,5.43,0,0,1,2.9.7l.1.1v-2.8l-.1-.1a9.75,9.75,0,0,0-3.4-.5ZM152,220.3h0c.2-1.8,1.1-2.7,2.5-2.7s2.1,1,2.3,2.7v.1H152Zm2.5-5.1c-3.4,0-5.6,2.5-5.6,6.5,0,3.8,2.1,6,5.9,6a11.51,11.51,0,0,0,4.7-.9h0v-2.3h-.1a12.9,12.9,0,0,1-4,.7c-2.1,0-3.3-1-3.5-2.9v-.1h8V221c0-3.6-2-5.8-5.4-5.8Zm-10.8,0c-3.6,0-6,2.6-6,6.5s2.1,6,5.8,6a7.81,7.81,0,0,0,3.7-.8h0v-2.4h-.1a6.6,6.6,0,0,1-2.7.6c-2.4,0-3.6-1.3-3.6-3.7s1.1-3.6,3.3-3.6a5.79,5.79,0,0,1,3,.7l.1.1v-2.9a10.4,10.4,0,0,0-3.5-.5Zm-6.4.3H134l-4.4,5.5v.6l4.1,5.9h3.5l-4.6-6.5Zm-11.2,12H129v-12h-2.9Zm-5.9-2.8h0a4.79,4.79,0,0,1-2.5.8,1.33,1.33,0,0,1-1.5-1.5c0-1.1.8-1.5,2.6-1.5h1.5v2.2Zm3-5.5c0-2.7-1.5-3.9-4.6-3.9a21.15,21.15,0,0,0-4.6.7h0v2.6h.1a12.39,12.39,0,0,1,4-.7c1.5,0,2.2.6,2.2,1.8v1H119c-3.6,0-5.7,1.3-5.7,3.6a3.18,3.18,0,0,0,3.5,3.4,6.81,6.81,0,0,0,3.7-1.3l.1-.1.2,1.1h2.9l-.4-2.9v-5.3ZM96,222.8l.1-7.4H93.2v12h2.4l5.6-7.4-.1,7.4h3v-12h-2.4Zm-16.4,2.6h-.3v-4h1c1.5,0,2.4.6,2.4,2s-.9,2-3.1,2Zm1.4-6.2c-.5,0-1,.1-1.7.1v-3.8H76.4v12h3.8c3.5,0,5.5-1.6,5.5-4.3S84,219.2,81,219.2Zm-25.2,5.2-.8-2.6-1.8-6.3H49.9l4.2,12h.5l-2.3,5.2.1.1h3l2.1-5.9,4.4-11.5H58.7Zm12.3,1.1H66.6v-3.2h.9c2.4,0,3.2.4,3.2,1.5s-.8,1.7-2.6,1.7Zm-1.5-8H68c1.5,0,2.2.4,2.2,1.5s-.8,1.5-2.7,1.5h-1v-3Zm4.8,3.6-.2-.1.2-.1a2.73,2.73,0,0,0,1.8-2.5c0-2.5-2.4-3-4.4-3H63.6v12h5.2c4.3,0,4.9-2.1,4.9-3.5A2.93,2.93,0,0,0,71.4,221.1ZM43,225.4c-1.8,0-2.6-1.3-2.6-4.4v-1.9a6.49,6.49,0,0,1,2.7-.8c1.7,0,2.6,1.2,2.6,3.7,0,1.5-.6,3.4-2.7,3.4Zm1.2-9.5a5.62,5.62,0,0,0-3.5,1.1l-.2.1v-.2c.3-1.7,1.2-2.3,3.4-3.1a35.61,35.61,0,0,1,3.6-1,1.27,1.27,0,0,1,.6-.1h.1l-.5-2.7-.1.1a45.87,45.87,0,0,0-5.1,1.5,7.26,7.26,0,0,0-4.1,3.2c-.7,1.3-1,3-1,5.8,0,4.9,1.8,7.2,5.6,7.2,3.4,0,5.8-2.5,5.8-6.1s-1.7-5.8-4.6-5.8Zm-16.4-4.1c-4.6,0-7.7,3.4-7.7,8.3,0,4.6,2.9,7.7,7.3,7.7,5.3,0,7.7-4.4,7.7-8.5,0-4.6-2.9-7.5-7.3-7.5Z" fill="#fff"/><path d="M6.3,175.8c0,5.6-.6,9.6-1.8,11.9a5.26,5.26,0,0,1-4.4,3.2H0v5.2H.1c9.1-.4,12.3-5.8,12.3-20.6v-6.3h9v26.6h6.4V164H6.3v11.8Zm136.3-15-1,4.3c7.7,2.4,15,.7,18.7-7.5l-4.5-2.2c-1.9,4.2-6.2,7.6-13.2,5.4Zm98.3,10.4V196H247V176.4h10v-5.2Zm-12.2,19v.1a10.84,10.84,0,0,1-5,1.5c-2.1,0-3.2-1-3.2-3,0-2.2,1.6-3.2,5.4-3.2h2.9v4.6Zm6.1-11.5c0-5.5-3-8-9.5-8a30.3,30.3,0,0,0-9.4,1.6h-.1v5.3l.2-.1a29.35,29.35,0,0,1,8.3-1.4c3.2,0,4.4,1.1,4.4,3.8V182H226c-7.4,0-11.7,2.7-11.7,7.6,0,4.2,2.7,6.8,7.2,6.8a13.25,13.25,0,0,0,7.7-2.8l.1-.1.3,2.5h6.2l-1-5.9V178.7Zm-31.1,12.2H196V171.1h-6.1v19.8h-7.7V171.1H176v24.8h33.8V171.1h-6.1v19.8Zm-60.2-4.6.1-15.1h-6.1V196h4.9L154,180.7l-.1,15.3H160V171.2h-4.9Zm-28.6,0,.1-15.1h-6.1V196h4.8l11.7-15.3-.1,15.3h6.1V171.2h-5Zm-19.5-3.9,9.4-11.3H98.2l-9.3,12,8.6,12.8h7.4l-9.5-13.5ZM81.3,195.9h6.1V171.1H81.3Zm-20.8,0h6.1V176.3h10v-5.2H60.5v24.8ZM39,181.3v-.1c.5-3.7,2.2-5.5,5.3-5.5,3.5,0,4.4,3.1,4.6,5.5v.1Zm5.3-10.7c-6.9,0-11.6,5.3-11.6,13.4,0,7.9,4.4,12.2,12.2,12.2,4.1,0,7.3-.5,9.7-1.8v-4.7l-.1.1a27.88,27.88,0,0,1-8.4,1.4c-4.4,0-6.8-2-7.2-6.2H55.3v-2.4c.1-7.5-3.9-12-11-12Z" fill="#fff"/><path d="M69.6,0V120H190.8V0Zm95.3,97.3H94.3V85.8h70.6Zm.2-21.8H152.7V33.8h-8.5c-5.9,25.5-22.5,43.1-49.9,43.1V66c23.1,0,36.2-19.2,39.3-44h31.5Z" fill="#fff"/></svg>