<svg xmlns="http://www.w3.org/2000/svg" viewBox="0 0 193.4 714.2"><path fill="#fff" d="M25.7 478.8a82.2 82.2 0 01-5.3-29.9 86.5 86.5 0 0132-67.2 15.1 15.1 0 019.4-3.5 14 14 0 0111.7 5.8l.3.2a15.3 15.3 0 012.9 8.9 15 15 0 01-5.5 11.6 56.5 56.5 0 00-21 44.1 53 53 0 003.6 19.6 56.4 56.4 0 0053 37.3 58 58 0 0022.5-4.7 56.6 56.6 0 0013.1-96.2 14.6 14.6 0 01-5.7-11.6 15 15 0 0124.3-11.6 86.4 86.4 0 01-54.2 153.9 87.3 87.3 0 01-46-13.2 90.2 90.2 0 01-35.1-43.5M25.7 299.8a82.2 82.2 0 01-5.3-29.9 86.5 86.5 0 0132-67.2 15 15 0 019.4-3.4 14.3 14.3 0 0111.7 5.8l.3.2a15.3 15.3 0 012.9 8.9 15 15 0 01-5.6 11.6 54.8 54.8 0 00-10.4 11.1A56.3 56.3 0 0050.1 270a53 53 0 003.6 19.6 58.7 58.7 0 0023.4 28.6 57.1 57.1 0 0075.3-14.4 56 56 0 0011.3-33.8 57 57 0 00-21.2-44.2 14.8 14.8 0 1118.5-23.2A86.4 86.4 0 0160.9 343.2a88.6 88.6 0 01-35.2-43.4M161 157.9A86.5 86.5 0 0060.8 17.2a15.2 15.2 0 00-7.1 12.7 15 15 0 0014.9 14.9 17.2 17.2 0 008.4-2.5 56.2 56.2 0 0152.2-3.8 56.6 56.6 0 0113.1 96.2 55.4 55.4 0 01-35.6 12.6A56.7 56.7 0 0150 90.5a53.3 53.3 0 013.6-19.6 14.4 14.4 0 00.9-5.1 14.9 14.9 0 00-28.9-5.1 82.2 82.2 0 00-5.3 29.9A86.3 86.3 0 00161 157.9M25.7 657.6a15 15 0 0028.9-5.2 14.4 14.4 0 00-.9-5.1 55.6 55.6 0 01-3.6-19.7A57.1 57.1 0 0161 594.4l68.3 85.2a57.4 57.4 0 01-22.3 4.6 56.6 56.6 0 01-29.8-8.4 16.3 16.3 0 00-8.4-2.6 14.9 14.9 0 00-14.9 14.9 15 15 0 007 12.6 84.5 84.5 0 0046.1 13.5 86.4 86.4 0 0054-153.9 14.5 14.5 0 00-9.3-3.3 14.9 14.9 0 00-9.3 26.5 56.5 56.5 0 019.9 78L73.5 563a14.3 14.3 0 00-11.7-5.9 15 15 0 00-9.4 3.5 86.4 86.4 0 00-32 67.2 84.6 84.6 0 005.3 29.8M18.5 33.4a15 15 0 1114.9-15 15 15 0 01-14.9 15m0 3.6A18.5 18.5 0 100 18.5 18.5 18.5 0 0018.5 37z"/><path fill="#fff" d="M9.3 24.4v-3.9c0-4-.1-8.6 5-8.6a4.2 4.2 0 014.3 3.8h.1c.1-1.1 1.1-1.6 1.9-2l7.1-2.9v4.1L22 17.1c-1.4.5-1.9 1-1.9 2.5v1.2h7.6v3.7H9.3zm7.9-3.7v-1.2c0-1.8-.3-3.9-2.6-3.9s-2.4 2-2.4 3.9v1.2z"/></svg>
