<svg xmlns="http://www.w3.org/2000/svg" viewBox="0 0 116.67 307.85">
  <title>elis</title>
  <g id="Слой_2" data-name="Слой 2">
    <g id="Слой_1-2" data-name="Слой 1">
      <path d="M113.53,307.85h1.8V243.14H95.15v2l12.49,5.25a9.48,9.48,0,0,1,5.89,8.27v26.92H55.82v-17.7A6.77,6.77,0,0,1,60,262l7.25-3v-2H42.59v2l7.25,3a6.77,6.77,0,0,1,4.19,5.9v17.71H3.15V260.36a9.49,9.49,0,0,1,5.9-8.28l12.49-5.25v-2.05H1.36v63.06H3.15v-7.13H113.54ZM3.15,97.1H1.36v29.35H3.15v-7.13H113.54v7.13h1.8V97.1h-1.8v7.13H3.15ZM109.59,59.34c0-1.87.91-3.38,2.07-5.73,2.12-4.29,5-10.16,5-18.73,0-15.71-9.09-33.29-29-34.78S57.88,14.27,48.35,30c-8,13.18-15.56,26.23-28.36,25-8.28-.83-17.9-6.6-17.9-20.14,0-12.57,7.72-17.4,13.24-20.45a58.2,58.2,0,0,1,8-3.74v-2h-22v2c5,0,2.54,6.58,1.87,8.17A36.92,36.92,0,0,0,0,34.79C0,50.09,11.18,63,25.46,64.14,44.69,65.71,54.81,50.92,64,36.62,72.73,23.06,80.36,10.26,96.11,12c10.86,1.22,18.21,10,18.21,22.85,0,13.23-8.15,21.4-16.81,25.43-4.1,1.91-9.38,3.81-9.38,3.81v2h27.18v-2c-2.43,0-5.74-1.43-5.74-4.82Zm3.94,152.07h1.79V149.12H95.14v2l12.5,5.25a9.47,9.47,0,0,1,5.89,8.27v24.51H3.14v-7.13H1.34V211.4h1.8v-7.13H113.53Z" fill="#fff"/>
    </g>
  </g>
</svg>
