<svg xmlns="http://www.w3.org/2000/svg" viewBox="0 0 431.1 64"><path fill="#fff" d="M107.1 1.1h8.4v62.5c-4.7 1.2-10.4-1.3-13.6-6a390 390 0 01-9.4-14.8l-13-21.5c0-.3-.3-.5-.9-1.3v41.2c0 2-.5 2.5-2.4 2.4h-6.3V0c2.2 1 4.5 1.4 6 2.7 2.4 2 4.7 4.4 6.4 7 8 12.5 15.6 25 23.4 37.6l1.4 2V1.1zM131.8.6c4 .1 6.9 2 9 4.7 2.8 3.6 5.3 7.4 7.8 11.3L168 47.9l1 1.4V1h7.4c.4 0 .9.7 1.1 1.2.2.4 0 1 0 1.4V61c0 3.2 0 3.1-3 2.8a14 14 0 01-11.2-6.9l-21.6-35.3a2 2 0 00-1-1v42.8h-8.9V.6zM332.3 33.7h13.3c2 .3 2.7-.6 2.6-2.7V5.4c0-2 .6-2.8 2.4-3.3 8.5-2.5 17-3.4 25.2 1a18.5 18.5 0 0110.5 17.2c0 8-3.5 13.7-10.4 17.5l-2.3 1.3a140 140 0 0115.5 24.7h-8.3c-.7-.2-1.4-1.2-1.9-2L366.7 43c-.8-1.3-1.8-1.7-3.4-1.4l-6.4.7-.2 2.8v16c0 1.7-.3 2.5-2.2 2.5-6.3 0-6.3 0-6.3-6.2v-12c0-3.2 0-3.2-3-3.2h-8c-1.3.1-2-.4-2.4-1.6l-2.5-7zm24.6-.2c5.7-.2 11-1 16-3.5a10 10 0 005.7-9.5c0-4.4-2-7.7-5.9-9.7-4.4-2.3-9-2.5-13.8-1.8-1.7.2-2.2 1-2.2 2.6v19.7l.2 2.2zM426.3 36.9h-17.6l-.1 2.4-.1 13.4c0 2 .5 2.6 2.5 2.6h20.1c.2 5.1-3 8.4-7.8 8.4H402l-2.4-.1v-2.7V3.5c0-2.4.6-3 2.9-3 8.4.2 16.8.1 25.2.1h2.8V9h-19.8c-1.5-.1-2.1.3-2 2v15.7c-.1 1.6.5 2.1 2 2 4.6 0 9.1.1 13.7 0 1.4 0 2 .5 2 2v6.2zM26.6 28.8v8H9.1v27.1C4 64.2 0 60.8 0 56.1V3.5l.1-2.3H31V9H11.3C9.7 8.8 9 9.3 9 11v15.6c0 1.7.6 2.2 2.2 2.2h15.4zM240.2 1.1v7.7h-21.6l-.1 2.8-.1 14.3c-.1 2.4.7 3 3 3 4.7-.2 9.5-.1 14.5-.1v8h-17.4V64c-5.2.5-9.1-3-9.1-7.7V3.6c0-2 .4-2.7 2.5-2.6h25.9l2.4.1zM251.5.7h7.6c1.6 0 1.4 1 1.4 2v52.5h21.7c.3 4.3-2.5 8.4-6 8.4-8.2.2-16.3.1-24.7.1V.7zM336.7 63.8c-3.2 0-5.8.2-8.4 0-.7-.1-1.6-1.3-1.9-2l-15-38.3-1.2-2.8c-1 3.1-1.6 5.7-2.5 8.2-.4 1-1.3 1.9-2.2 2.4l-8.6 4.7 1-3.6c2.6-7.8 5-15.6 7.7-23.4 1.1-3.4 2.8-6.6 6.7-8.5l24.4 63.3zM52.6 64c-5.8 0-9-3.1-9-8.3V3.8 1h7.6c.5.1 1.3 1.3 1.3 2 .2 4 .1 8 .1 12.1V64z"/><path fill="#fff" d="M311.8 35.5l3 7.9c-11 2.4-16.3 10-18.1 20.5h-8c-3-9.4 10.5-26.3 23-28.4z"/></svg>
