<svg xmlns="http://www.w3.org/2000/svg" viewBox="0 0 39.6 28.8">
  <title>gloria-jeans</title>
  <g id="Слой_2" data-name="Слой 2">
    <g id="Слой_1-2" data-name="Слой 1">
      <path id="svg_40" data-name="svg 40" d="M10.85,28.79c-9.48,0-12-6-10.39-14.51C2,6.23,7.74,0,16.6,0a14.11,14.11,0,0,1,7.58,1.72L20.92,6.61a8.17,8.17,0,0,0-4.36-.91c-4.17,0-6.86,2.54-8,8.67s-.09,8.87,2.83,8.87A4.16,4.16,0,0,0,12.82,23l1.24-6.65H11.47l.92-4.75h10L19.48,27.07c-2.06,1.1-4.6,1.73-8.63,1.73Zm11.5,0,1.06-5.51c2.2-.19,4.16-1.82,4.69-4.74L31.55.39H39.6l-3.26,17.2c-1.39,7.38-7,11-14,11.16Z" fill="#fff"/>
    </g>
  </g>
</svg>
