<svg xmlns="http://www.w3.org/2000/svg" viewBox="0 0 24.81 78.45"><path fill="#fff" d="M14.79 21.61a6.12 6.12 0 01-1-.32 16 16 0 01-2.21-1.15 21.34 21.34 0 01-2.22-1.61 17.89 17.89 0 01-1.95-1.84 11.41 11.41 0 01-1.37-1.82 3.22 3.22 0 01-.54-1.59c0-.44.16-.84.71-.84a3 3 0 011.32.44A14 14 0 019.26 14a20.61 20.61 0 011.88 1.6 35.66 35.66 0 013.44 3.7 11.34 11.34 0 011.07 1.59 1 1 0 00.61-.2.64.64 0 00.19-.45 1.1 1.1 0 00-.14-.52 1.79 1.79 0 00-.36-.47 1.89 1.89 0 00-.5-.33 1.18 1.18 0 00-.5-.11h-.36a.23.23 0 01-.24-.15.53.53 0 010-.17v-.32V16c-.14-.2-.25-.42-.37-.62a8.08 8.08 0 01-.37-.79 6.84 6.84 0 01-.25-.72 1.71 1.71 0 01-.1-.49.75.75 0 01.07-.33.4.4 0 01.36-.18.46.46 0 01.26.1 1.12 1.12 0 01.17.2 1 1 0 01.14.24 1 1 0 010 .24.38.38 0 010 .19.25.25 0 01-.26.16 1 1 0 01-.17 0v.08a2 2 0 00.11.32 2.83 2.83 0 00.2.43l.2.4c.06.14.07.12.11.17v-.19a1.09 1.09 0 000-.18v-.14c0-.09 0-.23.11-.28a.64.64 0 01.24 0h.21a.4.4 0 01.19.27 1.88 1.88 0 00.25.56.46.46 0 00.41.24.23.23 0 00.21-.16.87.87 0 00.1-.39 2.88 2.88 0 00-.12-.77q-.11-.4-.24-.78c-.11-.28-.22-.56-.35-.83v-.07l-.31-.59-.37-.59-.19-.3a1.79 1.79 0 00-.2-.26.26.26 0 01-.05-.09.88.88 0 010-.16c0-.16.14-.24.3-.24a.82.82 0 01.39.15l.25.18v-.43-.95h-.06c-.09 0-.16-.08-.24-.11a2.49 2.49 0 01-.62-.49.66.66 0 01-.17-.39.19.19 0 01.15-.2h.12a.49.49 0 01.19 0l.14.07c.07.06.15.1.22.15a2 2 0 00.35.19l.37.17a1.16 1.16 0 00.31.07c.14 0 .16-.08.16-.19a.91.91 0 000-.33c0-.12-.07-.26-.12-.39l-.14-.36-.11-.26c-.04-.09 0 0 0-.07 0-.08 0-.15-.07-.22l-.06-.11a1.51 1.51 0 00-.09-.18 5.15 5.15 0 00-.4-.67l-.45-.66a2.1 2.1 0 00-.19-.3 2.26 2.26 0 00-.2-.26v-.1a.78.78 0 010-.16c0-.16.14-.23.3-.23a.75.75 0 01.41.17l.39.28a1.27 1.27 0 010-.2v-.7l-.46-.36a6.82 6.82 0 01-.75-.77 1.3 1.3 0 01-.31-.7.27.27 0 01.07-.2.32.32 0 01.17-.11.86.86 0 010-.23.35.35 0 01.4-.37 1.62 1.62 0 01.69.2 3.71 3.71 0 01.71.45.44.44 0 00.1-.3 1.57 1.57 0 000-.37 2.6 2.6 0 00-.1-.4c0-.1-.07-.22-.12-.32a.57.57 0 00-.1-.19V.17a.17.17 0 01-.11-.17h.12a.2.2 0 01.16.07.2.2 0 01.06.07 3.72 3.72 0 01.45 1.51.83.83 0 01-.2.57 4.11 4.11 0 01.62.77 1.76 1.76 0 01.3 1 .59.59 0 01-.14.39.64.64 0 01-.44.15 1.89 1.89 0 01-.82-.26V5.08a.88.88 0 010 .16 1.32 1.32 0 00.32.2c.15.08.31.17.46.27l.24.2a.57.57 0 01.11.16.74.74 0 010 .12.28.28 0 01-.3.3.93.93 0 01-.41-.12c-.14-.08-.27-.18-.41-.27s-.25-.2-.36-.31c0 .05.05.09.07.15s.15.25.22.39.09.16.14.24v.06l.32.62.17.36a7.91 7.91 0 01.37 1.02 1.84 1.84 0 01.07.47.59.59 0 01-.16.47.6.6 0 01-.39.14 1.39 1.39 0 01-.4-.06.43.43 0 01-.16-.05 4.69 4.69 0 000 .53v.73a1.54 1.54 0 010 .19 1 1 0 00.3.2l.44.26a1.77 1.77 0 01.2.17.19.19 0 01.07.18v.05a.27.27 0 01-.31.28 1.07 1.07 0 01-.39-.1l-.36-.24-.3-.24c0 .05 0 .09.07.14s.15.26.22.39l.17.34a1.6 1.6 0 01.1.23l.11.24c.1.22.17.43.26.65s.24.67.34 1a3 3 0 01.16.9.88.88 0 01-.17.55.61.61 0 01-.5.23.86.86 0 01-.49-.15 1.79 1.79 0 01-.36-.31l-.2-.23a1 1 0 010 .25.44.44 0 01-.07.22 2.17 2.17 0 010 .26v1.85a2.49 2.49 0 01.69.3 3.81 3.81 0 01.69.57 4.12 4.12 0 01.49.69 1.74 1.74 0 01.2.73 1 1 0 01-.4.87 1.63 1.63 0 01-1 .31h-.37a7.91 7.91 0 01.52.66 8.61 8.61 0 01.69 1.08 6.22 6.22 0 01.52 1.18 3.53 3.53 0 01.21 1.2 1.62 1.62 0 01-.31 1.24 1.45 1.45 0 01-1.1.47 2.71 2.71 0 01-.75-.1l-.16-.06a18 18 0 011.27 1.86c.2.32.37.65.55 1a11.38 11.38 0 01.47 1.08 8.81 8.81 0 01.34 1.14 5.91 5.91 0 01.12 1.12 4.32 4.32 0 01-.22 1.43 2.63 2.63 0 01-.64 1 2.45 2.45 0 01-1 .6 3.51 3.51 0 01-1.2.19 6.18 6.18 0 01-2-.36 8.37 8.37 0 01-2.07-1 12.13 12.13 0 01-3.65-3.9 11.52 11.52 0 01-1.58-5.91 4.59 4.59 0 01.22-1.43 4.36 4.36 0 01.67-1.28 3.74 3.74 0 011-.92 2.67 2.67 0 011.37-.36 4.63 4.63 0 011.11.14 5.93 5.93 0 011 .35 6.16 6.16 0 01.87.5 5.83 5.83 0 01.74.57 8.39 8.39 0 011.39 1.54v.06a.22.22 0 010 .08v.14a.67.67 0 010 .19.35.35 0 01-.1.19.28.28 0 01-.22.11c-.12 0-.22-.11-.29-.2a8.36 8.36 0 00-1.39-1.4 7.4 7.4 0 00-.7-.51 4.78 4.78 0 00-.8-.44 6.94 6.94 0 00-.87-.31 3.72 3.72 0 00-.94-.11 2.52 2.52 0 00-.95.2 2.28 2.28 0 00-.81.62A3.26 3.26 0 006 24.36a4.78 4.78 0 00-.22 1.5 9.44 9.44 0 00.39 2.73 10.72 10.72 0 001.05 2.38 11.59 11.59 0 001.54 2 10.8 10.8 0 001.8 1.49 8.33 8.33 0 001.86.94 5.48 5.48 0 001.75.33 3.46 3.46 0 001.06-.17 2.19 2.19 0 00.82-.53A2.47 2.47 0 0016.7 34a4 4 0 00.21-1.36 4.07 4.07 0 00-.19-1.2 9.71 9.71 0 00-.5-1.26 12.62 12.62 0 00-.71-1.18c-.26-.39-.52-.76-.81-1.12a10.31 10.31 0 00-.8-.95 8.75 8.75 0 00-.67-.69.46.46 0 00-.07-.07.2.2 0 01-.12-.2.27.27 0 01.05-.14.31.31 0 01.25-.16.48.48 0 01.31.15l.45.32a2.65 2.65 0 00.4.24 2.28 2.28 0 00.44.15 2.14 2.14 0 00.56.06 1.3 1.3 0 00.91-.25.91.91 0 00.25-.65 3.69 3.69 0 00-.29-1.43 8.51 8.51 0 00-.66-1.26 8.28 8.28 0 00-.91-1.16v-.08a.39.39 0 010-.12zm-.5-19.47a1.06 1.06 0 00.17.26A5.3 5.3 0 0015 3l.32.26v-.18l.25.35a.28.28 0 01.09 0 1.22 1.22 0 00.51.19c.16 0 .22 0 .22-.19a1 1 0 00-.16-.43 3.8 3.8 0 00-.4-.52 1.26 1.26 0 01-.47.08 1.61 1.61 0 01-.49-.07 2.17 2.17 0 01-.44-.19 1.79 1.79 0 00-.14-.13zM10.2 73.52l-1.59-1.18-1.37-1c-.31-.24-.62-.48-1-.72L6 70.41a.87.87 0 01-.1-.08l-.19-.16a.45.45 0 01-.17-.33.28.28 0 01.31-.3.59.59 0 01.41.19l.09.07.25.19.89.67 1.26 1 1.26 1c-.16-.83-.34-1.66-.52-2.49a19.4 19.4 0 00-.94-2.85 12.65 12.65 0 00-1.48-2.72 8.22 8.22 0 00-2.28-2.07l-.1-.07a.29.29 0 01-.1-.23.31.31 0 01.06-.23 1.16 1.16 0 01.2-.24c.09-.07.2-.14.31-.08A6 6 0 016.8 63a9.24 9.24 0 011.25 1.74 14.27 14.27 0 01.95 2 22.67 22.67 0 01.7 2.16c.2.7.37 1.43.52 2.15l.39 2 1.06.79.95.73c.12-.43.25-.86.36-1.31s.31-1.14.49-1.7.37-1.2.59-1.81a16 16 0 01.74-1.78 11.82 11.82 0 01.92-1.62 7.25 7.25 0 011.2-1.35l.16-.14a.36.36 0 01.22-.07.51.51 0 01.36.17.92.92 0 01.2.36v.07l-.05.05a8 8 0 00-1.19 1.35 11.47 11.47 0 00-.92 1.64c-.27.58-.52 1.18-.74 1.78s-.4 1.22-.59 1.83-.32 1.15-.47 1.73-.26 1-.42 1.45l1.31 1 1.15.86.79.59c.05.05.25.18.32.26l.07.07a.3.3 0 01.11.22.26.26 0 01-.29.27.47.47 0 01-.32-.14l-.29-.22-.76-.57-1.1-.84-1.21-.91a4.42 4.42 0 01-.55 1.11 1 1 0 01-.85.5.83.83 0 01-.65-.34 2.82 2.82 0 01-.44-.84 8.68 8.68 0 01-.31-1.24l-.26-1.44zM16.47 63l.24.45a4.78 4.78 0 01.19.48 1.51 1.51 0 01.09.47.65.65 0 01-.15.48.54.54 0 01-.4.17 1.59 1.59 0 01-.82-.32 5 5 0 01-.89-.76A4.93 4.93 0 0114 63a2.22 2.22 0 01-.31-1.09.55.55 0 01.14-.42.48.48 0 01.36-.15.79.79 0 01.56.25 4.58 4.58 0 01.35.42.74.74 0 010 .14.22.22 0 01-.06.15.23.23 0 01-.2.1.56.56 0 01-.32-.15 1.15 1.15 0 00-.17-.14.45.45 0 00-.12-.06.76.76 0 000 .15 1.33 1.33 0 00.19.57 4 4 0 00.49.68 3.21 3.21 0 00.6.56.93.93 0 00.47.22.17.17 0 00.16-.08.39.39 0 00.07-.23 1.21 1.21 0 00-.07-.33l-.14-.42a2.23 2.23 0 00-.2-.33 1.13 1.13 0 00-.12-.18l-.1-.08a.28.28 0 01-.1-.2.37.37 0 010-.14.27.27 0 01.24-.12.93.93 0 00.2.09h.14v-.14a.91.91 0 00-.05-.33c0-.14-.07-.26-.12-.39A3.84 3.84 0 0016 61l-.11-.26v-.07a.42.42 0 000-.1l-.1-.23a1 1 0 01-.09-.18l-.31-.59-.48-.57a6.31 6.31 0 00-.39-.56.26.26 0 01-.05-.09.88.88 0 010-.16c0-.17.14-.24.3-.24a.74.74 0 01.4.16 2.87 2.87 0 01.4.31l.37.3a.81.81 0 00.21.1c0-.06-.14-.24-.16-.28l-.42-.6-.49-.67a5.35 5.35 0 01-.36-.56l-.1-.1a1.88 1.88 0 01-.12-.18c0-.07-.07-.14-.11-.2a.46.46 0 01-.06-.22.19.19 0 01.15-.2h.12a.49.49 0 01.19 0l.12.06c.07.06.15.1.22.15a2 2 0 00.35.19l.37.17a1.16 1.16 0 00.31.07c.14 0 .16-.08.16-.19a.91.91 0 00-.05-.33c0-.12-.07-.26-.12-.39l-.14-.36-.11-.26-.19-.43-.61-1-.46-.28-.39-.21-.25-.22a.18.18 0 01-.16-.17.78.78 0 010-.16v-.2a.22.22 0 01.24-.2.91.91 0 01.34.14c-.09-.2-.17-.42-.25-.64a2.66 2.66 0 01-.16-.83.76.76 0 01.17-.48.55.55 0 01.46-.26 1.13 1.13 0 01.76.35 3.5 3.5 0 01.62.77 5 5 0 01.45.9 2.13 2.13 0 01.19.77.47.47 0 01-.17.43.67.67 0 00-.16.12.3.3 0 01-.16 0 .33.33 0 01-.22-.08.7.7 0 01-.16-.14l-.13-.1a.27.27 0 01-.06-.17.27.27 0 01.12-.23l.16-.08.1-.09a.34.34 0 00.05-.22 1.14 1.14 0 00-.1-.45 1.62 1.62 0 00-.66-.77.61.61 0 00-.35-.11c-.06 0-.14 0-.16.07a.44.44 0 00-.06.25 1.92 1.92 0 00.15.67 6.31 6.31 0 00.44.95c.65.52 1.31 1 2 1.5l2.13 1.48c.67.47 1.35.93 2 1.41a20.32 20.32 0 011.72 1.34 8.87 8.87 0 011.19 1.26 2 2 0 01.48 1.19.74.74 0 01-.79.77 3.55 3.55 0 01-1.5-.39 9.24 9.24 0 01-1.62-1 14.52 14.52 0 01-1.65-1.48 29.35 29.35 0 01-1.6-1.75c-.26-.33-.54-.66-.79-1a.74.74 0 000 .14 1.84 1.84 0 01.07.47.59.59 0 01-.16.47.6.6 0 01-.39.14 1.2 1.2 0 01-.42-.08l-.39-.15-.21-.14.31.47.41.57.41.59c.14.2.21.33.31.51a.91.91 0 01.15.37.33.33 0 01-.1.23.3.3 0 01-.25.11.77.77 0 01-.37-.12l-.35-.24-.31-.26.09.15.22.4.14.26.29.67.17.37a10.16 10.16 0 01.37 1.01 2 2 0 01.07.48c0 .19-.07.42-.34.42a.42.42 0 00-.14-.06zm-.29-20.52a.9.9 0 01.21-.23 1.47 1.47 0 01.39-.22 1.62 1.62 0 01.62-.1h.14a9.5 9.5 0 01-.12-.74 6.64 6.64 0 01-.05-.89 2.44 2.44 0 01.06-.26.32.32 0 01.3-.19.52.52 0 01.27.15.56.56 0 01.15.41V42a6.27 6.27 0 011.29.5 11 11 0 011.42.9 12.47 12.47 0 011.36 1.12 12.27 12.27 0 011.16 1.24 9 9 0 01.8 1.24 2.65 2.65 0 01.31 1.12.78.78 0 01-.22.58.86.86 0 01-.62.22 3.26 3.26 0 01-1.73-.56 8.32 8.32 0 01-1.72-1.45 12.72 12.72 0 01-1.49-2.08 12.3 12.3 0 01-1-2.33 1.36 1.36 0 00-.59.12 1.39 1.39 0 00-.44.36.88.88 0 01-.12.26.36.36 0 01-.27.17.3.3 0 01-.2-.18A.86.86 0 0116 43a1.53 1.53 0 00-.25-.45l-.44-.56a3.08 3.08 0 00-.5-.45.71.71 0 00-.35-.16c-.1 0-.1.2-.1.26a1.19 1.19 0 00.21.44l.51.68.59.73A4.86 4.86 0 0116 44l.29.67.17.37a10.16 10.16 0 01.37 1.01 2 2 0 01.07.48.53.53 0 01-.11.36.78.78 0 01-.24.2.93.93 0 01-.26.1h-.21a.89.89 0 01-.32 0l.06.08c.15.19.29.41.42.61a6.56 6.56 0 01.37.69 1.63 1.63 0 01.17.68.46.46 0 01-.21.36.69.69 0 01-.41.15 1.12 1.12 0 01-.5-.15 2.63 2.63 0 01-.49-.33 5 5 0 01-.42-.36 1.18 1.18 0 01-.25-.25.12.12 0 01-.06-.1v-.07a.22.22 0 01.09-.19.24.24 0 01.14 0 .51.51 0 01.27.12l.26.23a2.27 2.27 0 00.32.22.53.53 0 00.3.09.31.31 0 00.2-.07.14.14 0 00.07-.11 1.19 1.19 0 00-.24-.61 5.13 5.13 0 00-.56-.76c-.26-.31-.54-.61-.81-.91a.46.46 0 01.06-.23.29.29 0 01.27-.12.36.36 0 01.2.06 1.8 1.8 0 00.31.14 1.16 1.16 0 00.49.1h.12a.33.33 0 00.15 0 .25.25 0 00.12-.08v-.14a.91.91 0 00-.05-.33c0-.14-.07-.26-.12-.39a3.84 3.84 0 00-.13-.52l-.11-.26-.12-.28-.1-.2a2.8 2.8 0 00-.35-.55c-.17-.23-.35-.47-.54-.69s-.32-.41-.49-.61a2.45 2.45 0 01-.29-.35 3 3 0 01-.16-.31 1.25 1.25 0 01-.11-.5.61.61 0 01.16-.4.59.59 0 01.47-.19 1.08 1.08 0 01.67.24 3 3 0 01.54.52 6.46 6.46 0 01.44.59c.11.14.18.27.27.4zM10.79 74l.17.86.24.92a2.6 2.6 0 00.25.57c0 .07.11.16.2.16s.3-.2.37-.33a6.82 6.82 0 00.4-1l-.91-.68a8.86 8.86 0 01-.72-.53zm5.11-20l.76 1.14q.6.84 1.26 1.62c.46.53.94 1 1.42 1.54a12.2 12.2 0 001.49 1.29 7.93 7.93 0 001.46.87 3.1 3.1 0 001.31.33.82.82 0 00.25-.07.23.23 0 00.15-.22 1.5 1.5 0 00-.41-.76 12.06 12.06 0 00-1.15-1.11c-.52-.45-1.06-.87-1.62-1.28s-1.22-.91-1.86-1.34l-1.86-1.26-1.2-.75zm2.34-11.42a5.82 5.82 0 00.32 1 8.36 8.36 0 00.65 1.26 11.31 11.31 0 00.87 1.22 8.27 8.27 0 001 1 5.71 5.71 0 001.14.7 2.79 2.79 0 001.14.26.94.94 0 00.37-.07c.09 0 .1-.12.1-.2a1.81 1.81 0 00-.26-.78 6.82 6.82 0 00-.7-.97 12.43 12.43 0 00-1.06-1.12 15.66 15.66 0 00-1.25-1 10.24 10.24 0 00-1.31-.88 3.65 3.65 0 00-1-.39zm-3.12-21.7a15.36 15.36 0 00-1.19-1.66 22.69 22.69 0 00-1.6-1.79c-.55-.57-1.12-1.1-1.72-1.61a20.65 20.65 0 00-1.67-1.29 11 11 0 00-1.44-.86 2.73 2.73 0 00-1-.31c-.26 0-.35.14-.35.37a2.42 2.42 0 00.45 1.12 11.67 11.67 0 001.24 1.49A20.36 20.36 0 009.6 18a22.21 22.21 0 002 1.44 16.81 16.81 0 002 1.07 5.88 5.88 0 001.5.43zM15.39 2a2.16 2.16 0 00-.39-.22.85.85 0 00-.37-.15c-.09 0-.1.08-.1.15s.1.12.16.16a1 1 0 00.45.09zM8.57 38.92c-5.29 2-7.08.93-7-.23s1.14-1.49 2-1.85A4.21 4.21 0 012.1 35.7 1.85 1.85 0 115 33.43c1.91 2.51 4 4.77 8.24 4.75-3.69-.58-5.87-1.65-7.58-5.18s-9-.19-3.88 3.85a2.93 2.93 0 00-1.55 2.29c0 .62.36 1.23 1.71 1.48 2.15.4 4.89-.62 6.63-1.7z"/></svg>
