<svg xmlns="http://www.w3.org/2000/svg" viewBox="0 0 210.3 88.89"><title>keddo</title><path d="M42.12,72V88.89H72.43V79.74l-14.72,2V52.75L71,54.82V46.23H57.71V25.11l14.72,2V17.91H42.12V72Zm15.45-57.6.12.12,11.76-9L68,4l-1.89-1.9L64,0,55,11.76l.77.77,1.9,1.9ZM194.68,34.92V81.33h0v0a23.6,23.6,0,0,1-3.49.26h-.31a24.73,24.73,0,0,1-3.55-.26v0h0V25.46h0v0a24.42,24.42,0,0,1,3.55-.26h.28a23.9,23.9,0,0,1,3.49.26v0h0v9.46ZM114,21.43A38.55,38.55,0,0,0,97.8,17.89H77V27l5.18-.68V80.42L77,79.74v9.15H97.77A38.55,38.55,0,0,0,114,85.35v0a38.67,38.67,0,0,0,4.74-2.58V24A36.15,36.15,0,0,0,114,21.46v0ZM103.12,64.52V81.33a41.51,41.51,0,0,1-5.27.36V25.09a35.25,35.25,0,0,1,5.27.37Zm57.55-43.09a38.6,38.6,0,0,0-16.19-3.54H123.73V27l5.19-.68V80.42l-5.19-.68v9.15h20.72a38.57,38.57,0,0,0,16.19-3.54v0a38.54,38.54,0,0,0,4.73-2.58V24a36,36,0,0,0-4.73-2.58v0ZM0,17.89v71H15.59V62.53l6,26.36H38.72l-15.42-38,13.61-33H22.45L15.62,41.56V17.89H0ZM210.3,82.74V24.07a34.89,34.89,0,0,0-4.73-2.58v0a37.19,37.19,0,0,0-10.15-3.06v0a25.3,25.3,0,0,0-4.19-.37h-.29a22.37,22.37,0,0,0-4.19.37v0a38.25,38.25,0,0,0-10.21,3.09v0a41.42,41.42,0,0,0-4.73,2.58V82.8a37.24,37.24,0,0,0,4.73,2.58v0a39,39,0,0,0,10.21,3.09v0a26.32,26.32,0,0,0,4.19.36h.29a23.31,23.31,0,0,0,4.19-.36v0a39.79,39.79,0,0,0,10.15-3.06v0a41.42,41.42,0,0,0,4.73-2.58h0ZM149.84,64.52V81.33a41.77,41.77,0,0,1-5.27.36V25.09a35.44,35.44,0,0,1,5.27.37Z" fill="#fff" fill-rule="evenodd"/></svg>