<svg xmlns="http://www.w3.org/2000/svg" viewBox="0 0 40.01 119.47"><path fill="#fff" fill-rule="evenodd" d="M0 119.09h27.22V99.92h-5.59v12.12H0v7.05zM0 81.72l27.22 10.14v-7.44l-5.39-1.79V73.9l5.39-1.75v-7.51L0 74.84zm7.17-3.46l9.23-2.57v5.19zM22 48.6v-2.13c0-5.28-2.43-7.54-8.1-7.54s-8 2.26-8 7.54v2.13zM.21 55.72V48c0-5.43.65-8.43 2.42-11a13.16 13.16 0 0111.22-5.47c5.59 0 10.14 2.65 12.27 7.16 1 2.11 1.45 5 1.45 9.27v7.71z"/><path fill="#fff" fill-rule="evenodd" d="M.21 26.37l16.57-9.63h10.79v-7.1H16.78L.21 0v7.9l10.61 5.15L.21 18.34v8.03z"/><path fill="#fff" fill-rule="evenodd" d="M39.22 114.07a3.7 3.7 0 01.72 2.24 3.27 3.27 0 01-6.53 0 3.53 3.53 0 01.74-2.24h.7a3 3 0 00-.94 2.22 2.78 2.78 0 005.54 0 3.28 3.28 0 00-.92-2.23z"/><path fill="#fff" fill-rule="evenodd" d="M36.68 100.66a2.69 2.69 0 102.77 2.68 2.66 2.66 0 00-2.77-2.68m0 6a3.32 3.32 0 113.26-3.32 3.21 3.21 0 01-3.26 3.32M33.59 92.05v-.6h5.68v-1.98h.49v2.58h-6.17zM33.59 81.86v-.59h5.68v-1.98h.49v2.57h-6.17zM33.59 71.68V68.4h.49v2.69h1.98v-2.6h.49v2.6h2.72V68.4h.49v3.28h-6.17zM39.22 55.38a3.67 3.67 0 01.72 2.23 3.27 3.27 0 01-6.53 0 3.51 3.51 0 01.74-2.23h.7a3 3 0 00-.94 2.21 2.78 2.78 0 005.54 0 3.24 3.24 0 00-.92-2.22zM34.08 46.4v1.63h-.49v-3.87h.49v1.64h5.69v.6h-5.69z"/><path fill="#fff" fill-rule="evenodd" d="M39.76 36.55v-.6h-6.17v.6h6.17z"/><path fill="#fff" fill-rule="evenodd" d="M36.68 22a2.69 2.69 0 102.77 2.69A2.66 2.66 0 0036.68 22m0 6a3.32 3.32 0 113.26-3.31A3.21 3.21 0 0136.68 28"/><path fill="#fff" fill-rule="evenodd" d="M33.34 13.37l5.16-4.66h-4.91v-.59h6.42l-5.16 4.65h4.91v.6h-6.42z"/></svg>
