<svg xmlns="http://www.w3.org/2000/svg" viewBox="0 0 123.2 33.4"><g fill="#fff"><path d="M94.4 8.3H81.6v4.2h4.3V25h4.2V12.5h4.3zm-18.7 5.9h-5.9V8.3h-4.2v5.9h-1.2v4.2h1.2V25h4.2v-6.6h5.9V25h4.2V8.3h-4.2zm-20.8 4.2h7.8v-4.2h-7.9v-1.7h8.1l.1-4.2H50.7V25h12.5v-4.1h-8.3zM32.3 25h4.4l4.2-12.5h3.4V25h4.4V8.3H37.9z"/><path d="M103.4 8.3h-5.2L95.7 16h-2.8v4.2h1.4L92.6 25h4.2l1.7-4.9h4.8L105 25h4.2l-5.8-16.7zM99.9 16l1-2.9 1 2.9h-2zm-70.1-5.3c-.2 0 1.7-.9 1.7-1.3 0-.9-1.9-1.6-3.8-1.5-.2 0 0-.9-.5-1.8-.3-.5-.4-.7-2.4.1-.2-.8-1.2-3.2-3-.9-.3-.4-.5-.9-1.1-1.1l-.9 1.1c-.4-.2-1.3-.8-2.1-.7-.1.1-.2.6-.2 1.3-.2 0-1.2-.3-2.1-.1 0 .1.3 1 .6 1.4-.6 0-1.7.3-1.9.6 0 .2 0 .6 1.3 1.7-.7.2-1.4.8-1.4 1-.1.8 1.5 1.8 2 2-.4.8-.7 1.8-.5 2.2.9.7 1.8.8 2.5.7l-.1.5v.1l-.2.6-.1.3c0 .4.9.7 1.6.7h.7a5 5 0 0 0 1.7-.5l.3-.2c.3.5 1 1.5 2.8 2.2.3-.2.9-1.3.9-1.4.2.3 1.6 1.2 2.7 1 .5-.4.4-2.2.4-2.2s1.1.4 1.8.3c.2 0 .6 0 .7-.4v-1.2c-.2-.6-.9-1.3-.9-1.3s1.3-.2 2-1c.1-.7-1.4-1.8-2.5-2.2zm-2.7 2.9l-.7.2-.1.6h-.8l-.3.5-.8-.2-.5.3-.8-.4-.7.1-.6-.7H21l-.4-.6-.8-.2-.2-.6-.7-.4.1-.6-.7-.6.3-.5-.4-.6.5-.3-.1-.6.7-.2.1-.6h.8l.3-.5.8.3.5-.3.7.4.8-.1.6.5.8.1.4.6.8.3.2.6.7.4v.5l.6.5-.3.5.4.6-.6.4.2.6z"/><path d="M27.6 22.7c-2.4-2-4.3-.5-4.8-.3a9 9 0 0 0-1.7 1.4l.7-3.3c.1-.8.5-3 0-3.3-.1 0-.1-.1-.2.4 0 0-.1.9-.8 3.1l-.6 2c-.2-.8-.9-1.9-2.4-2.9-.5-.3-2.4-1.9-4.8.3-.2.2-.4.6.1.9.5.3.7.5.8.9.1.4.7 1.8 2.7 1.9 2 .2 2.4.4 2.7.7l.4.3v.1s-.3 2.5.4 3.5c.7 1.1 1.5.8 1.5.8s-.6-.8-.8-2.2l.4-.3c.4-.3.7-.5 2.7-.7 1.9-.1 2.5-1.4 2.7-1.8.1-.4.3-.5.8-.8.6-.2.4-.5.2-.7zm-13.9-2.3a5 5 0 0 1 5.6 2.6c-2.6-2.7-5.6-2.6-5.6-2.6zm7.5 4.9c.7-1.2 2.2-2.8 5.6-2.3 0 0-4 .5-5.6 2.3z"/></g></svg>
