<svg xmlns="http://www.w3.org/2000/svg" viewBox="0 0 100 100"><path fill="#fff" d="M48.3 90.4v-3.2L46.9 83h-1.6L44 87.2v3.2h1V88h2.3v2.4zM45 87.2l1-3.4h.2l1 3.4zM40.5 86v-1.4a1.5 1.5 0 00-.5-1.1 1.7 1.7 0 00-1.3-.5h-2.1v7.4h.9v-2.7h1l1.2 2.7h1l-1.3-2.9a1.6 1.6 0 001-1.5zm-1 0a.8.8 0 01-.9.8h-1.1v-3h1.2a.8.8 0 01.8.8zm14.8 4.4v-6.6H56v-.9h-4.3v.9h1.7v6.6zm-29.2-5.8a1.6 1.6 0 00-.6-1.2 2 2 0 00-1.4-.4h-2v7.4H23a2.3 2.3 0 001.5-.5 1.6 1.6 0 00.6-1.3V88a1.7 1.7 0 00-.7-1.4 1.6 1.6 0 00.6-1.3zm-3-.8h1a.9.9 0 011 .7.3.3 0 010 .1v.6a.8.8 0 01-.7.9H22zm2 4.8a1 1 0 01-1 1h-1v-2.7h1a1 1 0 011 .9v.8zM0 100h100v-1H0zm5.9-17v7.4h3.9v-.8h-3V83zm26.4 7a1.8 1.8 0 00.7-1.5v-3.7a1.8 1.8 0 00-.6-1.4 2.1 2.1 0 00-1.6-.6 2.2 2.2 0 00-1.6.6 1.9 1.9 0 00-.6 1.4v3.7a2 2 0 00.6 1.4 2.2 2.2 0 001.6.6 2.2 2.2 0 001.6-.6zm-2.8-1.5v-3.7a1.3 1.3 0 012.5 0v3.7a1.3 1.3 0 01-1.5 1.1 1.3 1.3 0 01-1-1zm-12 1.9v-3.2L16.2 83h-1.6l-1.4 4.3v3.1h1V88h2.4v2.4zm-3.3-3.2l1-3.4h.3l1 3.4zm0-22.3c7.4 0 12.4-5 12.4-12.8s-5-12.8-12.4-12.8H5.4a225.5 225.5 0 010 25.6zM10 43h3.3c5.6 0 9 3.3 9 9s-3.4 9.2-9 9.2H10L9.9 52 10 43zm84.6-7.9L95 31a83.5 83.5 0 01-9 .5h-3.7v-7.6H84l9 .1.5-4.2c-3.1.3-6.3.3-9.1.3h-2.3l.1-6.8h3.1a83.5 83.5 0 019.1.4l-.4-4.1H77.7a223 223 0 010 25.5zm-24.7 4.3a216.5 216.5 0 010 25.5h4.6c-.3-4.3-.4-8.5-.4-12.8v-3.5l6.5 16.3h3.2l6.6-16.3v3.5c0 4.3-.2 8.5-.4 12.8h4.7a216.5 216.5 0 010-25.5h-4l-8.3 20-8.4-20zm-9-4.3l-.3-8.4h6c1.4 2.8 2.6 5.6 3.7 8.4h5.1L71 25.4a8.3 8.3 0 004-7.2c0-5-3.9-8.6-9-8.6h-9.8a217 217 0 010 25.5zm-.1-21.8H65c3.1 0 5.3 1.8 5.3 5s-2.2 5-5.3 5h-4.5v-.9c0-3.1 0-6.1.2-9.1zM0 0v1h100V0zm48.8 52.1c0 4.3 0 8.5-.3 12.8h4.8l-.2-8.4h5.7c1.4 2.8 2.6 5.6 3.6 8.4h5.2L63 55.2a8.2 8.2 0 004-7.3c0-5-3.8-8.5-8.9-8.5h-9.6c.3 4.2.3 8.4.3 12.7zm4.4-9.1h4c3.2 0 5.3 1.8 5.3 5s-2.1 5-5.2 5H53v-.8c0-3.1 0-6.2.2-9.2zm-7.8-7.9c4.9 0 8-2.8 8-7a6.6 6.6 0 00-3.7-6.3 6.3 6.3 0 002.9-5.5c0-4-2.9-6.7-7.5-6.7H33.7a217 217 0 010 25.5zm-7.1-22h6.1c2.2 0 3.8 1.3 3.8 3.6s-1.6 3.6-3.8 3.6h-6.3c0-2.5 0-4.9.2-7.3zm6.4 10.7c2.4 0 4.1 1.4 4.1 4s-1.7 3.9-4.1 3.9h-6.4a228 228 0 01-.2-8zM29.3 52c0 4.3 0 8.5-.3 12.8h16.6l.4-4.1a83.2 83.2 0 01-9 .4h-3.4l-.1-7.6h1.6c2.8 0 6 0 9.1.2l.5-4.2c-3.2.3-6.4.4-9.2.4h-2l.2-7h2.8a81 81 0 019.1.6l-.4-4.2H29c.2 4.2.3 8.4.3 12.7zM0 74.5h100v-1.1H0zM29.8 35a217 217 0 010-25.5H25A217 217 0 0125 35zm56.8 48.7v-.9h-3.8v7.5h3.9v-.9h-3V87h2.6V86h-2.6v-2.3zM71.2 86v-1.4a1.5 1.5 0 00-.5-1.1 1.7 1.7 0 00-1.3-.5h-2v7.4h.9v-2.7h1l1.1 2.7h1l-1.3-2.9a1.6 1.6 0 001.1-1.5zm-1 0a.8.8 0 01-.8.8h-1.1v-3h1.1a.8.8 0 01.9.8zm4.6 3.5v.8H79v-.8h-1.7v-5.7H79V83h-4.3v.8h1.6v5.8zM22.2 35.1l.4-4.1a83.5 83.5 0 01-9 .5H10a246.8 246.8 0 01.2-21.9H5.4a226 226 0 010 25.5zm41 54.8a1.9 1.9 0 00.5-1.4v-3.7a1.8 1.8 0 00-.6-1.4 2.1 2.1 0 00-1.6-.6 2.2 2.2 0 00-1.6.6 1.9 1.9 0 00-.6 1.4v3.7A2 2 0 0060 90a2.2 2.2 0 001.6.6 2.1 2.1 0 001.6-.6zm-3-1.4v-3.7a1.3 1.3 0 011.5-1 1.3 1.3 0 011.1 1v3.7a1.3 1.3 0 01-1.5 1.1 1.3 1.3 0 01-1-1zm30-.2v.2a2 2 0 00.5 1.4 2.2 2.2 0 001.6.6A2.1 2.1 0 0094 90a1.9 1.9 0 00.6-1.4c0-1.4-1.2-2-2.2-2.5-.6-.3-1.2-.7-1.2-1.3a1 1 0 011.2-1 1.1 1.1 0 011.2 1.2h1v-.1a1.9 1.9 0 00-.7-1.3 2 2 0 00-1.5-.6 2.2 2.2 0 00-1.5.5 1.8 1.8 0 00-.7 1.4c0 1.3 1.3 1.8 2.2 2.3a1.8 1.8 0 011.2 1.5 1.1 1.1 0 01-1.3 1 1.1 1.1 0 01-1.2-1 .8.8 0 010-.1v-.3z"/></svg>
