<svg xmlns="http://www.w3.org/2000/svg" viewBox="0 0 104.96 16.69"><title>mango</title><path d="M0,.62H2.76L10,12.93,8.6,15.19,2.76,5.31V16.38H0Zm14.11,0h2.76V16.37H14.11V5.46L11.17,10.6,9.79,8.17ZM45.5.64h1.14L59.17,14.82v1.56H57.26L46.6,4.32V16.37H44.06V.64Zm10.93,0H59V11.1L56.43,8.49ZM95.7.08c5.12,0,9.26,3.67,9.26,8.2,0,4.11-3.41,7.51-7.86,8.11V13.71A5.77,5.77,0,0,0,102,8.28c0-3.08-2.82-5.57-6.29-5.57S89.4,5.2,89.4,8.28a5.77,5.77,0,0,0,4.88,5.43v2.68c-4.45-.6-7.86-4-7.86-8.11,0-4.53,4.16-8.2,9.28-8.2ZM73.77,0A9.66,9.66,0,0,1,81,3.13l-2.09,2a6.49,6.49,0,0,0-5.14-2.4,6.09,6.09,0,0,0-6.25,5h-3C64.89,3.4,68.89,0,73.77,0ZM67.89,10.19A6.9,6.9,0,0,0,73.77,14c2.86,0,4.1-.82,5.31-2.4V10.24H73.65V7.4h8v5.26a9.49,9.49,0,0,1-7.93,4,9.1,9.1,0,0,1-9-6.5ZM29.25.61H32l7.48,15.77H36.73l-2.3-4.84h-8l-2.3,4.84H21.39L27.76,3l1.36,3L27.68,9h5.54Z" fill="#fff" fill-rule="evenodd"/></svg>