<svg xmlns="http://www.w3.org/2000/svg" viewBox="0 0 23.11 63.2"><title>mio</title><path d="M22.42,11.26c0,5.8-4.33,10.46-9.89,10.46H10.59A10.11,10.11,0,0,1,.69,11.36C.69,5.36,5,.79,10.78.79h1.36A10.08,10.08,0,0,1,22.42,11.26ZM11,22.41h1.17A10.75,10.75,0,0,0,23,11.45v-.39a10.74,10.74,0,0,0-11-11h-1a10.77,10.77,0,0,0-11,10.56v1.17A10.77,10.77,0,0,0,11,22.41Z" fill="#fff" stroke="#fff" stroke-miterlimit="22.93" stroke-width="0.22" fill-rule="evenodd"/><path d="M.59,63.09c.23,0,.29-.07.29-.29V59.87H22.71c.22,0,.29-.07.29-.3,0-.51-1.79-.29-2.33-.29h-19c.29-.44,6-4.47,7-5.2.75-.57,6.9-4.93,6.9-5.27s-6.16-4.67-6.91-5.25c-1-.78-6.63-4.72-7-5.21H18.93c2.21,0,3.88.37,3.88-2V34.53h-.29c-.94,0,.78,3.23-1.75,3.23H.88V34.83c0-.23-.06-.3-.29-.3H.3v3.33c0,.66,2.79,2.41,3.38,2.85,1.21.92,2.41,1.78,3.65,2.69.85.62,7,5.23,7.33,5.32C14.48,49.39.3,59,.3,59.67v3.42Z" fill="#fff" stroke="#fff" stroke-miterlimit="22.93" stroke-width="0.22" fill-rule="evenodd"/><path d="M.59,32.48c.23,0,.29-.07.29-.29V29.25H22.23v2.94c0,.22.06.29.29.29s.29-.07.29-.29V25.63c0-.22-.07-.29-.29-.29s-.29.07-.29.29v2.94H.88V25.63c0-.22-.06-.29-.29-.29s-.29.07-.29.29v6.56C.3,32.41.37,32.48.59,32.48Z" fill="#fff" stroke="#fff" stroke-miterlimit="22.93" stroke-width="0.22" fill-rule="evenodd"/></svg>