<svg xmlns="http://www.w3.org/2000/svg" viewBox="0 0 235.5 43.8"><path fill="#fff" d="M233.6 43.8v-3.7h-9.1l-.7 3.6h-1l-.1-4.3.2-.1a8.4 8.4 0 001.5-.1c1.5-1.1 2.3-3.6 2.3-7.3a5.2 5.2 0 00-.4-2.4l.1-.1h6.7l.2.1a30.8 30.8 0 00-.2 4.8v5l2.3.1h.1a43.3 43.3 0 01-.7 4.4zm-2.1-4.5l.1-3.9-.1-5a22.9 22.9 0 00-3.7 0c0 3.9-.4 7.3-2.1 8.9l2.9-.1a25.5 25.5 0 012.9.1zm-201.3 2L28 20.6a19.9 19.9 0 00-7.4 7.9 23.1 23.1 0 011.9 9.1 22.5 22.5 0 01-.1 2.6l-3.4-.1-3.6.1a20.5 20.5 0 01-.1-2.6 23.1 23.1 0 011.9-9.1 19.2 19.2 0 00-7.4-7.9L7.6 41.3A47.2 47.2 0 000 43.6l5-28.3a22.7 22.7 0 0113.9 9.9 23.1 23.1 0 0113.9-9.9l5 28.3a51.6 51.6 0 00-7.6-2.3zM210 35.1a5.6 5.6 0 015.2-5.9h.7c3.3 0 5.8 2.2 5.8 5.5a5.6 5.6 0 01-5.5 5.8h-.4c-3.7 0-5.8-2.4-5.8-5.4zm1.6-.3c0 2.8 1.8 4.7 4.2 4.7 2.6 0 4.3-1.9 4.2-4.9 0-2.7-1.7-4.6-4.2-4.6-2.2 0-4.2 1.7-4.2 4.8zM52 35.3h-1.7c0 1.6 0 3.2.2 4.8l-.1.1h-1.5l-.1-.1a47.1 47.1 0 00.2-4.9 45.2 45.2 0 00-.2-5.7l.1-.1h1.5l.1.1a28.5 28.5 0 00-.2 4.8H52a5.7 5.7 0 015.7-5.1 5.4 5.4 0 015.5 5.3v.3a5.7 5.7 0 01-5.7 5.7 5.4 5.4 0 01-5.5-5.2zm1.6-.6c0 3 1.8 4.8 4 4.8 2 0 3.9-1.7 3.8-4.8 0-2.8-1.7-4.7-3.9-4.7s-3.9 2.1-3.9 4.7zm122.6 4.6v-1.5h.2a4.5 4.5 0 003.5 1.7c1.8 0 2.8-.9 2.8-2.3s-1.3-2.2-3-2.2h-1.2v-.9a4.4 4.4 0 001.2.1 2.5 2.5 0 002.6-2.3c0-1.2-.8-1.9-2.2-1.9a3.4 3.4 0 00-2.9 1.7h-.2l-.6-1.6a8.3 8.3 0 013.8-1c1.7 0 3.6.8 3.6 2.6a3 3 0 01-2.4 2.8 2.7 2.7 0 012.8 2.6c0 1.8-1.6 3.3-4.3 3.3a6.3 6.3 0 01-3.7-1.1zM87.4 39c2-.3 2.8-2.4 2.8-6.9a5.6 5.6 0 00-.4-2.6l.2-.1h6.7l.1.1a30.8 30.8 0 00-.2 4.8 45 45 0 00.2 5.8l-.1.1a3.8 3.8 0 00-1.5 0l-.1-.1.1-4.7-.1-5a24.1 24.1 0 00-3.8 0c0 6.8-.8 9.5-3.7 10a7.4 7.4 0 01-.2-1.4zm106.9 1.2l-.1-.1-.8-2.3h-5.2l-.8 2.2-.1.1a4 4 0 00-1.1 0l-.1-.1c1.3-2.3 3.3-7.2 4.8-10.9h.7l4.4 11-.1.1a4.3 4.3 0 00-1.6 0zm-5.6-3.3a32.3 32.3 0 004.4 0c-.7-2-1.4-4.1-2.1-5.7l-2.3 5.7zm-23.3 3.3l-.1-.1c.2-1.1.2-7.3.2-8-2.3 2.7-4.2 4.4-7.2 8.1h-.7l.1-5a45.2 45.2 0 00-.2-5.7l.1-.1a3.8 3.8 0 001.5 0v.1c-.2.9-.2 6.8-.2 8.3a83.5 83.5 0 007.3-8.3h.8a30.8 30.8 0 00-.2 4.8 45 45 0 00.2 5.8l-.1.1a3.8 3.8 0 00-1.5 0zm-23.5 0l-.1-.1c.2-.9.2-5.1.2-5.1a50.5 50.5 0 00-.2-5.5l.1-.1a3.8 3.8 0 001.5 0l.1.1a34.4 34.4 0 00-.2 3.8 5.4 5.4 0 011.5-.2c2.3 0 4.2.9 4.3 3.4a3.9 3.9 0 01-4 3.7h-.1a16 16 0 00-3.1 0zm1.4-6.3l.1 5.3a5.4 5.4 0 001.2.1 2.4 2.4 0 002.7-2.1 2.8 2.8 0 000-.6 2.5 2.5 0 00-2.3-2.8 2 2 0 00-.4 0l-1.3.1zm-8.3 6.3l-.1-.1a40.5 40.5 0 00.2-4.8h-6.4a45.3 45.3 0 00.2 4.8l-.1.1a3.8 3.8 0 00-1.5 0l-.1-.1a29.7 29.7 0 00.2-4.9 45.2 45.2 0 00-.2-5.7l.1-.1a3.8 3.8 0 001.5 0l.1.1a61 61 0 00-.2 4.8h6.4c0-1.6 0-3.2-.2-4.8l.1-.1a3.8 3.8 0 001.5 0l.1.1a30.8 30.8 0 00-.2 4.8 43.2 43.2 0 00.2 5.8l-.1.1a3.8 3.8 0 00-1.5 0zm-18.6 0l-.1-.1a50.5 50.5 0 00.2-5.5s0-4.2-.2-5.1l.1-.1a29.2 29.2 0 003.1-.1c2.2 0 4 1.2 4 3.4 0 2.5-2 3.8-4.2 3.8a5.4 5.4 0 01-1.5-.2 34.4 34.4 0 00.2 3.8l-.1.1a3.8 3.8 0 00-1.5 0zm1.6-9.9l-.1 5.3a5.2 5.2 0 001.3.1 2.6 2.6 0 002.7-2.6 1.5 1.5 0 000-.2 2.4 2.4 0 00-2.1-2.7 3 3 0 00-.6 0 5.4 5.4 0 00-1.2.1zm-8.4 9.9l-.1-.1c.2-1.1.2-7.3.2-8-2.4 2.7-4.2 4.4-7.2 8.1h-.7l.1-5a45.2 45.2 0 00-.2-5.7l.1-.1a3.8 3.8 0 001.5 0v.1l-.2 8.3a83.5 83.5 0 007.3-8.3h.8a30.8 30.8 0 00-.2 4.8 45 45 0 00.2 5.8l-.1.1a3.8 3.8 0 00-1.5 0zM81 40.1l-2.7.1-.1-.1a29.7 29.7 0 00.2-4.9 45.2 45.2 0 00-.2-5.7l.1-.1h6.3a1.7 1.7 0 00.1 1.2 26.5 26.5 0 00-4.8-.1v3.8l4.1-.1v1.1l-4.1-.1v4l5-.1v1.1l-3.9-.1zm-14.2.1l-.1-.1a49.3 49.3 0 00.2-5.7l-.2-4.9.1-.1c.9.1 2.9-.1 4-.1 1.8 0 3.1.8 3.1 2.4a3 3 0 01-2.3 2.8 3 3 0 012.9 2.4c0 2.3-1.9 3.3-4.4 3.3h-3.3zm1.4-.9a19 19 0 002 .1c1.6 0 2.6-.7 2.6-2.3 0-1.3-1.3-2-2.9-2h-1.8l.1 4.2zm.1-9l-.1 3.9h1.5c1.7 0 2.7-.9 2.7-2.2 0-1.5-1.1-1.8-2.2-1.8a10 10 0 00-1.9.1zm131.1 9.8l-.1-.1a49.3 49.3 0 00.2-5.7l-.2-4.9.1-.1a26.7 26.7 0 004 0c1.9 0 3.1.8 3.1 2.4a2.8 2.8 0 01-2.2 2.8c1.4.1 2.8 1.1 2.8 2.3 0 2.2-1.9 3.3-4.4 3.3h-3.3zm1.6-.8a15.1 15.1 0 001.9.1c1.6 0 2.7-.7 2.7-2.2s-1.3-2.1-2.9-2.1h-1.8c-.1.9.1 4.2.1 4.2zm0-9l-.2 3.9h1.5c1.7 0 2.7-.9 2.7-2.2 0-1.5-1.1-1.8-2.2-1.8a9.9 9.9 0 00-1.8.1zm-50.2 9.8l-.1-.1a40.5 40.5 0 00.2-4.8v-1c0-1.6 0-3.2-.2-4.8l.1-.1a3.8 3.8 0 001.5 0l.1.1a30.8 30.8 0 00-.2 4.8 45 45 0 00.2 5.8l-.1.1a3.8 3.8 0 00-1.5 0zm9.2-13.7v-.2a3.4 3.4 0 01.9-.7v.1a2.7 2.7 0 002.4 1.7 2.2 2.2 0 002-1.4h.2a1.7 1.7 0 01.3.6 3.1 3.1 0 01-2.9 1.6 3 3 0 01-2.9-1.7zm-32.1-10.2c0-3.3 2.5-5.6 6.1-5.6a10.6 10.6 0 014.2 1 7.3 7.3 0 01-.6 1.7h-.2a4 4 0 00-3.6-1.9c-2.4 0-4.3 1.8-4.3 4.7 0 3.1 2 4.8 4.4 4.8a4.8 4.8 0 004-1.9h.2v1.6a7.3 7.3 0 01-4.3 1.3 5.5 5.5 0 01-5.9-5.1 5.8 5.8 0 010-.6zm-25.8.3a5.5 5.5 0 015.3-5.8h.6c3.3 0 5.7 2.2 5.7 5.3a5.6 5.6 0 01-5.3 5.9 4.9 4.9 0 01-.5 0c-3.7 0-5.8-2.4-5.8-5.4zm1.5-.1c0 2.8 1.8 4.7 4.2 4.7 2.6 0 4.3-2 4.3-4.9 0-2.6-1.7-4.6-4.2-4.6-2.3 0-4.3 1.7-4.3 4.8zm-25-.2c0-3.3 2.5-5.6 6.1-5.6a10.2 10.2 0 014.2 1 7.3 7.3 0 01-.6 1.7h-.2a4.1 4.1 0 00-3.6-1.9c-2.4 0-4.3 1.8-4.3 4.7 0 3.1 2 4.8 4.4 4.8a4.8 4.8 0 004-1.9h.2v1.6a7.3 7.3 0 01-4.3 1.3 5.5 5.5 0 01-5.9-5.1 5.8 5.8 0 010-.6zm-14.7.3a5.5 5.5 0 015.3-5.8h.6c3.3 0 5.8 2.2 5.8 5.3a5.6 5.6 0 01-5.3 5.9 4.9 4.9 0 01-.5 0c-3.8 0-5.9-2.4-5.9-5.4zm1.5-.1c0 2.8 1.8 4.7 4.2 4.7 2.6 0 4.3-2 4.3-4.9 0-2.6-1.7-4.6-4.2-4.6-2.3 0-4.2 1.7-4.3 4.8zm110.3 5.3l-.1-.1c.2-1.1.2-7.3.2-8-2.3 2.7-4.2 4.4-7.2 8.1h-.7l.1-5a45.2 45.2 0 00-.2-5.7l.1-.1a3.8 3.8 0 001.5 0v.1l-.2 8.3a83.5 83.5 0 007.3-8.3h.8a30.8 30.8 0 00-.2 4.8 45 45 0 00.2 5.8l-.1.1a3.8 3.8 0 00-1.5 0zm-14.6 0l-.1-.1c.2-1.1.2-7.3.2-8-2.3 2.7-4.2 4.4-7.2 8.1h-.7l.1-5a45.2 45.2 0 00-.2-5.7l.1-.1a3.8 3.8 0 001.5 0v.1l-.2 8.3a83.5 83.5 0 007.3-8.3h.8a30.8 30.8 0 00-.2 4.8 43.2 43.2 0 00.2 5.8l-.1.1a3.8 3.8 0 00-1.5 0zm-13.4 0a45.5 45.5 0 00-4.6-5.4 44.6 44.6 0 00.2 5.3l-.1.1a3.8 3.8 0 00-1.5 0l-.1-.1a52.3 52.3 0 00.2-5.6 49 49 0 00-.2-5l.1-.1a3.8 3.8 0 001.5 0l.1.1a44.5 44.5 0 00-.2 4.9c.2-.3 3.2-3.3 4.6-5a5.4 5.4 0 001.8 0v.2a48.3 48.3 0 00-5 4.6s3.3 3.8 5.4 5.8v.2a16.1 16.1 0 00-2.2 0zm-30.5 0l-.1-.1a49.3 49.3 0 00.2-5.7l-.2-4.9.2-.2a26.7 26.7 0 004 0c1.8 0 3.1.8 3.1 2.4a3 3 0 01-2.3 2.8c1.5.1 2.8 1 2.8 2.4 0 2.3-1.9 3.3-4.4 3.3h-3.3zm1.8-.9a15.1 15.1 0 001.9.1c1.6 0 2.6-.7 2.6-2.3 0-1.3-1.3-2-2.9-2h-1.8a39.4 39.4 0 00.2 4.2zm-.1-9l-.2 3.9h1.5c1.7 0 2.7-.9 2.7-2.2 0-1.5-1.1-1.8-2.2-1.8l-1.8.1zm-20.5 9.9a45.5 45.5 0 00-4.6-5.4 44.6 44.6 0 00.2 5.3l-.1.1a3.8 3.8 0 00-1.5 0l-.1-.1a49.8 49.8 0 00.2-5.6 49 49 0 00-.2-5l.1-.1a3.8 3.8 0 001.5 0l.1.1a44.5 44.5 0 00-.2 4.9c.2-.3 3.2-3.3 4.6-5a5.4 5.4 0 001.8 0v.2a48.3 48.3 0 00-5 4.6s3.4 3.8 5.4 5.8v.2a16.1 16.1 0 00-2.2 0zm-39.2 0l-.1-.1-.8-7.8-3.8 7.8h-.4l-3.9-7.5a52.4 52.4 0 00-.7 7.5l-.1.1a4 4 0 00-1.1 0l-.1-.1a162 162 0 001.5-10.9h.4l4.5 8.7 4.3-8.7h.5l1.4 10.9-.1.1a3.8 3.8 0 00-1.5 0zM5.8 11.6l.5-3.1a29 29 0 019.9 4.3A14 14 0 0119 0a14 14 0 012.8 12.8 29 29 0 019.9-4.3l.5 3.1A26.4 26.4 0 0019 19.2a26.9 26.9 0 00-13.2-7.6zm164.3-3.7v-.2a3.4 3.4 0 01.9-.7v.1a2.6 2.6 0 002.4 1.7 2.2 2.2 0 002-1.4h.2a1.7 1.7 0 01.3.6 3.1 3.1 0 01-2.9 1.6 3 3 0 01-2.9-1.7z"/></svg>
