<svg xmlns="http://www.w3.org/2000/svg" viewBox="0 0 62 392"><path fill="#fff" d="M0 392l1-10 38-5-38-5v-10h60v5H21v1l40 6c1 4 0 6-4 6l-35 6h39l1 6zM51 0l4 2c4 1 6 4 6 9 0 4-3 7-7 8a10 10 0 01-3 1H10c-6 0-9-4-10-8C0 7 2 3 6 2l5-2zM31 7H11c-2 0-3 2-5 3 2 1 3 4 5 4h39c2 0 3-3 5-4-2-1-3-3-5-3H31zM31 306H11c-6 0-10-4-11-9 0-5 2-9 7-10a24 24 0 016-1h35c8 0 13 4 13 10 1 6-5 10-14 10H31zm-1-13H11c-2 0-5 0-4 3l4 3h39c2 0 4-2 5-3 0-3-3-3-5-3zM61 211v6H33v7h28v6H1l-1-6h27v-7H1v-6zM7 87l-1 7H1V74h5l1 7h54v6zM0 155v-6h61v6z"/></svg>
