<svg xmlns="http://www.w3.org/2000/svg" viewBox="0 0 97.99 393.73"><title>mts</title><path d="M0,358.73c0,7.31,7,16,18.83,23.11,12.23,7.45,27.37,11.89,40.51,11.89,19.25,0,38.65-10.8,38.65-35s-19.4-35-38.65-35c-13.14,0-28.28,4.44-40.51,11.85C7,342.79,0,351.45,0,358.73Zm28.87-189v-24.5H92.75V119H28.87V94.5H5.25v75.24Zm0-131.24V0H5.25V38.5C5.25,73.87,22.83,92.76,49,92.76S92.75,73.87,92.75,38.5V0H69.12V38.5c0,16.37-5.85,27.13-20.12,27.13S28.87,54.87,28.87,38.5ZM5.25,223.13l52.22,14-52.22,14v46.37h87.5V271.24H21.58l71.17-19.07v-30.1L21.53,203H92.75V176.74H5.25Z" fill="#fff" fill-rule="evenodd"/></svg>