<svg xmlns="http://www.w3.org/2000/svg" viewBox="0 0 40.5 31.3"><path fill="#fff" d="M25.4 21.9h.2l-.2-1.5-.2 1.5zM26.2 22l.3-1.3-.1-.1v.1l-.5 1.2zM26 22.5l.2-.2-.2-.2-.2.2.2.2zM25.4 22.5l.2-.2-.2-.2-.2.2.2.2zM24.6 22l.3-.1-.5-1.2v-.1.1h-.1l.3 1.3zM24.6 22.3l.2.2.2-.2-.2-.2-.2.2zM1.7 22.9H0V28.7h1.1v-2.2h.6c1.2 0 2.2-.7 2.2-1.9 0-1.1-1-1.7-2.2-1.7zm0 2.7h-.6v-1.7h.7c.6 0 1 .2 1 .8 0 .6-.4.9-1.1.9zM7.1 23.4l-.2-.5H6l-.2.5-2 4.8-.3.6h1.2l.2-.5.4-.9h2.6l.4.9.2.5h1.2l-.3-.6-2.3-4.8zm-1.5 3l.8-2.1.9 2.1H5.6zM15.3 22.9h-1V27l-3.2-4.1H10l.2.6V28.8h1v-4.1l3.2 4.1h1V24l-.1-1.1zM18.5 22.9h-2V28.7h.6l1.3.1a3 3 0 003.1-3c.1-1.7-1.2-2.9-3-2.9zm-.1 4.9l-.7-.1-.1-.2v-3.7h.8c1.3 0 2.1.9 2.1 2 0 1.2-.8 2-2.1 2zM25.4 22.8a3 3 0 00-3 3 3 3 0 003 3 3 3 0 003-3 3 3 0 00-3-3zm0 5.1c-1.1 0-1.9-.9-1.9-2s.8-2 1.9-2c1.1 0 1.9.9 1.9 2 .1 1.1-.8 2-1.9 2zM32.6 26.8l-.6-.5c.6-.1 1.2-.8 1.2-1.6 0-1-.7-1.8-1.9-1.8h-1.9V28.7h1.1v-2.2c.6 0 .8.1 1 .4l.5.8.6 1h1.3l-.7-1-.6-.9zm-1.5-1.2h-.5v-1.7h.6c.6 0 1 .4 1 .9-.1.4-.4.8-1.1.8zM40.2 28.1l-2.1-4.8-.2-.5H37l-.2.5-2 4.8-.3.6h1.2l.2-.5.4-.9h2.6l.4.9.2.5h1.2c-.2.1-.4-.2-.5-.6zm-3.6-1.7l.8-2.1.9 2.1h-1.7z" class="st1"/></svg>
