<svg xmlns="http://www.w3.org/2000/svg" viewBox="0 0 1382.6 225.1"><path fill="#fff" d="M.1 3h103.2v103.3H.1zM296.4 135v79.1h19v6.9h-66.9v-6.6h18.7V10.9h-18.7V4a22.9 22.9 0 012.6-.3c25.3.1 50.7-.2 76 .4 38.6 1 55.1 27.6 57.8 55.2a106.4 106.4 0 01-1.7 31.2c-5.4 26.1-23.1 41.3-49.7 43.6-10.2.9-20.6.6-31 1h-6zm0-7.1c7.4 0 14.6.7 21.6-.2 21.4-2.6 31.7-11.1 34-32.6 2-18.2 1.2-37-.3-55.2-1-12.4-8.6-22-20.8-26.6-11.2-4.2-22.9-2.2-34.6-2.5zM115.4 3h103.7v103.4H115.4zM0 118.4h103.3v103.4H0zM115.4 221.7V118.6H219v103zM973.4 221h-6.3a76.6 76.6 0 00-2.6-8.4c-2-4.5-5.2-5.7-9.7-3.6a26.4 26.4 0 00-5.5 3.4c-25.4 20.6-57.4 15-77.9-10.9-13.4-16.9-20-36.7-22.7-57.8-3.8-28.5-3-56.8 6.5-84.3a97 97 0 0128-44.3c18.6-15.7 39.2-20.2 62-8.4l2.6 1.2c9.8 4.5 13.3 3 16.9-7.4h6v70c-3.7 1.3-4.9.3-5.6-3.8-2.3-12-4-24.4-8.2-35.9a34.7 34.7 0 00-43.2-22.5 40.5 40.5 0 00-23.5 21.2c-7.5 14.3-10.5 30-10.8 45.8-.7 27.6-.5 55.3 0 83a74.7 74.7 0 009.8 38.2 59.5 59.5 0 0012.5 14.7c10.9 9 22.1 9.4 34.3 2.2A63.1 63.1 0 00965 171c1.7-7.2 2.9-14.6 4.3-22h6l-2 72zM1134.1 215.3h13.6l.3 5.5h-55v-5.5h15.4V86h-15.3v-6.6h40.7v18.3c4.4-4.6 7.6-8.5 11.4-12a34.7 34.7 0 0139.4-6.5c13.5 5.6 17.5 17.6 17.6 31v105h15.5v5.8h-54.4l-.2-5.6h13.9l.2-5.3V109.5a41.2 41.2 0 00-2.3-14.2c-4.1-10.9-17.4-13.8-26.4-5.7-5.1 4.6-9.2 10.4-13.6 15.9a7.1 7.1 0 00-1.1 4.2v103a21 21 0 00.3 2.6zM490.1 204.2c3.7 2 3.6 4.3 1.3 7.6-5 6.8-10.9 12-19.8 13s-16-3-20.4-11.4c-1.5-2.9-2.7-6-4.8-10.7-3.7 4.3-6.5 8.3-10 11.5-7.8 7-17 11.2-27.7 10.5-15-1.1-26.2-13.6-27.5-30-2.3-29.7 14-49 44.7-52.5 6.9-.7 13.9-.8 20.9-1.3 0-15 1-30-.3-44.8-1.1-13.3-19-19.1-29.4-10.3-3 2.6-3.6 5.8-2.1 9.5 1.6 4.3 3.7 8.6 4.5 13.2a32.6 32.6 0 01-.5 12.2c-1.5 7-6.6 11.2-12.7 11.6-6.8.4-12.8-3-15.3-9.8a29.6 29.6 0 015.1-30.9c14.1-16.7 44.8-20.9 63.3-9.1 10 6.4 12.7 16.2 12.8 27.1v92.5a32.1 32.1 0 00.3 6c1.2 6.1 5.7 7.8 10.6 3.7 2.6-2.2 4.7-5 7-7.7zm-43-58c-7.4 1.2-14.3 1.7-20.7 3.6-9 2.6-15 9-15.8 18.6a183.6 183.6 0 00-.2 27.4c.3 5.7 3 10.9 8.7 13.6 8.8 4.3 27.6-6.4 28-16.2.4-15.1 0-30.3 0-47zM764.3 151c-.4 17-3.7 34-13.6 48.9-22.6 33.8-62.1 33.6-82.8-.7-19.5-32.2-18.6-66.2.7-98.6 9.7-16.2 24.7-26 44.5-24.2 17.9 1.5 30.2 12.3 38.9 27.2a94 94 0 0112.3 47.4zm-27.5-.4l-1.6-.1c0-10.5.3-21-.1-31.5-.5-10.3-3-20-9.6-28.4-9-11.1-23-11.2-32.2-.2a37.6 37.6 0 00-9 22.9c-.7 23-1.3 46-.6 68.9.3 8.5 3 17.5 7 25.1 8 15.5 28.4 15.4 37.3.3a35 35 0 005-12.9c1.7-14.7 2.6-29.4 3.8-44.1zM598.7 149.8c-.3 16.7-3.5 32-11.3 46.3a55.4 55.4 0 01-27.7 25.5c-17.8 7.4-38.1 2-52-14.8-16.4-19.7-20.5-43.2-18-68A82 82 0 01505 97.6c21.4-28.9 57.2-28.7 78 .6a91.2 91.2 0 0115.7 51.6zm-27.3 1l-1.4-.2c0-9 .3-18 0-27-.6-11.6-2.2-23-9.7-32.5-9.2-12-23.8-12-33 0a42.9 42.9 0 00-9 25.5c-.7 19.6-1 39.3-.8 59A60 60 0 00526 209a21 21 0 0035.4.4c2.6-3.9 5.1-8.6 5.7-13.1 2-15.1 3-30.4 4.4-45.6zM1092.4 145c0 21.5-3 36.5-10.7 50a69.7 69.7 0 01-14.6 18.1c-20.2 17.5-46.1 15.2-64.5-5a80 80 0 01-19.1-46.2 92.7 92.7 0 0110.5-56.6c8.4-15.5 20.7-26.8 39-28.9 19.7-2.2 34.2 7.7 45 23.3a84.3 84.3 0 0114.4 45.3zm-27.2 6l-1.2-.1c0-7.8.2-15.7 0-23.5-.4-12.2-1.4-24.3-8.7-34.8-9.6-13.8-25.6-13.9-35.2-.2a43.3 43.3 0 00-7.8 24c-.6 20.4-1 41-.7 61.3a60 60 0 007 29.4c8.6 15.2 28.4 15.8 37.6.9a33 33 0 005-12.4c1.6-14.8 2.7-29.7 4-44.6z"/><path fill="#fff" d="M639.1 215.3h15.5v5.7h-56.1v-5.6h15.3V10.8h-15.4V4.3H639zM1285.2 205l2 2.7a47.3 47.3 0 01-20.9 15.2c-17.3 6.3-30.9-2.9-33-22.4a169.3 169.3 0 01-1-17.5V86h-19.8v-6.2h19.9V61.4c0-8.3-.2-16.7.1-25a6.1 6.1 0 012.7-4.5c7-3.6 14.4-6.9 22.4-10.6v58.3h21.5v6H1258l-.3 5.7v104a55.3 55.3 0 00.7 9.4c1.4 7.6 6.2 10.7 13.5 7.9 4.5-1.8 8.5-4.8 13.3-7.7z"/><path fill="#fff" d="M1380.8 143h-69.7c0 11.3-.5 22.3.2 33.2a97 97 0 004 23.4c6.3 19.6 24 24.6 40.2 11.9a82.5 82.5 0 0019.4-24.5l3.1-5.4 4.6 3.5c-6.6 13-13.5 25.5-26 33.6-16 10.3-37.5 7.3-52.4-6.7-12.8-12.1-18-27.7-20.7-44.4-3.4-22-.8-43.3 10.1-62.9a71.2 71.2 0 0116.8-20c15.7-13 36.5-11.3 51.3 2.7a77.2 77.2 0 0119.1 55.7zm-25.8-6.2c0-5.6.5-10.7-.1-15.6-1.3-9.6-2.4-19.4-5.1-28.7-2.2-7.5-8.9-10.8-17-10.5-9 .4-16.1 6.3-19.6 17.1-4 12.3-1.5 25-2.3 37.7z"/></svg>
