<svg xmlns="http://www.w3.org/2000/svg" viewBox="0 0 73.3 11.3"><path fill="#fff" d="M1.9 11H0V.2h2.5c2.7 0 4.1 2 4.1 4s-1.4 4-3.9 4h-.8V11zm0-4.5h.7c1.3 0 2-1.1 2-2.2s-.7-2.2-2.3-2.2h-.5v4.4h.1zM11.9 11.2c-2.5 0-4.2-1.7-4.2-4.3V.2h1.9v6.6c0 1.7.8 2.6 2.3 2.6 1.9 0 2.2-1.4 2.2-2.6V.2H16v6.6c.1 2.7-1.6 4.4-4.1 4.4zM22.6 11h-5.2V.2h1.9v9h3.3zM28.7 11h-5.3V.2h2v9h3.3zM43.2 11h-3.3V.2h2c1.1 0 2 .1 2.7.5 1 .6 1.5 1.5 1.5 2.6 0 .7-.3 1.4-.9 1.9 1 .5 1.6 1.4 1.6 2.7 0 1.7-1.6 3.1-3.6 3.1zm-1.4-1.8h1c2 0 2-1.1 2-1.4 0-.3 0-1.4-2-1.4h-1.1v2.8h.1zm0-4.6h.8c.7 0 1.6-.2 1.6-1.3 0-.6-.2-1.3-1.7-1.3h-.7v2.6zM54.4 11h-6.6V.2h6.6V2h-4.6v2.6h4.4v1.8h-4.4v2.8h4.6zM65.4 11h-2.2l-1.1-2.8h-4L57 11h-2.1L59.3.2h1.5L65.4 11zm-6.6-4.6h2.6l-1.3-3.3-1.3 3.3zM69.9 9.2l1 1.8h2.4l-1.5-2.7-.8-1.6c.5-.3.9-.6 1.2-1.2.3-.5.5-1.2.5-1.9 0-2.1-1.5-3.4-4.2-3.4h-2.6V11h1.9V7.4l1.2-.1.9 1.9zm-2.1-3.8V2h.6c1.5 0 2.3.5 2.3 1.6 0 1.5-1.2 1.8-2.2 1.8h-.7zM38 6.4zM36.8 8.5l.1-1c.2-.6.5-1 1-1.1h.1V4.6c-1.3 0-2.5.9-2.8 2.2l-2.8-3.1c-.2-.2-.3-.5-.3-.8s.1-.5.3-.8c.2-.2.5-.3.8-.3s.5.1.8.3l.2.3 1.6-.8c-.1-.3-.3-.6-.6-.8-.6-.6-1.3-.8-2-.8s-1.5.3-2 .8c-.6.6-.8 1.3-.8 2s.3 1.5.8 2c-1 .6-1.7 1.7-1.7 2.9 0 2 1.6 3.6 3.6 3.6 1.1 0 2.2-.5 2.9-1.2l.8.8h2.5l-2.5-2.4zM33 9.6c-1 0-1.8-.8-1.8-1.8 0-.7.5-1.3 1.1-1.5l2.3 2.5a2 2 0 0 1-1.6.8z"/></svg>
