<svg xmlns="http://www.w3.org/2000/svg" viewBox="0 0 72 28.3"><path fill="#fff" fill-rule="evenodd" d="M11 12.4a6 6 0 010-.9 56.8 56.8 0 007.6.3c2.7-.1 6-.1 8.6-1.1 3.5-1.4 4.5-4.4-.9-7A58.1 58.1 0 007.3 0L2 0c-3.2.4-2.1 3.5.3 2.7A6 6 0 015 2h1c1 0 1.3-.3 1.4-.8A56.3 56.3 0 0122.5 4c9.5 3.4 3.7 5.9-1.1 6.2a84.2 84.2 0 01-10.4.2v-6c.2-1.6 0-2.6-1.4-2.3-1.3.5-.8 2.8-.5 4.8a25 25 0 01.1 3H6.5L4 8.3c-2.1-.3-2.7 2.3.5 2.3a32 32 0 004.5 3c.1 1.8.1 4 .9 4a1.3 1.3 0 001.3-2v-1.3c3.4 2.7 8.4 3.3 13.3 4.7 2.9.7 2.4-2.3.3-2.4a27.9 27.9 0 01-5.5-.7zM8.2 11h1v.7a2.3 2.3 0 01-1-.7z"/><path fill="#fff" fill-rule="evenodd" d="M38.6 14.7a11 11 0 01-2.5 1.7 4.2 4.2 0 00-1.8-1.4.5.5 0 010-.8c.6-.3.6-.7-.2-1-1-.3-1.3.3-1.7 1.2-1.2 2.6-4.3 3-5.3 1.5a2.9 2.9 0 00.4-3.3 1.4 1.4 0 00-2.3 1c-.4 3.8 6 6 7.8 1.4.1-.3.3-.5.5-.2v.3a1.2 1.2 0 00.5.9c.9.6.4 1.3 0 1.4-.8.4-.4 1.2.6 1.1s1.8.1 1.7-1a22.5 22.5 0 003-1.9c.7-.6.2-1.3-.6-.9zm-12.4-.6c-.1-.8.9-1 1-.2a2.5 2.5 0 01-.5 1.7 2.3 2.3 0 01-.5-1.5zM61.7 15.7c-1.5 1-3.7 2.2-5 1-.5-.5-.6-2.2.3-1.8 1 1 1.5 0 .9-.6-1.9-1.3-3.1-.3-2.7 2.2-.8 1.2-2.8 1.2-3.8.7-.5-.4-.5-1 0-1.1a2 2 0 00-.3-3c-2-.9-1.9 1.3-1.7 2.6a20.2 20.2 0 00-3.9 1.2c.6-2.3-2.5-2.1-4-1.2a11.5 11.5 0 01.6-3.4c.8-3-.9-3-1.3-1.3-.6 4.6-.3 9.9-.2 14.7a3.6 3.6 0 00.3 2.3c.6.5 2 .5 1.5-1.3a30.8 30.8 0 01-.8-5.7l-.2-4h.3c.4.1.7 0 1-.6a1 1 0 01.7-.4c.8 0 1 .4.8 1-1 1 .5 1.7 1.8.8a10.8 10.8 0 013.4-1.3c1.1 2.2 4.9 2.8 6.6.9 1.4 1.7 4 1 7.2-1 0-.4-.9-1.3-1.6-.6zm-11.2 0a1.9 1.9 0 01-.3-1.4c0-.8.7-.9.8-.1 0 1-.1 1.3-.5 1.4z"/><path fill="#fff" fill-rule="evenodd" d="M65.7 14.4V13c.7-3-1.3-2.5-1.1-.8v2.3a5 5 0 01-1.3 0 9 9 0 01-1.5-.4c-1.2-.3-1 1-.7 1a3.1 3.1 0 001.8.5h1.7a44.7 44.7 0 000 5.1 8.2 8.2 0 00.4 2.8c.4 1 1.1 1 1.4.5a2.3 2.3 0 000-2.7c-.5-.8-.8-3-.9-5.6h2.8c.8 0 1-1.2 0-1.1zM72 9.8a1.8 1.8 0 01-1.8 1.9A1.8 1.8 0 0169 11a1.7 1.7 0 01-.5-1.3 1.8 1.8 0 01.5-1.3 1.8 1.8 0 011.3-.5 1.8 1.8 0 011.3.5 2 2 0 01.5 1.3zm-.2 0a1.5 1.5 0 00-.4-1 1.6 1.6 0 00-1.2-.6 1.6 1.6 0 00-1.1.5 1.5 1.5 0 00-.5 1.1 1.6 1.6 0 00.5 1.2 1.6 1.6 0 001.1.5 1.6 1.6 0 001.2-.5 1.5 1.5 0 00.4-1.1zm-2.2-1h.7a.8.8 0 01.6.1.6.6 0 01.2.4.5.5 0 01-.2.4 1 1 0 01-.4.2h.2a1 1 0 01.1.3.8.8 0 01.2.2l.2.4H71l-.2-.4a1.9 1.9 0 00-.3-.4.8.8 0 00-.4-.1h-.2v.9h-.2zm.2.2v.7h.8a.6.6 0 00.2-.1.2.2 0 000-.2.3.3 0 000-.3.7.7 0 00-.6-.1h-.4zM42.9 21.2h1l.5 1.2.5-1.2h.9l-.9 2.4v1.8h-1v-1.8l-1-2.4zM47.4 21.2h-.7a1 1 0 00-1 1v2.2a1 1 0 001 1h.7a1 1 0 001-1v-2.2a1 1 0 00-1-1zm0 1.1a.4.4 0 10-.7 0v2a.4.4 0 10.7 0zM48.7 21.2v3.2a1 1 0 00.9 1h.7a1 1 0 001-1v-3.2h-1v3.1a.4.4 0 11-.7 0v-3zM56.9 21.2h2.2v.8h-1.2v.9H59v.7h-1.1v1h1.2v.8h-2.2v-4.2zM59.4 21.2h.9v3.4h1.1v.8h-2v-4.2z"/><path fill="#fff" fill-rule="evenodd" d="M61.6 21.2h2.3v.8h-1.4v.9h1.1v.7h-1.1v1.8h-.9v-4.2zM51.5 21.2h1.8c.9 0 1.2 1.7.3 2.1a.6.6 0 01.4.7v.9a.8.8 0 00.2.5h-1a.6.6 0 01-.2-.5v-.8c0-.2 0-.5-.2-.5h-.4v1.8h-1zm1 .8c.2-.3.6 0 .6.4s-.4.7-.6.4z"/><path fill="#fff" fill-rule="evenodd" d="M56.6 23.9v.5a.9.9 0 01-.8 1h-.7a1 1 0 01-.8-1V24h.8v.3a.4.4 0 10.7 0c0-.3-.1-.4-.3-.6l-.7-.5a1 1 0 01-.5-.8v-.2a1 1 0 01.8-1h.7a.9.9 0 01.8 1v.2h-.8v-.1c0-.6-.7-.6-.7 0 0 .2.2.3.3.4l.8.4a1.1 1.1 0 01.4.8z"/></svg>
