<svg xmlns="http://www.w3.org/2000/svg" viewBox="0 0 49 183"><path fill="#fff" d="M.6 183H29v-5.9h-5.9v-6.3a10.5 10.5 0 00-1.5-5.2 11.4 11.4 0 00-4.6-4.3 11.1 11.1 0 00-6.1-1.2 11.2 11.2 0 00-8.6 5.3 11.7 11.7 0 00-1.7 6zm16.8-5.8h-11v-4.4a13.7 13.7 0 01.2-2.6 5.3 5.3 0 011.5-2.7 5 5 0 012.6-1.4 5 5 0 012.1 0 5.3 5.3 0 012 .7 5.7 5.7 0 011.6 1.5 5.5 5.5 0 01.9 2 7 7 0 01.1 1.5zM29.4 50.1a15 15 0 00-4-10.5A14.6 14.6 0 004.7 39 15 15 0 000 49.3v.4a15 15 0 004.1 10.5 14.7 14.7 0 0022.7-1.9 15 15 0 002.6-8.2zM8.6 56a8.7 8.7 0 01-2-2.9 9 9 0 012-9.5 8.6 8.6 0 016.2-2.6 8.6 8.6 0 016 2.6 8.8 8.8 0 012.6 6.1 8.8 8.8 0 01-5.4 8 8.5 8.5 0 01-5 .5A8.6 8.6 0 018.6 56zM.6 5.9h22.6v6.6H.6v6h22.6V25H.6v5.9H29V0H3.5A2.9 2.9 0 00.6 3.2zM6.5 80.8V66H.6v20.6H29v-6zM14.8 102.1l-1.1-.8a8.3 8.3 0 00-11.3 2 12.3 12.3 0 00-1.8 7v16H29v-16a15 15 0 00-1.8-7A8.4 8.4 0 0022 100a8.3 8.3 0 00-6 1.3c-.3 0-.8.5-1.2.8zm-8.4 18.3v-11.8a2.9 2.9 0 01.2-1 2.8 2.8 0 01.7-1 2.5 2.5 0 01.9-.7 2.5 2.5 0 011-.1 2.6 2.6 0 011.8.7 2.7 2.7 0 01.8 1.8v12zm16-13.8a2.8 2.8 0 01.5 1 2.7 2.7 0 01.3 1.1v11.7h-5.4v-12a2.6 2.6 0 01.8-1.8 2.6 2.6 0 011.8-.7 2.6 2.6 0 011 .1 2.6 2.6 0 01.9.6zM3.5 156.6a2.9 2.9 0 01-2.9-3.1v-2.7h18.6L.6 136.2v-5.7H29v5.8H10.4L29 150.8v5.8zM44 180.4l1 1.2h2.4v1.4h-6.9v-1.4h2.9l-2.9-3.4v-1.8l2.6 3 4.3-3.2v1.7zM40.5 171a2.3 2.3 0 01.6-1.8 2 2 0 01.7-.5 1.9 1.9 0 01.8-.1 2.1 2.1 0 011.6.6 2 2 0 01.4.7 2.2 2.2 0 01.2.9v2.7h2.6v1.4h-6.9zm3 0a1.2 1.2 0 00-.3-.7 1 1 0 00-.3-.2 1 1 0 00-.3 0 .7.7 0 00-.3 0 .8.8 0 00-.3.2 1 1 0 00-.2.7v2.5h1.6zM45.7 163v3.2l1.7.8v1.6l-6.9-3.5V164l7-3.5v1.6zm-1.3 2.5v-1.8l-1.8.9zM45.7 153a4.3 4.3 0 011.4 1.2 3.5 3.5 0 01.5 2 3.8 3.8 0 01-.2 1.4 3.6 3.6 0 01-.8 1.2 3.7 3.7 0 01-2.6 1 3.8 3.8 0 01-2.6-1 3.4 3.4 0 01-.8-1.2 3.3 3.3 0 01-.3-1.4A3.7 3.7 0 0142 153l.8 1.2a2.4 2.4 0 00-.8.8 2.6 2.6 0 00-.1 2 2.1 2.1 0 00.4.7 2.5 2.5 0 00.8.5 2.5 2.5 0 001 .1 2.4 2.4 0 001.6-.6 2.1 2.1 0 00.6-1.5 2 2 0 00-.4-1.4 3.6 3.6 0 00-1-.8zM44 151.6a3.5 3.5 0 01-2-.7 3.7 3.7 0 01-1.3-1.6 3.8 3.8 0 01-.2-2 3.6 3.6 0 011-2 3.6 3.6 0 015.5.6 3.7 3.7 0 01.6 2 3.6 3.6 0 01-.2 1.4 3.6 3.6 0 01-.8 1.2 3.5 3.5 0 01-2.6 1zm0-1.5a2.2 2.2 0 001.2-.4 2.2 2.2 0 00.8-2.3 2.2 2.2 0 00-1.7-1.6 2.1 2.1 0 00-1.3.1 2.3 2.3 0 00-1.1 3A2.2 2.2 0 0043 150a2.3 2.3 0 00.9.1zM47.4 138.8v1.4h-5.6v2.7h-1.3v-6.8h1.3v2.7zM45.7 130.3v3.1l1.7.9v1.5l-6.9-3.4v-1l7-3.6v1.6zm-1.3 2.5v-1.9l-1.8 1zM44 118.9l1 1.2h2.4v1.4h-6.9V120h2.9l-2.9-3.4V115l2.6 3 4.3-3.2v1.7zM45.7 108v3.2l1.7.9v1.5l-6.9-3.4v-1l7-3.5v1.5zm-1.3 2.6v-1.9l-1.8 1zM44 101.8l1 1.2h2.4v1.4h-6.9V103h2.9l-2.9-3.4v-1.8l2.6 3 4.3-3.2v1.7zM41 85.3a1.6 1.6 0 01.6-.4 2 2 0 011.4.1 1.6 1.6 0 01.6.5 1.7 1.7 0 01.6-.8 2.2 2.2 0 012-.1 2 2 0 01.6.4 2.4 2.4 0 01.5.9 2.5 2.5 0 01.2 1v4.3h-7v-4a2.8 2.8 0 01.6-2zm2 1.2a.7.7 0 00-.3-.2.8.8 0 00-.3 0 .5.5 0 00-.3 0 .5.5 0 00-.2.2 1.6 1.6 0 00-.1.7v2.6h1.3v-2.6a1.4 1.4 0 00-.1-.7zm3-.4a1.1 1.1 0 00-.3-.2 1 1 0 00-.4-.1.7.7 0 00-.4 0 .7.7 0 00-.3.2 1.3 1.3 0 00-.2.9v2.8h1.8V87a1.6 1.6 0 00-.2-1zM47.4 76.2v5.6H49V83h-2.9v-1l-5.6-2.5v-.9l5.6-2.5v-1H49v1.2zM42.7 79l3.4 1.4v-2.8zM44 73.9a3.5 3.5 0 01-2-.7 3.6 3.6 0 01-1.3-1.6 3.7 3.7 0 01-.2-2.1 3.7 3.7 0 011-1.9 3.6 3.6 0 011.8-1 3.6 3.6 0 013.7 1.6 3.7 3.7 0 01.6 2 3.5 3.5 0 01-1 2.6 3.5 3.5 0 01-1.2.8 3.4 3.4 0 01-1.4.3zm0-1.5a2.2 2.2 0 001.2-.4 2.2 2.2 0 00.8-2.3 2.2 2.2 0 00-.6-1 2.2 2.2 0 00-2.4-.5 2.2 2.2 0 00-1 .8 2.3 2.3 0 00-.2 2.1 2.4 2.4 0 00.5.8 2.1 2.1 0 00.8.4 2.1 2.1 0 00.8.1zM45 62.1l2.4 2v1.7L44 63l-3.5 2.8V64l2.4-2-2.4-2v-1.6l3.4 2.8 3.5-2.9v1.8zM44.3 52.5v3.2h3.1v1.4h-6.9v-1.4H43v-3.2h-2.5v-1.4h7v1.4zM44 49a3.6 3.6 0 01-2-.5 3.7 3.7 0 01-1.5-3.8 3.7 3.7 0 011-1.8 3.5 3.5 0 011.8-1 3.6 3.6 0 013.7 1.5 3.7 3.7 0 01.6 2 3.6 3.6 0 01-.3 1.4 3.5 3.5 0 01-.7 1.2 3.5 3.5 0 01-1.2.8 3.7 3.7 0 01-1.4.3zm0-1.3a2.2 2.2 0 002-1.5 2.2 2.2 0 00-.6-2.3 2.3 2.3 0 00-1.1-.6 2.2 2.2 0 00-1.3.1 2.1 2.1 0 00-1 .8 2.2 2.2 0 00-.3 1.3 2.1 2.1 0 00.1.8 2 2 0 00.5.8 2 2 0 00.8.4 2.1 2.1 0 00.9.2zM41 34a1.6 1.6 0 01.6-.4 1.5 1.5 0 01.6-.1 1.4 1.4 0 01.8.1 1.5 1.5 0 01.5.5 1.8 1.8 0 01.7-.8 2 2 0 011-.3 2 2 0 01.8.2 2.1 2.1 0 01.7.4 2.4 2.4 0 01.7 2v4.2h-6.9V36a2.8 2.8 0 01.6-2zm2 1.2a.7.7 0 00-.3-.3.8.8 0 00-.3 0 .5.5 0 00-.3 0 .5.5 0 00-.2.3 1.6 1.6 0 00-.1.6v2.6h1.3v-2.6a1.4 1.4 0 00-.1-.6zm3-.4a1 1 0 00-.3-.3 1 1 0 00-.4 0 .7.7 0 00-.4 0 .7.7 0 00-.3.2 1.3 1.3 0 00-.2.9v2.8h1.8v-2.7a1.5 1.5 0 00-.2-1zM40.5 30.9V25h1.3v4.5H43V25h1.3v4.5H46V25h1.3v5.9zM44.3 18.3v3.2h3.1V23h-6.9v-1.4H43v-3.2h-2.5V17h7v1.4zM47.4 13.4v1h-6.9V13H45l-4.5-3.6v-1h7v1.4h-4.6zM40.5 6V0h1.3v4.5H43V0h1.3v4.5H46V0h1.3v6z"/></svg>
