<svg xmlns="http://www.w3.org/2000/svg" viewBox="0 0 367.7 611.1"><title>royal-spirit</title><path d="M208.2,200.1V188.6c0-3.4,2.1-5.7,5.4-5.7H352c3.3,0,5.4,2.2,5.4,5.7v17.9c0,5.4-3.9,8-26.3,8H295.9c-16.3,0-27.3,7.3-32.8,21.8-4.1-16.7-13.5-24.1-29.9-24.1-23.1,0-33,15.1-33,50.4v55.9h7.9v-11c0-3.8,2.1-6.1,5.7-6.1h138a5.41,5.41,0,0,1,5.7,5.7v11.5h7.9V265.9h-7.9v11.5a5.41,5.41,0,0,1-5.7,5.7H266.3V264.2c0-21.5,9.4-31.5,29.7-31.5h35.2c14.7,0,34.1-2.4,34.1-23.4V147.7h-7.9v11.5c0,3.4-2.1,5.7-5.4,5.7H213.7c-3.3,0-5.4-2.2-5.4-5.7V147.7h-7.9v52.5h7.8Zm50.3,62.4V283H208.3V262.5c0-26.3,9.6-31.5,25.1-31.5S258.5,236.3,258.5,262.5Z" fill="#fff"/><path d="M160,487.3V496c0,5.4-3.9,7.9-26.2,7.9H98.6c-16.3,0-27.3,7.3-32.7,21.8-4.1-16.7-13.5-24-29.9-24-23.1,0-32.9,15-32.9,50.3v55.8H11v-11c0-3.8,2.1-6.1,5.7-6.1H154.4a5.41,5.41,0,0,1,5.7,5.7v11.5H168V555.5h-7.9v11.4a5.41,5.41,0,0,1-5.7,5.7H68.9V553.7c0-21.5,9.4-31.5,29.7-31.5h35.2c14.6,0,34.1-2.4,34.1-23.3V487.4H160ZM61.1,552v20.5H10.9V552c0-26.2,9.6-31.5,25.1-31.5S61.1,525.8,61.1,552Z" fill="#fff"/><path d="M170.8,408.3c0-23.5-7.8-42.7-22.6-55.7s-36-19.7-62.9-19.7c-26.7,0-47.8,6.6-62.7,19.7S0,384.9,0,408.3,7.8,451,22.6,464s36,19.7,62.9,19.7c26.7,0,47.8-6.6,62.7-19.7C163,451.1,170.8,431.8,170.8,408.3Zm-162.9,0c0-34.9,29.7-56.6,77.4-56.6,47.9,0,77.6,21.7,77.6,56.6s-29.7,56.6-77.4,56.6S7.9,443.3,7.9,408.3Z" fill="#fff"/><path d="M155,286.4a5.12,5.12,0,0,1,5,5.2v11.9h7.9V251.1H160V263a5.06,5.06,0,0,1-5,5.2H111.9l-90.7-35c-7-2.7-10.3-7.4-10.3-14.8v-5.8H3V254h7.9v-8.5a5,5,0,0,1,2.1-4.4,6.67,6.67,0,0,1,6.2-.3l80,31L14.7,310.4c-1.7.8-2.7.8-3.1.5a2.75,2.75,0,0,1-.7-2.1V294.1H3v51.7h7.9v-7.4c0-4.5,1.9-7.5,5.9-9.3l94.7-42.9H155Z" fill="#fff"/><path d="M92.6,8h44.1C150.2,8,160,17.6,160,30.8V67.5H16.8c-3.7,0-5.9-2.2-5.9-5.9V43.5H3v59.3h7.9V91.3c0-3.5,2.2-5.7,5.9-5.7H154.1c3.7,0,5.9,2.1,5.9,5.7v12.1c0,3.1-1.4,6.7-4.5,7.6L3.1,161.7v38.4H11V181.8c0-.9.1-2.5,1.1-3.3.8-.6,2.3-.7,4.2-.2L149.7,216c6.7,1.9,10.3,6.1,10.3,11.7v8.7h7.9V194.3H160v8.5a5.81,5.81,0,0,1-2.2,4.8c-1.6,1.2-3.8,1.4-6.4.7l-36.8-10.4V143.5l42.2-14a2,2,0,0,1,2,.1,3.64,3.64,0,0,1,1.1,3V147h7.9V0H92.6Zm14.2,187.7L27.2,172.9l79.6-26.5Z" fill="#fff"/><path d="M253.3,567.5c-6.3,23.1-9.3,30.6-20.8,30.6-16.2,0-27.6-15.5-27.6-37.6,0-37,30.7-39.9,40.2-39.9h15.8v-7.9H200v7.9h8c2.5,0,2.5,1.2,2.5,1.8,0,.9-.3,2.1-2.3,4.4-5.8,6.8-11.2,15.5-11.2,33.3,0,29.5,14.6,47.1,39.1,47.1,27.1,0,32.6-21.4,37.4-40.2,6.8-26.4,17.1-50.9,46.9-50.9,24.2,0,39.2,16.7,39.2,43.6s-15.6,43.6-40.8,43.6c-14,0-26.4-5.4-33.9-14.7l-1.7-2.1-6.3,4.7,1.8,2.2c9,11.4,23.2,17.7,40.1,17.7,14.6,0,26.8-4.6,35.3-13.3,8.9-9,13.6-22.4,13.6-38.6,0-16.4-4.6-29.3-13.7-38.3-9.3-9.2-22.7-13.8-40-13.8C273.2,507,262.7,533.2,253.3,567.5Z" fill="#fff"/><path d="M207.9,402.6c-5,7.8-7.3,19.4-7.3,36.7v58.1h7.9V485.9c0-4.5,1.1-5.7,5.4-5.7h138c4.6,0,5.7,1.1,5.7,5.7v11.5h7.9V445h-7.9v11.5a5.3,5.3,0,0,1-5.7,5.7H266.5V439.4c0-17.3-2.3-29-7.3-36.7-5.3-8.2-13.6-12.2-25.6-12.2S213.1,394.4,207.9,402.6Zm50.7,36.7v22.8H208.4V439.3c0-22.2,6.6-30.1,25.1-30.1S258.6,417.1,258.6,439.3Z" fill="#fff"/><path d="M208.5,383.8V372.3c0-3.4,2.1-5.7,5.4-5.7H352.1c3.3,0,5.4,2.2,5.4,5.7v11.5h7.9V331.4h-7.9v11.5c0,3.4-2.1,5.7-5.4,5.7H213.9c-3.3,0-5.4-2.2-5.4-5.7V331.4h-7.9v52.4Z" fill="#fff"/><path d="M261.4,133.5v-7.9H226.9c-10.5,0-18.5-7.5-18.5-17.5V87.9H351.6a5.51,5.51,0,0,1,5.9,5.9v18.1h7.9V45.8h-7.9V63.9a5.51,5.51,0,0,1-5.9,5.9H208.5V49.9a17.56,17.56,0,0,1,18-18h35V24H200.6V133.5Z" fill="#fff"/></svg>