<svg xmlns="http://www.w3.org/2000/svg" width="115.9" height="25.8" viewBox="0 0 115.9 25.8">
  <g fill="#fff">
    <path d="M16.6,7.9c-.2-2.9-1.4-3.8-4.4-3.8-2.6,0-4.3,1.2-4.3,3,0,2.2,2.6,2.7,4.3,3.1,4.1,1.2,8.3,2.2,8.3,7.5,0,5.8-5.4,8.1-10.6,8.1S0,23.7,0,17.6V17H5.3v.4c0,2.9,1.7,4.3,5.2,4.3,2.9,0,4.7-1.4,4.7-3.5s-2.1-2.7-3.8-3.2c-3.9-1.1-8.7-2.2-8.7-7.3C2.7,3,6.6,0,12.4,0c6.1,0,9.4,2.7,9.4,7.5v.4Z"/>
    <polygon points="53 5.2 39.5 5.2 38.3 10.7 50.9 10.7 50 15 37.4 15 36.1 21.1 49.9 21.1 48.9 25.7 29.7 25.7 35 0.7 53.9 0.7 53 5.2"/>
    <polygon points="69.6 21.1 81.8 21.1 80.8 25.7 63.2 25.7 68.5 0.7 73.9 0.7 69.6 21.1"/>
    <path d="M115.9,25.7h-5.5l-.8-5.6h-9.3l-3.2,5.6H91.3L106.1.7h5.6Zm-6.8-9.6-1.4-9.5-5.3,9.5Z"/>
  </g>
</svg>
