<svg xmlns="http://www.w3.org/2000/svg" viewBox="0 0 443.3 89"><path fill="#fff" fill-rule="evenodd" d="M112.5 0h26.9l-.2 4.8c-6.3 0-12.6-.3-18.8.2-2.7 0-4.7 2.5-4.5 5-.2 6.4-.1 12.7 0 19-.2 2.3 1.2 5 3.8 5.3 6.5 1 13 .3 19.6.4v4.8h-25c-4 0-8.3-2-9.7-6-1.6-4.6-1-9.7-1-14.5 0-4.9-.7-10.2 1.8-14.7 1.4-2.6 4.3-3.6 7-4.3zM1.5 3.3C3 1.2 5.8.7 8.2.7h73a6.9 6.9 0 0 1 7 7.2c.2 24.4 0 48.8.1 73.1.3 3.6-1.7 7-5.2 8H4.5c-2-1.4-4.5-3.2-4.4-6-.2-24.3 0-48.6-.1-73 0-2.2-.2-4.9 1.4-6.7zm42.4 13.6c-5.3 8.5-9 18.2-10 28.2a39.4 39.4 0 0 0-23.6-12 57 57 0 0 1 20.2 36.8c4.8 1.5 9.6 3.5 14.7 3.3a49 49 0 0 0 12.5-3.5A60 60 0 0 1 77.4 33c-8.7 1.5-17 5.7-23.2 12a57 57 0 0 0-10.3-28.1zm107.5-7c1-4.4 6.3-3.3 9.7-3.5.4 4.3.1 8.7.2 13h16.4c.7-4-1.7-10 2.8-12.5 2.2-.8 4.8-.3 7.2-.4.1 9.9.3 19.8 0 29.8-1.6 4-6.5 3.2-9.9 3.2V23.2c-5.4-.4-11-.1-16.5-.2-.3 4.5.5 9-.4 13.5-1.4 4-6.3 3-9.6 3 0-9.9-.2-19.7 0-29.5zm51.9-2c2.6-1.7 6-1.4 9-1.4 6.1.1 12.3-.2 18.5.1 6 1.3 9 8.9 6.3 14.2a9 9 0 0 1-8.2 5.6c-6.4.2-12.8 0-19.1.2 0 3-.7 8.1 3.5 8.5 6.5.8 13 .2 19.6.3l.3 4c-8.2.3-16.5 0-24.8 0-4.2.2-8.5-3-8.5-7.5-.3-5.3 0-10.6-.1-16-.2-3 .9-6.2 3.5-8zm8.3 3.5c-3.1 2.8-1.3 7.6-1.8 11.3 5.2-.1 10.6.5 15.8-.3 3.6-2.9 3.4-11.8-2.4-11.9-3.8.1-8-.6-11.6 1zm38.7-5l6.4.2c3.9 4.2 7.8 8.5 12.1 12.4.2-3.5-.7-7.3 1-10.5 2-3 6.1-1.7 9.2-2L279 19c4.5-3.8 8.1-8.6 12.6-12.4 1.9-.2 3.8-.1 5.7-.1-3.8 4.9-8.6 9-12.8 13.6 5.9 6.5 12.4 12.5 18 19.3-3.4.1-6.8.2-10.3 0-4.9-4.3-8.7-9.8-13.5-14.2.2 3.9.8 8-.3 11.6-1.8 3.7-6.5 2.5-9.7 2.7V26c-5 4-8.5 9.2-13 13.6h-10.6c5.4-6.7 12-12.5 17.7-19 .3-1-1-1.8-1.5-2.5-3.8-3.8-7.6-7.5-11-11.5zm60.9 3.5c1.2-4.3 6.3-3.4 9.8-3.5.2 4.4-.3 8.8.4 13.2 4.8-.2 9.7-.1 14.6 0 .2-3.6-.6-7.4.8-10.7 1.8-3.5 6.2-2.1 9.4-2.5.2 9.2 0 18.4 0 27.7.3 2.4-1.4 5-4 5.3-2 .2-4.1.1-6.2.1V23.1c-5-.2-10 0-15 0-.2 4.4.6 9-.3 13.4-1.6 4-6.4 2.9-9.7 3 .1-9.9-.2-19.7.2-29.6zm52-3c1-.9 2.7-.2 4-.4h18c2.7 0 5.7.9 7.3 3.3 1.6 2.3 1.8 5.4 1.8 8.2v21.5h-28c-5.8-.4-9.6-7.1-8-12.5a9.4 9.4 0 0 1 9-7.5H384c.1-3.1.8-8.2-3.6-8.7-5.8-.6-11.6 0-17.5-.3l.2-3.6zm5 21c-.2 2.8.2 7 3.6 7.4 4 .4 8.1 0 12.2.2V23.1c-4.2 0-8.5-.5-12.7.2-2 .4-3 2.7-3 4.6zm44.4-21.3c9.8-.3 19.7 0 29.5-.2.7 3.5.3 7 .2 10.6 0 6.6.3 13.3 0 19.9-1.9 3.6-6.5 2.4-9.7 2.7-.2-4.2 0-8.5-.2-12.7-1-.8-2.4-.2-3.6-.4-4.1 4.3-8 8.7-12.3 12.8-3 .5-6.2.2-9.3.3 3.3-5 9-8 12.1-13.2-3.8.2-8.1.6-11-2.3-6-4.9-3.6-16.4 4.3-17.5zm4.8 4.4c-3.2 2.6-3.3 8.4-.2 11.2 5 1.2 10.1.2 15.2.6.3-4.1 0-8.2.1-12.3-5 .3-10.1-.6-15 .5zM103.6 56c0-2.5 1.3-5.3 3.9-6.2 2.7-.6 5.6-.3 8.4-.3l-.1 15.4c5.3-5 9.9-10.7 15.4-15.4h6.7c-4.8 5.9-10.5 10.8-15.4 16.4 7.5 7.6 14.7 15.5 22.2 23.1h-13.1a665.4 665.4 0 0 1-15.7-17.1c-.2 4.3.4 8.8-.4 13-.4 2.3-2.4 3.4-4.3 4.1h-7.6V56zm42.1 8a8 8 0 0 1 7.6-7.9c6.4-.3 12.7 0 19-.1 3.7 0 8-.3 10.6 2.6 3 3.3 2.1 8.2 2.3 12.4-.3 4.3.6 8.8-.8 13-.9 2.8-3.6 4.3-6.3 5h-25.5c-3.5-.8-6.5-3.5-6.8-7.1-.3-6-.2-12 0-18zm12.2-3.3c-2 .8-2.2 3.4-2.2 5.3 0 5-.2 9.9 0 14.8 0 2 1.7 3.9 3.8 4 4 .3 8 .4 12 0 2.5-.1 3.6-2.6 3.6-4.7V64.9c0-2.1-1.2-4.5-3.6-4.6-4.5-.4-9.2-.7-13.6.4zm34.3 3.3c0-4 3.3-7.4 7.1-7.8 5-.5 10 0 15-.2 3.5 0 7.4-.6 10.3 1.8 4 3 4.8 8.8 2.8 13.1a9.6 9.6 0 0 1-8 5c-5.7.2-11.5 0-17.3.1-.3 4.4 1.5 10.1-3 13h-7l.1-25zm11.4-2.8c-2.5 3.1-1.1 7.5-1.5 11.2 4.7-.2 9.6.8 14-.6 3.7-3 3.1-12-2.7-11.8-3.3 0-6.9-.5-9.8 1.2zM234 64a8 8 0 0 1 7.3-7.8c6.4-.5 12.7 0 19-.2 3.7 0 8-.4 10.8 2.4 3.2 3.4 2.4 8.4 2.6 12.6-.3 4.6.7 9.6-1.4 14-1 2.4-3.7 3.3-6 4h-25.6c-3.3-1-6.2-3.4-6.6-7-.5-6-.3-12 0-18zm12.8-3.5c-2 .5-2.8 2.6-2.6 4.5 0 5.3-.2 10.7 0 16-.1 2.3 2 3.8 4 3.9 3.8.2 7.6.2 11.3 0 1.9-.3 3.8-1.7 3.8-3.8.2-5.4 0-10.8 0-16.2.3-2.2-1.3-4.7-3.7-4.7a50 50 0 0 0-12.8.3zm38.3-1.8c2-2.4 5.3-2.7 8.3-2.7H318v28c0 2.5-1.8 4.3-4 5h-6V60c-4 0-7.9-.2-11.7.3-2 .1-3.3 1.9-3.4 3.7-.7 7 .1 14-.3 21 0 1.7-1.6 2.9-2.8 4h-10.5l.1-3.8 3-1c.5-6 .1-12.1.3-18.2 0-2.5.3-5.3 2.1-7.3zm44-1c4.6-2.9 10.2-1.3 15.3-1.7 5 .4 10.7-1.3 15 2 5.8 5 3.7 16.5-4.3 17.8-6.4.5-12.8 0-19.3.2.2 3-.6 8.2 3.5 8.7 6.2.7 12.5 0 18.7.4l-.1 3.9h-24.4c-3.3-.4-6.6-2.6-7.2-6-.9-4.6-.2-9.4-.4-14 0-3.9-.4-8.8 3.3-11.3zm7.8 3.9c-1.7 3.3-.8 7.2-1 10.9 5-.4 10.3 1 15-1 3.1-3.4 2.4-11.9-3.5-11.5-3.4.2-7.6-.8-10.5 1.6zm32.9-3.2c2.2-2.2 5.6-2.4 8.6-2.4h15c3.5 0 7.4 2 8.3 5.5 1.1 3.2 0 6.6-2 9.2 6.3 4.7 5 15.8-2.7 18.3h-29.6V67c0-3 .1-6.4 2.4-8.6zm10 2.3c-3 1.5-2.2 5.4-2.5 8.3h11.3c4.6-.2 4.5-8.6 0-8.8-3-.3-6-.4-8.8.4zm-2.4 12V85c4.5-.2 9.2.5 13.6-.5 3.6-2.2 3.7-8.9.2-11.3-4.5-1-9.2-.2-13.8-.4zM413.1 56c7.7.2 15.4-.4 23 .3 4.3.5 6 4.7 7.2 8.2V89h-27.9c-3-.9-5.8-3-6.8-6.1-2.1-5.4 1-12.6 7-13.6 5.6-.7 11.3-.1 17-.3-.3-2.8.9-7.4-2.7-8.5-5.5-1-11.3-.3-16.9-.5v-4zm7.3 17.2c-3.2 2.7-3.3 9 .2 11.3 3.9 1 8 .3 12 .5l-.1-12.3c-4 .3-8.2-.5-12.1.5z" clip-rule="evenodd"/></svg>
