<svg xmlns="http://www.w3.org/2000/svg" viewBox="0 0 426.95 104.87">
  <title>stradivarius</title>
  <g id="Слой_2" data-name="Слой 2">
    <g id="Capa_1" data-name="Capa 1">
      <path d="M48.93,69.28,48.47,57.6h1.45l4.73,10.57A8.14,8.14,0,0,0,57,69.73a7.38,7.38,0,0,0,3.17.65,6.58,6.58,0,0,0,5.11-2,7.79,7.79,0,0,0,1.83-5.49,5.55,5.55,0,0,0-1.26-3.7,9.8,9.8,0,0,0-4.08-2.55l-5-1.91Q49,51.83,49,44.27a10.12,10.12,0,0,1,2-6.14,13.1,13.1,0,0,1,5.53-4.23,20.13,20.13,0,0,1,8-1.53,23.27,23.27,0,0,1,9.92,2.44l-.14,10.43H73l-4.28-9.31A8,8,0,0,0,63.58,34a5.49,5.49,0,0,0-4.35,1.83,7.78,7.78,0,0,0-1.6,5.32A4.14,4.14,0,0,0,59,44.45,12.19,12.19,0,0,0,63.2,47l4,1.6A18.65,18.65,0,0,1,74,52.73a8.62,8.62,0,0,1,2.06,6.07,11.07,11.07,0,0,1-2.21,6.79,14.58,14.58,0,0,1-6,4.62,20.12,20.12,0,0,1-8.17,1.64,27.43,27.43,0,0,1-10.84-2.52" fill="#fff"/>
      <path d="M84.67,69.05q-2.17-2.52-2.1-7.33l.23-24.55H77.15V35.24l5.65-1.76L90.66,24h1.6v9.69H103V37.3H92.26V63.1a5.41,5.41,0,0,0,2.22,3.4,7.53,7.53,0,0,0,4.12,1,14.69,14.69,0,0,0,4.65-.84l.46.92a21,21,0,0,1-12,4c-3.25,0-5.61-.84-7.06-2.52" fill="#fff"/>
      <path d="M109.69,68.29V40.35L105,37.45v-.68l13-4.2h.38l.38,10h.3l1-2a23.38,23.38,0,0,1,4.39-6.3,6.78,6.78,0,0,1,4.62-1.72,5.32,5.32,0,0,1,3.62,1.3,4.44,4.44,0,0,1,1.49,3.51q0,4.52-5.19,5.65l-4.72-3.84a7,7,0,0,0-2.67,2.1,11.4,11.4,0,0,0-2.3,3.9V68.29l6.33,1.14v1.15H105V69.43Z" fill="#fff"/>
      <path d="M155.29,63.48V51.17l-5,1.68a9.06,9.06,0,0,0-4.5,2.75,7.89,7.89,0,0,0,.07,9,5,5,0,0,0,4,1.75,6.75,6.75,0,0,0,5.42-2.9m-17.47,5.72A8.65,8.65,0,0,1,135,62.38a8.5,8.5,0,0,1,3.09-7q3.09-2.52,9.81-4.2l7.4-1.83V44.32q0-4.73-1.76-7.29a5.53,5.53,0,0,0-4.81-2.56,6.57,6.57,0,0,0-3.89,1.14l-.3,9.77a12.26,12.26,0,0,1-4.2.69,4.77,4.77,0,0,1-3.17-1A3.46,3.46,0,0,1,136,42.24q0-2.13,2.37-4.39a18.71,18.71,0,0,1,6.23-3.68,23,23,0,0,1,8.24-1.49q6.1,0,9.08,2.79t3,8.82V65a2.8,2.8,0,0,0,.54,2,3.13,3.13,0,0,0,2.06.5h3.28v1.07c-.25.15-.87.46-1.83.91a30,30,0,0,1-3.4,1.34,11.51,11.51,0,0,1-3.63.65A6.46,6.46,0,0,1,157.3,70a6.58,6.58,0,0,1-1.72-4.59h-.39a22.19,22.19,0,0,1-4.69,4.69,10.85,10.85,0,0,1-12.69-.91" fill="#fff"/>
      <path d="M196.58,65V38.9q-2.15-3.51-7.48-3.51a7.86,7.86,0,0,0-6.52,3.55q-2.6,3.56-2.59,11a25.92,25.92,0,0,0,1.33,8.47,14.86,14.86,0,0,0,3.86,6.22,8.56,8.56,0,0,0,6,2.33,9.69,9.69,0,0,0,5.4-2m9.62-51.44V67.44l4.81.61v1.12l-13.27,2.4-.84-5q-5.11,5.27-11,5.27a14.26,14.26,0,0,1-8.21-2.4A15.65,15.65,0,0,1,172.23,63a20.84,20.84,0,0,1-1.91-9,19.81,19.81,0,0,1,3.05-10.88,21.4,21.4,0,0,1,8-7.44A22.06,22.06,0,0,1,192,33a19.66,19.66,0,0,1,4.58.69V19.9l-5.88-1.68v-.91Z" fill="#fff"/>
      <path d="M218.49,23.6a5.39,5.39,0,0,1-.2-7.62c.06-.07.13-.13.2-.2a5.36,5.36,0,0,1,3.89-1.68,5.46,5.46,0,0,1,3.93,1.68,5.34,5.34,0,0,1,.26,7.56,3.19,3.19,0,0,1-.26.26,5.5,5.5,0,0,1-4,1.64,5.41,5.41,0,0,1-3.89-1.64m-.62,44.57V39.82l-4.66-2.36v-.92l14.35-3.89V68.17l5,1.3v1.15H213V69.43Z" fill="#fff"/>
      <polygon points="234.33 36.08 230.36 34.86 230.36 33.71 249.75 33.71 249.75 34.67 244.56 35.95 252.49 59.21 253.41 62.18 253.56 62.18 254.33 60.04 262.5 36.31 256.62 34.86 256.62 33.71 269.44 33.71 269.44 34.86 265.63 36 251.89 71.8 247.84 71.8 234.33 36.08" fill="#fff"/>
      <path d="M288.9,63.48V51.17l-5,1.68a9.06,9.06,0,0,0-4.5,2.75,7.9,7.9,0,0,0,.08,9,5,5,0,0,0,4,1.75,6.75,6.75,0,0,0,5.42-2.9m-17.48,5.72a8.67,8.67,0,0,1-2.84-6.76,8.47,8.47,0,0,1,3.09-6.95q3.09-2.52,9.81-4.2l7.41-1.83V44.32q0-4.73-1.76-7.29a5.53,5.53,0,0,0-4.81-2.56,6.57,6.57,0,0,0-3.89,1.14l-.3,9.77a12.26,12.26,0,0,1-4.2.69,4.74,4.74,0,0,1-3.16-1,3.46,3.46,0,0,1-1.19-2.81q0-2.13,2.36-4.39a18.77,18.77,0,0,1,6.27-3.7,23,23,0,0,1,8.24-1.49q6.1,0,9.09,2.79t3,8.82V65a2.8,2.8,0,0,0,.54,2,3.13,3.13,0,0,0,2.06.5h3.28v1.07c-.26.15-.86.46-1.83.91a30,30,0,0,1-3.4,1.34,11.45,11.45,0,0,1-3.62.65A6.46,6.46,0,0,1,291,70a6.56,6.56,0,0,1-1.72-4.62h-.38a22.19,22.19,0,0,1-4.69,4.69,10.86,10.86,0,0,1-12.74-.88" fill="#fff"/>
      <path d="M310.34,68.29V40.35l-4.66-2.9v-.68l13.05-4.2h.38l.38,10h.31l1-2a23.38,23.38,0,0,1,4.39-6.3,6.73,6.73,0,0,1,4.62-1.72,5.32,5.32,0,0,1,3.62,1.3,4.44,4.44,0,0,1,1.49,3.51q0,4.52-5.19,5.65L325,39.17a7,7,0,0,0-2.67,2.1,11.22,11.22,0,0,0-2.29,3.9V68.29l6.33,1.3v1H305.68v-1Z" fill="#fff"/>
      <path d="M341.58,23.6a5.4,5.4,0,0,1-.19-7.63l.19-.19a5.36,5.36,0,0,1,3.89-1.68,5.46,5.46,0,0,1,3.93,1.68,5.34,5.34,0,0,1,.26,7.56,3.19,3.19,0,0,1-.26.26,5.5,5.5,0,0,1-4,1.64,5.35,5.35,0,0,1-3.82-1.64m-.72,44.57V39.82l-4.66-2.36v-.92l14.38-3.9V68.17l5,1.3v1.15H336.05V69.43Z" fill="#fff"/>
      <path d="M376.88,69.85a13.13,13.13,0,0,1-6.95,2,10.51,10.51,0,0,1-7.9-3q-2.94-3-2.94-8.89V38.6l-4.73-2.06v-1l14.35-2.44V58.59q0,7.78,6.79,7.78a10.88,10.88,0,0,0,6.79-2.52V38.45l-5.19-1.91V35.47L392,33V67l5.11,1.37v1.14l-13.8,2.11-.84-6.26a25.35,25.35,0,0,1-5.57,4.54" fill="#fff"/>
      <path d="M399.83,69.28l-.46-11.68h1.45l4.76,10.57a8.14,8.14,0,0,0,2.33,1.56,7.38,7.38,0,0,0,3.17.65,6.58,6.58,0,0,0,5.11-2A7.79,7.79,0,0,0,418,62.89a5.55,5.55,0,0,0-1.26-3.7,9.8,9.8,0,0,0-4.08-2.55l-5-1.91q-7.79-2.9-7.78-10.46a10.12,10.12,0,0,1,2-6.14,13.1,13.1,0,0,1,5.53-4.23,20.13,20.13,0,0,1,8-1.53,23.27,23.27,0,0,1,9.92,2.44l-.08,10.38H424l-4.39-9.26A8,8,0,0,0,414.47,34a5.49,5.49,0,0,0-4.35,1.83,7.76,7.76,0,0,0-1.6,5.27,4.14,4.14,0,0,0,1.33,3.28,12.19,12.19,0,0,0,4.24,2.52l4,1.6a18.61,18.61,0,0,1,6.79,4.16,8.62,8.62,0,0,1,2.06,6.07,11.07,11.07,0,0,1-2.21,6.79,14.58,14.58,0,0,1-6,4.62,20.12,20.12,0,0,1-8.17,1.64,27.26,27.26,0,0,1-10.84-2.52" fill="#fff"/>
      <path d="M50.14,66.6c-4.37,8.84-12,14.81-20.67,15.22a90.64,90.64,0,0,0,.25-10.16v-.37c0-.38.14-.4.47-.51l1.25-.39A15.75,15.75,0,0,0,40.78,63c1.85-3.43,2.5-7.91,0-10.94a8.29,8.29,0,0,0-5.52-2.85c-1.15-.1-3.37,0-3.77,1.27s.48,1.78,1.31,2.24c1.43.79,2.29,1.47,2.3,3.09a6.11,6.11,0,0,1-2.31,4.55,5.7,5.7,0,0,1-1.72,1c-.62.21-1.34.31-1.34-.38v-13c0-2.65.47-3.51,1.77-5.77,2.3-4,5.23-9.24,6.89-13.06a23,23,0,0,0,2-8.87c8.19,5.47,13.69,16.37,13.69,29v1.68h0a5.62,5.62,0,0,1,2.9.81v-2.5c0-14.54-6.94-27-16.91-32.62a23.2,23.2,0,0,0-2.29-6.81,32.37,32.37,0,0,0-7-9A2.56,2.56,0,0,0,27.58.43a2.14,2.14,0,0,0-.86,1.74v11.4C11.81,14.69,0,30.17,0,49.17c0,17.7,10.29,32.4,23.79,35.22-.14.45-.28.88-.42,1.3C22.27,89,19.49,96.06,15,96.08a1.56,1.56,0,0,1-1.79-1.31,1.23,1.23,0,0,1,0-.19,2,2,0,0,1,.44-1.22,3.6,3.6,0,0,1,3-1.22,2.49,2.49,0,0,0,2-.36,1.15,1.15,0,0,0,.12-1.62L18.58,90a5.89,5.89,0,0,0-3.4-.87c-4.2,0-9.24,3.2-9.29,7.85-.06,5.47,5.19,7.87,9.8,7.85,5.71,0,9.57-3.5,11.31-8.77h0a56.44,56.44,0,0,0,2.06-10.38l.1-.84C39.16,84.61,47.84,78,52.77,68A6.24,6.24,0,0,1,50.14,66.6ZM29.73,10.22a.46.46,0,0,1,.37-.53h0c.52,0,1,1,1.85,2.69.24.49.46,1,.65,1.44a24,24,0,0,0-2.92-.34Zm0,6.29a20.09,20.09,0,0,1,4,.64,21.68,21.68,0,0,1-1.47,13.68A32.64,32.64,0,0,1,30.7,34.1a.52.52,0,0,1-.62.4.46.46,0,0,1-.35-.46Zm-3,34.35V61.17a.33.33,0,0,1-.18.3.33.33,0,0,1-.44-.15,8.36,8.36,0,0,1-.71-2,17.09,17.09,0,0,1,.78-9.15.28.28,0,0,1,.29-.18.5.5,0,0,1,.24.54c0,.11,0,.22,0,.33Zm0-12c0,2.45-1.56,4.49-3.06,6.31-3.34,4-5.71,7.81-6.14,12.91s1.39,10.58,6.84,12.4a15.09,15.09,0,0,0,1.76.44c.28,0,.62.06.59.44a.87.87,0,0,1-.06.36c-.5,3-1.18,6.53-2,9.8C12.36,79.05,3,65.5,3,49.17,3,31.9,13.45,17.76,26.72,16.57V38.81Z" fill="#fff"/>
    </g>
  </g>
</svg>
