<svg xmlns="http://www.w3.org/2000/svg" viewBox="0 0 96.19 542.91">
  <title>svyaznoy</title>
  <g id="Слой_2" data-name="Слой 2">
    <g id="Слой_1-2" data-name="Слой 1">
      <path d="M48.1,542.91c27.52,0,48.09-21.64,48.09-50.23,0-10.16-2.19-19-7.6-26.59h-18a51.3,51.3,0,0,1,7.92,26.76c0,18.12-12.68,31.65-30.44,31.65S17.65,511,17.65,492.85a51.22,51.22,0,0,1,7.93-26.76h-18C2.2,473.72,0,482.52,0,492.68c0,28.59,20.58,50.23,48.1,50.23" fill="#fff"/>
      <path d="M23.49,112c0,20.47,16.32,37.06,36.35,37.06S96.19,132.48,96.19,112,79.88,75,59.84,75,23.49,91.56,23.49,112m57.82,0A21.47,21.47,0,1,1,59.84,90.7,21.31,21.31,0,0,1,81.31,112" fill="#fff"/>
      <polygon points="24.93 15.97 70.15 46.74 24.93 46.74 24.93 62.23 94.76 62.23 94.76 46.49 49.68 15.74 94.76 15.74 94.76 0 24.93 0 24.93 15.97" fill="#fff"/>
      <path d="M58,395.43a16.45,16.45,0,0,0-13.46-7.59c-11.3,0-19.6,8.59-19.6,20.32v39.3H94.76V406.59c0-11.74-8.44-20.61-20-20.61A19.45,19.45,0,0,0,58,395.43M38.67,431.72V410.59a6.73,6.73,0,1,1,13.45,0v21.13ZM81,409.59v22.13H65.86V409.59a7.59,7.59,0,1,1,15.17,0" fill="#fff"/>
      <path d="M24.93,347.67c0,13.88,10.44,24.33,24,24.33a23.47,23.47,0,0,0,22.92-17.22l22.87,19.08V353.54L72.87,335.27v-8.73H94.76V310.8H24.93Zm13.74-2.15v-19H59.13v19c0,6.3-4.72,10.74-10.16,10.74-5.73,0-10.3-4.44-10.3-10.74" fill="#fff"/>
      <polygon points="24.93 208.3 24.93 224.04 94.76 224.04 94.76 208.3 66.43 208.3 66.43 177.55 94.76 177.55 94.76 161.81 24.93 161.81 24.93 177.55 52.69 177.55 52.69 208.3 24.93 208.3" fill="#fff"/>
      <path d="M90.69,295.24H75.25c3.21-6.14,6.06-13.66,6.06-22.25,0-10.44-3.12-17-8.66-17-5,0-6.84,5.75-6.84,13.08v12H52.07v-12c0-7.46-2.74-11.64-6.49-11.64-5.5,0-7.2,6.59-7.2,14.22a48.75,48.75,0,0,0,5.4,21.81h-15a54.16,54.16,0,0,1-5.31-24.08c0-15.24,8.11-27.63,19.29-27.63,8.14,0,13.15,4.77,14.84,8.61a18.42,18.42,0,0,1,16.46-10.48c13.1,0,22.11,12.58,22.11,31,0,10.57-2.28,18.3-5.5,24.39" fill="#fff"/>
      <path d="M21.15,32.42c0-12.1-7.48-21.33-18.46-22.32L1.12,22.71c4.74,0,8.38,4.3,8.38,9.71s-3.64,9.71-8.38,9.71L2.69,54.74c11-1,18.46-10.22,18.46-22.32" fill="#fff"/>
    </g>
  </g>
</svg>
