<svg xmlns="http://www.w3.org/2000/svg" viewBox="0 0 28.96 74.61"><title>te-amo</title><path d="M18.43,11.28l1.11.87c1.21,1,1.6,2,1.15,3.1a3.51,3.51,0,0,1-3.63,2.32c-1.12-.21-2.22-.52-3.4-.63l5.5,3a6.51,6.51,0,0,1,.73.41A2.29,2.29,0,0,1,21,23c-.49,1.11-1.49,1-2.46,1-.59-.06-1.18-.19-1.76-.29a9.92,9.92,0,0,0-1.64-.18c1.48,1.28,3.31,1.55,5.14,1.83.28,0,.56,0,.83.07,1.91.21,2.08.46,1.7,2.34a.94.94,0,0,0,.17.73,2.3,2.3,0,0,1-1.28,3.88c-.19,0-.37.13-.72.26.79.54,1.46,1,2.11,1.46a8.14,8.14,0,0,1,1.25,1.09c.89,1,1.55,2.08,1,3.46a3.33,3.33,0,0,1-3.18,2.14,16.46,16.46,0,0,1-3.43-.31A20,20,0,0,1,11,37.37a10.62,10.62,0,0,1-2.06-2,2.52,2.52,0,0,1-.2-3.21A2,2,0,0,0,9,30.32,3,3,0,0,1,9,29a1.34,1.34,0,0,1,1.88-1.2c2.7.64,5.39,1.29,8.09,1.9a4.56,4.56,0,0,0,1.84,0,7.58,7.58,0,0,0-3.7-2.47c-2-.48-4.06-.74-6.08-1.17a4.53,4.53,0,0,1-1.89-.82,1.43,1.43,0,0,1-.28-1.35c.22-.34.88-.43,1.36-.56a3.7,3.7,0,0,1,1,.08c-.83-.63-1.46-1.06-2-1.56S8,20.68,8.49,19.79s1.21-.74,2-.48c1.73.54,3.49,1,5.24,1.41l.15-.36-1.06-.58c-2.61-1.51-5.28-2.92-7.82-4.55C5.28,14.09,5.42,12.92,7.3,12a2.14,2.14,0,0,1,1.51.06c2.43.91,4.84,1.89,7.27,2.83a1.64,1.64,0,0,0,.82.11,10.32,10.32,0,0,0,1.3-.33c-.25-.46-.37-1.15-.75-1.36-2.21-1.24-4.49-2.36-6.74-3.54A38.39,38.39,0,0,1,6.27,7.29c-1.37-1-1.44-1.9-.7-3.42a2.09,2.09,0,0,0,.21-.54C6.12,1,7.22,0,9.68,0A13.15,13.15,0,0,1,19,3.51a4.68,4.68,0,0,1,1.31,5.25A11.33,11.33,0,0,1,18.43,11.28Zm-8.24-8.4-1.77,1c.33.54.54,1.26,1,1.59A11.87,11.87,0,0,0,16.11,8a7.27,7.27,0,0,0,1.94-.58c-.33-.62-.51-1.43-1-1.83A14.68,14.68,0,0,0,10.19,2.88ZM23,37.49a2.93,2.93,0,0,0-.17-.64,1.31,1.31,0,0,0-.3-.36c-3-2.52-6.73-3.48-10.45-4.31-.71-.16-1,.46-.63,1.08a5.08,5.08,0,0,0,1.44,1.37,20.25,20.25,0,0,0,8.36,2.85A14.34,14.34,0,0,0,23,37.49Z" fill="#fff"/><path d="M20.94,55.38a29.8,29.8,0,0,0,3.69-.76,1.44,1.44,0,0,0,.78-2.45,7.15,7.15,0,0,0-2.07-2.1c-1.73-1-3.6-1.79-5.37-2.75a5.89,5.89,0,0,1-1.21-1.23c.53-.23,1.13-.76,1.57-.64a11.69,11.69,0,0,1,3.49,1.41,24.32,24.32,0,0,1,4.81,3.78,7.61,7.61,0,0,1,1.3,3.73c.27,1.69-.72,2.85-2.22,3.58.75.67,1.48,1.22,2.1,1.88,2,2.17,1.3,5-1.59,5.69a18.83,18.83,0,0,1-5.55.38c-3.8-.32-7.57-.89-11.35-1.36l-1.05-.12c.35,1.84.7,3.57,1,5.3a14.24,14.24,0,0,1,.36,3c0,.67-.35,1.75-.79,1.89-.92.3-1.33-.72-1.56-1.44-.49-1.51-.84-3.06-1.21-4.6-.29-1.24-.54-2.49-.76-3.74a1.23,1.23,0,0,0-1.26-1.14A5.05,5.05,0,0,1,1.91,63a3.38,3.38,0,0,1-1.3-1.7c-.29-1,.5-1.66,1.52-1.49.69.12,1.38.26,2.22.42-.77-3.8-1.5-7.46-2.23-11.11S.67,42.14.05,38.62A4.82,4.82,0,0,1,.37,36.2c.32-.81,1-.81,1.39,0a9.45,9.45,0,0,1,.69,2.27Q4.78,49.13,7,59.82A1.36,1.36,0,0,0,8.28,61.1a78,78,0,0,0,15,1.76,10.06,10.06,0,0,0,2.13-.2c.36-.08.89-.38.94-.66a1.28,1.28,0,0,0-.48-1.1,13.81,13.81,0,0,0-3.25-1.7c-1.89-.57-3.86-.88-5.8-1.29a16.21,16.21,0,0,1-6-2.27c-2-1.37-1.32-3.19-.94-4.94.31-1.44,1.61-1.53,2.74-1.62A10.21,10.21,0,0,1,20,51.56C21.09,52.45,21.26,53.7,20.94,55.38Zm-7.42-4.17a7.47,7.47,0,0,0-1.3.58c-.07,0,0,.57.19.7,1.38,1.11,2.76,2.3,4.68,2.23.47,0,.93-.43,1.4-.66-.28-.44-.44-1.12-.84-1.3C16.3,52.14,14.88,51.7,13.52,51.21Z" fill="#fff"/></svg>