<svg xmlns="http://www.w3.org/2000/svg" viewBox="0 0 106.5 55"><path fill="#fff" fill-rule="evenodd" d="M84.5 35.5a34.6 34.6 0 014.3 0v15.6h-4.3V35.5zm0-4.3h4.3v3h-4.3v-3zm6.3 6c1.3-1.6 3.4-2 5.3-2.2 2.6 0 5.4 0 7.7 1.3A4.7 4.7 0 01106 40h-4.7c-.2-.7-.4-1.4-1.1-1.7a6.2 6.2 0 00-4.2-.3c-.9.2-1.8 1-1.5 2 .3.7 1 .9 1.7 1l6.6 1.1a4.7 4.7 0 013.6 2.7 4.8 4.8 0 01-1.3 5 9.2 9.2 0 01-5.2 1.6 16 16 0 01-7.9-1 4.7 4.7 0 01-2.4-4.3h4.8a2.4 2.4 0 001.4 2 6.6 6.6 0 005.2 0 1.5 1.5 0 000-2.8c-3-1-6.2-.6-9-2-2.3-1-2.6-4.4-1.1-6.3zM0 35.4h9.4c2.2 0 4.3-.2 6.5 0v3H10c-.1 4.1.1 8.4-.1 12.6H5.8c-.2-4.2 0-8.5 0-12.7H0v-3zm16.7 0h14.7v3H21v3.2h9.8v2.9H21v3.5h10.4v3H16.8c-.2-5.1 0-10.3 0-15.5zm16.6 0h15.3v2.7L38.4 48h10.2v3h-16a23.3 23.3 0 010-2.7 22.3 22.3 0 012-1.8c2.8-2.7 5.5-5.5 8.3-8h-9.6v-3zm16.7 0h14.6v3H54.4a31.3 31.3 0 00-.1 3.2H64v2.9h-9.7a17.6 17.6 0 000 3.5h10.3v3H50c-.3-5.2 0-10.4-.1-15.5zm16 0h5L79 46.3V35.5h4.1v15.6h-4.5c-3-3.6-5.7-7.3-8.6-10.9v10.9H66V35.5z"/></svg>
