<svg xmlns="http://www.w3.org/2000/svg" viewBox="0 0 50.3 194.3"><path fill="#fff" d="M41.8 6.8V15h-4.4V6.8a2.3 2.3 0 012.1-2.4 2.2 2.2 0 012.3 2.4M44.6 4v-.2a4.7 4.7 0 00-5-3.2c-3 0-5.3 2.4-5.3 5.8v12.5H50V15h-5V8.2l5-3.9V0l-5.3 4m2 53.8H34.4v3.7h15.5V45.9h-3.1v11.9m-9 59.4V109h12.1v-3.7H37.7v-8.4h-3.4v20.4h3.4m0 77.1V186h12.1v-3.7H37.7V174h-3.4v20.4h3.4M47 161c0 2.9-1.2 6.3-5 6.3-3.5 0-5-3.1-5-6.3 0-4 1.8-6.3 5-6.3s5 2.3 5 6.3m-13.2 0c0 4.8 2.1 10.3 8.2 10.3a7.3 7.3 0 006.1-3.3 12.7 12.7 0 002-7 12.3 12.3 0 00-2-7.2 7.3 7.3 0 00-6.2-3.2c-5 0-8.2 4-8.2 10.3M47.2 33.4c0 2.9-1.2 6.3-5 6.3-3.5 0-5-3.1-5-6.3 0-4 1.8-6.3 5-6.3s5 2.4 5 6.3m-13.2 0c0 4.8 2.1 10.3 8.2 10.3a7.3 7.3 0 006.1-3.3 12.7 12.7 0 002-7 12.3 12.3 0 00-2-7.2A7.3 7.3 0 0042 23c-5 0-8.2 4-8.2 10.4m9.3 56.2l-5.7-3.1 5.7-3.2v6.3zm-8.8-5.3v4.4l15.5 8.6v-4l-3.6-2v-9.6l3.6-2v-4l-15.5 8.6zm15.5-12.9v-4H34.3v4m7 64.5l-7 6.1v4.4h15.6v-3.6H38.7l.3-.3 7.4-6.6L39 129l-.3-.2h11.1v-3.6H34.4v4.4l7 6.1M3.8 76.6c-2.8 5.8-3.9 13-3.9 20s1 14.2 4 20c.1.3.4.7.8.7h7c.5 0 .7-.1.6-.6a48 48 0 01-2-9.3c-.1-.4 0-.6.4-.6h9.4c.3 0 .5-.2.6-.4a41 41 0 001.3-9.8 41.2 41.2 0 00-1.3-9.7c0-.2-.3-.4-.6-.4h-9.3c-.5 0-.6-.3-.6-.7a48 48 0 012-9.2c.2-.5 0-.7-.5-.6h-7c-.4 0-.7.3-1 .7"/></svg>
