<svg xmlns="http://www.w3.org/2000/svg" viewBox="0 0 74 61.1"><path fill="#fff" d="M44.4 46.8c-.3-.1-.4-.5-.4-.8 0-.4 0-.7.2-1l.4-1.1h2.8l.6 1.7.2.8c0 .2 0 .3-.2.4-.2.2-.5.2-.8.2v.4h3.6V47c-.3 0-.6-.2-.8-.4l-.5-1-2.7-7.6h-1.1l-1 .5v.3l.6.1.5.5-1.9 5.3c-.2.6-.4 1.3-.9 1.9-.2.3-.5.4-.8.5v.4H45v-.4l-.6-.3zm.9-8.1h.5c.3.2.4.5.5.8l2 5.5.4 1.4c0 .2 0 .4-.2.5l-.5.1c.1-.1.3-.3.3-.5l-.2-.9-2.1-6c-.1-.4-.3-.7-.7-.9zm.6 1.1a52 52 0 001.3 3.6h-2.5l1.2-3.6zm-2.3 6c.1 0 0 .1 0 0zm-.8 1.2l.8-1v.6l.3.4h-1.1zM34.1 38.9l.8 2 2.5 6.6h.4l2.4-6.7a6 6 0 01.9-1.8c.2-.3.5-.6.9-.6V38h-2.8v.4l.6.2c.2.2.3.5.3.7l-.3 1.5-1.6 4.5-.2-.5-1.8-4.7-.3-.8c0-.2-.1-.5.1-.6.2-.2.5-.2.8-.2v-.4h-3.6v.4l.7.2.2.2zm5.6-.6h1.1a2 2 0 00-.6 1c0-.3-.1-.7-.5-1zm-5.1.4l.4 1 2.4 6.5.1.5-.2.5a251.5 251.5 0 01-3.5-8.9c.4 0 .6.1.8.4zM52.4 39.2v5.4l-.2 1.4c-.1.3-.2.6-.5.8l-.6.2v.4H54V47c-.3 0-.6-.1-.8-.3-.3-.3-.4-.8-.5-1.2v-1-4.9l6.1 7.9h.4v-7.7c0-.4.1-.9.4-1.2.2-.2.5-.3.8-.3v-.4h-3.2v.4c.3 0 .6.1.9.4l.7 1 .1.7v4.5l-.3-.4-5.1-6.6H51v.4c.6.1 1.1.5 1.4.9zm6.5-.1l-.8-.8h1.4c-.4.2-.6.5-.6.8zM53.2 47h-1.3c.3-.2.5-.5.6-.8.1.3.3.6.7.8zm-.5-8.4l.7.8 5.1 6.6.3.6.1.7-5.8-7.6-.7-.8-.6-.5c.3-.1.6 0 .9.2zM34.4 60.1c-.7.4-1.5.6-2.3.4-.5-.1-1-.5-1.3-.9a5.9 5.9 0 01-1-4.2c.1-.8.3-1.6.7-2.3a2 2 0 011-1c.7-.4 1.5-.4 2.2 0 .5.3.9.8 1.3 1.3l.6 1.1h.4v-2.9h-.5c-.2.2-.5.4-.8.4-.7 0-1.4-.4-2.1-.4-.8 0-1.7.2-2.3.7a5.2 5.2 0 00-2 5.5c.2 1.2 1 2.3 2 3 .6.4 1.3.6 2 .7h.6c.7 0 1.3-.2 1.9-.6.7-.4 1.2-1 1.6-1.6l-.4-.2c-.6.2-1.1.7-1.6 1zM35 52v1.1l-.7-1 .7-.1zm-4.8 8.3a4 4 0 01-1.4-1.5c-.4-.7-.6-1.4-.6-2.2 0-.8 0-1.6.3-2.4.2-.6.6-1.1 1-1.6.4-.4.9-.7 1.5-1a5 5 0 00-1.5 1.4 5.3 5.3 0 00-.8 4.6 5.1 5.1 0 002.6 3l.5.2c-.5 0-1.1-.2-1.6-.5zM42.4 60.2c-.7.4-1.5.4-2.2.3-.2 0-.5-.1-.6-.3-.2-.3-.2-.6-.2-.9v-6.4c0-.3.1-.7.3-.9.3-.2.7-.1 1-.1v-.4h-4.1v.4l.9.1.4.4.1.9v6.4c0 .2 0 .5-.2.7a2 2 0 01-1.1.3v.4h7.2l.8-2.4h-.6c-.5.5-1 1.1-1.7 1.5zm-4 .2c-.1.2-.4.2-.6.2.3-.2.4-.5.4-.8v-6.7c0-.3 0-.6-.2-.8l-.2-.3c.2 0 .5 0 .6.2l.1.8v6.2c0 .4.1.8-.1 1.2zm4.9.1h-1c.6-.3 1.1-.7 1.5-1.2l-.5 1.2zM48.3 60.3c-.2-.3-.3-.6-.3-1v-6.4c0-.3.1-.7.3-.8.3-.2.6-.2.9-.2v-.4h-4v.4c.3 0 .6 0 .9.2.3.2.3.6.3.9v6.5c0 .3 0 .6-.3.8-.3.2-.6.2-1 .2v.4h4v-.4c-.2 0-.5 0-.8-.2zm-1.2-.6l-.1.6a1 1 0 01-.7.3c.3-.2.5-.5.5-.8v-7l-.1-.6-.3-.2c.2 0 .5.1.6.3.2.2.2.5.2.8l-.1 6.6zM50.1 51.5v.4l.8.1.4.4.1 1.2v5.5l-.1.8c0 .2-.1.4-.3.4l-.9.2v.4h4.2v-.4l-.8-.1a.5.5 0 01-.5-.3l-.2-.7v-3.2h1.5c.3 0 .7.1.9.4.2.3.3.7.3 1.1h.4v-3.6h-.4c0 .4-.1.9-.4 1.2-.3.3-.8.5-1.2.5h-1.2v-2.6l.1-1c.1-.2.3-.3.6-.4h1.3c.5.1.9.3 1.3.6l1.2 1.1h.5l-.7-2.2c-2.2.2-4.5.2-6.9.2zm1.6 9l-.5.1.3-.3.1-.6v-6.6c0-.3 0-.7-.2-1l-.3-.2.6.1c.2.2.2.5.2.7v7c.1.3 0 .6-.2.8zm4-5.1v1.3c-.1-.3-.5-.6-.8-.6l.8-.7zm-.3-3.5h1L57 53c-.4-.4-1-.8-1.6-1.1zM65.3 51.5h-7v.4l.8.1c.2.1.4.2.4.4l.1 1.3v5.4l-.1.9c0 .2-.1.3-.3.4l-.9.2v.4h4.2v-.4l-.8-.1a.5.5 0 01-.5-.3c-.2-.2-.2-.4-.2-.7v-3.3h1.3c.3 0 .7 0 .9.2.4.3.4.8.5 1.3h.4v-3.6h-.4c0 .4-.1.9-.4 1.2-.3.3-.7.5-1.2.5h-1.2V53l.1-.8c.1-.2.4-.3.6-.3h1.2l1.1.5c.5.3.9.7 1.3 1.2h.5c.1-.6-.1-1.3-.4-2.1zm-5 2.2v6c0 .2-.1.5-.3.7l-.5.2.3-.3.1-.5v-6.9c0-.3-.1-.7-.4-.9l.6.1c.2.1.2.4.2.6v1zm3.6 1.7v1.3c-.1-.3-.5-.5-.8-.6l.8-.7zm-.2-3.5h1l.6 1-1.6-1z"/></svg>
