<?xml version="1.0" encoding="UTF-8"?><!DOCTYPE svg PUBLIC "-//W3C//DTD SVG 1.1//EN" "http://www.w3.org/Graphics/SVG/1.1/DTD/svg11.dtd"><svg xmlns="http://www.w3.org/2000/svg" xmlns:xlink="http://www.w3.org/1999/xlink"><symbol id="icon-arrow-left" viewBox="0 0 512 512"><path d="M491.32 235.32H20.68a20.68 20.68 0 0 0 0 41.36h470.64a20.68 20.68 0 1 0 0-41.36z"/><path d="M49.93 256L211.8 94.14a20.68 20.68 0 1 0-29.25-29.25L6.05 241.38a20.68 20.68 0 0 0 0 29.24l176.5 176.5a20.62 20.62 0 0 0 14.62 6.05 20.68 20.68 0 0 0 14.63-35.3L49.93 256z"/></symbol><symbol id="icon-arrow-right" viewBox="0 0 512 512"><path d="M491.32 235.32H20.68a20.68 20.68 0 0 0 0 41.36h470.64a20.68 20.68 0 1 0 0-41.36z"/><path d="M505.94 241.38L329.45 64.88a20.68 20.68 0 0 0-29.25 29.26L462.07 256 300.2 417.86a20.68 20.68 0 0 0 29.25 29.25l176.5-176.49a20.68 20.68 0 0 0 0-29.25z"/></symbol><symbol id="icon-calendar" viewBox="0 0 58 58"><path d="M46 34a12 12 0 1 0 0 24 12 12 0 0 0 0-24zm0 22a10 10 0 1 1 0-20 10 10 0 0 1 0 20z"/><path d="M52 45h-5v-5a1 1 0 1 0-2 0v6c0 .6.4 1 1 1h6a1 1 0 1 0 0-2zM27 21H7v29h20V32h18V21H27zm9 2h7v7h-7v-7zm-18 0h7v7h-7v-7zm-9 0h7v7H9v-7zm0 9h7v7H9v-7zm7 16H9v-7h7v7zm9 0h-7v-7h7v7zm0-9h-7v-7h7v7zm9-9h-7v-7h7v7z"/><path d="M33 55H2V16h48v13a1 1 0 1 0 2 0V5c0-.6-.4-1-1-1h-5V1c0-.6-.4-1-1-1h-7a1 1 0 0 0-1 1v3H15V1c0-.6-.4-1-1-1H7a1 1 0 0 0-1 1v3H1a1 1 0 0 0-1 1v51c0 .6.4 1 1 1h32a1 1 0 1 0 0-2zm6-53h5v6h-5V2zM8 2h5v6H8V2zM2 6h4v3c0 .6.4 1 1 1h7c.6 0 1-.4 1-1V6h22v3c0 .6.4 1 1 1h7c.6 0 1-.4 1-1V6h4v8H2V6z"/></symbol><symbol id="icon-cinema" viewBox="0 0 59 59"><path d="M58 57a8 8 0 0 1-8-8v-.03A28.9 28.9 0 0 0 58 29C58 13.01 44.99 0 29 0S0 13.01 0 29s13.01 29 29 29c7.34 0 14.05-2.75 19.16-7.26A10 10 0 0 0 58 59a1 1 0 1 0 0-2zM2 29C2 14.11 14.11 2 29 2s27 12.11 27 27-12.11 27-27 27S2 43.89 2 29z"/><path d="M29 4C15.21 4 4 15.21 4 29s11.21 25 25 25 25-11.21 25-25S42.78 4 29 4zm0 48C16.32 52 6 41.68 6 29S16.32 6 29 6s23 10.32 23 23-10.32 23-23 23z"/><path d="M41 22c-.33 0-.66.03-.98.08l-.02-.04-.75.19h-.03c-.37.1-.73.23-1.07.38l-.04.02c-.34.16-.66.33-.97.53l-.02.02c-.28.19-.55.4-.8.63l-.15.14c-.23.22-.45.45-.65.7l-.12.17c-.2.27-.39.54-.55.84v.01c-.17.3-.3.61-.42.94l-.06.17a7 7 0 0 0-.25.97l-.03.19a7.13 7.13 0 0 0 0 2.12c0 .07.02.13.03.19.06.33.14.66.25.97l.06.17c.12.32.25.64.41.94l.01.02c.16.29.35.56.55.83l.12.16c.2.26.42.5.65.71l.15.14c.26.23.52.44.8.63l.03.02c.3.2.62.37.96.53l.04.02c.35.15.7.28 1.07.37l.03.01.75.2.02-.05A7 7 0 1 0 41 22zm-1 7c0 1.58-.34 3.15-1 4.58a5.01 5.01 0 0 1-.71-.4c-.08-.04-.16-.1-.24-.16a5.24 5.24 0 0 1-1.13-1.14l-.08-.1c-.16-.24-.29-.5-.4-.76l-.1-.23a4.9 4.9 0 0 1-.2-.63l-.05-.26a5.05 5.05 0 0 1 0-1.8l.06-.26c.05-.22.12-.43.2-.63l.08-.23c.12-.26.25-.52.41-.75l.08-.1c.14-.2.3-.4.47-.57l.2-.2c.14-.13.3-.26.47-.38l.23-.17c.22-.15.46-.28.71-.39.66 1.43 1 3 1 4.58zm1 5h-.01a13 13 0 0 0 0-10H41a5 5 0 0 1 0 10zM22.48 33.34l.12-.16c.2-.27.39-.54.55-.83v-.03c.17-.3.3-.6.42-.93l.06-.17c.1-.31.2-.64.25-.97l.03-.19a7.14 7.14 0 0 0 0-2.12c0-.07-.02-.13-.03-.19a6.92 6.92 0 0 0-.25-.97l-.06-.18a6.85 6.85 0 0 0-.41-.93l-.01-.02a7.1 7.1 0 0 0-.55-.83l-.12-.17c-.2-.25-.42-.48-.65-.7l-.15-.14a7.03 7.03 0 0 0-.8-.63l-.03-.02a7.1 7.1 0 0 0-.96-.53l-.04-.02c-.35-.15-.7-.28-1.07-.37l-.03-.01-.75-.2-.03.05A7 7 0 1 0 17 36c.33 0 .66-.03.98-.08l.02.04.75-.19h.03c.37-.1.72-.23 1.07-.38l.04-.02c.34-.16.66-.33.97-.53l.02-.02c.28-.19.54-.4.8-.63l.15-.13c.23-.23.45-.46.65-.72zm-.57-3.44l-.06.26a4.9 4.9 0 0 1-.2.63l-.08.23c-.12.26-.26.52-.41.75l-.08.1c-.14.2-.3.4-.47.57l-.2.2c-.15.13-.3.26-.47.38l-.23.17c-.23.15-.46.28-.71.39a11.04 11.04 0 0 1 0-9.16c.25.11.49.24.71.4a5.24 5.24 0 0 1 1.36 1.31l.09.1c.16.23.29.49.4.75l.1.23.2.63.05.26a5.05 5.05 0 0 1 0 1.8zM12 29a5 5 0 0 1 5-5h.01A13 13 0 0 0 16 29a13 13 0 0 0 1.01 5H17a5 5 0 0 1-5-5zM22.04 18l.19.75v.03c.1.37.23.72.38 1.07l.02.04c.16.34.33.66.53.96l.02.03c.19.28.4.54.63.8l.14.15c.22.23.45.45.7.65l.17.12a6.99 6.99 0 0 0 1.79.97l.17.06a7 7 0 0 0 .97.25l.19.03a7.15 7.15 0 0 0 2.12 0c.07 0 .13-.02.19-.03.33-.06.66-.14.97-.25l.18-.06c.32-.12.63-.25.93-.41l.02-.01c.29-.16.56-.35.83-.55l.17-.12c.25-.2.48-.42.7-.65l.14-.15c.23-.25.44-.52.63-.8l.02-.02c.2-.31.37-.63.53-.97l.02-.04c.15-.35.28-.7.37-1.07l.01-.03.2-.75-.05-.02A7 7 0 1 0 22 17c0 .33.03.66.08.98l-.04.02zm11.15 1.71l-.17.23a5.24 5.24 0 0 1-1.14 1.14l-.1.08c-.24.16-.5.29-.76.4l-.23.1c-.2.07-.41.14-.63.19l-.26.06a4.96 4.96 0 0 1-1.8 0l-.26-.06a4.9 4.9 0 0 1-.63-.2l-.23-.08a4.99 4.99 0 0 1-.75-.41l-.1-.08c-.2-.14-.4-.3-.57-.47l-.2-.2c-.13-.15-.26-.3-.38-.47l-.17-.23a4.97 4.97 0 0 1-.39-.71 11.15 11.15 0 0 1 9.16 0c-.11.25-.24.49-.4.71zM29 12a5 5 0 0 1 5 5v.02a13.28 13.28 0 0 0-10 0V17a5 5 0 0 1 5-5zM35.97 40l-.2-.75v-.03c-.1-.37-.23-.72-.38-1.07l-.02-.04a6.99 6.99 0 0 0-.53-.97l-.02-.02c-.19-.28-.4-.55-.63-.8l-.13-.15a6.94 6.94 0 0 0-.72-.65l-.16-.12c-.27-.2-.54-.39-.83-.55h-.03c-.3-.17-.6-.3-.93-.42l-.17-.06c-.31-.1-.64-.2-.97-.25l-.19-.03a7.12 7.12 0 0 0-2.12 0c-.07 0-.13.02-.19.03-.33.06-.66.14-.97.25l-.17.06c-.33.12-.64.25-.94.41l-.02.01c-.29.16-.56.35-.83.55l-.16.12c-.26.2-.5.42-.72.65l-.13.15c-.23.26-.44.52-.63.8l-.02.03c-.2.3-.37.62-.53.96l-.02.05c-.15.34-.28.7-.37 1.06l-.01.03-.2.75.05.03A6.93 6.93 0 0 0 29 48a7 7 0 0 0 6.92-7.98l.05-.02zM24.8 38.3l.17-.23a5.24 5.24 0 0 1 1.14-1.14l.1-.08c.24-.16.5-.29.76-.4l.23-.1c.2-.07.41-.14.63-.19l.26-.06a5.03 5.03 0 0 1 1.8 0l.26.06c.22.05.43.12.63.2l.23.08c.26.12.52.25.75.41l.1.08a4.95 4.95 0 0 1 1.15 1.14l.17.23c.15.22.28.46.39.71a11.15 11.15 0 0 1-9.16 0c.11-.25.24-.49.4-.71zM29 46a5 5 0 0 1-5-5v-.01a13 13 0 0 0 10 0V41a5 5 0 0 1-5 5z"/></symbol><symbol id="icon-clock" viewBox="0 0 438.53 438.53"><path d="M409.13 109.2a218.35 218.35 0 0 0-79.8-79.8C295.73 9.8 259.06 0 219.27 0 179.5 0 142.8 9.8 109.21 29.4a218.29 218.29 0 0 0-79.8 79.8C9.81 142.8 0 179.5 0 219.27c0 39.78 9.8 76.46 29.4 110.06a218.35 218.35 0 0 0 79.8 79.8c33.6 19.6 70.29 29.4 110.07 29.4s76.47-9.8 110.06-29.4a218.29 218.29 0 0 0 79.8-79.8c19.6-33.6 29.4-70.28 29.4-110.06s-9.8-76.48-29.4-110.07zm-55.39 188a154.84 154.84 0 0 1-56.52 56.54c-23.8 13.9-49.78 20.84-77.95 20.84s-54.15-6.94-77.94-20.84a154.85 154.85 0 0 1-56.53-56.53c-13.9-23.8-20.84-49.77-20.84-77.94 0-28.17 6.95-54.15 20.84-77.95a154.81 154.81 0 0 1 56.53-56.53c23.79-13.9 49.77-20.84 77.94-20.84 28.17 0 54.15 6.95 77.95 20.84a154.82 154.82 0 0 1 56.52 56.53c13.9 23.8 20.84 49.78 20.84 77.95s-6.94 54.15-20.84 77.94z"/><path d="M246.68 109.63h-18.27a8.9 8.9 0 0 0-6.57 2.57 8.91 8.91 0 0 0-2.57 6.57v100.5h-63.95a8.9 8.9 0 0 0-6.57 2.56 8.9 8.9 0 0 0-2.57 6.57v18.27a8.9 8.9 0 0 0 2.57 6.57 8.9 8.9 0 0 0 6.57 2.56h91.37c2.66 0 4.85-.85 6.56-2.56a8.9 8.9 0 0 0 2.57-6.57v-127.9a8.9 8.9 0 0 0-2.57-6.57 8.9 8.9 0 0 0-6.57-2.57z"/></symbol><symbol id="icon-common-slider-arrow-next" viewBox="0 0 492 492"><path d="M484.1 226.9L306.5 49.2a26.7 26.7 0 0 0-38 0L252 65.3a27.3 27.3 0 0 0 0 38.3l103.7 104H26.6A26.3 26.3 0 0 0 0 234v22.8a27.3 27.3 0 0 0 26.6 27.7H357L252.2 388.9c-5 5.1-7.8 11.7-7.8 18.9 0 7.2 2.8 13.9 7.8 19l16.2 16a26.7 26.7 0 0 0 38 0L484.2 265c5.1-5 8-11.9 7.9-19 0-7.3-2.8-14.1-7.9-19.2z"/></symbol><symbol id="icon-common-slider-arrow-prev" viewBox="0 0 492 492"><path d="M464.3 207.4l.8.2H136l103.5-103.7c5-5.1 7.8-12 7.8-19.2 0-7.2-2.7-14-7.8-19l-16.1-16.2c-5-5-11.8-7.8-19-7.8-7.2 0-14 2.8-19 7.8L7.8 227C2.8 232 0 238.8 0 246c0 7.3 2.8 14 7.8 19.2l177.5 177.4c5 5 11.8 7.8 19 7.8 7.2 0 14-2.8 19-7.8l16-16.1a26.6 26.6 0 0 0 0-37.7L134.8 284.4h330a27.9 27.9 0 0 0 27.3-27.6V234a27.3 27.3 0 0 0-27.7-26.6z"/></symbol><symbol id="icon-credit-card" viewBox="0 0 512 512"><path d="M498 176L336 14c-8-9-20-14-33-14-12 0-24 5-32 14L14 271c-9 8-14 20-14 32 0 13 5 25 14 33l20 20 134 135h-19a11 11 0 0 0 0 21h214a11 11 0 0 0 0-21H249l249-250c19-18 19-47 0-65zm-15 50L226 483c-4 5-11 8-17 8-7 0-14-3-18-8L56 349l247-247a11 11 0 1 0-15-15L41 334l-12-13c-5-5-8-11-8-18 0-6 3-13 8-17L286 29c4-5 11-8 17-8 7 0 13 3 18 8l58 57-247 247a11 11 0 0 0 15 15l247-247 89 90c10 10 10 26 0 35z"/><path d="M263 308c-4-4-11-4-15 0l-84 84a11 11 0 0 0 15 15l84-84c4-4 4-11 0-15zM228 388l-34 34a11 11 0 0 0 15 15l34-34a11 11 0 0 0-15-15zM260 356l-4 5a11 11 0 0 0 15 15l4-5a11 11 0 0 0-15-15zM407 164a11 11 0 0 0-15 0l-45 45c-2 2-3 5-3 8s1 5 3 7l30 30a11 11 0 0 0 15 0l45-45c4-4 4-11 0-15l-30-30zm-23 68l-15-15 31-31 15 16-31 30zM320 80c3 0 6-1 8-3l4-4a11 11 0 0 0-15-16l-4 5a11 11 0 0 0 7 18zM107 358l-4 5a11 11 0 0 0 15 15l4-5a11 11 0 0 0-15-15z"/></symbol><symbol id="icon-events" viewBox="0 0 512 512"><path d="M499.1 186.2L473.3 164a7.6 7.6 0 1 0-10 11.6l25.8 22.3a22 22 0 0 1 2.3 31L324 422.5a7.7 7.7 0 0 0 11.6 10l167.3-193.7a37.4 37.4 0 0 0-3.8-52.6zM453.7 147L334.6 44a37 37 0 0 0-52.7 3.8L270.6 61A7.7 7.7 0 1 0 282 71l11.4-13.2a21.9 21.9 0 0 1 31-2.2l119.2 103a7.6 7.6 0 0 0 10.8-.8c2.8-3.2 2.4-8-.8-10.8z"/><path d="M381.1 120L174.9 50.8a37.4 37.4 0 0 0-47.2 23.5l-2.8 8.1a7.7 7.7 0 0 0 14.6 4.9l2.7-8.1A22 22 0 0 1 170 65.3l206.2 69.2a22 22 0 0 1 13.9 27.8l-96 286a7.7 7.7 0 0 0 14.6 5l96-286.1c6.5-19.5-4-40.7-23.6-47.2z"/><path d="M254.8 100.8H37.3A37.4 37.4 0 0 0 0 138v301.7A37.4 37.4 0 0 0 37.3 477h217.5a37.4 37.4 0 0 0 37.3-37.3V138a37.4 37.4 0 0 0-37.3-37.3zm22 339a22 22 0 0 1-22 22H37.3a22 22 0 0 1-22-22V138a22 22 0 0 1 22-22h217.5a22 22 0 0 1 22 22v301.7z"/><path d="M258.8 312H33.3a7.7 7.7 0 0 0 0 15.3h225.5a7.7 7.7 0 1 0 0-15.3zM223.1 355.7h-94.7a7.7 7.7 0 0 0 0 15.3H223a7.7 7.7 0 0 0 0-15.3zM102.8 355.7H69a7.7 7.7 0 0 0 0 15.3h33.8a7.7 7.7 0 0 0 0-15.3zM223.1 385h-154a7.7 7.7 0 0 0 0 15.3h154a7.7 7.7 0 0 0 0-15.3zM223.1 414.2h-154a7.7 7.7 0 0 0 0 15.3h154a7.7 7.7 0 0 0 0-15.3zM230.2 189.6a7.6 7.6 0 0 0-6.2-5.3l-49.1-7-22-44.6a7.7 7.7 0 0 0-13.7 0l-22 44.5-49 7.1a7.6 7.6 0 0 0-4.3 13L99.4 232 91 281a7.7 7.7 0 0 0 11.1 8l44-23 43.9 23a7.7 7.7 0 0 0 11-8l-8.3-49 35.5-34.6c2.1-2 2.9-5 2-7.8zm-51 34.3a7.7 7.7 0 0 0-2.3 6.8l6.5 37.5-33.8-17.7a7.7 7.7 0 0 0-7.1 0l-33.8 17.7 6.5-37.5c.4-2.5-.4-5-2.2-6.8l-27.3-26.6 37.7-5.5c2.5-.4 4.7-2 5.8-4.2l16.9-34.2 16.8 34.2a7.7 7.7 0 0 0 5.8 4.2l37.7 5.5-27.3 26.6z"/></symbol><symbol id="icon-family" viewBox="0 0 512 512"><path d="M345 221a12 12 0 1 0 0 25 12 12 0 0 0 0-25zM415 221a12 12 0 1 0 0 25 12 12 0 0 0 0-25zM97 221a12 12 0 1 0 0 25 12 12 0 0 0 0-25zM167 221a12 12 0 1 0 0 25 12 12 0 0 0 0-25z"/><path d="M508 394a7 7 0 1 0-15 4l4 22H355l-7-2v-1c0-33-17-63-43-79 11-10 24-17 39-22a39 39 0 0 0 73 0c28 9 51 29 66 55 2 4 7 5 11 3 3-2 4-7 2-10-6-11-13-21-22-29 7-5 13-13 18-24 20-41 20-121 6-157a126 126 0 0 0-201-50 8 8 0 0 0 10 11 111 111 0 0 1 177 44c13 33 13 108-5 146-5 10-10 16-16 19-13-10-28-18-43-23 31-15 52-46 52-83v-15c0-4-3-7-6-7-37-7-63-44-63-45-4-5-11-4-13 2-1 0-19 43-94 43-4 0-8 3-8 7v15c0 37 22 68 53 83-16 5-31 13-44 23-6-3-11-9-15-19-18-38-18-113-6-146 3-8 7-15 12-23a8 8 0 0 0-12-8c-6 8-10 17-14 26-14 36-14 116 6 157 2 6 5 10 8 14l-20-2v-21a8 8 0 0 0-15-3l-1 19c-11-8-14-19-14-20a7 7 0 0 0-15 3c1 1 3 14 16 25l-7 3c-14-13-31-22-49-28 16-7 29-19 39-34a27 27 0 0 0 34-40c20-57 11-90 1-108a69 69 0 0 0-87-27c-10-13-22-19-47-19-28 0-68 14-89 47-24 35-15 77-3 108-3 4-5 9-5 15a27 27 0 0 0 40 24c9 15 23 27 38 34-21 7-40 18-55 35-3 2-3 7 0 10 2 3 8 3 11 0 13-14 29-24 47-30a39 39 0 0 0 74 0c13 4 25 11 36 20a95 95 0 0 0-46 81v1l-6 2H15c2-18 7-36 16-51a8 8 0 0 0-13-8C6 381 0 404 0 427c0 4 4 8 8 8h130l-2 10a27 27 0 0 0 39 25 95 95 0 0 0 158 0l11 2a27 27 0 0 0 25-37h135c4 0 8-4 8-8 0-11-2-23-4-33zM222 255l-5-1c3-7 5-15 6-23a12 12 0 0 1-1 24zM34 128c18-28 53-40 77-40s31 7 39 18c2 3 7 4 10 2 0-1 14-9 32-7 17 3 31 12 40 26 12 21 12 52 0 90l-8-1v-13c0-4-3-7-6-7-38-7-63-44-64-45-3-5-10-4-13 2 0 0-4 10-18 21-18 14-44 22-76 22-4 0-7 3-7 7v13c-3 0-6 0-9 2-13-36-12-67 3-90zm8 127a12 12 0 0 1-1-24c1 8 3 16 6 23l-5 1zm13-32v-13c57-2 83-27 94-41 10 12 31 33 60 40v14a77 77 0 0 1-154 0zm77 104c-10 0-18-6-22-15a118 118 0 0 1 44 0c-4 9-12 15-22 15zm248 0c-10 0-18-6-22-15a118 118 0 0 1 44 0c-4 9-12 15-22 15zm-77-109v-8c57-2 84-27 94-41 11 12 32 33 60 40v9a77 77 0 0 1-154 0zM163 457a12 12 0 0 1-3-24l7 23-4 1zm91 40a80 80 0 1 1 0-160 80 80 0 0 1 0 160zm90-40l-4-1c3-7 6-15 7-23a12 12 0 0 1-3 24z"/><path d="M219 414a12 12 0 1 0 0 24 12 12 0 0 0 0-24zM289 414a12 12 0 1 0 0 24 12 12 0 0 0 0-24zM236 72c12 10 24 16 25 17h6c1-1 13-7 25-17 16-14 24-30 22-45-3-18-16-26-27-27-9-1-17 2-23 7-6-5-14-8-23-7-11 1-24 9-27 27-2 15 6 31 22 45zm-7-43c2-11 9-14 14-14h1c6 0 12 3 13 7a7 7 0 0 0 14 0c2-4 8-7 14-7 5 0 12 3 14 14 2 19-22 37-35 44-13-7-37-25-35-44z"/></symbol><symbol id="icon-furniture" viewBox="0 0 33 33"><path d="M24.2 24.5H8.8a.5.5 0 0 1-.5-.5v-8.12a4.12 4.12 0 0 0-4.1-4.11A3.2 3.2 0 0 0 1 14.96c0 1.35 1.1 2.45 2.45 2.45 1.03 0 1.87-.83 1.87-1.86 0-.77-.63-1.39-1.4-1.39a.5.5 0 0 1 0-1 2.4 2.4 0 0 1 2.4 2.4 2.87 2.87 0 0 1-2.87 2.85A3.46 3.46 0 0 1 0 14.96a4.2 4.2 0 0 1 4.2-4.2c2.81 0 5.1 2.3 5.1 5.12v7.63h14.4v-7.63c0-2.82 2.29-5.11 5.1-5.11a4.2 4.2 0 0 1 4.2 4.19c0 1.9-1.55 3.45-3.45 3.45a2.87 2.87 0 0 1-2.87-2.86 2.4 2.4 0 0 1 2.4-2.39.5.5 0 0 1 0 1 1.4 1.4 0 0 0-1.4 1.4c0 1.02.84 1.85 1.87 1.85 1.35 0 2.45-1.1 2.45-2.45a3.2 3.2 0 0 0-3.2-3.2 4.12 4.12 0 0 0-4.1 4.12v8.13a.5.5 0 0 1-.5.5z"/><path d="M28.1 29.3H5.01a2.07 2.07 0 0 1-2.06-2.06v-9.32a.5.5 0 0 1 1 0v9.32c0 .59.47 1.06 1.06 1.06h23.07c.59 0 1.06-.47 1.06-1.06v-9.32a.5.5 0 0 1 1 0v9.32c0 1.14-.92 2.06-2.06 2.06z"/><path d="M24.2 20.27H8.8a.5.5 0 0 1 0-1h15.4a.5.5 0 1 1 0 1zM8.8 30.93a.5.5 0 0 1-.5-.5V29.2a.5.5 0 0 1 1 0v1.23a.5.5 0 0 1-.5.5zM24.2 30.93a.5.5 0 0 1-.5-.5V29.2a.5.5 0 0 1 1 0v1.23a.5.5 0 0 1-.5.5zM27.56 11.77a.5.5 0 0 1-.5-.5V8a4.94 4.94 0 0 0-4.93-4.94H10.98a4.94 4.94 0 0 0-4.94 4.94v3.26a.5.5 0 0 1-1 0V8a5.94 5.94 0 0 1 5.94-5.94h11.15a5.94 5.94 0 0 1 5.93 5.94v3.26a.5.5 0 0 1-.5.5z"/></symbol><symbol id="icon-key" viewBox="0 0 836.1 836.1"><path d="M827 263.7A263.5 263.5 0 0 0 377 77.2a263.1 263.1 0 0 0-44.7 313.4L16.5 706a25.8 25.8 0 0 0-5.1 28.9c.9 2.2 2.4 4.2 4 5.9l70.8 70.7c1.7 1.7 3.7 3.1 5.9 4.1a25.7 25.7 0 0 0 28.9-5.1l43.7-43.7 62.9 62.9c1.7 1.7 3.7 3.1 5.9 4.1a25.7 25.7 0 0 0 28.9-5.1L332 759c1.7-1.7 3-3.7 4-5.9a25.7 25.7 0 0 0-5-28.9l-62-61.9L436.5 495A263.3 263.3 0 0 0 666 506.8a263.1 263.1 0 0 0 140.3-140.3A262.7 262.7 0 0 0 827 263.7zm-171.2 92.5a130 130 0 0 1-92.5 38.3 130 130 0 0 1-92.5-38.3 130.1 130.1 0 0 1-38.4-92.5c0-35 13.6-67.8 38.3-92.5s57.6-38.3 92.5-38.3 67.8 13.6 92.5 38.3 38.3 57.6 38.3 92.5c.2 34.9-13.4 67.8-38.2 92.5z"/></symbol><symbol id="icon-laugh" viewBox="0 0 187.73 187.73"><path d="M93.87 0C43.05 0 1.7 41.34 1.7 92.16a92.4 92.4 0 0 0 20.33 57.75 3.41 3.41 0 1 0 5.32-4.28A84.4 84.4 0 0 1 8.53 92.16c0-47.05 38.28-85.33 85.34-85.33S179.2 45.1 179.2 92.16s-38.28 85.33-85.33 85.33a85.43 85.43 0 0 1-40.68-10.3 3.42 3.42 0 0 0-3.25 6 92.28 92.28 0 0 0 43.93 11.13c50.81 0 92.16-41.35 92.16-92.16S144.68 0 93.87 0z"/><path d="M79.98 159.2a3.41 3.41 0 0 0-4.42-1.95l-54.87 21.33 11.58-37.63a3.41 3.41 0 1 0-6.52-2L12.1 183.31a3.41 3.41 0 0 0 4.5 4.18l61.44-23.89a3.41 3.41 0 0 0 1.94-4.42zM63.94 61.44a19.71 19.71 0 0 0-19.69 19.69 3.41 3.41 0 0 0 6.83 0c0-7.1 5.77-12.86 12.86-12.86a12.88 12.88 0 0 1 12.84 13.49 3.41 3.41 0 1 0 6.82.32 19.7 19.7 0 0 0-19.66-20.64zM125.38 61.44a19.71 19.71 0 0 0-19.69 19.69 3.41 3.41 0 0 0 6.83 0c0-7.1 5.77-12.86 12.86-12.86a12.88 12.88 0 0 1 12.84 13.49 3.41 3.41 0 1 0 6.82.32 19.7 19.7 0 0 0-19.66-20.64zM138.24 98.93H49.49a3.47 3.47 0 0 0-3.47 3.47c0 26.38 21.46 47.85 47.85 47.85s47.84-21.47 47.84-47.85a3.47 3.47 0 0 0-3.47-3.47zM93.87 143.3a40.95 40.95 0 0 1-40.76-37.43h81.51a40.96 40.96 0 0 1-40.75 37.43z"/></symbol><symbol id="icon-map" viewBox="0 0 16 16"><path d="M6 13l4 2V3L6 1zM1 15l4-2V1L1 3zM11 3v12l4-2V1z"/></symbol><symbol id="icon-meal" viewBox="0 0 512 512"><path d="M256 117c-77.2 0-140 62.8-140 140s62.8 140 140 140 140-62.8 140-140-62.8-140-140-140zm0 260a120.1 120.1 0 1 1 120-120c0 66.2-53.8 120-120 120zm0 0"/><path d="M502 343.8V10a10 10 0 0 0-18-6.1 314 314 0 0 0-57.6 122A213.6 213.6 0 0 0 256 42a213.6 213.6 0 0 0-156 67V10a10 10 0 1 0-20 0v120H60V10a10 10 0 1 0-20 0v120H20V10a10 10 0 1 0-20 0v130c0 15.8 7.5 30.6 20 40v163.8C14 399.6 10 462.6 10 472a40 40 0 0 0 80 0c0-7-2.2-44.1-5.9-85.8A213.6 213.6 0 0 0 256 472c57.4 0 111.4-22.4 152-63a216.4 216.4 0 0 0 31.4-39.7c-4.6 48-7.4 94.7-7.4 102.7a40 40 0 0 0 80 0c0-9.4-4-72.4-10-128.2zM462 275h20v20h-20zm-20-124.7A294 294 0 0 1 482 42v213h-25.9L442 240.9zM40 275h20v20H40zm38.3-125c-2.4 6.6-7 12.4-13.3 16-3.1 1.8-5 5-5 8.6V255H40v-80.4a10 10 0 0 0-5-8.6c-6.3-3.6-11-9.4-13.3-16zM50 492c-11 0-20-9-20-20 0-7.6 10-127.3 10-127.7V315h20v29.3c0 .4 10 120 10 127.7 0 11-9 20-20 20zm206-40A195.3 195.3 0 0 1 80 341V180a50.2 50.2 0 0 0 20-39.8 194.8 194.8 0 0 1 322 14.7v90c0 2.7 1 5.3 3 7.2l17 17v46.5c-25 79-98.9 136.4-186 136.4zm216 40c-11 0-20-9-20-20 0-7.6 10-127.3 10-127.7V315h20v29.3c0 .4 10 120 10 127.7 0 11-9 20-20 20zm0 0"/><path d="M257.3 337a10 10 0 0 0-9.9 10.1 10 10 0 0 0 10 9.9h.2a10 10 0 0 0-.3-20zm0 0M336 257c0 30.6-17 58-44.5 71.7a10 10 0 0 0-4.5 13.4 10 10 0 0 0 13.4 4.5A100.1 100.1 0 0 0 356 257a10 10 0 0 0-20 0zm0 0"/></symbol><symbol id="icon-message" viewBox="-21 -47 683 682"><path d="M552-1H88C39-1 0 38 0 87v284c0 48 39 87 88 88v128l185-128h279c49 0 88-40 88-88V87c0-49-39-88-88-88zm50 372c1 27-22 50-50 50H261l-136 95v-95H88c-28 0-51-23-51-50V87c0-28 23-51 51-51h464c28 0 50 23 50 51zm1 0"/><path d="M171 131h298v38H171zm0 0M171 211h298v38H171zm0 0M171 291h298v38H171zm0 0"/></symbol><symbol id="icon-pdf-file" viewBox="-16 0 512 512"><path d="M379 394.3H168.8a7.6 7.6 0 0 0 0 15.1h210a7.6 7.6 0 1 0 0-15.1zm0 0M379 341.2H168.8a7.6 7.6 0 0 0 0 15.1h210a7.6 7.6 0 0 0 0-15zm0 0M161.3 295.7c0 4.1 3.4 7.5 7.6 7.5h133.6a7.6 7.6 0 1 0 0-15H169a7.6 7.6 0 0 0-7.6 7.5zm0 0"/><path d="M458.7 99.1L445 84.3V31.4A31.5 31.5 0 0 0 413.5 0h-338a31.5 31.5 0 0 0-31.6 31.4v59.7H30.1A30.2 30.2 0 0 0 0 121.3v91.4A30.2 30.2 0 0 0 30.1 243H44v210.8A31.5 31.5 0 0 0 75.5 485h17.3a30.7 30.7 0 0 0 30.4 26.9h325.1c17 0 30.7-13.7 30.7-30.6V155c0-26.8-.8-34.6-20.3-55.9zm4.9 40.3H407c-8.6 0-15.6-7-15.6-15.5V58.2c10 .7 12.7 3.7 21.4 13.3 1.4 1.7 3 3.4 4.8 5.3L432 92.5l.2.2 15.3 16.7c12 13 15.2 18.5 16 30zM59 31.4c0-9 7.3-16.3 16.4-16.3h338c9 0 16.4 7.3 16.4 16.3V68l-1.2-1.3-4.7-5.2C411.6 47.6 406.2 43 384 43H123.1a30.7 30.7 0 0 0-30.7 30.6V91H59.1zm404.8 450c0 8.5-7 15.5-15.6 15.5H123.2c-8.6 0-15.6-7-15.6-15.5V371.9a7.6 7.6 0 0 0-15 0V470H75.4c-9 0-16.4-7.3-16.4-16.3V242.9h33.4v94.4a7.6 7.6 0 0 0 15.1 0v-94.4H147a7.6 7.6 0 0 0 0-15.1H30a15 15 0 0 1-15-15v-91.5a15 15 0 0 1 15-15h199a15 15 0 0 1 15 15v91.4a15 15 0 0 1-15 15h-47.6a7.6 7.6 0 1 0 0 15.2H229a30.2 30.2 0 0 0 30.2-30.2v-91.4A30.2 30.2 0 0 0 229.1 91H107.6V73.5c0-8.6 7-15.5 15.6-15.5h253.2v65.9a30.7 30.7 0 0 0 30.6 30.6h56.9v.5zm0 0"/><path d="M75.6 134.6h-18c-2.3 0-4.2.8-5.7 2.4a7.8 7.8 0 0 0-2.4 5.7v53.5c0 2.3.8 4.1 2.3 5.7a7.4 7.4 0 0 0 5.5 2.3c2 0 3.9-.8 5.4-2.3a7.4 7.4 0 0 0 2.3-5.5V181h11.6a23 23 0 0 0 17-6.3c4.2-4.2 6.3-9.8 6.3-16.6 0-7-2.2-12.6-6.7-16.9a24.3 24.3 0 0 0-17.6-6.5zm5.7 30a8.9 8.9 0 0 1-6.5 2.8H65v-19h9.9c2.6 0 4.8 1 6.5 2.9A9.6 9.6 0 0 1 84 158a9 9 0 0 1-2.7 6.5zm0 0M163.3 152.8c-2.3-5-5.4-8.9-9.5-11.9-5.7-4.1-13-6.2-22-6.2H116c-2.2 0-4.1.8-5.6 2.4a7.6 7.6 0 0 0-2.3 5.4v53c0 2.4.7 4.2 2.2 5.7 1.5 1.4 3.5 2 5.8 2h17.1c9.3 0 16.7-2.4 22.3-7.4a34.8 34.8 0 0 0 11.2-27 38 38 0 0 0-3.4-16zm-17.5 31a16.7 16.7 0 0 1-13.2 5.6h-9.1v-40.7h8.3a18 18 0 0 1 13.9 5.5c3.3 3.6 5 8.5 5 14.6 0 6.2-1.6 11.2-5 15zm0 0M184.4 204.3c2.2 0 4-.7 5.5-2.2a7.5 7.5 0 0 0 2.2-5.5v-20.4h14.7c2 0 3.8-.7 5.2-2 1.4-1.5 2.1-3 2.1-5s-.7-3.6-2.1-5a7.3 7.3 0 0 0-5.2-2H192v-13.5h17.4a6.8 6.8 0 0 0 7-7c0-2-.8-3.6-2.1-5-1.4-1.4-3-2-5-2h-24.9c-2.2 0-4.1.7-5.6 2.3a7.7 7.7 0 0 0-2.3 5.5v54.1c0 2.1.8 4 2.4 5.5a7.6 7.6 0 0 0 5.4 2.2zm0 0"/></symbol><symbol id="icon-phone" viewBox="0 0 348.1 348.1"><path d="M340.3 275l-53.8-53.7a28 28 0 0 0-39.5.8l-27 27-5.4-3a269.5 269.5 0 0 1-65.2-47c-24.7-24.7-37.7-48.2-47.2-65.3l-2.9-5.2 18.2-18.2 9-9A28 28 0 0 0 127 62L73.4 8.2a28 28 0 0 0-39.5.7L18.7 24.2l.4.4a87.6 87.6 0 0 0-18 44.3C-6 127.8 20.9 181.6 93.9 254.5c100.8 101 182.1 93.3 185.6 93a90.8 90.8 0 0 0 44.4-18.1l.3.3 15.4-15a28 28 0 0 0 .7-39.6z"/></symbol><symbol id="icon-pin" viewBox="0 0 512 512"><path d="M256 0C154 0 71 83 71 185c0 127 166 314 173 321 6 8 18 8 24 0 7-7 173-194 173-321C441 83 358 0 256 0zm0 279a93 93 0 1 1 0-187 93 93 0 0 1 0 187z"/></symbol><symbol id="icon-search" viewBox="0 0 475.1 475.1"><path d="M464.5 412.8l-98-97.9c23.7-34 35.5-72 35.5-113.9 0-27.2-5.3-53.2-15.9-78a200.9 200.9 0 0 0-42.8-64.3 201 201 0 0 0-64.2-42.9A197.5 197.5 0 0 0 201 0c-27.2 0-53.2 5.3-78 15.8a201 201 0 0 0-64.3 42.9 201 201 0 0 0-42.9 64.2A197.5 197.5 0 0 0 0 201c0 27.2 5.3 53.2 15.8 78a200.9 200.9 0 0 0 42.9 64.3 201 201 0 0 0 64.2 42.9A197.5 197.5 0 0 0 201 402c41.9 0 79.9-11.8 114-35.4l97.8 97.6a34 34 0 0 0 25.7 10.9c10 0 18.5-3.6 25.7-10.9a35.1 35.1 0 0 0 10.9-25.7 35 35 0 0 0-10.6-25.7zM291.4 291.4c-25 25-55.2 37.5-90.4 37.5s-65.3-12.5-90.4-37.5c-25-25-37.5-55.2-37.5-90.4s12.5-65.3 37.5-90.4c25-25 55.2-37.5 90.4-37.5s65.3 12.5 90.4 37.5c25 25 37.5 55.2 37.5 90.4s-12.5 65.3-37.5 90.4z"/></symbol><symbol id="icon-shops" viewBox="0 0 201.4 201.4"><path d="M129.4 24.9a29.1 29.1 0 0 0-52.1-13 3.4 3.4 0 1 0 5.5 4 22.3 22.3 0 0 1 39.9 10 3.4 3.4 0 0 0 6.7-1zM178.7 63.1l-10.2-17c-.6-1.1-1.8-1.7-3-1.7h-9.8a3.4 3.4 0 0 0 0 6.8h8l6 10.2h-138l6-10.2h3.7a3.4 3.4 0 0 0 0-6.8h-5.6c-1.2 0-2.3.6-2.9 1.6L22.7 63.1a3.4 3.4 0 0 0 2.9 5.2h150.2a3.4 3.4 0 0 0 3-5.2z"/><path d="M161.7 31.6a3.4 3.4 0 0 0-2.1-1.5L113 19.2a3.4 3.4 0 0 0-4 2.6l-3.6 15a3.4 3.4 0 1 0 6.7 1.5l2.7-11.7 39.9 9.4-6.3 26.8a3.4 3.4 0 1 0 6.7 1.5l7-30.1c.2-.9 0-1.8-.4-2.6zM102.5 39.7l-3.1-26.3a3.4 3.4 0 0 0-3.8-3l-57 6.7c-2 .3-3.3 2-3 3.8l5.1 44a3.4 3.4 0 1 0 6.8-.9l-4.8-40.5 50.3-6 2.7 23a3.4 3.4 0 0 0 6.8-.8z"/><path d="M129.5 63.6l-6.8-28.2a3.4 3.4 0 0 0-4.1-2.5L63.6 46c-1.8.4-3 2.3-2.5 4.1l3.4 14a3.4 3.4 0 1 0 6.6-1.5l-2.6-10.8L117 40.3l6 24.9a3.4 3.4 0 1 0 6.6-1.6z"/><path d="M179.2 64.7c-.1-1.8-1.6-3.3-3.4-3.3H25.6a3.4 3.4 0 0 0-3.4 3.3l-6.8 133.1a3.4 3.4 0 0 0 3.4 3.6h163.8a3.4 3.4 0 0 0 3.4-3.6l-6.8-133.1zM22.4 194.6l6.4-126.3h143.7l6.5 126.3H22.4z"/><path d="M126.3 75a10.3 10.3 0 1 0 0 20.6 10.3 10.3 0 0 0 0-20.5zm0 13.7a3.4 3.4 0 1 1 0-6.8 3.4 3.4 0 0 1 0 6.8zM75 75a10.3 10.3 0 1 0 .1 20.6 10.3 10.3 0 0 0 0-20.5zm0 13.7a3.4 3.4 0 1 1 .1-6.8 3.4 3.4 0 0 1 0 6.8z"/><path d="M126.3 85.3h-.3a3.4 3.4 0 0 0-3.1 4.8v17.4a22.2 22.2 0 0 1-44.4 0V88.7a3.4 3.4 0 0 0-6.8 0v18.8a29 29 0 0 0 58 0V88.7c0-1.8-1.5-3.4-3.4-3.4z"/></symbol><symbol id="icon-square-area" viewBox="0 0 512 512"><path d="M53.3 0H10.7C4.7 0 0 4.8 0 10.7v42.6C0 59.3 4.8 64 10.7 64h42.6c6 0 10.7-4.8 10.7-10.7V10.7C64 4.7 59.2 0 53.3 0zM42.7 42.7H21.3V21.3h21.4v21.4zM501.3 0h-42.6c-6 0-10.7 4.8-10.7 10.7v42.6c0 6 4.8 10.7 10.7 10.7h42.6c6 0 10.7-4.8 10.7-10.7V10.7c0-6-4.8-10.7-10.7-10.7zm-10.6 42.7h-21.4V21.3h21.4v21.4zM53.3 448H10.7c-6 0-10.7 4.8-10.7 10.7v42.6c0 6 4.8 10.7 10.7 10.7h42.6c6 0 10.7-4.8 10.7-10.7v-42.6c0-6-4.8-10.7-10.7-10.7zm-10.6 42.7H21.3v-21.4h21.4v21.4zM501.3 448h-42.6c-6 0-10.7 4.8-10.7 10.7v42.6c0 6 4.8 10.7 10.7 10.7h42.6c6 0 10.7-4.8 10.7-10.7v-42.6c0-6-4.8-10.7-10.7-10.7zm-10.6 42.7h-21.4v-21.4h21.4v21.4z"/><path d="M32 42.7c-5.9 0-10.7 4.7-10.7 10.6v405.4a10.7 10.7 0 0 0 21.4 0V53.3c0-5.9-4.8-10.6-10.7-10.6zM458.7 21.3H53.3a10.7 10.7 0 0 0 0 21.4h405.4a10.7 10.7 0 0 0 0-21.4zM480 42.7c-5.9 0-10.7 4.7-10.7 10.6v405.4a10.7 10.7 0 0 0 21.4 0V53.3c0-5.9-4.8-10.6-10.7-10.6zM458.7 469.3H53.3a10.7 10.7 0 0 0 0 21.4h405.4a10.7 10.7 0 0 0 0-21.4z"/></symbol><symbol id="icon-teddy-bear" viewBox="0 0 512 512"><path d="M455 375a56 56 0 0 0-47-29 180 180 0 0 0-1-36c28-4 49-27 49-55a56 56 0 0 0-66-54 131 131 0 0 0 6-84c23-10 38-31 38-56 0-34-29-61-64-61-21 0-41 10-52 27a147 147 0 0 0-119 0 64 64 0 0 0-53-27c-34 0-63 27-63 61 0 25 15 46 38 56a131 131 0 0 0 5 84l-9-1c-31 0-57 25-57 55 0 28 22 51 49 55a180 180 0 0 0 0 37h-1c-5 0-10 0-15 2-16 4-28 13-36 27-14 24-13 61-6 85a71 71 0 0 0 72 51h1c26-2 49-17 60-39a140 140 0 0 0 146 1l1 2a70 70 0 0 0 62 35c32 0 60-20 68-50 7-25 8-61-6-86zM103 61c0-23 20-41 43-41 17 0 33 10 40 24a10 10 0 0 0 14 5 127 127 0 0 1 117 0 10 10 0 0 0 14-5c7-14 22-24 39-24 24 0 44 18 44 41 0 16-10 30-25 37l-8-16a10 10 0 0 0-17 11 111 111 0 0 1 16 58c0 61-49 111-112 116v-75c15-5 25-20 25-33 0-7-3-24-35-24-31 0-34 17-34 24 0 13 10 28 24 33v75c-62-5-112-55-112-116 0-13 3-25 7-37a10 10 0 0 0-7-13c-19-5-33-21-33-40zm155 283c-5 0-10 5-10 10v30a70 70 0 0 1-47-109 146 146 0 0 0 115 0 70 70 0 0 1-48 109v-30c0-5-4-10-10-10zm-14-185l1-2c2-1 6-2 13-2 8 0 12 1 13 2l2 2c0 6-7 15-15 15-7 0-14-9-14-15zm-80 308a50 50 0 0 1-41 25h-4c-23 0-43-15-49-36-6-20-7-51 5-70 5-9 13-15 23-18a40 40 0 0 1 20 0c26 8 44 41 50 63 4 12 2 25-4 36zm160-42c-2 10-3 20-1 30a121 121 0 0 1-133-3c1-8 0-17-2-26-8-26-28-62-58-75a160 160 0 0 1 1-49 10 10 0 0 0-11-12h-3c-20 0-37-15-37-35 0-19 17-35 37-35 10 0 19 4 26 10 11 15 24 27 40 36a90 90 0 1 0 151 0c15-9 29-21 39-36 7-6 17-10 26-10 21 0 37 16 37 35s-16 35-37 35h-2a10 10 0 0 0-11 12 159 159 0 0 1 2 47c-34 10-56 49-64 76zm118 31c-6 21-26 35-49 35l-14-1c-13-4-24-12-31-24-6-11-8-23-4-35 6-23 26-59 54-64a37 37 0 0 1 16 1c10 2 18 8 23 17 12 20 11 50 5 71z"/><path d="M321 113c-9 0-16 8-16 16 0 9 7 16 16 16s17-7 17-16c0-8-8-16-17-16zM195 113c-9 0-16 8-16 16 0 9 7 16 16 16 10 0 17-7 17-16 0-8-7-16-17-16zM361 57v-1a10 10 0 0 0-14 15 10 10 0 0 0 14 0c4-4 4-11 0-14zM258 315c-5 0-10 5-10 10a10 10 0 1 0 20 0c0-5-4-10-10-10z"/></symbol><symbol id="icon" viewBox="0 0 49.94 49.94"><path d="M48.86 22.73a3.56 3.56 0 0 0 .9-3.67 3.56 3.56 0 0 0-2.89-2.44l-12.1-1.76c-.5-.07-.95-.4-1.18-.86l-5.4-10.96c-.62-1.23-1.85-2-3.22-2s-2.6.77-3.21 2L16.36 14c-.24.47-.68.79-1.2.86l-12.1 1.76a3.56 3.56 0 0 0-2.88 2.44 3.56 3.56 0 0 0 .9 3.67l8.75 8.53c.38.36.55.89.46 1.4L8.22 44.7A3.5 3.5 0 0 0 9 47.6a3.62 3.62 0 0 0 4.42.88l10.81-5.69a1.62 1.62 0 0 1 1.48 0l10.81 5.69a3.54 3.54 0 0 0 4.41-.87 3.5 3.5 0 0 0 .79-2.9l-2.07-12.05c-.09-.51.08-1.04.46-1.4l8.75-8.53z"/></symbol><symbol id="soc-facebook" viewBox="0 0 512 512"><path d="M288 176v-64a32 32 0 0 1 32-32h32V0h-64c-53 0-96 43-96 96v80h-64v80h64v256h96V256h64l32-80h-96z"/></symbol><symbol id="soc-instagram" viewBox="0 0 512 512"><path d="M352 0H160A160 160 0 0 0 0 160v192a160 160 0 0 0 160 160h192a160 160 0 0 0 160-160V160A160 160 0 0 0 352 0zm112 352c0 61.8-50.2 112-112 112H160c-61.8 0-112-50.2-112-112V160C48 98.2 98.2 48 160 48h192c61.8 0 112 50.2 112 112v192z"/><path d="M256 128a128 128 0 1 0 0 256 128 128 0 0 0 0-256zm0 208a80.1 80.1 0 0 1 0-160 80 80 0 0 1 0 160z"/><circle cx="393.6" cy="118.4" r="17.1"/></symbol><symbol id="soc-odnoklassniki" viewBox="0 0 512 512"><path d="M256 0a128.1 128.1 0 1 0 128 128C384 57.4 326.6 0 256 0zm0 192a64 64 0 1 1 .1-128.1A64 64 0 0 1 256 192z"/><path d="M425.7 252.4a32 32 0 0 0-45.2 0 176.3 176.3 0 0 1-249 0 32 32 0 1 0-45.2 45.3 238.5 238.5 0 0 0 142.3 68.4l-91.2 91.3a32 32 0 1 0 45.2 45.2l73.4-73.4 73.4 73.4a32 32 0 0 0 45.2 0 32 32 0 0 0 0-45.2L283.4 366c52-5.9 102.5-28.6 142.3-68.4a32 32 0 0 0 0-45.3z"/></symbol><symbol id="soc-twitter" viewBox="0 0 512 512"><path d="M512 97.2c-19 8.4-39.3 14-60.5 16.6 21.8-13 38.4-33.4 46.2-58a209.8 209.8 0 0 1-66.6 25.4A105 105 0 0 0 249.5 153c0 8.3.8 16.3 2.5 24A297.1 297.1 0 0 1 35.6 67 105.1 105.1 0 0 0 68 207.4c-16.9-.3-33.4-5.2-47.4-12.9v1.1c0 51 36.4 93.4 84 103.2-8.5 2.3-17.8 3.4-27.4 3.4-6.8 0-13.5-.3-20-1.8a106 106 0 0 0 98.2 73.2A211 211 0 0 1 0 416.9 295.5 295.5 0 0 0 161 464c193.2 0 298.8-160 298.8-298.7 0-4.6-.2-9.1-.4-13.6A209.4 209.4 0 0 0 512 97.2z"/></symbol><symbol id="soc-vk" viewBox="0 0 512 512"><path d="M507.4 370.5c-1.4-2.3-9.9-20.8-50.8-58.8-43-39.9-37.2-33.4 14.5-102.2 31.4-42 44-67.5 40-78.5-3.7-10.4-26.8-7.7-26.8-7.7l-77 .5s-5.6-.8-9.9 1.7c-4.1 2.5-6.8 8.3-6.8 8.3s-12.2 32.4-28.4 60c-34.3 58.2-48 61.3-53.6 57.7-13-8.4-9.8-33.9-9.8-52 0-56.3 8.6-79.8-16.6-86a132 132 0 0 0-36-3.5c-27.4-.3-50.7 0-63.9 6.5-8.7 4.3-15.5 13.9-11.3 14.4 5 .7 16.6 3.1 22.7 11.4 7.9 10.8 7.6 34.9 7.6 34.9s4.5 66.4-10.6 74.6c-10.4 5.7-24.6-5.8-55.2-58.7-15.7-27-27.5-57-27.5-57s-2.3-5.5-6.3-8.5c-5-3.6-11.9-4.7-11.9-4.7l-73.1.4s-11 .3-15 5c-3.6 4.3-.3 13.1-.3 13.1s57.3 134 122 201.6c59.6 61.9 127.1 57.8 127.1 57.8h30.6s9.2-1 14-6.1c4.3-4.7 4.1-13.4 4.1-13.4s-.6-41.1 18.5-47.1c18.8-6 43 39.6 68.5 57.2 19.3 13.3 34 10.4 34 10.4l68.4-1s35.8-2.2 18.8-30.3z"/></symbol></svg>