<svg xmlns="http://www.w3.org/2000/svg" viewBox="0 0 93.2 91.9"><g fill="#fff"><path d="M61.8 66.2c-.6 0-1 .2-1.4.6a2 2 0 00-.6 1.5c0 .6.2 1.1.6 1.5.4.4.9.6 1.4.6.6 0 1-.2 1.4-.6.4-.4.6-.9.6-1.5a2 2 0 00-.6-1.5c-.4-.4-.8-.6-1.4-.6zM56.4 46c.9 0 1.6-.5 2.2-1.4.6-.9.9-2.4.9-4.6 0-2.2-.3-3.7-1-4.7-.6-.8-1.3-1.3-2.2-1.3-.9 0-1.6.4-2.1 1.3-.6.9-.9 2.4-.9 4.6 0 2.2.3 3.7.9 4.6.6 1.1 1.3 1.5 2.2 1.5zM40.3 34.1c-.9 0-1.6.4-2.1 1.3-.6.9-.9 2.4-.9 4.6 0 2.2.3 3.7.9 4.6.6.9 1.3 1.3 2.2 1.3.9 0 1.6-.5 2.2-1.4.6-.9.9-2.4.9-4.6 0-2.2-.3-3.7-1-4.7a2.5 2.5 0 00-2.2-1.1zM44.7 66.2c-.6 0-1 .2-1.4.6a2 2 0 00-.6 1.5c0 .6.2 1.1.6 1.5.4.4.9.6 1.4.6.6 0 1-.2 1.4-.6.4-.4.6-.9.6-1.5a2 2 0 00-.6-1.5c-.3-.4-.8-.6-1.4-.6z"/><path d="M40 0C18 0 0 18 0 40s18 40 40 40h40V40A40 40 0 0040 0zm10.1 35.3a6.2 6.2 0 012.5-2.8 7 7 0 013.9-1 6.7 6.7 0 016.3 3.8c.6 1.2.9 2.7.9 4.6 0 2.1-.3 3.7-.8 4.8a6.6 6.6 0 01-2.5 2.9 7 7 0 01-3.9 1c-1.5 0-2.8-.3-3.8-1-1-.6-1.9-1.6-2.5-2.8-.6-1.2-.9-2.8-.9-4.7-.1-2 .2-3.6.8-4.8zM19.9 46h1.7l1.1-.1.4-.4.1-1.1v-9.2h-3.3v-2.3l2.2-.3 2.4-.6a5 5 0 001.3-.5H27v13l.1 1 .4.4 1 .1H30v2.3H19.9V46zm13.2 20.3H32l-1 .1c-.3.1-.6.4-.8.7a2 2 0 000 2.1c.2.4.5.6.8.7l1 .1h1.1v2H32c-.7 0-1.4-.1-1.9-.3a4 4 0 01-1.7-1.4 3 3 0 01-.4-1l-.1-1.1.1-1.1.4-1a3 3 0 011.7-1.4 5 5 0 011.9-.3h1.1v1.9zm7 0h-2.2V72h-2v-5.7h-2.2v-2h6.5v2zm-3.5-18.7c-1-.6-1.9-1.6-2.5-2.8-.6-1.2-.9-2.8-.9-4.7 0-1.9.3-3.5.9-4.7a6.2 6.2 0 012.5-2.8 7 7 0 013.9-1 6.7 6.7 0 016.3 3.8c.6 1.2.9 2.7.9 4.6 0 2.1-.3 3.7-.8 4.8a6.6 6.6 0 01-2.5 2.9 7 7 0 01-3.9 1 7.5 7.5 0 01-3.9-1.1zm11 23.5c-.8.8-1.7 1.2-2.9 1.2a4 4 0 01-2.9-1.2 3.8 3.8 0 01-1.2-2.9 4 4 0 011.2-2.9c.8-.8 1.7-1.2 2.9-1.2 1.1 0 2.1.4 2.9 1.2s1.2 1.7 1.2 2.9-.4 2.1-1.2 2.9zm8.9 1h-2v-5.7h-1l-.5.2-.7.7c-.2.3-.2.8-.2 1.5v3.3h-2.9v-2h1v-1.8c0-.7.1-1.3.3-1.8.3-.7.7-1.2 1.4-1.6l1.4-.5 1.5-.1h1.9v7.8zm8.2-1c-.8.8-1.7 1.2-2.9 1.2a4 4 0 01-2.9-1.2 3.8 3.8 0 01-1.2-2.9c0-1.1.4-2.1 1.2-2.9s1.7-1.2 2.9-1.2a4 4 0 012.9 1.2c.8.8 1.2 1.7 1.2 2.9a4.8 4.8 0 01-1.2 2.9zm8.9-.2c-.3.5-.7.8-1.3 1l-1.4.2h-1.2v-2h1l.7-.1c.2 0 .3-.1.4-.3l.1-.2-.1-.3a.5.5 0 00-.5-.3l-.9-.1h-.7v-1.4h.7l.6-.1c.2-.1.3-.2.3-.5l-.1-.3-.2-.2-.3-.1h-.3l-.7.2c-.2.1-.4.3-.4.6-.3.1-.3.4-.3.6v4.5h-2v-4.2c0-.7.1-1.3.3-1.8a3.3 3.3 0 012.3-1.9l.9-.1c.6 0 1.1.1 1.6.3.5.2.9.5 1.1.9.2.3.3.7.3 1 0 .4-.1.7-.3 1-.2.3-.5.5-.9.6.3.1.7.2.9.4.2.1.4.3.5.6.2.3.2.6.2 1l-.3 1z"/><path d="M87 83.5l.6.4.4.1h.8l.4-.1.6-.4c.2-.2.3-.5.4-.9v-.1H89v.1l-.1.3-.2.2-.3.1-.3-.1-.2-.2-.1-.3v-.1h-1.1v.1c-.1.4.1.7.3.9zM93 88.3a1 1 0 00-.7-.3 1 1 0 00-.7.3c-.2.2-.2.4-.2.6l.2.6c.2.2.4.3.7.3.3 0 .5-.1.7-.3.2-.2.2-.4.2-.6 0-.2 0-.4-.2-.6zM82.9 84.5c-.7 0-1.4.3-1.9.8s-.8 1.1-.8 1.9.3 1.4.8 1.9 1.1.8 1.9.8 1.4-.3 1.9-.8.8-1.1.8-1.9-.3-1.4-.8-1.9-1.2-.8-1.9-.8zm1.1 2.7l-.3.9c-.2.2-.5.3-.8.3-.3 0-.6-.1-.8-.3-.2-.2-.3-.5-.3-.9l.3-.9c.2-.2.5-.3.8-.3.3 0 .6.1.8.3s.3.6.3.9zM93.1 87.8l.1-5.2v-.1h-1.8l.1 5.3zM89.8 84.5c-.3 0-.5.1-.6.3l-.3.5-1.2 2.3v-2.9h-1.5v4l.1.7c.1.3.4.5.7.5.2 0 .5-.1.6-.3l.3-.5 1.2-2.2v2.9h1.5v-4.1l-.1-.7a.8.8 0 00-.7-.5zM56.4 87.4a1.6 1.6 0 01-1.5 1.1l-.8-.2-.5-.5-.2-.6.1-.7.4-.4.7-.2.5.1.3.2-1.7 1.1-.1.1.5.9 2.9-1.8h.1v-.1a3 3 0 00-1-1.2c-.4-.3-1-.4-1.5-.4-.8 0-1.5.3-2 .8s-.7 1.1-.7 1.8c0 .8.3 1.4.8 1.9s1.2.8 2 .8a3 3 0 002.7-1.8v-.1l-1-.8zM50.6 85.2c-.3-.2-.7-.3-1.2-.3l-.6.1-.5.2h-.1v1.5l.2-.2c.2-.2.5-.3.7-.3l.7.2c.2.2.3.4.3.8 0 .3-.1.6-.3.8a1 1 0 01-.7.3c-.5 0-.8-.2-1-.5l-.2-1.1v-1.1l.1-.7.5-.7.8-.3h2v-1.5h-1.1l-1.2.1-1.2.4c-.5.3-.9.8-1.1 1.4l-.2 1.6v.9l.1 1.2a2.6 2.6 0 002.5 1.8c.8 0 1.4-.3 1.9-.8.4-.5.6-1.1.6-1.8 0-.5-.1-.9-.3-1.2-.1-.3-.4-.6-.7-.8zM42 85.8h-.3l-.3.1h-.1v1.4l.1-.1.2-.1h.3l.5.2.2.5-.2.4-.5.2a.8.8 0 01-.5-.2l-.2-.6v-2.9h-1.5v2.6l.1 1.2.5.7.8.5.8.1c.7 0 1.3-.2 1.7-.7.4-.4.5-.9.5-1.5s-.2-1.1-.6-1.4c-.5-.2-.9-.4-1.5-.4zM38.5 87.2l-.3-.2.3-.3.2-.7a1.4 1.4 0 00-.9-1.3l-1.1-.2-.6.1-.5.2c-.5.2-.8.6-1 1.1l-.2 1.2v2.7H36v-2.9l.1-.4.2-.3.6-.1.2.1.1.1v.1l-.1.2h-.8v1.1h1l.2.2v.2l-.2.1h-1.1v1.5h.9l.9-.1c.4-.1.7-.4.9-.7l.2-.7-.2-.7-.4-.3zM44.3 84.7h1.5v5.1h-1.5zM79.2 87.2l-.3-.2.3-.3.2-.7a1.4 1.4 0 00-.9-1.3l-1.1-.2-.6.1-.5.2c-.5.2-.8.6-1 1.1l-.2 1.2v2.7h1.5v-2.9l.1-.4.2-.3.6-.1.2.1.1.1v.1c0 .1 0 .2-.2.2h-.8v1.1h1l.2.2v.2l-.2.1h-1.1v1.5h.9l.9-.1c.4-.1.7-.4.9-.7l.2-.7-.2-.7c.1-.1-.1-.2-.2-.3zM72.7 84.8c-.5.2-.9.5-1.1 1l-.3.7-.1.7.1.7c.1.3.1.5.3.7.3.5.6.8 1.1 1l1.2.2h.8v-1.5h-.8l-.6-.1-.5-.4-.1-.6.2-.6.4-.4.6-.1h.8v-1.5h-.8l-1.2.2zM67.5 84.5c-.3 0-.5.1-.6.3l-.3.5-1.2 2.3v-2.9h-1.5v4l.1.7c.1.3.4.5.7.5.2 0 .5-.1.6-.3l.3-.5 1.2-2.2v2.9h1.5v-4.1l-.1-.7c-.1-.3-.3-.5-.7-.5zM60.6 84.5c-.7 0-1.3.2-1.8.7-.5.5-.8 1.3-.8 2.2v4.4h1.5v-4.3l.2-1c.2-.4.5-.5.9-.5s.6.1.8.3c.2.2.3.5.3.9s-.1.7-.4.9c-.2.2-.5.3-.8.3l-.4-.1-.3-.2-.2-.2v1.6c.3.2.7.3 1 .3.6 0 1.2-.2 1.7-.7a2.8 2.8 0 00.1-3.8c-.3-.5-1-.8-1.8-.8z"/></g></svg>
