<svg xmlns="http://www.w3.org/2000/svg" viewBox="0 0 424.9 348.9"><g fill="#fff"><path d="M424.9 76.5c-4.5 0-9 .1-13.5-.2-2.9-.2-3.9.9-3.5 3.7v2c0 10.2 0 10.1-10.2 9.5-2.1-.1-2.9-.7-2.8-2.9.1-3-.1-6 .1-9 .2-2.7-.9-3.3-3.4-3.4-10.3-.3-10.1-.4-10.4-10.9-.1-3.9.9-5.1 4.9-5 9.4.3 10.1.3 15.6 6.4 4.1-6.7 10.6-6.4 17.2-6.3h6v16.1zM424.9 279.3c-5.5 6.2-18.9 10.5-26 6.8-4.2-2.2-1-8.1-1.7-12.3-.4-2.5 1.4-2.5 3.2-2.5 2.7 0 5.3-.2 8 .1 3.4.3 4.7-.7 4.5-4.3-.3-7.1.2-14.3-.2-21.5-.2-3.9 1.1-5.1 4.7-4.6 2.1.3 4.3.2 6.5.3 1.1 10.1.2 20.1.5 30.2.1 2-.5 4 .5 5.8v2zM424.9 110.4c-13.3 0-26.5-.1-39.8.1-3.1 0-3.9-.9-3.9-3.9-.1-11.4-.2-11.4 10.9-11.4l32.8.2v15zM424.9 118.4l-5.5.2H385c-1.8 0-3.8-.4-3.8 2.5 0 7-1.6 14.5 6.4 18.8 1 .5 1.6 1.7 2.6 2.3 3.5 2.3 2.9 4.4-.2 6.2-7.8 4.7-10 11.6-8.8 20.3.3 2 .7 3 2.9 3l40.8-.3v-15h-25.5c2.6-4 6.3-6.2 9.3-9 1.7-1.7 2-2.6-.1-4.2-3.2-2.5-6.1-5.5-9.6-8.8h25.9v-16zM398.1 38.2c-3.6 0-5.1-.8-4.9-4.7.3-5.1.1-10.3.1-15.4 0-1.4 0-2.7 2-2.7s1.8 1.5 1.8 2.8c0 4.1.2 8.3 0 12.4-.2 3.2 1 4.2 4 3.8 1.1-.1 2.3-.2 3.5 0 3.5.5 4.6-.8 4.4-4.3-.3-4.8-.1-9.6 0-14.4 3.5-2.4 7.4-.9 11-1.1 3-.1 4-1.1 4-4.1-.3-12.2 1.3-9.7-9.5-9.9-5.8-.1-11.6-.1-17.4 0-2 .1-4.3-.3-6.5-.5h-4.3c-1.2.2-2.3.6-3.1 1.4-1 1-1.5 2.3-1.6 3.8v3.6c.2 2.3.6 4.8.6 7-.2 9.3-.2 18.6-.2 27.9 1.3 6.4 5.3 9.6 12.3 9.7l30.8.1v-15c-9.1-1-18.1-.5-27-.4zM424.9 233.4c-3.9-.7-8 1-11.9-1 .9-.9 1.9-1.4 3.1-1.3 6 .2 6.2-1.7 6.2-7.5v-28.7c0-2.3-.3-4.7 1.6-6.5.3.1.6.2.9.1l.1 44.9z"/><path d="M424.9 277.3c-1.7-1.5-1-3.4-1-5.2v-30.9l1 .1v36zM423.9 188.3c0 12.7-.3 25.4.1 38.1.1 4.8-1.3 6.7-6 6-1.6-.2-3.3 0-4.9 0-.1-10.8-.4-21.6-.1-32.4.1-3.9-1.1-4.7-4.8-4.6-7.8.3-15.6 0-23.4.1-2.5 0-3.4-.6-3.5-3.3-.5-11.9-.6-11.9 11.3-11.9h20.9c5.5.1 8.7 2.6 10.4 8z"/><path d="M408.9 212.5v9c-.2 7-4.6 11.5-11.5 11.9h-5.5c-11.2 0-12.6-1.8-10.7-13.1.4-2.1 1.5-2.3 3.1-2.3 3.2 0 6.3-.1 9.5.1 2.7.1 3.5-1 3.4-3.5-.1-3.8.2-7.7-.1-11.5-.2-3.1 1-4.3 4-3.9h3c3.8-.6 5.5.7 5 4.8-.5 2.8-.2 5.7-.2 8.5zM393.3 264.4c0 6.3-.1 12.6.1 19 .1 2.9-1.2 3.5-3.6 3-4.2-.9-7.5-3.1-8-7.7-1.2-11.8-.3-23.6-.5-35.4 0-1.8 1.1-2 2.6-2.2 9-1.1 9.4-.7 9.4 8.4v14.9zM288.9 84.5c1.3.2 2.5-.4 2.7-1.7.3-1.6-.9-2.3-2.4-2.5l-2-.3c-3.2-.4-5.5-1.2-6.4-5.3-.8-3.9 1.3-4.9 3.5-6.5l2.3-1.9c1-.9 2.1-2 .9-3.4-1-1.2-2.5-1.1-3.6-.2-7.3 6.2-16.7 9.2-23.8 15.6v2c3.4 1.3 7 1.8 10.6 2 2.1.1 5.2-.3 6.3.9 3.8 4.4 8 .8 11.9 1.3zm-19.2-6.8c1.9-1.4 3.5-3.5 5.9-2.9.5.1 1.2 2.8.9 3-2.1 1.5-4.4.5-6.8-.1zM300 56c-2.2 1.1-2 2.8-.9 4.9 5.5 11 10.9 22 16 33.2a125.6 125.6 0 0112.3 39.7c1 10.1-2.6 17.7-10.8 22.2-.9-4.3-3-7.6-7.1-9.6-7.9-3.9-21.4-1.4-27.2 5.2-4.2 4.7-3.7 11.1.9 15.5a22.2 22.2 0 0016.4 6.5c.4 1.3-.4 1.8-.8 2.5a82.8 82.8 0 00-15.4 33.2c-1.4 6.3-3.5 11.1-10 13.2-2.9.9-3.4 2.7-1.6 5.3.9 1.3 2.4 3.7 1.9 4.3-3 3.9.1 6.7 1.5 9.5 1.5 2.9 2.1 5.8 1.9 9.1-.4 7.3-1.9 14.6-.6 21.9.6 3.1 0 5.3-1.9 7.7-2.4 2.9-4.7 6-4.2 10.2 2.9-4.5 5.5-9.1 8.9-13.1 4.2-4.9 5.9-5.1 8.9.7 5.9 11.3 12.3 22.4 15.6 34.9.2.9-.3 2.6 1.8 2.2.6-2.2-.5-4.2-1.1-6.2a169.5 169.5 0 00-13.5-30.5c-1.4-2.4-2.4-5.1-5.4-6.2-2.6-1-4.5 1-6.7 2.1-1.8-8-.3-15.4.1-22.9 4.1 3.9 4 3.8 7.1-1.2l7.3-11.9c.8-1.2 2.1-2.7 1.2-4.1-2.5-3.9-4.5-8.7-8.7-10.5-3.3-1.5-3.4-3.2-2.9-5.7 3.1-14.9 8.2-29 17.7-41.3 1.8-2.3 3.6-4 6.4-5.2a14 14 0 008.8-9.5 7.7 7.7 0 013.2-4.3c6-4.7 9.8-10.6 10-18.8 4.3 5.9 4.3 7-.2 12.1a115 115 0 00-24.8 39.3c-1.1 3.2-2.2 5.7-6 6.2-1.7.2-3.2 1.3-3.2 3.2 0 1.9 1.2 3.3 2.9 3.5 2.2.3 2.2 1.6 2.2 3.1l2.1-1.9c3.7-2 7.1-.1 10.5 1l9.2 3.2-20.8 5.4a7.8 7.8 0 00-1 5.6c11.3-1 21.6-6.4 32.9-7.4 3.1-.3 3.6-3.5 1.2-5.5-2.4-2-5.4-2.5-8.2-3.2-4.8-1.2-9.7-2.3-14.6-5.1 5.1-1.8 9.5-3.2 13.8-4.9 1.9-.7 4.7-1.6 3.5-4.4-1.2-2.8-3.4-1.4-5.5-.6-5.6 2.1-11.2 4.3-17.2 5.4l-.1-1c4.8-17 15.9-30.1 27-43.1 1-1.1 1.6-.3 2.5-.2 4.9.2 8.9 4.3 14.6 2.3 3.8-1.3 4.1-2.3 2.7-5.3l-9.4-20.3c-2.7-5.9-2.7-5.9-8.1-3-1.6-4.4-3-8.8-4.7-13.1-7.3-18.1-17.6-34.6-27.2-51.5-.7-1.4-.5-4.2-3.2-2.8zm-20.1 170.3c-.2 1.8-1.6 3.4-3.1 3.5-1.8.1-2.1-2.2-2.8-3.6-1.2-2.1.8-2.5 1.9-3.2l4.5-2.6-.5 5.9zm24.6-59.5c-4.8 2.5-9.9 1.7-12.8-1.9l-.3-.4c-3.3-1.9-6.5-4.8-4.9-8.5 1.8-4.1 6.4-5.4 10.9-5.7l2-.2c6 0 9.6 2.2 10.6 6.2 1.1 4.2-1 8.2-5.5 10.5zm32.8-20.3c-.4.4-1.5.7-1.7.4-1.2-1.4-.4-2.7.9-4.4.6 1.5 2.4 2.4.8 4zm-4-11.2c2 2.2 1.4 4.5-.2 7.9-.6-3.2-3.5-4.8-1.6-7.6.5-.6 1.3-.9 1.8-.3zm-24.4-62.8c8.8 14.8 16.8 30 22.9 46.3 1.8 4.8-.7 8.8-.2 13.1 0 .3-.9 1-1.5 1.1-.8.2-1-.6-1-1.3-2.5-21-12.8-39.2-21.2-58.1l-7.2-13.4 1.1-.6 7.1 12.9zM329.7 306c-3 3.9-2.1 8.5-.1 12.8 1.7 3.6 4.3 4.3 7.8 2.9.3-.1.9.4 1.3.6a20.3 20.3 0 0018.1-2.1c5.4-3.2 9.1-10.8 7.7-16.1-1.6-6.1-6.9-9.7-17-9.8-6.1.5-12.7 5-17.8 11.7zm28.8-.5c1.1 4.2-1.8 7.5-5.4 9.7-5.8 3.6-9.9 3.2-15.1-1.4-4.8-4.2-4.7-5.1.6-9 5-3.7 7-4.6 11-4.7 3.3.3 7.8 1.1 8.9 5.4z"/><path d="M320.9 136.8c-.4-1.3-1.6-1.7-2.8-1.6-1.1.2-2.3.5-3.3 1-2.1 1.1-3.1.6-3.8-1.8-1.8-6.5-3-13.2-5.7-19.9 2.3-.4 4-.4 5.6-1 1.9-.7 2.7-2.2 1-3.8-2.3-2.1-10.5 0-11.1 3-.6 3.5-2.9 5-5.5 6.5-5.7 3.4-11.9 6-17.2 10-1.6 1.2-2.6 2.6-1.6 4.7.9 2.1 2.5 2.2 4.6 1.8 7.8-1.6 15.5.1 23.2.7.9.1 1.4.6 1.9 1.3 3.9 5 8.9 5.5 13.6 1.3.8-.4 1.4-1.2 1.1-2.2zm-23.4-6.1c-3.1-.5-6.4-.1-9.6-.1l-.2-1 12.2-7.1c1.3-.8 2.1-.6 2.5.9l.5 1.4c1.8 7.3 1.8 7.1-5.4 5.9zM321.1 276.1c-3.3 4.2-1.3 14.5 2.7 14.9 6.1.6 12.1 3.1 18.5 1 8.4-2.7 13.9-9.9 12.8-17.2-.9-5.9-6.6-9.7-16.8-9.8-5.8.6-12.2 4.9-17.2 11.1zm23.1-4.6c5.5 1.9 6.7 5.6 3.3 10.3a14.3 14.3 0 01-10.6 5.5c-5.3 1.2-7.3-4.7-11.7-5.5-.6-.1 0-1.4.3-2.2 2.5-5.5 13-10.1 18.7-8.1zM313 248.1c-3.3 4.3-1.2 13.9 3 14.1 5.5.3 10.8 2.6 16.6 1.2 8.4-2 14.3-8.4 13.7-15.9-.4-5.8-6.3-10.1-15.4-10.2-6.5.9-13.1 4.5-17.9 10.8zm18.9-5c.4 0 1.4 0 2.4.3 2.6.7 5.4 1.5 6.2 4.4.8 2.9-1.1 5.1-3 6.9-5.1 4.9-10.7 4.9-16.8.2-4.3-3.4-4.3-4.2.3-7.4 3.1-2.1 6.1-4.6 10.9-4.4zM299.4 108.6c1.7 0 3.6-.1 3.6-2.4s-2-2.4-3.6-2.6c-3.7-.5-7.4-.2-10.9.8-5.4 1.6-5.1-2.7-5.8-5.6-1.1-4.1 2.6-2.8 4.3-3.3 2.4-.7 4.9-.9 7.3-1.5 1.2-.3 2.7-.9 2.2-2.7-.4-1.5-1.4-2.2-3-2-4.5.8-9 3.2-13.6.2-.3-.2-1.7.6-1.9 1.2-1.1 2.4-3 2.6-5.3 2.8-2.3.2-4.6.8-6.8 1.3-1.5.3-2.3 1.3-1.9 2.9.4 1.8 1.7 1.8 3.1 1.5 2.1-.4 4.3-.6 6.3-1.3 2.7-1 3 .3 4.1 2.4 2.4 4.9 1.3 7.3-4 8a11 11 0 00-3.3 1.2c-1.5.8-3.9 1.1-3 3.7.9 2.6 3 1.4 4.6.8 8.9-3.3 18-5.5 27.6-5.4zM300.2 214.4l1.1-1.1.8-7.5c-.6.3-1.1.7-1.9.5-.9 7.6-2.1 15.2-2.5 22.9-1.3 23.6-1.2 47 8.1 69.6 6.4 15.6 13.3 31.1 16.9 47.7.2 1 .5 2 2.1 1.6.6-1.2 0-2.5-.2-3.7-3.1-13.8-8.9-26.7-14.1-39.8a133.8 133.8 0 01-11.2-49.2c0-12 .5-23.9.9-35.9-1.2-1.6-.7-3.3 0-5.1zM336.3 338.6c-1.3.7-2.7 1.4-2.5 3.2-.1 3.2 2 4.7 4.7 3.2 5.1-2.9 10.5-4.8 15.9-7.1l15.1-6.4c1.9-.8 3-2.2 1.9-4.3-.8-1.6-2.2-2.7-4.1-1.8-10 4.9-21 7.8-31 13.2zM280.6 321c-.1-1.2-.7-3.1-2.3-2.7-4.2.8-5.6-1.5-6.5-4.9-.8-3-2-6-1.5-9.2.1-1 .9-1.9 2-2 1.4-.2.2 1.9 1.8 1.9.7-2.9-.3-5.2-3-5.5-2.7-.3-3.7 2.1-4.2 4.5-1.2 5.8 1.9 10.5 4 15.5 1.3 3.3 3.8 4.5 7.2 3.7.9-.2 2.7.5 2.5-1.3zM296.6 340.5c-.3-1.4-1.2-3.1 1.4-3.1v-.9a69.3 69.3 0 01-13.7-9.7c1.5 4.3 5.6 6.1 8.4 9.1 3 3.1 1.2 8.4 3.8 13 1.1-3.5.5-5.9.1-8.4zM298 337.4c2.6 1.3 6.2 3.3 7.7-.2 2.2-5.2 2.5-11 .4-17.5-1.4 2.5-.9 4.3-.9 6-.1 1.8 0 3.7-.2 5.5-.6 5.4-1.7 6.2-6.9 5.3.2.3.2.6-.1.9zM282 317.3c2.9 8.4 13.4 8.9 22.6 1.4-8.1 1.4-15.5 7.5-22.6-1.4zM283.4 278.4c-1.1-.3-1.4.5-1.5 1.3-.1 1-.1 2.1 1.3 2.1.8 0 1.4-.7 1.5-1.7-.2-.6-.4-1.4-1.3-1.7z"/><path d="M301.7 213.1c2.3-1.5 5.3-1.5 7.8-2.3 2.3-.8 4.8-1.2 7.2-2.5-4.5-1-8.4-4.3-13.5-3l-.5.2c1.1 2.7.3 5.1-1 7.6zM301.2 213.4l-.1.6.5-1c0 .2-.2.3-.4.4z"/><path d="M302.8 205.5l-.5-1.1-.2 1.4.7-.3zM307.9 73.7l1-1.2c-.9-.1-1.5 0-1 1.2z"/></g></svg>
