<svg xmlns="http://www.w3.org/2000/svg" viewBox="0 0 156 25"><title>antiga</title><path d="M90,24h3V0H90Zm25.59-9.59h6.47v3.5a9.78,9.78,0,0,1-3.36,3.22,9,9,0,0,1-4.44,1.08,8.74,8.74,0,0,1-6.61-2.74,9.66,9.66,0,0,1-2.62-7,9.7,9.7,0,0,1,2.62-7,8.74,8.74,0,0,1,6.61-2.75A9.28,9.28,0,0,1,119,4a8.12,8.12,0,0,1,3.22,3.35l2.47-1.78a11.62,11.62,0,0,0-4.41-4.12,12.43,12.43,0,0,0-6-1.45,11.83,11.83,0,0,0-8.78,3.53,12.27,12.27,0,0,0-3.48,9,12.28,12.28,0,0,0,3.47,9A11.81,11.81,0,0,0,114.26,25a12.29,12.29,0,0,0,6.26-1.59A12.15,12.15,0,0,0,125,18.84V11.67h-9.41ZM60,3.76H70V25h3V3.76H83V1H60ZM50,1h3V25H51.49L36,7.06V25H33V1h1.55L50,18.94Zm88,15h10L143,5Zm-8,9L141.7,1h2.47L156,25h-3.22l-3.25-6.46H136.34L133.18,25ZM8,16H18L13,5ZM0,25,11.7,1h2.47L26,25H22.78l-3.25-6.46H6.34L3.18,25Z" fill="#fff" fill-rule="evenodd"/></svg>