<svg xmlns="http://www.w3.org/2000/svg" viewBox="0 0 1180.09 590.52"><title>asia</title><path d="M567.55,422.07l1.92-4.3,1.91-2.87,1.44-3.35,1.43-1,1-3.83,1.43-2.39v-6.7l1-1v-.48l-1.43-1.43-1-2.87v-4.31l-1.44-1v1.44c-.95,0-1.43-.48-1.43-1l-2.4-1.43a3.37,3.37,0,0,1-1.43-1.44h-1l-2.39-1.44h-3.35c-.48,0-1,0-1.44-1.43l-2.87,1a10,10,0,0,1-1.43.47s-1,0-1.92-1.43l-1.91-.48c-.48,0-1.92,1-3.35,2.87l-1.92,1L545.54,380l-1.92,1a2.81,2.81,0,0,0-2.39,1l-1,2.39v7.18l-.47,4.3-.48-.47v3.82l1.43,3.35v8.62l-.48,3.35-.95,1.91c0,1.44,0,2.87-1,3.83h.48l.48-1,1.43,1.92V446l-1,.48v1.91h1.43l1-.95,1.43-1,1,.48h1V445c1,0,1.91-.47,3.35-1.91h1.43l2.4-3.83,2.39-3.35,9.09-10.05Z" fill="#fff"/><path d="M500.56,468.49l-.48-3.35-1-3.35v-7.17h-1.44l-.95-2.4v-2.39l-1-3.35-1.44-3.83v-2.39l-1.43-7.18-.48-4.31,1-.95a1.53,1.53,0,0,0-1.44-1.44,3.08,3.08,0,0,1-1-2.39l-1-3.35-.48-3.83-.48-2.39-1-3.35-1.43-4.31-.48-5.26-1-2.87c0-1.92-.95-3.35-1.43-4.79l-1.44,2.87a24.08,24.08,0,0,0-.48,5.74l-2.39,6.7-2.39,10.53-1,4.79c-.48,0-1,.95-1,2.39-.48,2.39-1.43,4.79-2.39,4.79v2.87l-.48,1h-1.43v1l.95,1.44-1.91,7.65c-1.44,5.75-2.39,9.57-3.83,11v2.87l-1,3.83-.95,4.78-1,2.4-.48,2.39-1.43,4.79-.48,3.35-.48.47,1.43-1,1,1h1.44l.47,1.92,2.4-1h3.83l3.35,1.44,2.87.95c0,1.92.95,2.87,1.91,2.87l2.87-2.87,1.44.48h2.39l1,.48h3.83l.95.48,2.87-1h1.92l3.83-.95h3.35l.48-.48v-5.75l-1.44-2.87Z" fill="#fff"/><path d="M728.5,304.81l410.43-31.08L1137,262.24l-221.09,12L991.06.48,169.4,0l70.83,257.46,333.09,32.37-524-50.56,1.44,32.06,372,30.52L0,324.45l1.44,35.41,586.88-44.44,5.07.42L263.2,340.72l68.43,249.8H829.31l68.91-250.75,281.87,23V348.38Zm-33.66-60.27v-4.79l1.92-3.83-1-2.87,4.31-.48L703,229.7c2.39-1.91,4.31-4.79,4.78-9.57,3.35-1.44,4.79-4.79,5.75-9.09,3.83-3.35,6.22-9.57,7.65-17.23L724,191.9l8.14-19.15V167a14.26,14.26,0,0,1-2.87-5.74l4.78-6.7V151.7l5.27,1,3.35-2.88.48,1.44,3.35-6.7c-1,0-1-1-1-1.91l3.35-4.79,1,2.39c0-2.87,1-6.7,2.39-11l-1-1h2.87l1-4.79c1.91-.95,2.87-1.91,2.87-4.78v-3.83a25.79,25.79,0,0,0,5.74-14.36v-.95l2.88-1,1-4.79L769,92.36l2.39-8.14,1.91,1.92-1.43-3.83c2.39-.48,3.83-2.87,3.83-7.66l1.91,1.44V68.43h1.44V63.17l2.87-3.83a14.24,14.24,0,0,0,2.39-8.61l2.87-4.31-1.43-5.74q2.87-7.18,5.74-7.18H792l1.43-3.83L795.34,34l1.91,2.39,3.83,3.35.48,9.57C803,50.73,804,53.6,804.91,57l1.91,1.43v8.14L808.74,78l3.35,9.09L814,99.54l.48,8.13,3.35,7.18-1,3.35,2.87,4.79v10.52l-.48,4.79c2.4,8.61,4.79,13.4,8.14,13.4l4.79-1.44h5.26l4.31,1a6.65,6.65,0,0,0,4.78-2.39l1.92-1.92,4.78,3.35,4.77-.47c0-.16,0-.32,0-.48v.47h0c-.07,1.67-.54,2.91-1.42,3.34l-3.83-1.91L848,156.48l-4.79-.95a7.76,7.76,0,0,1-6.7,3.35,4,4,0,0,0-3.35,1.91,9.48,9.48,0,0,0-5.26-1.91c-1.92,0-2.87,1-3.35,2.87,0,1.43,1,2.39,1.91,3.35l-1,3.83,1,13.39,2.87,7.18.48,7.18,5.27,12.44-.48,5.27,3.35,5.74L843.19,235c2.87,5.75,4.79,9.58,4.79,11.49l4.78,3.83,1.44,6.22,1.91,1.91-3.35,3.83-3.83-4.78h-2.39l-2.87-4.31h-2.39l-2.39-6.7L837,244.54a106.35,106.35,0,0,0-6.22-14.36v-3.35l-2.39-3.35v-6.22L824.53,211l-4.79-19.14-1.91-3.35-.48-9.58c0-1.43-1.44-4.3-3.35-9.09v-8.13h-2.39l-3.35,3.35-4.79-1.44L800.12,167l-1-1.91L796.29,168l-.47-2.87a3.12,3.12,0,0,0-2.4,1,6.33,6.33,0,0,1-3.82,1.44l-3.35-.48h-3.83l-3.83,4.79-4.79-1.92-5.74,1v1.44l-1.91-1.44-2.87,2.39-1.92-2.39h-3.83l-4.3,2.39L750.35,168l-1.43,1.91L745.57,168c-2.87,1.91-6.7,8.13-11,19.62L730.73,189,720.68,213l-2.39,1.92-6.7,14.35h-1l-5.75,14.36-6.22,6.7-4.78-1.92Zm-33.49-133,.95-5.26-.95-1.92.95-4.78v-6.7l.48-2.4-1.43-1,.95-9.09c-1.43,0-2.39-1-2.87-2.88h2.87l.48-6.22-1.43-.48L662.3,66a7.69,7.69,0,0,0,2.4-5.27A9.19,9.19,0,0,0,662.78,55l1.92-1V50.73h1.91l1.44-5.27L670.44,44c3.35,0,5.74,2.39,6.22,6.22l-1,.48-1.43,5.74,1.43,1.43L675.22,66l-.48,3.83.48,4.78v4.79l-1,2.39,1,1.91-1.91,7.18,1,6.7-3.83,12,1,1-.48,4.79V122l-2.4,1.91,2.88,9.57h-1.92l1,3.35-1.92,4.79,2.4,6.7-.48,2.87H669c-.48,0-1,1-1,2.39a8.59,8.59,0,0,0,3.35,7.18c-1.92,1.44-2.88,4.79-2.88,11v4.3l1,5.75-1.43,4.78V201l-.48,10L670,213l-1.44,5.74-.47,3.83c0,1.92,1,4.79,2.39,7.66l-1.44,1,2.87,4.78-1,3.35,3.35,1.92a25.51,25.51,0,0,1-2.87,9.09c-1.44-1-1.92-2.39-1.92-4.79l-3.35-7.18-1.91-.47.95-6.7-3.82-6.7,1.43-3.83-1.91-5.74.48-8.14-1-3.83-1-2.87,1.92-4.78-1-4.79,1-3.83-2.88-3.83,2.4-5.74V151.22l1.43-20.1ZM458,149.78h0c-.08,1.67-.55,2.91-1.42,3.34l-3.83-1.91-4.78,5.26-4.79-.95c-1.91,2.39-3.83,3.35-6.22,3.35a4.28,4.28,0,0,0-3.83,1.91,9.48,9.48,0,0,0-5.26-1.91c-1.92,0-2.87,1-3.35,2.87,0,1.43.95,2.39,1.91,3.35l-1,3.83,1,13.39,2.87,7.18.48,7.18L435,209.12l-.48,5.27,3.35,5.74L443.13,235c2.87,5.75,4.79,9.58,4.79,11.49l4.78,3.83,1.44,6.22,1.91,1.91-3.35,3.83-3.83-4.78h-2.39l-2.87-4.31h-2.39l-1.92-6.7-2.39-1.91a67.67,67.67,0,0,0-6.22-14.36v-3.35l-2.39-3.35v-6.22L424.47,211l-4.79-19.14-1.91-3.35-.48-9.58c0-1.43-1-4.3-3.35-9.09v-8.13h-2.39l-3.35,3.35-4.79-1.44L400.06,167l-1-1.91L396.23,168l-.48-2.87a3.75,3.75,0,0,0-2.39,1,5.43,5.43,0,0,1-3.83,1.44l-2.87-.48h-4.3l-3.83,4.79-4.79-1.92-5.74,1v1.44l-1.91-1.44-2.88,2.39-1.91-2.39h-3.83l-3.83,2.39L350.29,168l-1.43,1.91L345.51,168c-2.87,1.91-6.7,8.13-11,19.62L330.67,189,320.62,213l-2.39,1.92-6.7,14.35h-1l-5.74,14.36-6.22,6.7-4.78-1.92.95-3.82v-4.79l1.92-3.83-1-2.87,4.31-.48,2.87-2.87c2.39-1.91,4.3-4.79,4.78-9.57,3.35-1.44,4.79-4.79,5.75-9.09,3.82-3.35,6.22-9.57,7.65-17.23l3.35-1.91,7.66-19.15V167c-1.44-1.43-1.92-3.35-2.87-5.74l4.78-6.7V151.7l5.27,1,3.35-2.88.47,1.44,3.35-6.7c-.95,0-.95-1-.95-1.91l3.35-4.79.95,2.39c0-2.87,1-6.7,2.4-11l-1-1h2.87l1-4.79c1.91-.95,2.87-1.91,2.87-4.78v-3.83a25.35,25.35,0,0,0,5.74-14.36v-.95l3.35-1V93.79L369,92.36l2.39-8.14,1.91,1.92-1.43-3.83c2.39-.48,3.83-2.87,3.83-7.66l1.91,1.44V68.43H379V63.17l2.87-3.83a14.24,14.24,0,0,0,2.39-8.61l2.87-4.31-1.43-5.74q2.87-7.18,5.74-7.18h.48l1.43-3.83L395.28,34l1.91,2.39L401,39.72l.48,9.57c1.43,1.44,2.39,4.31,3.35,7.66l1.91,1.43v8.14L409.15,78,412,87.09l1.91,12.45.48,8.13,3.35,7.18-.48,3.35,2.39,4.79v5.74l.48,4.78a9.46,9.46,0,0,1-1,4.79c2.4,8.61,4.79,13.4,8.14,13.4l4.78-1.44h5.27l4.3,1c1.92,0,3.35-1,4.79-2.39l1.91-1.92,4.79,3.35,4.77-.47c0-.16,0-.32,0-.48Zm104.8,94.76-6.7-.48-4.31,3.35-2.39-1-1.44-1c-1,0-1.43.48-1.91,1.92h-7.66L536,245l-1.44,2.4-11.48-1L517.78,245,514,246.93c-1.91,0-3.82-1.44-6.69-4.79l-3.83,2.4L502,242.62H499.6a18,18,0,0,1-8.62-2.39l-4.78-2.39-1.44.47-8.61-9.57-4.79-1.91a44.09,44.09,0,0,1-5.74-17.71l1.44-11H469c1.44,0,2.39-1.44,2.87-4.31l3.83-1-1.91-.95,2.39-.48c1.44-2.4,2.39-3.83,3.35-3.83,1.44,0,2.39,2.39,2.39,7.18-1.91.48-3.83,2.39-5.74,4.78a4.36,4.36,0,0,1-1.44,3.83l-2.87,2.87.48,1.92v7.17a33.55,33.55,0,0,1,7.18,10l3.35,1,4.78,3.83,3.83-1v-1.91l6.22.48-1.43,1.43,4.78,1.44,1,2.39h11v1a3.6,3.6,0,0,1,3.35-1.92l1.91,1,5.27,1,.47,2.39h6.7l2.4,1.91-1-1.43,5.26-2.39a2.44,2.44,0,0,1,2.4,1.91,7.58,7.58,0,0,1,4.78-2.39l5.74,1.43c1.44-.95,2.4-1.91,3.83-1.91l3.35,1.91,8.62-3.83,1.43-3.82,7.66,1.43,5.74-1.91-1-.48,8.14-1.44,1-.95H591l5.74-3.83,1.44.48v-1.44H602v-1a3.51,3.51,0,0,1,3.82-3.82h1.92l1-1.44-1-1.44,2.87-3.35c1.91,0,2.39-.95,2.39-2.87,2.4-4.78,3.35-8.13,3.35-9.57,0-6.22-6.22-13.4-18.18-21.53l-10.53-7.18c-2.87,0-6.7-1.44-11.48-4.79-2.4-2.39-4.79-4.3-8.14-4.3l-4.79.95-1-2.87-3.35,1.92-2.87-4.79-3.35,1.44-6.7-5.27h-4.79l-2.39-3.35H535l-1.91-4.3v2.39h-2.87l-3.35-6.7c-7.66,0-12.45-2.39-14.36-6.7l-2.87,1.44-1.44-6.22-3.83-6.7-4.78-15.32,1-12,3.82-8.14c1.44-1,2.4-3.35,2.88-6.7l5.74-4.3a1.52,1.52,0,0,0,1.43,1.43l2.4-5.26.95,2.39V69.39l9.1-4.79-2.4-.95h1.92c2.87,0,4.78-1,4.78-3.83A29.49,29.49,0,0,0,543.62,57l-1-1.44,1.91-1c1.44,0,1.92,0,2.39,1l-.47-1.43,1.91.47c1.44,0,2.39-.95,2.87-3.35h4.31v1.44l3.35-1.91h1.43l14.36-2.4.48,2.4V47.85l3.35-3.35c.48,2.88,2.39,3.83,4.78,3.83h1A13.51,13.51,0,0,1,592,50.25l-1.92.48c3.35,0,7.66,1.43,13.4,4.78,5.27,2.39,8.14,7.66,8.14,14.36q0,7.17-5.75,8.61l-1-3.35-8.14-4.78h-3.35L591,65.56l-4.79,1-1.91-2.4L582.39,68,579,64.12l-7.18,1.44-8.14-3.83-2.39,2.39c-4.79,0-7.66,1-8.61,1.92H550.8c-.95,0-2.39,1-3.35,2.87l-5.26.48L527.35,79l-3.82-1.91-5.27,6.69h-3.35l-2.39,5.75-5.74,6.22-1,1.91,1.44,10.53,2.39,1.91,1,3.83,3.83,1.92,2.4,2.87,6.7,4.78.47,1.92h5.75l6.7,7.65,2.87-1.43a17,17,0,0,1,5.74,4.78q2.87,2.88,4.31,2.88l2.39-1.44v2.39l8.13,1,2.4,2.87v-1.43h1.43l3.83,3.82c4.31,0,7.18,1,8.62,2.4H580c1.92,0,3.35.95,4.79,2.87,1.91,2.39,2.87,3.83,3.83,3.83l2.87-1.44,1.43,1.44h3.35l6.7,7.65,6.22,1.44v.48l1.92,4.78,8.13,10.53c2.4,2.87,3.35,9.09,3.35,17.71v5.74c0,1.91-.47,4.78-2.39,9.57A31,31,0,0,1,613,223a2.61,2.61,0,0,1-2.87,1.91h-1c-1.91,3.83-4.78,5.27-8.13,5.27a13,13,0,0,1-4.31,5.74l-4.78-.48-4.31,5.75-1.91-1.92-2.88,1.92c-3.82,0-5.26.47-5.74,1.43l-7.18-1.43C566.59,243.58,564.2,244.54,562.77,244.54ZM429.25,546c-1.43,2.39-3.35,3.83-4.78,3.83l-1,.47-1,.48-.48-.48.48-6.7v-5.26a3.51,3.51,0,0,1,1-2.87V533.1a10.6,10.6,0,0,1-1.44-6.22l1-7.18-1-6.22V495.77h.48v-3.83l-.95-1.43-1-4.79V475.67l.48-3.83v-5.26l-1-1.44V440.26l2.87-2.87-3.35-1.92.48-1.91c0-2.39,0-3.83-1.44-4.79a2.21,2.21,0,0,1,1.44-2.39l2.39-1-3.35-4.3v-4.79l-.95-2.39-1,2.39-.48,4.31v2.87l-1.44,1.91v1l-.95,4.79-.48,3.83-.48,3.34-.48,3.35-1,2.88v2.87l-1,1.43v3.83l-1.92,9.57L408.2,468l-1,1.92v2.87l-1,1a25.45,25.45,0,0,1-.95,7.65l-1,1.44v2.87c0,2.87-.48,5.74-1.92,7.66v2.39l-.95,3.83-1,4.78-1.44,6.22V514l-1,2.88-1,2.87v1.91c-1,1.44-1,3.35-1.44,4.79l-2.39,14.35H391l-1-1-1.91-8.14-1.44-4.78-1-4.79v-3.35h-1.44q-1.69-11.92-2.87-23.93a3.08,3.08,0,0,0-1-2.39l-1,1-1.43-4.79-1-4.3v-1.44l-.48-2.39-1.43-7.18-1-1-1.44-7.66-1.91-9.57h.48v-3.35l-1-2.87-1-4.78H368l-1.91-11.49v-1.91l-1.44-2.39v-2.4l-.48-3.35a14.42,14.42,0,0,1-1-4.3l-.47-3.35h-.48c-1-4.79-1.92-6.7-2.4-6.7h-1.43l.48,5.26v8.61l.48,4.79v13.4l-.48,1v3.35l-.48.47v2.4c1,0,1.43.95,1.43,1.91V469l-.95,2.39v5.75l-.48,2.39,1,4.31v2.39l-.48,3.83v1.91a153.6,153.6,0,0,1-1,22.49c-1,1.92-1.91,3.35-1.91,4.79l.95,2.87,1-2.39.48.48V525c0,1.44,0,2.39-1.44,3.35a3,3,0,0,0-1.91,2.87l1.43,1.92,2.4,1.91v4.79l-1.44,1.43v2.87L355.08,546l-1.44,1.91-2.87,2.39-.48-.47v-1a14.29,14.29,0,0,1,2.4-6.22c.95-1,1.43-1.44,1.43-2.4l1-2.87v-1.91l-2.87-4.79v-1l1-4.31V507.73l1-7.17-.48-5.27h.48a5.16,5.16,0,0,0,1.44-3.35l-1-1.91V479.5q.12-4.06,0-8.14l1.44-.95V469l-.48-1.91-.48-3.35,1-1.44V459.4l-1-2.87L358,452.7l-2.87-2.39,1-7.18c0-2.39-.48-3.35-1.44-3.35l.48-4.78v-5.27a174.58,174.58,0,0,1,0-19.14l-1-2.87v-1.44l.48-5.26v-2.39h-.48v-7.18l.48-4.31-.48-4.78c-.48,0-1,0-1.43-1l.47-2.39,2.88-5.75,3.35-4.78h.95a50.8,50.8,0,0,1,2.4,9.57l.95,1.43v3.35l1,4.79c-1.91.48-2.87,1.44-2.87,2.39s1,1.92,1.91,2.87l1.44-1.91,1,7.66,1,2.87v3.35a4.56,4.56,0,0,0,1,3.35,38.31,38.31,0,0,0,.48,4.78v1.92l1.43,3.82a3.56,3.56,0,0,1-1.43,3.35l.95,4.79,1.44-2.39h1v3.35l.48,2.39a64.52,64.52,0,0,1,2.87,13.4v2.87h-1v2.87l1-.48.48.48.47,3.83,1,.48,1,4.78,2.39,10.05.48,2.87,1.44,7.18v3.83l.47,1.92,1,1.91,1,.48.48,5.74.95,1L388.1,502l1.91,9.57,1,2.87,1,3.83h.95l1.44-4.78,1.43-5.75v-2.39l1-2.87V499.6l1.92-5.74,1.43-1.92.48-1.91-.48-3.83,1-2.39v-2.87h1.43l.48-1.92v-6.7l2.4-11.48.47-5.75,1.44-2.87v-2.87l1.91-10.53,1-6.22,1-6.22c0-1,.95-1.43,1.91-1.43l-1-4.79v-.48l.48-3.83v-1.91l4.79-14.84v-4.3l1.43-3.83,1.92-3.35.48-1c0-1-1.44-1.43-3.83-2.39h-1L414.9,380l.47-2.87,1-1,1.44-1.91,1.43-1.44,2.4-2.39L424,369v6.7l.48,2.39v22H424c-.48,0-1,0-1,1a2.63,2.63,0,0,0,1.44,2.39l-.48,2.87v.48h.48v6.7l.95,7.66-.95,4.78v5.27h1.43l.48.48v28.23l.48,2.39V468h-1.44v3.83a2.14,2.14,0,0,0,1.44,1.92v4.3l1,7.18V490l.48,1-.48,4.79v2.39l1.43,2.4v10l-1.43,1v3.83a.94.94,0,0,0,.95,1l1,3.35v3.35l.48,1.91q.36,8.14,1,16.27Zm94.28,2.39v1.44l-2.4,1.43H519.7l-2.87,2.87L515.39,546a9.46,9.46,0,0,0-1-4.79l-.95-7.66v-1.43l-1-2.87v-7.66l-1-2.39.48-1.92.48-1.43v-1.44l-1.92.48a39.5,39.5,0,0,1-2.39-11l-.48-3.35-1-7.18c-.48-2.4-1.44-3.35-2.4-3.35s-1.43,2.39-1.91,7.18c-.48,0-1,0-1.44-1-.95-1.44-1.91-2.39-2.87-2.39l-1.43-1.44c-1.44-1.44-1.92-1.91-2.87-1.91l-2.4.95h-8.61l-1,.48-2.39-1.43-1.44.95-1.43-.95-2.39.95-2.4,1-.95-3.35L468,491.46l-1.91,1h-1.91a4.9,4.9,0,0,0-2.4-1l-1.91,1-1.91,1-.48,2.39-1.92,5.74-1.91,7.18h-1v4.79l-1,2.87-2.39,9.09-1,4.79-.47.95-2.4,3.35v1a3.51,3.51,0,0,0,1,2.87l-1,4.79-1.43,1.43-1,4.31-1.91,1.43-1,1-.48-1h-1.43c-.48-1.43-1-2.39-1.92-2.39h0l.48-1.43,1.43-1.92,1.44-4.78,1-1.44.95-2.39v-1.44a6.82,6.82,0,0,1,1.44-4.78l1.91-4.31,2.4-9.57.95-.48v-3.83l1-2.87,4.79-14.83v-1l-1-.48h-1.44v-4.79l1-3.82,1-3.35h1.43l1.92,1.91v-3.83l1-1.91.95-3.35,1.44-4.79V466.1l1.91-3.35,1-4.78,2.39-8.62L469,436.91l1-2.39v-2.4l1.43-3.82v-1.92l1-2.87.48-3.35,1,2.87v-4.31l.48-2.87.95-3.35v-.95l.48-2.4q.81-3.57,1.44-7.17H479v-1.44l-1.43-1.44v-1.91l1-2.39v-1.44l1-3.83,1-3.82V380l3.35-5.26.47,1.43,1-2.39v-1.91h1l1-2.4,1.43-1.43c1,0,1.44,2.39,1.44,6.7l1,6.7a74.75,74.75,0,0,1,1.92,13.4v1.91l-2.39,1.92.95,2.39,1.92,1.43c.48,0,1.43,2.4,1.91,5.75l.48,4.3v2.4l.48,1.91,1,2.39,1,2.87.48,4.79v3.35a10.5,10.5,0,0,1,1.92,6.22v2.87l.95,3.35,1.92,7.66-1,1.43,1,2.88V457a43,43,0,0,1,4.78,18.18l1.92,8.62q2.08,7.85,3.82,15.79l2.4,12.92v2.87c1.91,1.91,2.87,3.83,2.87,5.74L517.78,524l1,1.92.48.48,1.43,3.83,1.44,6.69,2.39,8.14C523.53,546,523.53,547,523.53,548.41Zm71.78-6.7-1.92,1.91L592,545.54l-1.44,1-2.87,1.43-1,1.44c-.46.49-.94,1-1.43,1.43l-1-1.91-1.44-1.44L581,539.8V536l-2.87-3.35.48-3.83-1.92-3.35-2.39-8.14v-2.39a9.39,9.39,0,0,1-1.91-3.35A33.57,33.57,0,0,1,569.47,501a5.88,5.88,0,0,0-1.92-3.82,28.8,28.8,0,0,1-2.87-7.66,3.36,3.36,0,0,1-1-1.92c-.58-1.3-1.22-2.58-1.91-3.82V480l-1.92-2.87h-.95l-1.44-4.79-2.87-9.09-2.87-6.7-3.35-5.26-5.74,4.78-1.44-.48c-.08,1.6-.24,3.2-.48,4.79v9.57a42.35,42.35,0,0,1,0,4.78v22.5q.07,3.35,0,6.7v2.87l-1.43,1,.48,4.79h1v14.36a4.73,4.73,0,0,0-1,3.35c0,1.43.47,2.39,1.43,2.39v7.18a6.4,6.4,0,0,1-1,3.82,2.66,2.66,0,0,1-.95,2.4l-1.44,1.43v1.92H536c-1,2.39-1.92,3.83-3.35,3.83a1.71,1.71,0,0,1-1.44-1v-1c.77-3.64,1.41-7.32,1.92-11l.95-14.35-.48-.48V525l3.35-4.31.48-1.91c0-1.44-1.43-3.83-3.83-6.7l1-1v-5.74l-.48-4.78.48-12.45V475.19a3.52,3.52,0,0,1,1-2.87L536,469l-1.44-1.43v-15.8q0-4.78,0-9.57l1-1.91v-1.44l-1-1.43v-11l.48-1.91a9.7,9.7,0,0,1-.48-2.87v-1.92h-1v-1l2.4-8.13v-7.66l1.43-3.35-3.83-8.13v-6.22c0-1.92,0-2.4-1-2.4h-1V379l1-.48h1a14.43,14.43,0,0,1,4.79-4.79l1,1.92,1.43.47,1-1.43h2.39l1.92,1,4.3-1.44h1c1,1,3.83,1,8.14,1.44h1l2.4.47h.47s1,0,1.44-1.43l2.87,1,2.39.95h1.44l1.44,1h1.43l1.44.48c.95,0,2.39,1,3.82,2.39l1,2.87H580v2.87l.48,1v-1.43l1-2.4.48,1,.48,1a5.18,5.18,0,0,1,1.43,3.35v7.17l.48,1.44-1,3.35c0,1.91-1,2.87-1.43,3.83l-.48,1.43q-3.16,6.19-6.22,12.45l-1.44,2.39-.95-.48-1,1.44-1.92,2.87-1,3.35-1.44.48-1,1.43-1-1-.48,2.88c-1.44.47-1.92,1.43-2.87,2.39a5.78,5.78,0,0,1-1.44,3.83l-1.91,1.43-.48,1.44-2.39,3.35.95,1,1.44,7.18,1.91,3.83v4.31h1a3.32,3.32,0,0,1,1.44,1.91,51.76,51.76,0,0,1,1.91,5.27l-1,2.87.48.95,1.92.48,1,2.4,1,2.39,1.44,6.22c0,1.91,1.91,4.78,3.82,10.53l1.44,4.78,1.44,4.79.47,3.35v2.87l2.4,3.35,2.39,3.83,3.35,9.57v4.78l2.39,2.87h1l1,2.88,1.43,1.91a2.05,2.05,0,0,0,1,1.91l1.43-1.43h2.4ZM670.92,546l-1,1.91c-1,0-1.44.48-1.44,1l-1.43,1.43h-1l-1.43-.47-1-1H662.3L660.39,546,658,543.15l-1.92-1.92a3.29,3.29,0,0,1-1.43-1.91l-1.92-1.92L651.3,536l-1-2.4-.48-1L648,529.75V526.4c-.48-1-1-1.44-1.92-1.44l-1.43,1c-1,0-1.44-.48-1.92-2.39v-3.35l-.95-1.92h-1.44q-3.28-5.07-6.7-10.05l-2.39-4.78-1-1.92q-2.47-3.93-5.26-7.65V490l-1.44-1.92h-1l-1.91-3.35L619.23,480l-1.43-1.92-.48-3.35h-1.44l-2.39-4.78c0-.48-.48-1-1.43-1l-1,1v2.87h1v20.58l-1,1.43v2.87a.94.94,0,0,1,1,1,134.51,134.51,0,0,0-1,15.79l-1-1.43-.48,1c0,2.4.48,3.83,1.92,3.83v9.1l-1.44,1.43.48,2.39,1-1.43.48,4.78V536l.47,2.39v1a4.35,4.35,0,0,0-1.43,3.35,2.43,2.43,0,0,0-2.39,1.91v1a9.56,9.56,0,0,0-2.4,2.39l-1.91,2.39h-1v-5.26l4.79-6.22-4.79-4.79,1-.95,1-2.87V526.4l3.35-4.31-3.35-3.83V492.9l.47-14.36,2.4-5.74-2.4-4.31V468h.48v.48h.48v-.95l1-2.88h-1.44v-22a33.8,33.8,0,0,1,.48-7.65l-1.43-1.44.47-4.79v-6.7c-.22-3.19-.54-6.39-1-9.57l.48-2.87.47-1.91v-2.39c0-.48,0-1,1-1.44v-3.83l-1.43,1.44v-6.22q-.23-10.54-1-21.06a2.26,2.26,0,0,1-2.39-2.39v0l4.78-6.7,2.87-4.79h1.44c.48,0,1,0,1,1l.47,1.91v8.14q-.25,5.75,0,11.48l-1.43,3.83h-1.44v5.27l.48,1.43,1-1,.48,1.92v33l-1.44,2.39v1.44a5.16,5.16,0,0,0,1,3.35l.48,4.3v18.67l.48.95v2.4l2.87-2.4,2.87-4.78h.48l1.43-3.35,6.22-14.84,1-3.35,4.79-12.44a86.71,86.71,0,0,0,3.82-9.57l-1-1.91,3.35-11h1a9.46,9.46,0,0,1,1-4.79l1-3.34.48-2.4,1.43-4.78c1-1.44,1.44-3.83,1.92-6.22l1.43-4.79,1.92-1.44.95-1.43,1.44-2.39c1,0,1-.48,1.43-1.44l1.92-1.43v.95l-.48,3.83-1,3.83-1.43,2.87q-2.07,5.2-3.83,10.53H644.6v3.83l.48.48-.48,4.3-1.44,2.87v2.4l-1.43,1.91-1.44,2.39-.48,3.83a1.71,1.71,0,0,1-1,1.44v2.39l-1.43,2.87a94.54,94.54,0,0,0-4.79,12.92l-2.39,5.74-2.87,7.18v2.87l-1.44,1.92-1.43,4.78-1.44,2.4-.48,2.39h-1.43l-.48,1.91-.48,1.92V458l4.31,11a16.49,16.49,0,0,1,1,6.22v1.44h1.44l1.91,2.87,1.44,4.31,1,.48,1.43,4.78v2.39c0,1,1,1.92,1.92,2.87l1,1.92h1l1,2.39h1l3.82,7.18,5.75,8.61,1.43,1.92v1.43l.48,1.92,1.44.95v1.44l1,1c1,0,1.44,1,2.4,1.43,2.49,2.95,4.89,6,7.17,9.09v2.88a3.18,3.18,0,0,1,2.4,1.91l.95-1.91a9.6,9.6,0,0,0,5.75,2.87l3.35-1v.48l.47,1A6.16,6.16,0,0,1,670.92,546Zm92.36-6.22-1,3.35-1,1.43v1.92c-1,2.39-2.39,3.35-4.78,3.35h-1.44l-2.39-4.31-2.87,5.26-1.92-.48h-2.39l-1.44-1h-1.91l-2.39-.48h-.48l-1-.48a2.56,2.56,0,0,1-1.91,1.44l-2.87-1.44a13.76,13.76,0,0,0-4.79,0l-1.91.48a8.39,8.39,0,0,1-3.83-1.44h-1.44l-.95,1.92a4.53,4.53,0,0,0-1-.48h-7.18l-2.39.48-1-.48v-1.44l-1.91.48v2.87h-1.44a1.92,1.92,0,0,0-1.91-.95H702.5l-1.44-3.35-.47-1-3.35,3.83c0,1-1,1-1.44,1l-1.91-1h-.48l-2.87,1h-2.4l-3.35,1.44h-1.43V547h.48a.93.93,0,0,0,.95-1l1.92-6.7v-5.75l.48-1.91v-2.87q.52-10,.48-20.1c0-1,0-1.43,1-1.91v-1.44l.48-3.35-.48,2.39-1-2.87v-6.22l1-2.87.48-5.26,1.92-2.4-2.88-2.87,1.44-1.43v-1l-1-1-1-2.87v-13.4L691,457,687.19,447l2.87-2.39-2.87-2.4.95-1.43V436l-.47-1.91-.48-1V420.16h-1v-3.35a3.51,3.51,0,0,1,1-2.87,6.43,6.43,0,0,1-1-3.83v-12l-.48-7.66v-5.26l-1-1v-4.79l-1.43.48v-.48h-1l-1.32-.44-.11.44V379l.11,0,.84-3.38h.48l1.44-2.88,1.43-2.39h2.87l4.79.48h1.91l1.92,2.39h1.43l2.4-1.43a4.46,4.46,0,0,1,2.87,1.43l1.43,1,1.92,1,1-.48a.66.66,0,0,1,1,0h9.09v1h2.88l.47-1.44a12.14,12.14,0,0,0,5.75-1h1.91l1.91.48,6.23-2.39,2.39-1h3.83a5.75,5.75,0,0,1-1,3.83v1l-2.39,2.39L738.39,380,737,381.4h-2.4L733.13,380h-3.35l-2.87-.48H722.6l-2.39,1.44-3.35-.48h-1.44l-1-.48-2.87.48H709.2l-1,.48H702l-1.43-.48-3.35-.48h-2.87l-1.44-.48-1,1.44,1,5.74v3.83l-1.44,2.39H691v2.4l.47,1.43,1,1.92v9.57l3.83.95,2.87,1.44h1.91l1.92.48,3.35.48h4.78a13.74,13.74,0,0,1,2.4,0,26.75,26.75,0,0,0,3.35,0,33.59,33.59,0,0,0,8.61-1.44h1l1.43.48v-1.44l1.92-.47,1.91,4.78c0-1.91,1-2.87,1-3.35a1.68,1.68,0,0,1,1-1.43l1.43-1.92h1.44l-.48,3.83-1.44,1.91v2.87l-1.43,2.88a4.87,4.87,0,0,1-1.44.47s-1,0-1-1.43l-1.91-3.83-1.91,4.79-1.44-1-2.39,1-2.4-.48-2.87.48-1.43-1h-2.87l-3.35,1-2.87-1H703l-1-.48h-2.87l-1.44.48h-1.43l-2.87.48.48,5.74v19.14h-1l-.48,2.87v1.92l.48-.48,1,2.39v2.87l-.48,2.87.48,5.75v4.78l-1,1V469a5.16,5.16,0,0,0,1.44,3.35v31.11l-1.44,2.39v3.83h.48l1-.48,1,1-.48,4.78v9.57l.48,8.14c0,2.39-1,4.78-2.39,7.65v3.83l1,1,1,1.44,1.92-3.35h1.91l3.35-1.44,1.44.48h2.39l1.91,1.91,1.92-1.91,1.43,3.35,1.44-2.87c0-1,.48-1.44,1-1.44l4.78,1h4.79l1.43-.48H725l2.87.48,1.92-.48h9.57l.48-.48,1.43.48h1l1,3.83h1v-2.87l.48-1,1.44,4.79,2.87-4.31,1-1,1,1.44,1.44-.48c.48,0,1,0,1.43-1V539.8l1.44-1h1.44l4.78-2.39L762.8,535l.48,2.39ZM847,373.26v1.44a4.92,4.92,0,0,0-1,1.43L844.63,379l-1,1.91-1.91,1h-1l-1.91-1h-1l-1,.48-1.91-.48a4.86,4.86,0,0,0-2.4-.48c-1.6.25-3.2.57-4.78,1l-4.79-.48h-1.43l-2.87-3.35-1.44,3.83-1-1h-8.61l-1.44.48v1a6.24,6.24,0,0,1-1.43,3.35L804,390l-1.43,3.35a9,9,0,0,0-.48,2.39c0,1.92,1,3.35,2.39,4.79l1.44,1.91-.48,1.92v2.87h-1v2.87l1,1.44v18.18l.48,4.79q-.12,3.83,0,7.65v2.4l-1,.47-1,1.44v1l1,1.43v3.35l1.43,1c-2.39,3.35-3.82,6.22-3.82,9.09a7.71,7.71,0,0,0,3.82,6.7l-1,2.39v8.14l1,.48v18.66a34,34,0,0,0,0,6.22l-.47.48c-1,0-1.44,1-1.44,2.39v1.92l1.44-.48v2.39l.47,1.92V546l-1.91,1-1,1.44-1,1.44h-1l-3.35,4.3a9.56,9.56,0,0,1-1-3.35l.48-3.35v-5.26l.48-4.79v-7.65l1.91-3.35a5.21,5.21,0,0,1-1-3.35V508.21l1-1.91V502l-1-1.43v-20.1a52.67,52.67,0,0,0,0-8.14V466.1l.47-3.83V459.4l1.44-1.43v-1.44l-1.44.48v-8.62l-.95-.95V426.86c0-1.44.95-2.39,1.91-3.35,1-1.44,1.92-1.91,1.92-2.87l-1.92-2.39-1.91-2.88,1.43-1.91-.48-3.83v-2.87a17.57,17.57,0,0,1-1.43-7.18l1-2.87-1-3.35v-1c0-1.91,1.43-3.82,3.83-6.22l.48-.95-3.83-2.4-.48-.95v-1.44A5.84,5.84,0,0,0,793.9,379h-8.13l-1,.47a.94.94,0,0,0-1-1h-1.43l-2.4-1.92-.47.48-1,1-1.44,1.43-1.91-1-2.39,1H769l-2.39-1h-2.88v-2.4l1-2.39.48,1A33.65,33.65,0,0,0,770,369l2.88-1c.95,0,2.39,1,3.82,2.87l1.44.48,3.83,1,5.26.95,1.92.48h1l3.83-.48h1.92l6.22,1,1.43-1.44h1l1,.48,2.87,1,1.43,1.44,2.88-2.4a6.21,6.21,0,0,1,3.35,1.44l1.43-.48h10l1.91,1.91,1-2.87h1.92l2.87-.95,1,4.78,1-2.87h1.44l2.39-2.87,1,.48,1,4.78,2.4-5.74h.95l1-1c.48,0,1,0,1,1.44Z" fill="#fff"/><path d="M762.32,153.13l4.78,1.92h5.27l1-.48,1.92.48,2.87.95,2.87-.95,9.57-1.44,7.18-1.43,9.57,1.43c3.35,0,5.27-1.43,5.27-3.83a14.42,14.42,0,0,0-1.92-6.7l2.39-3.35h0c-.95-4.78-2.39-7.17-3.82-8.61l1.43-5.26L807.3,123l-1-14.36L803.47,101V94.75l-1.91-5.26V87.57h-1V79l-1.43-3.83-1.92-4.78L795.34,68l-4.79-3.83L788.16,66l-1.44,4.78L781,84.22l-1.43,4.31c0,1-1.92,4.79-5.27,9.57l-1,6.7-4.78,3.83c-1.44,9.57-3.83,15.79-7.18,17.23L759,137.34l-4.79,2.87v4.31l-.48,4.79,5.75,3.82Z" fill="#fff"/><path d="M410.59,125.86,407.24,123l-1-14.36L403.41,101V94.75l-1.91-5.26V87.57h-1V79l-1.44-3.83-1.91-4.78L395.28,68,391,64.12,388.1,66l-1.44,4.78-5.74,13.4-1.44,4.31c0,1-1.91,4.79-5.26,9.57l-1.44,7.18L368,109.11c-1.44,9.57-3.83,15.79-7.18,17.23l-2.39,11.48-4.79,2.87V145l-.48,4.78,5.75,3.83h2.87l4.78,1.92h5.27l.95-.48,1.92.48,2.87.95,2.87-.95,9.57-1.44,7.18-1.43,9.57,1.43c3.35,0,5.27-1.43,5.27-3.83a14.39,14.39,0,0,0-1.92-6.7l2.39-3.35.48-.48c-1-4.78-2.39-7.17-3.83-8.61Z" fill="#fff"/></svg>