<svg xmlns="http://www.w3.org/2000/svg" viewBox="0 0 469.59 417.5"><path d="M197.39,179.09a63.69,63.69,0,0,0,1.26,103A129.35,129.35,0,0,0,215.49,248c-5.75,4.85-14.23,7.19-21.32,4-5.65-2.56-8.13-9-8.48-14.86-.5-9.92,2.53-19.67,6.84-28.5,7.89-15.88,19.77-29.39,32.75-41.3a64.63,64.63,0,0,0-27.89,11.79Zm42.35-11a9,9,0,0,1,6.48-.78A64.14,64.14,0,0,1,285,190.06a63.44,63.44,0,0,1,11.71,22.12,65.49,65.49,0,0,1-39.45,5,27.64,27.64,0,0,1-19.37-14c-1.33.77-2.67,1.54-4,2.29a27.06,27.06,0,0,0,9.14,12q-4,9.34-7.87,18.78a47.6,47.6,0,0,0,5.4,2.81c2.49-6.17,5.17-12.27,7.62-18.47a34.81,34.81,0,0,0,6.68,2.54c-1.47,6.41-3,12.82-4.67,19.18a32.07,32.07,0,0,0,6,1.48c1.61-6.41,2.95-12.9,4.76-19.25a35.94,35.94,0,0,0,6.93.82c-.43,6.36-.78,12.74-1.55,19.06a19.29,19.29,0,0,0,6.1.67c.73-6.56.91-13.17,1.65-19.74,2.42,0,4.82-.23,7.22-.46q.31,9.56.54,19.11a51.12,51.12,0,0,0,5.79-.57c.5-6.5-.48-13-.2-19.51a96.48,96.48,0,0,0,11.2-3,63.17,63.17,0,0,1-2.36,28.73,63.94,63.94,0,0,1-29.49,35.92c-18.7,10.67-43,10.91-61.75.21,9.36-14.56,15.49-30.91,20.21-47.49q-2.38-1-4.72-2.15c-4.53,5.91-11.51,10.15-19,10.57a8.06,8.06,0,0,1-7.69-4.12c-2.51-4.58-2-10.07-1-15,2.43-11.39,8.25-21.74,15-31.09,8.58-11.46,18.88-22.24,32-28.4Zm-10.86-16.37c3.93-.17,7.86-.05,11.79-.08a78.42,78.42,0,0,1,45.93,18.54A79.5,79.5,0,0,1,308,199.41,78.72,78.72,0,0,1,166,266.88c-13-24-12.06-55,2.61-78A78.73,78.73,0,0,1,228.88,151.77Z" fill="#fff" fill-rule="evenodd"/><path d="M434.08,375.18c-4.36,1.14-8.77,3.14-11.54,6.83-3,4-3.18,9.43-1.84,14.06a10.43,10.43,0,0,0,8.21,7.12c7.41,1.12,14.84-1.29,21.18-5,0-8.23,0-16.46,0-24.69-5.35.26-10.8.24-16,1.68Zm-30.24-32.55c12.44-7.92,27.85-11.54,42.44-8.72,6.88,1.37,13.83,4.29,18.39,9.81a20,20,0,0,1,4.92,12.95q0,30.22,0,60.43c-6.58.84-14.9-.23-18.17-6.86-5.55,3.37-11.57,6.18-18.09,6.9-8.25.82-17.2-.18-24-5.25a21.37,21.37,0,0,1-8.73-14.4c-.91-6.56-.4-13.67,3.27-19.37,3.71-6.16,10.4-9.75,17.14-11.63,9.43-2.61,19.35-2.84,29.07-2.16.25-4.62,0-9.74-3.16-13.42-2.6-3.15-6.76-4.49-10.73-4.53-9.2-.17-18.28,2.12-26.8,5.47-1.75-3.12-3.73-6.11-5.51-9.22ZM29.5,376.71a15.45,15.45,0,0,0-8.89,8.77,17,17,0,0,0,.73,12.35c1.72,3.48,5.57,5.41,9.35,5.6A33.37,33.37,0,0,0,50,398.16c0-8.23.13-16.47-.07-24.7-6.87.37-14,.43-20.4,3.25Zm-25.75-34c12.45-8.08,28-11.56,42.65-8.71,7.36,1.42,14.82,4.83,19.2,11.13a22.26,22.26,0,0,1,4.12,13q0,29.49,0,59c-6.74.89-15.13-.23-18.55-7-5.68,3.8-12.18,6.66-19.08,7.15-7.69.55-15.89-.5-22.34-5C4.23,408.82.93,402.52.28,396.16c-1-7.2.55-15,5.33-20.67,5-5.89,12.69-8.78,20.12-10.14,8-1.6,16.19-1.43,24.29-1.12.08-4.06.08-8.44-2.25-12-2.43-4.18-7.53-6-12.16-5.91a69.46,69.46,0,0,0-26.24,5.48c-1.95-3-3.75-6.12-5.62-9.18Zm333.52-3.13a41.08,41.08,0,0,1,24-6.91c8.7.22,17.51,4.05,22.81,11.11,4.42,5.61,5.91,13,5.58,20q0,25.82,0,51.62c-6.52.21-13,0-19.56.12-.37-14.64-.06-29.3-.16-43.95-.16-5.3.64-10.83-1.32-15.89a11.79,11.79,0,0,0-9.09-7.78c-6.86-1.39-13.79.65-20.23,2.91-.2,21.59.11,43.18-.15,64.76-6.5-.24-13,.05-19.51-.14,0-27.09-.08-54.16.06-81.24,4-.35,8.25-.47,12,1.16a17.13,17.13,0,0,1,5.51,4.2Zm-73.92,7c-4.37,1.23-7.6,5-9.09,9.14-2.86,7.77-2.71,16.21-2.56,24.38.41,6.54,1.15,13.52,5.09,19,3.85,5.13,11,6,16.95,4.88a13.77,13.77,0,0,0,10.27-8.7c3.39-8.42,3-17.7,2.81-26.6-.55-6.15-1.25-12.8-5.21-17.8-4.25-5.37-12.08-6-18.26-4.3Zm2-13.74c10.94-.88,23,1.62,31,9.7,7.72,7.55,10.43,18.63,10.95,29.09.32,9.76-.71,20-5.55,28.67-4.32,8.28-12.7,13.93-21.7,16-11.45,2.69-24.28,1.24-34.05-5.62-7.6-5.43-12.05-14.35-13.59-23.4A66.17,66.17,0,0,1,233.79,357c2.39-8,7.65-15.35,15-19.48a39.39,39.39,0,0,1,16.53-4.69Zm-106.91.36c-.05,16.09,0,32.19,0,48.28.11,11.35-.24,22.72.18,34.07,6.51-.11,13,0,19.53-.1,0-14.21,0-28.43,0-42.64,9.59,13.8,19.54,27.34,29.21,41.09.55.62,1,1.7,2,1.57,7.2.06,14.42.08,21.62,0Q214.84,393.31,198.94,371c9.35-12.17,18.9-24.19,28-36.52-7.55-.13-15.1,0-22.66-.07-8.76,11.52-17.3,23.2-26.21,34.59,0-8.82,0-17.64,0-26.45.06-3.59-2.39-6.78-5.5-8.34-4.37-2.34-9.49-1.52-14.2-1Zm-68.49,6c7.13-5.1,16.16-6.71,24.77-6.53,9.79.42,19.74,2.94,28,8.46-1.84,3.09-3.36,6.36-5.18,9.47a69.5,69.5,0,0,0-19.13-4.47c-4.38-.22-9.26-.79-13.1,1.81a8.11,8.11,0,0,0-3.18,10c1.22,2.54,3.83,4,6.31,5.08,7.38,2.86,15,5.05,22.32,8.09,6.08,2.54,11.88,6.84,14.45,13.1,2.8,6.68,2.87,15.05-1.64,21-4.7,6.48-12.5,9.8-20.14,11.31-15.24,2.6-31.77-1-43.84-10.88,2.2-2.9,4.49-5.72,6.54-8.73a49.18,49.18,0,0,0,22.31,6.91c4.76.48,9.94.67,14.29-1.66a8.87,8.87,0,0,0,3.78-11.22c-2.16-4-6.73-5.53-10.7-7.11-8.85-3.54-18.56-5.73-26-12a22.26,22.26,0,0,1-8-18.73C81.93,347.42,85.45,342.36,89.94,339.16Z" fill="#fff" fill-rule="evenodd"/></svg>
