<svg xmlns="http://www.w3.org/2000/svg" viewBox="0 0 384 323.7"><path fill="#fff" fill-rule="evenodd" d="M150.7 12.4A69.3 69.3 0 01193.3 0a67 67 0 0142.6 15.3A71 71 0 01254.2 38c2.3 4.7 4.9 10 3.4 15.4a5.3 5.3 0 01-5.3 2.5h-63.6l-1.8-4.6c-2 0-5-.7-5.6 1.9-1.1 4.3.1 8.9-.6 13.3-1.4 2.6-6.1 2.5-6.8-.6a94.2 94.2 0 010-9.8c-15.2-.6-30.4 0-45.5-.3-3.6.2-5.7-3.6-4.5-6.7a74 74 0 0126.7-36.7zm29.1-5.9c-.3 1.7-.9 4.8 1.6 5 2.5 1 4.5-2.5 2.7-4.2-.9-1.5-2.9-.6-4.3-.8zm-10.4 2.7c-1.6 1-.2 3 0 4.4l4.3-.2.2-4.2c-1.4-.2-3.4-1.6-4.5 0zM159 12.7c-13 7-22.5 19.4-28.2 32.9a15.5 15.5 0 00-1 4.5c1.8.6 4.6 1.2 5.1-1.4a62.3 62.3 0 0127.2-32c1.8-.8.6-2.9.7-4.3-1.3 0-2.7-.3-3.8.3zm16.7 3.6c-1.2 1.2-.2 2.9 0 4.2h4.1l.2-4.6c-1.4 0-3.5-1.2-4.3.4zm53.8 5.8c-1 2.7 2.7 4.7 4.4 2.4 1.6-.8.1-2.9 0-4.2-1.5.2-4.5-.7-4.4 1.8zM124.9 95.6a36.4 36.4 0 016.3-.8h119.1c2 .1 4.2 0 6 1.1 3 3.3.6 8-.4 11.6a47 47 0 01-30.4 31.2c-.3 4.6.6 9.3-.8 13.8-1.5 1.8-5.4 1.8-6.1-.8-1.3-4.9.2-10-.9-15a4 4 0 00-4.4-2.2c-3.7 0-2.5 7.4-6.8 5.7-1.7-2-2.9-4.8-5.6-5.7-6.4-2.7-13 .8-19.1 2.1-12.3 3.5-26.8 3.1-37.4-4.7a61.1 61.1 0 01-19.9-29 8.7 8.7 0 01.4-7.3z"/><path fill="#fff" fill-rule="evenodd" d="M56.7 23.5c2-.7 3.4.8 4.1 2.4-.4 2-2.2 4.3-4.3 3-2.5-.7-2.1-5 .2-5.4z"/><path fill="#fff" fill-rule="evenodd" d="M317 40.6h4.8a26.6 26.6 0 01.1 5c-1.8 0-4 .8-5.2-1a22.4 22.4 0 01.2-4z"/><path fill="#fff" fill-rule="evenodd" d="M286 86c-.2-2.5 2.6-3 4.5-2.7L292 86l-1.3 2.7c-2 .3-5 0-4.7-2.7zm-52.5 106.3c6.5-7.1 19.5-5.6 24.3 2.7-.7 2.3-3.3 3.5-4.8 5.3-2.3-1.6-4.6-4.2-7.7-4-3.2-.4-6.7 2.1-6.2 5.6.3 4.4 5 6.2 8.5 7.8 5.8 2.3 11.5 6.2 13.6 12.3 2 6.5.6 14.5-5 18.9-8 5.8-20.3 4.4-26.8-3l-3-4 5.7-5.6c3.1 4.5 8.1 8.5 14 7.4 6.3-.4 9.1-9.2 5-13.6-4.4-4.8-11.4-5.6-16-10-6-4.6-7-14.4-1.6-19.9zm83.2-3c.4-1.6 2.2-1.5 3.5-2 7.9 18.3 15 37 22.8 55.2l-8.2 2c-2-3.9-3.2-8.1-5-12.1-.4-1.6-2.3-1.2-3.5-1.3l-18 .1q-2.4 6.6-5 13.1l-8.3-1.6c6.8-18 14.5-35.6 21.7-53.4zm-5.4 34.2h15c-2.2-6.4-4.8-12.7-7.3-19-3 6-5 12.6-7.7 19zM0 189.3c8 .6 16.9-1.6 24.1 2.8a12.6 12.6 0 014.3 17c-1.2 2.4-3.6 3.6-5.7 5 4 1.8 8.3 4.1 9.6 8.7 2.4 6.7-.2 15.1-7 18-8 3.3-16.9 2-25.3 2.3v-53.8zm8.9 7.9c-.2 4.5-.1 9-.1 13.4 3.3-.1 6.8.2 9.9-1.2 3.2-2.4 3.7-7.8.6-10.5-2.8-2.6-7-1.5-10.4-1.7zm0 21.1c-.1 5.7-.2 11.4 0 17 4 0 8.3.6 12-1.7 4.7-3 4.7-11.2-.4-13.8-3.6-1.8-7.8-1.3-11.7-1.5zm30.6-28.9h8.6c.2 15-.3 30.2.3 45.2H68v8.2H39.6v-53.4zm31.7 52.8c7-18 14.6-35.9 22-53.8l3 .2L118 242c-2.7.7-5.4 1.3-8.1 1.7-2.1-4.2-3-9.1-5.6-13-6.6.1-13.3-.4-19.8.3-2 4.2-3.4 8.6-5.1 12.8l-8.2-1.7zm23.3-37.6c-2.4 6.3-5 12.4-7.2 18.7h14.4a188.5 188.5 0 00-7.2-18.7zm24 .4a27.6 27.6 0 00.5 23.3 28 28 0 0027.4 15.5 27.9 27.9 0 0017.9-7.8c-1.8-2-3.7-4-5.4-6.1-3 2-6 4.3-9.7 5-6.1 1.4-13 .2-17.6-4.2a19.3 19.3 0 01-5.8-19.9 18.9 18.9 0 0115.1-13.7c6.4-1.3 13 1.2 17.7 5.4a35 35 0 005.6-6.4 29 29 0 00-20-7.7 28.3 28.3 0 00-25.7 16.6zm59.4 10.3c7-8.8 13.2-18.1 20.2-27l6.7 4.6c-5.6 7.6-11.6 15-17 22.8 6.5 7.8 13.3 15.4 19.7 23.3l-7.3 4.8c-7.5-9.1-14.4-18.8-22.3-27.6-.2 8.8 0 17.7 0 26.6H169v-53.4h8.8c0 8.6-.1 17.3.1 25.9zm85.3-26.6v8.6H276v46.2h9c.2-15.4 0-30.8.2-46.2H298v-8.6h-34.8zm84.4 0c8.5.3 18-1.7 25.5 3.5 7.7 4.8 9 16.8 2.8 23.3-1.7 2-4.1 3-6.3 4.3 3.2 4.1 6.1 8.4 9.3 12.6 2 2.7 4.4 5.2 5.1 8.6l-6.6 3.4c-5.9-9-12-17.7-18-26.6-1-1.2-.7-2.8-.9-4.2 3-.6 6.3-.6 9-2.3 4-2.6 4.4-9.2.5-12.1-3.2-2.6-7.6-2-11.4-2v45.7c-2.6 1.4-6.1.2-9 .6q-.2-27.4 0-54.9zM195 273.8c8.3-6 20-7.6 29.3-3.2a32.2 32.2 0 0110.8 8.4 73.4 73.4 0 01-7 4.8c-4-4-9-7.2-15-7.3a19.2 19.2 0 00-17.6 9.7 20 20 0 001.6 21.8 19.5 19.5 0 0021.4 6.2 16 16 0 009.7-12c-5.9-1-11.9.4-17.8-.5v-8.1q13.6-.2 27.3 0c.4 6.7-.5 13.8-4.4 19.4a24.6 24.6 0 01-22.1 10.5 28.3 28.3 0 01-25.8-18.6c-3.2-11 0-24.3 9.6-31.1zm-141.2-4.6c6 .2 12-.1 18 .2 5.1.9 10.1 4.4 11.6 9.5a14.6 14.6 0 01-1.4 10 21 21 0 01-5.7 5c3 1.3 6.3 2.7 8.2 5.7 4.4 6.4 2.7 16.4-4.4 20.3-8.1 4.1-17.5 2.3-26.3 2.8v-53.5zm8.9 7.2v13.9c3.3-.2 7.3.6 10-1.8 2.6-1.9 3-5.8 1.6-8.4-2.5-4-7.7-3.3-11.6-3.7zm-.1 21.6v17c3.7.2 7.7.4 11.2-1.2 5-2.4 5.7-10.5 1.2-13.7-3.6-2.5-8.3-2.2-12.5-2.1zm33-28.7h9V304a11.2 11.2 0 005.3 10.1c4.2 1.9 10 1.4 12.9-2.6 2-2.4 2.2-5.6 2.2-8.6v-33.7h9c0 12.4 0 24.8-.2 37.2-.5 11.6-13.5 20.1-24.4 16.4A18.5 18.5 0 0196 305.8c-.4-12.2 0-24.4-.2-36.5zm50.3 0c6.7 0 13.5-.5 20.1.7 9.4 2 14.7 14.3 9.6 22.5-1.8 3.1-5 5.1-7.8 7.4 4.7 6.4 9.5 12.8 14.1 19.3-1 2.5-4.5 2.9-6.6 4.4-5.8-8.5-11.4-17-17.3-25.3-1-1.3-1.2-3-1.5-4.5 3.4-1.3 7.7-1.1 10.5-3.9a8.3 8.3 0 00-.4-10.4c-3.4-2.6-7.9-2.1-11.9-2.4v45.6h-8.7c-.2-17.8 0-35.6 0-53.4zm101.2 0h27.3v8.2H256c-.2 3.8 0 7.6-.1 11.4 5.5.1 11-.2 16.5.3v7.7c-5.5.7-11-.4-16.5.4v17h19v8.4h-27.8v-53.5zm38 0c5.3-.2 10.7 0 16 .1a15.8 15.8 0 0112.9 24.4c-1.8 2.8-4.8 4.2-7.4 6q7.4 9.5 14.3 19.4c-1 2.5-4.5 3-6.6 4.5-6-9.3-12.6-18.3-18.5-27.6-1-2.8 2.4-3 4.3-3.4 3.8-.4 8-3.3 7.6-7.6.3-3.5-2.5-6.6-5.8-7.4a47.5 47.5 0 00-8-.4v45.4h-8.8c-.3-18 0-35.7-.1-53.5z"/></svg>
