<svg xmlns="http://www.w3.org/2000/svg" viewBox="0 0 87 88.1"><path fill="#fff" d="M77.1 57.2C71 70.8 59.4 80.3 44.2 80.5a39.2 39.2 0 01-28-10.3L11.9 72v-6.6a38.6 38.6 0 01-7.3-23.2A40.9 40.9 0 0147 .9a48.8 48.8 0 0110.4 1.2A40.4 40.4 0 0044.3 0 44 44 0 000 43.7a44 44 0 0043.8 44.4 43.7 43.7 0 0040.7-26.8z"/><path fill="#fff" d="M65.3 11.4S62 5.8 50.5 4.6A38 38 0 0030 8.4c-10.8 5.8-12.4 15.3-12.4 15.3a1.3 1.3 0 00.1 1.2c.2.3.6.3 1 .2a256 256 0 0146-12.1c.4-.1.7-.2.8-.6a1.1 1.1 0 00-.2-1zM22.8 21c-.2 1.2-1.7 1-1.6-.1.2-2.9 4.6-9.7 11.1-12.6A22.2 22.2 0 0022.8 21zm31-7.8a3 3 0 002.4-2.7c0-1.8-4.2-4.5-11.2-5 6.9-.6 14.4 2.5 14.3 5.1-.1 1.6-2 1.7-5.5 2.6zM73.1 54.2a1.2 1.2 0 00-1.2-.2 324 324 0 00-44.5 14.2c-.5.2-.7.3-.8.6a1.2 1.2 0 00.3 1.1c2.4 3 13 6.8 24.6 4 17.6-4.2 21.4-16.7 21.8-18.4a1.3 1.3 0 00-.2-1.3zm-4 5A24 24 0 0156 71.1a24.8 24.8 0 0010.9-12.5c.7-2 3-1.1 2.2.6zM70.9 52.5a12.1 12.1 0 007.2-3.1 5.6 5.6 0 001.5-4V38l-9.2 2v2.2c0 1.4.7 2.2 2.2 1.9l1.2-.3v1.8s.1 1-2.2 1.4c-3 .5-4.4-1.4-4.5-4.7.1-3.5 2.1-5.6 4.5-6.1a9.9 9.9 0 015.2.2c3.1.5 3.9-4.1 1.1-5.2a13.6 13.6 0 00-7.3-.5c-3.4.7-10.1 3.5-10.1 12.7.2 7.2 5.6 9.6 10.4 9.1M41 60.3l3.1-1.1c2.3-.8 3.1-2.1 3.1-4.5v-7.5l6.6 7.6a3.3 3.3 0 003.6.8 3.4 3.4 0 002.4-3.2V33.6l-3.1.8c-1.6.5-2.9 1.5-2.9 4.2v6.5s-3.7-4.6-6.1-7.1c-1.3-1.3-3.4-.5-3.4-.5l-3.2 1zM39 39.1l-3.6 1.2c-2.1.8-3.3 2-3.3 5.1v18.1l3.5-1.3c2.4-.9 3.3-2.2 3.3-4.7l.1-18.4M29.1 43.4a3.1 3.1 0 00-4 1.1L19.5 54v-7.7L12.9 49v21.7l4.6-1.9a3.5 3.5 0 001.5-1.1 4.7 4.7 0 00.5-2.1v-6.9l5.2 5.5a3.7 3.7 0 005.1.3 3.4 3.4 0 00.5-4.7L25.6 55l4.8-7.7a2.7 2.7 0 00-1.3-3.9M16.1 40.4c0-1.2-.9-1.8-2.5-1v3.8l.9-.4a2.5 2.5 0 001.6-2.4M13.5 37a4.9 4.9 0 00.7-.3 2.4 2.4 0 001.5-2.2c0-1.2-.9-1.5-2.2-.8zm6.8 2.9c.1 3-2.1 4.6-5 5.8l-5.8 2.5V32.4l4.9-1.9c3.4-1.2 5.4.3 5.4 2.5a4.6 4.6 0 01-2.1 3.9 3.1 3.1 0 012.6 3M31.4 26.6c0-1.3-.9-1.7-2-1.4l-1.9.7v9.8c0 1-.2 2.2-1.4 2.5-.9.2-1.4-.4-1.4-1.4v-8c0-1.3-.9-1.7-2-1.4l-2 .7v9.7c0 3.3 2.2 4.9 5.7 3.9 3-.9 5-2.6 5.1-6.9zM63.7 30.6a1.7 1.7 0 001.4-1.9V27l-4.7 1v-2.8l3-.6a1.4 1.4 0 001.2-1.5v-1.6l-4.2.9v-2.2l3.4-.7c.9-.2 1.2-.8 1.2-1.7v-1.7l-8.5 1.7v14.4l7.2-1.6M36.4 30s2.3-1.2 2.3-3.1c0-1.6-1.5-1.3-2.3-1zm0 2.2v3.9a2.3 2.3 0 01-1.6 2.1l-2.4.8V24.2a48.5 48.5 0 015.3-1.6c3-.7 5.2.7 5.1 3.1a6 6 0 01-2.5 4.7l2.6 2.5a2 2 0 11-3 2.9zM69.9 22.1s2.3-.9 2.3-2.7c0-1.6-1.6-1.3-2.3-1.1zM66 30.2V16l5.2-.9c3-.4 5 1.3 4.9 3.6a4.6 4.6 0 01-2.4 4l2.6 2.9a2 2 0 01-.4 2.9 2 2 0 01-2.7-.4l-3.3-3.9v3.5a2 2 0 01-1.7 2z"/><path fill="#fff" d="M55.5 24.2l-5.9 1.4v1.6c0 .8.5 1.3 1.3 1.1l.9-.2v1.6c0 .6-1 1.1-2 1-1.4 0-2.2-1.1-2.2-3.2 0-2.7 1.3-4.4 3.1-4.8a5.9 5.9 0 012.3 0c1.5.2 2.4-.5 2.4-1.7s-1.2-2.2-3.7-2.1c-5.5.2-8.4 4.2-8.4 8.9 0 4.9 3.2 7 7.1 6.3a7.8 7.8 0 004-1.8 3.4 3.4 0 001.1-2.5zM82.5 53.3h.7c.4 0 .9.1.9.5s-.4.6-.8.6h-.8zm-.9 3.6h.8v-1.8h.5l1 1.8h.9L83.7 55c.6-.1 1.1-.4 1.1-1.1 0-.9-.6-1.3-1.7-1.3h-1.5zm-2.4-2.1a3.8 3.8 0 003.9 3.8 3.8 3.8 0 003.9-3.8 3.9 3.9 0 00-7.8 0m1 0a2.9 2.9 0 115.8 0 2.9 2.9 0 11-5.8 0"/></svg>
