<svg xmlns="http://www.w3.org/2000/svg" viewBox="0 0 79.52 39.92"><path d="M0,13.44v-.08A13.12,13.12,0,0,1,12.88,0h.58A13.31,13.31,0,0,1,23.63,4L20,8.16a9.56,9.56,0,0,0-6.6-2.91c-4.35,0-7.48,3.61-7.48,8v.07c0,4.43,3.06,8.11,7.48,8.11,3,0,4.76-1.18,6.78-3l3.62,3.65a13.21,13.21,0,0,1-10.58,4.61A13,13,0,0,1,0,13.89Z" fill="#fff"/><path d="M27.88,13.44v-.08A13.12,13.12,0,0,1,40.76,0h.58A13.31,13.31,0,0,1,51.51,4L47.9,8.16a9.56,9.56,0,0,0-6.6-2.91c-4.35,0-7.48,3.61-7.48,8v.07c0,4.43,3.06,8.11,7.48,8.11,3,0,4.76-1.18,6.79-3L51.7,22.1a13.18,13.18,0,0,1-10.58,4.61A13,13,0,0,1,27.88,13.89Z" fill="#fff"/><path d="M55.71,13.44v-.08A13.12,13.12,0,0,1,68.59,0h.58A13.32,13.32,0,0,1,79.34,4L75.73,8.16a9.58,9.58,0,0,0-6.6-2.91c-4.35,0-7.48,3.61-7.48,8v.07c0,4.43,3.05,8.11,7.48,8.11,3,0,4.75-1.18,6.78-3l3.61,3.65a13.18,13.18,0,0,1-10.58,4.61A13,13,0,0,1,55.71,13.89Z" fill="#fff"/><path d="M5.22,34.87a2.58,2.58,0,0,0-.75-.45,2.4,2.4,0,0,0-.84-.15,2,2,0,0,0-.68.12,1.51,1.51,0,0,0-.54.33,1.46,1.46,0,0,0-.35.5,1.69,1.69,0,0,0-.13.63,1.5,1.5,0,0,0,.13.62,1.26,1.26,0,0,0,.43.46,3.13,3.13,0,0,0,.78.38l.48.19a1.15,1.15,0,0,1,.25.12.72.72,0,0,1,.24.25.65.65,0,0,1,.08.31.8.8,0,0,1-.11.4.78.78,0,0,1-.3.27,1,1,0,0,1-.43.1,1.3,1.3,0,0,1-.66-.19,1.47,1.47,0,0,1-.48-.54l-.68.66a2.45,2.45,0,0,0,.82.78,2,2,0,0,0,1,.25,2,2,0,0,0,.77-.13,1.85,1.85,0,0,0,.6-.36,1.73,1.73,0,0,0,.38-.57,2,2,0,0,0,.14-.72,1.75,1.75,0,0,0-.12-.65A1.36,1.36,0,0,0,4.93,37a1.39,1.39,0,0,0-.19-.15,1.55,1.55,0,0,0-.22-.12l-.29-.13-.38-.15a3.16,3.16,0,0,1-.5-.22A.64.64,0,0,1,3.1,36,.44.44,0,0,1,3,35.76a.51.51,0,0,1,.11-.31.71.71,0,0,1,.27-.21.85.85,0,0,1,.39-.08.8.8,0,0,1,.31,0,1,1,0,0,1,.29.14,1.69,1.69,0,0,1,.28.26l.55-.73Zm4.59,1.59v-2.1H8.75v5.42H9.81v-2.4H12.1v2.4h1.06V34.36H12.1v2.1Zm9.64-2.22a2.81,2.81,0,0,0-.92.14,2.61,2.61,0,0,0-.8.4,2.83,2.83,0,0,0-1.05,1.37,2.91,2.91,0,0,0-.14.89,2.84,2.84,0,0,0,1.73,2.65,3.17,3.17,0,0,0,1.14.22,3.28,3.28,0,0,0,.93-.14,3.06,3.06,0,0,0,.81-.4,2.8,2.8,0,0,0,.63-.61,2.71,2.71,0,0,0,.41-.77,3,3,0,0,0,0-1.82,2.53,2.53,0,0,0-.41-.78,2.57,2.57,0,0,0-.62-.61,2.68,2.68,0,0,0-.79-.4A2.89,2.89,0,0,0,19.45,34.24Zm0,1a1.58,1.58,0,0,1,.71.14,1.77,1.77,0,0,1,.58.4,1.93,1.93,0,0,1,.38,2,1.79,1.79,0,0,1-.39.59,1.64,1.64,0,0,1-.57.4,1.73,1.73,0,0,1-1.41,0,1.77,1.77,0,0,1-.58-.4,2.1,2.1,0,0,1-.38-.6,1.74,1.74,0,0,1-.14-.74,1.86,1.86,0,0,1,.53-1.3,1.9,1.9,0,0,1,.57-.4,1.54,1.54,0,0,1,.7-.14Zm9.29.07v-.92h-3v5.42h3v-.92H26.78V37.4h1.87v-.92H26.78v-1.2Zm6.64-.41a2.58,2.58,0,0,0-.75-.45,2.45,2.45,0,0,0-.85-.15,1.89,1.89,0,0,0-.67.12,1.51,1.51,0,0,0-.54.33,1.46,1.46,0,0,0-.35.5,1.57,1.57,0,0,0,0,1.25,1.26,1.26,0,0,0,.43.46,3.13,3.13,0,0,0,.78.38l.48.19a1.42,1.42,0,0,1,.25.12.72.72,0,0,1,.24.25.65.65,0,0,1,.08.31.8.8,0,0,1-.11.4.86.86,0,0,1-.3.27,1,1,0,0,1-.43.1,1.24,1.24,0,0,1-.66-.19,1.38,1.38,0,0,1-.48-.54l-.68.66a2.33,2.33,0,0,0,.81.78,2,2,0,0,0,1,.25,2,2,0,0,0,.77-.13,1.71,1.71,0,0,0,.59-.36,1.61,1.61,0,0,0,.39-.57,2,2,0,0,0,.14-.73,1.56,1.56,0,0,0-.13-.64,1.23,1.23,0,0,0-.35-.49c-.06-.06-.13-.1-.19-.15l-.22-.12-.29-.13L34,36.44a3.06,3.06,0,0,1-.49-.22.75.75,0,0,1-.26-.21.43.43,0,0,1-.07-.25.51.51,0,0,1,.11-.31.71.71,0,0,1,.27-.21.85.85,0,0,1,.39-.08.83.83,0,0,1,.31,0,1.11,1.11,0,0,1,.29.14,1.69,1.69,0,0,1,.28.26l.55-.73Zm7.32,5.05a3,3,0,0,0,.66-.07,2.65,2.65,0,0,0,.92-.42,1.51,1.51,0,0,0,.28-.22l.17-.17.46.36.35.22a1.48,1.48,0,0,0,.29.12,1.31,1.31,0,0,0,.27.06H47.2l.1,0s0,0,0,0,0,0,0,0l-.08,0a1.24,1.24,0,0,1-.33,0,2.3,2.3,0,0,1-.34-.12l-.3-.15a2.29,2.29,0,0,1-.27-.17,4.37,4.37,0,0,1-.38-.26c-.14-.1-.3-.23-.47-.38a2.7,2.7,0,0,0,.27-.39,3.77,3.77,0,0,0,.26-.48,3.35,3.35,0,0,0,.19-.53,1.82,1.82,0,0,0,.08-.52.19.19,0,0,0,0-.1.14.14,0,0,0-.12-.06l-.58-.05h-.39l-.09,0a0,0,0,0,0,0,0s0,0,0,0l.07,0h.13a.33.33,0,0,1,.14,0,.2.2,0,0,1,.12.08.46.46,0,0,1,.13.2.64.64,0,0,1,0,.2,2.2,2.2,0,0,1-.06.5,2,2,0,0,1-.15.47,1.58,1.58,0,0,1-.21.38l-.23-.21-.34-.31L44,37.55l-.34-.33L43.39,37l-.56-.62c-.14-.17-.28-.35-.4-.53a2.34,2.34,0,0,1-.25-.47,1.44,1.44,0,0,1-.08-.46,1.33,1.33,0,0,1,.09-.49.9.9,0,0,1,.25-.33,1,1,0,0,1,.33-.19,1.13,1.13,0,0,1,.36-.06,1.27,1.27,0,0,1,.34,0,1.11,1.11,0,0,1,.48.31.7.7,0,0,1,.15.23.62.62,0,0,1,.08.24,1.64,1.64,0,0,1,0,.22.49.49,0,0,0,0,.12,0,0,0,0,0,0,0s0,0,0,0a.36.36,0,0,0,0-.11,1.59,1.59,0,0,0,0-.17c0-.07,0-.16,0-.25s0-.19,0-.29a2,2,0,0,0,0-.23.36.36,0,0,0,0-.11.2.2,0,0,0-.09-.09,1.5,1.5,0,0,0-.42-.15,2.09,2.09,0,0,0-.56-.05,1.71,1.71,0,0,0-.6.09,1.74,1.74,0,0,0-.49.25,1.5,1.5,0,0,0-.36.35,1.56,1.56,0,0,0-.22.4,1.1,1.1,0,0,0-.08.4,1.47,1.47,0,0,0,0,.36,1.23,1.23,0,0,0,.12.37,2.55,2.55,0,0,0,.24.39,3.12,3.12,0,0,0-.47.34,2.3,2.3,0,0,0-.39.43,2.06,2.06,0,0,0-.39,1.19,1.82,1.82,0,0,0,1.23,1.68A2.36,2.36,0,0,0,42.68,39.92Zm.28-.43a1.51,1.51,0,0,1-.63-.13,1.47,1.47,0,0,1-.52-.36,1.71,1.71,0,0,1-.35-.56,2.06,2.06,0,0,1-.12-.7,1.64,1.64,0,0,1,.09-.58,1.56,1.56,0,0,1,.26-.45,1.7,1.7,0,0,1,.38-.33c.06.08.13.18.22.28a2.69,2.69,0,0,0,.27.32l.26.31c.09.09.15.17.21.22l.19.2.29.28.34.32.34.32.31.26a1.6,1.6,0,0,1-.35.28,2,2,0,0,1-.51.23,2.59,2.59,0,0,1-.68.09Zm8.73.29h1.25a3.54,3.54,0,0,0,.48,0,2.38,2.38,0,0,0,.37-.06,1.66,1.66,0,0,0,.31-.12,2.22,2.22,0,0,0,.27-.19,1.51,1.51,0,0,0,.54-1.16,1.67,1.67,0,0,0-.11-.59,1.27,1.27,0,0,0-.32-.47,1.41,1.41,0,0,0-.49-.31,1.31,1.31,0,0,0,.33-.44,1.24,1.24,0,0,0,.1-.54,1.55,1.55,0,0,0-.07-.48,1.59,1.59,0,0,0-.22-.43,1.44,1.44,0,0,0-.32-.33,1.07,1.07,0,0,0-.32-.16,1.58,1.58,0,0,0-.42-.09,5.44,5.44,0,0,0-.57,0h-.81Zm.82-3.09V35.12h.29a1.17,1.17,0,0,1,.37,0,.58.58,0,0,1,.25.15.65.65,0,0,1,.17.26.88.88,0,0,1,.06.33.83.83,0,0,1,0,.22.6.6,0,0,1-.08.21.66.66,0,0,1-.12.17.64.64,0,0,1-.25.15,1.39,1.39,0,0,1-.4,0Zm0,2.32V37.38h.78a1.27,1.27,0,0,1,.28.06.78.78,0,0,1,.2.11.58.58,0,0,1,.18.17.94.94,0,0,1,.12.22,1.09,1.09,0,0,1,0,.25.74.74,0,0,1,0,.25.65.65,0,0,1-.11.22.73.73,0,0,1-.18.17.85.85,0,0,1-.31.13A2.12,2.12,0,0,1,53,39Zm9-.54.57,1.31H63L60.41,34l-2.68,5.76h.88l.61-1.31Zm-.33-.78H59.56l.84-1.83.8,1.83ZM68.62,37v.77H70a1.42,1.42,0,0,1-.17.54,1.54,1.54,0,0,1-.36.44,1.67,1.67,0,0,1-1.09.41A2.09,2.09,0,0,1,67.7,39a2.28,2.28,0,0,1-.6-.36,2.09,2.09,0,0,1-.54-.68,2.15,2.15,0,0,1-.18-.87,2.09,2.09,0,0,1,.16-.81,2,2,0,0,1,.43-.65,1.88,1.88,0,0,1,.64-.44,2,2,0,0,1,.8-.15,1.81,1.81,0,0,1,.61.09,2.1,2.1,0,0,1,.53.29,2.57,2.57,0,0,1,.48.51l.59-.56-.22-.25-.19-.18L70,34.78a2.66,2.66,0,0,0-.77-.39,2.74,2.74,0,0,0-1.76,0,2.81,2.81,0,0,0-1.79,1.78,3.07,3.07,0,0,0-.14.9,2.84,2.84,0,0,0,1.14,2.27,3,3,0,0,0,.75.4,2.94,2.94,0,0,0,.88.14,2.71,2.71,0,0,0,.79-.12,2.55,2.55,0,0,0,.7-.35,2.29,2.29,0,0,0,.56-.56,2.43,2.43,0,0,0,.28-.47,2.46,2.46,0,0,0,.15-.53,2.85,2.85,0,0,0,0-.65V37Zm8.74-1.8a2.16,2.16,0,0,0-.39-.51,1.34,1.34,0,0,0-.48-.3,1.7,1.7,0,0,0-.59-.1,2.06,2.06,0,0,0-.65.11,1.49,1.49,0,0,0-.51.31,1.33,1.33,0,0,0-.47,1,1.22,1.22,0,0,0,.28.8,2.05,2.05,0,0,0,.84.58l.36.15.22.1.14.06.1.06.1.06a1,1,0,0,1,.28.3,1,1,0,0,1,.09.41.94.94,0,0,1-.12.47.86.86,0,0,1-.31.32.93.93,0,0,1-.46.12,1.25,1.25,0,0,1-.32,0,1.43,1.43,0,0,1-.27-.15.71.71,0,0,1-.19-.23.59.59,0,0,1-.06-.14,1.21,1.21,0,0,1,0-.18c0-.07,0-.16,0-.27l-.83.19a2.17,2.17,0,0,0,.07.35,1.48,1.48,0,0,0,.1.27,1.35,1.35,0,0,0,.15.26,1.61,1.61,0,0,0,.6.53,1.75,1.75,0,0,0,.81.19,1.89,1.89,0,0,0,.7-.13,1.61,1.61,0,0,0,.91-.91,1.84,1.84,0,0,0,.13-.69,1.54,1.54,0,0,0-.13-.67A1.51,1.51,0,0,0,77,37a2.85,2.85,0,0,0-.72-.41l-.35-.15-.22-.09-.13-.06-.09,0-.08-.05a.8.8,0,0,1-.2-.21.54.54,0,0,1-.06-.25.6.6,0,0,1,.11-.34.65.65,0,0,1,.28-.24.9.9,0,0,1,.4-.09.85.85,0,0,1,.32,0,.62.62,0,0,1,.25.17,1.41,1.41,0,0,1,.24.32l.66-.4Z" fill="#fff" fill-rule="evenodd"/></svg>
