<svg xmlns="http://www.w3.org/2000/svg" viewBox="0 0 149 91.1">
  <g fill="#fff" style="isolation:isolate">
    <path d="M43 25.7a9.3 9.3 0 012.5.3 7.9 7.9 0 012 .9 14.4 14.4 0 011.4 1 6.5 6.5 0 01.8.8l.3.3-1.7 1.7-.2-.2a7.2 7.2 0 00-.7-.7 6.3 6.3 0 00-1-.8 6.8 6.8 0 00-1.5-.6 6.5 6.5 0 00-2-.3 6.4 6.4 0 00-6.4 6.5 6.4 6.4 0 006.4 6.5 6.6 6.6 0 002-.3 6 6 0 001.6-.7 10.1 10.1 0 001-.8 6.7 6.7 0 00.7-.7l.2-.3 1.8 1.8a3 3 0 01-.3.3 7.8 7.8 0 01-.9.9 10.6 10.6 0 01-1.5 1 8.5 8.5 0 01-2 .9 8.8 8.8 0 01-2.5.3 9 9 0 01-6.6-2.5 9 9 0 010-12.7 9 9 0 016.5-2.6zM67.7 26v17.3h-2.8v-7.6h-8.6v7.6h-2.7V26h2.7v7.4H65v-7.4zM75.4 40.8h9.8v2.5H72.6V26H85v2.5h-9.6V33H83v2.5h-7.6zM97.1 38.4a1.9 1.9 0 00-.5-1.4 3.5 3.5 0 00-1.3-.8 16.5 16.5 0 00-1.8-.6 20.3 20.3 0 01-2-.6 10 10 0 01-1.8-.9 3.8 3.8 0 01-1.3-1.5 4.7 4.7 0 01-.5-2.2 4.3 4.3 0 011.6-3.4 6.1 6.1 0 014.1-1.4 7 7 0 011.9.3 6.7 6.7 0 011.5.5 10.3 10.3 0 011 .7 4.6 4.6 0 01.6.5l.2.3-1.7 1.7-.1-.1a3.3 3.3 0 00-.4-.4 4.1 4.1 0 00-.7-.4 4.4 4.4 0 00-1-.4 5.3 5.3 0 00-1.3-.1 3.4 3.4 0 00-2.1.6 2 2 0 00-.9 1.6 2 2 0 00.5 1.4 3.5 3.5 0 001.4.8 16.5 16.5 0 001.8.6l2 .6a9 9 0 011.7.8 3.8 3.8 0 011.4 1.5 4.7 4.7 0 01.5 2.3 4.8 4.8 0 01-1.7 3.7 6.7 6.7 0 01-4.5 1.5 8.8 8.8 0 01-2.3-.3 7.5 7.5 0 01-1.8-.7 10.4 10.4 0 01-1.2-.8 5.3 5.3 0 01-.7-.7l-.3-.3 1.8-1.7.1.2a6 6 0 00.6.5 5.4 5.4 0 00.8.6 5.8 5.8 0 001.3.5 6.4 6.4 0 001.6.2 3.9 3.9 0 002.6-.8 2.5 2.5 0 001-2zM101.1 26h13.2v2.4H109v15h-2.7v-15h-5.2zM120 40.8h9.8v2.5h-12.5V26h12.3v2.5H120V33h7.6v2.5H120zM133.5 43.3V26h7.4a5.5 5.5 0 014 1.6 5.1 5.1 0 011.6 3.8 5.5 5.5 0 01-.4 2 4.3 4.3 0 01-.9 1.4 9.7 9.7 0 01-1 1 3.6 3.6 0 01-.8.5l-.4.2 4 7h-3l-3.7-6.8h-4v6.8zm9.4-10a2.8 2.8 0 00.8-2 2.8 2.8 0 00-2.8-2.8h-4.6v5.7h4.6a2.8 2.8 0 002-.9z"/>
  </g>
</svg>
