<svg xmlns="http://www.w3.org/2000/svg" viewBox="0 0 87.8 296.7"><path fill="#fff" d="M79 296.6H12c-1.1 0-1.5-.2-1.5-1.5V247c0-1.6 0-1.6 1.6-1.5l17.4 1.6 14.8 1.3 15.2 1.3 14.8 1.3 3.9.3c.6.1.9.3.9 1V296a5.6 5.6 0 01-.1.7zM79 196.3H12c-1.3 0-1.6-.4-1.6-1.6v-12.9c0-1.1.3-1.5 1.5-1.5h65.8c1 0 1.4.2 1.4 1.3V195l-.1 1.3zM43.8 115H11.9c-1.1 0-1.5-.4-1.5-1.5v-4.1c0-1.6 0-1.7 1.6-1.7h21.4v-.3l-1-.7-20.8-11.2a2 2 0 01-1.1-2V59.7c0-1.6 0-1.6 1.5-1.6h3.4c.9 0 1.2.3 1.1 1.1v1.2l.2 8.6 8.6.2h17c1.1 0 1.5.2 1.5 1.4v5.6l-1.6.1h-24c-1.7 0-1.7 0-1.7 1.8v7.2c0 1.1.4 1.4 1.5 1.4h24.4c1 0 1.5.3 1.4 1.4v5.7h-23v.3a12.5 12.5 0 001 .7l20.8 11.3a2 2 0 011.2 2v6.8zM79 225V243l-6.5-.6-12.4-1.1-15.3-1.4-14.6-1.3-15.2-1.3-3.7-.4a1.2 1.2 0 01-.8-.8v-6.5c0-.6.2-.9.9-1l12-.6 22-1.2 15.3-.7 16.3-1h2zM46 3.7h25.5c1.6 0 1.6 0 1.6-1.5 0-2.3-.2-2.2 2.2-2.2h11.1c1 0 1.4.3 1.4 1.4v5.5h-5.5C79 7 79 7 79 10.1V27c0 1.2.4 1.6 1.5 1.5h6.1c.8 0 1.1.2 1 1v5c0 .7-.1 1-1 1H74.3c-.7 0-1.2-.3-1-1 .1-1.3-.6-2-1.5-2.5a28.2 28.2 0 00-12.8-4c-4-.3-8-.3-11.9-.5-.7 0-1.2 0-1.2-1V4.6a8.2 8.2 0 01.1-.9zm27 20.8a1.9 1.9 0 000-.5V11.8c0-.9-.4-1-1-1H52.6c-.9 0-1.2.4-1.1 1.2v7c0 1 .3 1.4 1.3 1.4a45.2 45.2 0 0114 1.9c2.1.6 4 1.4 6 2.2zM79 200.5v7c0 .3-.4.7-.7.7l-14.4.8-21 1.2-14.8.8-16.5 1c-1 0-1.1-.3-1.1-1v-9.2c0-1 .3-1.2 1.2-1.2h67.4zM43.7 3.8v7H20.8v.4l1 .7 21 11.3a1.7 1.7 0 011 1.7v7H12c-1.2 0-1.6-.3-1.5-1.5a38.9 38.9 0 000-4.3c0-1 .3-1.4 1.3-1.3H33.4v-.4l-1.3-.8-20.4-11a2 2 0 01-1.2-2.2V4.7c0-.7.2-1 1-1h31.7a3.2 3.2 0 01.5.1zM45 49.7c0-9 6-15.4 15-16.3A20.7 20.7 0 0171 35a14.7 14.7 0 018.9 12.7c.5 5-.6 9.4-4 13.2a15.1 15.1 0 01-7.2 4.4 21.5 21.5 0 01-13-.2C49 63 45 57.2 45 49.7zm17.9-9.4c-2 .3-3.5.4-4.9.8a8.7 8.7 0 00-7.2 8.2 8.4 8.4 0 005.2 8.3 15.8 15.8 0 0013 0 8.2 8.2 0 005-8 7.8 7.8 0 00-5.2-7.8 41.4 41.4 0 00-5.9-1.5zM62.5 128.5a19.2 19.2 0 01-9.4-2.1c-6.1-3.4-8.4-9-8-15.7.4-8.2 6.2-13.8 14-14.8 4.6-.7 9-.3 13.2 2.1a14.8 14.8 0 017.5 12 18 18 0 01-.6 7.5c-2 6.2-6.5 9.5-12.8 10.7l-3.9.3zm.6-7.2c.8-.2 2.4-.3 4-.7a8.7 8.7 0 007-8.5c0-4-2.3-7.2-6.6-8.5a18.7 18.7 0 00-4.6-.7 13.7 13.7 0 00-8.2 2 8.6 8.6 0 00-.7 13.8c2.5 2 5.3 2.4 9 2.5zM10.3 168.2l67.8-10.5 1.2 8-9.9 1.6-21 3.2-20.7 3.3c-5 .7-9.9 1.4-14.8 2.3-1.1.1-1.5 0-1.6-1.2l-.9-5.4v-1.3zM43.8 65.4l-9.4-3.6-22.6-8.5a1.7 1.7 0 01-1.4-2v-5a1.4 1.4 0 011-1.4l31.4-12c.3 0 .6 0 1-.2v6.8c0 .3-.5.8-.9 1a117 117 0 01-5.5 2 1.3 1.3 0 00-1 1.5v10.2a1.5 1.5 0 001.2 1.7c1.8.6 3.6 1.2 5.3 2 .4.1.9.5.9.8v6.7zm-25-16.6v.4l12.3 4.3v-9zM79.1 86.8V93c0 .2-.4.5-.7.7s-.5 0-.7 0H47.3c-1 0-1.5-.2-1.5-1.4V79c0-3.2.6-6.3 2.9-8.7 3.2-3.3 7.3-3.6 11.5-2.5 4 1.2 6 4.3 6.6 8.2a72.5 72.5 0 01.2 9.3c0 1.2.3 1.5 1.5 1.5h9.1zm-22.5 0h4c.6 0 1-.2 1-.9 0-2.3 0-4.6-.2-7a4.5 4.5 0 00-2.1-4 5 5 0 00-7.5 4v7c0 .7.2 1 .9.9h3.9zM43.8 126.7H30a38.4 38.4 0 01.6 4.6 35.8 35.8 0 01-.3 7.3 8.2 8.2 0 01-7.8 7c-3.8.3-7.6.2-11.4.2-.2 0-.7-.5-.7-.8v-5.3c0-1 .5-1 1.2-1h7.2c4.9 0 6.4-1.6 6-6.5 0-1.5-.3-3-.4-4.4-.1-1-.6-1.2-1.5-1.2H11.8c-1 0-1.4-.3-1.3-1.3v-4.8c0-.8.3-1.1 1.1-1.1h31.2c.6 0 1 0 1 .8v6.5zM45.9 127h6v11.6l1.9.1h23.7c1.2 0 1.7.3 1.6 1.6v5.6H47.2c-1.1 0-1.4-.3-1.4-1.4v-16.3-1.3zM0 25.7v-3.8c0-.3.3-.6.6-.8a4 4 0 002.5-3.8 4 4 0 00-2.4-3.8 1.3 1.3 0 01-.7-.8V9a7.5 7.5 0 016.2 3.6 8.6 8.6 0 01.1 9.4A7.5 7.5 0 010 25.7z"/></svg>
