<svg xmlns="http://www.w3.org/2000/svg" viewBox="0 0 46 160"><path fill="#fff" d="M4.6 100.3L43 94.4v-5.2L4.6 95zM4.6 100.5v9h38.2v-9zM4.6 127v33h38.2v-29.7zM42.8 122.4v-10H4.6v6.8zM22.3 70v3.1H15a7.3 7.3 0 011.3 4.2c0 2.7-1.5 5.4-5.7 5.4h-6v-3.1h5.2c2.8 0 3.6-1.4 3.6-3.1a6 6 0 00-1.2-3.4H4.7V70zM22.3 66.6H4.7v-3h12.5L4.7 54.2v-2.7h17.6v3H9.8L22.3 64zM4.7 48.8V34.3h2.9V40h14.7v3.1H7.6v5.7zM4.6 29.5v-2.7l17.7-7.5v3.3l-4.5 1.9V32l4.5 1.8V37zM15 30.8v-5.2l-6.3 2.6zM22.3 17.4H4.7v-3h12.5L4.7 5V2.3h17.6v3.1H9.8l12.5 9.3zM25.2 82.8v-10h3v6.9h14.7v3zM0 5v9h3V7zM25 62.8c0-5.2 3.5-9.2 9-9.2a9 9 0 019.2 9.2c0 5.3-3.6 9.2-9.1 9.2a8.9 8.9 0 01-9.2-9.2zm15.2 0c0-3.7-2.7-6-6.2-6a5.9 5.9 0 00-6.2 6 5.9 5.9 0 006.2 6 6 6 0 006.2-6zM42.9 50.8H25.2v-5c0-5.2 2.8-6.9 5.7-6.9s5.7 2.3 5.7 6.5v2.3h6.3zM28 47.7h5.4a20.7 20.7 0 00.2-2.2c0-1.9-1-3.3-2.9-3.3s-2.7 1.1-2.7 3.3v2.2zM25 27.6c0-5.2 3.5-9.2 9-9.2a9 9 0 019.2 9.2c0 5.3-3.6 9.2-9.1 9.2a8.9 8.9 0 01-9.2-9.2zm15.2 0c0-3.7-2.7-5.9-6.2-5.9a5.9 5.9 0 00-6.2 6 5.9 5.9 0 006.2 5.8 6 6 0 006.2-5.9zM40 18.2v-2.4l-14.7-3.3v-10H40V0h6v2.9h-3.1v12.3H46v3zm0-5.5V5.5H28.1v4.7L40 12.7z"/></svg>
