<svg xmlns="http://www.w3.org/2000/svg" viewBox="0 0 214.95 71.84"><title>detmir</title><path d="M5.34,66.5a1.42,1.42,0,0,1-.41,1,1.38,1.38,0,0,1-1,.42H1.45a1.4,1.4,0,0,1-1-.42,1.46,1.46,0,0,1-.41-1V60.14a1.45,1.45,0,0,1,.41-1,1.4,1.4,0,0,1,1-.42h.76a8.17,8.17,0,0,0,.88-1.59,16.32,16.32,0,0,0,.65-2c.17-.74.33-1.51.45-2.29s.19-1.57.24-2.34l.16-2.29a1.48,1.48,0,0,1,.48-1.05,1.45,1.45,0,0,1,1-.41H16.88a1.37,1.37,0,0,1,1,.41,1.42,1.42,0,0,1,.42,1.05V58.68h1.41a1.4,1.4,0,0,1,1,.42,1.45,1.45,0,0,1,.41,1V66.5a1.46,1.46,0,0,1-.41,1,1.4,1.4,0,0,1-1,.42H17.29a1.38,1.38,0,0,1-1-.42,1.42,1.42,0,0,1-.42-1V64.09H5.34Zm7.25-14.42H10l-.07.7a19.5,19.5,0,0,1-.73,3.65,8.9,8.9,0,0,1-1,2.25h4.37Z" fill="#fff"/><path d="M28.67,57.3a3.12,3.12,0,0,0,1.52,1.81,5.24,5.24,0,0,0,2.52.58,9.58,9.58,0,0,0,1.69-.12,6.28,6.28,0,0,0,1.41-.39,2.54,2.54,0,0,1,.85-.15,1.42,1.42,0,0,1,1.34.82l.62,1.24a1.57,1.57,0,0,1,.16.7,1.38,1.38,0,0,1-.69,1.27,10.72,10.72,0,0,1-3,1.21,16,16,0,0,1-2.95.27,10.67,10.67,0,0,1-3.86-.66,8.15,8.15,0,0,1-4.81-4.78,10.18,10.18,0,0,1-.67-3.76,9.32,9.32,0,0,1,.67-3.56,9,9,0,0,1,1.88-2.93,8.62,8.62,0,0,1,2.93-2,10.13,10.13,0,0,1,3.86-.71,8.81,8.81,0,0,1,3.16.57,7.87,7.87,0,0,1,2.65,1.68A8.47,8.47,0,0,1,39.76,51a8.06,8.06,0,0,1,.69,3.37,10.65,10.65,0,0,1-.12,1.75,1.45,1.45,0,0,1-.49.8,1.18,1.18,0,0,1-.82.37Zm6-3.88A2.35,2.35,0,0,0,34,51.78,2.68,2.68,0,0,0,31.9,51a3.46,3.46,0,0,0-2.23.63,4,4,0,0,0-1.19,1.78h6.21Z" fill="#fff"/><path d="M48.4,64.09a1.4,1.4,0,0,1-1-.42A1.46,1.46,0,0,1,47,62.62V52.46H43.43a1.38,1.38,0,0,1-1-.42A1.42,1.42,0,0,1,42,51V48.13a1.42,1.42,0,0,1,.42-1.05,1.37,1.37,0,0,1,1-.41H56.22a1.39,1.39,0,0,1,1,.41,1.46,1.46,0,0,1,.41,1.05V51a1.45,1.45,0,0,1-.41,1,1.4,1.4,0,0,1-1,.42H52.71V62.62a1.42,1.42,0,0,1-.42,1.05,1.38,1.38,0,0,1-1,.42Z" fill="#fff" fill-rule="evenodd"/><path d="M71.62,52.3A5.72,5.72,0,0,0,69,51.61a4,4,0,0,0-1.34.22,3.76,3.76,0,0,0-1.19.72,3.71,3.71,0,0,0-.86,1.19,3.64,3.64,0,0,0-.33,1.62A3.71,3.71,0,0,0,65.6,57a4,4,0,0,0,.88,1.19,3.5,3.5,0,0,0,1.21.73,3.79,3.79,0,0,0,1.36.24,5,5,0,0,0,2.69-.85,1.85,1.85,0,0,1,1.07-.35,1.42,1.42,0,0,1,1.19.63l1.19,1.59a1.5,1.5,0,0,1,.31.92,1.46,1.46,0,0,1-.62,1.24,9.33,9.33,0,0,1-3.26,1.82,11.06,11.06,0,0,1-2.91.42,11.4,11.4,0,0,1-4-.67,8.54,8.54,0,0,1-3-1.86,8.16,8.16,0,0,1-1.92-2.92,10.13,10.13,0,0,1-.67-3.75,9.52,9.52,0,0,1,.66-3.57,8.71,8.71,0,0,1,1.86-2.93,8.58,8.58,0,0,1,2.89-2,9.58,9.58,0,0,1,3.71-.72,13.81,13.81,0,0,1,3.1.32,8.88,8.88,0,0,1,2.92,1.32,1.58,1.58,0,0,1,.84,1.36,1.31,1.31,0,0,1-.22.74l-1.1,1.87a1.44,1.44,0,0,1-1.31.76A1.4,1.4,0,0,1,71.62,52.3Z" fill="#fff" fill-rule="evenodd"/><path d="M84.48,55.76v6.86a1.46,1.46,0,0,1-.41,1.05,1.4,1.4,0,0,1-1,.42H80.21a1.4,1.4,0,0,1-1-.42,1.46,1.46,0,0,1-.41-1.05V48.11a1.45,1.45,0,0,1,.41-1,1.4,1.4,0,0,1,1-.42H83a1.4,1.4,0,0,1,1,.42,1.45,1.45,0,0,1,.41,1v6.13l4.45-6.63a2.42,2.42,0,0,1,.79-.7,2.09,2.09,0,0,1,1-.28h2.69a1.39,1.39,0,0,1,1.07.47,1.55,1.55,0,0,1,.41,1,1.46,1.46,0,0,1-.31.89l-4,5.43,1.88,2.6a4,4,0,0,0,2.07,1.68,2,2,0,0,1,1.17.57A2.21,2.21,0,0,1,96,60.6V63a1.31,1.31,0,0,1-.35.86,1.33,1.33,0,0,1-.81.47c-.21,0-.4,0-.57,0a5.06,5.06,0,0,1-.57,0,6.6,6.6,0,0,1-1.43-.16,5.39,5.39,0,0,1-1.5-.56,6.54,6.54,0,0,1-1.5-1.15,11.89,11.89,0,0,1-1.52-1.9Z" fill="#fff" fill-rule="evenodd"/><path d="M112.52,64.09a1.4,1.4,0,0,1-1-.42,1.46,1.46,0,0,1-.41-1.05V55l-5.48,8.15a3.13,3.13,0,0,1-.71.7,1.78,1.78,0,0,1-.93.28h-3.29a1.4,1.4,0,0,1-1-.42,1.42,1.42,0,0,1-.41-1V48.13a1.42,1.42,0,0,1,.41-1.05,1.39,1.39,0,0,1,1-.41h2.82a1.39,1.39,0,0,1,1,.41,1.46,1.46,0,0,1,.41,1.05v7.65l5.48-8.15a2.87,2.87,0,0,1,.69-.7,1.59,1.59,0,0,1,.92-.28h3.32a1.42,1.42,0,0,1,1.45,1.46V62.62a1.42,1.42,0,0,1-.41,1.05,1.4,1.4,0,0,1-1,.42Z" fill="#fff" fill-rule="evenodd"/><path d="M134.36,64.09a1.38,1.38,0,0,1-1-.42,1.42,1.42,0,0,1-.42-1.05V55l-5.48,8.15a3.13,3.13,0,0,1-.71.7,1.73,1.73,0,0,1-.93.28H122.5a1.38,1.38,0,0,1-1-.42,1.42,1.42,0,0,1-.42-1V48.13a1.42,1.42,0,0,1,.42-1.05,1.37,1.37,0,0,1,1-.41h2.83a1.37,1.37,0,0,1,1,.41,1.42,1.42,0,0,1,.42,1.05v7.65l5.48-8.15a2.87,2.87,0,0,1,.69-.7,1.58,1.58,0,0,1,.91-.28h3.33a1.38,1.38,0,0,1,1,.42,1.42,1.42,0,0,1,.42,1V62.62a1.42,1.42,0,0,1-.42,1.05,1.38,1.38,0,0,1-1,.42ZM133.52,39a2.27,2.27,0,0,1,1.74.66,2.45,2.45,0,0,1,.58,1.71,3.09,3.09,0,0,1-1.48,2.57A7.55,7.55,0,0,1,130,45a7.85,7.85,0,0,1-4.62-1.05A3.11,3.11,0,0,1,124,41.37a2.59,2.59,0,0,1,.56-1.71,2.22,2.22,0,0,1,1.73-.66,2.11,2.11,0,0,1,1.45.42,2.37,2.37,0,0,1,.65,1,2.26,2.26,0,0,0,.54.87,1.43,1.43,0,0,0,1.07.33,1.23,1.23,0,0,0,1-.33,2.8,2.8,0,0,0,.5-.87,2.13,2.13,0,0,1,.66-1A2.09,2.09,0,0,1,133.52,39Z" fill="#fff"/><path d="M156.28,62.62a1.42,1.42,0,0,1-.42,1.05,1.38,1.38,0,0,1-1,.42H152a1.38,1.38,0,0,1-1-.42,1.42,1.42,0,0,1-.42-1.05V48.11a1.42,1.42,0,0,1,.42-1,1.38,1.38,0,0,1,1-.42h2.72a2.24,2.24,0,0,1,1.76.89l4.4,5,4.05-5a3.23,3.23,0,0,1,.76-.68,1.82,1.82,0,0,1,1-.24h2.56a1.4,1.4,0,0,1,1,.42,1.45,1.45,0,0,1,.41,1V62.62a1.46,1.46,0,0,1-.41,1.05,1.4,1.4,0,0,1-1,.42H166.4a1.4,1.4,0,0,1-1-.42,1.46,1.46,0,0,1-.41-1.05v-7.1l-3.28,3.73a1.28,1.28,0,0,1-1,.48,1.41,1.41,0,0,1-1-.42l-3.41-3.76v7.07Z" fill="#fff" fill-rule="evenodd"/><path d="M188.21,64.09a1.4,1.4,0,0,1-1-.42,1.46,1.46,0,0,1-.41-1.05V55l-5.48,8.15a3.13,3.13,0,0,1-.71.7,1.78,1.78,0,0,1-.93.28h-3.3a1.4,1.4,0,0,1-1-.42,1.42,1.42,0,0,1-.41-1V48.13a1.42,1.42,0,0,1,.41-1.05,1.39,1.39,0,0,1,1-.41h2.83a1.39,1.39,0,0,1,1,.41,1.46,1.46,0,0,1,.41,1.05v7.65l5.48-8.15a2.87,2.87,0,0,1,.69-.7,1.59,1.59,0,0,1,.92-.28H191a1.4,1.4,0,0,1,1,.42,1.45,1.45,0,0,1,.41,1V62.62a1.46,1.46,0,0,1-.41,1.05,1.4,1.4,0,0,1-1,.42Z" fill="#fff" fill-rule="evenodd"/><path d="M202.47,70.38a1.4,1.4,0,0,1-.42,1,1.38,1.38,0,0,1-1,.42h-2.83a1.38,1.38,0,0,1-1-.42,1.4,1.4,0,0,1-.42-1V48.11a1.42,1.42,0,0,1,.42-1,1.38,1.38,0,0,1,1-.42h3a1.21,1.21,0,0,1,.9.36,1.26,1.26,0,0,1,.36.91,6.52,6.52,0,0,1,2-1.22,7.11,7.11,0,0,1,2.83-.52,7.37,7.37,0,0,1,3.15.66,6.51,6.51,0,0,1,2.43,1.87,9.1,9.1,0,0,1,1.56,2.83A11.21,11.21,0,0,1,215,55.1a10.22,10.22,0,0,1-.67,3.7,9.08,9.08,0,0,1-1.88,3,9,9,0,0,1-2.92,2,9.55,9.55,0,0,1-3.81.73,11.24,11.24,0,0,1-1.74-.14,6.09,6.09,0,0,1-1.48-.4v6.36Zm0-11.91a4.45,4.45,0,0,0,1.2.52,6.41,6.41,0,0,0,1.49.14A3.29,3.29,0,0,0,207.93,58a4.37,4.37,0,0,0,.9-2.78,4,4,0,0,0-.86-2.56,3.07,3.07,0,0,0-2.52-1,4,4,0,0,0-3,1.55Z" fill="#fff"/><path d="M159.55,15.62a38.78,38.78,0,0,1-3,6.41,3.94,3.94,0,0,1-4.15,1.9,47,47,0,0,1-6.69-1.9,47.09,47.09,0,0,1-6.37-2.77,3.89,3.89,0,0,1-2-4.08,39.76,39.76,0,0,1,1.87-6.8,39.63,39.63,0,0,1,3-6.41,3.94,3.94,0,0,1,4.15-1.9,52.12,52.12,0,0,1,13.06,4.67,3.89,3.89,0,0,1,2,4.08A38.84,38.84,0,0,1,159.55,15.62Z" fill="#fff" fill-rule="evenodd"/><path d="M131.55,8.33a38.93,38.93,0,0,1,1.9,6.78,3.87,3.87,0,0,1-1.95,4.09,47,47,0,0,1-6.34,2.8,46.6,46.6,0,0,1-6.67,1.92,3.92,3.92,0,0,1-4.15-1.87,38.28,38.28,0,0,1-3-6.38,38.93,38.93,0,0,1-1.9-6.78,3.87,3.87,0,0,1,2-4.09A47,47,0,0,1,117.75,2,46.6,46.6,0,0,1,124.42.08,3.92,3.92,0,0,1,128.57,2,37.89,37.89,0,0,1,131.55,8.33Z" fill="#fff" fill-rule="evenodd"/><path d="M103.62,15.62a38.78,38.78,0,0,1-3,6.41,3.94,3.94,0,0,1-4.15,1.9A47.41,47.41,0,0,1,89.83,22a47.09,47.09,0,0,1-6.37-2.77,3.87,3.87,0,0,1-2-4.08,38.63,38.63,0,0,1,1.86-6.8,39.5,39.5,0,0,1,3-6.41A3.93,3.93,0,0,1,90.47.07a52.23,52.23,0,0,1,13,4.67,3.89,3.89,0,0,1,2,4.08A38.84,38.84,0,0,1,103.62,15.62Z" fill="#fff" fill-rule="evenodd"/><path d="M75.63,8.33a39.63,39.63,0,0,1,1.89,6.78,3.87,3.87,0,0,1-2,4.09A47,47,0,0,1,69.23,22a46.24,46.24,0,0,1-6.67,1.92,3.93,3.93,0,0,1-4.15-1.87,39.11,39.11,0,0,1-3-6.38,39.86,39.86,0,0,1-1.9-6.78A3.87,3.87,0,0,1,55.48,4.8a51.19,51.19,0,0,1,13-4.72A3.94,3.94,0,0,1,72.65,2,39.55,39.55,0,0,1,75.63,8.33Z" fill="#fff" fill-rule="evenodd"/></svg>