<svg xmlns="http://www.w3.org/2000/svg" viewBox="0 0 1254.1 192.3"><g fill="#fff"><path d="M765.7 20.9A73.7 73.7 0 00721.9 0c-1.2 17.7-2.3 33.8-2.3 35.7-.1 2.9 1.6 5.5 4.3 6.5 13.4 5.5 20.6 15.9 20.6 27.8l-5.5 92.9h-2.9v-57.8c0-7.1-7.1-9.5-7.4-16.8l-.7-15.7h.1c.4 0 .7-.2.9-.5.1-.1.1-.3.1-.4v-7.5c-.1-.6-.5-1-1.1-1h-7c-.6 0-1 .4-1.1 1v7.3c0 .6.4 1 1 1h.1l-.7 15.7c-.4 7.3-7.4 9.7-7.4 16.8l-1.8 57.9h-4.2l-1.8-57.9c0-7.1-7-9.5-7.4-16.8l-.7-15.7c.5.1 1-.3 1.1-.9V64.2c-.1-.6-.5-1-1.1-1h-7c-.6 0-1 .4-1.1 1v7.4c0 .1 0 .3.1.4.2.3.5.5.9.5h.1l-.7 15.7c-.4 7.3-7.4 9.7-7.4 16.8v57.9H679L673.5 70c0-11.9 7.2-22.3 20.5-27.8 2.7-1 4.4-3.6 4.4-6.5 0-1.8-1.1-17.9-2.3-35.7l-1.4.2 1.4-.2a74.4 74.4 0 00-43.8 21c-14.5 14.5-21.7 34.1-21.8 58.7v32c0 24.6 7.3 44.2 21.8 58.8 14.6 14.6 33.4 21.8 56.7 21.8s42.1-7.3 56.6-21.8 21.8-34.2 21.8-58.8v-32c.1-24.6-7.2-44.2-21.7-58.8zm138.3 107V80.4c0-10.2 2.9-18 8.6-23.5s12.9-8.3 21.6-8.3 14.8 3.3 19.5 9.9c4.7-6.6 11.3-9.9 19.7-9.9s16 2.7 21.7 8.2 8.5 13.3 8.5 23.6v47.5h-21.1v-46c0-10.3-3-15.4-9-15.4s-9 6-9 17.9v43.5h-21.2V84.4c0-11.9-3-17.9-9-17.9s-9 5.1-9 15.4v46H904zm105.9-25.6c0-7.9 2.7-13.9 8.1-17.9 5.4-4 12.8-6.1 22.1-6.1h9.6v-1.8c0-3.6-.8-6.3-2.5-8.1-1.7-1.8-4-2.8-7.1-2.8-6.1 0-13.3 1.3-21.5 3.8l-4.6-16.7c10.9-3.4 19.5-5 26.1-5 9.2 0 16.6 2.7 22.3 8s8.5 12.3 8.5 20.9v25.8c.1 7.4-3.2 14.4-9 19-6 5.1-13.6 7.8-21.5 7.6-8 .3-15.7-2.4-21.8-7.6-5.6-4.7-8.8-11.7-8.7-19.1zm21.4-.2c-.1 2.3.7 4.5 2.2 6.2 1.5 1.8 3.7 2.7 6.8 2.7 2.6.1 5-.9 6.8-2.7a8.4 8.4 0 002.5-6v-9.2h-9.8c-5.6 0-8.5 3-8.5 9zM1078 127V77.5c0-8.8 3-16 9-21.5s13.4-8.4 22.4-8.4c5 0 10 .8 14.7 2.4l-4 17.2c-3.4-1-6.9-1.5-10.5-1.6a9.8 9.8 0 00-7.7 3.3c-2 2.5-3 5.6-2.8 8.7V127H1078zm50.4 0V18.6h21.2v59.8l7.1-2.4c2.6-.9 4.4-3.6 5.5-8l4.6-18.5h20.6l-6.1 23.4c-.8 3.6-2 7-3.7 10.3-1.4 2.5-3.4 4.6-5.8 6l19.5 37.7h-23.4l-14.5-30.6-3.9 1.3v29.3l-21.1.1z"/><path d="M1188.1 95V81.5c0-10.4 3.1-18.6 9.2-24.7 6.1-6.1 14.1-9.2 23.8-9.2 9.7 0 17.7 3.1 23.8 9.2s9.2 14.4 9.2 24.7V95c0 10.4-3.1 18.6-9.2 24.7-6.1 6.1-14.1 9.2-23.8 9.2-9.7 0-17.7-3.1-23.8-9.2s-9.2-14.3-9.2-24.7zm21-.7c0 11.2 4 16.7 12 16.7s12-5.6 12-16.7v-12c0-11.2-4-16.7-12-16.7s-12 5.6-12 16.7v12zM877 39.3c-1.8 0-3.5-.6-4.7-1.9a6.34 6.34 0 01-.3-9l.3-.3c1.2-1.3 2.9-1.9 4.7-1.9 1.8 0 3.4.7 4.7 1.9 2.5 2.4 2.7 6.4.3 8.9l-.3.3c-1.3 1.2-2.9 2-4.7 2zm-5.4 69.7V49.4h10.6V109h-10.6zm-60.9-23.4V72.9c0-8.1 2.2-14.3 6.5-18.6 4.3-4.3 10.2-6.6 16.2-6.4 4.9.1 9.6 1.5 13.7 4.2V24.4h10.5v61.3c0 7.7-2.2 13.8-6.7 18.2-4.4 4.4-10.4 6.7-16.6 6.6-6.3.1-12.3-2.2-16.8-6.6-4.7-4.9-7.2-11.5-6.8-18.3zm10.7-.5c0 5.2 1.2 9.2 3.6 12 2.4 2.7 5.8 4.2 9.4 4.1 3.6.1 7-1.4 9.3-4.1 2.4-2.7 3.5-6.7 3.5-12V61.4c-4.6-2.7-8.9-4-12.7-4-3.6-.1-7 1.3-9.5 3.9-2.4 2.6-3.6 6.7-3.6 12.3v11.5zm-7.2 34.1h68.1v8.7h-68.1v-8.7zm13.9 30.8v16.5h-4.4v-6.1l.2-3.2-5.8 9.3h-3.8V150h4.4v6.2l-.2 3.1 5.8-9.3h3.8zm13 16.4v-12.7h-3.9V150h12.3v3.7h-3.9v12.7h-4.5zm18.2-1.1c-1-1.1-1.6-2.6-1.5-4.1-.1-1.5.6-2.9 1.7-3.8 1.4-.9 3-1.4 4.7-1.3h2v-.4c0-.6-.1-1.2-.5-1.7-.4-.4-.9-.6-1.5-.6-1.6.1-3.1.3-4.6.8l-1-3.6c1.8-.6 3.6-1 5.5-1.1 1.7-.1 3.4.5 4.7 1.7 1.2 1.1 1.9 2.7 1.8 4.4v10.8h-3.9l-.3-.9c-.8.9-1.9 1.4-3.1 1.3-1.5.1-2.9-.5-4-1.5zm3.1-4.1c0 .5.2.9.5 1.3s.9.6 1.4.6c.6 0 1.1-.2 1.5-.6.3-.3.5-.8.5-1.3v-2h-2.1c-1.2 0-1.8.7-1.8 2zm17.1 5.2l2.1-10.5c.3-1.6.9-3.1 2-4.4 1.1-1.1 2.6-1.7 4.1-1.6h6v16.5h-4.5v-12.7h-.9c-1.1 0-1.8.8-2.2 2.5l-2.1 10.2h-4.5zm38-5.5c.1 1.6-.6 3.1-1.8 4.1-1.4 1-3 1.5-4.7 1.4h-6.8v-16.5h4.5v5.8h2.4c1.7-.1 3.3.4 4.7 1.3 1.1 1 1.8 2.4 1.7 3.9zm-4.6.2c.1-.9-.6-1.8-1.5-1.9H908.7v3.7h2.3c1.3 0 1.9-.6 1.9-1.8zm13-5.8c-.1-1.5.6-3 1.8-4 1.4-1 3-1.5 4.7-1.4h6.5v16.5h-4.5v-5.9H933l-2.4 5.9h-5l3.1-6.6c-1.8-.7-3-2.5-2.8-4.5zm4.5.1c0 1.3.6 2 1.8 2h2.1v-4h-2c-.5 0-1.1.2-1.4.6-.3.4-.5.9-.5 1.4zM958 150h4.5v16.5H958v-6.7h-4.5v6.7H949V150h4.5v6h4.5v-6zm14.4 9.6v-2.9c-.1-2 .6-4 2-5.4 1.5-1.3 3.4-1.9 5.3-1.8 1.6 0 3.2.3 4.8.8l-.9 3.6c-1.2-.4-2.4-.6-3.6-.6-.8 0-1.7.2-2.3.8-.6.7-.9 1.7-.8 2.6v2.9c-.1.9.2 1.9.8 2.6.6.6 1.5.8 2.3.8 1.2 0 2.4-.2 3.6-.6l1 3.6c-1.6.5-3.2.7-4.8.8-1.9.1-3.8-.5-5.3-1.8-1.4-1.1-2.1-2.9-2.1-5.4zm21.5 6.8v-16.5h4.5v6.1l2.1-.5c.6-.4 1.1-1 1.2-1.7l1-3.9h4.4l-1.3 5c-.2.8-.4 1.5-.8 2.2-.3.5-.7 1-1.2 1.3l4.2 8h-5l-3.1-6.5-1.4.3v6.2h-4.6zm36.5-16.4v16.5h-4.4v-6.1l.2-3.2-5.8 9.3h-3.9V150h4.4v6.2l-.2 3.1 5.8-9.3h3.9zm24.2 0v16.5h-4.4v-6.1l.2-3.2-5.8 9.3h-3.8V150h4.4v6.2l-.2 3.1 5.8-9.3h3.8zm-5.4-6.7l2.8.3c.1 1.2-.4 2.3-1.3 3-.9.7-2 1.1-3.1 1.1s-2.2-.4-3-1.1c-.8-.8-1.3-1.9-1.3-3l2.8-.3c.1.5.2.9.5 1.3.2.3.6.5 1 .5.9-.1 1.4-.7 1.6-1.8zm37 6.3c1.6-.1 3.1.6 4.2 1.8 1.2 1.4 1.7 3.3 1.6 5.1v3.5c.1 1.9-.6 3.8-1.9 5.1a6.5 6.5 0 01-4.6 1.8c-1 0-2-.3-2.8-.8v7h-4.5V150h3.7l.5 1.4c.4-.6 1-1 1.6-1.4.7-.3 1.4-.5 2.2-.4zm-3.5 12.9c.7.4 1.6.6 2.4.6 1.6 0 2.4-1.1 2.4-3.3v-3.1c.1-.9-.2-1.7-.7-2.4-.4-.5-1-.9-1.7-.8-.7 0-1.3.3-1.7.8-.5.7-.8 1.5-.7 2.4v5.8zm18.7-2.8v-3.2c-.1-1.9.6-3.8 1.9-5.1a7.3 7.3 0 019.6 0c1.3 1.2 2 2.9 1.9 4.6v3.6h-9v.2c0 2.2 1 3.3 2.9 3.3 1.5 0 3-.3 4.5-.8l.9 3.6c-1.7.7-3.6 1-5.4 1-2 .1-3.9-.6-5.4-1.9-1.4-1.4-2-3.3-1.9-5.3zm4.4-3.3h4.5v-.4c0-.7-.2-1.3-.6-1.8-.8-.9-2.2-.9-3.1-.1l-.1.1c-.4.5-.6 1.1-.6 1.8l-.1.4zm18.1 3.2v-2.9c-.1-2 .6-4 2-5.4 1.5-1.3 3.4-1.9 5.3-1.8 1.6 0 3.2.3 4.8.8l-.9 3.6c-1.2-.4-2.4-.6-3.6-.6-.8 0-1.7.2-2.3.8-.6.7-.9 1.7-.8 2.6v2.9c-.1.9.2 1.9.8 2.6.6.6 1.5.8 2.3.8 1.2 0 2.4-.2 3.6-.6l1 3.6c-1.6.5-3.2.7-4.8.8-1.9.1-3.8-.5-5.3-1.8-1.4-1.1-2.1-2.9-2.1-5.4zm24.2 6.8v-12.7h-3.9V150h12.3v3.7h-3.9v12.7h-4.5zm17-6.8v-2.9c-.1-2 .6-3.9 2-5.3 2.9-2.7 7.3-2.7 10.2 0 1.4 1.4 2.1 3.3 2 5.3v2.9c.1 2-.6 3.9-2 5.3a7.43 7.43 0 01-10.2 0 6.93 6.93 0 01-2-5.3zm4.5-.1c0 2.4.9 3.6 2.5 3.6s2.6-1.2 2.6-3.6V157c0-2.4-.9-3.6-2.6-3.6s-2.5 1.2-2.5 3.6v2.5zm27.4-9.9c1.6-.1 3.1.6 4.2 1.8 1.2 1.4 1.7 3.3 1.6 5.1v3.5c.1 1.9-.6 3.8-1.9 5.1a6.5 6.5 0 01-4.6 1.8c-1 0-2-.3-2.8-.8v7h-4.5V150h3.7l.5 1.4c.4-.6 1-1 1.6-1.4.7-.3 1.4-.5 2.2-.4zm-3.5 12.9c.7.4 1.6.6 2.4.6 1.6 0 2.4-1.1 2.4-3.3v-3.1c.1-.9-.2-1.7-.7-2.4-.4-.5-1-.9-1.7-.8-.7 0-1.3.3-1.7.8-.5.7-.8 1.5-.7 2.4v5.8zm19.8 2.8c-1-1.1-1.6-2.6-1.5-4.1-.1-1.5.6-2.9 1.7-3.8 1.4-.9 3-1.4 4.7-1.3h2v-.4c0-.6-.1-1.2-.5-1.7-.4-.4-.9-.6-1.5-.6-1.6.1-3.1.3-4.6.8l-1-3.6c1.8-.6 3.6-1 5.5-1.1 1.7-.1 3.4.5 4.7 1.7 1.2 1.1 1.9 2.7 1.8 4.4v10.8h-3.9l-.3-.9c-.8.9-1.9 1.4-3.1 1.3-1.5.1-2.9-.5-4-1.5zm3.1-4.1c0 .5.2.9.5 1.3s.9.6 1.4.6c.6 0 1.1-.2 1.5-.6.3-.3.5-.8.5-1.3v-2h-2.1c-1.2 0-1.8.7-1.8 2zM1244 150h4.5v16.5h-4.5v-6.7h-4.5v6.7h-4.5V150h4.5v6h4.5v-6z"/></g></svg>
