<svg xmlns="http://www.w3.org/2000/svg" viewBox="0 0 150 53"><path fill="#fff" d="M7.5 40c0-5.4 2.4-8.8 3.9-8.8 1.7 0 2 3.5 1.5 6.5 4.5.9 6.5-1.7 6.5-4.6 0-3-3-5-7.8-5C4.7 28.1 0 33.8 0 40.3 0 48.5 4.4 52 11.3 52c4.2 0 9.3-3.1 8.3-8.2l-.4-.1c-4.1 4.1-11.7 4.7-11.7-3.8m99.1 5.8v-6.4c0-2.5.7-4 .7-4s-1.3-1.3-4-1.3c-2.6 0-3.9 1.3-3.9 1.3s.7 1.5.7 4v2c-.2 1.2-.8 2-1.8 2-.7 0-1.2-.4-1.2-1.7v-3c0-3.3-1.6-4.6-4.2-4.6-3.3 0-4.5 2.6-4.5 2.6s2.2.7 2.2 3.6v3.1c0 3.4 1.9 4.6 4.4 4.6 2.6 0 4.4-1.6 5.1-3.4v2.7c0 3.4 1.6 4.6 4.2 4.6 3.3 0 4.5-2.5 4.5-2.5s-2.2-.8-2.2-3.6m41.3 0v-6.4c0-2.5.6-4 .6-4s-1.3-1.3-3.9-1.3c-2.6 0-4 1.3-4 1.3s.7 1.5.7 4V45c-.1 1.3-.8 2.2-1.9 2.2-.7 0-1.3-.4-1.3-1.6v-7c0-3.3-1.5-4.6-4.2-4.6-3.3 0-4.4 2.6-4.4 2.6s2 .7 2 3.6v7c0 3.4 2 4.6 4.6 4.6 2.7 0 4.7-1.7 5.3-3.6.3 2.6 1.8 3.6 4.2 3.6 3.3 0 4.4-2.5 4.4-2.5s-2.1-.8-2.1-3.6M78.8 33.9a8.7 8.7 0 0 0-9 9c0 5.3 3.7 9.1 9 9.1 5.4 0 9.1-3.8 9.1-9 0-5.4-3.7-9.1-9-9.1m0 15c-1.3 0-2-2.2-2-6 0-3.7.7-6 2-6 1.2 0 1.7 2.3 1.7 6 0 3.8-.5 6-1.8 6m44.1-6.8c2-1.6 4-3.8 5.2-6.3 0 0-1.3-1.8-4.4-1.8-3 0-4.4 1.8-4.4 1.8 2.4 1.8 1.8 3.1 1.2 4-.9 1.4-1.9 2.3-2.4 2.8v-4c0-3.3-1.6-4.6-4.2-4.6-3.3 0-4.5 2.6-4.5 2.6s2.1.7 2.1 3.6v6.4c0 2.4-.6 4-.6 4s1.3 1.2 4 1.2c2.5 0 3.9-1.2 3.9-1.2s-.7-1.6-.7-4V44l.1.3c.8 2.7 3.1 7.4 6.5 7.4 4 0 4.5-4.5 4.5-4.5-3-1-5.1-2.8-6.3-5.2m-91.6-2.3a7 7 0 0 0-2.3.3v-1.3c0-3.4-1.6-4.7-4.3-4.7-3.3 0-4.4 2.6-4.4 2.6s2.1.7 2.1 3.6v5.6c0 3.5 1.7 6.2 7.7 6.2 5 0 7.6-2.5 7.6-6.2 0-4.5-3.3-6.1-6.4-6.1m-1 9.2c-.9 0-1.3-1.3-1.3-3v-3.3c1.8 0 2.7.7 2.7 3.2 0 1.8-.4 3.1-1.4 3.1m36.2-3.2v-6.4c0-2.5.7-4 .7-4s-1.3-1.3-4-1.3c-2.6 0-4 1.3-4 1.3s.8 1.5.8 4v1.5h-3.4v-2.1c0-3.4-1.5-4.7-4.2-4.7-3.3 0-4.4 2.6-4.4 2.6s2 .7 2 3.6v6.4c0 2.5-.6 4-.6 4s1.3 1.2 4 1.2c2.6 0 3.9-1.2 3.9-1.2s-.7-1.5-.7-4v-1.8H60v2.4c0 3.4 1.5 4.6 4.2 4.6 3.3 0 4.4-2.5 4.4-2.5s-2.1-.8-2.1-3.6m-21.2 0v-6.4c0-2.5.7-4 .7-4S44.7 34 42 34c-2.6 0-3.9 1.3-3.9 1.3s.7 1.5.7 4v7.9c0 3.4 1.5 4.6 4.2 4.6 3.3 0 4.4-2.5 4.4-2.5s-2-.8-2-3.6m80.4-26.1v-6.4c0-2.5.7-4 .7-4s-1.3-1.2-4-1.2c-2.6 0-4 1.2-4 1.2s.8 1.5.8 4v5.7c-.2 1.3-.9 2.2-2 2.2-.7 0-1.2-.4-1.2-1.6v-7c0-3.3-1.6-4.5-4.3-4.5-3.3 0-4.4 2.5-4.4 2.5s2.1.8 2.1 3.6v7c0 3.4 2 4.6 4.5 4.6 2.7 0 4.7-1.7 5.3-3.6.3 2.6 1.8 3.6 4.2 3.6 3.3 0 4.4-2.5 4.4-2.5s-2.1-.8-2.1-3.6m-80.3 2.9v-4.4H43V1.5S39.8 1 35 1c-4.7 0-7.8.5-7.8.5V6c0 9.1-3 12.2-3 12.2h-2.7v7.1c0 2.9 1.3 4 4 4 2.3 0 4-1.3 4-1.3s-1.1-2-1.2-5.2h10.4v2.5c0 2.9 1 4 3.6 4 2.3 0 4-1.3 4-1.3s-.8-2-.8-5.4m-9.3-4.4h-5.4a27 27 0 0 0 2.4-12.7l1.6-.1 1.4.1v12.7zM89.1 14v6.3c0 2.5-.7 4-.7 4s1.3 1.2 4 1.2c2.6 0 3.9-1.2 3.9-1.2s-.7-1.5-.7-4v-2.5l.1.3c.9 2.7 3.2 7.4 6.5 7.4 4 0 4.5-4.5 4.5-4.5-3-1-5-2.8-6.3-5.1 2-1.7 4-3.9 5.2-6.3 0 0-1.3-1.8-4.4-1.8-3 0-4.3 1.8-4.3 1.8 2.3 1.7 1.7 3 1.2 4-1 1.3-2 2.3-2.5 2.7v-3.9c0-3.4-1.5-4.6-4.2-4.6-3.3 0-4.4 2.5-4.4 2.5s2.1.8 2.1 3.7M56.2 26c5.3 0 9-3.8 9-9 0-5.4-3.7-9-9-9S47 11.5 47 17c0 5.2 3.8 9 9 9m0-15c1.4 0 1.9 2.2 1.9 6 0 3.7-.5 6-1.8 6s-1.9-2.3-1.9-6c0-3.8.6-6 1.9-6M68 14v3c0 3.4 2 4.6 4.4 4.6 2.6 0 4.5-1.5 5.1-3.3v2.6c0 3.4 1.6 4.6 4.3 4.6 3.3 0 4.4-2.5 4.4-2.5s-2.1-.8-2.1-3.6V13c0-2.4.6-4 .6-4s-1.3-1.2-3.9-1.2c-2.6 0-4 1.2-4 1.2s.7 1.6.7 4v2.1c-.2 1.2-.8 2-1.8 2-.7 0-1.2-.5-1.2-1.7v-3c0-3.4-1.5-4.6-4.2-4.6-3.3 0-4.4 2.5-4.4 2.5s2.1.8 2.1 3.6m61 4.4h5.9c2.5 0 3.8-1.8 3.8-3.7 0-2.5-1.5-3.3-1.5-3.3s-1.6 1.6-3 1.6h-2.6a2.4 2.4 0 0 0-2.5 2.3v3z"/></svg>
