<svg xmlns="http://www.w3.org/2000/svg" viewBox="0 0 499.84 289.94"><title>drugie-podarki</title><path d="M0,289.94V0H499.84V289.94ZM102,109.49V53.19H53.89v10.9C53.86,77,52.81,89.7,48.71,102c-1.51,4.53-2.56,9.75-9.54,7.78v26c1.68.1,3,.07,4.28.27,5,.77,7.38-1,7-6.35-.2-2.57.58-5.22.92-7.86h47V136a67.33,67.33,0,0,0,8-.1c1-.12,2.51-1.31,2.57-2.12.66-7.74,1.06-15.5,1.54-23.54Zm110.1,110.66c0-12.3-.12-24.11.08-35.92.06-3.75-.8-5.37-4.93-5.27-10.32.26-20.65.24-31,0-3.81-.08-4.58,1.32-4.81,4.91-.63,9.76-1.58,19.52-3,29.2-.59,4.11-1.73,8.89-8.34,7.62,0,7.07-.06,13.55.07,20a3.74,3.74,0,0,0,1.48,2.77c4.52,2.39,9.09-.3,9.54-5.37.19-2.12.62-4.22.93-6.28H206.9c0,3.14.1,5.8,0,8.44s1,3.93,3.5,3.47,6.78,2.06,7.4-2.55c.89-6.69,1-13.49,1.4-20.36Zm85.36,4.46c11.61,9.87,24.56,10,33.61,1.22,9.68-9.43,10.7-27.86,2.11-38.54a23.78,23.78,0,0,0-15.64-8.89c-7.89-1.16-14.05,2.13-19.79,7.78-.27-2.61-.46-4.53-.7-6.89-1.94-.09-3.72-.22-5.51-.23-6.61-.05-6.62,0-6.62,6.39v51.43c0,11.14,0,11.14,11.28,9.91.28,0,.53-.37,1.26-.91Zm-163.9-88.78V115.12c12.61,9.4,24.86,9.43,33.73.46,9.22-9.31,10.25-27.24,2.17-37.87A23.53,23.53,0,0,0,152,68.25c-7.21-.61-13,2.61-18.25,8-.28-2.62-.48-4.4-.67-6.2H120.89v56.91c0,11.18,0,11.18,11.34,9.88C132.37,136.78,132.49,136.61,133.53,135.83ZM405.82,230.7c7.75,2.2,13,.29,16.63-6.6,2.14-4.09,5.28-7.66,8-11.44,3.13-4.36,6.29-8.71,9.43-13.06l1.24.39v31h11.93c0-16.66,0-32.93-.1-49.21a3.64,3.64,0,0,0-2.22-2.56c-5.59-1.52-9.39,0-12.75,4.72q-7.94,11.2-15.86,22.42c-1.09,1.54-2.26,3-3.63,4.85a8.05,8.05,0,0,1-.55-1.63q-.06-10.48-.07-21c0-10.41,0-10.41-10.54-9.37a5.59,5.59,0,0,0-1.51.68ZM287.21,69.83v51.06c6.84,1.26,12.64,1.19,16.13-6,1.5-3.1,4-5.72,6-8.56l12.39-17.39c.19,2.33.33,3.27.33,4.22,0,8,.13,16,0,24-.07,3.24,1,4.58,4.31,4.31,2.56-.21,5.15-.05,7.6-.05V69.89c-10.74-1.12-10.76-1.13-16.72,7.17-3,4.19-5.94,8.43-8.93,12.63-2.82,4-5.67,7.92-8.5,11.89l-1-.4V69.83ZM260.69,200.27c-14.09-2-18.76-1.94-24.81.51-6.48,2.62-10.06,8-10.08,15.15,0,7,3.72,12.73,10.29,15,8,2.73,15.72,2.07,22.66-3.25a14.41,14.41,0,0,1,1.68-.92l.84,4.2H273c0-11.56.31-22.69-.12-33.8-.28-7.19-3.5-13.37-10.57-16.22-10.79-4.36-21.34-2.62-32,1.91.58,2.07,1,3.66,1.48,5.2s1.14,3,1.7,4.51C254.44,188.33,259.3,189.67,260.69,200.27ZM392.41,100.16c3.08-13.29-3.92-26.68-15.46-30.58a25.08,25.08,0,0,0-31.54,13.85c-5.82,13.27-1.25,28.92,10.36,35.54,12,6.83,27.58,3.9,35.14-6.82l-7-5.91c-13.61,9.4-26.32,6.6-27.58-6.08ZM128.13,232.36c15.88,0,28-11.74,27.94-27.07a27.47,27.47,0,0,0-28-27.21c-15.42.18-27.39,12-27.5,27.12C100.45,220.89,112.09,232.36,128.13,232.36ZM91,179.78a5.6,5.6,0,0,0-1.53-.58c-13.81-.06-27.63-.06-41.44-.15-3.32,0-3.14,2.16-3.14,4.41q0,16.47,0,33V230.9H57.73V190.51H79v40.43H91.4c0-16.38,0-32.34,0-48.3A21.14,21.14,0,0,0,91,179.78Zm133.4-55c-1.31.41-2.27,1-3.15.94-3-.31-6.32-.11-8.71-1.5-3.37-2-1.36-5.25-.22-8q7.8-18.64,15.58-37.29c1.19-2.86,2.28-5.76,3.72-9.4a66.68,66.68,0,0,1-7.73-.06c-4.13-.53-6.22,1.07-7.58,5.07-2.83,8.34-6.21,16.49-9.38,24.72-.77,2-1.59,4-2.83,7.06-4.16-11.89-7.75-22.42-11.61-32.85-.57-1.54-2.22-3.5-3.64-3.75-3.19-.56-6.55-.18-10.73-.18,1.76,4.59,3.22,8.41,4.7,12.23,5.72,14.72,11.13,29.57,17.26,44.12,5.07,12,17.84,15.24,28.21,7.44C227,130.56,225.74,127.74,224.39,124.77Zm123.68,54.64v51.51h12.36c-1.46-8.52,0-15.53,8-19.67a5.51,5.51,0,0,1,.78.71q4.77,6.4,9.5,12.85c5.09,6.94,9.89,8.41,18.93,5.48l-20.88-28.95,19.65-21.67c-8.74-1.52-15.67-1.4-20.63,6.28-2.59,4-6.4,7.2-9.67,10.75-1.7,1.85-3.43,3.68-6.07,6.51v-23.8ZM277.85,80V69.82h-36.4V120.9h12.63V80Z" fill="#fff"/><path d="M67.65,64.29H89.19v45.15h-28Z" fill="#fff"/><path d="M180.28,220.47c1.34-10.47,2.57-20.11,3.84-30.07h15.41c0,9.28.06,18.4-.11,27.52a3.42,3.42,0,0,1-2.3,2.43C191.34,220.57,185.55,220.47,180.28,220.47Z" fill="#fff"/><path d="M326.06,205.1c.07,9.3-5.76,16.18-13.89,16.39s-15-7.24-15-16.15c0-8.69,6.57-16,14.49-16.2S326,195.92,326.06,205.1Z" fill="#fff"/><path d="M161.89,95.46c0,9.38-6,16.13-14.13,16s-14.52-7.13-14.58-16S139.89,79.07,148,79.15,161.92,86.08,161.89,95.46Z" fill="#fff"/><path d="M249.51,207.77c2.92.32,4.92.39,6.86.78,4.73,1,5.77,3.26,3.66,7.75-3,6.34-14.13,8.75-19.41,4.2a6.49,6.49,0,0,1,1.63-11.05C244.73,208.33,247.64,208.18,249.51,207.77Z" fill="#fff"/><path d="M380.45,91.16H356.4c.1-7.06,4.73-12,11.17-12.3C375,78.53,379.5,82.77,380.45,91.16Z" fill="#fff"/><path d="M128.56,221.59c-8.41.15-15.27-6.8-15.47-15.66-.22-9.42,6.13-16.61,14.77-16.74,8.42-.12,15.58,7.28,15.66,16.19S137,221.43,128.56,221.59Z" fill="#fff"/></svg>