<svg xmlns="http://www.w3.org/2000/svg" viewBox="0 0 86.1 119.5"><path fill="#fff" d="M70.3 63.1h14.2v37.2H70.3zM50.7 61.7c-5.7 0-9.1 1.8-12.4 5.9-2.2-3.9-6.3-5.9-11.7-5.9a16 16 0 00-12.3 5.5v-4.1H.1v37.2h14.1V78.9c0-3 2.4-5.4 5.4-5.4 3 0 5.4 2.4 5.4 5.4v21.4h14.2V78.9c0-3 2.4-5.4 5.4-5.4 3 0 5.4 2.4 5.4 5.4v21.4h14.2V75.7c-.1-6.2-3-14-13.5-14M77.3 40.1c4.9 0 8.8 3.9 8.8 8.8s-3.9 8.8-8.8 8.8a8.8 8.8 0 010-17.6M42.3 45.6a8.7 8.7 0 01-8.8-8.8c0-4.9 3.9-8.8 8.8-8.8s8.8 3.9 8.8 8.8-4 8.8-8.8 8.8M50 0v20.1c-3-3-6.6-4.2-11.8-4.2C26.6 15.9 19 26.8 19 36.7c0 13.2 10.2 20.9 18.8 20.9 5.7 0 10.1-2.1 12.7-5.4v4.1h13.6V0H50zM3.8 118h.6l.8-.2a3 3 0 001.5-1.1l.5-1.2a8 8 0 000-3.4c-.1-.5-.3-.9-.6-1.3-.3-.3-.6-.6-1.1-.8-.4-.2-1-.3-1.6-.3H1.4v8.2h2.4zm-.1-9.4c1.6 0 2.9.4 3.8 1.2.9.8 1.3 2.1 1.3 3.8 0 .9-.1 1.7-.3 2.4a4 4 0 01-.9 1.7c-.4.5-.9.8-1.6 1.1-.6.2-1.4.4-2.3.4H0v-10.6h3.7zm6.4 10.6h1.7l3.3-4.4h2.4v4.4h1.4v-10.6h-4.5c-1 0-1.9.2-2.5.8-.6.5-.9 1.3-.9 2.3 0 .9.2 1.6.7 2.1.5.5 1.1.8 1.8.9l-3.4 4.5zm4.7-5.5a3 3 0 01-1.8-.5c-.4-.4-.6-.8-.6-1.5s.2-1.2.6-1.5c.4-.3 1-.4 1.8-.4h2.7v3.9h-2.7zm9.6 5.5h1.4v-9.4h3.6v-1.2h-8.5v1.2h3.6v9.4zm6.8 0H36c1 0 1.9-.3 2.4-.8.6-.5.9-1.3.9-2.3 0-1-.3-1.8-.9-2.3-.5-.6-1.3-.8-2.4-.8h-3.3v-4.3h-1.4v10.5zm1.4-1.2v-3.9h2.9c1.5 0 2.3.7 2.3 2s-.8 2-2.3 2h-2.9zm9.1 1.2h1.4v-3.7l1.7-1.6 3.8 5.4h1.8l-4.7-6.3 4.5-4.3h-1.8L43 114v-5.3h-1.4v10.5zM59 119c.6-.3 1.2-.7 1.6-1.2a5 5 0 00.9-1.8 7.6 7.6 0 000-4.2 5 5 0 00-.9-1.8 5 5 0 00-7.6 0c-.4.5-.8 1.1-1 1.8a7.6 7.6 0 000 4.2c.2.6.5 1.2 1 1.8.4.5.9.9 1.6 1.2a5 5 0 004.4 0m-3.9-1.1c-.5-.2-.8-.6-1.1-1-.3-.4-.5-.9-.6-1.4-.2-.5-.2-1-.2-1.6l.2-1.6a3.5 3.5 0 011.7-2.4c.5-.2 1-.4 1.7-.4.6 0 1.2.1 1.7.4.5.3.9.6 1.2 1 .3.4.5.9.6 1.4l.2 1.6-.2 1.6c-.1.5-.3 1-.6 1.4a3 3 0 01-1.2 1 3 3 0 01-1.7.4c-.6 0-1.2-.1-1.7-.4m9.3 1.3h5.1c.5 0 1-.1 1.4-.3.4-.2.8-.4 1-.7.3-.3.5-.6.6-1l.2-1.1c0-.7-.2-1.2-.5-1.7-.4-.5-.8-.8-1.5-.9.5-.2.9-.5 1.2-.9.3-.4.4-.9.4-1.5 0-.5-.1-1-.4-1.3-.2-.4-.5-.6-.9-.9l-.6-.2-.8-.1h-5.3v10.6zm1.4-1.2v-3.7H69l.8.1c.3 0 .5.1.8.3l.5.5.2.9a2 2 0 01-.5 1.4c-.3.4-.8.5-1.5.5h-3.5zm0-4.8v-3.4h2.8l.9.1a1.4 1.4 0 011.2.7l.2.9c0 .6-.2 1-.5 1.3-.4.3-.9.4-1.7.4h-2.9zm10.5 2.3c.1.5.3 1 .7 1.4.3.4.7.8 1.1 1 .5.3 1 .4 1.7.4.6 0 1.2-.1 1.7-.4.5-.2.8-.6 1.1-1l.7-1.4.2-1.6-.2-1.6c-.1-.5-.4-1-.7-1.4-.3-.4-.7-.8-1.1-1-.5-.2-1-.4-1.7-.4-.6 0-1.2.1-1.7.4-.5.3-.8.6-1.1 1l-.7 1.4-.2 1.6.2 1.6m-1.3-3.7a4 4 0 011-1.8 4 4 0 011.6-1.2 5 5 0 016 1.2c.4.5.8 1.1 1 1.8a7.6 7.6 0 010 4.2 4 4 0 01-1 1.8A4 4 0 0182 119a5 5 0 01-6-1.2c-.4-.5-.8-1.1-1-1.8a7.1 7.1 0 010-4.2"/></svg>
