<svg xmlns="http://www.w3.org/2000/svg" viewBox="0 0 32.61 13.96"><path fill="#fff" d="M1.39 8h1c.32 0 .62 0 .93-.06a5.56 5.56 0 001-.26 1.83 1.83 0 001.23-1.84c0-.86 0-1.68-1-1.4l-.21.07-.23.1-.22.12A6.73 6.73 0 002.22 6.3l-.28.36-.25.34-.23.37-.19.35-.22.48-.18.51a4.86 4.86 0 00-.19 1.93l.07.36.09.32.11.27.14.29.12.2.17.25.19.24.14.15L2 13l.3.2.32.15.27.09.43.08h.41a4.05 4.05 0 002.87-1 4 4 0 01-4.65.85A3.33 3.33 0 01.6 11.91a5.44 5.44 0 01-.09-4.78A7.57 7.57 0 011.91 5c.9-1 3.2-2.44 4.4-1.44a4.19 4.19 0 01.43 3.88C5.92 9.71 3.1 9.65 1.43 9.81zm6-3.92l.07.29.11.63.18.88.16.88.17 1L8.25 9l.17 1.35.15 1.31.12 1L8.83 14l.38-5.2.06-1.36c.56 1 1.53 3 2.78 3.09 1.19-.39 2.3-2.71 2.69-3.78L15 8.36l.35 1.56a4.54 4.54 0 001.07 2.27c-.61-.56-.84-2.23-1-3.34l-.08-1.09v-.87l-.06-1.07-.05-.58c0-.19 0-.5-.25-.57s-.5.24-.7.68l-.28.87A5.65 5.65 0 0112 9l-.86-1.36-.14-.45-.23-.46-.14-.3L10.4 6l-.13-.38-.1-.37-.06-.35v-.25l-.79.08v-1zm13.47 9.12l-2 .27A17 17 0 0018 9.72l-.3-.79-.35-.85-.89-.21-.46-.12.66-1.4-.15-.42-.16-.45-.17-.48c-.13-.44-.24-.88-.34-1.33l-.21-1 .34.88c.23.58.43 1 .76 1.68l.63 1.16 1 .47a12.57 12.57 0 002.43.71l.91.11.75-.74c.28-.27.65-.58 1-.85l.92-.69L25 5l.43-.28.67-.4-.77.74-.41.43-.38.4c-.24.26-.46.54-.69.81-.35.45-.56.77-.89 1.24l.29.07.52.14.86.26h-1.9l-.29.49-.25.47-.22.42-.21.44-.2.44-.18.41-.24.55L20 11l-.34-.7c.25-.34.51-.68.77-1l.7-.86h-1.39a11.52 11.52 0 01-1.17-.09L19 9a22 22 0 011.51 3.18c.1.3.32.71.39 1zM3.12 1.07a1 1 0 00-1 .9 1 1 0 001 .86 1 1 0 001-.9 1 1 0 00-1-.86zM6.38 2.4c.36 0 .62-.19.62-.4s-.31-.39-.66-.39-.65.19-.65.41.3.4.66.39zm21.69.49c-.44.11-.85 0-.93-.29s.21-.57.64-.68.85 0 .93.29-.21.57-.64.68zM26 7.79v1.82c2.16-.21 4.49-.1 5.32-2.33a4.25 4.25 0 00-.43-3.88c-1.21-1.11-3.42.32-4.31 1.32a10.46 10.46 0 00-1.49 2.21c-.76 1.7-1.17 4.9 1.3 6.16 1.59.82 3.74-.26 4.83-1.51A4.34 4.34 0 0128.47 13a2.46 2.46 0 01-2.29-.77 3.93 3.93 0 01-.69-3.74c.12-.35.24-.65.39-1l.19-.36.23-.36.25-.36.28-.36a6 6 0 011.65-1.53 3.62 3.62 0 01.72-.33c1-.17 1 .63 1 1.33A1.83 1.83 0 0129 7.43a6.37 6.37 0 01-2 .35zM31.75.08a1.24 1.24 0 01.78 1.61 1.36 1.36 0 01-1.71.74A1.23 1.23 0 0130 .82a1.35 1.35 0 011.75-.74z"/></svg>
