<svg xmlns="http://www.w3.org/2000/svg" viewBox="0 0 357 612"><path fill="#fff" d="M138 326a103 103 0 0136-82c3-3 6-4 9 0 3 3 2 7-1 10l-13 14a89 89 0 008 115l5 5c3 3 4 7 1 10s-6 3-9 0a91 91 0 01-28-38c-5-12-8-25-8-34zM226 407c-6-1-12-1-17 2-5 2-9 4-11 10-1 6 3 12 10 10l3-1-2-3c-4-4-4-7-1-10 3-4 9-3 13 1 4 5 5 10 3 16-3 7-8 11-15 11-10 2-19-4-22-12-5-10-2-22 7-29 6-6 14-9 22-9 12-2 24-1 35 3 6 2 10 5 14 10 7 9 2 22-8 23-4 1-6 0-8-4-1-3-1-6 2-8 4-2 2-4 0-5-6-4-12-5-18-5h-7zM225 235c9 0 17 0 25-4 3-2 6-4 1-7-3-2-3-5-2-8s4-4 7-4c9 1 14 10 11 19-2 7-9 12-16 14-12 5-24 5-36 4-8-1-15-4-21-9-7-7-11-15-9-24s7-15 16-17c10-3 20 2 23 11 2 8-1 16-8 19-4 1-7 0-9-3s-1-6 1-9c2-1 4-2 3-3-1-2-3-2-5-2-6 0-9 5-8 11 3 7 8 9 14 11 5 1 9 2 13 1zM355 524v17c0 2-1 4-3 4-3 0-7 2-7-2-1-3-3-3-5-3h-30c-2 0-4 0-4 2-1 5-5 3-7 3-4 0-4-2-4-5l1-31 1-8c4-10 16-13 24-5 1 1 2 3 4 0 4-6 10-8 16-7 7 1 11 6 12 12l1 4v19h1zm-11-7v-8c0-5-3-7-7-7s-7 2-7 6c-2 5-1 11-1 16 0 2 1 3 3 3 11 2 12 1 12-10zm-25 1v-6c-1-4-2-8-7-7-4 0-6 3-6 7v11c0 2 0 3 2 4 8 2 11 0 11-8v-1zM355 585v22c0 2 0 4-3 4s-6 2-7-2c-1-2-3-3-5-3h-30c-2 0-4 0-4 2-1 5-5 4-8 3-3 0-3-3-3-5v-41c0-4 1-6 6-6h11c3 0 4 3 3 6 0 2 0 5-3 5-6-1-7 2-7 6v14c0 3 2 4 4 3h1c9 1 9 1 9-9v-6c0-4 1-6 6-6 4 0 5 2 5 6l-1 11c0 3 1 5 4 5 13-1 11 2 11-11v-9c1-4-1-6-5-5-3 0-6 0-6-5s2-6 6-6h11c3 0 5 2 5 5v22zM355 174v6c0 6-3 8-9 6-3-1-12 3-12 5-1 1 0 2 1 2l7 6c1 1 2 0 3-1 6-3 10-1 10 6v13c0 2-1 4-4 4-2 0-6 1-6-2-1-4-4-6-6-8l-11-9c-3-2-5-2-7 0l-12 9c-2 1-3 2-3 4 0 5-4 5-7 4-4 0-4-3-4-5v-14c0-2 0-4 3-5 2-1 5-1 7 1 5 3 7-2 9-4 3-2-1-3-2-4-3-2-5-4-9-2-5 3-8 0-8-5v-13c0-3 1-5 4-5 3 1 6-1 7 4a605 605 0 0116 15c2 1 3 1 6-1l14-12c1-1 2-1 2-3 0-5 4-5 7-4 4 0 4 3 4 6v6zM192 347c1-6 3-15 8-22 2-3 3-5 1-8a46 46 0 017-60c3-2 6-3 10 0 2 3 2 7-1 10-6 6-10 12-11 21s2 18 9 25c6 7 6 9 0 15a32 32 0 001 45c4 4 5 8 2 12-3 3-7 2-12-2-9-9-14-20-14-36zM355 257v22c0 2 0 4-4 4-2 0-6 2-6-2-1-3-3-3-5-3h-30c-1 0-4-1-4 2-1 5-5 4-8 3-3 0-3-3-3-6v-40c0-5 2-6 6-6h9c3 0 5 0 6 5 0 4-2 6-6 6-3-1-5 1-4 4v15c-1 3 1 4 4 4h5c3 0 4-1 4-4v-13c0-3 2-4 5-4s6 0 6 4v13c0 3 1 4 4 4 10 1 10 1 10-10v-9c1-4-1-6-5-6-4 1-6-1-6-5 0-5 3-5 6-5h10c4 0 6 1 6 5v22zM295 58V36c0-2 0-5 4-5 2 0 6-1 7 3 0 3 2 3 4 3h31c1 0 3 0 3-2 1-5 5-4 7-4 4 0 4 3 4 5v15c0 3-1 4-4 4-2 0-6 2-6-2-1-3-3-3-5-3h-30c-3 0-4 1-4 4-1 12-1 12 11 13 9 0 18 0 27 4 7 4 11 10 11 18 0 3-1 5-4 5s-6 1-6-3c-1-6-5-8-10-10-8-2-17-1-26-1-2 0-3 0-3 2-1 5-5 4-8 3-3 0-3-3-3-5V58zM324 418c-28 0-35-26-27-45 4-11 16-16 31-16 13 1 23 7 27 18 4 13 1 28-8 36-6 5-14 7-23 7zm1-14h8c8-2 13-7 13-15 1-8-2-14-9-17-8-3-16-3-23 0s-10 9-10 16 4 12 10 15l11 1zM327 157c-14 0-24-3-30-15s-5-24 3-35c2-3 4-5 7-6 12-6 23-6 34-1 12 5 18 19 15 33-3 16-13 24-29 24zm19-30c0-7-2-12-9-15-8-3-17-3-25 1-6 2-8 7-8 14 0 6 2 11 8 14 8 4 16 4 24 1 7-2 10-7 10-15zM355 466v6c0 2 0 5-4 5-2 0-6 1-7-3 0-2-2-3-3-3h-32c-2 0-3 1-3 3-1 5-5 3-8 3s-3-2-3-5l1-28c0-8 2-16 10-20 12-5 24 2 27 15l1 16c-1 2 0 4 2 4 3 0 7 2 8-3 1-4 5-3 8-3s2 3 3 5v8zm-49-16c0 10-1 9 8 9h7l2-2c0-6 1-11-1-16-1-4-4-6-8-6-4 1-7 3-8 7v8zM325 303h13c3 0 6 1 7-4 0-3 4-2 6-2 3 0 4 1 4 4v16c0 2-1 4-3 4-3 0-6 1-7-2-2-3-11-5-13-3l-1 4v12c-1 12-7 18-19 18-3 0-6-1-7 3s-4 2-7 2c-2 0-3-1-3-3v-16c0-3 1-4 4-4 2 0 5-2 6 2 1 5 5 3 8 3 4 0 6-2 7-5v-14c0-1-1-2-3-2h-8c-2 0-3 0-3 2-1 5-5 4-8 3-3 0-3-3-3-6v-14c0-3 1-4 4-4s6-1 6 3c1 3 3 3 5 3h15zM266 320c-1 19-2 37-6 55l-1 4c-2 4-4 6-9 5-4-1-5-5-4-9l4-19c3-30 3-59-4-89-1-4 0-8 4-9s7 1 9 6c3 10 5 21 6 32l1 24zM151 397c6 0 11 5 11 11 1 6-5 12-11 12s-11-6-11-12 5-11 11-11zM151 245c-6 0-11-6-11-12s5-12 11-12 12 6 11 12c0 7-5 12-11 12zM112 309c6 0 11 5 11 12 0 6-5 11-11 11s-11-4-11-11 4-12 11-12z"/></svg>
