<svg xmlns="http://www.w3.org/2000/svg" viewBox="0 0 22.92 35.87">
  <g id="Layer_2" data-name="Layer 2">
    <g id="Layer_1-2" data-name="Layer 1">
      <g>
        <path d="M1.8,31.84V30.52H7.68a2.55,2.55,0,0,1,1.91.75,2.78,2.78,0,0,1,.73,2,2.44,2.44,0,0,1-.1.71,2.26,2.26,0,0,1-.23.58L9.7,35l-.24.26-.1.08-.84-.84a.67.67,0,0,0,.17-.12A1.8,1.8,0,0,0,9,34a1.3,1.3,0,0,0,.17-.68,1.42,1.42,0,0,0-.38-1.06,1.46,1.46,0,0,0-1.06-.38Z" transform="translate(-1.8 -0.53)" fill="#fff"/>
        <path d="M10.2,24.47H9.6l.08.07.17.22a3.13,3.13,0,0,1,.22.36,2.75,2.75,0,0,1,.17.49,2.35,2.35,0,0,1,.08.6,2.26,2.26,0,0,1-.68,1.69,2.58,2.58,0,0,1-1.84.64H4.44v-1.2H7.8a1.44,1.44,0,0,0,1-.39,1.33,1.33,0,0,0,.41-1,1.44,1.44,0,0,0-.44-1.1,1.78,1.78,0,0,0-1.24-.4H4.44V23.26H10.2Z" transform="translate(-1.8 -0.53)" fill="#fff"/>
        <path d="M4.44,20.32H5L5,20.25s-.09-.11-.17-.23a3.13,3.13,0,0,1-.22-.36,2.37,2.37,0,0,1-.17-.48,2.06,2.06,0,0,1-.08-.6A2.24,2.24,0,0,1,5,16.89a2.58,2.58,0,0,1,1.84-.64H10.2v1.2H6.84a1.45,1.45,0,0,0-1,.39,1.33,1.33,0,0,0-.41,1,1.45,1.45,0,0,0,.44,1.1,1.78,1.78,0,0,0,1.24.4H10.2v1.2H4.44Z" transform="translate(-1.8 -0.53)" fill="#fff"/>
        <path d="M2.13,13.39a.67.67,0,0,1,.51-.2.69.69,0,0,1,.52.2.73.73,0,0,1,.2.52.71.71,0,0,1-.2.51.7.7,0,0,1-.52.21.72.72,0,0,1-.72-.72A.7.7,0,0,1,2.13,13.39Zm2.31-.08H10.2v1.2H4.44Z" transform="translate(-1.8 -0.53)" fill="#fff"/>
        <path d="M9.42,11a2.85,2.85,0,0,1-2.1.9A2.88,2.88,0,0,1,5.21,11a2.87,2.87,0,0,1-.89-2.1,2.91,2.91,0,0,1,.89-2.11,2.87,2.87,0,0,1,2.11-.89,2.84,2.84,0,0,1,2.1.89,2.88,2.88,0,0,1,.9,2.11A2.85,2.85,0,0,1,9.42,11ZM8.68,7.66a1.9,1.9,0,0,0-1.36-.53A1.9,1.9,0,0,0,6,7.66,1.72,1.72,0,0,0,6,10.2a1.9,1.9,0,0,0,1.36.53,1.9,1.9,0,0,0,1.36-.53,1.72,1.72,0,0,0,0-2.54Z" transform="translate(-1.8 -0.53)" fill="#fff"/>
        <path d="M5.46,1.37a2.23,2.23,0,0,0-.06.54A1.45,1.45,0,0,0,5.84,3a1.78,1.78,0,0,0,1.24.4H10.2v1.2H4.44V3.41H5L5,3.34s-.09-.11-.17-.23a3.13,3.13,0,0,1-.22-.36,2.62,2.62,0,0,1-.17-.48,2.06,2.06,0,0,1-.08-.6v-.3Z" transform="translate(-1.8 -0.53)" fill="#fff"/>
        <path d="M16.2,36.4V30h1.2v2.52h7.2v1.32H17.4V36.4Z" transform="translate(-1.8 -0.53)" fill="#fff"/>
        <path d="M19.86,26.38a2.23,2.23,0,0,0-.06.54A1.39,1.39,0,0,0,20.25,28a1.74,1.74,0,0,0,1.23.41H24.6v1.2H18.84v-1.2h.6l-.08-.08-.17-.22a3.13,3.13,0,0,1-.22-.36,2.75,2.75,0,0,1-.17-.49,2.33,2.33,0,0,1-.08-.59v-.3Z" transform="translate(-1.8 -0.53)" fill="#fff"/>
        <path d="M22.14,20.09v4.5a1.81,1.81,0,0,0,1.5-1.81,2,2,0,0,0-.23-.94,2.11,2.11,0,0,0-.44-.62L22.74,21l.78-.78.14.11a3.81,3.81,0,0,1,.28.31,3,3,0,0,1,.36.51,4,4,0,0,1,.29.7,3.36,3.36,0,0,1,.13.89,2.85,2.85,0,0,1-.9,2.11,2.94,2.94,0,0,1-2.16.89,2.94,2.94,0,0,1-2.94-2.94A2.75,2.75,0,0,1,21.54,20Zm-2.4,2.76a1.6,1.6,0,0,0,.39,1.09,1.85,1.85,0,0,0,1,.59V21.2a1.61,1.61,0,0,0-1.38,1.65Z" transform="translate(-1.8 -0.53)" fill="#fff"/>
        <path d="M18.84,17.51h.6l-.08-.08-.17-.22a3.13,3.13,0,0,1-.22-.36,2.75,2.75,0,0,1-.17-.49,2.33,2.33,0,0,1-.08-.59,2.23,2.23,0,0,1,.68-1.69,2.58,2.58,0,0,1,1.84-.65H24.6v1.2H21.24a1.42,1.42,0,0,0-1,.4,1.31,1.31,0,0,0-.41,1,1.4,1.4,0,0,0,.45,1.09,1.74,1.74,0,0,0,1.23.41H24.6v1.2H18.84Z" transform="translate(-1.8 -0.53)" fill="#fff"/>
        <path d="M18.72,9.29a2.72,2.72,0,0,1,.08-.63A2.59,2.59,0,0,1,19,8.14a4.2,4.2,0,0,1,.24-.38,1.15,1.15,0,0,1,.19-.24l.08-.08H16.2V6.23h8.4V7.44h-.66l.22.23a2.69,2.69,0,0,1,.34.63,2.37,2.37,0,0,1,.22,1,2.64,2.64,0,0,1-.88,2,2.94,2.94,0,0,1-2.12.84,3,3,0,0,1-2.13-.84A2.66,2.66,0,0,1,18.72,9.29Zm4.36,1.1a1.66,1.66,0,0,0,.56-1.22A1.64,1.64,0,0,0,23.08,8a1.93,1.93,0,0,0-1.36-.52A1.89,1.89,0,0,0,20.37,8a1.61,1.61,0,0,0-.57,1.21,1.63,1.63,0,0,0,.57,1.22,1.9,1.9,0,0,0,1.35.53A1.94,1.94,0,0,0,23.08,10.39Z" transform="translate(-1.8 -0.53)" fill="#fff"/>
        <path d="M19.5.77l.78.78-.13.14a1.57,1.57,0,0,0-.22.38,1.44,1.44,0,0,0-.13.57,1,1,0,0,0,.18.61.52.52,0,0,0,.42.22.51.51,0,0,0,.42-.21,1.48,1.48,0,0,0,.26-.55c.06-.22.13-.45.22-.7a5.83,5.83,0,0,1,.3-.71,1.32,1.32,0,0,1,.5-.55,1.54,1.54,0,0,1,.82-.22,1.62,1.62,0,0,1,1.27.6,2.29,2.29,0,0,1,.53,1.57,3,3,0,0,1-.11.8,2.36,2.36,0,0,1-.25.63,4,4,0,0,1-.29.43,2.31,2.31,0,0,1-.26.27l-.11.09-.78-.78L23.13,4a2,2,0,0,0,.31-.49,1.55,1.55,0,0,0,.2-.77,1.1,1.1,0,0,0-.2-.73.63.63,0,0,0-.52-.24A.52.52,0,0,0,22.5,2a1.65,1.65,0,0,0-.26.55c-.06.21-.13.45-.22.7s-.19.49-.29.71a1.41,1.41,0,0,1-.51.55,1.52,1.52,0,0,1-2-.37,2.12,2.12,0,0,1-.51-1.45A2.93,2.93,0,0,1,18.8,2,2.13,2.13,0,0,1,19,1.44a2.81,2.81,0,0,1,.24-.36,1.92,1.92,0,0,1,.19-.23Z" transform="translate(-1.8 -0.53)" fill="#fff"/>
      </g>
    </g>
  </g>
</svg>
