<svg xmlns="http://www.w3.org/2000/svg" viewBox="0 0 10.07 27.36"><title>kartoshka</title><path d="M2.92,17.89a.18.18,0,1,1,.18-.18A.19.19,0,0,1,2.92,17.89Zm.17-8.36a.18.18,0,0,0-.18-.18.17.17,0,0,0-.17.18.18.18,0,0,0,.18.18A.18.18,0,0,0,3.09,9.53Zm-.64,7.59,0,0c-.06-.05,0-.12.07-.35a.28.28,0,0,0-.09-.34.31.31,0,0,0-.13-.06l-.21.27,0,0c.06.05,0,.1,0,.18a.22.22,0,0,0,.08.24v0c-.24-.13-.27.14-.41,0l0,0-.18.23a.63.63,0,0,0,.11.12c.15.12.29,0,.42-.06s.16-.1.2-.07l0,0-.1.13c0,.06-.07,0-.1,0l0,0-.14.17.45.35.14-.17,0,0s0,0,0-.09l.38-.49c0-.05.06,0,.09,0l.05,0L3.13,17l-.45-.35-.14.18,0,0s.06,0,0,.1ZM1.1,16.34l.23-.17c-.07-.1-.14-.13-.23-.06s-.08.13,0,.23Zm.53-.41c.05,0,0-.06,0-.09l0-.05.18-.13.37.48L2,16.27l0-.05s0,0-.09,0l-.5.38c-.05,0,0,.06,0,.09l0,.05-.18.13-.27-.37c-.23-.31-.29-.53,0-.72s.47,0,.64.24ZM.4,15c0,.14.23.09.36,0l.11,0c.16-.05.31-.11.27-.25s-.2-.1-.36-.05l-.11,0c-.15,0-.31.11-.27.25Zm-.15-.41a.71.71,0,0,1,.36-.24.8.8,0,0,1,.43,0,.52.52,0,0,1,.33.36.5.5,0,0,1-.07.49.71.71,0,0,1-.37.23.67.67,0,0,1-.43,0A.52.52,0,0,1,.16,15,.56.56,0,0,1,.25,14.56Zm1-.5.19-1.68-.22,0v.05s0,.06-.07.05l-.62-.07s-.07,0-.06-.07v-.05l-.22,0-.06.53.22,0h0c0-.06,0-.06.07-.05l.67.07,0,.2L.41,13s-.07,0-.06-.06h0l-.22,0,0,.48.22,0h0c0-.06,0-.06.07,0l.66.07,0,.2-.67-.07c-.05,0-.07,0-.06-.07h0l-.22,0L0,14l.22,0v-.05c0-.06,0-.06.07-.05l.62.07C1,14,1,14,1,14v.05Zm.12-2.57,0,0c0-.07.12,0,.35,0A.3.3,0,0,0,2,11.33a.29.29,0,0,0,0-.14L1.76,11a.08.08,0,0,1,0,.05c0,.07-.09,0-.18,0a.19.19,0,0,0-.22.12h0c.1-.25-.18-.24-.09-.4v0L1,10.63a.64.64,0,0,0-.1.13c-.09.17,0,.29.13.41s.12.15.1.19l0,0L1,11.31c-.06,0,0-.07,0-.09v0l-.19-.11-.28.5.19.11,0-.06s0-.05.09,0l.55.3c.06,0,0,.05,0,.08l0,.06.19.11.28-.5-.19-.11v0s0,.06-.09,0Zm.75-1.56.14.33.16-.13-.3-.2Zm.79.08c.06,0,.09.06.13,0l0,0,.14.17-.44.37-.14-.17,0,0s0,0,0,0l-.05,0-.27.23,0,0s.05,0,.07,0h0l.14.17L2.19,11l-.14-.17,0,0c.05,0,0-.08,0-.18l-.21-.51,0,0s0,0-.07,0l0,0-.14-.17.52-.43Zm1,16,.4.14v0a.09.09,0,0,1,0-.08.17.17,0,0,1,.1,0l.07,0,.07,0,.2.18.09.12H4.38a.13.13,0,0,1-.1,0,.12.12,0,0,1,0-.09v0l-.42-.15v1.09l.42.14v0a.22.22,0,0,1,0-.14.16.16,0,0,1,.13-.06h1.4a.15.15,0,0,1,.1,0,.13.13,0,0,1,0,.09v0l.43.16V26.22L6,26.06v.13a.28.28,0,0,1,0,.13.11.11,0,0,1-.1.05H5.42l.5-.44.46-.33h0V25L6,24.79v0a.34.34,0,0,1,0,.16.31.31,0,0,1-.08.12l-.36.29-.38.33L5,25.88l0,.05,0,0-.46-.44a.77.77,0,0,1-.15-.19.37.37,0,0,1,0-.2v0L3.81,25v1Zm0-21.85.4.14v0a.1.1,0,0,1,0-.08.17.17,0,0,1,.1,0l.07,0,.07,0,.2.18.09.12H4.37a.13.13,0,0,1-.1,0,.12.12,0,0,1,0-.09v0l-.42-.15V5.3l.42.14v0a.27.27,0,0,1,0-.15.18.18,0,0,1,.13-.06H5.82a.15.15,0,0,1,.1,0,.1.1,0,0,1,0,.09v0l.43.16V4.36L6,4.2v.13a.25.25,0,0,1,0,.13.11.11,0,0,1-.1,0H5.42c.16-.15.32-.3.5-.44l.47-.33h0V3.09L6,2.93V3a.34.34,0,0,1,0,.16.23.23,0,0,1-.08.12l-.36.29-.38.33L5,4l0,.05,0,0-.46-.44a.77.77,0,0,1-.15-.19.49.49,0,0,1,0-.2v0l-.42-.15v1Zm1.67,16v.22l0,.12h.29a.25.25,0,0,0,.15,0A.14.14,0,0,0,6,20.33v-.2l.43.16V21.5L6,21.34v0a.12.12,0,0,0,0-.09.17.17,0,0,0-.1,0H4.42a.16.16,0,0,0-.13.06.2.2,0,0,0-.06.14v0l-.4-.14h0V20.15A.78.78,0,0,1,4,19.57a.75.75,0,0,1,.55-.23.92.92,0,0,1,.67.22.74.74,0,0,1,.24.6Zm-.56.25a.45.45,0,0,0,0-.08l0-.08a.25.25,0,0,0-.09-.2h0A.36.36,0,0,0,4.64,20a.49.49,0,0,0-.28.07.21.21,0,0,0-.13.2.17.17,0,0,0,0,.12.14.14,0,0,0,.1.05h.46S4.9,20.41,4.93,20.41ZM3.8,8.58V9.63l.42.15v0a.22.22,0,0,1,0-.14.18.18,0,0,1,.13-.06H5.81a.15.15,0,0,1,.1,0,.12.12,0,0,1,0,.09v0l.43.16V6.14L5.94,6V6.1a.21.21,0,0,1,0,.12.12.12,0,0,1-.1,0H4.34a.13.13,0,0,1-.1,0,.12.12,0,0,1,0-.08v0L3.78,6v1.1l.42.14v0A.25.25,0,0,1,4.26,7,.18.18,0,0,1,4.39,7H5.94A.23.23,0,0,0,6,7V7.4s0,.11,0,.17H4.35a.13.13,0,0,1-.1,0,.12.12,0,0,1,0-.08v0l-.42-.15V8.37l.42.14v0a.2.2,0,0,1,.06-.15.18.18,0,0,1,.13-.06H6a.1.1,0,0,0,0,0v.38s0,.12,0,.17H4.37a.13.13,0,0,1-.1,0,.12.12,0,0,1,0-.09v0l-.42-.15v0Zm0,10.31h.94v-.06l-.15-.44H4.52a.19.19,0,0,1-.15-.08.28.28,0,0,1-.06-.16H5.76a.16.16,0,0,1,.14.07.27.27,0,0,1,.06.17v0l.43.16V17.25L6,17.09v.21a.14.14,0,0,1-.06.12.25.25,0,0,1-.15,0H4.31a.25.25,0,0,1,.06-.16.18.18,0,0,1,.15-.07h.26V17.2l-.15-.44H3.81v2.13Zm2.14,3v0L6.4,22v1.29L6,23.17v0a.27.27,0,0,0-.08-.21.24.24,0,0,0-.15,0l-.17,0s0,.15,0,.15v.34a.92.92,0,0,0,0,.15l.17,0a.19.19,0,0,0,.17-.07A.31.31,0,0,0,6,23.35v0l.42.15v1L6,24.33H6a.41.41,0,0,0,0-.09l-.09-.07c-.3-.13-.65-.27-1-.41s-.64-.23-1-.32h0l-.08-.54v0h0c.24-.07.54-.16.92-.3s.72-.27,1-.39a.63.63,0,0,0,.2-.13c.09-.08.1-.11.1-.12Zm-.81,1.14a3.89,3.89,0,0,0-.41.18l.41.17a.22.22,0,0,1,0-.06v-.24A.11.11,0,0,0,5.17,23.06ZM6,.05V0l.42.15V1.45L6,1.3v0a.26.26,0,0,0-.08-.21.24.24,0,0,0-.15,0l-.17,0s0,.15,0,.15v.34a.92.92,0,0,0,0,.15l.17,0a.18.18,0,0,0,.17-.08A.29.29,0,0,0,6,1.46v0l.42.15v1L6,2.44H6a.2.2,0,0,0,0-.09l-.09-.07c-.3-.13-.65-.27-1-.41s-.64-.22-1-.32h0L3.72,1V1h0C4,.9,4.28.81,4.66.67s.72-.27,1-.39a.63.63,0,0,0,.2-.13C6,.09,6,.06,6,.05ZM5.15,1.18a3.89,3.89,0,0,0-.41.18l.41.17a.22.22,0,0,1,0-.06V1.23A.18.18,0,0,0,5.15,1.18Zm-.28,10.5a.27.27,0,0,0,0,.11l0,0a.27.27,0,0,1,0-.11L5,11.63l0,0S4.91,11.62,4.87,11.68Zm.16.16a.07.07,0,0,0,0-.09s0-.05-.07-.05a.07.07,0,0,0,0,.07S5,11.85,5,11.84Zm-.14-1.29a.51.51,0,0,1,.14.36S5.17,10.62,4.89,10.55Zm.31.91a.27.27,0,0,1,.1,0v-.06l-.11,0a.47.47,0,0,0-.1.06l0,0Zm4.11,1.92a.29.29,0,0,1-.29.26c-.11,0-.16-.1-.18-.17a1,1,0,0,1,0-.34s-.1.07-.16,0l0,0A4.41,4.41,0,0,1,7.52,14s0,.15.08.28-.11.09-.18.09-.28,0-.41,0,0,.07,0,.09-.09,0-.12,0a3.11,3.11,0,0,1-.72-.5c.09.39.27.86,0,1.24a1.22,1.22,0,0,1-.49.49,9.71,9.71,0,0,0-1,.34,1.55,1.55,0,0,1-1.42-.19A3.83,3.83,0,0,1,2,13.55a6.8,6.8,0,0,1,.25-1.36,1,1,0,0,1,.39-.74,2,2,0,0,1,.23-.18c0-.09.1-.23.2-.27a1.13,1.13,0,0,1,.81,0A.55.55,0,0,1,4,10.9a.53.53,0,0,1,.15-.43.51.51,0,0,1,.59-.12.42.42,0,0,1,.59,0,.49.49,0,0,1,0,.51s0,.06-.07.09a2,2,0,0,1,0,.2s.15-.08.18-.12a.17.17,0,0,1,0,.13.22.22,0,0,0,.06-.07.21.21,0,0,1-.1.31l.07.14,0,0,0-.05,0,.05a.43.43,0,0,1,0,.19l.2.07,0,0a6.66,6.66,0,0,0,.7.19.2.2,0,0,1,0-.15c0-.07.11-.11.17-.13a.1.1,0,0,1,.07,0c0,.06,0,.12,0,.18a.17.17,0,0,1,.17,0,.13.13,0,0,1,0,.13l0,0a3,3,0,0,0,.6,0l0,0a2.13,2.13,0,0,0,0,.25l.13,0a3.28,3.28,0,0,0,1-.1v-.06h0l.21.05a.26.26,0,0,1,.34,0,3.4,3.4,0,0,0,0,.48ZM2.92,14c-.11-.26-.28-.4-.37-.4s-.07.09-.07.18S2.7,13.78,2.92,14ZM3,11.83c-.1-.09-.21-.06-.39,0a2,2,0,0,0-.09.95C2.71,12.25,3.07,12,3,11.83Zm1.74-.05a.48.48,0,0,0,.31.32v0c0-.07,0-.18.08-.22s0-.08,0-.14a.11.11,0,0,1,.13,0,.24.24,0,0,1,.21-.07h.06a.52.52,0,0,0-.22-.29A.71.71,0,0,0,4.75,11.78Zm0,1.16a.56.56,0,0,1,.09.39h.1a.67.67,0,0,0-.1-.41S4.73,12.94,4.73,12.94ZM4,11.65a.35.35,0,0,0,.47,0l.06-.12c-.14-.06-.17-.28-.13-.27s.2.12.27,0A.94.94,0,0,1,5.25,11a.38.38,0,0,0,.06-.56.37.37,0,0,0-.51,0,.41.41,0,0,0-.52.08.47.47,0,0,0-.15.42c-.06,0-.19.1-.23.23A.38.38,0,0,0,4,11.65Zm-.78,0c.17.09.27.26.47.63a.94.94,0,0,0-.29-.71C3.3,11.53,3.26,11.58,3.21,11.66Zm.37,1.43c-.11-.26-.28-.4-.37-.4s-.07.09-.07.18S3.35,12.91,3.58,13.09ZM4,15.33a.82.82,0,0,0-.27-.55.1.1,0,0,0-.14.05A1.32,1.32,0,0,1,4,15.33Zm.65-1.78a.41.41,0,0,0,.11-.45.72.72,0,0,0-.27-.38.1.1,0,0,0-.09,0,.06.06,0,0,0,0,.07s.06.08,0,.12-.28,0-.4.11a.29.29,0,0,0-.06.34.42.42,0,0,0,.3.25A.6.6,0,0,0,4.6,13.55ZM5,14.66c0-.15-.1-.72-.44-.74.21.14.23.54.25.67S4.91,14.66,5,14.66Zm.22-1.35c-.07,0-.18-.08-.16-.12s.14,0,.13,0A.93.93,0,0,0,5,12.7l-.16.1a.93.93,0,0,1,.17.63H5.2Zm0-1.51c0-.05,0-.1,0-.1a.09.09,0,0,0,0,0,.11.11,0,0,0,0,.07A.06.06,0,0,0,5.26,11.8Zm0,.32a.33.33,0,0,0,.16,0,.43.43,0,0,0,.14-.21.39.39,0,0,1-.18.06A.44.44,0,0,1,5.27,12.12Zm.31,2.17c-.07,0-.11,0-.17.1.11,0,.15.17.21.44A.54.54,0,0,0,5.58,14.29Zm.21-2.43-.12-.06a1.2,1.2,0,0,1-.2.35H5.31v.13l.17,0v-.15l.13.06ZM7,12.71l-.78-.06a.88.88,0,0,1-.5.63,2.75,2.75,0,0,0,.48.55,2.76,2.76,0,0,0,.67.48,1.8,1.8,0,0,1-.06-.92A4,4,0,0,1,7,12.71Zm2.2.53,0-.41a3.23,3.23,0,0,0,0-.44.15.15,0,0,0-.18,0,.93.93,0,0,1,0,.13s-.13,0-.14,0l.12,0A3.72,3.72,0,0,1,9,13a3.26,3.26,0,0,0-.05.33.31.31,0,0,0,0,.19.09.09,0,0,0,.1.06C9.17,13.53,9.24,13.38,9.24,13.24ZM5.18,11.57s0,.06.08.06,0,0,0-.06,0-.07-.08-.07A.09.09,0,0,0,5.18,11.57ZM3.89,0s0,0,0,0L4.06,0V.11L3.94.16v0h.12v.1H3.73V.12a.07.07,0,0,1,0,0,.05.05,0,0,1,0,0l0,0h0l.06,0ZM3.84.11h0V.19h.06V.13h0ZM7.35,18a.13.13,0,0,0,0-.19.14.14,0,0,0-.18-.08c-.07,0-.08.11,0,.19s.12.11.18.08Zm-.18-.34a.21.21,0,0,1,.3.11.22.22,0,0,1-.08.31.21.21,0,0,1-.3-.11A.21.21,0,0,1,7.17,17.69Zm.67-.23a.18.18,0,0,0-.25,0,.21.21,0,0,0,0,.31.2.2,0,0,0,.3.08.19.19,0,0,0,.07-.24l-.08.05a.1.1,0,0,1,0,.13c-.06,0-.12,0-.18-.07s0-.17,0-.19a.09.09,0,0,1,.13,0Zm.27.17.07-.06-.13-.15.14-.11.13.15.07-.06-.28-.34L8,17.12l.11.13L8,17.36l-.11-.13-.07.06Zm.48-.52a.13.13,0,0,0,0-.19c-.06-.06-.14-.08-.19,0a.13.13,0,0,0,0,.19c.07.06.15.07.2,0Zm-.28-.27a.22.22,0,0,1,.32,0,.22.22,0,0,1,0,.32.24.24,0,0,1-.34-.33Zm.47-.14.09.07.07-.09a.06.06,0,0,0,0-.1s-.07,0-.09,0l-.06.1Zm.1.19-.35-.28.14-.17c.07-.09.14-.07.17,0a.1.1,0,0,1,0,.1.12.12,0,0,1,.13,0c.07,0,.06.13,0,.21l-.13.17Zm-.16-.39a.05.05,0,0,1,.08,0s0,.05,0,.08l-.07.09-.08-.06ZM9,16.16l.12.14.06-.1-.18,0Zm-.11,0,.06-.09.46.1-.05.09-.09,0-.09.14.06.07-.05.08Zm.58-.09,0-.08-.18-.09.08-.16.18.09,0-.08-.4-.2,0,.08.15.08-.08.16-.15-.08,0,.08Zm.22-.68c0-.07,0-.14-.1-.17a.14.14,0,0,0-.19.06c0,.07,0,.14.1.17s.16,0,.19-.06Zm-.36-.13a.21.21,0,0,1,.29-.12.23.23,0,0,1,.15.28.2.2,0,0,1-.29.12A.2.2,0,0,1,9.32,15.25Zm.26-1.06v.07a.07.07,0,0,1,.06,0,.2.2,0,0,1,0,.09H9.7v-.1l.3,0v-.09Zm.17-.36s-.08,0-.08.06.05.07.08.07.08,0,.08-.06a.07.07,0,0,0-.08-.07Zm.19.13a.05.05,0,0,0,.05-.05c0-.06-.06-.07-.12-.08h0a.11.11,0,0,1,0,.08.13.13,0,0,1-.14.13.14.14,0,0,1-.15-.16c0-.13.14-.15.22-.15s.24,0,.24.17A.13.13,0,0,1,10,14Zm-.2-.51a.07.07,0,0,0-.07.07c0,.06.05.06.08.06a.07.07,0,0,0,.08-.07s0-.06-.09-.06Zm.2.11a0,0,0,0,0,0-.05c0-.06-.07-.07-.13-.07h0a.08.08,0,0,1,0,.08.13.13,0,0,1-.13.14.15.15,0,0,1-.17-.14c0-.13.12-.16.2-.16s.24,0,.25.15a.13.13,0,0,1-.11.14ZM9.56,13l0,.31h.08l0-.22a.62.62,0,0,0,.37.11V13.1a.49.49,0,0,1-.21,0A.54.54,0,0,1,9.63,13Zm.12-1c0-.07-.1-.09-.19-.06s-.13.1-.1.17.1.09.19.06.13-.1.1-.17Zm-.36.13A.24.24,0,0,1,9.76,12a.2.2,0,0,1-.15.28A.21.21,0,0,1,9.32,12.16Zm-.14-.69a.18.18,0,0,0-.06.24.21.21,0,0,0,.3.08.2.2,0,0,0,.12-.29.19.19,0,0,0-.23-.1l0,.08a.11.11,0,0,1,.12.06c0,.06,0,.12-.09.17s-.17,0-.19,0,0-.11,0-.12Zm.21-.25-.05-.08-.17.1-.09-.15L9.25,11,9.2,10.9l-.38.24,0,.08L9,11.13l.09.15L9,11.37l0,.08Zm-.46-.54c0-.06-.12-.06-.19,0a.14.14,0,0,0-.05.19.12.12,0,0,0,.19,0c.07-.06.1-.13,0-.19Zm-.3.24a.22.22,0,0,1,0-.31.22.22,0,0,1,.32,0,.21.21,0,0,1-.05.31A.22.22,0,0,1,8.63,10.92Zm-.08-.48.09-.08-.08-.08a.06.06,0,0,0-.1,0s0,.08,0,.09l.08.08Zm.21-.08-.32.31-.15-.16c-.08-.08,0-.15,0-.18a.1.1,0,0,1,.1,0,.09.09,0,0,1,0-.12c.06-.06.14,0,.21,0l.14.15Zm-.41.11s0-.05,0-.08.06,0,.08,0l.08.08-.07.07ZM8,10.16l.16-.1L8.11,10,8,10.16Zm0,.11-.08-.07.16-.44.08.06,0,.09.13.11.08,0,.08.07Zm0-.58-.08,0-.11.16-.15-.1.11-.16-.08,0-.25.37.08.05.09-.14.14.1L7.66,10l.08.05Zm-.64-.31c-.07,0-.14,0-.18.08s0,.16,0,.19.14,0,.18-.08,0-.16,0-.19Zm-.18.34A.24.24,0,0,1,7.4,9.3a.21.21,0,0,1,.08.31A.21.21,0,0,1,7.18,9.72Zm2.65,5a.1.1,0,0,0-.2,0,.09.09,0,0,0,.1.1A.11.11,0,0,0,9.83,14.76Zm0-2.12a.1.1,0,1,0-.1.1A.09.09,0,0,0,9.82,12.64Z" fill="#fff"/></svg>