<svg xmlns="http://www.w3.org/2000/svg" viewBox="0 0 472.9 106.2"><path fill="#fff" fill-rule="evenodd" d="M6.4 12.2C8.4 7.8 10.3 3 14.3 0c3.7 3.7 5.6 8.8 9.1 12.7a37.3 37.3 0 0026.9 13.5c9.6.4 18.9-3.4 27-8.2 1.8-1 4.7-2.8 6-.1A73.2 73.2 0 0189 66.6a55 55 0 01-16.8 30.2 37.2 37.2 0 01-30.1 9A47 47 0 018.8 82.2 74.5 74.5 0 010 46c.4-11.5 2-23 6.4-33.7zm10 13.7c-3.8 15.2-4.4 31.7 1 46.7 3 8.2 8 16 15.8 20.3a28 28 0 0026.6.6 35.7 35.7 0 0015.3-19.6 64.6 64.6 0 00.8-38.8A53.1 53.1 0 0143 40.4a47.3 47.3 0 01-26.5-14.5zm419.4-3.5c.9-1 2.3.2 3.1.7 4.7 3.7 10 7.6 16.3 7.4 3.2.2 6.5-1 9.7 0 .8 3.5-3 5.3-5.6 6.5-10 4.2-21.7-.3-28.5-8 .8-2.7 3-4.7 5-6.6zm-105 5a61.1 61.1 0 0112.3 0c1.3 4.1 0 9.1.4 13.7a25.1 25.1 0 0120.8 13.8 25.5 25.5 0 01-2.4 26.6 26.9 26.9 0 01-18.4 10l.1 13a94.9 94.9 0 01-12.7 0v-13a27 27 0 01-17-8.5A25.3 25.3 0 01331 41V27.3zm-9.2 45c1 4.6 5 7.8 9.2 9.3 1.4-10.2.6-20.6.6-30.9-9.7 1.6-12.3 13.5-9.8 21.5zm22.1 9.4c3.1-1.5 6.6-3 8-6.5a21.6 21.6 0 00-.1-18.7c-1.6-3-4.8-4.7-8-6a151.4 151.4 0 000 31.2zm-229-39.5a31.8 31.8 0 0112.7 0c.3 6.5.1 13 .2 19.3 4-.1 9 0 11.7-3.6 3.5-4.4 3.5-10.4 4.4-15.7a31.4 31.4 0 0112.8.2c.2 8.9-2.7 18.2-10 23.7a28.5 28.5 0 0110.2 24.1 91.5 91.5 0 01-12.5 0c-1.3-5.6-2-11.9-6.3-16.1-2.6-2.8-6.7-3.1-10.3-3.7-.2 6.2.3 12.4-.2 18.5l-.6 1.2a43.1 43.1 0 01-11.8 0 35.4 35.4 0 01-.4-7.3c.1-13.5-.1-27 .1-40.5zm66.9-1c6.8-1 14 .4 19.4 4.7a25.4 25.4 0 018.4 29.1 25.2 25.2 0 11-27.8-33.8zm.2 10.3c-5 1.8-7.3 7.2-7.8 12.2-.4 5.2.5 11 4.4 14.8a11 11 0 0013.6 1c4.2-2.7 5.7-8 5.8-12.8.2-4.9-1-10.4-5-13.6-3-2.6-7.4-2.6-11-1.6zm90-10c7.7-1.6 16.2 0 22.2 5.4a25.5 25.5 0 016 30.6c-5 10-17 15.8-27.8 13.2a25.5 25.5 0 01-19.8-23c-1-11.9 7.6-23.7 19.3-26.2zm1.9 10c-8.7 3.6-9.7 15.4-6.4 23.1 2.6 6.5 11.8 9 17.1 4.4 6.3-5.4 6.6-15.5 3-22.5-2.5-5-8.7-6.7-13.7-5zm103.3-.8c7-9.6 21.5-12.7 32-6.7 8.6 4.7 13.4 15 12.3 24.7 0 1.1-.6 2.8-2 2.7-11.4.2-22.7 0-34 .1 1.3 2.9 2.6 6 5.4 7.8a13 13 0 0014.8-.4c2.4-1.4 4-4 6.5-5a23.8 23.8 0 016.7 5.8c0 2.5-2.4 4-4 5.7-11.4 10-31.4 7-39.2-6.1a25.5 25.5 0 011.5-28.6zm15.3 1c-4 1.7-5.8 5.9-7.1 9.7h23.6c-1.1-2.8-2-5.8-4.4-7.8-3.1-3.1-8.2-3.4-12.1-1.9zm35.5-9.3c3-1.3 6.3-.9 9.5-.9 1.2 0 3.2.5 3 2.1.3 9.1-.3 18.2.2 27.3.2 5.2 5 10.9 10.7 9.5 5-1.5 8.5-6.7 8.8-12 .4-8.5-.3-17 .3-25.7 1-1.6 3.3-1 5-1.2 2.4 0 5-.3 7.3 1a27.2 27.2 0 01.4 5.2v39.1c-.2 1.1.2 2.7-1 3.4a92.6 92.6 0 01-11.3 0l-.7-4.7c-7.8 9.3-24.3 7-30-3.6-3.5-6-2.3-13.4-2.5-20.2.2-6.4-.4-13 .3-19.3zm-216.4-.3c-1.6 3.3-.5 7.5-.5 11 4.7.2 9.5.2 14.3 0 .1 12.4-.2 24.8.5 37 4 .3 8 .3 12 0 1.2-5.7.6-11.6.7-17.5 0-6.5.3-13-.4-19.4h14.7c.2-3.8.2-7.4 0-11a48.5 48.5 0 00-7.4-.3c-11.3.5-22.7-.1-34 .3z"/></svg>
