<svg xmlns="http://www.w3.org/2000/svg" viewBox="0 0 706.7 338.3"><path fill="#fff" d="M227.2 167c-10.5 1.3-18.7 6-27 10.5-20.2 11-37.3 26.2-55.2 40.3-4.6 3.6-8.9 7.6-13.8 10.7-10.3 6.5-15.4 17-20.5 27a50.9 50.9 0 01-19.3 19.7c-11.6 7.4-20.7 3-22.4-10.7-1.1-9.5 1-18.5 4.4-27.3 13.6-34.4 32.6-66 51.9-97.3 16.3-26.7 32-53.8 48-80.7.6-1 1-2 1.5-3.1A314 314 0 0042 88.9c4.8 1.1 9.4 1.5 13.4 3.2 3.2 1.4 5.8 4.4 8.7 6.6-2.8 2.3-5.4 6.2-8.5 6.6a278.5 278.5 0 01-30.7 2.3c-4.4.1-8.9-1-13.4-1.6-6.8-.8-10.2-3.3-10.8-10.2a282.4 282.4 0 01-.6-29.4C.3 59.6 1.6 52.8 2 46c.2-4.1 2-6.7 5.3-8.9a153.5 153.5 0 0149.7-21.4A544 544 0 01234 1.7c7.1.6 14.2 1.7 21.4 2 15.2.7 25 8.8 31.3 22 5.2 11.2 6.9 23.2 7.9 35.7C286 60 278 58.3 270 57.8a1963 1963 0 00-61.4-2.2c-1.7 0-4 2-5 3.7q-26.3 49.2-52.4 98.7L129 200l-1.6 3.4 1.5 1.3c2.6-3 4.9-6.1 7.7-8.8C182 151.9 229.2 110 280.5 73c6.9-5 18-2.8 22.8 4.7l-25.8 19 .5 1 21.2-9.9 1 1.4c-13.4 14.3-26.7 28.7-30.2 50.4 7.5-6.2 14-11.7 20.6-16.9a123.5 123.5 0 0140.2-21.6c5.1-1.6 6-1 6.6 4.4a35.3 35.3 0 01.2 4 8 8 0 00.7 4.2c1-3 1.7-6 3-8.8.5-1.6 2.2-4.2 2.7-4 2 .5 5 1.6 5.6 3.3a27.6 27.6 0 011.9 10.6 70.5 70.5 0 01-11.9 37.2c-11.5 17.7-24 34.8-36 52l-11.2 15.5a9.3 9.3 0 0010.3 2 127 127 0 0042.7-26.2l4.2-3.7c3.8 3.3 4 6.1.7 10-11 13-21.4 26.6-36 36a50.6 50.6 0 01-31 9c-4.7-.2-9.4-1.7-13.4-2.4-7 5-13.5 10.7-20.9 14.8-9.6 5.5-19 4-25.2-2.6-1.9-2-3.2-4.6-5.2-7.6l-9.9 22.7c-7.2 16.8-14.3 33.7-21.8 50.4a56 56 0 01-7.6 12.3c-4.8 6-12.3 5.1-15-2a39.7 39.7 0 01-2.7-15.6c.8-21 7.5-40.3 17.4-58.8 15.4-28.6 30.6-57.3 45.8-86 .8-1.3 1.4-2.8 2.4-4.8zm11.2 51.8c-.1 6.3 1.6 8.5 7.9 9 2.7.2 6 .1 8.2-1.2 5.5-3.3 11.3-6.6 15.7-11.1a209.9 209.9 0 0039.7-60.7 36 36 0 002.8-9.5c.6-4.7-1.6-7-6.2-5.7a43.6 43.6 0 00-11.7 5.2 143.1 143.1 0 00-45.7 46 55.8 55.8 0 00-10.7 28zm-133.8-167l-.3-1.9c-28.7-2.5-56.7-.6-83 12.5l.2 1.4zM512.8 200c-7.7 9.3-14.6 18.3-22 26.7a93.3 93.3 0 01-34 26.5c-12.8 5.1-24-.9-24.9-14.5-.5-7 1.2-14.4 2.9-21.5 1.2-5 3.8-9.9 6-14.7a12 12 0 013-4.5 57.4 57.4 0 0018.1-25.8c1.5-4 3.5-7.8 4.6-12.3-2.2 2.8-5 5.3-6.3 8.4a36.6 36.6 0 01-14.4 17.5c-12 8-24 16-36.6 23.2-5.1 3-11.3 4.1-17 6l-.8-1.2a22.1 22.1 0 012-2.5l62-58a101 101 0 0025.1-36.2A49.5 49.5 0 01503 93.7c3.8-2.3 8-2.4 11.8.3 4 3 6 7.4 4.5 11.9-2.5 7.8-5.2 16-9.5 22.8-8.4 13.4-18.5 25.6-27 39-7.3 11.4-15.2 23-13.8 37.7.3 3.7 1.4 9 3.9 10.3 4 2.2 6.8-2.6 9.3-5.6 10.4-12.2 20.8-24.3 31-36.6a20.5 20.5 0 003.5-7c7.1-23 19.7-42.2 39-56.7A89 89 0 01616.4 93c10 .6 14.1 8 10.3 17.2l-1.8 4.3c13.8 9.8 11.8 23.6 9.2 37.2-2.1 10.8-5.3 21.3-8 32l-.9 4.5c14-3.4 20-15.7 29.8-24.1l7 18a2.9 2.9 0 01-.4 2.2c-6 8.3-11.3 17.4-18.4 24.7a39.7 39.7 0 01-33.2 12c-4.3-.4-6.3 1.3-8.5 4.4a63.5 63.5 0 01-32.5 25.2 42 42 0 01-32-2.8 28.8 28.8 0 01-14.7-18c-3.3-9.6-6.2-19.3-9.5-29.8zm71-54.1a87.3 87.3 0 00-28.9 22.8c-8.3 9.6-10 22-13.2 33.5a8.7 8.7 0 01-2-.5 4 4 0 01-1-1.1 48.7 48.7 0 01-3-42c6.1-16.8 18.4-29 32.5-39.5a25.6 25.6 0 0132-.4l5.6 4.1c-4.3-8.8-11.5-12.2-20.7-11.5-49.8 4-68.6 55-53.3 88 9.8 21 27.5 24.3 46 9.1 1.2-1 2.1-3.7 1.6-5a57 57 0 01-1.6-33c1.6-7.9 3.8-15.7 6-24.5zM375.9 215.5a18.4 18.4 0 01-11.8-8.5c-5.4-8.4-8.3-17-4.4-27.3 8.6-22.7 17.2-45.4 32.7-64.7a34.5 34.5 0 0138.6-10.7c5.8 2 8 6.6 4.4 12.3-8.3 13.5-16.2 27.3-26.2 39.4a201.6 201.6 0 00-32.2 58.2 7.2 7.2 0 01-1.1 1.3z"/><path fill="#fff" d="M416.3 214.7a73.3 73.3 0 01-22 25.3 122.8 122.8 0 01-21.1 13c-7 3.3-14.4.7-18.2-5.9a39.8 39.8 0 01-5-14.4 75.4 75.4 0 015.6-35l2.6 7.5c4 11.7 11.4 17.5 23.6 16.5 9.6-.9 19-3.3 28.4-5.2 2-.4 4-1.2 6-1.8zM594.2 56V42.2c0-9.3.2-18.6-.1-28-.2-4.5 1.2-6 5.8-6 4.5 0 5.7 1.4 5.6 5.8-.4 8.4-.1 16.9-.1 26.3L618 13c1.8-4 9.7-6.7 13.3-4.3a4 4 0 011.2 3l.1 41.5c0 4.9-3.5 3.3-6 3.5-2.6.1-5.5.6-5.3-3.8V28.6l-9 19.3c-4.4 9.7-6.8 10.8-18.2 8.1zM560.7 38.2h-13.9c0 4.7-.2 9.2 0 13.6.4 4-1 5.5-5 5a67.5 67.5 0 00-6.9 0v-48h11.8v17h14c0-4 .3-8 0-11.9-.5-4.5 1.4-6 5.6-5.5a17.8 17.8 0 003.5 0c2.7-.1 3.5 1.2 3.5 3.7 0 13.6-.1 27.3 0 41 0 2.8-1 4-3.8 3.8a36.3 36.3 0 00-5 0c-2.8.1-4-1-3.8-3.8V38.2zM382.4 26c2.4-4.1 5-8.1 7-12.4 1.9-4 4.5-5.8 9-5.2 2.5.3 5.1 0 9 0l-14.7 20.9c10.4 6 9 17.5 14.4 27.3-4.8 0-8.7.2-12.5-.2-1 0-1.9-2-2.4-3.4-1.3-3.5-2-7.4-3.6-10.8-1-2.1-3.6-3.5-5.4-5.2l-2 1.1c0 4.2-.2 8.5.2 12.7.4 4.7-1.2 6.8-6 6a43.4 43.4 0 00-5.8 0 33.6 33.6 0 01-.5-4.2c0-13.1.2-26.3-.2-39.5 0-5.5 3.3-4.6 6.6-4.6s6.4-.4 6 4.7c-.5 4-.2 8.3-.2 12.4zM477.4 9.6c13.5-5.4 16.3 3.9 19.3 14.3 1.4-4 2.6-6.3 3-8.7 1-5.7 4.2-7.7 9.8-6.8 1.7.3 3.6 0 6.6 0-3.3 6.5-5.8 12.2-9 17.5-2.6 4.3-2.7 8 0 12.3 3.5 5.6 6.2 11.6 10.2 19.2-6-.8-11.6.1-14.7-2.3-3.3-2.7-4.1-8.4-6.5-13.7-1.6 4.3-3 7.6-4 11s-3 4.8-6.5 4.5c-2.7-.3-5.3 0-9.3 0l7-13.4c5.8-11 5.8-11 .1-22l-6-11.9zM427.9 46.5a34.6 34.6 0 003.8 0c4.3-.5 5.2-2 3.5-6L423.4 14 421 8.4c4.4 0 8.1-.3 11.8.2 1.1.1 2.5 2 3 3.3 2.4 6.5 4.6 13.2 7.3 21 1.8-7 3.6-12.7 4.6-18.6.8-4.7 2.8-6.8 7.6-6 2 .3 3.9 0 6.9 0-3 8.8-5.4 16.9-8.4 24.7a125 125 0 01-7.6 16.8 15.1 15.1 0 01-14 8.2c-4.3 0-6.4-1.4-5.3-6 .4-1.6.5-3.2.9-5.5zM706.7 86.3a21 21 0 01-21.3 21.2c-12.2.2-21.8-9.1-21.8-21.1s9.5-21.2 21.8-21.2a21 21 0 0121.3 21.1zm-6 0c0-9.6-6.7-16.3-15.9-16.2-8.7 0-15.4 7.2-15.4 16.3 0 9.3 6.9 16.3 16 16.2s15.3-6.9 15.3-16.3z"/><path fill="#fff" d="M682.5 89.5c0 1.8.2 3.7-.4 5.3a4 4 0 01-2.8 2.4 3.6 3.6 0 01-2.5-2.6c-.2-5.3-.2-10.6 0-16 0-.8.7-2.3 1-2.3 5 .2 10.6-.5 14.8 1.5s2 6.2-.8 8.6l3.6 10c-4 1.8-6.1.9-6.8-3-.6-3.2-2.4-4.6-6-3.9zm2-10.7l-1.7 1v6.4l5.8-3.8z"/></svg>
