<svg xmlns="http://www.w3.org/2000/svg" viewBox="0 0 242.4 82.5"><g fill="#fff"><path d="M116.3 30.9a2.5 2.5 0 001.6-2.5v-8.9h6.2v9.3c0 1.2-.4 2.6-2.9 3.7-3.3 1.5-8.5 1.5-11.5 1.5s-8.2-.1-11.5-1.5c-2.5-1.1-2.9-2.4-2.9-3.7v-9.3h6.2v8.9c0 .8.1 1.8 1.6 2.5 1.8.8 4.6.9 6.5.9 2 0 5-.1 6.7-.9M4.3 33.8c-1.1 0-2.3-.1-3.1-.4-.5-.2-1.2-.5-1.2-1.2V19.5h6.2v11.4c0 .2 0 .4.4.6l4.2.2H26v2.1H4.3zM43.1 22.4c.2-.2.5-.6.9-.6s.8.4 1 .6l5.4 5.8H37.7l5.4-5.8zm-17 11.4h6.6l3.4-3.6H52l3.4 3.6H62L49.5 20.9c-1.2-1.2-2.6-1.6-5.4-1.6-3 0-4.3.4-5.4 1.6L26.1 33.8zM67.5 33.8c-1.6 0-4.7-.1-4.7-1.5 0-.9 1.1-1.5 2.1-1.9l18.8-8.1.6-.4c0-.1-.1-.3-.9-.3H64.1v-2.1h24.7c1.9 0 3.9.3 3.9 1.5 0 .9-1 1.3-2 1.8l-19 8.3c-.2.1-.5.2-.5.4s.3.2.6.2h20.4v2.1H67.5zM127.2 21.9c0-.6.1-1.3 1.4-1.9 1.2-.5 2.8-.6 4-.6h15.7c2.3 0 5.2.1 7.1 1.3 1.6 1 1.7 2.1 1.7 3.2 0 1-.1 2.2-1.4 3.2-.9.7-2.5 1.5-6.2 1.5h-4.3v.1l12.6 5h-7.9L139 29.1c-.7-.3-1.6-.8-1.6-1.2v-.3c0-.6 1-1 2.8-1h6.2c1.1 0 2.6-.1 3.4-.6.7-.5.8-1.5.8-2 0-1.1-.5-1.7-1.2-2-1-.4-2.5-.4-3.5-.4h-10.1c-.7 0-1.1 0-1.7.2-.7.2-.7.5-.7.8v11.1h-6.2V21.9zM159.6 19.5h6.2v14.3h-6.2zM180 33.8V21.6h-11.8v-2.1H198v2.1h-11.7v12.2zM204.1 0v36h38.4V0h-38.4zm8.6 33.9l-.1-2.2-.1-2.4-.6 2.2-.7 2.3h-1l-.6-2.3-.5-2.3-.1 2.4-.1 2.2h-1.2l.4-5.8h1.8l.6 1.9.5 2.1.6-2.1.6-1.9h1.7l.3 5.8h-1.5zm5.9 0h-3.7v-5.8h3.6v1.1h-2.3v1.2h2.1v1.1h-2.1v1.4h2.4v1zm4.6-.6c-.6.5-1.5.7-2.4.7l-1.4-.1v-5.8h3.9v1.1h-2.6v1h.7c.6 0 1.2.1 1.6.5.4.3.7.7.7 1.4 0 .4-.2.9-.5 1.2zm5 .6h-3.7v-5.8h3.6v1.1h-2.3v1.2h2.1v1.1h-2.1v1.4h2.4v1zm5.4 0h-1.3v-4.7H231v1.4c0 1.5-.2 2.6-1.1 3.2-.3.2-.7.3-1.2.3l-.2-1.1c.3 0 .5-.2.7-.3.4-.4.4-1.1.4-2v-2.5h3.9v5.7zm4.9-.7c-.6.6-1.5.7-2.4.7l-1.4-.1V28h1.3v2h.7c1.3 0 2.3.6 2.3 1.9 0 .6-.2 1-.5 1.3z"/><path d="M221.2 31.1h-.5v1.8h.5l.9-.3c.2-.2.3-.4.3-.7a1 1 0 00-.3-.7l-.9-.1zM236.5 31.1h-.5v1.8h.5c.6 0 1.2-.3 1.2-1-.1-.6-.6-.8-1.2-.8z"/></g></svg>
