<svg xmlns="http://www.w3.org/2000/svg" viewBox="0 0 75.5 383.6"><g fill="#fff"><path fill-rule="evenodd" d="M3.8 270.9a19.2 19.2 0 00-1 4.1h-2v-33.9h2a13.7 13.7 0 00.3 1.9c0 .7.3 1.4.4 1.9a2.3 2.3 0 001 1.4 4.7 4.7 0 001.8.3h27.3a4.7 4.7 0 001.7-.3 2.3 2.3 0 001-1.4 12.4 12.4 0 00.6-1.9c0-.8.2-1.5.3-2h2v20.6h-2l-.2-2a10.6 10.6 0 00-.3-1.8 2.7 2.7 0 00-1.1-1.4 3.9 3.9 0 00-1.7-.4H3.4v9.1a95.2 95.2 0 0116.8 1.9 45.9 45.9 0 0111.4 3.8 21 21 0 016.7 4.9 8.2 8.2 0 012 4.8 7.6 7.6 0 01-.5 2.9 4.5 4.5 0 01-1.3 1.7 5.6 5.6 0 01-1.7.9 11.1 11.1 0 01-1.7.2 5 5 0 01-4-1.6 5.4 5.4 0 01-1.4-3.6 4.4 4.4 0 011-2.8 15.4 15.4 0 012.5-2.7 24.7 24.7 0 00-4.3-2.1 33 33 0 00-5.8-2 57.3 57.3 0 00-7-1.6 44.2 44.2 0 00-7.5-.6 12.6 12.6 0 00-3 .3 2.6 2.6 0 00-1.8 1.4zm29-61.6a20.1 20.1 0 012.9 2.2 13.3 13.3 0 012.3 3 19 19 0 011.6 3.6 13.4 13.4 0 01.5 4.2 19.8 19.8 0 01-1.1 6.8 13.3 13.3 0 01-3.1 4.7 13.1 13.1 0 01-4.5 2.8 17 17 0 01-5.7.9 13.9 13.9 0 01-5.3-1 14.8 14.8 0 01-4.5-2.8 12.9 12.9 0 01-3.1-4.6 15.2 15.2 0 01-1.2-6.2 17.4 17.4 0 01.9-6.1 12.4 12.4 0 012.5-4 9.5 9.5 0 013.6-2.2 13 13 0 014.4-.7h1.8v18c3.7 0 6.5-.7 8.5-2.1s2.9-3.6 2.9-6.7a7.8 7.8 0 00-1.4-4.5 12.6 12.6 0 00-3.5-3.4l1.5-1.9zm-10.3 10.1l-3.3.2a9.8 9.8 0 00-2.8.6 4.4 4.4 0 00-2 1.2 3.2 3.2 0 00-.5 2 3.7 3.7 0 002 3.3 13.8 13.8 0 006.8 1.3l-.2-8.6zm-7-39.9a12.7 12.7 0 014.6-3 14.7 14.7 0 015.6-1 15.6 15.6 0 015.7 1 13.1 13.1 0 014.6 3 13.6 13.6 0 013 5 19.6 19.6 0 011.2 6.7 16.4 16.4 0 01-1 6 14.4 14.4 0 01-2.8 4.8 13.6 13.6 0 01-4.5 3.2 14.6 14.6 0 01-6 1.2 15 15 0 01-5.8-1 13 13 0 01-7.4-8 18.9 18.9 0 01-1-6.5 21.8 21.8 0 011-6.6 12.4 12.4 0 012.9-4.8zm18.9 6.8a15.4 15.4 0 00-3.7-.9 36.3 36.3 0 00-5-.3 34.6 34.6 0 00-4.3.3 16.6 16.6 0 00-4 .8 6.4 6.4 0 00-2.6 1.8 4.6 4.6 0 00-1 2.9 4 4 0 001 3 6.3 6.3 0 002.8 1.7 16 16 0 003.6.8 59 59 0 009.2 0 13.8 13.8 0 003.9-.9 6.4 6.4 0 002.7-1.8 4.6 4.6 0 001-2.9 4 4 0 00-1-2.7 6.4 6.4 0 00-2.6-1.8zm4.9-49.8v16.2h-2l-.2-1.1a5.6 5.6 0 00-.4-1.2 3.8 3.8 0 00-1-.9 3.5 3.5 0 00-1.5-.3h-7.8v9.9h7.8a3.8 3.8 0 001.6-.3 2.8 2.8 0 001-.9 3 3 0 00.4-1 5 5 0 00.2-1.3h2v16.2h-2l-.1-1.3a4.2 4.2 0 00-.3-1.2 2 2 0 00-1-1.2 3.8 3.8 0 00-1.5-.3h-17a3.8 3.8 0 00-1.6.3 1.7 1.7 0 00-1 1.1l-.2 1.3-.1 1.2h-2v-16.2h2c0 .4 0 .8.2 1.2a4.9 4.9 0 00.4 1.1 2.2 2.2 0 001 .9 3.3 3.3 0 001.5.3h6v-9.8h-6.1a6 6 0 00-1.5.2 2.2 2.2 0 00-1 .9 3.4 3.4 0 00-.4 1.2 5.2 5.2 0 00-.2 1.1h-2v-16.2h2v1.3a3 3 0 00.4 1.2 2 2 0 00.9 1.1 3.9 3.9 0 001.7.4h17a3.8 3.8 0 001.6-.3 1.6 1.6 0 00.9-1.2c0-.4.2-.8.3-1.1a5.3 5.3 0 000-1.4h2zm-.6-33.6a15 15 0 011 2.8 12.7 12.7 0 01.4 3.4c0 2.2-.3 3.8-1 4.8a5.4 5.4 0 01-2.8 2.1v.2l1.6 1.7a17.4 17.4 0 011 1.8 11.7 11.7 0 011 2.4 13.9 13.9 0 01.3 3.2 7.7 7.7 0 01-2 5.3 6 6 0 01-4.8 2.2 8.5 8.5 0 01-3-.5 6.4 6.4 0 01-2.2-1.4 5.2 5.2 0 01-1.4-1.9l-1.1-2.3-2-5.8a29.2 29.2 0 00-1.6-4.9h-2.6a12.1 12.1 0 00-1.8.1 5.3 5.3 0 00-2 .5 2.9 2.9 0 00-1.4 1.2 3.3 3.3 0 00-.6 2.1 6 6 0 00.3 2l.7 1.3a12.8 12.8 0 001.7-.5 8.6 8.6 0 012-.4 5.2 5.2 0 011.2.2 3 3 0 011 .7 4 4 0 01.9 1.4 6.7 6.7 0 01.3 2.3 5 5 0 01-1.1 3.4 3.6 3.6 0 01-3 1.1 3.7 3.7 0 01-2.6-1.2 10 10 0 01-2-2.9 17.8 17.8 0 01-1.3-3.9 20.3 20.3 0 01-.4-4.1 33.8 33.8 0 01.3-4.7 10.6 10.6 0 011.3-3.9 6 6 0 012.8-2.6 10.6 10.6 0 014.7-1l7.3.1 5.5.1a3.4 3.4 0 001.9-.4 2.4 2.4 0 001-1.1 10.6 10.6 0 00.4-1.4v-1.7h2zM24.6 116a18.8 18.8 0 001.2 3 9 9 0 001.4 2.4A5.8 5.8 0 0029 123a6 6 0 002.8.6 4.1 4.1 0 003-1 3.3 3.3 0 001-2.4 4.3 4.3 0 00-.5-2.4 8 8 0 00-1.5-1.7l-9.3-.1zM26 68.4a14 14 0 019.8 3.7 12.5 12.5 0 014.1 9.5 14.7 14.7 0 01-.5 4.1 10.5 10.5 0 01-1.3 2.6v.2h7.6a3.3 3.3 0 001.7-.4 2.3 2.3 0 001-1.2 8.3 8.3 0 00.5-2 10.3 10.3 0 00.3-2.2h2.1v19.2h-2.1a15 15 0 00-.2-1.7 9.6 9.6 0 00-.3-1.5 1.6 1.6 0 00-1-1.1 4.2 4.2 0 00-1.6-.3H18.4a7.5 7.5 0 00-1.6.4 3 3 0 00-1.2 1 9.8 9.8 0 00-.6 1.4 5.5 5.5 0 00-.3 1.7h-2l-.7-13 .4-.4h3v-.2a12.8 12.8 0 01-2.7-3.9 9.2 9.2 0 01-1-4.2 10.4 10.4 0 014-8.7c2.5-2 6-3 10.4-3zm0 9.5a23.8 23.8 0 00-3.8.3 10.6 10.6 0 00-3.3 1 5.5 5.5 0 00-2.3 1.9 4.8 4.8 0 00-1 2.9 5.5 5.5 0 00.7 2.8 5.5 5.5 0 001.6 1.8h15.4a7.3 7.3 0 001.4-.6 8.5 8.5 0 001.4-.9 3.3 3.3 0 001.1-1.5 5.8 5.8 0 00.4-1.9c0-1.8-1-3.2-2.9-4.2a20 20 0 00-8.6-1.6zm10.6-14.8a36.6 36.6 0 00-9.3-4.5 30 30 0 00-9.2-1.9 5.3 5.3 0 00-2 .3 2.2 2.2 0 00-1 1.1 4.3 4.3 0 00-.5 1.7 8 8 0 00-.3 1.9h-2V34.9h2v1.3a3 3 0 00.4 1.2 2 2 0 00.9 1.1 3.9 3.9 0 001.7.4h16.8a3.3 3.3 0 002-.4q.6-.5.6-2.1v-2.1H48V36l-2.2.9a19.3 19.3 0 00-2.9 1.7 13.6 13.6 0 00-2.5 2.2 5 5 0 00-1.2 2.9 14.8 14.8 0 00-.1 2.2v9a14.8 14.8 0 00.1 2.1 5 5 0 001.2 2.8 13.7 13.7 0 002.5 2.3 14 14 0 002.9 1.6l2.2.9v1.7H36.7v-3.2zm0-3.4v-9.9a2.6 2.6 0 00-.4-1.8 2 2 0 00-1.5-.4H15v5.9a47.5 47.5 0 0111.5 1.6 34 34 0 0110.2 4.6zM15.6 4.2a12.7 12.7 0 014.5-3 14.7 14.7 0 015.6-1 15.6 15.6 0 015.7 1 13.1 13.1 0 014.6 3 13.6 13.6 0 013 5 19.6 19.6 0 011.2 6.7 16.4 16.4 0 01-1 6 14.4 14.4 0 01-2.8 4.8 13.6 13.6 0 01-4.5 3.2 14.6 14.6 0 01-6 1.2 15 15 0 01-5.8-1 13 13 0 01-7.4-8 18.9 18.9 0 01-1-6.5 21.8 21.8 0 011-6.6 13.2 13.2 0 012.9-4.8zM34.4 11a15.4 15.4 0 00-3.7-.9 36.3 36.3 0 00-5-.3 34.6 34.6 0 00-4.3.3 16.6 16.6 0 00-4 .8 6.4 6.4 0 00-2.6 1.8 4.6 4.6 0 00-1 2.9 4 4 0 001 3 6.3 6.3 0 002.8 1.7 16 16 0 003.6.8 59 59 0 009.2 0 13.8 13.8 0 003.9-.9 6.4 6.4 0 002.7-1.8 4.6 4.6 0 001-2.9 4 4 0 00-.9-2.7 9 9 0 00-2.7-1.8zM57 285.9v-6.2l3.8-2.2L57 275v-5.7l6.3 4.6 7-5v6.1l-4.3 2.5 4.3 3v5.6l-7-5-6.3 4.8zm6.8-18.1a6.6 6.6 0 01-5-2.1 9.3 9.3 0 01.3-11.9 6.7 6.7 0 014.6-1.7 6.4 6.4 0 015 2.1 8.2 8.2 0 012 5.8 8 8 0 01-1.6 5.3 6.3 6.3 0 01-5.3 2.5zm0-5.2a3.7 3.7 0 002.6-.7 2.3 2.3 0 00.9-1.8 2.3 2.3 0 00-.8-1.8 4.2 4.2 0 00-2.7-.7 3.9 3.9 0 00-2.6.7 2.2 2.2 0 00-.8 1.8 2.3 2.3 0 00.9 1.9 4.8 4.8 0 002.5.6zm-6.3-17.5a4 4 0 01-.7-2.6 7.8 7.8 0 012-5.8 6.8 6.8 0 014.9-2 7 7 0 015 2c1.4 1.3 2 3.3 2 5.9s-.6 4.5-2 5.8-3.6 2-6.7 2a13.2 13.2 0 01-7-1.7 5.8 5.8 0 01-2.8-4.9v-1.6c-.1-1.4-.2-2.2-.6-2.3v-4.1c2.4 0 3.7 1.4 3.8 4.2a12.6 12.6 0 00.5 3.8 3 3 0 001.6 1.3zm9.7-2.6a2.2 2.2 0 00-1-1.9 5.2 5.2 0 00-5.1 0 2.3 2.3 0 00-1 1.9 2.2 2.2 0 001 2 4.9 4.9 0 002.6.7 3.7 3.7 0 002.5-.7 2.3 2.3 0 001-2zm-9.7-14.9a4 4 0 01-.7-2.6 7.8 7.8 0 012-5.8 6.8 6.8 0 014.9-2 7 7 0 015 2c1.4 1.3 2 3.3 2 5.9s-.6 4.5-2 5.8-3.6 2-6.7 2a13.2 13.2 0 01-7-1.7 5.8 5.8 0 01-2.8-4.9v-1.6c-.1-1.4-.2-2.2-.6-2.3v-4.1c2.4 0 3.7 1.4 3.8 4.2a12.6 12.6 0 00.5 3.8 3 3 0 001.6 1.3zm9.7-2.6a2.2 2.2 0 00-1-1.9 5.2 5.2 0 00-5.1 0 2.3 2.3 0 00-1 1.9 2.2 2.2 0 001 2 4.9 4.9 0 002.6.7 3.7 3.7 0 002.5-.7 2.3 2.3 0 001-2zm3.2-25.5v4.9h-6.6l6.6 5.1v5H57v-4.9h6.7l-6.6-5.2v-4.9zm-8.6-2.4v-7.6h4v7.6zm-1-20.9v5.8h9.6v5.2H57v-11zm9.6-17.3v4.9h-6.6l6.6 5.1v5H57V169h6.7l-6.6-5.2v-4.9zm0-17.7v5.2h-9.6v4h9.6v5.2H57v-14.4zM65 122.9v10.5a3 3 0 001.8-.7 2.5 2.5 0 00.9-2 2.8 2.8 0 00-.4-1.5 3.2 3.2 0 00-.8-.9l.5-5.1a7.8 7.8 0 012.9 2.8 10.2 10.2 0 01.9 4.8 10.4 10.4 0 01-.7 4.3 6.6 6.6 0 01-2.4 2.6 7.6 7.6 0 01-8.9-1 7.8 7.8 0 01-1.9-5.6 9.6 9.6 0 01.9-4.6 6.3 6.3 0 012.5-2.6 8.9 8.9 0 014.3-.9h.4zm-2.4 5.3a3.4 3.4 0 00-2.1.8 2.6 2.6 0 00.4 3.7 3.8 3.8 0 001.8.6v-5.1zm12.9-7.7H57.1v-4.9h2a7 7 0 01-1.7-1.9 5.4 5.4 0 01-.6-2.5 5 5 0 012-4.2 8.5 8.5 0 015-1.5 7.3 7.3 0 015.2 1.6 5.3 5.3 0 011.7 4.1 5.4 5.4 0 01-.4 2.2 5.7 5.7 0 01-1.2 1.8h6.3v5.3zm-11.7-5.2a3.4 3.4 0 002.4-.7 2.3 2.3 0 00.8-1.7 1.8 1.8 0 00-.7-1.5 4 4 0 00-2.5-.6 3.8 3.8 0 00-2.4.6 2 2 0 00-.8 1.6 2.3 2.3 0 00.8 1.7 3.6 3.6 0 002.4.6zm6.6-31.1v4.4H62l8.4 3.2v3.1L62 98.4h8.4v4.4H57.1v-6.3l7.7-3.2-7.7-3v-6.2h13.3zm-9-8.2l-.5 5a6.4 6.4 0 01-2-.8 6.4 6.4 0 01-1.3-1.5 4.7 4.7 0 01-.6-2 21.3 21.3 0 01-.2-2.7 19.4 19.4 0 01.3-3.8 5.3 5.3 0 011.1-2.4 3.7 3.7 0 011.6-1 4.8 4.8 0 012-.4h5.9a6.6 6.6 0 001.5-.1l1.4-.5v4.9a5.9 5.9 0 01-.8.4l-.8.2a10.5 10.5 0 011.4 2 8 8 0 01.6 3.2 5.6 5.6 0 01-1.1 3.7 3.5 3.5 0 01-2.7 1.3 3.7 3.7 0 01-2.5-.9c-.7-.6-1.1-1.7-1.5-3.4l-.8-3.8-.6-1.8c-.6 0-1.1.1-1.3.4a1.8 1.8 0 00-.4 1.4 3.2 3.2 0 00.4 1.9c-.1.3.3.5.9.7zm2.7-4.5a18.7 18.7 0 01.7 2.2 7 7 0 00.8 2 1.2 1.2 0 00.9.4 1.3 1.3 0 001-.4 1.7 1.7 0 00.4-1.3 3 3 0 00-.4-1.6 2.7 2.7 0 00-1-1.1 3.5 3.5 0 00-1.6-.3h-.8zm11.4-8.2H57.1v-4.9h2a7 7 0 01-1.7-1.9 5.4 5.4 0 01-.6-2.5 5 5 0 012-4.2 8.5 8.5 0 015-1.5 7.3 7.3 0 015.2 1.6 5.3 5.3 0 011.7 4.1 5.4 5.4 0 01-.4 2.2 5.7 5.7 0 01-1.2 1.8h6.3v5.3zm-11.7-5.2a3.4 3.4 0 002.4-.7 2.1 2.1 0 00.8-1.7 1.8 1.8 0 00-.7-1.5 4 4 0 00-2.5-.6 3.8 3.8 0 00-2.4.6 2 2 0 00-.8 1.6 2.3 2.3 0 00.8 1.7 4.4 4.4 0 002.4.6zm6.6-27.4v5.9l-3.7 2c-.6.3-1 .6-1.1.9a3.6 3.6 0 00-.2 1.1h5v5.2H57.1v-5.2h4.8a1.3 1.3 0 00-.4-.9 7 7 0 00-1.5-.9 7.5 7.5 0 01-1.7-1 2.5 2.5 0 01-.8-1.2 8 8 0 01-.4-1.8 27.3 27.3 0 01-.1-3.2h3.6v.2a7.1 7.1 0 000 1.6 4.7 4.7 0 00.4.9 3.9 3.9 0 001 .8 7.2 7.2 0 011.2.7 1.3 1.3 0 01.4.9A3.8 3.8 0 0164 35a7.3 7.3 0 012.3-1.8l4-2.5zM65 13.8v10.5a3 3 0 001.8-.7 2.5 2.5 0 00.9-2 2.8 2.8 0 00-.4-1.5 3.2 3.2 0 00-.8-.9l.5-5.1a7.8 7.8 0 012.9 2.8 10.2 10.2 0 01.9 4.8 10.4 10.4 0 01-.7 4.3 6.6 6.6 0 01-2.4 2.6 7.6 7.6 0 01-8.9-1 7.8 7.8 0 01-1.9-5.6 9.6 9.6 0 01.9-4.6 6.3 6.3 0 012.5-2.6 8.9 8.9 0 014.3-.9h.4zm-2.4 5.4a3.4 3.4 0 00-2.1.8 2.6 2.6 0 00.4 3.7 3.8 3.8 0 001.8.6v-5.1zM60.8 0v3.8h9.6V9h-9.6v3.8H57V0z"/><path d="M22.9 368.3a.8.8 0 00.2-.5l-.3.2v.3zM39.7 352.2c-1.4.4-2.2 3.5-2.6 4.5s-.4 1.6-1 1.6-1-.1-.7 1 0 .9.2 1.5-1 1.8 0 1.7.8-.1.8.9a10.8 10.8 0 00.3 1.8c.9-.2 1 .4 1.6.5a6.5 6.5 0 003.5-.9h-.2a.8.8 0 000-.7h.8c1.2-.2 1.3-3.2 3.5-1.8.5.3.9-.6 1.2-.9 1-.9.6-.4 1-1.3l.2-.1c-.2-1.1-.8-1.1-1.1-1.3s-.6.4-.6-.2-.7-1.9-1.6-1.9c-2.6-.1-1.6-4.7-2.1-4.3s-.7 1.7-1 1.5a2.4 2.4 0 01-1-.7c-.5-.5-.6-1.1-1.2-.9zM32.5 314.2c.2.5 1.3 1.3 1.3 1.3a1.1 1.1 0 01.8 1.4c-.2 1 .7 3.6 1.5 3.5s1-1.4 1.2-2a12.7 12.7 0 011.2-2l-.5-2.3-.5-.5s-4-1.5-4.6-1.2-.6 1.3-.4 1.8z"/><path d="M37.9 294.6c-6.6.7-13.7 4.8-20.1 11.5A65.6 65.6 0 005 325.9c-26.6 63.3 59.4 84.8 65 11.2 1.2-15.3-1.6-24.8-4.7-25-2-.1-2.2 3.1-3.2 5.5-2 5.2-4 8.8-9.1 6.8-3.1-1.2-3.8-5.5-2.8-10 .8-3.7 1.6-7.2 1.4-10.9-.3-4.8-3.1-10-13.8-8.9zm-17.2 17a11 11 0 012.6.2q.3.1.3.3a1.4 1.4 0 01-.1-.3c.4 0-.1-.6.2-.6s.6.6.7.3a2.8 2.8 0 011.7-.9c.3.1.4-.2.7.1s.2.3.2.4c0 .2.2.2 0 .3l-.2.2.2.6c-.1.4-.3.3-.4.8a1.3 1.3 0 01-1 .4 2.3 2.3 0 01-1.2-.6l-.6-.7v.1a.7.7 0 010 .6 1.6 1.6 0 01-.8.7c-.3.1-.8.5-1 .4s-1.4-.9-1.5-1.5c-.4-.3-.4-.6.2-.8zm-3.3 2l-.1-.3c0-.1.3-.7 1.4-1.1.7-.3.8-.1.8.2.2.1 0 .5.2.8a.6.6 0 00.5.2l-.3.2c0 .1.2.2.4.1.5 0-2.6 1.1-3-.1zm6.8 3c0-.3-.3-.5.4-.7a2.8 2.8 0 01.8-.1l.2-.1c0 .1.7.1.8.6a.3.3 0 000 .2c.2.5.5.9.3 1.1l-.2.3c-.1.1-.2.2-.4.1a.3.3 0 00-.2-.1l-.2.2-.5.3c0 .1-.1.1-.2-.1l-.2-.2c-.1 0-.4-.2-.4-.4v-.2l-.1-.1c-.1-.1 0-.4 0-.4a.4.4 0 010-.3c-.1-.2-.2 0-.1-.1zm-7.1 3.8c-.1-.1-.2-.3 0-.7a2.8 2.8 0 011.3-1.2c.9-.6 2.5-2.2 3.5-1.1.7.7.8.9.8 1.1a.5.5 0 010 .5l-.6.5a17.6 17.6 0 01-3 1c-.1.1-2.1.7-2-.1zm9 1.3a.4.4 0 000-.3l.8-.9s1-.2 1.3.1a2.2 2.2 0 01.7.9v.3c.3.5.4.9.2 1.1s-1 .6-1.3.4a7.9 7.9 0 01-1.6-1.6zm-8 4.7c-.2-.2-.2-.5.2-1.2a13 13 0 011.2-1.2 1.7 1.7 0 011.8-.2c-.2-.1-.3-.3.2-.7.8-.5 2 0 2.3 0h.3a2.3 2.3 0 011 .7v.2a.1.1 0 010 .1v.7a3.4 3.4 0 01-2.3 1l-.6-.3-.3.3a4.1 4.1 0 01-2.7 1.2c-.7 0-1.1-.2-1.1-.6zm10.8.7a4.2 4.2 0 011-2.5c.6-.4.7-.4 1-.2l.3.3v.2a.3.3 0 00.3-.1 1.5 1.5 0 011.2-.2v.3a15 15 0 01-.2 1.7 2 2 0 01-1.1.8c-.3 0-.1.5-.2.5H31l-.8.2c-.2.2-1.2-.7-1.3-1zm-3.5 18.5a1.1 1.1 0 01-.6-1.2c-.1-.7 0-.4-.5-.5s-.4-.3-.3-.6v-.9c.3-.6 2-1.6 2-1.3.2.1 0 .3 0 .5.2.1-.1.6-.2 1 .3 0 1.2-.8 2-.8a3.2 3.2 0 012 1.3 14.1 14.1 0 01.8 2.8h-.1a.6.6 0 000 .4 2.4 2.4 0 01-2-.2c-.7-.6-.1.3-.6.6s-.7.3-1.7-.2c-1.2-.5-.3-.5-.8-.9zm-10 6.2a1.6 1.6 0 01-.5-.3.4.4 0 01-.3-.1c-.4-.2-.6-.3-.6-.5a8.4 8.4 0 01-3.6-.3c-1.3-.6-.8-.6-.8-.9a.1.1 0 01-.1-.1c-1.3-.8-.7-.6-.8-1.1s-1-1.6.5-2.3 5.2 1.8 5.2 1.8l.4.3.9-.2h1.2l2 .4h.2a3.7 3.7 0 01.2.9l-.2.6-.6.4s.3.2 0 .3c-.4.3-1.7 1.4-3 1.1zm6.2 1.9a1.2 1.2 0 00.2-.3l-.2-.1a11.3 11.3 0 012-2.7c.6-.4 1.8.1 2 .3s.4.5.3.9a5.7 5.7 0 01-.1 1.2 5.3 5.3 0 01-.8 1.5c-.3.4-2 .5-2 .5zM13 360c-.5.2-2.1-.5-2.2-.5a6 6 0 01-2.6-1.6c-.6-.5-.6-.9-.5-1.2-.3-.9 1-1.3 1-1.3s-.2-.9 2.5-.1 2.8 1.5 2.8 1.5l.2-.5 2 .8.3-.4a6 6 0 011.4.7c0 .2.8.3.5 1.1 0 .3 0 .8-.6 1.6-1.4 1.7-4.1-1-4.1-1 .3 1-.2.7-.7.9zm10 1.9c-1.2-.2-.7-.7-1-1.1v-1a.8.8 0 01-.2-.5.1.1 0 010-.1v-.3a1.4 1.4 0 01.6-.7 1.9 1.9 0 00.3-.4c.2-.4.3-.3.4-.2a6.3 6.3 0 00.9.4l.4.2.2-.2c.2-.1.5 0 .7.1l.5.4a.8.8 0 01.2.7 10.4 10.4 0 01-.1 1.6c0 .8-1.1 1.1-1.1 1.2l-.4-.1zm1.7 3.8c.5.2 1.2-.2 1.3 0l.3 1.1.6.1c.2.1 0 .3 0 .4a.4.4 0 01.5.2l-.1.5c.2.2.2.1 0 .6s-.5.2-.8.4a4.6 4.6 0 01-2.6-.4c-.3-.3-.5.7-.8.7s-.1-.3 0-.6c-.2 0-.1-.1-.1-.3a1.5 1.5 0 00-.4.2.3.3 0 01-.1.2 12 12 0 01-3.3 1.3c-.4 0-.5-.6-.5-1.3a6 6 0 010-2c.2-.5.4 0 .4 0 0 .2.4.1.4.1a1 1 0 00.2-.4c.2-.2.7-.1 1-.1a3.4 3.4 0 011.5.5c.2.3.4.6.3.9l.5-1.2c0-.2 1.2-1.1 1.7-.9zM14 369.2c-.5-.8-1.1-1.5-.8-1.7-.3-.6-.1-.8 1.4-.5 1.7.4 1.8-.6 1.8-.6 1.3-.3 1.6.4 1.6 1.2v.6a2.4 2.4 0 00.3.8l-.1.1a4.2 4.2 0 00.2.5 6.6 6.6 0 01-2 .7 2.6 2.6 0 01-2.4-1.1zm39.4-22.5c.2 0 .2.3.2.7.4.3.1 2.2.2 2.8l1.3 3.6.2.6a8.1 8.1 0 01.4 2 11.8 11.8 0 01-.8 3.8v.1a2.8 2.8 0 01-.1.8h-.1a17.4 17.4 0 01-1 1.6c-.6.5 0 .3-.7 2.4-.1.3-.3.2-.2.7.8 3.7-5.9 7.6-8.9 5.9a6 6 0 00-2.4-.6c-3.2-.2-11.1-.5-12-3.9a2.1 2.1 0 01-.3-.7c-.1-.2-.3-.5-.2-.7.3-.6-.3-1-.1-1.7a4.4 4.4 0 00.1-2 3 3 0 00-.4-.8.2.2 0 010-.3l-.2-.3c-.2-.4.3-.6.5-.9a8.4 8.4 0 000-1.6 7 7 0 000-2.2c-.2-.7-.1-.9.4-1.2s.4-1.8.3-2c-.2-.4 0-.3.2-1.2l-.1-.1.2-.5a3 3 0 01.1-.9c0-1.4 2.7-4.9 2.8-4.8l.7-.2c.8-.4 3.8.3 5.2 1.1a3.1 3.1 0 01.6.4 1.1 1.1 0 00.8.3c.3 0 .7.4 1 .9a2.6 2.6 0 011.3 0c1.1.2 5.6-1 6.2-1.6s.9-.3 1.7-.6c1-.5 2.8 1 3 1.1zm-3.2-4.2c1.2 1.3.4 1.2.7 1.8.1.1 0 .2-.2.3v.2c.3.5-3.3.9-3.3.9-.4.6-.7-2.3-1-3.1a2 2 0 010-1.1 1.4 1.4 0 01.9-1.2c.9-.5 1.7.9 2.9 2.2zm-26.5-1.3c-.4.8-1.2.7-1.6 1.1s-2.6-.5-3-1a6.3 6.3 0 01-.9-1.4c-1.7-.6-3.7-1.5-3.7-1.9s-.1-.6-.5-.8-.9-.7-.6-1c-.1-.2-.2-.4.1-.6a4.4 4.4 0 012.6-.5c.8.2 1.7-.2 1.8.1 0-.2 0-.4.4-.2a4.3 4.3 0 011.4 2.3c.3-.3.5-.5.7-.4a8.7 8.7 0 011.1.9 1.9 1.9 0 00.7.2c.2 0-.1.2.1.1s.2.3.3.5.2 0 .3.2.1 0 .2.1.5.6.6.4.4.3.3.9a5.4 5.4 0 01-.3 1zm20.1-7.6a4.7 4.7 0 011.2 1.8 13.9 13.9 0 011 2.6 1.8 1.8 0 01.1.5c-1 2.5-6-1-6-3.3-.4-1.2.2-2.2 2.8-2.2.4 0 .5.2.9.6zm-15.6-3.5l-.5.2-.6.6c-.2.1-.3-.1-.5-.3-.1.4-1.2 1.1-1.5 1.3a2 2 0 01-2.1 0 .4.4 0 01-.1-.3c-.4-.4.4-1 .4-1.1a16.2 16.2 0 012.3-1.8l.1.1a2.5 2.5 0 01.4-.7c.2-.4 1.5-1 1.8-.7s.7.2 1 .6a.4.4 0 01.1.3c.3.5.1 1 0 .9s-.2.1-.3.3l-.1.1-.1.1c-.2.2-.1.5-.3.4zm12-2.8c.1.1-.7.8-.8 1a2 2 0 01-.6 1.1 5.7 5.7 0 01-.7.4c-1.6.8-1-3 .4-3.2.5-.3 1-.2 1.7.7zm-.2-4.6c.1-.1.1-.1.2 0s2.4-.1 2.3.3.4.3-.3 1.2a5.3 5.3 0 01-1.6 1.7h-.2c-.5.3-1.4-.7-1.3-1.2-.1-.5.5-2.4.9-2zm2.1-10.8c.2 3.1 2.1 4.5 1.9 6.8a1.5 1.5 0 01-.1.7 2 2 0 01-.5 1.2l-.3.7c-.3.4-.9.1-1.4 0-2.1-.5-6 3.7-7.9 3.3-.4-.1-.3.3-.8-.3a.1.1 0 00-.1-.1 8.4 8.4 0 01-2.1-2.1 3.5 3.5 0 01-.5-1.3l-.1-.2-.5-1.1c-.2-.2-.4-.2-.4-.6l-.1-.4a3.5 3.5 0 01-.4-.9l-.1-.1-.3-.6c-.1-.1-.2-.1-.1-.2a.1.1 0 01-.1-.1c-.2-.1-.4-.2-.4-.4a3.2 3.2 0 00-.3-2 2.6 2.6 0 01-.2-1.9 1 1 0 01.1-.4c.5-1.2.5-1.5 1-1.6a2 2 0 011-.8c2.3-1.5 12.2-3.4 12.7 2.4z"/></g></svg>
