<svg xmlns="http://www.w3.org/2000/svg" viewBox="0 0 53.1 37.8"><g fill="#fff"><path d="M2.9 20.8c-.2-.1-.4-.3-.7-.2-.2.1-.5-.2-.5-.4s.2-.5.3-.7l.3-.3-.1-.1c-.2.1-.4.2-.6.2-.2 0-.5 0-.6-.1v-.4-.5c-1-.5-1.2-1-.9-2.1.3-1.1 1-2 1.9-2.7 1.3-1.1 2.7-1.8 4.4-2.1.8-.1 1.6-.1 2.3.2.8.3 1 .7.9 1.6-.1 1.1.2 2.2.5 3.3.1.4.3.8.6 1.2.1-.3.2-.6.3-.8.1-.2.3-.4.5-.6.3-.2.5 0 .6.3v1h.1c0 .2.1.3.1.5.1.3.2.7.1 1 0 .2 0 .4.3.4.2.1.4.1.6.2-.1.1-.1.2-.2.3.3.2.6.3.8.4v.4c.2 1.3-.1 2.4-.7 3.5-.3.5-.6 1-1 1.5s-.7 1-1.2 1.5c-.2-.6-.7-.7-1.2-.6-.6.1-1.3.1-1.8.3-.7.4-1.3.1-2-.1-.6-.2-.9-.6-1.2-1.2.2.2.1.3-.1.3.1-.6.1-1.1.1-1.7-.1 0-.1 0-.3.1 0-.3.1-.6.1-.9-.5-.2-.9-.4-1.1-.9 0-.1-.2-.1-.3-.2l.2-.2c-.2-.1-.5-.3-.7-.4-.3-.3-.2-.7.2-1 .4.1.8.2 1.3.3-.2-.4-.4-.6-.7-1 0 .5-.3.6-.6.7zm4.3 4.6c.4.1.8.2 1.2.2.3 0 .7 0 .8-.1.2-.2.4-.1.5-.1.2 0 .4 0 .6.1.3 0 .4-.1.5-.3 0-.1.1-.4.2-.4.3.1.2-.2.3-.4l.1-.1c.3.1.2-.2.3-.3 0-.1.1-.2.1-.3.2-.2.4-.5.5-.7.1-.4.3-.7.3-1.1.1-.7-.1-1.4-.5-1.9s-.9-1-1.3-1.5c-1.2 2.5-3.2 3.6-5.9 3.2.2.6.3 1.2.5 1.8.1.2.1.4.1.7.2.7.8 1 1.5 1.2.1.1.2.1.2 0zm.8-5.1c.3-.2.7-.4 1.1-.7.3-.2.4-.4.3-.7-.3-.8-.7-1.6-1-2.4-.2-.4-.4-.5-.9-.4-1 .3-1.8.8-2.6 1.5-.3.3-.4.6-.2.9.5.7 1 1.4 1.5 2 .2.2.4.3.7.1.4 0 .8-.2 1.1-.3zm-4.3 2v.1c.2.5.5.9 1.1 1 0-.3.1-.5.1-.6-.5-.2-.9-.4-1.2-.5zm8.6-3c.2-.5.1-1-.3-1.3-.2.9-.2 1 .3 1.3zM19 15.8c.2 0 .3-.1.5-.1.1.1.1.3.2.4-.5.3-1.1.6-1.6.9-.1-.1-.1-.3-.2-.4l.3-.3c-.5-.9-1-1.9-1.5-2.8-.4.2-.7.4-1.2.6.3.5.6 1.1.9 1.6.2.4.3.7.4 1.1.1.7-.2 1.2-.9 1.5-.1-.2-.2-.3-.3-.5.5-.3.5-.8.2-1.2-.3-.7-.7-1.4-1.1-2.1-.3.1-.6.1-.6-.4 1.2-.6 2.4-1.3 3.6-1.9.2.2.4.4 0 .7-.1 0-.1.2 0 .3.3.8.8 1.7 1.3 2.6zM40.8 2.4c.3-.1.5-.3.8-.4.1 0 .1-.1.2-.2-.1-.2-.2-.3-.3-.5 0 0-.1-.1-.2-.1-.3.2-.3-.1-.5-.4.5-.3 1-.6 1.6-.8.1.1.2.3.3.5-.5.2-.3.5-.1.8.3.4.5.9.8 1.4.2 0 .3-.1.5-.1-.1.1 0 .2.1.4-.5.3-1 .6-1.5.8-.1-.1-.2-.3-.2-.4.2-.4.2-.4-.2-.9-.3.2-.6.3-1 .5l.3.6c.3-.1.5 0 .6.4-.5.3-1 .6-1.5.8-.1-.2-.2-.3-.2-.4l.3-.3c-.3-.6-.7-1.2-1-1.9-.2 0-.3.1-.5.1 0-.1-.1-.3-.2-.4.5-.3 1-.6 1.6-.8.1.1.1.3.2.4l-.3.3c.2.2.3.4.4.6zM28.2 11.3c.1.2.1.3.2.4.1.1.2.2.3.1.3-.1.4 0 .4.3-.5.3-1 .6-1.5.8-.1-.2-.3-.3 0-.5 0 0 .1-.2 0-.2-.5-.9-1-1.8-1.4-2.7-.2 0-.3.1-.5.1-.1-.1-.2-.3-.2-.4.4-.2.8-.4 1.1-.6l.2.2c.2-.2.3-.5.5-.6.4-.4 1-.4 1.5 0 .6.4.9 1 1 1.7.1.8-.6 1.5-1.6 1.4zm-.7-1.3c.1.1.2.3.2.4.1.3.3.4.6.3.3-.1.5-.3.5-.6-.1-.6-.3-1.1-.8-1.4-.3-.2-.5-.1-.7.1-.2.2-.2.4-.1.6.2.3.2.5.3.6zM26.7 12.4c-.5.3-1 .5-1.5.8-.1-.2-.2-.3-.2-.4.3-.2.2-.4.1-.7-.2-.4-.4-.8-.7-1.2-.1-.2-.2-.2-.3-.1-.8.4-.8.4-.4 1.2.1.2.3.5.4.7.1.3.2.5.6.3.1.2.2.3.3.5-.5.3-1 .6-1.5.8-.1-.1-.2-.3-.2-.4l.3-.3c-.3-.6-.6-1.2-.9-1.7 0-.1-.1-.1-.2-.1-.4.1-.4.1-.5-.4 1.1-.6 2.3-1.2 3.4-1.9.1.1.2.3.2.4l-.3.3c.3.6.7 1.2 1 1.9 0-.2.3-.2.4.3zM32.4 6c-.1-.1-.2-.3-.3-.5.3-.1.5-.3.8-.4.3-.1.5-.3.8-.4.2.2.4.4.1.7-.1.1.1.4.1.6h.2c.1-.1.2-.3.2-.4.1-.3.1-.6.1-.9.1-.4.3-.6.6-.8.3-.1.4-.1.5.3 0 .1 0 .2.1.3-.6.3-.4.8-.5 1.3.6.2 1 .8 1.7.5.1.1.1.3.2.4-.3.2-.7.4-1 .5-.1 0-.2 0-.3-.1-.3-.2-.6-.3-.8-.5-.2-.1-.3-.1-.5.1.2.5.2.6.7.5.1.1.1.3.2.4-.5.3-1 .6-1.6.9-.1-.1-.1-.3-.2-.4l.3-.3c-.3-.6-.7-1.2-1-1.9-.1 0-.2.1-.4.1zM39.3 3.6c.6 1.1.3 2-.8 2.5-.6.3-1.2.1-1.6-.3-.3-.3-.5-.8-.7-1.2-.2-.7.2-1.4.9-1.8.6-.3 1.4-.2 1.8.4.2.1.3.2.4.4zm-2.1 1.1c.1.2.3.4.4.5.2.2.5.2.7.1.3-.1.4-.4.3-.6-.1-.5-.3-.9-.6-1.2-.2-.2-.5-.2-.8-.1-.1.2-.2.4-.2.7.1.2.2.4.2.6zM32.6 8.2c.2.1.3.2.5.4-.3.7-.9 1-1.6 1.2-.6.1-1.2-.2-1.5-.8a3 3 0 01-.4-1c-.2-.8.2-1.4 1-1.7.6-.3 1.3-.1 1.7.6l.3.6c-.6.3-1.2.6-1.8 1 .1.3.3.4.5.5.6.1.9-.4 1.3-.8zm-1.1-.7c-.2-.5-.5-.6-.8-.5-.3.1-.4.5-.2.9.3-.1.7-.3 1-.4zM22.1 13.3c-.6.3-1.2.6-1.8 1 .3.7.9.6 1.8-.3.1.1.3.2.5.3-.4.7-.9 1.1-1.6 1.2-.7.1-1.2-.3-1.5-.8-.1-.3-.3-.5-.3-.8-.2-.8.3-1.5 1-1.7.7-.2 1.3 0 1.7.7l.2.4zm-1.1-.1c-.2-.4-.5-.5-.8-.4-.3.2-.4.5-.2.9.3-.2.7-.4 1-.5z"/><path d="M6 23.4c0-.1.1-.2.2-.3.1.4.4.6.8.7.8.1 1.5 0 2.3-.3.6-.3 1.2-.5 1.7-.8.3-.2.6-.4.6-.9l.3.3c-.1.2-.1.3-.1.4-.1.4-.3.8-.6 1-.7.5-1.5.9-2.3 1.2-.4.1-.9.1-1.2-.1-.4-.3-.8-.7-1.2-1-.3-.1-.4-.1-.5-.2zm5.3-.8c-1.2.8-2.4 1.2-3.8 1.4v.1c.2 0 .3 0 .5.1v.1h-.3c.6.5 3.4-.7 3.6-1.7zM7.8 21.9c-.5.3-1 .5-1.4.8 0-.7.9-1.2 1.4-.8zM10.9 20.1c-.5.2-1 .5-1.4.8 0-.6.8-1 1.4-.8z"/><path d="M9.9 22.1c.1.3.1.5-.2.6-.7.4-1 .6-1.3.2.7.1 1.3-.2 1.5-.8zM6.5 17.2c.4-.2.7-.3 1.1-.4.1 0 .3 0 .3.1.4.7.7 1.5 1 2.2 0 .1 0 .2-.1.3-.6.3-1.2.7-1.8 1-.1 0-.3 0-.3-.1-.5-.6-.9-1.2-1.4-1.8-.1-.2-.1-.3.1-.4.3-.3.7-.7 1.1-.9z"/></g></svg>
