<svg xmlns="http://www.w3.org/2000/svg" viewBox="0 0 114.26 367.76"><title>ltb</title><path d="M69.69,17.73c54,49,15.43,83.38-21,113.65,64.79-12.67,31.49,19.91,31.49,19.91L54.86,171.92,65.71,186c13-8,27.87-23.89,27.51-24.25,33-45.2-15.93-41.62-17.73-40.9C155.11,76.73,87.43,0,87.43,0S69.69,18.1,69.69,17.73Z" fill="#fff"/><polygon points="0.93 351.7 0.93 367.76 113.45 367.76 113.45 321.18 96.38 321.18 96.38 351.7 0.93 351.7" fill="#fff"/><polygon points="17.15 326.57 17.15 307.07 113.45 307.07 113.45 290.98 17.15 290.98 17.15 271.53 0 271.53 0 326.57 17.15 326.57" fill="#fff"/><path d="M53.17,216.13a22.64,22.64,0,0,0-10-8.18,35.27,35.27,0,0,0-14.64-3,34.46,34.46,0,0,0-13.26,2.45,27.62,27.62,0,0,0-9.48,6.1,17.7,17.7,0,0,0-4.67,8.3Q0,226.45,0,235.9v23.61H113.45v-23c0-10.25-.35-12.61-.77-15.28a19,19,0,0,0-5.39-10.78,30.08,30.08,0,0,0-11.67-6.9A45.78,45.78,0,0,0,80.56,201,35.63,35.63,0,0,0,63.45,205,22,22,0,0,0,53.17,216.13ZM18.89,241.38V238.3c0-7.56.13-8,.39-9.63a8.46,8.46,0,0,1,4-6.06c2.19-1.36,7.1-2,10.61-2A15.12,15.12,0,0,1,42.73,223a9.53,9.53,0,0,1,4,6.48c.25,1.52.4,1.31.4,7.57v4.38Zm72.28-21.47a9.85,9.85,0,0,1,4.52,5.84c.43,1.56.69,1.12.69,6.92v8.71H64v-6.82c0-7.3.53-8,1.61-10.15a10.87,10.87,0,0,1,5.21-5,19.54,19.54,0,0,1,8.66-1.74C83.49,217.65,88.77,218.4,91.17,219.91Z" fill="#fff"/></svg>