<svg xmlns="http://www.w3.org/2000/svg" viewBox="0 0 33.85 97.89"><path fill="#fff" fill-rule="evenodd" d="M33.25 97.89v-9.07H20.16c-2.51 0-4.33-.78-4.33-3.07 0-2.75 2-3 4.33-3h13.09V73.7H20.16c-2.51 0-4.33-.78-4.33-3.07 0-2.75 2-3 4.33-3h13.09v-9.05H16.67c-3.91 0-8.19 2.06-8.19 8.15 0 5.91 3.49 7.75 3.77 8.11a7.06 7.06 0 00-3.77 6.42c0 3.3 1 5.95 3.81 7.79v.09H9.08v8.75zM24.63 42.24A3.63 3.63 0 0128.41 46a2.62 2.62 0 01-2.24 2.84c-1.63 0-2.14-1.05-2.61-3.07a15.23 15.23 0 00-1.16-3.57zm-6.7-8.71c-4.66 0-9.45-.09-9.45 11.27 0 5.64 1.11 12 7.91 12.24v-8.43c-1 0-2.47-.6-2.47-3.39 0-1.47.61-3 2.24-3s1.91 1.23 2.14 2.47c.89 4.63.61 13.43 8.24 13.43 5.08 0 7.31-3.81 7.31-8.39 0-2.93-.65-5.73-2.88-7.65V42a6.66 6.66 0 002.28-.32v-9.25c-1.54 1-3.59 1.1-5.4 1.1z"/><path fill="#fff" fill-rule="evenodd" d="M9.08 8.27v9.25l14.72 3.76v.09L9.08 25.08v9.58l24.17-7.79V16.15z"/><path fill="#fff" fill-rule="evenodd" d="M33.25 9.07V0H9.08v9.07zm-26.78 0V0H0v9.07z"/></svg>
