<svg xmlns="http://www.w3.org/2000/svg" viewBox="0 0 65 212.5"><path fill="#fff" fill-rule="evenodd" d="M31 180.2a7.7 7.7 0 01.4 7.2c-1 2.4-2.6 3.5-5 3.5h-7.6a7.6 7.6 0 01-3-.8 9 9 0 01-3.3-3.1 11.5 11.5 0 01-1.3-2.9h15.3a.8.8 0 00.7-1.1l-3.1-6.7h-8.5L14 173l-1.4-3h21.7l3 6.6h-8.5l2.1 3.7z"/><path fill="#fff" fill-rule="evenodd" d="M40 198.8H22a11.7 11.7 0 01-6.5-1.8 28.3 28.3 0 01-9.7-12.7c-1.3-2.7-1.2-2.9-3.4-7.2l8.5-.2L4 161.7h29.2l3.2 7H10.7l4.1 8.8h8.5l2.5 5.4H9.6a30 30 0 001.2 3.4 11.6 11.6 0 001.5 2.3 10 10 0 003.8 2.8 7.8 7.8 0 002.7.7h18.2l3 6.7z"/><path fill="#fff" fill-rule="evenodd" d="M45.5 196.1a113.7 113.7 0 00-6.2-19.6 86 86 0 00-4-7.9h1l-3-6.9h-2.6c-3.9-4.8-10.5-10.2-16.8-9.2h-.3a11 11 0 014.2 1 20.5 20.5 0 014 2.2l.6.5a29.5 29.5 0 014.2 3.8l1.5 1.7h-1.4L25 160c-4-4.2-8.4-6.9-12-6.6a.3.3 0 00-.1 0 .1.1 0 00-.2 0H12.2c-3 .8-5 3.8-5.7 8.2H4.1l2 4.5A43.9 43.9 0 007.8 177H5.5c-2.2-6-3.5-12-3.4-17a17.9 17.9 0 01.9-5 10.5 10.5 0 012-4 10 10 0 015-3.2l.8-.3c8.1-1.6 15.4 4 21.4 12.5a73.5 73.5 0 0113.4 36.1zM19 198.4c4.7 5.5 9.8 8.6 13.8 7.9 3.2-.6 5.3-3.3 6.1-7.5H40c-.2-.7-.5-1-.8-1.7a46 46 0 00-2.8-19.5l-.5-1.3h1.5c7 15 9 32.2-2.9 36C20.3 215 8 195 2.7 177.4c2 4 2 4.2 3.1 6.8a39.3 39.3 0 005.7 9.3c6.7 10.6 14.3 14.8 20 14l1.6-.4c5-1 2.2-.4 0 0-4.8.8-10.4-3-15.5-9.2a8.6 8.6 0 001.3.5zM2.5 177.1A64.8 64.8 0 010 163.6 128.8 128.8 0 003.8 177z"/><path fill="#fff" d="M24.6 144.1v-9.7l10-1.7-10-2.4V121H42v6.2H31.1l10.8 2.5v6l-11 2.6h11v5.8H24.6zm0-30V98h4.7v9h1.9v-7.5h4.4v7.6h1.9v-9H42v16.1H24.6zm0-23.6V75.2h4.6V83h8.1a3 3 0 010-.4 2.9 2.9 0 000-.3 3.3 3.3 0 00-.4-1.9 1.2 1.2 0 00-1-.6 1.3 1.3 0 00-1 .6 1.9 1.9 0 00-.5 1.3 2 2 0 00.2.9l-4.2-1.5a13.2 13.2 0 010-1.4 7.7 7.7 0 01.8-3.8 5.7 5.7 0 012.2-2.3 5.9 5.9 0 012.9-.8 6 6 0 012.7.7 5.2 5.2 0 012.9 4.8v12H24.6zm0-23.7V50.6h4.7v9h1.9v-7.4h4.4v7.5h1.9v-9H42v16H24.6zm17.3-36H29.5v2.9A32.2 32.2 0 0137 35a8 8 0 013.8 2.4 5.5 5.5 0 011.1 3.3 21.7 21.7 0 01-.3 2.6l-5 .9A1.6 1.6 0 0037 43a1.6 1.6 0 00-.5-1.3c-.8-1.3-4.7-2-11.9-2.2v-16H42v7.2zm0-14.1H24.6v-6.5h12.9a2.6 2.6 0 010-.4 1.7 1.7 0 000-.2 3.7 3.7 0 00-.4-2 1.1 1.1 0 00-1-.6 1.4 1.4 0 00-1 .6 1.8 1.8 0 00-.6 1.2 4.5 4.5 0 00.3 1l-4.3-1.5a11.8 11.8 0 010-1.4 7.8 7.8 0 01.8-3.8A5.8 5.8 0 0133.5.8a5.7 5.7 0 012.9-.8 6 6 0 012.7.7 5.4 5.4 0 012 1.9 5.5 5.5 0 01.8 2.8v11.3zM47.2 203.8v-6.4h6.1c.3 0 .5-.1.8-.4a2.5 2.5 0 00.4-1.6 18 18 0 00-.5-3h-6.8V186h17.3v6.3h-6.2a26.1 26.1 0 01.8 6 9.7 9.7 0 01-.7 4 2.3 2.3 0 01-2 1.6h-9.2zm0-22.2V167H52v8.2h1.8v-6.8h4.5v6.8h1.9V167h4.4v14.6H47.2zm0-19v-10.2a4.3 4.3 0 01.8-2.6 5 5 0 012.1-1.7 6.5 6.5 0 012.7-.6 6 6 0 012.9.7 5.1 5.1 0 012.2 2.1 6.5 6.5 0 01.8 3.4 10 10 0 010 1.2l-4.4 1.4a2.4 2.4 0 00.3-1 1.5 1.5 0 00-.4-1 1.6 1.6 0 00-1.1-.5 1.3 1.3 0 00-1 .6 3 3 0 00-.5 1.8v.5h12.9v5.8H47.2zm0-18.5v-6.4h6.1v-5.1h-6v-6.4h17.2v6.4H58v5h6.5v6.5zm8-28.5h.4a4 4 0 00.4 0 5 5 0 002.3-.5 3.4 3.4 0 002-3 .1.1 0 000-.2 3.8 3.8 0 00-.5-1.9 4 4 0 00-1.5-1.4 4.6 4.6 0 00-2.2-.5h-.4a4 4 0 00-2 .5 3.8 3.8 0 00-1.4 1.5 3.9 3.9 0 00-.5 1.9 3.3 3.3 0 00.8 2.2 4.5 4.5 0 002.5 1.3zm-8.2-3.8v-.3a12.5 12.5 0 01.7-4.4 9 9 0 012-3.1 8.4 8.4 0 016.1-2.6h.3a8.7 8.7 0 016.1 2.7 9.3 9.3 0 012 3.3 11.9 11.9 0 01.8 4.3v.8a11.3 11.3 0 01-.8 4.2 9.5 9.5 0 01-2 3.1 8.6 8.6 0 01-2.9 2 8.7 8.7 0 01-3.3.6 8.5 8.5 0 01-6.2-2.6 9.1 9.1 0 01-2-3.2 12.3 12.3 0 01-.8-4.4v-.4zm.2-32.6V64.6h4.7v8.2h1.8V66h4.5v6.8H60v-8.2h4.5v14.6H47.2zm0-19.2v-8.8l10-1.5-10-2.2v-8.4h17.3v5.5H53.7L64.5 47v5.5l-11 2.3h11V60H47.2zm17.3-25.5H47.2v-5.8H60a2 2 0 010-.3 1.5 1.5 0 000-.3 3.2 3.2 0 00-.4-1.7 1.2 1.2 0 00-1-.6 1.5 1.5 0 00-1 .5 1.6 1.6 0 00-.5 1.1 3.6 3.6 0 00.3 1L53 27a9.8 9.8 0 010-1.3 6.5 6.5 0 01.8-3.4 5.6 5.6 0 012.3-2.1 6.3 6.3 0 012.8-.7 6.8 6.8 0 012.7.6 5.2 5.2 0 012.1 1.7 4.5 4.5 0 01.8 2.6v10.1zM47.2.4h17.3v6.2H51.6v2.2a2.5 2.5 0 00.6 1.4 1.5 1.5 0 001 .5 1.4 1.4 0 001.2-.6 2.6 2.6 0 00.5-1.7 7.2 7.2 0 00-.2-1.4l9.8 3v6.8l-7.4-3a4 4 0 01-1.7 2.3 5.2 5.2 0 01-3 .8 5 5 0 01-4.4-2.6 7 7 0 01-.8-3.4V.4zm17.1 97.2A34.5 34.5 0 0065 91c0-7-3.1-8.5-5.4-8.3s-3.3 1.6-3.7 3.8c-.9-2-2.1-3.6-4.4-3.4-4.1.3-4.4 5.2-4.4 8.4a50 50 0 00.3 5.6l4.6.6a19.1 19.1 0 01-.5-4.3c0-.6 0-2.5.9-2.6s1 1.5 1 2.5a15.6 15.6 0 01-.3 2.8H58a14.5 14.5 0 01-.2-2.5c0-1 0-3.4 1.3-3.5 1.2 0 1.4 1.6 1.4 2.5a20.4 20.4 0 01-1 5.6l5-.8z"/></svg>
