<svg xmlns="http://www.w3.org/2000/svg" viewBox="0 0 223.65 30.36"><title>megatop</title><path d="M10.05,30.34c.76-1.2,1.46-2.22,2.08-3.29a21.16,21.16,0,0,0,3-11.56c-.11-2.9-1.28-3.93-4.19-3.73A11.15,11.15,0,0,0,6.42,13.2,19.86,19.86,0,0,0,1,17.52l-.88,1A.83.83,0,0,1,0,17.86V.81C0,0,0,0,.81,0H28.63c.32,0,.65,0,1,0,.54,0,.69.23.68.72,0,1.24,0,2.49,0,3.72,0,.59-.26.78-.78.81a20,20,0,0,0-4.59.84,13.24,13.24,0,0,0-4.45,2.28,8.25,8.25,0,0,0-.65,12.46,14.19,14.19,0,0,0,8.26,3.74c.55.08,1.1.16,1.66.2s.54.23.54.61q0,2.16,0,4.32c0,.46-.17.67-.63.64-.16,0-.32,0-.48,0H10.05ZM13.6,3.22a10.91,10.91,0,0,1-.26,3.69,2.79,2.79,0,0,1-2.95,2.28,6.53,6.53,0,0,1-3.8-1.3A14.35,14.35,0,0,1,3.13,4.44,8,8,0,0,0,2,3.08c-.22-.18-.45-.36-.76-.21a.87.87,0,0,0-.54.85,2.44,2.44,0,0,0,.4,1.11A13.75,13.75,0,0,0,4.49,8.65,8.94,8.94,0,0,0,9.8,10.58a4.36,4.36,0,0,0,4.8-3.75,15.3,15.3,0,0,0-.22-5.72,1.31,1.31,0,0,0-.12-.33.38.38,0,0,0-.35-.27c-.27,0-.3.23-.31.43Z" fill="#fff"/><path d="M4.77,30.34c-1.36,0-2.72,0-4.07,0-.51,0-.7-.15-.7-.68,0-2.6,0-5.19,0-7.79a1.7,1.7,0,0,1,.45-1.19A19.62,19.62,0,0,1,10,14.39c2.22-.61,3.48.32,3.63,2.63a17.54,17.54,0,0,1-1.07,6.46,45.85,45.85,0,0,1-2.64,6.16,1.13,1.13,0,0,1-1.21.71C7.4,30.32,6.08,30.34,4.77,30.34Z" fill="#fff"/><path d="M30.27,15.9c0,2.08,0,4.15,0,6.23,0,1,0,1.07-1.1.9a19.72,19.72,0,0,1-4.93-1.41A9.41,9.41,0,0,1,19.92,18a5.33,5.33,0,0,1,2.21-7.82A15.31,15.31,0,0,1,27,8.74c.76-.09,1.51-.14,2.27-.18.94-.05,1,0,1,.87,0,1.44,0,2.88,0,4.31Z" fill="#fff"/><path d="M81.32,21.6H72c-1,0-1,0-1-1V9.8c0-.92,0-.94.92-.94H90.73c.94,0,.94,0,1,.9s0,1-1.06,1H74.31c-1.19,0-1.19,0-1.2,1.15,0,2,0,2,1.92,2H90c.89,0,.89,0,.88,1,0,.16,0,.32,0,.48,0,.37-.18.5-.51.5H73.61a.46.46,0,0,0-.5.53q0,1.38,0,2.76c0,.37.21.48.54.47H90.32c.28,0,.56,0,.84,0s.52.14.51.49c0,.08,0,.16,0,.24,0,1.2,0,1.2-1.13,1.21Z" fill="#fff"/><path d="M118.84,10.89c-.93,1.68-.93,1.69-2.52,1a24.23,24.23,0,0,0-15.88-.5A7.84,7.84,0,0,0,98,12.61c-2.12,1.51-2.1,3.61.05,5.08a11.66,11.66,0,0,0,4.22,1.65,26.83,26.83,0,0,0,14-.59c.38-.12.88-.12,1-.5a3.81,3.81,0,0,0,.07-1.65.3.3,0,0,0-.33-.28c-.32,0-.64,0-1,0h-9.84c-.3,0-.73.15-.85-.21a2.74,2.74,0,0,1,0-1.53c0-.08.18-.15.29-.16a4,4,0,0,1,.6,0h12.12c1,0,1,0,1,1,0,1.12,0,2.24,0,3.36a1.17,1.17,0,0,1-.91,1.32A22.33,22.33,0,0,1,113,21.5a32.74,32.74,0,0,1-11.8-.43,14.5,14.5,0,0,1-3.92-1.47,6.6,6.6,0,0,1-2.33-2,4.17,4.17,0,0,1,.33-5.31,8.58,8.58,0,0,1,3.39-2.2,21.35,21.35,0,0,1,5.94-1.35,26.58,26.58,0,0,1,11,.85A18.19,18.19,0,0,1,118.84,10.89Z" fill="#fff"/><path d="M53.91,19.43l7.46-7.13c1-1,2.05-1.9,3-2.91C65.17,8.57,66.1,9,67,8.92c.15,0,.26.17.27.35s0,.4,0,.6c0,3.6,0,7.19,0,10.79,0,.91,0,.94-.93.93-1.86,0-1.53.19-1.54-1.48,0-2.68,0-5.35,0-8-.4-.06-.52.25-.71.43q-4.29,4.19-8.56,8.39a2.08,2.08,0,0,1-3.22,0l-8.13-8c-.33-.33-.68-.64-1.17-1.09v1.74c0,2.4,0,4.8,0,7.2,0,.79,0,.82-.78.82-2,0-1.67.22-1.68-1.6,0-3.39,0-6.79,0-10.19,0-.91,0-.85.93-.94a2.83,2.83,0,0,1,2.43,1c3,2.91,6,5.76,9,8.64Z" fill="#fff"/><path d="M182.57,8.53a25.18,25.18,0,0,1,7.92,1,9.27,9.27,0,0,1,4.65,2.81,4.06,4.06,0,0,1-.22,5.73,7.43,7.43,0,0,1-1.6,1.25,12.09,12.09,0,0,1-2.62,1.18,26.57,26.57,0,0,1-16.38,0A11.07,11.07,0,0,1,171.11,19a6.44,6.44,0,0,1-1.63-1.58,3.7,3.7,0,0,1-.19-4.27,6.92,6.92,0,0,1,2.9-2.62,17.4,17.4,0,0,1,5.59-1.69A28.66,28.66,0,0,1,182.57,8.53Zm.24,1.93a29.16,29.16,0,0,0-4.84.3,13.75,13.75,0,0,0-5.3,1.74c-2.3,1.46-2.3,3.71,0,5.17a12.06,12.06,0,0,0,3.65,1.47,25.15,25.15,0,0,0,10.22.43,15.52,15.52,0,0,0,5.87-1.93c2.07-1.25,2.17-3.42.26-4.91a8,8,0,0,0-2.57-1.25A23.52,23.52,0,0,0,182.81,10.46Z" fill="#fff"/><path d="M209,17h-6.83c-.78,0-.79,0-.8.81q0,1.62,0,3.24c0,.38-.11.56-.53.6-1.55.15-1.62.1-1.62-1.43,0-3.44,0-6.87,0-10.31,0-1,0-1,1-1,4.75,0,9.5,0,14.26,0a20.56,20.56,0,0,1,5.57.66,6.56,6.56,0,0,1,2.47,1.18,2.65,2.65,0,0,1,0,4.4,6.39,6.39,0,0,1-3.14,1.39,30.25,30.25,0,0,1-5.12.44Zm.2-1.92h0c2.12,0,4.23,0,6.35,0a14.1,14.1,0,0,0,4.36-.65,3.84,3.84,0,0,0,1.55-.87.69.69,0,0,0,0-1.14,3.55,3.55,0,0,0-1.54-.88,14.67,14.67,0,0,0-4.6-.65H202.22c-.87,0-.88,0-.89.84s0,1.68,0,2.52,0,.84.89.84Z" fill="#fff"/><path d="M120.84,21.6l4.36-4L134.56,9c.61-.56.64-.57,1.16-.1l13.66,12.43s0,.08.06.26H147.1a1.19,1.19,0,0,1-.82-.43c-.86-.77-1.74-1.53-2.6-2.31a1.6,1.6,0,0,0-1.18-.46q-7.25,0-14.5,0a1.62,1.62,0,0,0-1.18.47c-.77.7-1.59,1.34-2.34,2.05a2.16,2.16,0,0,1-1.82.7A17.72,17.72,0,0,0,120.84,21.6Zm14.35-10.46-5.64,5.16a90.13,90.13,0,0,0,11.31-.06Z" fill="#fff"/><path d="M156.25,8.87H167.4c.34,0,.83-.18,1,.18a2.49,2.49,0,0,1,0,1.53c0,.16-.22.2-.39.2h-9.59c-1.24,0-1.13,0-1.12,1.08,0,2.84,0,5.67,0,8.51,0,1.24,0,1.24-1.25,1.21-.84,0-.84,0-.86-.88,0-.24,0-.48,0-.72,0-2.76,0-5.52,0-8.28,0-.9,0-.92-.93-.92-3,0-5.91,0-8.87,0-.28,0-.56,0-.84,0s-.6-.13-.57-.56a7.85,7.85,0,0,0,0-.84c0-.34.14-.52.49-.52h11.75Z" fill="#fff"/></svg>