<svg xmlns="http://www.w3.org/2000/svg" viewBox="0 0 38.66 214"><title>missha</title><path d="M38.66,154.21v-.93H0v.93Z" fill="#fff"/><path d="M0,168.68l37.46,22.19L0,213.05V214H38.66v-.95H1.94l36.72-21.76v-.8L1.88,168.68H38.66v-.94H0Z" fill="#fff"/><path d="M0,47.18H18.93V76.79H0v.95H38.66v-.95H19.83V47.18H38.66v-.94H0Z" fill="#fff"/><path d="M0,18.73l38.65,18V35.66l-7.61-3.54V4.59L38.66,1V0L0,18Zm1.33-.38L30.1,5V31.69Z" fill="#fff"/><path d="M.93,130.69c0-4.89,2.35-8.7,7.26-10l-.3-.9C2.5,121.25,0,125.43,0,130.69c0,6,3.3,11,9.74,11,6.65,0,8.34-5.32,10-10.56s3.21-10.1,9.3-10.1c5.78,0,8.68,4.5,8.68,9.77,0,4.79-2.4,8.94-7.27,10.29l.26.89c5.43-1.31,7.94-6,7.94-11.17,0-6-3.32-10.71-9.66-10.71-6.71,0-8.42,5.35-10.1,10.6-1.62,5.07-3.22,10.05-9.26,10.05-5.88,0-8.71-4.71-8.71-10.08" fill="#fff"/><path d="M.93,100c0-4.89,2.35-8.7,7.26-10l-.3-.9C2.5,90.5,0,94.69,0,99.94c0,6,3.3,11,9.74,11,6.65,0,8.34-5.31,10-10.55C21.36,95.32,23,90.3,29.05,90.3c5.78,0,8.68,4.51,8.68,9.77,0,4.79-2.4,9-7.27,10.3l.26.88c5.43-1.31,7.94-6,7.94-11.17,0-5.94-3.32-10.71-9.66-10.71-6.71,0-8.42,5.35-10.1,10.61-1.62,5.07-3.22,10-9.26,10C3.76,110,.93,105.32.93,100" fill="#fff"/></svg>