<svg xmlns="http://www.w3.org/2000/svg" viewBox="0 0 75 204"><path fill="#fff" d="M75 182.3a1.2 1.2 0 010 .3 1 1 0 01-1.3.6l-33.9-11.3a1 1 0 11.7-2l33.8 11.4a1 1 0 01.7 1zM69 184.8a.8.8 0 010 .3 1 1 0 01-1.3.6l-27.9-9.3a1 1 0 01-.6-1.3 1 1 0 011.3-.6l27.8 9.3a1 1 0 01.7 1zM63 187.3a1.1 1.1 0 010 .3 1 1 0 01-1.3.7L39.8 181a1 1 0 01-.6-1.3 1 1 0 011.3-.6l21.8 7.3a1 1 0 01.7 1zM57 189.9a.9.9 0 010 .3 1 1 0 01-1.3.6l-15.9-5.3a1 1 0 01-.6-1.3 1 1 0 011.2-.6l16 5.3a1 1 0 01.6 1zM51 192.4a1 1 0 010 .3 1 1 0 01-1.3.7l-9.9-3.4a1 1 0 01.7-1.9l9.9 3.3a1 1 0 01.6 1zM45 195a1.1 1.1 0 010 .2 1 1 0 01-1.2.7l-4-1.3a1 1 0 01-.6-1.3 1 1 0 011.3-.6l3.9 1.3a1 1 0 01.7 1zM35.7 195c-.2 3-4 8.3-9 9a11.3 11.3 0 01-9.2-2.8c-5.5-5.2-2.9-15.6-10.3-18.6-2.6-1-5.3 0-7.1 4.5-.7-4 4.2-19 16.9-16.8 1.7-11.3 18.1-9.3 18.7-.6v25.2z"/><path fill="#fff" fill-rule="evenodd" d="M26.6 44.2h14.7a29.3 29.3 0 013.3.1 7 7 0 011.8.4q3.5 1.4 3.5 5.9a8.4 8.4 0 01-.7 3.8 2.2 2.2 0 01-2 1.3 2.1 2.1 0 01-1.6-.6 2 2 0 01-.6-1.6 4 4 0 010-.4v-.8-.7a1.4 1.4 0 00-.8-1.5 8.8 8.8 0 00-3.1-.4H26.6a3.5 3.5 0 01-2.5-.7 2.7 2.7 0 01-.8-2 2.6 2.6 0 01.8-2 3.5 3.5 0 012.5-.8zm-1.2-15.8l6.2 6h-5a3.7 3.7 0 00-2.4.7 2.5 2.5 0 00-.9 2 2.3 2.3 0 001 2 4.5 4.5 0 002.7.7h14.9a3.7 3.7 0 002.4-.7 2.5 2.5 0 00.9-2 2.6 2.6 0 00-.9-1.9 3.3 3.3 0 00-2.4-.8h-6.4l7.7-7a13.5 13.5 0 001.7-1.8A2 2 0 0045 24a2.5 2.5 0 00-1.1-1.7 2.8 2.8 0 00-2-.3 2 2 0 00-1 .4l-1.3 1.2-6.1 5.7-4.6-4.6-1.3-1.2a2 2 0 00-.8-.5 2.8 2.8 0 00-2.2.3 2.5 2.5 0 00-1.1 1.7 2 2 0 00.2 1.6 13 13 0 001.6 1.8zm-4.7 18.5a2.9 2.9 0 01-.7 2 2.5 2.5 0 01-2 .9 2.5 2.5 0 01-1.9-.9 2.9 2.9 0 01-.8-2A3 3 0 0116 45a2.5 2.5 0 012-.8 2.5 2.5 0 012 .8 2.8 2.8 0 01.7 2zM34.2 0a12.8 12.8 0 014.4.8 10 10 0 013.5 2.1 9.8 9.8 0 012.3 3.5 12.4 12.4 0 01.8 4.4 11.8 11.8 0 01-.8 4.5 10 10 0 01-2.3 3.4 9.7 9.7 0 01-3.5 2.1 12.6 12.6 0 01-4.4.8 12.9 12.9 0 01-4.5-.8 10 10 0 01-3.5-2.1 9.6 9.6 0 01-2.2-3.4 12.2 12.2 0 01-.8-4.5 12 12 0 01.8-4.5A9.5 9.5 0 0129.7.8a12.6 12.6 0 014.5-.8zm0 5.5A8.1 8.1 0 0029 6.8a4.8 4.8 0 00-1.8 4 4.8 4.8 0 00.8 2.7 5.2 5.2 0 002.4 1.9 9.8 9.8 0 003.7.6 9.8 9.8 0 003.7-.6 5.3 5.3 0 002.5-1.9 4.8 4.8 0 00.8-2.8A4.8 4.8 0 0039.3 7a8 8 0 00-5.1-1.5zm3.2 79.3h4.5a3.4 3.4 0 012.4.8 2.6 2.6 0 01.9 2 2.5 2.5 0 01-.9 1.9 3.5 3.5 0 01-2.4.8h-15c-2.5 0-3.7-1-3.7-2.7a2.2 2.2 0 01.8-2 9.2 9.2 0 013.5-.6c-2.8-.5-4.3-2.3-4.3-4.7a7 7 0 01.8-3.4 2.5 2.5 0 012.3-1.6 2.3 2.3 0 012.2 2.2 7.2 7.2 0 01-.3 1.4 7 7 0 00-.4 2 3 3 0 00.6 2 4 4 0 001.9 1.1 13 13 0 002.9.6l4.2.2zm-2.8 44.7h7.1a3.7 3.7 0 012.6.8 2.7 2.7 0 01.9 2 2.5 2.5 0 01-.9 2 3.7 3.7 0 01-2.5.8h-8.6a28 28 0 00-3.2.1 3.4 3.4 0 00-1.9.8 2.4 2.4 0 00-.7 2c0 1.8.6 3 1.8 3.5a12.6 12.6 0 005.2.8h7.3a3.8 3.8 0 012.6.8 2.6 2.6 0 01.9 2 2.6 2.6 0 01-.9 2 3.7 3.7 0 01-2.6.8H26.3a3.4 3.4 0 01-2.3-.7 2.4 2.4 0 01-.8-1.9 2.5 2.5 0 01.7-1.8 2.7 2.7 0 012-.8h.6a9.5 9.5 0 01-2.5-3 8.1 8.1 0 01-.8-3.5 7.1 7.1 0 01.8-3.6 6.3 6.3 0 012.5-2.4 9.2 9.2 0 01-2.5-3 7.6 7.6 0 01-.8-3.4 8 8 0 01.9-3.9 5.6 5.6 0 012.5-2.4 11.4 11.4 0 014.6-.7h10.6a3.7 3.7 0 012.5.8 2.6 2.6 0 01.9 2 2.6 2.6 0 01-.9 2 3.6 3.6 0 01-2.5.8h-9.1a20.7 20.7 0 00-2.8.1 3.2 3.2 0 00-1.8.9 2.6 2.6 0 00-.7 2 3.6 3.6 0 00.6 2 4.3 4.3 0 001.7 1.5 13.2 13.2 0 004.9.6zM34.2 93a12.8 12.8 0 014.4.7 10 10 0 013.5 2.2 9.7 9.7 0 012.3 3.4 12.4 12.4 0 01.8 4.5 11.8 11.8 0 01-.8 4.4 9.9 9.9 0 01-2.3 3.4 9.7 9.7 0 01-3.5 2.2 13.8 13.8 0 01-9 0 10 10 0 01-3.4-2.2 9.6 9.6 0 01-2.2-3.4 12.1 12.1 0 01-.8-4.4 12 12 0 01.8-4.5 9.6 9.6 0 015.7-5.6 12.6 12.6 0 014.5-.7zm0 5.4a8.1 8.1 0 00-5.2 1.5 4.8 4.8 0 00-1.8 3.9 4.9 4.9 0 00.8 2.8 5.2 5.2 0 002.4 1.8 9.8 9.8 0 003.7.7 9.8 9.8 0 003.7-.7 5.3 5.3 0 002.5-1.8 4.8 4.8 0 00.8-2.8 4.7 4.7 0 00-1.8-4 8 8 0 00-5.1-1.4zm0-44.7a13 13 0 00-4.5.7 9.8 9.8 0 00-3.5 2.2A9.9 9.9 0 0024 60a13 13 0 000 8.9 9.5 9.5 0 002.2 3.4 10 10 0 003.5 2.2 13 13 0 004.5.7 12.7 12.7 0 004.4-.7 9.7 9.7 0 003.5-2.2 10 10 0 002.3-3.4 13 13 0 000-8.9 9.5 9.5 0 00-2.2-3.4 9.8 9.8 0 00-3.6-2.2 12.8 12.8 0 00-4.4-.8zm0 5.4a8 8 0 015 1.5 4.7 4.7 0 012 4 4.9 4.9 0 01-.9 2.8 5.3 5.3 0 01-2.4 1.8 9.8 9.8 0 01-3.7.7 9.8 9.8 0 01-3.8-.7 5.2 5.2 0 01-2.4-1.9 4.8 4.8 0 01-.8-2.8 4.8 4.8 0 011.8-3.9 8.1 8.1 0 015.2-1.5z"/></svg>
