<svg xmlns="http://www.w3.org/2000/svg" viewBox="0 -1 721 179"><g fill="#fff">
  <path fill-rule="evenodd" d="M582 128l4-86-38-19 1-19h168l-1 18-45 20-4 87 42 21-2 24H534l1-21 47-25zM400 130h-26l2-31h25c14-1 20 11 17 19 0 0-2 12-18 12zm3-61h-25l1-30h27c10 0 17 7 15 17 0 0-1 13-18 13zm73-66s32-3 38 38c0 0 3 28-26 45 32 9 26 47 26 47-10 43-54 41-54 41H246l2-22 40-24 3-87-37-18 1-19 221-1zM123 27h5c11 0 20 9 20 21l-4 78c-1 12-11 21-22 21h-5c-12 0-20-9-20-21l4-78c1-12 11-21 22-21zM81 4h92c40 0 71 33 69 75l-1 20c-2 41-37 75-77 75H72c-40 0-71-34-69-75l2-20C7 37 41 4 81 4z"/><path d="M679 111c0-4 2-8 5-11a15 15 0 0 1 21 0c3 3 4 7 4 11 0 5-1 9-4 11a15 15 0 0 1-21 0c-3-2-5-6-5-11zm15 2h-3v6h-3v-16h8c2 0 4 2 5 3v4l-3 3 4 6h-4l-4-6zm-3-3h5l2-1v-1l-2-2h-5v4zm-5-8c-3 3-4 6-4 9 0 4 1 7 4 9a12 12 0 0 0 17 0c2-2 4-5 4-9 0-3-2-6-4-9a12 12 0 0 0-17 0z"/>
</g></svg>
