<svg xmlns="http://www.w3.org/2000/svg" viewBox="0 0 510.24 396.85"><g fill="#fff">
  <path d="M372.37 164.47h20.39v81.56h-20.39zM356.06 164.47h-89.73v17.54H301v64.03h20.39v-64.03h34.67zM489.06 164.47v59.22l-49.69-59.22h-28.26v81.57h20.39v-59.22l49.69 59.22h28.25v-81.57z"/><path d="M78.74 164.47H17.56A18.36 18.36 0 0 0-.79 182.83v44.85a18.36 18.36 0 0 0 18.35 18.36h61.18a18.35 18.35 0 0 0 18.35-18.36v-44.85c0-10.13-8.21-18.36-18.35-18.36zm-2.04 53.84a10.2 10.2 0 0 1-10.2 10.2H29.8a10.2 10.2 0 0 1-10.2-10.2v-26.1A10.2 10.2 0 0 1 29.8 182H66.53a10.2 10.2 0 0 1 10.17 10.2v26.1zM252.06 188.94v-6.11c0-10.13-8.2-18.36-18.35-18.36h-61.17a18.36 18.36 0 0 0-18.36 18.36v12.23a18.35 18.35 0 0 0 18.36 18.35h50.97a8.16 8.16 0 1 1 0 16.32h-40.78a8.16 8.16 0 0 1-8.16-8.16h-20.39v6.12c0 10.12 8.21 18.35 18.35 18.35h61.18a18.36 18.36 0 0 0 18.35-18.35v-12.24a18.35 18.35 0 0 0-18.35-18.35h-50.98a8.16 8.16 0 1 1 0-16.31h40.78c4.51 0 8.16 3.65 8.16 8.15h20.4z"/><path d="M125.64 150.2a14.28 14.28 0 1 1-.01 28.55 14.28 14.28 0 0 1 0-28.55"/>
</g></svg>
