<svg xmlns="http://www.w3.org/2000/svg" data-name="Layer 1" viewBox="0 0 43.54 8.64"><path fill="#fff" d="M1.28 7.38a4.3 4.3 0 010-6.12 4.59 4.59 0 016.32 0 4.32 4.32 0 010 6.12 4.59 4.59 0 01-6.32 0zm.94-5.27a3 3 0 00-.9 2.21 3.07 3.07 0 003.12 3.12 3 3 0 002.21-.9 3.06 3.06 0 00.91-2.22 3.13 3.13 0 00-5.34-2.21zM12.66 6.77a2.1 2.1 0 001.56.67 2.08 2.08 0 001.55-.67 2.21 2.21 0 00.66-1.61v-5h1.33v5a3.32 3.32 0 01-1 2.46 3.59 3.59 0 01-5 0 3.33 3.33 0 01-1-2.46v-5h1.33v5a2.2 2.2 0 00.57 1.61zM19.07.12h6.36v1.2h-2.52v7.2h-1.32v-7.2h-2.52zM26.87.12h5.88v1.2h-4.56v2.34h3.6v1.2h-3.6v3.66h-1.32zM34.43 8.52V.12h1.32v8.4zM37.18.12h6.36v1.2h-2.52v7.2h-1.36v-7.2h-2.52z"/></svg>
