<svg xmlns="http://www.w3.org/2000/svg" viewBox="0 0 40.31 8.52">
  <g id="Layer_2" data-name="Layer 2">
    <g id="Layer_1-2" data-name="Layer 1">
      <g>
        <path d="M1.2,1.8H4.56a2.75,2.75,0,0,1,2,.79A2.55,2.55,0,0,1,7.38,4.5a2.59,2.59,0,0,1-.81,1.92,2.78,2.78,0,0,1-2,.78h-2v3H1.2ZM4.56,3h-2V6h2a1.49,1.49,0,0,0,1.5-1.5,1.46,1.46,0,0,0-.44-1.07A1.45,1.45,0,0,0,4.56,3Z" transform="translate(-1.2 -1.8)" fill="#fff"/>
        <path d="M13.26,10.2h-1.2V9.6L12,9.68l-.22.17a3.13,3.13,0,0,1-.36.22,2.75,2.75,0,0,1-.49.17,2.39,2.39,0,0,1-.59.08,2.13,2.13,0,0,1-1.46-.51,1.51,1.51,0,0,1-.58-1.17,1.68,1.68,0,0,1,.45-1.19A2.12,2.12,0,0,1,10,6.84l2.1-.36a1,1,0,0,0-.34-.77,1.24,1.24,0,0,0-.86-.31,1.88,1.88,0,0,0-.83.19A1.4,1.4,0,0,0,9.52,6l-.16.2L8.58,5.4l.09-.12L9,5a3.72,3.72,0,0,1,.45-.33A3.37,3.37,0,0,1,10,4.43a3.18,3.18,0,0,1,.82-.11,2.48,2.48,0,0,1,1.73.62,2,2,0,0,1,.67,1.54Zm-2.76-1a1.52,1.52,0,0,0,1.15-.44,1.75,1.75,0,0,0,.41-1.24V7.44l-1.86.3A1,1,0,0,0,9.67,8a.73.73,0,0,0-.2.52.64.64,0,0,0,.28.5A1.17,1.17,0,0,0,10.5,9.24Z" transform="translate(-1.2 -1.8)" fill="#fff"/>
        <path d="M16.25,1.8v8.4H15.06V1.8Z" transform="translate(-1.2 -1.8)" fill="#fff"/>
        <path d="M22.68,10.2H21.47V9.6l-.07.08-.23.17a3.13,3.13,0,0,1-.36.22,2.92,2.92,0,0,1-.48.17,2.47,2.47,0,0,1-.6.08,2.1,2.1,0,0,1-1.45-.51,1.51,1.51,0,0,1-.58-1.17,1.67,1.67,0,0,1,.44-1.19,2.12,2.12,0,0,1,1.23-.61l2.1-.36a1,1,0,0,0-.33-.77,1.27,1.27,0,0,0-.87-.31,1.91,1.91,0,0,0-.83.19,1.6,1.6,0,0,0-.51.39l-.16.2L18,5.4l.1-.12A2.79,2.79,0,0,1,18.37,5a3.72,3.72,0,0,1,.45-.33,3,3,0,0,1,1.45-.37A2.46,2.46,0,0,1,22,4.94a2,2,0,0,1,.68,1.54Zm-2.76-1a1.5,1.5,0,0,0,1.14-.44,1.7,1.7,0,0,0,.41-1.24V7.44l-1.86.3a1,1,0,0,0-.52.26.73.73,0,0,0-.2.52.61.61,0,0,0,.28.5A1.14,1.14,0,0,0,19.92,9.24Z" transform="translate(-1.2 -1.8)" fill="#fff"/>
        <path d="M28.67,4.44V5.52l-3.18,3.6h3.3V10.2H24V9.12l3.18-3.6H24.11V4.44Z" transform="translate(-1.2 -1.8)" fill="#fff"/>
        <path d="M34.43,4.44V5.52l-3.18,3.6h3.3V10.2h-4.8V9.12l3.18-3.6H29.87V4.44Z" transform="translate(-1.2 -1.8)" fill="#fff"/>
        <path d="M36.41,9.42a2.85,2.85,0,0,1-.9-2.1,2.88,2.88,0,0,1,.9-2.11,2.93,2.93,0,0,1,4.21,0,2.87,2.87,0,0,1,.89,2.11,2.84,2.84,0,0,1-.89,2.1,2.91,2.91,0,0,1-4.21,0Zm3.37-.74a1.9,1.9,0,0,0,.53-1.36A1.9,1.9,0,0,0,39.78,6a1.72,1.72,0,0,0-1.27-.56A1.69,1.69,0,0,0,37.25,6a1.87,1.87,0,0,0-.54,1.36,1.87,1.87,0,0,0,.54,1.36,1.69,1.69,0,0,0,1.26.56A1.72,1.72,0,0,0,39.78,8.68Z" transform="translate(-1.2 -1.8)" fill="#fff"/>
      </g>
    </g>
  </g>
</svg>
