<svg xmlns="http://www.w3.org/2000/svg" viewBox="0 0 246 53.9"><title>panorama</title><path d="M102.74,0a18.53,18.53,0,0,1,7.19,35.6H129.2a.5.5,0,0,1,.5.5v.44a.51.51,0,0,1-.5.51H102.71a18.53,18.53,0,0,1,0-37ZM92.28,9.29a5.59,5.59,0,1,1-5.59,5.59A5.59,5.59,0,0,1,92.28,9.29Zm3.82,12.4a5.59,5.59,0,1,1-5.59,5.59A5.6,5.6,0,0,1,96.1,21.69Zm13.13.27a5.72,5.72,0,1,1-5.72,5.72A5.73,5.73,0,0,1,109.23,22Zm4.29-12.42a5.72,5.72,0,1,1-5.72,5.72A5.73,5.73,0,0,1,113.52,9.54Zm-10.6-7.8A5.72,5.72,0,1,1,97.2,7.45,5.72,5.72,0,0,1,102.92,1.74Zm-.18,14.49a2.3,2.3,0,1,1-2.29,2.3A2.29,2.29,0,0,1,102.74,16.23ZM99.05,19.1a.68.68,0,1,1-.67.67A.67.67,0,0,1,99.05,19.1Zm3.49,2.68a.67.67,0,0,1,.68.67.68.68,0,1,1-1.35,0A.67.67,0,0,1,102.54,21.78Zm3.84-2.54a.67.67,0,0,1,.67.67.68.68,0,1,1-.67-.67ZM105.29,15a.67.67,0,1,1-.68.67A.67.67,0,0,1,105.29,15Zm-5.05-.16a.67.67,0,1,1,0,1.34.67.67,0,0,1,0-1.34Z" fill="#fff" fill-rule="evenodd"/><path d="M62.6,16.39H75.82L75.75,4.06c0-.8.38-1.51,1.26-1.51h2.22c.88,0,1.28.71,1.29,1.5l.15,28.85c0,.8-.41,1.51-1.28,1.51H77.16c-.88,0-1.25-.71-1.26-1.5l-.08-12.19H62.6L62.68,33c0,.8-.38,1.52-1.26,1.52H59.19c-.87,0-1.27-.71-1.28-1.51L57.76,4.21c0-.8.41-1.52,1.28-1.52h2.23c.87,0,1.25.72,1.26,1.51Z" fill="#fff" fill-rule="evenodd"/><path d="M199.74,28.94q3-11.43,5.93-22.86c1.21-5,9.11-4.3,9.13,1l.09,25.8a1.45,1.45,0,0,1-1.61,1.48h-1.43a1.43,1.43,0,0,1-1.58-1.48q-.06-12.06-.15-24.13a.15.15,0,0,0-.3,0l-5.34,21.93c-1.27,5.21-9,5.13-10.43,0q-3-11-6.07-21.93c-.07-.19-.34-.15-.34,0q0,12.06,0,24.12a1.43,1.43,0,0,1-1.58,1.48h-1.43a1.45,1.45,0,0,1-1.6-1.48Q183,20,183,7.11c0-5.33,7.74-6.11,9.11-1.06q3.4,11.45,6.82,22.89a.45.45,0,0,0,.81,0Z" fill="#fff" fill-rule="evenodd"/><path d="M5.61,2.69A5.22,5.22,0,0,0,.37,7.87L.43,33.94c0,.41.19.62.6.62H4.15c.4,0,.59-.22.58-.62l0-26.56a.51.51,0,0,1,.49-.5h13a.51.51,0,0,1,.5.5l0,26.56c0,.43.2.62.61.62h3.15c.38,0,.55-.26.55-.62l.05-26.07a5.21,5.21,0,0,0-5.24-5.18Z" fill="#fff"/><path d="M144.83,2.75H131.06c-3.63-.28-6.15,2.81-6.15,6.69l0,24.67a.52.52,0,0,0,.53.45h3.83a.54.54,0,0,0,.46-.55V23.75h15.65c3.79.33,6.22-2.79,5.92-6.59V9.41c0-4-2.7-6.95-6.44-6.67Zm2.11,15.91a.73.73,0,0,1-.65.76h-15.6c-.76,0-1-.72-1-1.24,0-3.44,0-6.88,0-10.33a.78.78,0,0,1,.71-.77l15.75,0a.84.84,0,0,1,.77.78Z" fill="#fff"/><path d="M33.81,25.92,31.69,34.1s-.09.46-.37.46H27c-.39,0-.27-.47-.27-.47l6.6-25.17c.8-3.07,2.6-6.2,7.13-6.2s6.34,3.13,7.14,6.2l6.59,25.17s.13.47-.27.47H49.69c-.29,0-.37-.46-.37-.46L47.2,25.92H33.81Zm6.7-4.33h5.57L43.32,9.79a3.31,3.31,0,0,0-2.81-2.74,3.31,3.31,0,0,0-2.82,2.74l-2.76,11.8h5.58Z" fill="#fff"/><path d="M158.93,25.92,156.8,34.1s-.08.46-.37.46h-4.27c-.39,0-.27-.47-.27-.47l6.6-25.17c.8-3.07,2.6-6.2,7.13-6.2s6.34,3.13,7.14,6.2l6.59,25.17s.13.47-.27.47h-4.27c-.29,0-.37-.46-.37-.46l-2.12-8.18H158.93Zm6.7-4.33h5.57l-2.77-11.8a2.81,2.81,0,0,0-5.62,0l-2.76,11.8h5.58Z" fill="#fff"/><path d="M225.56,25.92l-2.13,8.18s-.08.46-.37.46h-4.27c-.39,0-.27-.47-.27-.47l6.6-25.17c.79-3.07,2.6-6.2,7.13-6.2s6.34,3.13,7.13,6.2L246,34.09s.12.47-.27.47h-4.27c-.29,0-.37-.46-.37-.46L239,25.92H225.56Zm6.7-4.33h5.57l-2.76-11.8a2.82,2.82,0,0,0-5.63,0l-2.76,11.8Z" fill="#fff"/><path d="M103.5.12,102.81,0H76.26a.5.5,0,0,0-.5.5V1a.5.5,0,0,0,.5.5h27.35a.5.5,0,0,0,.5-.5V.5C104.11.23,103.77.17,103.5.12Z" fill="#fff" fill-rule="evenodd"/><path d="M11.09,50.2H8.5c-.22,1.32-1.16,2-2.73,2a3.06,3.06,0,1,1,0-6.11c1.41,0,2.38.58,2.65,1.57H11c-.21-1.86-2.3-3.23-5.16-3.23C2.21,44.46,0,46.55,0,49.17,0,52,2.29,53.9,5.75,53.9c3.27,0,5.07-1.5,5.34-3.7Zm15.09-5.52H17.25v9H26.3V52H19.85V49.81h5.82V48.26H19.85v-2h6.33V44.68Zm15.16,0H31.56v1.68h3.58v7.32h2.62V46.36h3.58Zm15.38,6.11c0-2-1.84-2.88-4.23-2.88H49.68V44.68H47.09v9h5.27c2.57,0,4.36-.91,4.36-2.89Zm-2.54,0c0,1-.77,1.3-2,1.3H49.69V49.47h2.45c1.17,0,2,.34,2,1.29Zm33.05-6.08h-3.3l-4.68,3.74V44.68H76.67v9h2.58V50.77l1.52-1.13,3.61,4h3.28l-5.1-5.45,4.67-3.55Zm16,0h-2.95l-4.48,6.23h0V44.68H93.12v9h2.95l4.48-6.25h0v6.25h2.61v-9Zm16.8,0H117.4v3.39h-4.87V44.68h-2.61v9h2.61V49.8h4.87v3.88H120Zm12.1-.22c-3.57,0-5.91,1.88-5.91,4.73s2.36,4.71,5.89,4.71S138,52,138,49.19,135.59,44.46,132.11,44.46Zm0,1.62a3.1,3.1,0,1,1,0,6.19,3.1,3.1,0,1,1,0-6.19Zm20.62-1.4H142.9v1.68h3.58v7.32h2.63V46.36h3.58Zm14.71,0h-8.94v9h9V52h-6.45V49.82h5.82V48.26h-5.82v-2h6.34V44.68Zm12.23,0h-2.69l-4.53,9h2.68l1-2h4.44l.93,2h2.75l-4.54-9Zm.22,5.55h-3.16l1.59-3.34Zm17.33-5.55H187.4v1.68H191v7.32h2.62V46.36h3.58Zm5.8,0v9h2.59V50.45h2.68c2.39,0,4.23-.91,4.23-2.87s-1.79-2.9-4.36-2.9Zm2.59,1.62h2.34c1.16,0,2,.34,2,1.3s-.87,1.29-2,1.29h-2.33Zm18.34-1.83c-3.56,0-5.9,1.87-5.9,4.73s2.36,4.7,5.89,4.7,5.85-1.9,5.85-4.7-2.36-4.73-5.84-4.73Zm0,1.62a3.09,3.09,0,1,1-3.23,3.07A2.92,2.92,0,0,1,223.88,46.09Zm12.05-1.41v9h5.95c2.24,0,4-.93,4-2.68,0-1.26-.93-1.94-2.17-2.2A2.06,2.06,0,0,0,245.36,47c0-1.59-1.71-2.26-3.8-2.26h-5.63Zm2.54,1.53h2.38c1,0,2,.16,2,1.07s-1,1-2,1h-2.38V46.22Zm0,3.46H241c1.17,0,2.34.14,2.34,1.22s-1.08,1.23-2.2,1.23h-2.63Z" fill="#fff"/></svg>