<svg xmlns="http://www.w3.org/2000/svg" viewBox="0 0 231.6 277.2"><path fill="#fff" fill-rule="evenodd" d="M228.7 225.4h-3.2L223 229v-3.6h-2.7v9h2.7v-3.7l2.5 3.8h3.4l-3.6-4.7zm-22.5 0h2.7v9.1h-2.7zm-17.3 2.2h2v6.9h2.7v-7h2v-2.1h-6.7zM177 229a3 3 0 00-.7-.2 2 2 0 00-.5-.2.6.6 0 00-.2 0l-.2-.1a1.3 1.3 0 01-.5-.2.6.6 0 01-.2-.5.4.4 0 000-.2v-.1a.7.7 0 01.4-.3.8.8 0 01.5-.2 2 2 0 01.7.2 4.8 4.8 0 01.6.4l.2.1v.1h.2l1-1.9a4 4 0 00-1.7-.7 5.5 5.5 0 00-1-.1h-.2a3.4 3.4 0 00-2.4.8 2.6 2.6 0 00-.8 2 2.5 2.5 0 00.5 1.6 3.7 3.7 0 001 .9 3.1 3.1 0 00.6.2h.4a.1.1 0 00.1 0 4 4 0 011 .4.8.8 0 01.3.8v.1a.6.6 0 010 .2.6.6 0 01-.3.3.8.8 0 01-.5.1h-.1a.2.2 0 00-.1 0 2.5 2.5 0 01-1-.3 5.2 5.2 0 01-.8-.6l-.1-.1a.7.7 0 01-.1-.2h-.2l-1.2 2a11.2 11.2 0 001 .8 5 5 0 001 .5 3.3 3.3 0 00.7.1 3.1 3.1 0 00.7 0h.2a4 4 0 002.3-.6 2.5 2.5 0 001-2.3 2.8 2.8 0 00-.4-1.8 3.5 3.5 0 00-1.2-.9zm-18.6-3.7h2.7v9.1h-2.7z"/><path fill="#fff" d="M145.5 230.8a3.2 3.2 0 001.3-.8 2.6 2.6 0 00.5-1.9 2.4 2.4 0 00-.5-1.6 3 3 0 00-1-.8 2.9 2.9 0 00-1-.3h-4.6v9.2h2.8v-2.8l1.8 2.8h3.2l-2.6-3.7zm-.9-2.4v.1a1.4 1.4 0 01-.2.7 1.2 1.2 0 01-1 .3h-.4v-2.1h.5a1.2 1.2 0 01.9.3 1.1 1.1 0 01.3.6z"/><path fill="#fff" fill-rule="evenodd" d="M126.3 230.8a2.6 2.6 0 010 .3v.5a2 2 0 01-.4.6 1.1 1.1 0 01-1 .4 1.2 1.2 0 01-.8-.4 2 2 0 01-.4-.6 1.6 1.6 0 01-.1-.5 2.7 2.7 0 010-.3v-5.4h-2.7v5.4a3.7 3.7 0 001.1 3 4.3 4.3 0 003 1 4.3 4.3 0 003-1 3.7 3.7 0 001-3v-5.4h-2.7v5.4z"/><path fill="#fff" d="M105.1 225.1h-.1a4.6 4.6 0 00-3.7 1.5 5.3 5.3 0 000 6.7 4.6 4.6 0 003.7 1.5h.1a4.6 4.6 0 003.7-1.5 5 5 0 001.2-3.4 5.2 5.2 0 00-1.2-3.3 4.6 4.6 0 00-3.7-1.5zm1.6 6.6a2.1 2.1 0 01-1.1.8h-.6a2.8 2.8 0 01-.3 0h-.3a2.4 2.4 0 01-1-.8 2.7 2.7 0 01-.6-1.8 2.6 2.6 0 01.5-1.7 2.4 2.4 0 011.1-.8 1.1 1.1 0 01.3 0 1.1 1.1 0 01.3 0h.6a2.4 2.4 0 011.1.8 2.6 2.6 0 01.5 1.7 2.8 2.8 0 01-.5 1.8z"/><path fill="#fff" fill-rule="evenodd" d="M83.2 227.6h2v6.9h2.7v-6.9h2v-2.2h-6.7v2.2z"/><path fill="#fff" d="M65.4 186.3a15.2 15.2 0 00-3.8-.4 30.7 30.7 0 00-3.1 3.5h-.7a32.5 32.5 0 01.4-4.1c-.5-2.2-1.8-2.2-3.3-3.6-.5-3.3-4.3-4.1-3.8-7.7.4-1.7 2.3-.2 3.6-1.2 1.8-.6 3.3 2.6 4.8 0 .1-.1-.3-.6-.3-1.1l1-.3c1-5-5-3.2-7.2-5.4.3-2-1.7-1.5-2.7-2.5-.5 0-.1-.8-.8-.8-1 .3-2.3.3-2.8 2-.1-1-1.1-1.3-1.6-1.5-.1.8.8 1.5.3 2.6-2.3.2-3.6 2-4.4 3.6l-.1-.1c-.4 2-2.3 3.2-2.3 5.4.5.8 1.1-.7 2-.2a4.6 4.6 0 00-2 2 3.7 3.7 0 000 2.6c1-.3 2-1.6 2.7-2-.3 1.6-1.3 2.5-2.3 3.8l-.2 2.4a11.4 11.4 0 01-2.9-2.8c-1.1-.6-1.6-2.1-2.6-3.4-4.4-5.4-11-1.3-16-1.8a29.2 29.2 0 01-17-8.2 9.8 9.8 0 001.3 4.6A10.2 10.2 0 006 177c-1.5.3-2.5-.8-3.6-1.3v.3a15.7 15.7 0 003.6 5.6c1.5 2 4 1.3 5.7 2.4-.6.8-2 .5-3 .5 1 2.3 3.4 4.1 5.6 4.1.7.2 1.5-.7 1.7.3-.2 1.2-1.7 1-2.5 1a14 14 0 004 4.3c3.9.1 6.6 4.7 10.6 2.3 1.8 1.8 3.7-.8 5.7-.7 0 .4-.5.7-.5.8-2.5.9-4.9 2-5.6 4.6 0 2.2-2 .8-3 1.2-2.5.1-3.7 2.6-4.5 4.9-1.1 4 2.3 7.3-.8 10.1a2.6 2.6 0 01-2.8-.6 3 3 0 001.3 2.4 3 3 0 003-.8c0 .7-.5 1-.9 1.6-1.8.9-3.2-.8-4.6-1.4 0 1.4 1 2 1.5 3 .7.8-1 .5-1 .8 2.5 2.5 5.7 4.7 9.2 3.8 1.4-.4 2.4-2.2 3.2-3.5.4-3.3.4-6.9-1.4-9.6-1.3-1.7-1.3-4-1.8-5.8.5-1 1.3-2 2.4-2.3a9.6 9.6 0 002.3 4.3c.8 2.4 4 3.4 3.6 6-1.1 2.6-3.6 5-3.3 7.7a17.1 17.1 0 014.1 8.5c1.5 0 1 2 1.5 2.6 1.3.5 2.8 0 4 0-.7-2.6-2.9-3.7-4-5.9-.2-.5-.5-1.4 0-1.8 1 .5 2.3 1.3 2.3 2.8 1.3-.2 1 1.8 1.3 2.6.7.7 1.5 2 2.4 1.5.4-.5.2-.7.2-1 .8-2.6-1.4-3.6-1.8-5.4-1.6-1.6-3.6-2-4.9-4-.8-1 .5-1.6 1.3-2.6 3.6-2.7 4.8-7.6 4.8-11.9 2-3.3 6.3-4 9-7.2 2-1.8 3-4.2 4.4-6.2l.5.5c2.4.1 4.4-3 6.4-4.4l1.3 1.8c.5.8-.2 2 .5 2.7.5.9-.4 1.5-.5 2.2.6 1.3 1.4 3 2.7 3.4.5-1.8.2-3.4.4-5.2v-.5c.3-2.5-2.3-3.8-2.1-6.2 2-2 4.4.1 6.3.6.5.3.4 1.2.4 1.6a6 6 0 004.5-2.2l-1.6-1c-2.4-2.2-5.5-.2-8.1-2.2zm-47.1 7c1-.2 1.6-1.5 2.4-.9-.5.7-1.5.7-2.4.9zm21.7-9a33.1 33.1 0 004.3 1.3 7 7 0 01-4.3-1.3z"/><path fill="#fff" fill-rule="evenodd" d="M172.5 190.8h-17.2v11h6.1c0 3.2-1.9 5.7-4.7 5.7-4 0-6.3-5.3-6.3-11.7 0-5.8 1.7-11.7 6.4-11.7a4.5 4.5 0 014.4 3.4l10-3c-1.8-7.8-6.7-14.2-14.8-14.2-12.2 0-17 12.9-17 25.6 0 14.4 6.4 25 17.1 25 10.5 0 16-10.2 16-24.4v-5.7zm58.3 12.8c0-8-3-11.5-7-13.6-3.2-1.7-5.5-1.7-5.5-4.6 0-2.6 2.1-2.7 3.3-2.7a21.2 21.2 0 016.8 1.5v-12a21.2 21.2 0 00-9-2c-7.2 0-12.1 6.3-12.1 16.7s6 12.6 8.6 13.7c1.8.9 4 1.7 4 4.3 0 1.4-.7 3-3.4 3s-6.4-1.8-8.6-3V218a20.2 20.2 0 0010 2.8c9 0 13-8.3 13-17.2z"/><path fill="#fff" d="M195.4 219.3h11.9L197 171.8h-12.8L174 219.4h11.9l1.1-7h7.3l1.2 7zm-6.8-18.8l2-12.1 2 12zM109.9 188c0-6.7-2.4-16.4-12.7-16.4h-14v47.7h11.6v-14.8h2.4c10.3 0 12.7-9.7 12.7-16.5zm-13.8 4h-1.3v-8H96c1 0 2.7.3 2.7 4s-1.6 4-2.7 4z"/><path fill="#fff" fill-rule="evenodd" d="M115 219.3h20.3v-13.8h-8.8V201h7.9v-11.5h-7.9v-4h8.8v-13.8h-20.4z"/></svg>
