<svg xmlns="http://www.w3.org/2000/svg" viewBox="0 0 332.9 648.1"><g fill="#fff"><path d="M166.5 332a164.8 164.8 0 01-115.7-47.2A163.2 163.2 0 01.9 176.6c-.2-4.6-.4-9.1-.4-13.7A165 165 0 01155.7.4a161.8 161.8 0 01152.1 78.7 168.5 168.5 0 0124.1 100.6 164.8 164.8 0 01-156.3 151.9l-9.1.4zm24-223.3l-2.5-.2h-24c-2.1 0-4.2.1-6.2-.2-4.7-.5-7.9-3.1-9.5-7.6a12 12 0 01-.8-4.2c0-5.7 1.7-10.5 8.3-12.4 2.6-.7 5.3-1 8-1l23.7-.1 2.8-.2v-6.5l-2.2-.2h-26.4c-2 0-4 .2-5.9.7-6.5 1.4-11.4 4.9-13.6 11.5-.8 2.5-1.1 5.1-1.1 7.8 0 6.4 2.4 11.5 8 14.9l1.4 1.1c-2.7 1.5-5.2 3-6.8 5.5a15.4 15.4 0 00-2.6 8.4c-.1 2.9 0 5.7 1 8.5s3.1 4.9 5.7 7.1l-5.9.4c-.2 2.2-.5 4.2.3 6.3h48.1c.1-2.5.3-4.6-.1-6.8H164.8c-2.3 0-4.7 0-6.9-.4-1.6-.2-3.3-.8-4.7-1.6-4.1-2.2-6.9-8-5.4-14a13 13 0 0111.1-9.6l4.6-.2h24l2.9-.2.1-6.8zm-23.8-49.8c13.8-.2 25-11.4 25.1-25.5 0-14.3-12-25.3-25.5-25.3A25.8 25.8 0 00141 34c0 13.5 12 25 25.7 24.9zm-.3 148.7a25.7 25.7 0 00-25.4 25.7 25.6 25.6 0 0025.5 25 25.4 25.4 0 00-.1-50.7zm9.9 66.2v5c-.1 1.5.4 2.5 1.6 3.5a18 18 0 017.3 14.2 18.7 18.7 0 01-24.2 19.6c-9.7-2.6-15.5-13.4-12.9-23.4 1.2-4.3 3.6-7.8 7.1-10.5.7-.5 1.5-1.2 1.6-1.9.2-2.1.4-4.2-.1-6.4a19 19 0 00-8.2 5 26.5 26.5 0 00-4.8 30.4 24.9 24.9 0 0034.2 11.5 25.3 25.3 0 0013.6-20.8c.9-8.6-1.8-15.9-8-21.9a19 19 0 00-7.2-4.3zm-22-108.6h-1.5c-8.1 1.1-13.1 8.4-11.4 16.7a14 14 0 0012.3 10.8c5.7.5 10.6-2.5 13-8.2l2.2-6.3c.7-1.6 1.4-3.3 2.4-4.7 2-2.7 4.9-3.1 8-2.6 2.9.5 4.8 2.4 5.5 5.1 1.4 4.8-.2 9.9-6.4 11.4l-2.1.5v6.5h2.1c6.7-.7 12-5.5 13.1-11.9 1.3-7.4-2-14.2-8.4-17.2-7.8-3.6-15.2-1-18.8 6.7-1.1 2.4-1.9 4.9-2.8 7.4l-1.3 3.1c-1.6 2.9-4.4 4-7.8 3.2a6.7 6.7 0 01-4.9-6.4 6.8 6.8 0 014.6-6.9l2.3-.7-.1-6.5zM190.4 511.3v5.9l-2.7.3h-59.3l-2.6-.1-.3-2.4c.1-7.1 0-14.2.3-21.3a20 20 0 013.3-10.6A18.1 18.1 0 01148 475c7.7 1.1 12.6 5.9 14.8 13.3.7 2.3.9 4.9 1 7.3.2 4.3.1 8.6.1 13l.2 2.8 26.3-.1zm-32-.1v-9.1c-.1-3.3-.1-6.7-.5-10a12.7 12.7 0 00-12.2-11.2 13 13 0 00-13.5 9c-.5 1.4-.9 2.9-.9 4.4-.2 5-.2 10-.2 15.1l.3 1.8h27zM141.5 400.5a25.3 25.3 0 0124.9-25.2c13 0 25.2 11 25.2 25a25.3 25.3 0 01-25 25c-13-.1-25.7-11.2-25.1-24.8zm25 18.6c9.4.2 19-7.1 19.1-18.9 0-12.4-10.4-18.7-19.5-18.8-9 0-18.9 7.1-18.9 18.4a19 19 0 0019.3 19.3zM190.2 347.9v6.1h-42.1v7.4h-5.7v-7.3c-6.1-.1-11.3-1.7-14.5-7.1a17 17 0 01-2.2-10.9h5.1l.4 3.6a9 9 0 009.5 8.2c1.2 0 1.7-.6 1.7-1.7V339v-2.8h5.6v11.7h42.2zM190.2 452.1v5.9h-47.6v-5.3l5.8-.4a15.7 15.7 0 01-6.9-13.5c2-.6 3.9-.4 5.8-.2l.7 2.8c1.5 6 5.8 9.8 11.9 10.5 1.3.2 2.7.2 4.1.2h26.2z"/><path d="M185.3 33.7a18.4 18.4 0 01-18.8 18.4c-11.5-.3-19-8.5-18.9-19.1 0-10.6 9-18 18.7-17.9 11.1.1 19.2 8.1 19 18.6zM166.2 214.5c3.7-.1 7.1.8 10.3 2.7a18 18 0 018.2 20.3c-2 7.8-8.8 13.4-16.7 13.9-9.8.6-17.1-5.1-19.6-13a18.3 18.3 0 0117.8-23.9z"/></g></svg>
