<svg xmlns="http://www.w3.org/2000/svg" viewBox="0 0 18.7 56.83"><path d="M2.86.88V.82s0-.11.09-.11S3,.79,3,.85v0Zm-.14.17h.74V.88H3.17L3.46.65V.45L3.14.68A.22.22,0,0,0,3,.51c-.12,0-.23.08-.23.28ZM2.46.76A.63.63,0,0,1,3.09.14a.6.6,0,0,1,.62.62.62.62,0,0,1-.62.66A.65.65,0,0,1,2.46.76Zm-.14,0a.77.77,0,0,0,.77.8.75.75,0,0,0,.76-.8A.74.74,0,0,0,3.09,0,.76.76,0,0,0,2.32.76Z" fill="#fff"/><path d="M3.29,36.52A3.51,3.51,0,0,0,2.15,39.1a3.64,3.64,0,0,0,1.19,2.77,4.14,4.14,0,0,0,3,1.11,4.2,4.2,0,0,0,3-1.11A3.69,3.69,0,0,0,10.48,39a3.61,3.61,0,0,0-1.05-2.52h.83V34.59H2.38v1.93ZM4.5,40.37a2.31,2.31,0,0,1,0-3.31,2.5,2.5,0,0,1,1.82-.65,2.5,2.5,0,0,1,1.84.65,2.24,2.24,0,0,1,.71,1.7,2.13,2.13,0,0,1-.74,1.64A2.62,2.62,0,0,1,6.29,41,2.48,2.48,0,0,1,4.5,40.37Z" fill="#fff"/><polygon points="2.32 34.03 3.88 34.03 3.88 31.53 10.31 31.53 10.31 29.41 3.88 29.41 3.88 26.91 2.32 26.91 2.32 34.03" fill="#fff"/><path d="M2.32,27.54l7.34-3a.79.79,0,0,1,.4-.15,1,1,0,0,1,.37.15,3.5,3.5,0,0,1,1.24,1.16,3.65,3.65,0,0,1,.57,1.22l1.7-.49a4.29,4.29,0,0,0-1-2.21c-.82-1-2.15-1.75-5.16-2.91L2.32,19.21v2.24l4.28,1.3c.51.17,1.11.31,1.56.45v.06c-.45.11-1,.28-1.56.45L2.32,25.24Z" fill="#fff"/><path d="M13.57,19.55v-2.1H9.43V17.4A2.76,2.76,0,0,0,10.51,15c0-1.89-1.39-3.79-4.28-3.79-2.49,0-4.08,1.58-4.08,3.51a3.27,3.27,0,0,0,1.42,2.86v0l-1.25.11v1.85c.77,0,1.62-.06,2.67-.06Zm-7.82-2.1a3,3,0,0,1-.51-.08,2,2,0,0,1-1.5-1.9c0-1.36,1.16-2.07,2.58-2.07S9,14.19,9,15.53a1.89,1.89,0,0,1-1.41,1.84,2.07,2.07,0,0,1-.57.08Z" fill="#fff"/><path d="M3.46,4.39A3.57,3.57,0,0,0,2.32,7,3.63,3.63,0,0,0,3.51,9.75a4,4,0,0,0,3,1.13,4.26,4.26,0,0,0,3-1.13,3.66,3.66,0,0,0,1.19-2.81A3.74,3.74,0,0,0,9.6,4.39h.83V2.49H2.55v1.9ZM4.67,8.27A2.14,2.14,0,0,1,4,6.63a2.13,2.13,0,0,1,.7-1.7,2.63,2.63,0,0,1,1.82-.65,2.63,2.63,0,0,1,1.84.65A2.29,2.29,0,0,1,9,6.63,2.08,2.08,0,0,1,8.3,8.27a2.63,2.63,0,0,1-1.84.65A2.61,2.61,0,0,1,4.67,8.27Z" fill="#fff"/><polygon points="8.19 43.55 8.19 54.62 10.31 54.62 10.31 43.55 8.19 43.55" fill="#fff"/><polygon points="8.84 54.62 8.84 52.41 0 52.41 0 54.62 8.84 54.62" fill="#fff"/><polygon points="8.84 50.2 8.84 47.97 0 47.97 0 50.2 8.84 50.2" fill="#fff"/><polygon points="8.84 45.76 8.84 43.55 0 43.55 0 45.76 8.84 45.76" fill="#fff"/><path d="M14.93,56.1a3.72,3.72,0,0,0-.2-.4,5.06,5.06,0,0,0-.31-.43,4.53,4.53,0,0,0-.34-.39,1.43,1.43,0,0,0,.43.17.37.37,0,0,0,.31,0,.57.57,0,0,0,.11-.11.59.59,0,0,0,.06-.26,1.94,1.94,0,0,0-.29-.88,7.94,7.94,0,0,0-.85-1.27c0-.06-.08-.06-.11,0s0,0-.06,0a.06.06,0,0,0,.06.06c.2.31.4.57.54.79a5.86,5.86,0,0,1,.31.6,1.75,1.75,0,0,1,.17.4.87.87,0,0,1,0,.25c0,.09,0,.11,0,.14s0,0,0,.06a.21.21,0,0,1-.22,0,.91.91,0,0,1-.34-.14,2.3,2.3,0,0,1-.4-.23c-.11-.08-.23-.2-.34-.28s0,0-.06,0,0,0,0,0-.06.08,0,.14l.17.17s-.06.08-.12.14,0,.17-.08.28a1.53,1.53,0,0,0,.05.6,3.15,3.15,0,0,0,.34.65,1.09,1.09,0,0,0,.29.34,1.62,1.62,0,0,0,.28.2,1,1,0,0,0,.26.11h.22a.41.41,0,0,0,.29-.22v-.15A.9.9,0,0,0,14.93,56.1ZM13.46,55a1.23,1.23,0,0,1,.08-.25l.09-.09c.17.17.31.34.45.51s.31.37.43.54a3.19,3.19,0,0,1,.25.48.44.44,0,0,1,.06.37.09.09,0,0,1,0,.06s0,0-.09,0a.77.77,0,0,1-.39-.11,1.46,1.46,0,0,1-.48-.48,4.4,4.4,0,0,1-.29-.51,1.42,1.42,0,0,1-.08-.45Z" fill="#fff"/><path d="M15,50.77c-.23-.34-.49-.68-.83-1.11l-.08,0-.06,0a.11.11,0,0,0,0,.09s0,.06,0,.06a5.93,5.93,0,0,1,.4.51,2.83,2.83,0,0,1,.34.48,1.55,1.55,0,0,1,.25.42,1,1,0,0,1,.09.37c0,.06,0,.09,0,.11s0,0,0,.06H15c-.06,0-.12,0-.17,0a1.71,1.71,0,0,0-.29-.08l-.39-.2-.26-.26c-.11-.14-.25-.28-.39-.45L13,50.26a7,7,0,0,0-.54-.48,3,3,0,0,0-.46-.34.5.5,0,0,0-.34-.06s0,0-.05.06a.23.23,0,0,0-.06.17.78.78,0,0,0,.09.37,1.8,1.8,0,0,0,.34.36,6,6,0,0,0,.56.43c.23.14.51.34.85.54a2.56,2.56,0,0,1,.37.2,2.61,2.61,0,0,1,.28.17,3.35,3.35,0,0,0,.49.19.9.9,0,0,0,.34.09A.49.49,0,0,0,15,52c.06,0,.09,0,.12-.06a.29.29,0,0,0,.11-.11.45.45,0,0,0,.06-.23A1.65,1.65,0,0,0,15,50.77Zm-3.29-1.19s.11,0,.25.11.32.23.51.37l.57.57a5.61,5.61,0,0,1,.6.59l-.2-.11c-.29-.17-.54-.34-.77-.48s-.39-.29-.54-.4-.25-.23-.34-.31a.71.71,0,0,1-.08-.31Zm3.51-.06A3.2,3.2,0,0,0,15,49a5.73,5.73,0,0,0-.34-.63c-.15-.22-.32-.48-.49-.71l0,0a.11.11,0,0,0-.09,0s0,0,0,0v.09a5.83,5.83,0,0,1,.6.9,4.06,4.06,0,0,1,.37.71,1.58,1.58,0,0,1,.14.48c0,.15,0,.23,0,.29s-.06.08-.11.08-.06,0-.14-.05a.51.51,0,0,1-.23-.12,1.55,1.55,0,0,1-.37-.31,4,4,0,0,1-.51-.51c0-.06-.08-.06-.14,0a.12.12,0,0,0,0,.14c.65.74,1.13,1.08,1.42,1,.11,0,.17-.06.22-.17a.15.15,0,0,0,.06-.11.25.25,0,0,0,0-.14A1.34,1.34,0,0,0,15.24,49.52Zm-2.58-.88a.25.25,0,0,0-.05-.17s-.06,0-.06-.08a.09.09,0,0,0-.06,0s-.05,0-.08,0,0,0,0,.06,0,.11,0,.11a.37.37,0,0,1,.06.09.73.73,0,0,1,0,.28c0,.08,0,.11.09.11s.08,0,.08-.11A.64.64,0,0,0,12.66,48.64Zm5.16,1.22a0,0,0,0,0,0,0,3.63,3.63,0,0,0-.34-.48c-.14-.17-.31-.34-.48-.51s-.34-.34-.54-.51-.37-.34-.54-.48l-.53-.4-.49-.31a.7.7,0,0,0,.06-.31,2.08,2.08,0,0,0-.11-.54,4,4,0,0,0-.26-.51,1.47,1.47,0,0,0-.25-.37.8.8,0,0,0-.12-.17.11.11,0,0,0-.08,0,.07.07,0,0,0-.06,0c-.05,0-.05.09,0,.15a.85.85,0,0,0,.12.14c.05.08.14.2.22.34a1.79,1.79,0,0,1,.23.48,1.14,1.14,0,0,1,.11.48v.11c0,.06,0,.09,0,.12L14.45,47c-.09,0-.14,0-.17,0s-.14.12-.14.2a.27.27,0,0,0,.11.2.52.52,0,0,0,.23.06.34.34,0,0,0,.28-.12c.17.09.34.23.57.37a6.16,6.16,0,0,1,.68.54c.22.17.48.4.71.62s.42.43.62.65c-.14-.05-.26-.14-.43-.22a4.41,4.41,0,0,0-.48-.31,10.76,10.76,0,0,1-1-.63c-.39-.22-.79-.48-1.19-.73h0c-.08-.12-.19-.26-.31-.46s-.28-.37-.42-.56L13,46c-.17-.23-.34-.4-.48-.57a3.94,3.94,0,0,0-.46-.36c-.14-.09-.22-.12-.31-.09a.37.37,0,0,0-.17.37,1.2,1.2,0,0,0,.4.76A8,8,0,0,0,13,47c.45.31,1,.68,1.55,1s1.19.74,1.82,1.1c.31.2.59.34.82.49a4.9,4.9,0,0,1,.51.34l.06,0s.05,0,.05,0a0,0,0,0,0,0,0v-.06Zm-6.06-4.67c.05,0,.14,0,.28.11s.28.26.48.45.37.46.6.71.42.57.62.85c-.28-.2-.54-.37-.76-.56a4.25,4.25,0,0,1-.66-.54,3.79,3.79,0,0,1-.45-.48,1,1,0,0,1-.14-.4C11.73,45.24,11.73,45.19,11.76,45.19Zm2.77,2a.12.12,0,0,1-.14,0,.07.07,0,0,1-.05,0S14.45,47.17,14.53,47.2Zm.8-2.47a4.16,4.16,0,0,0-.23-.62,4.53,4.53,0,0,0-.28-.59c-.12-.17-.2-.34-.29-.46a2.31,2.31,0,0,1-.22-.34.54.54,0,0,1-.12-.14.08.08,0,0,0-.08,0h-.06a.11.11,0,0,0,0,.09s0,0,0,0,0,.06.09.15a1.69,1.69,0,0,1,.22.31c.09.14.17.28.29.45s.17.37.25.57a4.79,4.79,0,0,1,.23.59,2.06,2.06,0,0,1,.08.6.6.6,0,0,1-.05.28.32.32,0,0,1-.17.06.87.87,0,0,1-.23-.06,1,1,0,0,1-.25-.14h0a.27.27,0,0,0,.14-.14.54.54,0,0,0,.08-.34,1.54,1.54,0,0,0-.08-.46l-.26-.42a.91.91,0,0,0-.31-.28.58.58,0,0,0-.31-.15.29.29,0,0,0-.23.15.18.18,0,0,0,0,.14s0,.14,0,.2a1.13,1.13,0,0,0,.17.59,2.15,2.15,0,0,0,.37.54,3.14,3.14,0,0,0,.51.42,1.1,1.1,0,0,0,.48.15.33.33,0,0,0,.31-.15.55.55,0,0,0,.11-.39A2.94,2.94,0,0,0,15.33,44.73Zm-1.53,0a1.09,1.09,0,0,1-.14-.51v-.15a.11.11,0,0,0,0-.08.11.11,0,0,1,.09,0A.45.45,0,0,1,14,44a1,1,0,0,1,.25.25,1.46,1.46,0,0,1,.2.37.8.8,0,0,1,.08.37v.17c0,.05,0,.11-.08.11a.17.17,0,0,1-.17,0,.57.57,0,0,1-.14-.11,0,0,0,0,1,0,0A1.51,1.51,0,0,1,13.8,44.71Z" fill="#fff"/><path d="M15.21,39.66a2.34,2.34,0,0,0-.22-.48c-.09-.17-.2-.34-.31-.51a3.9,3.9,0,0,1-.32-.42L14.19,38a.08.08,0,0,0-.08,0s0,0-.06,0-.05.12,0,.14a.41.41,0,0,0,.09.12.64.64,0,0,1,.08.14,2.33,2.33,0,0,1,.32.4,2.86,2.86,0,0,1,.28.45,3.37,3.37,0,0,1,.25.45,1.11,1.11,0,0,1,.09.43,1.13,1.13,0,0,0-.34-.31,4.09,4.09,0,0,0-.48-.29,4.89,4.89,0,0,1-.46-.2l-.28-.11a.11.11,0,0,0-.11.06.08.08,0,0,0,0,.11l.17.26a2.7,2.7,0,0,0,.2.25c.05.11.14.23.22.37s.09.06.14,0a.11.11,0,0,0,0-.09s0-.05,0-.05a1.79,1.79,0,0,0-.22-.34c-.06-.12-.12-.2-.17-.29l.42.2a2.36,2.36,0,0,1,.4.23.71.71,0,0,1,.28.22.26.26,0,0,1,.12.2s0,.09-.09.14a.53.53,0,0,1-.28.15s0,0-.06.05v.09c0,.05.06.08.11.08a1.26,1.26,0,0,0,.4-.22.71.71,0,0,0,.2-.29v-.11a.22.22,0,0,0,0-.11A1,1,0,0,0,15.21,39.66Zm-3.2-3c.29.23.57.48.85.71a8.19,8.19,0,0,0,.85.59,4.78,4.78,0,0,0,.77.4.74.74,0,0,0,.56,0,.49.49,0,0,0,.26-.31v-.14a1.5,1.5,0,0,0-.09-.49L15,36.94l-.34-.53c-.11-.17-.23-.34-.34-.49l-.09-.11a.06.06,0,0,0,0,0s-.06,0-.09,0a.11.11,0,0,0,0,.09V36l.12.12c.08.11.2.28.34.45a5.55,5.55,0,0,0,.34.54c.08.2.17.37.25.54a.7.7,0,0,1,0,.42.18.18,0,0,1-.14.17c-.09.06-.26,0-.45-.06a3.81,3.81,0,0,1-.74-.36,8.74,8.74,0,0,1-.85-.63,10.18,10.18,0,0,1-.91-.76l-.14-2.18c0-.09,0-.12-.08-.12a.06.06,0,0,0-.06.06s0,0,0,.06l.11,2c-.08-.06-.14-.14-.22-.2a1.26,1.26,0,0,0-.2-.2s-.06-.06-.09,0,0,0-.05,0,0,0,0,.06,0,.05.06.08l.25.26a1.85,1.85,0,0,1,.28.28l.06,1c0,.06.06.12.14.12a.16.16,0,0,0,.06-.12Zm2.58-2.38a3.71,3.71,0,0,0-.25-.71l-.15-.25a.06.06,0,0,0,0,0s-.06,0-.09,0,0,0,0,0v.09a.84.84,0,0,1,.17.25c.06.12.09.23.15.34s.05.26.08.37a.65.65,0,0,1,0,.34,2.43,2.43,0,0,0-.28-.2c-.12,0-.2-.05-.26-.05a.21.21,0,0,0-.14,0s-.06.05-.08.05a.38.38,0,0,0-.06.26,1.42,1.42,0,0,0,.14.65,3.88,3.88,0,0,0,.4.57,1.45,1.45,0,0,0,.48.39.77.77,0,0,0,.45.17.22.22,0,0,0,.14,0s.06-.05.09-.05a.47.47,0,0,0,.08-.29.87.87,0,0,0-.08-.36,1,1,0,0,0-.17-.34.88.88,0,0,0-.23-.34,3.17,3.17,0,0,0-.31-.32s0,0,0,0v-.2A1.67,1.67,0,0,0,14.59,34.28Zm.17,2a4.21,4.21,0,0,1-.4-.28L14,35.61a1.4,1.4,0,0,1-.22-.48.63.63,0,0,0,.28.11.45.45,0,0,0,.28,0,.29.29,0,0,0,.15-.14,2.49,2.49,0,0,1,.25.29,1,1,0,0,1,.23.28,2.12,2.12,0,0,1,.14.31,1,1,0,0,1,.06.28v.06a.11.11,0,0,1,0,.09l-.09,0A.77.77,0,0,1,14.76,36.32Zm-.65-1.53a1.46,1.46,0,0,1,.25.2l0,0a0,0,0,0,0,0,0h-.14c-.06,0-.09,0-.15-.06s-.08,0-.14-.06l-.11-.08c0-.06,0-.09,0-.12h.08A.38.38,0,0,1,14.11,34.79Zm1.16-1.53c-.34-.28-.65-.54-.93-.74s-.46-.39-.6-.53a.72.72,0,0,0,.4.05,1,1,0,0,0,.34-.14.69.69,0,0,0,.2-.37,1.92,1.92,0,0,0,0-.48,3,3,0,0,0-.17-.57,2,2,0,0,0-.32-.59s0,0,0-.06-.06,0-.09,0A.11.11,0,0,0,14,30V30a2,2,0,0,1,.32.54,4.34,4.34,0,0,1,.14.48.9.9,0,0,1,0,.4.34.34,0,0,1-.12.28.21.21,0,0,1-.17.09.94.94,0,0,1-.25,0l-.28-.08a1.72,1.72,0,0,1-.29-.11s-.08,0-.11.05,0,0,0,.06l.06.06a2.12,2.12,0,0,1,.22.25,3.34,3.34,0,0,1,.32.28,2.79,2.79,0,0,1,.42.37.68.68,0,0,0-.28,0,.19.19,0,0,0-.12.11.38.38,0,0,0,0,.17.55.55,0,0,0,0,.17,2,2,0,0,0,.09.2.85.85,0,0,0,.11.14s0,0,.06,0a.08.08,0,0,0,.08,0,.12.12,0,0,0,0-.14,1.92,1.92,0,0,1-.17-.26c0-.08,0-.14,0-.17s.11,0,.19,0,.2.09.37.17a5.09,5.09,0,0,1,.63.37h.05s.06,0,.06,0v0l0,0C15.33,33.29,15.3,33.26,15.27,33.26Zm3.17-2.21a2.41,2.41,0,0,0-.62-.51,7.07,7.07,0,0,0-.93-.51c-.34-.2-.74-.4-1.14-.59a.26.26,0,0,1-.17-.09,5.61,5.61,0,0,1-.51-.76c-.17-.26-.31-.51-.45-.77l-.43-.68c0-.06-.08-.06-.14,0s0,0,0,.06v.08a2.92,2.92,0,0,1,.23.34c.06.12.14.23.2.34s.25.43.37.63a7,7,0,0,0,.39.62l-1.16-.59c-.37-.2-.71-.43-1.05-.63,0,0,0,0-.05,0s-.06,0-.06.06,0,.11,0,.14l.65.57c.17.2.37.37.51.54a4.83,4.83,0,0,1,.4.45,1.3,1.3,0,0,1,.23.43c-.06,0-.17-.06-.29-.12a1.14,1.14,0,0,1-.42-.28s0,0-.06,0,0,0-.06,0a.13.13,0,0,0,0,.08.07.07,0,0,0,0,.06,1,1,0,0,0,.34.28,2.87,2.87,0,0,0,.32.15l.19.05h.12a0,0,0,0,0,0,0h0s0,0,0,0V30.2a1.54,1.54,0,0,0-.34-.68,6.65,6.65,0,0,0-.82-.88c.28.14.57.31.85.46l.88.42a2.38,2.38,0,0,0,.31.4,2.37,2.37,0,0,0,.34.39,7.71,7.71,0,0,0,.65.63,5,5,0,0,0,.65.54,2.12,2.12,0,0,0,.6.36.75.75,0,0,0,.42.06c.12,0,.17-.11.23-.23a.78.78,0,0,0,0-.14A.75.75,0,0,0,18.44,31.05Zm-1.55-.79a8.06,8.06,0,0,1,.85.48,4.24,4.24,0,0,1,.59.45c.14.17.2.31.17.43s0,.05-.06.05,0,0,0,0-.17,0-.32-.05a2,2,0,0,1-.48-.29,4,4,0,0,1-.65-.48c-.23-.2-.48-.45-.74-.71l-.36-.45C16.21,29.92,16.55,30.09,16.89,30.26Z" fill="#fff"/></svg>
