<svg xmlns="http://www.w3.org/2000/svg" viewBox="0 0 289.1 71.9"><path fill="#fff" d="M144.7 62.7a9.3 9.3 0 001.8-.8 7.4 7.4 0 001.3-1 3.5 3.5 0 001-1 2.1 2.1 0 00.2-1 .8.8 0 00-.7-.9h-.2a2.2 2.2 0 00-1 .3 3.3 3.3 0 00-1 1 6.3 6.3 0 00-.8 1.4 16.4 16.4 0 00-.6 2zm-1.8 1.2l-2.5 1.4a13 13 0 00-2 1.5 7.3 7.3 0 00-1.3 1.6 2.6 2.6 0 00-.4 1.4c0 1 1.4 1.2 1.6 1.2a5 5 0 001-.1 4.4 4.4 0 001-.3 7.8 7.8 0 001-.5l1-.7v-1.6a9 9 0 01.2-1.3l.1-1.2.3-1.3zm1.6-.5a61 61 0 00-.5 2.3l-.1 1.2-.1 1.4.5-.6a49.2 49.2 0 014.3-3.7 5.3 5.3 0 012.4-1.3 1.6 1.6 0 01.4 0c1 .5.7 1.6.6 1.8a1.3 1.3 0 01-.3.5 2 2 0 01-.5.4 1 1 0 01-.5.1.7.7 0 01-.3 0 .5.5 0 01-.3-.2.4.4 0 01-.1-.2.7.7 0 010-.3 1.1 1.1 0 010-.2.8.8 0 01.6-.5 3.4 3.4 0 00.6-.1s.5-.7-.3-.7a4.5 4.5 0 00-2 1.2 54.3 54.3 0 00-4.7 4.2 5.9 5.9 0 00-.5.5v.2a2.1 2.1 0 00.1.6 1.6 1.6 0 00.2.5.8.8 0 00.4.3 1 1 0 00.4 0 1.8 1.8 0 00.7-.1 4.4 4.4 0 001-.6 14.2 14.2 0 002.1-2l.5.2a10.8 10.8 0 01-1.3 1.4 9 9 0 01-1.2 1 4.5 4.5 0 01-1.2.7 3.4 3.4 0 01-1 .2 2.1 2.1 0 01-.7-.1 3 3 0 01-.6-.3 2 2 0 01-.4-.4 1.9 1.9 0 01-.3-.6l-1 .6a6.2 6.2 0 01-1.2.5l-1 .2a5.6 5.6 0 01-1 0 3.9 3.9 0 01-1 0 2 2 0 01-.9-.5 1.8 1.8 0 01-.5-.7 2.6 2.6 0 01-.1-1 4 4 0 01.5-2 5.3 5.3 0 011.3-1.6 11.5 11.5 0 012.4-1.4 20 20 0 013.2-1 13.3 13.3 0 011-2.5 9.3 9.3 0 011.2-1.8 5.5 5.5 0 011.4-1.2 3.2 3.2 0 011.5-.4 2.9 2.9 0 01.7.1 1.6 1.6 0 011 1.6 2.2 2.2 0 01-.3 1.2 4 4 0 01-1 1.1 9 9 0 01-1.7 1 21.6 21.6 0 01-2.4 1zM54.7 61a3.3 3.3 0 001.2.7 4.8 4.8 0 001.6.2 7.6 7.6 0 002.5-.4 8.2 8.2 0 002.4-1.3 11 11 0 002.1-2 9.6 9.6 0 001.5-2.6h-.6a11.1 11.1 0 01-1.5 2.3 11.8 11.8 0 01-2 1.8 10.2 10.2 0 01-2.3 1.2 6.3 6.3 0 01-2.3.4 3.7 3.7 0 01-1.2-.2 2.5 2.5 0 01-1-.5 2.1 2.1 0 01-.5-.9 3 3 0 01-.2-1 4.3 4.3 0 01.6-2.3 6.5 6.5 0 011.8-1.9 10 10 0 012.7-1.3 11.2 11.2 0 013.2-.5l2 .2a88.5 88.5 0 016.2.7l2.2.2a9 9 0 001.4 0 6.7 6.7 0 001.2-.3A4.9 4.9 0 0077 53a7 7 0 001-.7l-.2-.4a7.5 7.5 0 01-2.4.6h-1a12.2 12.2 0 01-1.9 0l-2.9-.4-3-.4H64a16 16 0 00-4 .5 10.7 10.7 0 00-3.4 1.5 7.9 7.9 0 00-2.3 2.3 4.7 4.7 0 00-.7 2.5 3.3 3.3 0 00.2 1.4 2.5 2.5 0 00.8 1"/><path fill="#fff" d="M133.5 53.1a3 3 0 01-.7 1.5 17.8 17.8 0 01-2.3 2.4 38 38 0 01-3.3 3l-4 3-.3.2a88.4 88.4 0 016.2-7.7 20 20 0 012.4-2.2 3.5 3.5 0 011.5-.7c.6 0 .6.4.6.5m-24.5 16a10.2 10.2 0 01-1.4 1 7.7 7.7 0 01-1.2.7 2.9 2.9 0 01-1 .2c-.1 0-1-.1-.4-1.2a8.2 8.2 0 01.6-1l1-1.4a17 17 0 011.4-1.4l1.3-1.3a9.7 9.7 0 011.3-1 7.5 7.5 0 011.1-.6c1.4-.7 1.7.3 1.7.5a1.9 1.9 0 01-.2.7 5.8 5.8 0 01-.6 1 13.8 13.8 0 01-1 1.2 29.2 29.2 0 01-2.6 2.7m-34.8-4.4a3.2 3.2 0 00-.2.3 2.6 2.6 0 00-.2 1.8l-1.7 1.9a16.2 16.2 0 01-1.5 1.4 7 7 0 01-1.4.7 3 3 0 01-1.2.3 1 1 0 01-1-1.1 1 1 0 01.1-.5 6 6 0 01.6-1 12 12 0 011-1.2l1.3-1.4 1.4-1.3a8.9 8.9 0 011.3-1 8.4 8.4 0 011.1-.6c1-.5 1.4.1 1.5.2a1 1 0 010 .7 1.4 1.4 0 00-.6.2 1.9 1.9 0 00-.5.6M133.4 52a4 4 0 00-1.5.5 12.9 12.9 0 00-2 1.3 28.7 28.7 0 00-2.4 2l-2.5 2.8-3.5 4-2 2.9-6.1 4.6a8.4 8.4 0 01-1.2.7 1.9 1.9 0 01-.8.2s-.7 0-.3-.9l.5-.8 5-6.7H115l-.9 1.1v-.2a1.1 1.1 0 00-.7-1.2 2 2 0 00-.6-.1 5.2 5.2 0 00-1.1.1 9.5 9.5 0 00-1.3.5c-.5.2-1 .4-1.3.7a15.4 15.4 0 00-1.4.9 16 16 0 00-1.5 1.4l-.3.3c-.7.6-4.2 3.8-6.8 4.7a2.7 2.7 0 01-1 .2s-.7-.2-.2-.8c0-.2.1-.3.3-.4s.2-.3.3-.5l2.8-3.2.6-.8a6.6 6.6 0 00.4-.8 5.1 5.1 0 00.3-.7 2 2 0 00.1-.5 1.3 1.3 0 000-.5 1 1 0 00-.3-.3 1 1 0 00-.4-.2 2.5 2.5 0 00-.5 0 3.7 3.7 0 00-1.1.1 6.6 6.6 0 00-1.3.6l-1.4 1-1.6 1.2a.4.4 0 00.1-.2l.5-1c.1-.3.5-1.6-.5-1.7a5.7 5.7 0 00-.6 0 3.5 3.5 0 00-1 .1 7 7 0 00-1.4.6 16.5 16.5 0 00-1.4 1L90 65.3l2-2.7h-1.5l-1 1.3a7 7 0 01-2.9 1.3.6.6 0 01-.5-.2.2.2 0 010-.2.9.9 0 010-.4 3 3 0 01.4-.5l.5-.6.8-.8a2.6 2.6 0 00-1.4 0 2.6 2.6 0 00-1 .8l-.5.7-6.4 4.9 5-6.4H82l-1.6 2.1c-1 1-2.6 2.5-4.3 2.6a3.5 3.5 0 01-1.4-.3l.6-1 .4-1a7.9 7.9 0 00.3-.8 3 3 0 00.1-.8 1.2 1.2 0 000-.4 1.3 1.3 0 00-1.3-.8 6.2 6.2 0 00-1.2.2 8.5 8.5 0 00-1.3.5l-.3.2-.3.1c-.5.3-4.8 1.8-5.3 1.2-.1-.2.1-1 .2-1.1l.2-.4.1-.4a2.5 2.5 0 01.2-.3l.2-.4a8 8 0 001-.5 7.8 7.8 0 00.8-.6 4.3 4.3 0 00.6-.6c.3-.4.2-1-.6-.6l-.6.4a3.5 3.5 0 00-.4.3l-.4.3-.4.4-.3.4h-.4l-1.1.3a32.6 32.6 0 012.7-4l1.3-1.4a14.9 14.9 0 011.4-1.3l-.2-.4a24.2 24.2 0 00-2 1.5 17.8 17.8 0 00-1.9 1.8l-1.8 2-1.7 2.3-2 .5a14.6 14.6 0 00-1.7.6 17.9 17.9 0 00-1.7.9l-1.7 1 .3.4 1.6-1 1.5-.7.8-.3.8-.3.7-.2.8-.1a46 46 0 01-3 4 16.7 16.7 0 01-2.6 2.5 9 9 0 01-2.4 1.4 7.4 7.4 0 01-2.6.5 4.7 4.7 0 01-1.2 0 3.7 3.7 0 01-1-.4 1.9 1.9 0 01-.5-.5 1.1 1.1 0 01-.2-.7.4.4 0 010-.2.7.7 0 010-.1 1 1 0 01.2-.1.7.7 0 01.2 0h.5l.2.1a.6.6 0 00.3 0 .7.7 0 00.3 0 .8.8 0 00.3-.2.6.6 0 00.1-.3 1 1 0 000-.3 1.1 1.1 0 000-.4 1.2 1.2 0 00-.2-.3 1.5 1.5 0 00-.2-.2 1.5 1.5 0 00-.5 0 2 2 0 00-.7 0 2 2 0 00-.6.5 2 2 0 00-.4.6 2 2 0 00-.1.8 2 2 0 00.2 1 2.2 2.2 0 00.8.7 3.6 3.6 0 001 .5 5 5 0 001.5.2 11.5 11.5 0 007-2.4 17.8 17.8 0 003-3 28 28 0 002.8-4.2l1.1-.2.3-.1v.1a15 15 0 00-.7 1.5 2.5 2.5 0 00-.2.6c-.3 1.5 2.8.6 4.4.2l-.4.2a11.1 11.1 0 00-1.3 1.4 10.8 10.8 0 00-1.1 1.4 7 7 0 00-.7 1.4 4.1 4.1 0 00-.2 1.3 1.8 1.8 0 00.1.7 1.5 1.5 0 00.4.5 1.9 1.9 0 00.5.3 1.9 1.9 0 00.7.2 4.3 4.3 0 001.5-.3 8.1 8.1 0 001.7-.9l.5-.4a5.8 5.8 0 00.6-.5 16.5 16.5 0 002.2-2.4 3 3 0 001.8.4 5.7 5.7 0 002.8-1.2l-3.8 4.9h1.6l.8-1.1 7.4-5.4a1 1 0 00.2.4 1.6 1.6 0 001.2.5 5.3 5.3 0 002.3-.7L84 71.4h1.7a41.7 41.7 0 014.6-5.4l.8-.8a17.2 17.2 0 012.5-1.8 4.5 4.5 0 011.8-.6c.6 0 .4.6.3.8l-.5.7-5.5 7h1.7l2.8-3.4a25.7 25.7 0 012.7-2.7 16.6 16.6 0 012.5-1.8 4.5 4.5 0 011.8-.6c.8 0 .4.7.3.8a2 2 0 01-.2.3l-.3.3-2.7 3.3-.7.7a7.2 7.2 0 00-.4.8 6.7 6.7 0 00-.3.8 2 2 0 00-.1.6 1 1 0 001 1.2.8.8 0 00.1 0 3.7 3.7 0 001.2-.2 15.7 15.7 0 005.5-3.5 6.6 6.6 0 00-.4.9 4.4 4.4 0 00-.3 1.4 1.3 1.3 0 001.2 1.4 1.2 1.2 0 00.3 0 3.4 3.4 0 001-.1 8 8 0 001.3-.5l.4-.3.5-.2a7.2 7.2 0 00.9-.7l.9-.8-.1.4-.3 1c0 1.1 1 1.1 1.2 1.1a3 3 0 001-.2 7.3 7.3 0 001.4-.7l4.8-3.6a18.7 18.7 0 00-1 1.8 5.2 5.2 0 00-.4 1.8 1 1 0 00.7 1.1 1.1 1.1 0 00.5.1 3 3 0 001-.2 8.3 8.3 0 001.5-.7 12.7 12.7 0 001.5-1.3l1.8-1.8-.3-.4-1.8 1.7-1.5 1.2a10 10 0 01-1.2.7 2 2 0 01-.9.3s-.6 0-.1-1.1a10.3 10.3 0 01.7-1.2l1.3-1.9 1.8-2.5.2-.2a83.1 83.1 0 008.9-7 20 20 0 002.5-2.7 3.5 3.5 0 00.8-1.8.8.8 0 00-.8-.8zm37.7 5.5a30.8 30.8 0 013.5-2.7 15.4 15.4 0 013.1-1.7 8 8 0 012.6-.6c2.3 0 1.4 2 1.2 2.3a8.1 8.1 0 01-1.2 1.4 10.8 10.8 0 01-1.8 1.4 18.1 18.1 0 01-2.3 1.2 26.6 26.6 0 01-4.2 1.6 18.8 18.8 0 01-2.2.4 15 15 0 01-2.1.2c1-1.2 2.2-2.4 3.5-3.5m3 6.5a2.8 2.8 0 00-.8-.5 4.3 4.3 0 00-1.2-.2 6.2 6.2 0 00-2.2.5 7.7 7.7 0 00-2 1.3 9.3 9.3 0 00-1.9 2 14.7 14.7 0 00-1.3 2.6h.4a15.3 15.3 0 011.5-2.3 13.7 13.7 0 011.7-1.8 8.4 8.4 0 012-1.2 4.9 4.9 0 011.9-.4 3.4 3.4 0 01.8.1 2.2 2.2 0 01.7.4 1.9 1.9 0 01.5.5 1.6 1.6 0 01.1.7 2.9 2.9 0 01-.1 1 4.5 4.5 0 01-.6 1 8.2 8.2 0 01-.9 1 8.1 8.1 0 01-1.2.9 13.4 13.4 0 01-1.2.7 9 9 0 01-1.4.6l-1.5.4a7 7 0 01-1.3 0 4.7 4.7 0 01-1.4 0 2.5 2.5 0 01-1-.6 2 2 0 01-.8-1.7 4.6 4.6 0 01.2-1.5 7 7 0 01.7-1.6 16.2 16.2 0 011.3-1.9l1.8-2.2a18.8 18.8 0 002.5-.2l2.5-.5a23 23 0 002.5-.7 23.5 23.5 0 002.3-1 20.2 20.2 0 002.4-1.4 12.2 12.2 0 001.8-1.5 6.8 6.8 0 001.2-1.5 2.8 2.8 0 00.4-1.3c0-.3-.1-1.6-2.3-1.6a10.3 10.3 0 00-3.1.6 21.6 21.6 0 00-3.8 1.9 37.5 37.5 0 00-4 2.8 43.7 43.7 0 00-4 3.7 8 8 0 01-2-.4 4.4 4.4 0 01-1.4-.7 3 3 0 01-1-1 2.6 2.6 0 01-.3-1.3 3.8 3.8 0 01.7-2.1 7 7 0 012-1.9 10 10 0 012.7-1.3 12.3 12.3 0 013.4-.5h.8l1 .1 1 .2 1 .2.2-.5a16.6 16.6 0 00-2.4-.4l-1-.2h-1a13.6 13.6 0 00-3.6.5 9.2 9.2 0 00-2.9 1.4 6.4 6.4 0 00-1.9 2 4.9 4.9 0 00-.6 2.4 3.5 3.5 0 00.3 1.5 3.4 3.4 0 001 1.2 4.6 4.6 0 001.4 1 9.3 9.3 0 002 .4l-1.3 1.8a16.9 16.9 0 00-1 1.7 7.5 7.5 0 00-.5 1.6 5.3 5.3 0 00-.2 1.4 4.1 4.1 0 00.3 1.6 3.2 3.2 0 00.8 1.2 3.6 3.6 0 001.5.7 7 7 0 002 .2 7.8 7.8 0 001.7-.1 11.8 11.8 0 001.7-.5 11.4 11.4 0 001.7-.9 12.2 12.2 0 001.5-1.1 8.6 8.6 0 00.9-.9 4.8 4.8 0 00.6-.8 4.7 4.7 0 00.4-1 3.4 3.4 0 00.1-.8 2.3 2.3 0 00-.2-1 2 2 0 00-.6-.7m7.3 5a11.9 11.9 0 01-1.4 1 7.4 7.4 0 01-1.2.7 2.9 2.9 0 01-1 .2c-.8 0-.6-1-.4-1.2a9 9 0 01.6-1l1-1.4a13.4 13.4 0 011.5-1.4l1.3-1.3a9.7 9.7 0 011.3-1 4.4 4.4 0 011-.6c1.8-.6 1.6.9 1.5 1.2a5.8 5.8 0 01-.6 1 13.8 13.8 0 01-1 1.2 24.6 24.6 0 01-2.6 2.7m15.2-9.2a2.3 2.3 0 00-.4.3l-.2.3a1.6 1.6 0 00-.2.3l-.2.4a3 3 0 00-.2.4l-1.5 1.5-1.3 1.2-1.2 1a9.7 9.7 0 01-1 .8l-3.2 2.7-1.6 1.2a8.4 8.4 0 01-1.2.7c-.3.2-1.6.4-1-.6a7.5 7.5 0 01.4-.8v-.1l5-6.7h-1.6l-.8 1.2v-.3a1.2 1.2 0 00-1.2-1.3h-.2a5.1 5.1 0 00-1 .2 9.5 9.5 0 00-1.4.4 12.1 12.1 0 00-2.6 1.6 14.9 14.9 0 00-1.6 1.4 7.8 7.8 0 00-1.2 1.5 6.7 6.7 0 00-.8 1.5 4.4 4.4 0 00-.2 1.4c-.1 2 2.1 1.4 2.5 1.3a8 8 0 001.2-.5l.5-.2.4-.3a8.2 8.2 0 001-.7l.8-.8v.4l-.2.4a1.9 1.9 0 010 .4c-.4 1.9 1.7 1.3 2.1 1.2a6.8 6.8 0 001.4-.7l1.6-1.3 3.3-2.7 1.1-1 1.2-1 1.2-1 1.1-1.2a13 13 0 01-1.8 6.2 7.2 7.2 0 01-1.7 2 2.9 2.9 0 01-1.8.6s-.8 0-.4-.4a1.3 1.3 0 01.3-.2.8.8 0 00.4-.3 1 1 0 000-.5.8.8 0 00-1-.7 1 1 0 00-.2 0 1.3 1.3 0 00-.4.4 1.4 1.4 0 00-.2.4 1.4 1.4 0 00-.1.5 1 1 0 000 .6 1.6 1.6 0 001.7.7 5.3 5.3 0 002.3-.5 5 5 0 001.8-1.4 6 6 0 001.3-2.2 8.8 8.8 0 00.4-2.7l-.1-2.7.6-.6a4.3 4.3 0 00.4-.5 2 2 0 00.3-.4c.1-.4 0-1.2-.6-.7m42.3-5.5a17.8 17.8 0 01-2.3 2.5 38 38 0 01-3.3 3l-4.3 3s2.2-3 3.3-4.2l2.9-3.4a20 20 0 012.3-2.1 3.1 3.1 0 011.6-.7.5.5 0 01.5.4 3 3 0 01-.7 1.5m-22.3 13.2a18.3 18.3 0 01-1.4 1.4 10.1 10.1 0 01-1.4 1 7.7 7.7 0 01-1.2.6c-.4.2-2 .4-1.4-1a6.8 6.8 0 01.6-1l1-1.4a13.4 13.4 0 011.4-1.4l1.3-1.3a9 9 0 011.3-1 7 7 0 011.1-.6c1.7-.7 1.6.9 1.5 1.2a5.8 5.8 0 01-.6 1 11.2 11.2 0 01-1 1.2l-1.2 1.4M239.6 52a3.4 3.4 0 00-1.5.5 12.9 12.9 0 00-2 1.3 27 27 0 00-2.4 2l-2.6 2.8a87.7 87.7 0 00-5.8 7.3 46 46 0 01-7 4.9 1.8 1.8 0 01-.7.2s-.7-.1-.3-.9c0-.2.5-.8.5-.8l5-6.7h-1.6l-.8 1.1v-.2a1.1 1.1 0 00-1-1.3 1.1 1.1 0 00-.4 0 7 7 0 00-1.1.1 9.5 9.5 0 00-1.3.5l-1.4.7a13.4 13.4 0 00-1.3.9 16 16 0 00-1.6 1.4l-.5.6-6.5 4.6a1.3 1.3 0 01-.8.2s-.7 0-.4-.9a3.9 3.9 0 01.4-.6l5.5-7.1h-1.8a35.7 35.7 0 01-2.6 3.4 28.4 28.4 0 01-2.8 2.8 14.8 14.8 0 01-2.4 1.8 3.2 3.2 0 01-1.7.6c-1 0 0-1.6.1-1.8l5.3-6.8h-1.8L199 67a8.6 8.6 0 00-.7 1l-.5 1c-.1.3-1 2.2.3 2.7a1.4 1.4 0 00.5 0 2.7 2.7 0 001-.1l1.2-.5a10 10 0 001.3-1l1.5-1.2-.1.5a1.4 1.4 0 01-.1.4v.3a1.2 1.2 0 00.5 1.5 1 1 0 00.5 0 1.9 1.9 0 001-.2 57.9 57.9 0 005.3-3.6 7.5 7.5 0 00-.4.9 4.4 4.4 0 00-.3 1.4c0 1.8 2.2 1.4 2.6 1.3a7.9 7.9 0 001.2-.5l.5-.2.4-.3a7.2 7.2 0 001-.7l.8-.8a3 3 0 01-.1.4c-.6 1.6.3 2 .5 2.1a1.3 1.3 0 00.5 0 1.8 1.8 0 001-.1 52.1 52.1 0 006-4l-.9 1.4a5 5 0 00-.5 1.8 1.1 1.1 0 001 1.2h.2a3 3 0 001-.2 8.3 8.3 0 001.5-.8 12.7 12.7 0 001.5-1.2l1.8-1.8-.3-.4-1.8 1.6c-.5.4-1 1-1.5 1.3a10 10 0 01-1.2.7 2 2 0 01-.9.3.3.3 0 01-.4-.3.3.3 0 010-.1 2.2 2.2 0 01.3-.7 12.9 12.9 0 01.7-1.3l1.3-1.8 1.8-2.5.6-.4a74 74 0 008.5-6.7 20 20 0 002.5-2.8 3.5 3.5 0 00.9-1.8.8.8 0 00-.9-.8M23 16.5c0-.4.2-.6.7-.7H31q1.7 0 1.7.5c0 .3-.4.7-1.1 1.2a3.3 3.3 0 00-1.4 2A59.8 59.8 0 0030 28a62.4 62.4 0 00.3 8.5 2.6 2.6 0 001 1.7c1 .7 1.5 1 1.5 1.2 0 .4-.2.6-.6.7h-7.4c-1.1 0-1.7-.2-1.7-.5v-.3l1.1-1a3.1 3.1 0 001.4-2 61.7 61.7 0 00.3-8.6V22a9 9 0 00-.5-3.3 3 3 0 00-1.3-1.2c-.6-.4-1-.7-1-1m19.5 23.8c-2 0-3-.3-3-.8 0-.3.3-.6.8-1a3.5 3.5 0 001-1.6 16.4 16.4 0 00.4-3.9v-8a35 35 0 00-.3-5.7 2.7 2.7 0 00-1.4-1.6c-.7-.4-1-.9-1-1.3s.6-.5 1.8-.5H44c1.2 0 2.4 0 3.6.2q.8 0 .8.7c0 .2-.3.5-.9 1a3.5 3.5 0 00-1.2 1.6 17.6 17.6 0 00-.5 5v5.4q0 5.9.4 6.9a2.1 2.1 0 001 1.3 4.8 4.8 0 002 .3 9.6 9.6 0 004.6-1 8.5 8.5 0 002.1-2c.9-1 1.4-1.4 1.7-1.4s.5.3.5.8a15 15 0 01-.7 4.3 1.4 1.4 0 01-.6 1q-.8.3-6.3.3h-6zm28.6.1c-.8 0-1.5-.7-2.2-2.1l-1.6-4.4-1.8-4.9-1.7-4.6-1.8-4.7a5 5 0 00-1.6-1.6q-1-.8-1-1.4c0-.5 1.3-.8 4.2-.8h1.2c1.8 0 2.7.3 2.7.8a5.3 5.3 0 01-.3.8 4.1 4.1 0 00-.4 1.8q0 1.8 4.2 13.5l.9 2s.5-.6.9-1.6q4.4-12 4.4-14.2a2.9 2.9 0 00-.4-1.6 2.5 2.5 0 01-.5-.9c0-.4.8-.5 2.4-.5 2.7 0 4 .2 4 .8s-.4.9-1.1 1.5a5.6 5.6 0 00-1.6 2q-.5 1-3.5 9T73 39q-.8 1.5-1.7 1.5m29.4-.2h-3.1c-3.3 0-5.6 0-6.9-.2s-1.9-.4-1.9-.9c0-.2.3-.5 1-1a3 3 0 001.3-2 75 75 0 00.2-8.5 59.5 59.5 0 00-.2-8 3.3 3.3 0 00-1.2-1.7L89 17c0-.4.3-.7 1-.8a48.6 48.6 0 015.7-.2h5.5a12 12 0 014.1.4c.8.5 1.2 1.6 1.2 3.4 0 .7 0 1-.3 1a4.3 4.3 0 01-1.1-.8 9.5 9.5 0 00-6.2-1.8 2.6 2.6 0 00-2.5 1.2 11.9 11.9 0 00-.8 5 1.4 1.4 0 00.6 1.3 3.7 3.7 0 001.8.3 3.8 3.8 0 001.7-.3 4.7 4.7 0 001.3-1c.4-.5.8-.8 1-.8.8 0 1.1 1 1.1 3a.7.7 0 000 .2 14.7 14.7 0 01-.2 3.5c-.1.4-.4.6-.7.6l-1.7-1.4A3.8 3.8 0 0098 29a3.2 3.2 0 00-2 .6 2.2 2.2 0 00-.6 1.6c0 3.8.7 6 2 6.5a8 8 0 002.7.3 8.6 8.6 0 005.6-1.9 5.4 5.4 0 011.7-1.1c.2 0 .2.2.2.5a5 5 0 01-1.3 4q-1 .8-5.5.8m26.9-17.4V22a4 4 0 00-1.3-3 4.7 4.7 0 00-3.3-1.3h-.8c-1 0-1.7.2-1.9.7a19.8 19.8 0 00-.3 4.7v2.5a2.5 2.5 0 00.3 1.5 1.6 1.6 0 001.1.2h1a5.1 5.1 0 003.9-1.3 4.4 4.4 0 001.3-3.2m-13.8-6.5c0-.4 2.1-.5 6.4-.5h1.8c3.3 0 5.6.4 7.1 1.4a6 6 0 011.9 2 6 6 0 01.8 3 6.2 6.2 0 01-2.6 5 12.4 12.4 0 01-1.6 1.3v.3c.7.7 4.1 7.2 4.6 7.7 2 2.2 3.8 1 3.7 2s-1.9 1.6-3.7 1.6a4.2 4.2 0 01-3-1 17.1 17.1 0 01-2.6-4.3 30.3 30.3 0 00-2.2-4 3.4 3.4 0 00-2.8-1.5 1 1 0 00-1.1.6 13 13 0 00-.3 3.2 12.3 12.3 0 00.6 4 4.5 4.5 0 00.9 1.4 4.2 4.2 0 01.7 1q0 .6-2.2.6h-3.7a9.7 9.7 0 01-2.4-.1.8.8 0 01-.6-.8c0-.3.3-.6 1-1a2.4 2.4 0 001.2-1.3 27.4 27.4 0 00.3-5.3V26a36 36 0 00-.3-7 3.7 3.7 0 00-1.2-1.7c-.5-.5-.8-.8-.8-1m47.8 17c.5 0 .7 1 1.6 2a12.7 12.7 0 005.8 3.1 4.9 4.9 0 003.3-1 3.4 3.4 0 001.2-2.7 4.1 4.1 0 00-1.8-3.4 28.8 28.8 0 00-4-2 16.2 16.2 0 01-4.5-2.7 5.7 5.7 0 01-1.9-4.2 6.3 6.3 0 012.2-5 7.7 7.7 0 012.2-1.3 7.3 7.3 0 012.8-.5 15 15 0 012.8.3c1 .1 1.6.9 2.5.4.3-.2.7-.9 1-1 .6-.3 1.1.3 1.3 1a10.8 10.8 0 01.2 4.5c-.2.8-.4 1-.7 1s-.8-.4-1.5-1.3a9.4 9.4 0 00-2.2-2.2 5.4 5.4 0 00-3-.8 4.3 4.3 0 00-3 1 3.3 3.3 0 00-1 2.7 3.5 3.5 0 001.7 2.8 28 28 0 004 2 18.4 18.4 0 014.5 2.6 6.5 6.5 0 012.2 5 6.4 6.4 0 01-2.3 5 7.9 7.9 0 01-5.5 2 16.2 16.2 0 01-3.4-.4 12 12 0 00-2.7-.6c-.3 0-.7.7-1 .7-.7.2-1.2-.3-1.5-1s-.8-5.6.7-5.9M1 33.4c.5-.2.7 1 1.6 2a12.7 12.7 0 005.8 3 5 5 0 003.3-1 3.4 3.4 0 001.2-2.7 4.1 4.1 0 00-1.8-3.4 28.8 28.8 0 00-4.1-2 16.6 16.6 0 01-4.4-2.7 5.7 5.7 0 01-1.9-4.2 6.3 6.3 0 012.2-5A7.7 7.7 0 015 16.1a7.3 7.3 0 012.8-.5 15 15 0 012.8.3c1 .1 1.6.9 2.5.4.3-.2.7-.9 1-1 .6-.3 1.1.3 1.3 1a10.8 10.8 0 01.2 4.5c-.2.8-.4 1-.7 1s-.8-.4-1.5-1.3a9.4 9.4 0 00-2.2-2.2 5.4 5.4 0 00-3-.8 4.3 4.3 0 00-3 1 3.3 3.3 0 00-1 2.6A3.4 3.4 0 006 24a27.4 27.4 0 004.1 2 18.5 18.5 0 014.5 2.5 6.5 6.5 0 012.1 5 6.4 6.4 0 01-2.2 5 7.9 7.9 0 01-5.5 2h-.1a16.2 16.2 0 01-3.4-.3 12 12 0 00-2.7-.6c-.3 0-.7.7-1 .7-.7.2-1.2-.3-1.5-1s-.8-5.7.7-6m196.9-10v-.8a4.5 4.5 0 00-1.4-3.5 5.5 5.5 0 00-3.8-1.3 3.6 3.6 0 00-1.9.4c-.3.2-.4.6-.4 1.4V26a2.8 2.8 0 00.3 1.7c.2.2.8.3 1.7.3h.5a5 5 0 003.7-1.3 4.8 4.8 0 001.3-3.5m4.4-1v.6a6.3 6.3 0 01-.8 3q-1.8 3.3-6.5 4a26.7 26.7 0 00-4.2.7 6 6 0 00-.5 3.2 8 8 0 00.4 3.2 3.9 3.9 0 001.3 1.4c.7.5 1 .8 1 1.1s-1.6.7-4.8.7h-1.8c-2 0-2.9-.2-2.9-.7s.5-.7 1.4-1.3a3 3 0 001-2 81.3 81.3 0 00.3-8.8 66.7 66.7 0 00-.3-8.1 3.7 3.7 0 00-1-1.7c-.6-.5-.9-.9-.9-1q0-.7 6.3-.7h3.3q4.2 0 6.3 1.6a6.3 6.3 0 012.4 4.9m10.3 4.9v1a14.2 14.2 0 00.6 4.2A9 9 0 00217 38a5.2 5.2 0 002.8.8h.2a5 5 0 002.5-.7q2.6-1.5 3.7-5.8a16.2 16.2 0 00.4-3.9V28a16 16 0 00-.6-4.4c-.7-2.6-1.8-4.4-3.4-5.4a5.2 5.2 0 00-2.7-1h-.6a5.2 5.2 0 00-2.6.8 8.2 8.2 0 00-3.5 5.2 15.3 15.3 0 00-.5 4.1m7.1 13.4h-.4a10.8 10.8 0 01-4.3-1 9.7 9.7 0 01-3.6-2.6 12.2 12.2 0 01-2.4-4 13.2 13.2 0 01-.8-4.6v-.8a13.9 13.9 0 01.9-4.7 12.4 12.4 0 012.4-4.2 10.4 10.4 0 018-3.6h.9a10.2 10.2 0 014 1 10.8 10.8 0 013.6 2.6 11.9 11.9 0 012.4 4 13.9 13.9 0 01.7 4.5v.4a13.5 13.5 0 01-3.3 9.4 10.9 10.9 0 01-8 3.5m21.6-13.3v1a13.6 13.6 0 00.6 4.2 9 9 0 003.7 5.4 5.2 5.2 0 002.8.7h.3a5.1 5.1 0 002.5-.7c1.7-1 3-2.8 3.6-5.7a16.7 16.7 0 00.4-4V28a16 16 0 00-.5-4.3c-.8-2.6-2-4.4-3.5-5.4a5.2 5.2 0 00-2.7-1h-.6a5 5 0 00-2.6.8 8.2 8.2 0 00-3.5 5.2 15.3 15.3 0 00-.6 4m7.2 13.4h-.4a10.8 10.8 0 01-4.3-.9 9.8 9.8 0 01-3.7-2.6 12.4 12.4 0 01-2.3-4 13.2 13.2 0 01-.8-4.6v-.8a13.9 13.9 0 01.9-4.8 12.4 12.4 0 012.4-4 10.4 10.4 0 018-3.7h.9a9.9 9.9 0 014 1 10.8 10.8 0 013.6 2.6 11.9 11.9 0 012.4 4 13.9 13.9 0 01.8 4.5v.4a13.4 13.4 0 01-3.4 9.4 10.4 10.4 0 01-3.6 2.6 10.6 10.6 0 01-4.5.9M286 40c-.9 0-2-.8-3.5-2.5q-.8-.8-6.2-8.4t-5.7-7.6q-.4 0-.4 7c0 4.7.3 7.7 1 9a5.8 5.8 0 00.6.9 2.4 2.4 0 01.4.8c0 .7-1.3 1-4 1h-.9c-1.4 0-2.1-.3-2.1-.9l.3-.4 1.1-.6a2.8 2.8 0 001-1.7 71.3 71.3 0 00.3-8.5 53 53 0 00-.3-8.3 4.2 4.2 0 00-1.3-2c-.7-.5-1-1-1-1.2 0-.4.8-.6 2.2-.6a10 10 0 013.2.4 5.8 5.8 0 012 1.3l6 8.2q5.2 7.2 5.6 7.3c.2 0 .3-1.8.3-5.4a53.5 53.5 0 00-.3-7.4 7 7 0 00-.8-2.6l-.8-.7a.9.9 0 01-.3-.7c0-.2.5-.4 1.6-.4h.8q3.4 0 4 .5l.3.3a3.4 3.4 0 01-.9 1.6 5.3 5.3 0 00-1 2.3 62.2 62.2 0 00-.3 7.6V35a38 38 0 01-.1 4c-.1.6-.4.9-.7.9M171 12.8a15.7 15.7 0 00-6 .3 11 11 0 00-4.8 2.9c-.4.4-.9.4-1 0-1-2-3.9-7.7-4.7-7.7a2 2 0 01-2-1.6 2 2 0 011.3-2.3 2 2 0 012.4.9 1.9 1.9 0 010 2 .4.4 0 000 .6 5.5 5.5 0 001.7 1.7 3.6 3.6 0 003.3 0c1-.6 1.5-2.5 1.2-4a.6.6 0 00-.5-.5 2 2 0 01-1.5-2 2 2 0 013.6-1 2 2 0 01-.2 2.5.5.5 0 00-.2.6 4.4 4.4 0 002.4 2.5 2.8 2.8 0 003.4-.8 4 4 0 00.7-2.7.6.6 0 00-.3-.4 2 2 0 01-1.2-2.1 2 2 0 013.8-.4 2 2 0 01-.6 2.2c-.7.5-.3 6.9 0 8.3 0 .7-.3 1-.8 1"/></svg>
