<svg xmlns="http://www.w3.org/2000/svg" viewBox="0 0 52.08 39.5"><g fill="#fff" fill-rule="evenodd"><path d="M27.72 23.72a13.82 13.82 0 01-19 4.77A14 14 0 014 9.36a13.82 13.82 0 0119-4.77c.06.06.11.06.17.12l1-1.69C24.14 3 24.08 3 24 2.9A15.79 15.79 0 002.27 8.37a16 16 0 005.44 21.86 15.75 15.75 0 007.4 2.27h1.45a15.81 15.81 0 0012.9-7.73l3.24-5.47 7.87 13.2v-.06h2.31L32.7 15.4z"/><path d="M46 32.5L32.76 10.29l-7.24 12.09a11.21 11.21 0 01-15.38 3.84 11.34 11.34 0 01-3.82-15.47 11.16 11.16 0 0115.39-3.83c.05 0 .11 0 .17.11l1-1.68c-.06-.06-.12-.06-.17-.12A13.24 13.24 0 009.15 28a13.15 13.15 0 0018.11-4.53l5.5-9.25L43.69 32.5z"/><path d="M52.08 32.5L32.64 0 20.9 19.65a6 6 0 11-2-8.2c.06.06.12.06.17.12l1.05-1.69c-.06-.06-.12-.06-.18-.11h-.05a8 8 0 00-8.11 13.7 7.49 7.49 0 004.05 1.16 7.94 7.94 0 006.83-3.89L32.7 3.89 49.82 32.5z"/><path d="M46.76 32.5v-.06h2.31L32.7 5.11 23.21 21a8.57 8.57 0 01-11.8 3 8.72 8.72 0 01-2.95-11.91 8.62 8.62 0 0111.8-3c.06 0 .11 0 .17.11l1-1.68c0-.06-.11-.06-.17-.12a10.61 10.61 0 00-10.93 18.2A10.47 10.47 0 0024.89 22L32.7 9l14.06 23.5z"/><path d="M50.41 36.56a.75.75 0 01.42-.12h.25v1h-.25a.71.71 0 01-.46-.13.54.54 0 01-.13-.37.38.38 0 01.17-.37m-.51 1.33l-.9 1.52h1.1l.64-1.28h.32v1.28h1v-3.65h-1.18a2 2 0 00-1.23.27 1.06 1.06 0 00-.4.92 1 1 0 00.23.69 1 1 0 00.42.25M46.41 39.42h-1.17v-3.65h.96v1.56l-.03.89h.03l1.13-2.45h1.16v3.65h-.96v-1.57l.02-.9h-.02l-1.12 2.47zM42.07 39.42h-.98v-3.65h.98v1.39h1.14v-1.39h.98v3.65h-.98v-1.57h-1.14v1.57zM37.95 39.42h-1.18v-3.65h.97v1.56l-.03.89h.03l1.13-2.45h1.16v3.65h-.96v-1.57l.02-.9h-.02l-1.12 2.47zM32.65 39.45h-.41v-.76a.66.66 0 00.21 0 .42.42 0 00.28-.1.48.48 0 00.15-.32 6.29 6.29 0 00.12-.77v-1.73h2.76v3.65h-1v-3h-.89v1.63a1.87 1.87 0 01-.32 1.06 1.24 1.24 0 01-.86.3M28.46 36.56a.8.8 0 01.42-.12h.25v1h-.25a.67.67 0 01-.45-.13.51.51 0 01-.14-.37.4.4 0 01.17-.37M28 37.9l-.87 1.52h1.07l.64-1.28h.32v1.28h1v-3.65H29a2 2 0 00-1.23.27 1.06 1.06 0 00-.4.92 1 1 0 00.23.69.91.91 0 00.42.25M24.73 36.51l.43 1.43h-.9zm-1 2.91l.29-.78h1.36l.27.78h1.06l-1.39-3.65h-1.2l-1.38 3.65zM20.07 39.42h-.96v-3.65h.96v1.39h1.16v-1.39h.96v3.65h-.96v-1.57h-1.16v1.57zM16.37 37.82h.32a.92.92 0 01.45.08.44.44 0 01.19.36.43.43 0 01-.15.35.94.94 0 01-.54.12h-.27zm.52 1.6a1.69 1.69 0 001-.27 1 1 0 00.4-.86 1.16 1.16 0 00-.29-.89 1.71 1.71 0 00-1.13-.27h-.43v-1.36h-1v3.65zM11.27 39.45h-.4v-.76a.6.6 0 00.2 0 .46.46 0 00.29-.1c.1-.08.11-.18.15-.32a6.29 6.29 0 00.07-.77v-1.73h2.76v3.65h-1v-3h-.84v.44c0 .28 0 .82-.05 1.19a1.73 1.73 0 01-.32 1.06 1.22 1.22 0 01-.86.3M8.48 36.51l.44 1.43H8zm-1 2.91l.28-.78h1.39l.27.78h1.06l-1.39-3.65h-1.2l-1.38 3.65zM4.68 36.49h-.89v-.72h2.76v.72h-.89v2.93h-.98v-2.93zM0 37.6a1.81 1.81 0 01.62-1.44 2.31 2.31 0 011.46-.44 3.48 3.48 0 011.08.18l-.08.79a2.24 2.24 0 00-1-.25 1 1 0 00-.8.32 1.23 1.23 0 00-.34.88 1.16 1.16 0 00.34.84 1.3 1.3 0 00.89.3 2.65 2.65 0 00.91-.19l.05.76a3.89 3.89 0 01-1 .15C.69 39.47 0 38.66 0 37.6"/></g></svg>
