<svg xmlns="http://www.w3.org/2000/svg" viewBox="0 0 2174 1465"><path fill="#fff" d="M2174 298v5-5zM2174 265v12-12zM2174 298v5l-1 3c-2 4-5 6-9 6h-67v177c0 3-2 8-6 7h-55c-5 1-7-5-7-8V312h-67c-5 1-9-5-9-9v-43c1-4 3-10 8-9h206c3 0 5 2 7 5v42zM1899 478l-1 14c-2 4-7 5-10 5h-48c-4 0-9-3-9-9v-83h-107l-1 11v73c1 4-3 8-7 7h-52c-3 0-6-2-7-4-2-4-1-8-1-12V267c0-4-1-8 1-12 2-2 3-5 6-5h53c4 0 8 4 7 8v79l1 5 31 1h59l17-1v-83c0-4 4-9 9-9h50c2 1 4 0 5 2 4 2 4 7 4 11v215zM1573 251c4-1 8 3 7 8l1 45c0 4-4 8-8 7h-85c-15 0-30-1-45 3-9 3-18 9-23 18-5 8-8 19-8 29v34c2 10 5 21 13 28 5 5 12 8 19 10 13 3 26 2 40 2h32c2-3 1-6 1-9v-44c0-4 2-8 6-9 2-2 6-2 9-2h40c4 0 9 4 9 8v105l-1 7c-2 3-4 5-7 5h-134c-23-2-46-9-63-24-6-6-13-12-17-19-12-19-16-42-16-64l1-38 2-18v1c1-10 5-20 9-29 7-15 18-27 32-36 11-8 25-13 38-15 8-2 16-4 24-4l124 1zM1277 489c1 4-4 8-8 7h-50c-5 1-9-3-9-7V260c0-4 3-8 6-9h54c5-1 8 4 7 9v229zM1157 434c5-1 9 4 8 9v47c1 2-2 4-3 6-4 2-9 1-14 1H990c-5 0-10 1-14-1-2-2-4-4-4-7V259c0-4 2-8 5-8h54c5-1 8 4 7 8v174l29 1h90zM897 272v214l-1 7c-2 2-5 4-8 4h-44l-13-1c-8-2-14-7-19-13-13-13-24-27-35-41l-66-81-3-3h-4l-1 17v114c1 4-3 8-7 8h-50c-4 1-7-1-9-4v-9-225c0-4 3-9 8-8h40c5 0 9 1 14 3 10 4 17 11 24 19l95 117c2 3 4 7 8 9l3-2V269c0-5 0-10 3-14 2-2 4-4 7-4h50c3 0 5 3 7 5 2 5 1 10 1 16zM562 260v155l-2 18-2 5c-3 15-11 28-22 39-15 13-35 20-55 24l-21 2h-54c-22-2-44-8-62-20a81 81 0 01-34-69V260c0-3 0-5 2-7 1-2 4-2 7-2h53l5 2c3 5 2 10 2 15v127c0 6 0 12 2 18l6 13 10 8c7 4 14 4 22 5h35c10-1 21-3 28-11 8-7 11-18 11-28V259c0-3 1-6 3-8h59c3-1 6 2 6 5l1-1v5zM251 406v26c-3 24-19 45-41 54-6 4-12 6-18 7V348l5 1-1 1c13 3 26 9 36 18 11 10 18 23 19 38zM228 251c6-1 13 5 12 12v39c1 5-4 10-9 9h-39v-60h36zM192 348v145l-12 3-20 1-138 1c-3-1-6 0-8-2-4 0-8-4-8-8v-43c-1-7 7-11 13-11h142c5 0 12-1 16-6 4-4 5-10 3-16-2-4-5-7-10-8-7-3-14-2-21-3-10-1-19-1-28-3l-23-2-27-2c-11-2-22-4-32-9a63 63 0 01-38-48l-1-23c0-7 3-13 5-19 6-16 20-29 36-35 10-5 21-7 31-9h120v60H89c-5 1-12 2-15 7-2 3-2 7-2 10 1 5 6 8 11 9 13 3 26 2 39 4l18 1 21 1 31 5z"/></svg>
