<svg xmlns="http://www.w3.org/2000/svg" viewBox="0 0 3016 3781"><path fill="#fff" d="M2442 2476c15-4 30-2 44 4 12 4 22 3 33 0 49-12 97-14 147-5a151 151 0 0148 18l14 8 11-6c26-16 54-25 85-25l70 1c29 3 56 12 79 30 22 17 35 38 39 65a248 248 0 013 36v328c0 7 2 14-3 22-19 4-38 2-55-8-15-9-24-23-24-41v-18-286a158 158 0 00-2-26c-3-14-12-25-25-32a53 53 0 00-9-4c-31-9-62-10-92-1-25 7-36 24-37 49v342c0 8 2 16-2 25-21 4-41 3-59-8-13-7-19-19-21-33v-20-295-18c-1-16-8-27-21-34-8-4-16-8-25-9-23-5-47-7-71-1a98 98 0 00-22 8c-13 6-21 17-23 31a190 190 0 00-2 28v323l-1 26c-24 8-52 3-68-12-9-9-14-18-14-30l-1-14 1-394c0-8-2-16 3-24zM1763 2744c-15-2-167-3-195-2a71 71 0 00-9 2c-5 7-3 15-3 22v162c0 8 1 16-4 24-19 4-37 1-54-6-13-5-20-16-23-29a171 171 0 01-4-33v-318-72a114 114 0 011-14c0-5 4-8 9-8l14-1 184 1c32 0 64 4 94 15a200 200 0 0129 14c29 16 43 42 47 75a217 217 0 010 22v347a8 8 0 01-8 8c-17 2-33 0-49-7s-23-20-25-36l-1-20v-124c0-7 1-14-3-22zm0-67l2-5 1-92c-1-13-7-23-17-30-9-6-18-10-28-12-13-2-26-4-39-4h-108l-16 2-2 9v125l2 7c19 3 189 3 205 0zM2328 2533l-21 1h-152a255 255 0 00-40 4c-31 5-49 26-50 57l-1 66a92 92 0 001 10c6 6 13 4 19 4h132a127 127 0 0136 4 49 49 0 0135 50c0 3-2 5-4 8h-216l-3 12 1 76a112 112 0 003 22c4 22 19 35 40 39a207 207 0 0039 4l118 1c14 0 27 2 39 8 16 9 25 21 25 40 0 8-2 11-10 12a100 100 0 01-14 1h-161c-27 0-54-2-79-11-29-9-53-25-71-50a85 85 0 01-16-42l-1-26v-222-18c2-34 18-59 45-78a163 163 0 0162-26c13-2 27-4 40-4h148c12 0 23 3 34 8 18 8 25 23 25 42l-3 8zM1355 2476l2 3c5 27-4 39-29 48a116 116 0 01-39 7l-94 1-48 3-16 4c-35 12-41 31-37 63 2 12 9 21 19 27 9 5 20 9 30 10l61 9c24 4 48 7 70 15 15 6 29 12 41 21 27 20 42 46 43 80v72c-1 38-19 67-51 87-22 14-45 21-70 23-20 2-41 3-62 3h-158c-7 0-14 1-21-3-6-22-1-35 16-47 12-8 25-11 39-11l128-1 42-3a37 37 0 006-1c30-8 43-25 44-56v-44a105 105 0 00-3-20c-5-23-19-39-43-45-20-5-40-8-60-11l-73-13c-16-3-30-10-44-19a93 93 0 01-43-73c-2-13-1-26 1-39 3-26 16-45 36-60a138 138 0 0157-26 234 234 0 0142-5l200-1 14 2zM477 2949c-22 2-35-7-37-26l-1-19v-166a186 186 0 00-1-22c-4-27-20-43-46-50s-54-5-81 1l-14 6c-13 6-19 15-19 30l1 224-1 22c-8 3-15 1-22-2a24 24 0 01-13-15 79 79 0 01-3-15v-412-18c1-10 5-13 14-12 14 2 23 11 24 25l1 16v125c5-1 9-1 13-3a110 110 0 0150-11c20 0 41-1 61 4 37 9 61 31 70 68a134 134 0 014 32l1 205-1 13zM801 2949l-13 3c-40-1-81 2-121-2a130 130 0 01-53-18 82 82 0 01-39-60 172 172 0 01-2-28v-106c0-15 1-30 6-45q12-44 55-58a136 136 0 0123-6c27-4 55-4 81 3 35 9 56 33 66 66 7 24 7 48 5 72-1 17-15 29-34 31l-23 1H636c-7 0-15-1-22 3l-3 9 2 42c3 39 31 55 60 58l20 1h66a91 91 0 0123 4c15 4 18 11 19 30zm-186-184l13 2h120a75 75 0 0010-1c8-1 12-5 13-13 1-15 0-31-4-45-7-23-21-37-44-43s-47-4-71 2c-12 4-23 11-29 22-12 24-14 49-9 74l1 2zM156 2669c-19 2-37 1-56 1s-37-1-57 2l-2 13v170c3 37 27 55 61 60h24a105 105 0 0123 5c7 2 12 8 14 16 3 10 0 15-10 16a277 277 0 01-32 0c-16-1-32-2-48-7a179 179 0 01-22-8 84 84 0 01-47-63 200 200 0 01-3-36v-339a103 103 0 010-16c1-5 4-7 9-7 15-1 27 8 29 23a121 121 0 011 18v90l1 23 14 2h52a172 172 0 0128 3c8 2 14 7 19 14 4 5 6 11 2 20z"/></svg>
