<svg xmlns="http://www.w3.org/2000/svg" viewBox="0 0 16.9 82"><path fill="#fff" d="M15 77.6H2.5V82h-1a1.5 1.5 0 01-1.2-.5 1.5 1.5 0 01-.4-1V70h2.6v4.4H15v3zM3.3 68.3v-1.6a1.5 1.5 0 011.4-1.5H15v3H3.4zm-3.4 0v-1.6a1.4 1.4 0 01.4-1 1.4 1.4 0 011-.4h1v3zM15 54v3H7.4a1.8 1.8 0 00-1.5.7 2.4 2.4 0 00-.5 1.4 2.1 2.1 0 00.5 1.4 1.8 1.8 0 001.5.6H15v3H8.1c-2 0-3.2-.6-3.9-1.6a6.7 6.7 0 01-1-3.4 8.5 8.5 0 01.1-2 3.9 3.9 0 011-1.7 3.7 3.7 0 01-.9-1.6 8.6 8.6 0 01-.3-1.8 6.6 6.6 0 011-3.5c.7-1.1 2-1.6 4-1.6H15v1.5a1.4 1.4 0 01-.4 1 1.4 1.4 0 01-1 .5h-6a1.8 1.8 0 00-1.5.7 2.3 2.3 0 00-.5 1.4 2.2 2.2 0 00.5 1.4 1.8 1.8 0 001.5.6H15zM1.7 33v7.7h3.6a3.7 3.7 0 01-1.3-1.4 3.9 3.9 0 01-.5-2A4 4 0 015.3 34a7 7 0 014.4-1.3 7 7 0 014.4 1.3 3.7 3.7 0 011.2 1.8 7 7 0 01.4 2.2 7.2 7.2 0 01-1.1 3.9c-.7 1.2-2.1 1.7-4.2 1.7H1.8c0 1.5.3 2.4 2.2 2.4h9c2.5 0 3.8.2 3.8-2.2V33c0-2.5-1.3-2.1-3.8-2.1H5.6c-2.4 0-3.8-.3-3.8 2.1zM13 38.2a2.2 2.2 0 00-.9-1.9 4.5 4.5 0 00-2.6-.6 4 4 0 00-2.5.6 2 2 0 00-.9 1.8 2.2 2.2 0 00.9 1.9 4.2 4.2 0 002.5.7 4.4 4.4 0 002.6-.7 2.1 2.1 0 001-1.8zM8 26.8v-4.4a2.8 2.8 0 00-1.7.6 2.1 2.1 0 00-.6 1.6 2.1 2.1 0 00.6 1.6 2.5 2.5 0 001.7.6zm3.4-5.2v-2.2a4.7 4.7 0 012.8 1.9 5.5 5.5 0 011 3.3 4.8 4.8 0 01-1.6 3.9A6.5 6.5 0 019 29.9a6.5 6.5 0 01-4.3-1.4 4.8 4.8 0 01-1.6-3.8 5.2 5.2 0 011.5-4 6.6 6.6 0 014.5-1.4h.5a.8.8 0 01.3 0v7.5a3 3 0 002-.7 2 2 0 00.7-1.6 2.5 2.5 0 00-.3-1.3.6.6 0 00-.2-.2l-.2-.3a1 1 0 01-.3-.3 1.3 1.3 0 01-.3-.8zm3.6-3.8H9.4a7 7 0 01-2.9-.5 4.8 4.8 0 01-1.8-1.4 5.5 5.5 0 01-1-2 9.2 9.2 0 01-.3-2.2v-.4h3.1v1a2.5 2.5 0 00.6 1.8 2.6 2.6 0 001.9.6h6v3zm-3.8-7.6v-3a1.6 1.6 0 001.3-.6 3 3 0 00.4-1.8 2.8 2.8 0 00-.3-1.3 1 1 0 00-.9-.5q-.7 0-1.1 1.8a8 8 0 01-.3 1.2A7 7 0 019 9.1a2.7 2.7 0 01-2.1.9A3.4 3.4 0 014 8.7a5.4 5.4 0 01-1-3.4 6 6 0 011-3.6A3.8 3.8 0 017 .4v1.9a1.4 1.4 0 01-.7 1.2l-.4.4a2.3 2.3 0 00-.4 1.4 2.5 2.5 0 00.3 1.3.9.9 0 00.8.4c.4 0 .8-.8 1.1-2.3a2.1 2.1 0 00.1-.4 1.6 1.6 0 000-.4 8.2 8.2 0 011.4-3 2.8 2.8 0 012-.9 3.5 3.5 0 013 1.4 6.6 6.6 0 011 3.9 5.7 5.7 0 01-1 3.7 3.5 3.5 0 01-2.9 1.2h-.1z"/></svg>
