<svg xmlns="http://www.w3.org/2000/svg" viewBox="0 0 417.48 590.76">
  <title>tries</title>
  <g id="Layer_2" data-name="Layer 2">
    <g id="Layer_1-2" data-name="Layer 1">
      <path d="M46.85,259.54c-1.77,3.61-3.61,2.57-4.54-.31-.63-1.94-.24-4.27-.06-6.4.78-9.09,2.18-18.17,2.38-27.27a373.29,373.29,0,0,0-2.46-53.85c-1.1-9,1-18.63,3.22-27.57,4.14-16.44,9.27-32.64,11.22-49.55C58.31,79.9,68.27,73,80.74,68.31c9.05-3.39,18.17-6.52,28.48-5.47,0-2.83,0-5.1,0-7.38,0-12.82,0-25.66.15-38.48.08-5.75,1.86-7.74,7.52-8.79a22.26,22.26,0,0,1,7.44-.4C138.29,10,152.25,12.32,166.12,15c3.29.64,6.49,2.6,9.31,4.57,2.66,1.86,4.77,4.53,7.45,7.16a63,63,0,0,1,6.87-4.5,46.19,46.19,0,0,1,32.56-3.16c1.87.47,4,1.06,5.76.56,16.62-4.76,32.29-2.47,47.25,5.85.57.31,1.21.5,2.3,1,2-3.84,3.79-7.74,6-11.34a103.11,103.11,0,0,1,9.14-13c2.86-3.31,4.15-2.54,6.73,1.13a58.89,58.89,0,0,0,8.83,10.08c17.83,15.77,28.43,34.85,28.33,59.21,0,7,.58,14,1.21,21a70.34,70.34,0,0,1-3.09,28.11,8,8,0,0,0,1.63,8.27c5.08,6.19,14.09,10.2,20.28,7.8,8.29-3.22,12.69-10.06,14-18.63.66-4.24.32-8.65.3-13-.06-13.66-.26-27.34,3.32-40.7,4.19-15.69,15.13-24.44,30.92-29.62,4,8.68,8,17.3,12.21,26.42-2.12,1-3.48,2-5,2.36-5.54,1.24-9,4.82-11.33,9.69a42.92,42.92,0,0,0-4.59,21.27c.47,8,1.22,16,1.68,23.93.62,10.65-.82,20.87-6,30.42-6.85,12.52-17.69,18.84-31.33,21.53-13.47,2.65-26.61.37-39.66-2.21-14.85-2.93-29.6-6.44-44.28-10.14-5.76-1.45-11.17-4.22-16.83-6.14-1.54-.53-3.72-.73-5,0-.78.45-.65,3-.4,4.53,2.74,16.82,5.16,33.81,2.57,50.71-1.78,11.57-5.93,22.8-9.31,34.1-8.63,28.89-17.08,57.81-18.94,88.14-.41,6.64-.39,13.32-.47,20,0,3.85-1.59,5.52-5.68,5.81a172,172,0,0,1-42.21-2c-4.3-.76-8.89-.05-13.34.24-25.45,1.62-50.91,2.78-76.41.93-1.77-.13-3.53-.5-5.49-.79a36.35,36.35,0,0,1-.4-4.3c.62-21.74-3.78-42.71-9.6-63.47q-9.7-34.58-19.31-69.17c-.73-2.63-1.19-5.33-1.78-8l-1.48,0c-.35,4.51-.62,9-1,13.51-1.05,11.09-2.13,22.17-3.34,33.25-.12,1.15-1.17,2.21-1.78,3.31.71-4.58,1.67-9.14,2.07-13.75.83-9.44,1.19-18.91,2.06-28.34C52,205.31,53,193.09,50.24,180.9a15.8,15.8,0,0,1,.16-4.1,84.88,84.88,0,0,1,3.48,13.34c2.55,12,4.28,24.34,7.9,36.06C69.53,251.3,78.57,276,86.48,301c4.53,14.35,7.9,29.08,12,44.33l49.3,2.13c.09-.48.19-1,.28-1.44a60.68,60.68,0,0,1-6.28-2.23c-6-2.83-12-5.6-17.74-8.9a7.27,7.27,0,0,1-3-5.52c.31-8.47.84-17,1.95-25.38,1.82-13.73-2.81-25.86-9.65-37-8.06-13.08-13.52-27.18-17.58-41.69-8.51-30.45-7-61.35-1.66-92.16.55-3.23,1.38-6.92,6.37-8.87,1.14,2.32,3.81,5.25,3.16,6.8-4.17,9.94-4.5,20.45-5.41,30.87-2.44,28-1.11,55.75,9.42,82.13,4.34,10.87,10.67,21,16.68,31.12,4.39,7.39,7,14.79,6.17,23.56-.86,8.94-.8,18-1.31,26.95-.18,3.13.67,5.11,3.93,5.85s6.4,1.79,9.63,2.55c10.15,2.4,20.32,4.73,31.06,7.21a37.44,37.44,0,0,0,1-5.75c.09-10-.11-20,.08-30,.33-17.63-4.38-34.19-9.86-50.7-4.61-13.87-8.9-27.88-12.58-42-2.74-10.55-4.27-21.41-6.31-32.14,0-.2.33-.47,1.13-1.54,7.77,16.35,13.15,33.54,24.65,47.31,11.35,13.6,23.06,26.91,34.65,40.39-6,3.29-12.07,2.59-15.74-2.37q-12.35-16.62-24.12-33.67c-3.05-4.45-5.25-9.5-7.84-14.27a2.93,2.93,0,0,0-.37,2.54c3.57,9.32,7.38,18.55,10.74,28,4.7,13.12,9.81,26.17,13.41,39.61,4.58,17,3.38,34.73,3.37,52.22,0,4.22-.18,8.23-4.54,10.8l.54,1.18h31.86c.2-.59.62-1.67.94-2.77,6.27-21.9,12.67-43.76,18.75-65.72,3.72-13.47,6.74-27.15,10.46-40.62,5-18.12,7.94-36.35,6-55.25-1.39-13.23-2-26.54-3-39.81a7.48,7.48,0,0,0-1.11-3.19c-3.09-4.91-5-5.38-10.89-2.87-2.62,1.12-5.6,2.78-7.24-1-2.15-4.93-6.24-7.54-10.39-10.37-3.35-2.29-6.28-5.17-9.4-7.79.25-.49.51-1,.76-1.45,3.06,1.47,6.31,2.65,9.12,4.5,3.31,2.19,6.09,5.19,9.42,7.36,1.59,1,4.35,1.88,5.81,1.19,4.83-2.3,8-.18,11,3,1.52,1.63,2.8,3.49,4.37,5.49a16.71,16.71,0,0,0,1.75-2.21c1.64-3.08,3-6.37,4.87-9.27,4.08-6.22,8.68-6.81,14.45-2.39,4.88,3.74,9.59,7.85,14.92,10.84,15.21,8.57,31.12,16,45.93,25.18,8.85,5.5,17.67,4.89,26.31,2.87,22.22-5.19,35.42-26.33,36.94-46.47.67-8.77-.35-17.67.11-26.47.71-13.54,4.51-25.66,17.91-32.33.53-.26.87-.89,1.48-1.53l-8.36-16.36c-13.91,6.12-22.89,15.59-25.12,30.14-2.16,14.14-3.75,28.38-5.14,42.62-1,9.94-5.12,17.78-13.22,23.54A13.73,13.73,0,0,1,350,142.18c-7.88-1.48-13.65-5.71-18.38-11.9-3.41,3.2-6.57,6.18-10,9.36-1-1.34-1.79-2.15-1.67-2.32,2.87-4.11,5.84-8.16,8.92-12.39-1.28-2.23-2.57-4.47-4.52-7.83l-13.45,11c-.8-8.77,6.22-11.6,11.49-16.38l-2.88-6.62-7.38,4c-.5-1.25-1.54-2.74-1.21-3.16a90,90,0,0,1,6.27-6.69c-4.23-4.79-8.67-9.65-12.92-14.68-3.4-4-7.5-7.83-9.63-12.49-4.27-9.33-7.4-19.17-11-28.8,1.33,1.61,3,3,3.94,4.86,3.59,6.93,6.63,14.16,10.5,20.93,1.88,3.29,5.12,5.82,7.78,8.66,2.91,3.12,6.46,5.84,8.68,9.39,3.07,4.88,5.18,10.37,7.65,15.63s4.93,10.64,7.67,16.58c6.7-13.64,7.55-46.34.46-61.68-8-17.3-17.66-33.8-35.66-44-1.11,2.82-1.94,5.14-2.92,7.41-1.31,3-2,6.82-4.26,8.84-3.68,3.28-4.29,6.72-3.41,11.05a8.24,8.24,0,0,1-.3,2.46c-7.74-8.65-16.23-16.09-27.63-19.8a51.27,51.27,0,0,0-25.65-1.62,40.15,40.15,0,0,0,6,3.57c1.91,1,3.86,2,5.67,3.16,1.66,1.08,3.15,2.42,4.71,3.65l-1,1.64a48.16,48.16,0,0,0-29.33-9.49A95,95,0,0,0,185,30.51c4.13,5.63,7.94,10.65,11.54,15.81,1.2,1.71,3.26,3.75.08,6a14.46,14.46,0,0,1-2.46-1.55c-6.35-6.12-12.75-12.2-18.94-18.47-3.85-3.92-8.14-7-13.59-7.87C149.83,22.55,138,21,126.15,19c-3.78-.63-5.28.83-5.62,4.29-.12,1.32-.39,2.64-.48,4-1.63,23.82-2.07,47.62,1.75,71.28,2.56,15.89,7.48,30.64,20.42,41.62,14.14,12,31.42,17,48.45,22.7,2.91,1,4.71-.8,6-3.23,2-3.83,3.95-7.69,6-11.49a17.21,17.21,0,0,0,1.7-13,84.35,84.35,0,0,1-1.36-9l1.11-.35a12.84,12.84,0,0,1,1.82,2.55c5.73,14.47,6.77,29.05.92,43.78-1.08,2.73-3,3.41-5.58,2.53-5-1.73-10.09-3.37-15-5.39-15.39-6.34-30.84-12.62-43.36-24.15-9.37-8.64-18.49-17.7-22.53-30-3.36-10.23-5.22-21-7.52-31.52-1.3-5.93-2.15-12-3.2-18-1.42,0-2.07,0-2.73,0-6.4.23-11.92,2.8-17,6.46-7.4,5.32-15.82,9.68-20.14,18.21a176,176,0,0,0-7.53,18.42c-3.4,9.19-6.19,18.63-10,27.66C47.51,147.84,42.91,159.14,45,172c.94,5.73,1.94,11.57,1.81,17.34-.47,22.1,1.86,44.32-2.27,66.3C44.2,257.5,44,259.47,46.85,259.54Zm284.71-90.91.81-1.85c-.42-.26-.82-.55-1.25-.78q-31-16.58-61.93-33.12a5.73,5.73,0,0,0-2.24-1c-1.54,0-3.76-.28-4.51.59-3.27,3.78-6.11,7.93-9.44,12.37C278.26,159.32,305,163.53,331.56,168.63Z" fill="#fff"/>
      <path d="M151.84,400.2H165v82.23l1.32.32q23-43.38,45.91-86.76l1.05.3V590.11H200V447.87l-1.18-.29c-2.52,4.75-5.09,9.48-7.56,14.26-7.72,14.91-15.56,29.77-23,44.84a28.38,28.38,0,0,0-2.92,11.8c-.28,21.65-.12,43.32-.13,65,0,2.12-.18,4.25-.29,6.76H151.84Z" fill="#fff"/>
      <path d="M77.05,393.62c5.71,2.81,11.66,5.22,17.1,8.48,57,34.22,56.95,117.16-.17,151.54-3.12,1.88-4.39,3.93-4.28,7.56.24,8.15-.06,16.32.11,24.47.07,3.64-1.21,5-4.9,5-9.29.15-9.28.29-9.27-9.05q0-89.64,0-179.3v-7.72ZM90,539c18.85-9.74,35.75-37.59,33-67.39-2.3-24.61-18.56-48.72-33-54.35Z" fill="#fff"/>
      <path d="M283.51,537.37h14.7V549.1H279.34c-2.65,5.32-4.73,10.6-7.74,15.28-4.84,7.54-10.33,14.66-15.45,22a9.46,9.46,0,0,1-9.38,4.3c-3.38-.29-6.81-.06-10.48-.64,10.71-12.41,20.56-25,27.89-40.3-2.12-.18-3.66-.41-5.21-.41-7.66,0-15.33-.3-23,.1-4.74.25-8-1.26-10.36-5.21-1.27-2.08-2.88-4-4.95-6.75h49.16c12.87-51.67,3.34-97.26-33.51-136.33,9-3.4,16.69-1.58,21.78,5,24.51,31.47,34.53,67,29.74,106.67q-.72,6-1.78,11.85C285.4,528.55,284.52,532.41,283.51,537.37Z" fill="#fff"/>
      <path d="M36.45,590.26H22.91v-178H0v-12H59.44v11.71h-23Z" fill="#fff"/>
      <path d="M370,590.5c-5.36,0-10.43.12-15.49-.1-1.13,0-2.39-1.12-3.28-2a134.39,134.39,0,0,1-34.56-122.51,132.83,132.83,0,0,1,33.43-63.14c1.49-1.58,4.21-2.47,6.48-2.74,3.6-.44,7.31-.1,11,0a4.17,4.17,0,0,1,1.36.52C312.41,463.94,312.17,527.09,370,590.5Z" fill="#fff"/>
      <path d="M246.25,75.38C250,74.74,252.11,69,257,72.3c3,2,3.38,6.24,1.53,9.26-1.88-1.16-3.63-2.66-5.66-3.37s-4.31-.62-6.48-.88Z" fill="#fff"/>
    </g>
  </g>
</svg>
