<svg xmlns="http://www.w3.org/2000/svg" viewBox="0 0 145.7 432">
  <path fill="#fff" d="M50 185.5c0-2.4 2-3.3 4.7-2.1s4.6 4.2 4.6 6.6-2 3.3-4.6 2.1-4.7-4.1-4.7-6.6zm40.6 95.6Q67 259 67 251.5a3.9 3.9 0 011.5-3 6.4 6.4 0 014.3-1.2q7.9.3 18.6 8.2l.5-.3c-16.5-14.7-24.6-24.4-24.6-30.3 0-5 3.1-6.2 6.2-5.8a10.2 10.2 0 015.9 3.2 42.5 42.5 0 00-12.2-20.5v-8.6l37 29.5c2.7 2.1 9 4 9-.7 0-2-1.2-4.7-3.8-8.3-5.3-7.5-23.3-22.2-34-34.4-4.7-5.4-8.4-10.5-8.4-14a3.9 3.9 0 011.6-3.1 6.4 6.4 0 014.2-1.2q8 .3 18.6 8.2l.5-.3q-24.6-22-24.6-30c0-4.2 2.3-6 6.8-6a22.2 22.2 0 019.6 2.8c3.3 1.8 7.4 5 12.4 9.4s8.2 7.4 9.7 8.5a8 8 0 004 1.7 3 3 0 002.3-.8 2.4 2.4 0 001-1.9c0-1.8-1.3-4.8-3.9-8.8s-6.6-8.4-12-13.5l-5.4-5A45.8 45.8 0 0179 113.7Q67.2 99 67.2 89.1c0-3.4 2-5 5.8-5l3.4.2-9.2-6.9v-8L102 96q5 3.9 8 4a3.8 3.8 0 003-1 3 3 0 001-2.1c0-1.5-1.4-3.9-4.1-7.1s-9.2-9.7-19.3-19l.9-.6q16 15 19.9 19.9c2.5 3.2 3.8 5.6 3.8 7.3a3.6 3.6 0 01-2 3.2 9.2 9.2 0 01-5 1c-3.4 0-7.5-1.4-12.5-4l-.4.3q19.9 19 19.9 25.5c0 1.9-1 3.3-3 4.3a17 17 0 01-8 1.3 25.8 25.8 0 01-9.4-2.1q19.4 17.7 19.4 26a4 4 0 01-2 3.4 8.8 8.8 0 01-5.3 1.3 17.8 17.8 0 01-6.1-1.3 26.2 26.2 0 01-5.3-2.7 95.9 95.9 0 01-8.1-7l-4.7-4.3c-5.3-4.9-9-7.3-11-7.4s-3.3 1-3.3 3.5q0 6.6 12.5 19t32.6 28.7v9l-32.9-26c-5.1-4-8.5-6.1-10.1-6.2s-2.3.8-2.3 2.5c0 3.5 3.1 8.1 8 13.6 13.3 14.8 38.3 33.6 38.3 43a3.9 3.9 0 01-2 3.7c-5.2 3-10.8.4-14.6-1.4a274.6 274.6 0 01-27.3-20.6v.3a40.4 40.4 0 0110.3 21.5 5.1 5.1 0 010 1.1c0 2.1-1.5 3.6-4.5 1.6-2.4-1.5-5.1-4.8-4.7-7.5-2.2 0-3.5 1.8-3.5 4.2.2 4.3 4.4 10.6 12.7 18.8s19.2 17.8 32.6 28.8v8.9l-32.8-26c-5.2-4-8.6-6.1-10.2-6.2s-2.3.8-2.3 2.4q0 7 22.8 28.7c10.8 10 17.7 17 20.3 20.3s3.9 5.7 3.9 7.3a3.6 3.6 0 01-2.1 3.3 9.2 9.2 0 01-5 1c-3.3 0-7.5-1.4-12.5-4l-.3.3q19.8 18.9 19.8 25.5c0 1.8-1 3.3-3 4.3a17 17 0 01-8 1.3Q90.8 339 79 324.2t-11.7-24.7c0-3.4 2-5 5.8-4.9l3.3.2-9-7V280l34.7 26.3q5 4 8 4a3.8 3.8 0 003-1 3 3 0 001-2c0-1.5-1.4-3.8-4.1-7.1s-9.4-10-19.3-19.2zm-18 14.6q-4.2-.2-4.2 4 0 7.4 17.1 22.5t24.2 15.2a4.7 4.7 0 002.9-.9 3.1 3.1 0 001.4-2.7c0-1.8-1.5-4.7-4.4-8.8s-7.7-9.1-14.3-15.2S84 300 81.1 298.3a18.6 18.6 0 00-8.4-2.6zm0-210.5q-4.2-.1-4.2 4 0 7.5 17.1 22.5t24.2 15.3a4.7 4.7 0 002.9-.9 3.1 3.1 0 001.4-2.7c0-1.8-1.5-4.7-4.4-8.8s-7.7-9.1-14.3-15.2-11.3-10-14.2-11.6a18.7 18.7 0 00-8.4-2.6z"/>
  <path fill="#fff" d="M38.5 284c9.3 0 10.7 22 12.1 39.2 4.5 52.5-.8 79.6-40.3 79v-.7c29.8-2 38.2-54.5 38.5-76.4.3-18.8-2-40.2-10.1-40.2-3.4 0-4.7 4-4.7 8.2 0 20 27.3 35.6 47.5 51.3s49 35.9 49 69.3c0 12.2-2.3 18.3-6.3 18.3-6.2 0-9-13.4-9-24.3 0-43.3 26.5-86.3 26.5-121.5 0-11.6-6.9-25.8-17.8-25.8l.5-.7c15.7 0 21.4 27.1 21.4 44.2 0 39.2-29.6 56.4-29.6 103.8 0 13.8 3.4 23.3 8 23.3s5.3-10.5 5.3-17.2c.2-34-33.2-48.6-49.3-60.4-11.8-8.7-47.2-36.1-47.2-60.1 0-5.6 2.1-9.4 5.5-9.4zM11.8 45.5c3.6 0 8.1-2.3 8.2-6.4-2.2 2.5-4.2 2.9-7.7 2.9C6.5 42 .6 37.3.6 31.5.6 25 6 18.9 13 18.9c3.2 0 6.2.9 9.8 3.4a23.7 23.7 0 01-2-9A11.9 11.9 0 0133 .8c5.7 0 9.7 7.3 9.7 13.6 0 8.6-6 18.3-6 24.3 0 2 .6 3.5 1.9 3.5s1.6-1 1.6-2.5c0-4.4-4-7.3-6.7-9.3s-6.8-5.1-6.8-7c0-.8.3-1.4.8-1.4.7 0 1 1 1 2.5 0 5.7-9.4 18.5-9.4 27a13 13 0 0013.6 12.9c8 0 13.7-5.6 13.7-12.9a16.8 16.8 0 00-3-9.3c2.4 2.1 6.2 2.5 8.7 2.5a12.5 12.5 0 0012.9-13c0-7.9-5.8-13.3-12-13.3-3.1 0-6.3 3-5.8 6a10.3 10.3 0 016.7-2.2c4.1 0 10.4 3.7 10.4 9.6a11.8 11.8 0 01-12.1 12 15.8 15.8 0 01-10-3c1 2.7 3.5 6.6 3.5 10.9 0 6.3-5.5 11.9-13 11.9-6 0-10-4.9-10-12.3 0-10.7 6.6-19 6.6-26.4 0-2.4-.6-3.6-1.8-3.6-.8 0-1.3.8-1.3 2 0 3.2 3.5 6.4 6.2 8.7 2.2 2 7.2 4.6 7.2 7.4 0 1.6-.3 2.4-1 2.4s-1.3-1.9-1.3-3.2c0-5.7 9.2-16 9.2-25.8 0-6.8-6.2-13-13.2-13C25 0 20 5.3 20 13.3a23.7 23.7 0 001.6 7.5 14.3 14.3 0 00-8.7-2.6C5.5 18.2 0 24.4 0 32c0 6.7 4.4 13.6 11.8 13.6z"/>
</svg>
