<svg xmlns="http://www.w3.org/2000/svg" viewBox="0 0 93.5 628.6"><path fill="#fff" fill-rule="evenodd" d="M.6 348c.2-1.9-.5-4 .4-5.6l49.7-53H1v-21.1h92.5c-.2 1.8.5 4.1-1 5.5l-51.8 52.7c17.4.1 34.9 0 52.3 0v21.3c-30.8.3-61.6 0-92.4.1zm0-268.5v-5C17.3 56.9 33.9 39 50.8 21.3H1V0c30.9.2 61.7 0 92.5.1-.2 2 .5 4.3-1.3 5.7C75 23.2 58 41 40.6 58.3H93v21.2H.5zM1 509.6v-68.8a52.3 52.3 0 016.1 3l67.6 37.6.1-40.9H93c.2 22.5 0 44.9.1 67.3 0 1.9 0 3.8-.2 5.7l-74-40.9c-.2 12.3 0 24.7 0 37H1zm92-85.2H1V368h17.8v35.1h18V371h17.8v32.2h19.6V367c6.2-.2 12.5 0 18.8-.1v57.5zM1.1 249v-36.3c.2-11.1 4.1-22.3 11.9-30.3a49 49 0 0167.5-1c8.3 8.2 12.5 19.8 12.5 31.2v36.5H1zM19.7 228h54.9c-.4-9 1.5-18.8-3.8-26.7-10.6-15.4-37.3-15.4-47.6.3-5.2 7.8-3.2 17.6-3.5 26.4zM93 155.4H1V99h17.8v35h17.9V102h17.8v32.2h19.7V98H93v57.4zM92.7 536v28.5a15.3 15.3 0 01-4.5 11.1c-2.8 3-7 5-11 7-6.3 3-12.6 6.5-18.5 12.4a62.7 62.7 0 00-10.2 16c-4.2 8.5-9.3 17.5-17.8 17.5H0v-30.3a13.4 13.4 0 014.7-10.5c7.9-6.8 20.6-12.2 25.3-17a59.5 59.5 0 0014.2-18.9c6.5-13.4 12.3-15.9 17.2-15.9z"/><path fill="#fff" fill-rule="evenodd" d="M92.7 628.6V600a16 16 0 00-4.3-11.6c-7.2-7.6-16-16.5-25.8-26.3C55 554.5 48.3 548 43 542.3c-4-4.3-8.2-6.4-11.5-6.4H0v30.4c-.2 4 3.1 7.4 7 11.7 5.2 6 11.7 12.1 18.2 18.6 7.2 7.2 14.4 14.9 21 21.2 6.3 6.1 11.3 10.8 15.2 10.8z"/></svg>
