<svg xmlns="http://www.w3.org/2000/svg" viewBox="0 0 116.9 114.6"><path fill="#fff" d="M29.6 28.5a5.2 5.2 0 01-1 1.1 4.6 4.6 0 01-1.5.9 2.7 2.7 0 01-1.2.3 3.8 3.8 0 01-1.5.1 1.9 1.9 0 01-.7-.2 7.1 7.1 0 011-1.4 5.3 5.3 0 011.4-1.2 13 13 0 011.5-1 7 7 0 011.3-.5 2.9 2.9 0 011.3 0 6.2 6.2 0 011.1.3c-.2.3-.7.3-1 .6a6 6 0 00-.7 1z"/><path fill="#fff" d="M23.3 27.7a22.6 22.6 0 01-.1 2.6 1.7 1.7 0 01-.1.7.9.9 0 01-.1.5l-.5.5h.7l.9-.1 1-.1a4.3 4.3 0 011.1.2 3.5 3.5 0 001 .2h.8l.7-.3a2 2 0 01-.5 1 2.4 2.4 0 01-.9.8 8.8 8.8 0 01-1.5.5l-1.5.3a8.5 8.5 0 01-1.6 0 5 5 0 01-1.2-.2l-.4-.2a.8.8 0 00-.5.1c-.2.1-.2.5-.3.8l-.3 1a7.7 7.7 0 001.5-.2 4.9 4.9 0 001.2-.1h2a1.4 1.4 0 00.6-.2 1.4 1.4 0 00.4-.3 6.4 6.4 0 01-.2.7l-.3.6a7 7 0 01-.6.9 4.1 4.1 0 01-1.1.7l-1.7.7a11 11 0 01-1.7.5h-3l-.3.6a2.5 2.5 0 01-.4.7 1 1 0 01-.5.4 2.2 2.2 0 01-.5.4l-.5-.1a.6.6 0 01-.1-.4c0-.2.2-.3.3-.4l.6-.8.3-.9a2.2 2.2 0 00-.1-.8l-.3-1a7.4 7.4 0 010-2.1 8.4 8.4 0 01.3-1.8 6.5 6.5 0 01.4-1.3l.6-1a2.4 2.4 0 01.8-.6l.7-.5a1.4 1.4 0 00-.2.6 2.7 2.7 0 000 .9l.4 1.4a6.8 6.8 0 01.2 1.4v1.3a2.2 2.2 0 00.3-.5l.7-1.5c.2-.4.2-.8.3-1.3a12 12 0 01.3-2 5 5 0 01.6-1.7 1.6 1.6 0 01.7-.7 6.5 6.5 0 01.9-.8c.2-.2.6-.2.8-.3l-.2.4a2 2 0 00-.1.8z"/><path fill="#fff" d="M17.7 42l1.3-.4 1.3-.2a3.5 3.5 0 00.9-.4l.6-.6a4.1 4.1 0 01-.1 1.1 3.5 3.5 0 01-.5 1.3 9.3 9.3 0 01-1.4 1.4 20.3 20.3 0 01-1.8 1.3l-1.5.8a4.9 4.9 0 01-1.1.4l-1.1.1a1.5 1.5 0 00-.6.5 5.6 5.6 0 00-.4 1.2l-.1 1.1-.3 1.2a9 9 0 011-.9 14.6 14.6 0 011.3-.9l1.9-1a4.1 4.1 0 001.1-.7l.6-.8.1 1.1a5.4 5.4 0 01-.4 1.5 5 5 0 01-1.1 1.7 11.4 11.4 0 01-1.7 1.5l-1.5 1a11 11 0 00-1.1.6l-.4.2a1.9 1.9 0 00-.2.7 4 4 0 010 1.1.5.5 0 01-.3.4c-.1.1-.2.1-.4 0l-.3-.3-.1-.7-.1-1.3v-.6l-.4-.5a8.7 8.7 0 01-.8-1 7.6 7.6 0 01-.9-1.8 9 9 0 01-.6-2 3.8 3.8 0 01-.1-1.5 5.3 5.3 0 01.5-1.5 9.3 9.3 0 00.5-1 1.7 1.7 0 00.1.7 2.5 2.5 0 00.4.7 2.6 2.6 0 00.5.6l.8 1a6.5 6.5 0 00.8.9l.3.3.2-.3.4-.9a2 2 0 00.1-1.1 1.5 1.5 0 00-.3-.7 5 5 0 01-.5-1.3 19 19 0 01-.5-2.3 11.5 11.5 0 01-.1-1.8 5.7 5.7 0 01.3-1.8 2.6 2.6 0 01.7-1.1 4.6 4.6 0 01.7-.7 1.3 1.3 0 00.1.6 4.5 4.5 0 00.3 1.1l.7 1.4.6 1.8.2 1a4.9 4.9 0 01.1 1.2 11 11 0 011.4-.9l1.4-.6z"/><path fill="#fff" d="M9.8 55.3a9 9 0 01.9 1 8.8 8.8 0 01.6 1l.6 1a3 3 0 01.4-.8l.5-1a9.4 9.4 0 011-1 15 15 0 011.3-1.1 10.5 10.5 0 001.1-.8 4.3 4.3 0 00.6-.7 1.9 1.9 0 00.2-.8 5 5 0 01.5 2.4 11.1 11.1 0 01-2.3 4.6 25.7 25.7 0 00-2.4 2.1 1.4 1.4 0 00-.2.6 7.6 7.6 0 00.1 1.5c0 .3.2.6.1 1 0 .2-.1.3-.3.4a.8.8 0 01-.5.1.5.5 0 01-.2-.4l-.2-1.2v-1.1a.4.4 0 00-.1-.3 1.8 1.8 0 00-.4-.5l-1.2-1a10 10 0 01-1.4-1.5 18.6 18.6 0 01-1.1-1.9l-.7-1.6a5 5 0 01-.1-1.7l.5-1.5.5 1a5.2 5.2 0 001.1 1 2.2 2.2 0 001.1 1.2z"/><path fill="#fff" d="M6.8 62.9l.9.7a15.6 15.6 0 001.5.6 5.3 5.3 0 011.5.8 4 4 0 011 .8 10.6 10.6 0 01.9 1.1l-.1-.8a3 3 0 01.2-.9l.6-1.4a14.6 14.6 0 01.9-1.3 5.4 5.4 0 00.9-1.2 3.6 3.6 0 00.4-1.1 2.7 2.7 0 000-.9 3.9 3.9 0 011.1 1.5 9.7 9.7 0 01-.1 3.8 10.6 10.6 0 01-1.4 3.3 12 12 0 00-.9 1.5 1.3 1.3 0 00.1.6l.7 1.4a.8.8 0 01.1.5.8.8 0 01-.2.4.3.3 0 01-.4 0 2 2 0 01-.4-.6 11 11 0 00-.6-1.1l-.2-.3-.6-.2A12.7 12.7 0 019 68.3a10.2 10.2 0 01-2.6-2.9 2.8 2.8 0 01-.4-1.3 8.5 8.5 0 010-1.6 2.6 2.6 0 00.5.6z"/><path fill="#fff" d="M9.5 73.9a4.7 4.7 0 01-.7-1.2 6.5 6.5 0 01-.4-1.3l.8.6a3 3 0 00.9.2l1.7.3a6.2 6.2 0 011.6.4 3.6 3.6 0 011.1.4 4 4 0 011 .8l-.1-.8a7.6 7.6 0 01.1-1.5l.3-1.4.7-1.8.4-1.1a4.8 4.8 0 000-1.2l1.1.8a3 3 0 01.7 1.2 19.4 19.4 0 01.5 2 8 8 0 010 2.2 5.4 5.4 0 01-.3 1.9 7.6 7.6 0 01-.6 1.6l-.4.9a1.3 1.3 0 00.1.6 2.7 2.7 0 00.8.7l.3.4c.1.1.1.3 0 .4l-.3.2-.3.1-.6-.6-.9-1.1a8.8 8.8 0 00-1-.6 5 5 0 00-1.3-.4l-1.3-.3a11.2 11.2 0 01-1.3-.5l-1.5-.8a3.8 3.8 0 01-1.1-1.1z"/><path fill="#fff" d="M23.1 84.1l.4.4.1.4c0 .2-.1.2-.2.3s-.2.2-.3.1l-.7-.5a8.7 8.7 0 00-1.1-.9 3.6 3.6 0 00-1.1-.4l-1.2-.2a5.7 5.7 0 01-1.3-.1l-1.3-.3a6.7 6.7 0 01-1.5-.6 5.6 5.6 0 01-1.5-1 4.4 4.4 0 01-.8-1.1l-.6-1.3.9.4a2.8 2.8 0 00.9.1h1.7a9.2 9.2 0 011.7.1 3.6 3.6 0 011.1.2 6 6 0 011.1.6 1.9 1.9 0 01-.2-.8 11.3 11.3 0 010-3l.3-1.9a5 5 0 00.2-1.2l-.2-1.2 1.2.6a4.3 4.3 0 01.9 1 7.7 7.7 0 01.8 1.9 20.7 20.7 0 01.4 2.2 6 6 0 010 1.9 6.5 6.5 0 01-.3 1.6l-.3 1a1.3 1.3 0 00.1.6c.2.3.6.4.9.6v.5zM92.2 30.8l-1.2-.3-1.5-.9a5.2 5.2 0 01-1-1.1l-.8-1c-.3-.3-.7-.3-1-.6l1.1-.3a5.7 5.7 0 011.3 0 5 5 0 011.3.5 9.7 9.7 0 011.5 1l1.4 1.2a12.1 12.1 0 011 1.4 1.9 1.9 0 01-.7.2 7 7 0 01-1.4-.1z"/><path fill="#fff" d="M102.6 41.5a1.8 1.8 0 01-.5-.4 1.8 1.8 0 01-.5-.4 1.6 1.6 0 01-.4-.7l-.3-.6h-1.3l-1.5-.1a8.4 8.4 0 01-1.7-.5 8.7 8.7 0 01-1.7-.7 4.1 4.1 0 01-1.1-.7 4.7 4.7 0 01-.6-.9l-.3-.6a6.4 6.4 0 01-.2-.7 1.4 1.4 0 00.4.3 1.4 1.4 0 00.6.2h2a4.9 4.9 0 011.2.1 7.7 7.7 0 011.5.2l-.3-1a3.2 3.2 0 00-.3-.9.8.8 0 00-.5-.1.5.5 0 00-.4.2 5 5 0 01-1.2.2 8.5 8.5 0 01-1.6 0 8 8 0 01-1.5-.3 8.8 8.8 0 01-1.5-.5 6.5 6.5 0 01-.9-.8l-.5-1a1.5 1.5 0 00.7.3 1.1 1.1 0 00.8 0l1-.2a3.6 3.6 0 011.1-.2 3 3 0 011 .1 2.8 2.8 0 01.9.1h.7l-.5-.5a.8.8 0 01-.1-.5l-.1-.7a22.6 22.6 0 00-.1-2.6 2.2 2.2 0 00-.1-.8l-.2-.4a6.9 6.9 0 01.8.3 3.5 3.5 0 01.9.8 4.6 4.6 0 01.7.7 7 7 0 01.6 1.7 16.2 16.2 0 01.3 2l.3 1.3a6.9 6.9 0 00.7 1.5l.3.5v-1.3l.2-1.4.5-1.4a2.7 2.7 0 000-.9l-.2-.6a3 3 0 01.7.5 5.5 5.5 0 01.8.6 3.3 3.3 0 01.6 1 5 5 0 01.4 1.3l.3 1.8a14.7 14.7 0 010 2.1 3.8 3.8 0 01-.3 1l-.1.8a1.6 1.6 0 00.3.9 5.5 5.5 0 00.6.8 1.4 1.4 0 01.3.4.6.6 0 01-.1.4.8.8 0 01-.5.1z"/><path fill="#fff" d="M109.1 50.2a7.6 7.6 0 01-.9 1.8 7 7 0 01-.8 1l-.4.5v.6a5.7 5.7 0 01-.1 1.3 1.7 1.7 0 01-.1.7l-.3.3h-.4a1.4 1.4 0 01-.3-.4v-1.1a1.4 1.4 0 00-.2-.7.5.5 0 00-.4-.2 3.9 3.9 0 01-1.1-.6 8.6 8.6 0 01-1.6-1 13 13 0 01-1.7-1.5 8.2 8.2 0 01-1.1-1.7 11.3 11.3 0 01-.4-1.5l.1-1.1a5.5 5.5 0 01.6.8 4.1 4.1 0 001.1.7l1.9 1a10.1 10.1 0 011.3.9 9 9 0 001 .9l-.4-1.2-.1-1.1a4.2 4.2 0 00-.3-1.2 1 1 0 00-.6-.5l-1.1-.1a3.6 3.6 0 01-1.1-.4 5.3 5.3 0 01-1.5-.8 8.3 8.3 0 01-1.8-1.3 9.3 9.3 0 01-1.4-1.4 5 5 0 01-.5-1.3l-.1-1.1a3.4 3.4 0 00.6.6 3.5 3.5 0 00.9.4l1.3.2a5 5 0 011.3.4 6 6 0 011.4.6l1.4.9.1-1.2a4.4 4.4 0 01.2-1l.6-1.8.7-1.4.3-1.1a1.3 1.3 0 01.1-.6l.7.7a3.4 3.4 0 01.7 1.1 5.7 5.7 0 01.3 1.8 10.3 10.3 0 01-.1 1.8 19 19 0 01-.5 2.3l-.5 1.3-.3.7a4.1 4.1 0 00.1 1.1l.4.9c0 .1 0 .3.2.3s.2-.2.3-.3l.8-.9.8-1 .5-.6a4.3 4.3 0 00.4-.7 1.7 1.7 0 00.1-.7 3.1 3.1 0 01.5 1 8.8 8.8 0 01.5 1.5 3.8 3.8 0 01-.1 1.5 11.7 11.7 0 01-.6 2z"/><path fill="#fff" d="M110.9 57a8.6 8.6 0 01-1.1 1.9 10 10 0 01-1.4 1.5l-1.2 1a2.2 2.2 0 00-.4.5.4.4 0 00-.1.3v1.1a5 5 0 01-.2 1.2.8.8 0 01-.2.4c-.1.1-.3 0-.5-.1s-.3-.3-.3-.4l.1-1 .1-1.5a1.4 1.4 0 00-.2-.6 12 12 0 00-2.4-2.1 9.2 9.2 0 01-2.3-4.6 6.9 6.9 0 01.5-2.4l.2.8c.1.3.4.5.6.7a10.5 10.5 0 011.1.8l1.3 1.1 1 1a4.7 4.7 0 01.5 1 5.9 5.9 0 00.4.8 4.7 4.7 0 00.5-1l.6-1a9 9 0 01.9-1l1.3-1.2a10 10 0 001.1-1l.5-1 .5 1.5a4.7 4.7 0 01-.1 1.7 4.8 4.8 0 00-.8 1.6z"/><path fill="#fff" d="M112 64.1a3.5 3.5 0 01-.5 1.3 10.2 10.2 0 01-2.6 2.9 9.1 9.1 0 01-3.7 1.8l-.6.2a.4.4 0 00-.1.3 11 11 0 01-.6 1.1c-.1.2-.2.5-.4.6a.3.3 0 01-.4 0 .5.5 0 01-.2-.4 1 1 0 01.1-.5 9.1 9.1 0 00.7-1.4 1.3 1.3 0 00.1-.6c-.1-.5-.7-1.1-.9-1.5a13.7 13.7 0 01-1.4-3.3 9.7 9.7 0 01-.1-3.8 3.5 3.5 0 011.1-1.5v.9a3.6 3.6 0 00.4 1.1 9.4 9.4 0 00.9 1.2 6 6 0 01.9 1.3 3.5 3.5 0 01.6 1.4 3 3 0 01.2.9l-.1.8a4.8 4.8 0 01.9-1.1 7 7 0 011-.8l1.5-.8 1.5-.6a5.5 5.5 0 00.9-.7l.5-.6a8.5 8.5 0 010 1.6z"/><path fill="#fff" d="M104.7 72.9l1.6-.4a57 57 0 001.7-.3 3 3 0 00.9-.2 2.4 2.4 0 00.8-.6 5 5 0 01-.4 1.3 7.5 7.5 0 01-.7 1.2 8.6 8.6 0 01-1.4 1.3 11 11 0 01-1.5.8 6.1 6.1 0 01-1.2.5l-1.3.3a9.3 9.3 0 00-1.3.4 2.7 2.7 0 00-1 .6 4.8 4.8 0 00-.9 1.1c-.2.2-.3.5-.6.6a.4.4 0 01-.3-.1l-.3-.2v-.4a1.4 1.4 0 01.3-.4 5 5 0 00.8-.7 1.3 1.3 0 00.1-.6l-.4-.9-.6-1.6a79 79 0 00-.3-1.9 16.1 16.1 0 010-2.2 6.5 6.5 0 01.5-2 3.8 3.8 0 01.7-1.2 10.5 10.5 0 011.1-.8l-.1 1.2c0 .4.3.7.4 1.1l.7 1.8.3 1.4a7.6 7.6 0 01.1 1.5l-.1.8a4 4 0 011-.8 2.9 2.9 0 011.4-.6z"/><path fill="#fff" d="M104.8 81.3a13 13 0 01-1.5 1 9.4 9.4 0 01-1.5.6l-1.3.3a5.7 5.7 0 01-1.3.1 5.8 5.8 0 00-1.3.2 3 3 0 00-1 .4 8.7 8.7 0 00-1.1.9 1.8 1.8 0 01-.7.5l-.3-.1-.2-.3a.6.6 0 01.1-.4l.4-.4a4.7 4.7 0 00.9-.6.6.6 0 00.1-.6 3.8 3.8 0 00-.3-1l-.3-1.6v-1.9a14.3 14.3 0 01.4-2.2 5.5 5.5 0 01.8-1.9 2.2 2.2 0 01.9-1 4.5 4.5 0 011.2-.6 3.7 3.7 0 000 2.4 14.8 14.8 0 01.3 1.9 7.6 7.6 0 01.1 1.5l-.1 1.5-.2.8a6 6 0 011.1-.6 5.2 5.2 0 011.1-.2 10.3 10.3 0 011.7-.1h1.7a2.8 2.8 0 00.9-.1l.9-.4-.6 1.3a3.1 3.1 0 01-.9 1.1zM45.1 49.1l.3-.3h.2l.1-.2a.6.6 0 01.4-.1.1.1 0 01.1-.1l.2-.1c.2 0 .1-.3.4-.2l.2.2.7.7.4.4c.1.1.4.1.4.3l1 .2a.1.1 0 00.1.1c.2 0 .4.3.8.2 0 .2.1.2.2.3l.1.2a.1.1 0 01.1.1c.2.2.4.2.8.3.2 0 0-.2 0-.2s.6.5.9.1.8-.7 1.4-.4a3 3 0 01.8.4c1 .1 2.1.5 2.7.2a1.6 1.6 0 01.8-.2c.1.2.5.1.5.4s.3 0 .4.1l.1.3c.3-.1.4 0 .7.1.6-.2.1.6.5.4.3.1.1-.4.5-.2 0 .2.5 0 .7.1l.5.6v.2c.2.1.6 0 .7.3.3.2.3-.2.4-.2s.2-.4.3-.2l.3.3.1.1.2.2c.3 0 .5-.5.8-.1h1a1.4 1.4 0 00.6-.2h.5l.3-.2.8-.1.1-.1c.1 0 .1-.4.4-.3.1.3.4-.1.7-.1l.2.1.2-.1a2 2 0 00.5.1l1.1.1.2-.1a.9.9 0 00.5-.1 1.4 1.4 0 01.4-.3 3.8 3.8 0 011-.3c.1.2.3.1.4 0a2.1 2.1 0 01.8 0l1-.1c.3 0 .3.2.5.2 0 .2 0 .5.3.4l.2-.2.2-.1A17.1 17.1 0 0045 49.1z"/><path fill="none" stroke="#fff" stroke-miterlimit="10" d="M24.8 51.8l.8.4c.1.1.2.6.5.4a.1.1 0 01.1-.1l.4-.1h.4a.1.1 0 01.1-.1l.5-.2.4-.1.2-.2.3.1c.1 0 .2-.2.3-.1a2.4 2.4 0 01.9-.3 9 9 0 002.4-.2c.2.2.4.1.6.2a.1.1 0 00.1.1 1.7 1.7 0 001 0 .1.1 0 01.1-.1l.4-.2a.6.6 0 01.4-.1l.3-.2h.5c.2 0 .4-.2.5-.1s-.1.4.3.4.3-.3.5-.3c.1-.3.3.2.7 0 .4.1.2-.4.4-.4.1-.2.5 0 .5-.3l.3.1.2.2a1.8 1.8 0 001-.1l.3-.3a1.5 1.5 0 01.4-.2l.1-.1.3-.1a3 3 0 01.8-.4 3.5 3.5 0 002.3-.3h1l.3-.3h.2l.1-.2a.6.6 0 01.4-.1.1.1 0 01.1-.1l.2-.1c.2 0 .1-.3.4-.2l.2.2.7.7.4.4c.1.1.4.1.4.3l1 .2a.1.1 0 00.1.1c.2 0 .4.3.8.2 0 .2.1.2.2.3l.1.2a.1.1 0 01.1.1c.2.2.4.2.8.3.2 0 0-.2 0-.2s.6.5.9.1.8-.7 1.4-.4a3 3 0 01.8.4c1 .1 2.1.5 2.7.2a1.6 1.6 0 01.8-.2c.1.2.5.1.5.4s.3 0 .4.1l.1.3c.3-.1.4 0 .7.1.6-.2.1.6.5.4.3.1.1-.4.5-.2 0 .2.5 0 .7.1l.5.6v.2c.2.1.6 0 .7.3.3.2.3-.2.4-.2s.2-.4.3-.2l.3.3.1.1.2.2c.3 0 .5-.5.8-.1h1a1.4 1.4 0 00.6-.2h.5l.3-.2.8-.1.1-.1c.1 0 .1-.4.4-.3.1.3.4-.1.7-.1l.2.1.2-.1a2 2 0 00.5.1l1.1.1.2-.1a.9.9 0 00.5-.1 1.4 1.4 0 01.4-.3 3.8 3.8 0 011-.3c.1.2.3.1.4 0a2.1 2.1 0 01.8 0l1-.1c.3 0 .3.2.5.2 0 .2 0 .5.3.4l.2-.2.2-.1c0-.1.4.3.4 0l1.1-.2.2.3h-1.1l.2.2a.6.6 0 01.4.1c.3.3.1.9.5 1.2l.5.2.4.5.5.5a.8.8 0 00.4.4l.2.2a.4.4 0 00.1.3 2.6 2.6 0 00.5.6c.1.2.1.5.3.7l.2.3v.4l.2.3c.1.1.1.5.3.6s.1-.1.2 0l.1.2h.2c.1.1.1.2.3.2h.5a3.4 3.4 0 011 .1.1.1 0 00.1.1 1 1 0 00.3.1l.4.2.5.2.2.2c.1 0 .1-.2.2-.1l.3.4c.1.1.1.2.4.1.1.3.4.3 1 .4.2 0 .5.2.8.1l.2.2.2.2.2.2h.3l.2.2h.2v-.3a.4.4 0 01.3.1l.1.2a6.4 6.4 0 00.7.2l.8.4a2.5 2.5 0 001 .1l-.2.2.2.2"/><path fill="#fff" d="M38 23.1l-1.2-11.9 1.5-.8 9.1 7.9-1.5.8-2.7-2.4-4.3 2.1.5 3.6-1.4.7zm.8-5.5l3.4-1.7-2.4-2.2a13.2 13.2 0 01-1.7-1.7 17 17 0 01.4 2.2z"/><path fill="#fff" d="M42.5 8.7l6.8-1.9 3.1 10.7-1.5.4-2.7-9.5-3.8 1 1.5 5.5.6 2.5a3.3 3.3 0 01-.3 1.5 2 2 0 01-1.2.8 4.1 4.1 0 01-1.2.1l-.1-1.4a.8.8 0 00.7 0 .9.9 0 00.6-.6 3.1 3.1 0 00-.3-1.7l-2.2-7.4zM52.1 6.4l1.5-.1.4 4.7 2.6-.2a6.8 6.8 0 012.7.2 2.9 2.9 0 011.3 1.1 3 3 0 01.5 1.5 3.2 3.2 0 01-.7 2.3 4.3 4.3 0 01-3.2 1.3l-4.3.4-1-11.1zm2.3 9.8l2.7-.2a3 3 0 002.1-.8 2.4 2.4 0 00.4-1.5 1.4 1.4 0 00-.5-1.1 1.4 1.4 0 00-1-.5 12.9 12.9 0 00-2 0l-1.9.2.2 3.9z"/><path fill="#fff" d="M61.4 6l8.8.8-1.1 11.3-1.5-.2 1-9.9-5.8-.6-1 9.9-1.6-.2L61.4 6z"/><path fill="#fff" d="M75.2 13.5l-.4 1.3-4-1.2a4.5 4.5 0 00.2 3.1 2.8 2.8 0 002 1.7 3.3 3.3 0 004.1-1.8l1.3.8c-1.4 2.2-3.2 3-5.5 2.2a4.6 4.6 0 01-3.3-2.7 6.6 6.6 0 010-4.4A6.8 6.8 0 0171 10a5 5 0 015.3-1.5 5.3 5.3 0 012.6 1.6 4.2 4.2 0 01.9 2.7h-1.5A3 3 0 0076 9.7a3.5 3.5 0 00-2.7.2 5 5 0 00-1.9 2.4l4 1.2z"/><path fill="#fff" d="M74.3 20.1L79.2 10l1.4.6-2.1 4.2 5.3 2.5 1.9-4.1 1.4.6-4.9 10.1-1.3-.6 2.3-4.8L78 16l-2.4 4.8-1.3-.7zM38.8 93.1l7.2 3.5-4.4 9-1.2-.6 3.9-7.9-4.8-2.3-3.8 8-1.2-.6 4.3-9.1z"/><path fill="#fff" d="M42.5 105.7l3-9.6 7 2-.4 1.2-5.7-1.7-.9 3 5.4 1.6-.4 1.1-5.4-1.6-.9 3.3 5.9 1.8-.3 1.1-7.3-2.2z"/><path fill="#fff" d="M50.9 97.6l1.4.2-.7 4.4a2 2 0 001.4-.2 5.4 5.4 0 001.2-1.5 12.6 12.6 0 01.9-1.3 2 2 0 01.9-.6 2.5 2.5 0 011.2-.1 4.5 4.5 0 00.8.1l-.2 1.2h-.3l-.3-.1a1 1 0 00-1 .2 4.5 4.5 0 00-.9 1.2 9.5 9.5 0 01-1.1 1.5 3.5 3.5 0 01-.9.4 3.7 3.7 0 011.6 2l1.5 3.7-1.6-.3-1.3-3-.9-1.7a2.3 2.3 0 00-1.2-.6l-.7 4.6-1.3-.4 1.5-10z"/><path fill="#fff" d="M55.4 108.4l4.1-10.1H61l4 10.2h-1.5l-1.2-3.1-4.3-.1-1.2 3-1.4.1zm3-4.1l3.5.1-1-2.8-.7-2.1-.6 1.9-1.2 2.9z"/><path fill="#fff" d="M63.9 108.3l-1.4-10 3.8-.5a9.9 9.9 0 011.5-.1 2.5 2.5 0 011.3.3 2.8 2.8 0 011 .9 3.4 3.4 0 01.5 1.4 3.2 3.2 0 01-.5 2.2 3.9 3.9 0 01-2.8 1.3l-2.6.4.6 4.1zm.6-5.4l2.6-.4a2.5 2.5 0 001.7-.7 2.4 2.4 0 00.4-1.5 2.2 2.2 0 00-.5-1.1 2 2 0 00-.9-.5 7.8 7.8 0 00-1.3.1l-2.5.4.5 3.7z"/><path fill="#fff" d="M71.2 107.1l-2.8-9.7 1.2-.4 1.2 4 5-1.5-1.1-4 1.2-.4 2.8 9.7-1.2.4-1.4-4.5-4.9 1.4 1.2 4.6-1.2.4z"/><path fill="#fff" d="M86.3 101l-4.4-9.1-4.1 1.9a5 5 0 00-1.7 1.2 1.8 1.8 0 00-.6 1.4 1.9 1.9 0 00.3 1.5 2.6 2.6 0 001.5 1.4 3.7 3.7 0 002.3-.1 2.5 2.5 0 00-.5.8 9.4 9.4 0 00-.4 1.6l-.4 3.2 1.5-.8.3-2.5a11.6 11.6 0 01.3-1.6 4.7 4.7 0 01.3-.9 2.2 2.2 0 01.4-.5 3.2 3.2 0 01.7-.4l1.4-.7 1.9 4.1 1.2-.5zm-3.7-4.5L80 97.8a6 6 0 01-1.4.5 1.6 1.6 0 01-1-.2 2.3 2.3 0 01-.7-.7 2 2 0 01-.1-1.3 3 3 0 011.3-1.2l2.9-1.4 1.6 3z"/><path fill="#fff" d="M106.9 85.4c-1.8 4.3 0 .5-5 7.9 1.2-.5-.4 1.9 0 .7-3.9 10.2-53.8 29.1-73.4 8.8C.3 86-12.5 30.4 36.4 7.5c2.4-1.2 0-.2 6.4-2.4 2.5-2.3 17.1-2.4 19.7-2.8 11.5 1.4 2.7-1 21.4 5.4-.4-.6-.4-.5 2.3 1.2.8 2.6-1-3.5 14.6 11.3a26.2 26.2 0 016.5 8.8c.7-.4 0-.2 2.5 2.9-.8 1.4 7.4 16.4 5.2 17.7 1.1 4.9 1-1.7-.1-5.7.1.2.3-.2.4.4-3.1-9-3.5-11.1-10.5-21.6-3.8-3.9-5.3-6.8-12.4-11.4-2.9-1.4 2 .6-11.2-6.5A47.6 47.6 0 0062.8.2c2.2 0-2.7-.3-1.1.2a27.5 27.5 0 00-4.1-.2c-3.2.6-1.3.2-6.5-.2-2.1.8-2.9 1.4-3.8.8 1.5-.7-16.8 6.3-11 3.9-.5.3-2.5 1.8.4 0-2 2.2-1-1-8.4 4 1.5.1-8.4 3.8-10.2 8.6-1 1.2-.3-1.2-7.4 7.9-.5.6-34.5 48.7 21.3 83.2 9.5 4.2 28 9.2 40.5 3.9 13.9-5.2 16-2 33.6-23.1-1 4.6 17.3-35.3 8.3-30.8 1.6 4.9-5 22-7.5 27z"/><path fill="#fff" d="M88.2 74.6c-.7 2.6.2.2-2.8 4.9 1.9-2.8-13.3 18.4-38 9.6-1.3-1-7-.6-17.4-13.5-21.8-37 33.4-74.1 59.1-35.2.6-.5 0-.2 1.7 1.6 1 5.1 4.8 17 3.6 7.4-2.3-3.8-1-11.4-14.3-20.4-1 .4-6-6.3-18.5-6.7-.8-.8-5.3 1.3-4.8-.4 0 .2-2.1.3-1.8-.2-2.5 1.6-2-.6-6.1 1.9-4.3 2 0-1.6-8.5 3.5a45.4 45.4 0 00-10.8 10.7c-11.8 10-10.2 63.4 38.5 54.2 5.4-2.3 10.3-2.8 9.9-4.3 0 3 25.3-25.8 15.1-29.5.8 2.7-2.3 13.4-4.9 16.4z"/><path fill="#fff" d="M59 71.3c-.2 0-.2.1-.3.2a21 21 0 00-6.5 5.7 19 19 0 0013.7.4c-1.9-1.8-4-5.7-6.9-6.3zm7.8-8.7c-1.9-.8-3.7.3-4.7 1.3-1.5 1.3-2.6 2.8-2.1 5.3 4.1 1.2 5.8 4.6 8.7 6.9 3.4-3.2 2.3-11.8-1.9-13.5zm-9.6 3.8c-1.3-2-2.5-4.5-5.6-4.1-2.6.3-4.2 3.1-4.4 5.5a9.8 9.8 0 002 6.4c.2.3 1 1.3 1.2 1.3a7 7 0 001.5-1.5c1.5-1.6 2.9-3.2 5.2-3.8-.3-1 .1-2.7.1-3.8zM60.5 85H59c-9.1-1-14.2-5.9-15.4-14.7v-2.1c.3-3.2 1.6-6.3 4.1-7.7a8.7 8.7 0 018.8.2 10.4 10.4 0 012.1 2.1c2.1-3.4 8.9-4.4 12-1.6 2.3 2 3.6 5.9 3.6 9.9 0 8.9-5.1 13.3-13.7 13.9z"/></svg>
