<svg xmlns="http://www.w3.org/2000/svg" viewBox="0 0 238 514"><path fill="#fff" d="M0 260v-4h161v4zm98 74v31l-40-16zm29-28l-94 36v2l94 36v-4l-25-10v-34l25-9v-17zm0-97v-5l-40-27 40-26v-19l-53 35-39-27v5l36 25-36 23v18l48-32zM204 358l33-24v-2h-36v2h25l-25 19v6h36v-1zm-3-38v-6h36v6zm3-222l33-24v-2h-36v2h25l-25 19v6h36v-1zm14 371h-15v-3c0-5 3-7 7-7s8 2 8 7v3zm19-12v-7l-18 11c-1-5-4-9-9-9-6 0-9 6-9 12v11h36v-6h-18v-2l18-10zM235 0v16h-16V5h-2v11h-14V0h-2v22h36V0zm0 255v16h-16v-11h-2v11h-14v-16h-2v22h36v-22zm-34-87v6h36v-6h-18v-15h18v-6h-36v6h17v15zm0 272h36v-2h-33l32-12v-2l-32-11h33v-6h-36v6l26 10-26 10zm18-228c10 0 19-7 19-16a13 13 0 00-6-11l-1 1c2 2 5 5 5 10 0 7-9 9-17 9s-17-2-17-9c0-5 3-8 5-10l-1-1a13 13 0 00-6 11c0 9 9 16 19 16m0-157c-8 0-17-3-17-10 0-4 3-8 5-10l-1-1a13 13 0 00-6 11c0 10 9 16 19 16s19-6 19-16c0-8-9-12-9-12h-6v11h1v-5h7c2 0 5 2 5 6 0 8-9 10-17 10m-9 447l16-6v12zm27-10v-7l-37 14v1l37 14v-1l-10-4v-13zm-27-107l16-6v12zm27-10v-7l-37 14v1l37 14v-1l-10-4v-13l10-4zm-27-250l16-6v13zm27-10v-6l-37 14 37 14v-1l-10-4v-13l10-4zm0 132v-2l-16-10 16-11v-7l-21 14-15-11v2l14 10-14 9v7l19-12z"/></svg>
