<svg xmlns="http://www.w3.org/2000/svg" viewBox="0 0 101.24 8.49"><title>atlantic</title><path d="M21.84,0a.47.47,0,1,1,0,.94H19.15a.59.59,0,0,0-.59.59V8h0a.47.47,0,0,1-.94,0V1.55A.59.59,0,0,0,17,1H14.3a.47.47,0,1,1,0-.94h7.54ZM74.19,0H66.66a.47.47,0,1,0,0,.94h2.73a.58.58,0,0,1,.58.59V8a.47.47,0,0,0,.94,0h0V1.55A.59.59,0,0,1,71.49,1h2.7a.47.47,0,0,0,.47-.47A.48.48,0,0,0,74.19,0Zm7.16.47h0a.47.47,0,1,0-.94,0h0V8a.47.47,0,1,0,.94,0ZM32,7.87a0,0,0,0,0,0,0,.08.08,0,0,0,0,0l0,0s0,0,0,0l0,0,0,0,0,0,0,0,0,0,0,0,0,0h0l-.06,0h0a3.06,3.06,0,0,1-2.46-3h0V.5h0a.47.47,0,1,0-.94,0h0v4h0a4,4,0,0,0,3.2,3.91h.11A.47.47,0,0,0,32,8a.34.34,0,0,1,0-.09Zm62.39-.33h-2.9a3.3,3.3,0,1,1,0-6.59h2.9a.47.47,0,0,0,0-.94h-2.9a4.23,4.23,0,1,0,0,8.46h2.89A.47.47,0,0,0,94.82,8a.45.45,0,0,0-.46-.46ZM8,0a.47.47,0,0,1,.47.47V8a.47.47,0,0,1-.94,0V7.48h0a.22.22,0,0,0-.23-.22.2.2,0,0,0-.15.06,4.22,4.22,0,1,1,0-6.14h0a.24.24,0,0,0,.16.07A.23.23,0,0,0,7.52,1h0V.48A.48.48,0,0,1,8,0ZM4.23,7.54a3.3,3.3,0,1,0-3.3-3.3,3.3,3.3,0,0,0,3.3,3.3ZM44.72,0a.47.47,0,0,1,.47.47V8a.47.47,0,1,1-.94,0V7.48h0A.22.22,0,0,0,44,7.25a.2.2,0,0,0-.15.06,4.22,4.22,0,1,1,0-6.14h0A.23.23,0,0,0,44.25,1h0V.48A.48.48,0,0,1,44.72,0ZM41,7.54a3.3,3.3,0,1,0-3.3-3.3A3.29,3.29,0,0,0,41,7.54Zm19,.92h0l0,0,0,0,.06-.05h0s0,0,0,0l0-.05s0,0,0,0l0,0a.14.14,0,0,1,0-.06v0a.31.31,0,0,0,0-.1V.48h0a.47.47,0,1,0-.94,0h0v6.4L52.64.15h0a0,0,0,0,1,0,0l0,0,0,0,0,0-.06,0h-.25l0,0,0,0,0,0L52,.13a0,0,0,0,0,0,0h0l0,.06a.05.05,0,0,0,0,0l0,0,0,.05s0,0,0,0,0,.06,0,.08h0V8a.47.47,0,0,0,.94,0V1.6l6.69,6.73.07.06,0,0,0,0h.26s0,0,0,0ZM99.32.28a1.64,1.64,0,1,1-1.64,1.64A1.64,1.64,0,0,1,99.32.28Zm0,3.55A1.91,1.91,0,0,0,101.24,2a1.92,1.92,0,0,0-3.83,0,1.91,1.91,0,0,0,1.92,1.9ZM99.74,2A.7.7,0,0,0,100,1.9a.6.6,0,0,0,.17-.44A.57.57,0,0,0,99.94,1a.87.87,0,0,0-.52-.14h-.83v2h.3V2.05h.51l.36.79h.4Zm.08-.52a.25.25,0,0,1-.14.25,1.09,1.09,0,0,1-.43.06h-.36V1.17h.36a1.51,1.51,0,0,1,.42,0,.32.32,0,0,1,.15.28Z" fill="#fff" fill-rule="evenodd"/></svg>