<svg xmlns="http://www.w3.org/2000/svg" viewBox="0 0 32 150.7"><path fill="#fff" fill-rule="evenodd" d="M0 150.7v-26.8a7 7 0 013.8-6.3c2-1.2 4.5-.8 6.8-.8 2 0 4 1 5.4 2.4a7.7 7.7 0 015.7-2.4c1.9 0 3.9-.3 5.6.4a7 7 0 014.7 6.3v27.1H0zm3.4-3.3h11l-.1-23.5c0-2-1.7-4-3.8-4L7 120c-1.9.1-3.6 2-3.4 3.9v23.5zm14.3 0h10.9V124c0-2.1-2-4-4-4-2 .1-4.2-.4-5.7 1.2-1 .9-1.3 2.3-1.2 3.6v22.7zM0 109.5V85c0-3 2.2-5.7 5-6.7 1.5-.6 3.1-.4 4.7-.4H32V81h-1.3a6.8 6.8 0 011.3 4v20.7c0 3.7-3.4 6.7-7 7-2.6 0-5.4.3-7.8-1.1a7 7 0 01-3.6-6.2V85c0-1.4.6-2.7 1.3-3.9l-7.4.1c-2 0-3.9 1.8-3.8 3.9l-.1 24.5H0zm17-3.3a4 4 0 002.7 3c1.4.4 3 .2 4.5.2 2.1.2 4.3-1.7 4.2-4V85c0-2-2-3.6-3.9-3.7a54 54 0 00-3.6 0c-2 0-4 2-3.9 4.1v20.8zM.4 67.6C.1 66.8 0 66 0 65V46.2c0-4 3.8-7.3 7.7-7.4h16.4c4 0 7.8 3.3 7.8 7.4v19.6c0 4-3.8 7.3-7.8 7.3h-16a8.2 8.2 0 01-7.8-5.5zm3.5-1A4.4 4.4 0 008 69.6h15.6c2.2.2 4.5-1.6 4.6-3.9V46.2c0-2.4-2.3-4.2-4.6-4.1H8.1c-2.2 0-4.4 1.8-4.5 4v18.5c0 .6 0 1.3.2 2zM.2 34c-.4-1.6 0-3.3-.2-5C9.6 20.6 19.4 12 29 3.4H0V0h32v5L3 30.8h29v3.4H2.8L.2 34z" clip-rule="evenodd"/></svg>
