<svg xmlns="http://www.w3.org/2000/svg" viewBox="0 0 77.2 61.2"><path fill="#fff" fill-rule="evenodd" d="M75.2 48.5a.5.5 0 00-.5.5v4.5H69V49a.5.5 0 00-.5-.5H67a.5.5 0 00-.5.5v11.5a.5.5 0 00.5.5h1.6a.5.5 0 00.4-.5v-4.8h5.7v4.8a.5.5 0 00.5.5h1.5a.5.5 0 00.5-.5V49a.5.5 0 00-.5-.5zm-12-5.2a.5.5 0 01.5.5v1.4a.5.5 0 01-.5.5h-9.7a.5.5 0 01-.5-.5v-1.4a.5.5 0 01.5-.5zm-62.7 0a.5.5 0 00-.5.5v12C0 58.8 1 61 5 61h.5c5.7 0 6.5-3.8 6.5-5.8 0-1.7-.6-5.7-6.3-5.7H2.6v-3.9h7.3a.5.5 0 00.5-.5v-1.4a.5.5 0 00-.5-.5zM6 52c2.3 0 3.6 1.3 3.6 3.4s-1.3 3.4-3.6 3.4H5c-1.7 0-2.4-.8-2.4-2.7v-4zm36-3.2a.5.5 0 00-.3.4v1.5a.5.5 0 00.2.3.5.5 0 00.4 0 9.9 9.9 0 013.4-.5c2 0 2.4.6 2.4 2v.3l-2.8.2c-4.4.3-4.7 3.2-4.7 4 0 2.7 1.4 4.3 4.8 4.3a6.3 6.3 0 003.2-1l.2.5a.5.5 0 00.4.2h.9a.5.5 0 00.5-.4v-8c0-3-1.6-4.4-5-4.4a10.2 10.2 0 00-3.7.6zM43 57c0-.9.2-1.8 2-2l2.8-.3v3.4a4.6 4.6 0 01-2.7.8c-1 0-2.1-.4-2.1-2zm-20.5 3.7a.5.5 0 00.4.3h1.1a.5.5 0 00.4-.5V49a.5.5 0 00-.4-.5h-1.5a.5.5 0 00-.5.5v8.2a5.5 5.5 0 01-3.4 1.6c-1.6 0-2.3-.9-2.3-3V49a.5.5 0 00-.5-.5h-1.5a.5.5 0 00-.5.5v7.5c0 2.8 1.5 4.7 4.4 4.7a6.6 6.6 0 004-1.6l.3 1.2zm39.1 0a.5.5 0 00.4.3h1.1a.5.5 0 00.5-.4V49a.5.5 0 00-.5-.5h-1.5a.5.5 0 00-.5.5v8.2a5.4 5.4 0 01-3.4 1.6c-1.6 0-2.3-.9-2.3-3V49a.5.5 0 00-.5-.5h-1.5a.5.5 0 00-.5.5v7.5c0 2.8 1.5 4.7 4.4 4.7a6.6 6.6 0 004-1.6l.3 1.2zm-33.2-4c-.1 1.6-.6 2-2 2.2a.6.6 0 00-.4.5v1.2a.5.5 0 00.4.5c2.8 0 4.2-1.3 4.5-4.6l.3-3c.2-2 .6-2.7 2.4-2.7h2.1v9.7a.5.5 0 00.5.5h1.5a.5.5 0 00.5-.5V49a.5.5 0 00-.5-.5h-4.2c-3.5 0-4.5 2-4.8 4.8zM24.1 31.4a18.7 18.7 0 0028.3 0 112.5 112.5 0 01-14.1.5c-9.4 0-13-.4-14.1-.5zM56.5 23.4a18.4 18.4 0 00.5-4.2 18.8 18.8 0 00-.6-4.7c-1.8 0-7.7-.2-18-.2l-18.1.2a18.7 18.7 0 00-.6 4.7 18.2 18.2 0 00.4 4.2l18.5.2c7.5 0 16-.2 17.9-.3zM52.3 6.8a18.7 18.7 0 00-28 0 115.9 115.9 0 0114-.5 116.7 116.7 0 0114 .5z"/><path fill="#fff" fill-rule="evenodd" d="M57 19.2A18.7 18.7 0 1138.3.5 18.7 18.7 0 0157 19.2zM38.3 0a19.2 19.2 0 1019.2 19.2A19.2 19.2 0 0038.3 0z"/></svg>
