<svg xmlns="http://www.w3.org/2000/svg" viewBox="0 0 118 287"><path fill="#fff" d="M100.4 202.2H67.9V192c0-2 .3-3.7 1-5a6.5 6.5 0 0 1 3-3 9.3 9.3 0 0 1 8.3 0c1.3.6 2.3 1.6 3 3a9 9 0 0 1 3-4 8 8 0 0 1 5-1.3c1.6 0 3 .3 4.3.6 1.3.7 2.3 1.3 3 2 .6.7 1.3 1.7 1.6 3s.7 2.7.7 4.3v10.6h-.4zm-19-3.6v-6c0-1.6 0-2.6-.3-3.6s-1-1.7-1.6-2-1.7-.7-3-.7c-1 0-2 .3-3 .7-.6.3-1.3 1-1.6 2-.4.6-.4 2.3-.4 4.3v5.6h10v-.3zm15 0v-7-2.3c-.3-1-.3-1.7-1-2-.3-.7-1-1-1.7-1.3s-1.6-.7-2.6-.7c-1.3 0-2.3.3-3.3.7-1 .6-1.7 1.3-2 2.3-.4 1-.7 2.3-.7 4v6.3h11.3zm-3.3-36.8l.3-3.4c2.3.7 4.3 1.7 5.3 3 1.4 1.4 2 3.4 2 5.7 0 3-1 5-3 6.6-2 1.7-5 2.7-8.6 2.7-4 0-7-1-9-2.7-2-1.6-3.2-4-3.2-6.6 0-2.7 1-4.7 3-6.3 2-1.7 5-2.4 8.6-2.4h1V173c2.6 0 4.3-.6 5.6-1.6s2-2.4 2-4c0-1.4-.3-2.4-1-3-.4-1.3-1.4-2-3-2.6zm-6.3 11v-11c-2 0-3.3.7-4.3 1.3-1.4 1-2.4 2.4-2.4 4s.7 2.7 1.7 3.7c1.3 1 3 1.6 5 2zm13.6-20.6H78.5v-3.4h3.3a5.7 5.7 0 0 1-3-2.3c-.3-.7-.6-1.3-.6-2.3 0-1.4.3-2.4 1.3-3.7l3.3 1.3c-.6 1-.6 1.7-.6 2.7 0 .7.3 1.3.6 2s1.4 1 2 1.3c1.4.4 2.7.7 4.3.7h11.6v3.7h-.3zm-6.7-16.3l-.6-3c1.6-.3 2.6-.7 3.6-1.3 1-.7 1.4-2 1.4-3.3s-.4-2.7-1-3.4c-.7-.6-1.7-1-2.7-1s-1.7.4-2 1c-.3.4-.6 1.7-1.3 3.4a19 19 0 0 1-2 5c-.7 1-1.3 1.6-2.3 2s-2 .6-3 .6-2-.3-3-.7-1.7-1-2.3-1.6c-.4-.3-1-1.3-1-2-.4-1-.4-1.7-.4-2.7 0-1.3.4-2.6.7-4 .7-1 1.3-2 2-2.3 1-.6 2-1 3.6-1l.7 3c-1.3 0-2 .7-2.7 1.3s-1 1.7-1 3 .4 2.7 1 3c.7.7 1.4 1 2 1s1 0 1.4-.3.6-.7 1-1.3a9 9 0 0 1 1-2.7c.6-2.3 1.3-3.7 2-4.7.3-1 1.3-1.6 2-2 1-.6 2-.6 3.3-.6s2.6.3 3.6 1c1.3.7 2 1.7 2.7 2.7.6 1 1 2.3 1 4 0 2.3-.7 4.3-2 5.6-1 0-3 1-5.7 1.3zm6.7-22.2H67.5v-3.3h11.6c-2.3-1.7-3.3-3.7-3.3-6 0-1.3.4-2.7 1-4 .7-1 1.7-2 3-2.3 1.3-.3 3-.7 5.3-.7h15v3.3H85c-2 0-3.3.4-4.3 1-1 .7-1.3 1.7-1.3 3 0 1 .3 2 1 3a4 4 0 0 0 2.6 2c1 .3 2.7.7 4.4.7h12.9v3.3zm0-22.6H67.9v-3.6h18.6l-9.7-8v-4.3l8.7 7.6 14.9-8.3v4L88 85.2l3 2.3h9.3v3.6zM97 56.3c1.3 1.4 2 2.4 2.6 3.4.7 1 .7 2.3.7 3.6 0 2-.7 3.7-2 4.7s-3 1.6-4.7 1.6a8 8 0 0 1-3-.6c-1-.4-1.6-1-2.3-1.7-.6-.7-1-1.3-1.3-2.3-.3-.7-.3-1.7-.7-3-.3-2.7-.6-4.3-1.3-5.7h-1c-1.7 0-2.7.4-3.3 1-1 .7-1.3 2-1.3 3.7 0 1.7.3 2.7 1 3.3.6.7 1.6 1.3 3.3 1.7l-.7 3c-1.6-.4-3-.7-4-1.4-1-.6-1.6-1.6-2.3-2.6-.7-1.4-.7-2.7-.7-4.4 0-1.6.4-3 .7-4s1-1.6 1.7-2.3l2.6-1h9c3.7 0 6 0 7-.3 1 0 2-.3 2.6-.7v3.4c-.6.3-1.6.3-2.6.6zm-9 .4c.7 1 1 3 1.4 5.3.3 1.3.3 2.3.6 2.7.3.6.7 1 1.3 1.3.7.3 1.4.3 2 .3 1 0 2-.3 2.7-1 .6-.6 1-1.6 1-3 0-1.3-.3-2.3-1-3.3s-1.7-1.7-2.7-2c-1-.3-2.3-.7-4-.7h-1.3v.4z"/></svg>
