<svg xmlns="http://www.w3.org/2000/svg" viewBox="0 0 136.9 379.5"><path fill="#fff" d="M61.4 370.4h27.5v-16q0-9.5-4.4-14.6a12 12 0 00-9.6-4.4q-13.5 0-13.5 15.4zm35.2 0H128v-17q0-20-14.8-20a14.5 14.5 0 00-12.1 5.7q-4.5 5.9-4.5 15.6zm39.2 9.1H53.6v-30.3q0-10.4 5.8-16.7a18.9 18.9 0 0114.5-6.2q14.1 0 18.9 13.8l.2-.1a20.2 20.2 0 017.4-11.4 21 21 0 0113.3-4.4q22 0 22 29.8v25.5zM100.7 303v-30q-8.3 0-13.2 3.8a12.3 12.3 0 00-5 10.3q0 7.3 5 11.3c3.2 2.7 7.6 4.2 13.2 4.6zm19.1-33.7l3.3-6.3a30.4 30.4 0 019.5 7.7q4.3 6 4.3 15 0 10.8-7.3 17.7-8.2 8-23.4 8-14.2 0-22.5-6.5t-8.2-17.6q0-10 6.3-16c4.7-4.3 11.6-6.5 20.5-6.5h5.5v38.4c6.4 0 11.7-1.7 15.8-5a15.5 15.5 0 006.2-12.5q0-10.8-10-16.4zM135.8 251.1H76.6V243h11.7v-.2c-4.3-2.4-7.4-5-9.3-7.6a19.6 19.6 0 01-3.3-11.6H84a16 16 0 005.1 12q4.4 4.4 14 7.4h32.8v8.2zM125.7 218.4l-5-6.5q9.1-6.4 9.1-17 0-6.2-3-9.6a8.5 8.5 0 00-6.7-3q-6 0-9.3 9L105 208q-4.5 9-13.7 8.6c-5-.1-9-2-11.8-5.6s-4.2-8.2-4.1-14a26.7 26.7 0 013-11.5 22.2 22.2 0 017.3-8.7l5 5.7c-5.5 4.5-8.3 9.6-8.3 15.2q0 10.7 8.8 10.7 5 0 8.1-8.9 5.3-15.5 5.8-16.6 5-8.8 14.4-8.8a15.3 15.3 0 0113 6.3q4.3 5.7 4.3 14.4 0 15.2-11.3 23.6zM53.6 160.5v-8.2h31v-.2q-9.1-8.1-9.1-17.6c0-4.8 1.3-8.8 3.8-11.8q4.6-5.2 13.5-5.2h43v8.2H93q-10.5 0-10.5 9.6 0 8.6 9 17h44.3v8.2zM135.8 97.8H53.6v-8.1h52.9L76.6 65.6v-10L98.5 73l37.3-19.6V63l-30.3 15.7 12.5 11h17.8v8.1zM120 9.6h-16.2q4.9 28 17 28a8.1 8.1 0 006.5-3.1 10 10 0 002.6-6.7 20 20 0 00-2.8-9.4 31.2 31.2 0 00-7-8.8zM91.8 36.9L88 44q-12.5-6.9-12.5-22.1 0-8.6 4-14 4.7-6.5 13.8-6.5H123A51.2 51.2 0 00135.8 0v8.4l-8.2 1q9.3 8.3 9.3 19.5a17.2 17.2 0 01-4 11.8q-4.5 5-12.3 5a17.2 17.2 0 01-15-8.2q-5.6-8.2-9-28h-3.3q-10.7 0-10.8 12.2 0 11.5 9.2 15.2z"/></svg>
