<svg xmlns="http://www.w3.org/2000/svg" overflow="visible" viewBox="0 0 844 441">
  <path fill="#fff" d="M221 122l-12 42c-3 13-3 26 0 39 4 11 11 17 23 18 14 0 27-4 37-14 18-17 31-38 34-63 1-11 0-22-6-31-4-8-11-11-19-10-9 0-16 4-22 11 16 1 22 10 19 25-2 9-8 16-15 21-6 3-12 3-18-2-7-7-10-16-8-26 4-19 17-30 33-38 14-8 30-10 45-14 12-2 23-5 33-12l10-9c-8 1-13-2-14-9-2-8 2-19 8-23l8-3c9-2 16 3 16 12 1 12-5 21-13 28a99 99 0 01-43 23l-27 6c24 18 23 42 17 67-7 31-26 55-52 71-31 19-72 8-89-21-7-12-7-12 1-22l52-65 2-1zM68 156h2c14 3 21 12 23 26 4 25-10 44-35 45H2c-2-7-2-7 5-9 4-1 6-3 6-7v-10-85c0-9 0-9-9-11-2-1-2-5-4-7l4-1h51l12 2c13 3 20 12 21 25 2 13-5 22-15 28l-4 3-1 1zm-29 8v46c0 5 3 7 8 7 8-1 13-6 15-13 3-6 4-13 3-20 0-16-10-23-26-20zm0-13h10c8 0 12-4 13-11s0-15-2-22c-1-6-7-10-14-11-5-1-7 1-7 6v38zM309 438v-9h4c5 0 7-3 7-8v-22-69c0-12 0-12-11-14v-7h1c19 0 38-1 57 1 12 0 21 6 26 17 6 15 0 30-14 37l-5 2 1 1c22 7 31 27 23 49-5 13-16 21-29 21-20 2-40 1-60 1zm36-63v26l1 20c0 5 3 7 8 7 7-1 13-5 15-12l3-21c0-16-10-23-27-20zm1-12l11-1c7 0 11-4 12-11 0-7 0-14-2-21-1-6-6-10-13-11-6-1-8 0-8 6v38zM157 185c-1-46 14-82 57-104l-3-3c-12-12-14-21-7-36 11-23 46-44 71-42 12 1 19 7 21 16 3 14-10 29-22 29-7-1-13-4-16-11s-2-15 3-21l3-5c-11 1-28 17-31 29-4 16 2 30 16 38l-90 111-2-1zM749 438h-34c-1 0-3-2-3-4l-23-51c-2-4-4-7-10-7v42c0 9 1 10 10 12v8h-45v-8c7-2 9-4 9-13v-58-30c0-9-1-10-9-12v-8h45v7c-9 3-10 4-10 14v37c16 2 20-1 23-14l7-26 7-14c5-6 15-8 22-4 7 3 10 11 9 20-1 5-5 8-10 9-5 0-8-3-9-9l-1-7c-1-4-5-5-7-1l-5 9-5 18-7 23c8 2 11 10 14 17l14 30c3 7 7 11 15 12 5 0 2 5 3 8zM642 218v9h-40l1-8c7-2 7-2 5-10l-5-18c0-3-2-4-4-4h-28c-3 0-4 1-5 4l-5 18c-2 7-1 8 6 10v8h-32l1-8 1-1c8 0 9-1 11-8l17-57 11-37c1-2 3-5-1-6l-1-6c7 0 11-3 14-9l6-1c2 0 3 2 4 4l32 110c2 6 4 10 12 10zm-57-89h-2l-12 47h27l-13-47zM481 227c-1-7-1-7 5-9l5-6 1-8v-86c0-4 1-9-4-11-4-2-11 1-14 6l-7 18c-2 4-2 4-7 3l5-37h75c4 0 5 1 5 5l4 32c-4 2-6 1-8-4-1-5-3-11-6-16-1-2-3-5-6-6-7-4-12-1-12 7v90c0 11 1 12 12 14v8h-48zM525 429v9h-47v-8c9-3 10-4 10-14v-88c0-3-1-8-3-9-3-1-7 0-10 1l-6 7-5 15c-2 4-3 5-8 3l5-37h75c2 0 5 2 5 3l4 33v1c-5 2-6 0-7-4l-6-15-6-7c-7-4-12-1-12 7v93c0 8 1 9 11 10z"/>
  <path fill="#fff" d="M548 412l18 15c17 11 34 5 42-13 5-12 6-24 6-38h-41v-8h41c-1-17-2-33-14-46-11-12-32-8-41 7l-5 14c-1 3-2 4-6 3v-19-19c3-1 5-1 6 2 1 5 4 6 9 4l11-4c20-6 37-1 51 14 23 26 22 75-2 101a48 48 0 01-73-3l-2-10zM320 104v-7h47v7l-4 1c-3 0-5 2-6 6v92c0 11 5 15 16 13 6-1 11-4 14-10l8-17c1-2 1-2 6-2l-4 40h-77v-8c11-3 11-4 11-15v-86c0-11-1-12-11-14zM453 430v8h-49v-8l1-1c9-1 10-2 10-12v-95c0-10 0-11-10-13-2-7-2-7 5-7h32v116c0 9 1 11 11 12zM844 413c1 5 0 8-3 11-25 27-65 21-82-13a80 80 0 015-81c12-20 36-27 58-19l8 4c4 1 7 0 9-4 0-2 2-3 3-5l2 2v38c-3 1-5 0-6-3l-4-14c-6-10-15-15-27-14-10 1-17 7-21 17-10 26-11 53-2 80 7 20 26 26 44 15l16-14zM405 104v-7h47v7l-1 1c-9 0-10 2-10 11v91c0 9 0 10 11 12v8h-48v-8c10-3 10-3 10-13v-91c0-8-1-9-9-11zM99 104v-7h46v7l-4 1c-4 0-6 2-6 6l-1 6v90c0 9 1 10 11 12v8H98v-8c11-3 11-3 11-16v-83-4c0-10-1-10-10-12zM401 266c0-14 11-24 24-24s24 11 24 24-11 23-24 23-24-10-24-23z"/>
</svg>
