<svg xmlns="http://www.w3.org/2000/svg" viewBox="0 0 105.11 11.37"><title>calzedonia</title><path d="M5.41,8.67c-1.56,0-2.07-1.52-2.07-3s.5-3,2.07-3A1.72,1.72,0,0,1,7.15,4.3H10.4C10.11,1.58,8.47,0,5.5,0,2.16,0,0,2.27,0,5.68c0,3.2,2,5.68,5.5,5.68a4.66,4.66,0,0,0,4.95-4.51H7.17c-.19,1-.63,1.82-1.76,1.82ZM14.72.27l-4,10.84h3.35l.49-1.55H18l.45,1.55h3.46L18,.27Zm.58,7L16.35,3.9h0l1,3.34Zm10.89-7H22.85V11.11H31V8.33h-4.8ZM41.82,2.7V.27H32.66V3.05h4.75l-5,5.45v2.61h9.69V8.33H36.73ZM47,7h5.11V4.4H47V3.05h5.63V.27h-9V11.11h9.14V8.33H47ZM60.22.27H54.74V11.11h4.83c3.78,0,5.54-2.11,5.54-5.44,0-2.73-1.28-5.4-4.89-5.4Zm-.83,8.06H58.08V3h1.07a2.39,2.39,0,0,1,2.62,2.58c0,1-.3,2.71-2.38,2.71ZM71.41,0a5.33,5.33,0,0,0-5.5,5.68,5.5,5.5,0,1,0,11,0A5.34,5.34,0,0,0,71.41,0Zm0,8.66c-.85,0-2.16-.56-2.16-3s1.31-3,2.16-3,2.16.56,2.16,3-1.31,3-2.16,3Zm13.12-2.6h0L81.34.27H77.92V11.11h3.16V5.19h0l3.33,5.92h3.25V.27H84.53Zm5.22,5h3.34V.27H89.75ZM101.17.27H97.91l-4,10.84h3.35l.49-1.55h3.44l.45,1.55h3.46Zm-2.69,7,1-3.34h0l1,3.34Z" fill="#fff"/></svg>