<svg xmlns="http://www.w3.org/2000/svg" viewBox="0 0 16 60.36"><path d="M0,31V0H4.2L16,12.17V31Z" fill="none"/><path d="M3.35,59H5.87a1.9,1.9,0,0,0,1.38-.46,1.8,1.8,0,0,0,.48-1.34,2.67,2.67,0,0,0-.2-1,2.33,2.33,0,0,0-.39-.69L7,55.32H3.35V54h8.4v1.33H8.33a3,3,0,0,1,.17.26,4.94,4.94,0,0,1,.26.74,3.77,3.77,0,0,1,.17,1.15,2.81,2.81,0,0,1-.79,2.12,3.15,3.15,0,0,1-2.27.77H3.35Z" fill="#fff"/><path d="M9.29,46.68v4.5a1.67,1.67,0,0,0,1.05-.6,1.76,1.76,0,0,0,.45-1.21,2.07,2.07,0,0,0-.23-.94,1.88,1.88,0,0,0-.45-.61l-.22-.19.78-.77.13.1a2.69,2.69,0,0,1,.29.32,3.61,3.61,0,0,1,.36.51,3.7,3.7,0,0,1,.29.7,3.23,3.23,0,0,1,.13.88,2.87,2.87,0,0,1-.9,2.12,3,3,0,0,1-2.16.88,2.82,2.82,0,0,1-2.08-.86,2.86,2.86,0,0,1-.86-2.07,2.77,2.77,0,0,1,.8-2,2.73,2.73,0,0,1,2-.8Zm-2.4,2.76a1.58,1.58,0,0,0,.39,1.09,1.81,1.81,0,0,0,1,.6V47.79a1.63,1.63,0,0,0-1.38,1.65Z" fill="#fff"/><path d="M11.87,42.24a2.59,2.59,0,0,1-.08.63,2.1,2.1,0,0,1-.19.52,3.36,3.36,0,0,1-.23.39l-.19.24-.09.08h3.18v1.2H6V44.1h.66l-.21-.23a2.82,2.82,0,0,1-.36-.64,2.45,2.45,0,0,1-.21-1,2.66,2.66,0,0,1,.87-2,3,3,0,0,1,2.13-.84,2.94,2.94,0,0,1,2.12.84A2.67,2.67,0,0,1,11.87,42.24ZM7.51,41.15a1.59,1.59,0,0,0,0,2.42,1.89,1.89,0,0,0,1.36.53,1.89,1.89,0,0,0,1.36-.53,1.59,1.59,0,0,0,0-2.42,2,2,0,0,0-2.72,0Z" fill="#fff"/><path d="M9.29,32.77v4.5a1.67,1.67,0,0,0,1.05-.6,1.76,1.76,0,0,0,.45-1.21,2.07,2.07,0,0,0-.23-.94,1.88,1.88,0,0,0-.45-.61l-.22-.19.78-.77a.76.76,0,0,1,.13.1,2.69,2.69,0,0,1,.29.32,3.61,3.61,0,0,1,.36.51,3.7,3.7,0,0,1,.29.7,3.23,3.23,0,0,1,.13.88,2.87,2.87,0,0,1-.9,2.12,3,3,0,0,1-2.16.88,2.82,2.82,0,0,1-2.08-.86,2.86,2.86,0,0,1-.86-2.07,2.77,2.77,0,0,1,.8-2,2.73,2.73,0,0,1,2-.8Zm-2.4,2.76a1.58,1.58,0,0,0,.39,1.09,1.81,1.81,0,0,0,1,.6V33.88a1.63,1.63,0,0,0-1.38,1.65Z" fill="#fff"/><path d="M11.75,31.39H6v-1.2h4.68v-2.1H6v-1.2h4.68v-2.1H6v-1.2h5.76Z" fill="#fff"/><path d="M9.35,20.72h2.4v1.2H6v-1.2H8.27V17.9H6V16.7h5.76v1.2H9.35Z" fill="#fff"/><path d="M6,13.1V10.46h5.76v1.2H10v1.26l1.8,1.14v1.32l-2-1.26,0,.13a3.06,3.06,0,0,1-.19.27,1.52,1.52,0,0,1-.33.34,2,2,0,0,1-1.23.4,1.89,1.89,0,0,1-1.42-.59A2.22,2.22,0,0,1,6,13.1Zm1-1.44V13.1a.94.94,0,0,0,1,1,.92.92,0,0,0,1-1V11.66Z" fill="#fff"/></svg>