<svg xmlns="http://www.w3.org/2000/svg" viewBox="0 0 194.9 118.4"><path fill="#fff" fill-rule="evenodd" d="M60.1 7.7a21.1 21.1 0 110 42.2 21.1 21.1 0 010-42.2zm107.4 32.5c2.4 5.9 8.3 9.6 14.7 9.5 3.5 0 8-1.3 10.2-4.1 3.1-3.8 4.2-11.4-2.6-16.8-3.7-3-8.4-3.8-11.9-6.4-2-1.5-3.2-4-2.2-6.1 2.5-5.5 10.1-4.2 13.2 2l4-2.6a12.4 12.4 0 00-15.7-7.1c-4.2 1.6-6.8 4.8-6.9 9.2-.1 2.8.6 5.4 2.5 7.3 2.6 2.5 7.3 4.2 10.5 6 3.2 1.7 4.8 3.1 5.6 4.7.8 1.7.8 4.4-.2 5.9-1.2 2-4.2 2.9-6.4 3.1-3.2.2-7.3-1.2-10.6-7.2l-4.2 2.6zM128.8 8.4l22.3 29.2V8.4h5.4v41h-3.1l-23.1-30v30h-5.4v-41h3.9zM160.9.5h5.4v21.3h-5.4V.5zm-70 43.7h17.2v5.2H85v-41h5.8v35.8h.1zM112 8.4h5.8v41H112v-41zm-90.9-.7a21 21 0 0117.1 8.7l-3.9 3.9a15.7 15.7 0 10-13.2 24.2c5.6 0 10.5-2.9 13.3-7.3l3.9 3.9A21 21 0 0121.1 50a21.2 21.2 0 010-42.3zm39 5.4a15.7 15.7 0 100 31.4 15.7 15.7 0 100-31.4z"/></svg>
