<svg xmlns="http://www.w3.org/2000/svg" viewBox="0 0 116.5 60">
  <path fill="#fff" fill-rule="evenodd" d="M43 8.1h-.9a10.6 10.6 0 00-10.7 10.7 10.7 10.7 0 0019 6.7c2 2.4 5 4 8.3 4 5.9 0 10.7-4.8 10.7-10.7a6 6 0 115.9 5.9H73c-2 .1-3.8.3-5.5 1.6-1.7 1.3-2.7 2.4-2.9 5l.1 4.9c0 1.3 1.1 1.4 2 1.4 1.3 0 2.7-.1 2.7-1.4l.1-4.9c0-2.6 2.9-1.8 4.9-1.8h.9c5.9.2 10.7-4.8 10.7-10.7a10.7 10.7 0 00-19-6.7c-2-2.4-5-4-8.3-4-5.9 0-10.7 4.8-10.7 10.7v.1c0 3.2-2.7 5.8-5.9 5.8a5.8 5.8 0 01-5.9-5.9c0-3.3 2.6-5.9 5.9-5.9h2.3c2-.1 3.8-.3 5.5-1.6 1.7-1.3 2.7-2.4 2.9-5l-.1-4.9c0-1.3-1-1.4-2-1.4-1.3 0-2.7.1-2.7 1.4l-.1 4.9c0 2.6-2.9 1.8-4.9 1.8z" clip-rule="evenodd"/>
  <circle cx="58.7" cy="18.7" r="13.4" fill="#fff" fill-rule="evenodd" clip-rule="evenodd"/>
  <path fill="#fff" d="M42.1 51.1c0 1.6-.5 2.9-1.6 4a5.4 5.4 0 01-4 1.6 5 5 0 01-3.9-1.6 5.8 5.8 0 01-1.6-4 5 5 0 011.6-3.8 5.3 5.3 0 013.9-1.6c1.5 0 2.8.5 3.9 1.6 1.2 1 1.7 2.3 1.7 3.8zm-2.3 0a3 3 0 00-1-2.3c-.6-.6-1.4-1-2.3-1-.9 0-1.6.3-2.2 1-.6.6-.9 1.4-.9 2.3 0 .9.3 1.7.9 2.4.6.6 1.4 1 2.3 1 .9 0 1.7-.3 2.3-1 .6-.7.9-1.4.9-2.4zM60.8 51.1c0 1.6-.5 2.9-1.6 4a5.4 5.4 0 01-4 1.6 5 5 0 01-3.9-1.6 5.8 5.8 0 01-1.6-4 5 5 0 011.6-3.8 5.3 5.3 0 013.9-1.6c1.5 0 2.8.5 3.9 1.6a5 5 0 011.7 3.8zm-2.3 0a3 3 0 00-1-2.3c-.6-.6-1.4-1-2.3-1-.9 0-1.6.3-2.2 1-.6.6-.9 1.4-.9 2.3 0 .9.3 1.7.9 2.4.6.6 1.4 1 2.3 1 .9 0 1.7-.3 2.3-1 .6-.7.9-1.4.9-2.4zM9.5 44.6a6.9 6.9 0 00-5-2.1H0v14.2h4.4c2 0 3.7-.6 5.1-2a7 7 0 002.1-5.1c0-2-.7-3.6-2.1-5zM7.9 53c-.9 1-2 1.3-3.3 1.3H2.5v-9.5h2.1c1.3 0 2.4.5 3.3 1.4.9.9 1.4 2 1.4 3.3A5.8 5.8 0 017.9 53zM23.2 49.1c-.2-.7-.7-1.3-1.3-1.8a5.3 5.3 0 00-3.9-1.6c-1.5 0-2.8.5-3.9 1.6a5.2 5.2 0 00-1.6 3.8c0 1.6.5 2.9 1.6 4 1 1.1 2.4 1.6 3.9 1.6 1.6 0 2.9-.5 4-1.6a7 7 0 001.2-1.8h-2.6l-.2.3c-.6.7-1.4 1-2.3 1-.9 0-1.7-.3-2.3-1-.5-.5-.8-1-.9-1.6h6.3s1.1 0 1.7-.8c.5-.7.5-1.5.3-2.1zM18 47.8a3 3 0 012.3 1l.6.7v.5l-.5.1H15c.1-.5.4-.9.8-1.4a3 3 0 012.2-.9zM46.6 45.9a2.9 2.9 0 00-2.9 2.9v7.8h2.6v-7.4s0-.4.3-.6l.6-.2h2.1v-2.6h-2.7zM102.4 54.1l-.6-.2c-.3-.2-.3-.6-.3-.6V48h2.3l.5-.8v-1.3h-2.8v-2.4l-1.2-1H99v11.2c0 1.6 1.3 2.9 2.9 2.9h2.6V54h-2.1zM95.6 45.9l-1.2.5c-.8-.5-1.8-.7-2.8-.7-1.5 0-2.8.5-3.9 1.6a5.2 5.2 0 00-1.6 3.8c0 1.6.5 2.9 1.6 4 1 1.1 2.4 1.6 3.9 1.6 1.1 0 2.1-.3 2.9-.8l1 .8h1.3V45.9h-1.2zm-3.9 8.6c-.9 0-1.7-.3-2.3-1-.6-.6-.9-1.4-.9-2.4 0-.9.3-1.6.9-2.3.6-.6 1.4-1 2.2-1a3 3 0 012.3 1c.6.6 1 1.4 1 2.3 0 .9-.3 1.7-.9 2.4-.6.6-1.4 1-2.3 1zM115.2 45.9l-1.2.5c-.8-.5-1.8-.7-2.8-.7-1.5 0-2.8.5-3.9 1.6a5.2 5.2 0 00-1.6 3.8c0 1.6.5 2.9 1.6 4 1 1.1 2.4 1.6 3.9 1.6 1.1 0 2.1-.3 2.9-.8l1 .8h1.3V45.9h-1.2zm-3.9 8.6c-.9 0-1.7-.3-2.3-1-.6-.6-.9-1.4-.9-2.4 0-.9.3-1.6.9-2.3.6-.6 1.4-1 2.2-1a3 3 0 012.3 1c.6.6 1 1.4 1 2.3 0 .9-.3 1.7-.9 2.4-.6.6-1.4 1-2.3 1zM82 42.5h2.6v14.2H82zM78.5 47.3a5.3 5.3 0 00-3.9-1.6c-1 0-1.9.3-2.8.8l-1.3-.5h-1.3v14h2.6v-4a5 5 0 002.7.7c1.6 0 2.9-.5 4-1.6a5.4 5.4 0 001.6-4 5 5 0 00-1.6-3.8zm-1.6 6.2c-.6.7-1.4 1-2.3 1-.9 0-1.7-.3-2.3-1-.6-.6-.9-1.4-.9-2.4 0-.9.3-1.6.9-2.3.6-.6 1.4-1 2.2-1a3 3 0 012.3 1 3.4 3.4 0 01.1 4.7z"/>
</svg>
