<svg xmlns="http://www.w3.org/2000/svg" viewBox="0 0 626 6265"><path fill="#fff" d="M133 0l4 2a102 102 0 11-46 2l18-4zm-13 159a57 57 0 0058-58c0-31-26-57-57-57s-58 26-58 58 26 57 57 57zM606 5901v312c0 7-1 15-3 22-6 17-21 27-42 30H72a72 72 0 01-21-4c-18-5-30-21-30-40v-6-609c1-93 20-183 60-267 17-37 40-70 69-97 43-40 94-60 152-62a238 238 0 01214 109c30 42 50 89 64 139a662 662 0 0126 184v289zm-88 275v-17-520a599 599 0 00-35-224c-13-35-30-68-55-96-29-31-64-49-107-51-49-2-89 16-122 51-17 19-30 40-41 63-33 71-48 147-49 225-2 186-1 372-1 558l1 11zM626 4535c-1 107-12 208-41 306-19 63-44 123-82 177-20 31-45 58-74 80-25 19-53 32-83 38-45 8-87 0-126-23-31-18-57-42-79-70-32-40-56-85-76-132-24-61-40-123-50-187-10-59-15-118-15-178a1146 1146 0 019-147c8-69 22-136 46-202 18-50 40-98 71-141 23-33 51-62 85-84 32-21 67-32 105-32 33 1 64 11 92 28 36 21 63 50 88 82 34 48 59 100 78 156 20 56 32 114 41 174 7 53 10 106 11 155zm-88-6c0-53-6-117-17-180-10-54-25-106-46-156-17-41-38-79-68-112-15-17-31-31-51-42a88 88 0 00-85 0 188 188 0 00-28 18c-17 13-31 30-43 47-27 37-46 78-62 122a1033 1033 0 00-32 511c12 60 29 119 56 175 17 34 36 65 62 93 13 13 27 25 43 34 30 16 61 16 91 0a186 186 0 0027-19c19-15 34-34 48-54 31-47 52-99 68-153 26-89 37-181 37-284zM145 1452h421c25 1 43 20 43 45-1 23-19 42-43 43H72c-21 1-42-15-44-40-1-10 2-18 6-27l66-126 377-722 5-11H67c-6 0-13-1-19-3a43 43 0 0113-85h490c5 0 10 0 16 2 27 6 40 36 28 61l-22 43-423 809-5 11zM123 3082c3 4 5 7 6 11l140 242 7 12c6 13 6 26 0 39l-7 11-140 244-6 10 10 6 445 269 10 6a44 44 0 01-44 76l-10-6-487-294-4-3c-24-15-30-39-16-63l118-206 35-60c5-7 5-12 1-19q-77-131-152-263l-8-15c-5-20 2-39 19-50l39-23 456-276c8-5 17-10 28-10a44 44 0 0126 79l-9 6-446 270-11 7zM564 1586c18 1 32 9 39 26 7 16 5 33-7 47l-19 19-268 271-43 44a18 18 0 00-6 14v256a19 19 0 006 15l199 201 127 128c13 13 18 28 13 45-8 32-47 43-72 20l-33-33-320-323-145-147c-7-7-12-14-14-22-4-15-1-28 9-40l22-23 287-290 189-191c10-10 21-18 36-17zm-439 549c16 16 30 31 46 45a143 143 0 001-22v-23-22c-1-7 2-15-1-22l-46 44zM314 315h244a73 73 0 0117 2c20 5 33 23 32 44a43 43 0 01-35 41 84 84 0 01-15 1H69a69 69 0 01-20-3c-19-5-32-25-30-46s20-37 42-39h9z"/></svg>
