<svg xmlns="http://www.w3.org/2000/svg" viewBox="0 0 28.9 104.7"><path fill="#fff" d="M3 60.2l.2.3.3.3.2.4.3.3a.4.4 0 010 .4.4.4 0 01-.4.1l-.4-.3-.2-.4-.3-.4-.2-.4a.4.4 0 01.2-.3.4.4 0 01.4 0zm1.4 6.4v2a.4.4 0 01-.4.3.4.4 0 01-.3-.2v-2.2a.4.4 0 01.3-.1.4.4 0 01.4.2zm0 3.3V72a.4.4 0 01-.4.2.4.4 0 01-.3-.1v-2.3a.4.4 0 01.3-.1.4.4 0 01.4.2zm0 3.3v2.1a.4.4 0 01-.4.2.4.4 0 01-.3-.1V73a.4.4 0 01.4-.1.4.4 0 01.3.2zm0 3.3v2.1a.4.4 0 01-.4.3.4.4 0 01-.3-.2v-2.2a.4.4 0 01.3-.2.4.4 0 01.4.3zm0 3.4v2a.4.4 0 01-.4.2.4.4 0 01-.3-.2v-2.1a.4.4 0 01.3-.2.4.4 0 01.4.3zm-.7 22v-2.3a.4.4 0 01.3-.2.4.4 0 01.4.3v2a.4.4 0 01-.4.3.4.4 0 01-.3-.2zm0-3.4v-2.2a.4.4 0 01.7 0v2.1a.4.4 0 01-.4.3.4.4 0 01-.3-.2zm0-3.3V93a.4.4 0 01.3-.2.4.4 0 01.4.3v2a.4.4 0 01-.4.3.4.4 0 01-.3-.2zm0-3.3v-2.3a.4.4 0 01.3-.1.4.4 0 01.4.2v2a.4.4 0 01-.4.3.4.4 0 01-.3-.1zm0-3.3v-2.3a.4.4 0 01.3-.1.4.4 0 01.4.2v2a.4.4 0 01-.4.3.4.4 0 01-.3-.2zm0-3.3V83a.4.4 0 01.3-.2.4.4 0 01.4.3v2a.4.4 0 01-.4.3.4.4 0 01-.3-.2zM4.4 63v2.1a.4.4 0 01-.4.2.4.4 0 01-.3-.1V63a.4.4 0 01.3-.2.4.4 0 01.4.3zm0-21.4v-2.1a.4.4 0 00-.4-.3.4.4 0 00-.3.2v2.2a.4.4 0 00.3.2.4.4 0 00.4-.3zm0-3.5V36a.4.4 0 00-.4-.3.4.4 0 00-.3.2v2.2a.4.4 0 00.3.2.4.4 0 00.4-.3zm0-3.3v-2.1a.4.4 0 00-.4-.3.4.4 0 00-.3.2v2.2a.4.4 0 00.3.2.4.4 0 00.4-.3zm0-3.3v-2.2a.4.4 0 00-.4-.2.4.4 0 00-.3.2v2.2a.4.4 0 00.3.2.4.4 0 00.4-.3zm0-3.4v-2a.4.4 0 00-.4-.3.4.4 0 00-.3.1v2.3a.4.4 0 00.3.1.4.4 0 00.4-.2zm0-3.3v-2a.4.4 0 00-.4-.2.4.4 0 00-.3.1V25a.4.4 0 00.3.2.4.4 0 00.4-.3zM3.7 3v2.2a.4.4 0 00.3.2.4.4 0 00.4-.2V3a.4.4 0 00-.4-.2.4.4 0 00-.3.1zm0 3.3v2.3a.4.4 0 00.3.1.4.4 0 00.4-.2v-2A.4.4 0 004 6a.4.4 0 00-.3.1zm0 3.4v2.2a.4.4 0 00.3.1.4.4 0 00.4-.2v-2a.4.4 0 00-.4-.3.4.4 0 00-.3.2zm0 3.3V15a.4.4 0 00.7-.1v-2a.4.4 0 00-.3-.2.4.4 0 00-.4.1zm0 3.3v2.2a.4.4 0 00.3.2.4.4 0 00.4-.3v-2a.4.4 0 00-.3-.3.4.4 0 00-.4.2zm0 3.3v2.2a.4.4 0 00.7 0v-2.1a.4.4 0 00-.4-.3.4.4 0 00-.3.2zM6.2.1H3.8v1.7a.4.4 0 00.4.2.4.4 0 00.3-.2v-1h1.7a.4.4 0 00.3-.4.3.3 0 00-.2-.3zM3.8 43.6l-.3.3-.2.4-.3.3-.2.4a.4.4 0 01-.4 0 .4.4 0 01-.2-.3v-.1l.3-.4.2-.3.3-.4.3-.4a.4.4 0 01.3 0 .4.4 0 01.1.5zm-1.8 2.8l-.1.4-.2.4-.1.4-.2.4a.4.4 0 01-.4.1.4.4 0 01-.2-.2v-.1l.1-.5.2-.3.2-.4.1-.4a.4.4 0 01.4 0 .4.4 0 01.2.3zm-1 3.2v.4l-.1.4v.9a.4.4 0 01-.5.2.4.4 0 01-.3-.2v-1l.1-.4v-.5a.4.4 0 01.4-.1.4.4 0 01.3.3zm-.2 3.9v.8l.1.4v.4a.4.4 0 01-.2.3.4.4 0 01-.4 0v-.6l-.1-.4v-.9a.4.4 0 01.2-.3.5.5 0 01.4.3zm.7 3.5l.1.4.2.4.2.4.1.3a.4.4 0 01-.2.4.4.4 0 01-.3 0l-.3-.5-.1-.4-.2-.4-.1-.4V57a.4.4 0 01.2-.3.4.4 0 01.4.2zm21.3 47.7h2.5V103a.4.4 0 00-.7 0v1h-1.7a.4.4 0 00-.3.3.4.4 0 00.2.4zM24.5 63v2.1a.4.4 0 00.4.2.4.4 0 00.3-.1V63a.4.4 0 00-.3-.2.4.4 0 00-.4.3zm0 3.5v2.1a.4.4 0 00.4.2.4.4 0 00.3-.1v-2.3a.4.4 0 00-.3-.1.4.4 0 00-.4.2zm0 3.4v2a.4.4 0 00.4.2.4.4 0 00.3-.1v-2.3a.4.4 0 00-.3-.1.4.4 0 00-.4.2zm0 3.3v2a.4.4 0 00.4.2.4.4 0 00.3-.1V73a.4.4 0 00-.3-.1.4.4 0 00-.4.2zm0 3.3v2a.4.4 0 00.4.3.4.4 0 00.3-.2v-2.2a.4.4 0 00-.3-.2.4.4 0 00-.4.3zm0 3.3v2a.4.4 0 00.4.3.4.4 0 00.3-.2v-2.2a.4.4 0 00-.3-.2.4.4 0 00-.4.3zm.7 22v-2.3a.4.4 0 00-.3-.2.4.4 0 00-.4.3v2a.4.4 0 00.4.3.4.4 0 00.3-.2zm0-3.3v-2.3a.4.4 0 00-.7 0v2.1a.4.4 0 00.4.3.4.4 0 00.3-.2zm0-3.3V93a.4.4 0 00-.3-.2.4.4 0 00-.4.3v2a.4.4 0 00.4.3.4.4 0 00.3-.2zm0-3.3v-2.4a.4.4 0 00-.3-.1.4.4 0 00-.4.2v2a.4.4 0 00.4.3.4.4 0 00.3-.1zm0-3.4v-2.3a.4.4 0 00-.3-.1.4.4 0 00-.4.2v2a.4.4 0 00.4.3.4.4 0 00.3-.2zm0-3.3V83a.4.4 0 00-.3-.2.4.4 0 00-.4.3v2a.4.4 0 00.4.3.4.4 0 00.3-.2zm-.7-43.6v-2.1a.4.4 0 01.4-.3.4.4 0 01.3.2v2.2a.4.4 0 01-.3.2.4.4 0 01-.4-.3zm0-3.5v-2.1a.4.4 0 01.4-.3.4.4 0 01.3.2v2.2a.4.4 0 01-.3.2.4.4 0 01-.4-.3zm0-3.3v-2.1a.4.4 0 01.4-.3.4.4 0 01.3.2v2.2a.4.4 0 01-.3.2.4.4 0 01-.4-.3zm0-3.3v-2.2a.4.4 0 01.4-.2.4.4 0 01.3.2v2.2a.4.4 0 01-.3.2.4.4 0 01-.4-.3zm0-3.3V26a.4.4 0 01.4-.2.4.4 0 01.3.1v2.3a.4.4 0 01-.3.1.4.4 0 01-.4-.2zm0-3.3v-2a.4.4 0 01.4-.3.4.4 0 01.3.2V25a.4.4 0 01-.3.2.4.4 0 01-.4-.3zm.7-22V5a.4.4 0 01-.3.2.4.4 0 01-.4-.2V3a.4.4 0 01.4-.2.4.4 0 01.3.1zm0 3.3v2.2a.4.4 0 01-.3.1.4.4 0 01-.4-.2v-2A.4.4 0 0125 6a.4.4 0 01.3.1zm0 3.3v2.2a.4.4 0 01-.3.2.4.4 0 01-.4-.3v-2a.4.4 0 01.4-.3.4.4 0 01.3.2zm0 3.3v2.2a.4.4 0 01-.7 0V13a.4.4 0 01.4-.2.4.4 0 01.3.1zm0 3.3v2.3a.4.4 0 01-.3.1.4.4 0 01-.4-.2v-2.1a.4.4 0 01.4-.3.4.4 0 01.3.2zm0 3.4v2.2a.4.4 0 01-.7 0v-2.2a.4.4 0 01.4-.3.4.4 0 01.3.2zM22.7 0h2.5v1.7a.4.4 0 01-.3.2.4.4 0 01-.4-.3V.8h-1.7a.4.4 0 01-.3-.4.4.4 0 01.2-.3zM26.9 60l-.2.2-.2.4-.3.3-.2.4-.3.3a.4.4 0 01-.3 0 .5.5 0 01-.1-.5l.1-.2.3-.3.2-.4.2-.3.1-.1a.4.4 0 01.5 0 .5.5 0 01.2.2zm1.4-3.2l-.1.2-.1.4-.2.4-.2.4-.1.4a.4.4 0 01-.4 0 .4.4 0 01-.2-.4l.1-.3.2-.3.1-.4.2-.4v-.1a.4.4 0 01.4-.2.4.4 0 01.2.2zm.6-3.4v1.1l-.1.5-.1.4a.3.3 0 01-.3 0 .4.4 0 01-.3-.3v-.7l.1-.4v-.5a.4.4 0 01.7-.1zm-.3-4v.2l.1.4.1.5v.8a.4.4 0 01-.2.2.4.4 0 01-.4-.3v-1l-.1-.4v-.2a.4.4 0 01.3-.3.3.3 0 01.3 0zm-1.2-3.6l.2.3.1.4.2.4.2.4.1.3a.4.4 0 01-.2.3.4.4 0 01-.5-.2v-.2l-.2-.4-.2-.4-.1-.4v-.1a.4.4 0 01.1-.4.4.4 0 01.4 0zm-2-3.1l.1.2.3.3.3.4.2.3.2.3a.4.4 0 01-.1.3.4.4 0 01-.5 0l-.1-.2-.3-.3-.2-.3-.3-.4v-.1a.4.4 0 010-.5.3.3 0 01.3 0zM8.3 104h2a.4.4 0 01.3.3.4.4 0 01-.1.3H8.3a.4.4 0 01-.1-.3.4.4 0 01.2-.3zM8.4.7h2a.4.4 0 00.3-.4.4.4 0 00-.1-.3H8.3a.4.4 0 00-.1.3.4.4 0 00.2.4zm3.5 0h2a.4.4 0 00.2-.4.4.4 0 00-.1-.3h-2.2a.4.4 0 00-.2.3.5.5 0 00.3.4zm3.3 0h2a.4.4 0 00.3-.4.4.4 0 00-.2-.3h-2.2a.4.4 0 00-.2.3.5.5 0 00.3.4zm3.3 0h2a.4.4 0 00.2-.4.4.4 0 00-.1-.3h-2.2a.4.4 0 00-.2.3.5.5 0 00.3.4zm-12.3 104H3.8v-1.8a.4.4 0 01.7.1v1h1.7a.4.4 0 01.3.3.3.3 0 01-.2.3zm5.7-.6h2a.4.4 0 01.2.3.4.4 0 01-.1.3h-2.2a.4.4 0 01-.2-.3.5.5 0 01.3-.3zm3.3 0h2a.4.4 0 01.3.3.4.4 0 01-.2.3h-2.2a.4.4 0 01-.2-.3.5.5 0 01.3-.3zm3.3 0h2a.4.4 0 01.2.3.4.4 0 01-.1.3h-2.2a.4.4 0 01-.2-.3.5.5 0 01.3-.3zM17.1 44.7l.5.2v.3.3h.4l.6-1.2-.4-.2.3-.8 1.3.7-.3.8-.4-.2-.9 1.7c0 .2-.4.2-.9 0a1.5 1.5 0 01-.5-.4.3.3 0 010-.4zm6 3l-1 .7-.4-.5.3-.1a.2.2 0 000-.1.8.8 0 000-.3l-.5-.6-.4.4.4.7-.2.1-.5-.7-.4.3.3.6.4.2.2-.2.3.5-1 .7-1.5-2.2.7-.4.2.3 1.2-.8-.2-.4.7-.4zm-1 5v-1l-.4-.2v.5H21v-1.5h.8v.5l1.5.6v-.3h.8v1.9h-.8v-.3l-1.5.7v.4H21v-1.5h.8v.5zm1-.5l-.7-.3v.7zm-4.1 5l.4-.5 2.3.5-1-.8-.3.3-.7-.5.9-1.2.7.5-.3.3 1.2 1 .2-.4.7.5-.7 1-2-.5.9.6.1-.2.7.5-.8 1-.6-.4.2-.4zm-.9 4.2l-.6.3-.5-1.2.6-.2.1.2h.3l.4-.2a.4.4 0 00.2-.1.1.1 0 000-.2V60l-.2-.1a.3.3 0 00-.2 0l-.5.2a2.1 2.1 0 01-.6.2.3.3 0 01-.3-.2l-.3-.9a.4.4 0 010-.4 1.2 1.2 0 01.6-.4 1.4 1.4 0 01.4 0 1.3 1.3 0 01.3 0V58l.6-.2.5 1.1-.6.3-.1-.2h-.3l-.4.1c-.2.1-.3.2-.2.3v.2h.1a.2.2 0 00.2 0l.5-.2c.5-.2.9-.2 1 0l.3.8a.5.5 0 01-.1.4 1.3 1.3 0 01-.5.4 1.2 1.2 0 01-.8.1zm-6.3-1.5l-.5-.3.1-.2-.1-.3H11l-.6 1.2.4.2-.4.8-1.3-.7.4-.8.4.2.8-1.7c.1-.2.4-.2 1 0a1.6 1.6 0 01.5.5.3.3 0 010 .3zm-6-3l1-.7.4.5-.2.1a.2.2 0 000 .2.8.8 0 000 .2l.4.6.5-.3-.5-.7.3-.2.5.7.4-.3-.4-.6c-.1-.2-.2-.2-.4-.2l-.1.2-.4-.5 1.1-.7 1.5 2.2-.7.5-.3-.4-1.2.8.3.4-.7.5zm1-5v1l.4.2v-.5h.9v1.5h-.9v-.5L5.8 53v.3h-.9v-1.8h.9v.3l1.4-.7v-.5h.9v1.5h-.9v-.4zm-1 .4l.7.4V52zm4.2-5l-.4.7-2.4-.5 1.1.8.2-.3.7.5-.8 1.1-.7-.5.3-.4-1.2-.8-.2.3-.7-.5.7-1 2 .5-.9-.6-.1.2-.7-.5.8-1 .6.4-.2.4zm.8-4.1l.7-.3.4 1.2-.6.2v-.2h-.4l-.3.2a.4.4 0 00-.2 0 .1.1 0 000 .2v.2l.2.1c0 .1 0 0 .2 0l.5-.2a2 2 0 01.6-.2.3.3 0 01.3.2l.3.8a.4.4 0 010 .5 1.1 1.1 0 01-.6.3 1.5 1.5 0 01-.4.2 1.3 1.3 0 01-.4 0l.1.2-.6.2-.5-1.1.6-.3.1.2q0 .2.3 0l.4-.1c.2-.1.3-.2.3-.4l-.2-.1a.3.3 0 00-.2 0l-.6.2c-.5.2-.8.2-1 0l-.3-.8a.4.4 0 01.1-.4 1.2 1.2 0 01.5-.4 1.3 1.3 0 01.8-.1zm4.6 1.4H14V44a.6.6 0 010-.2.3.3 0 010-.1.3.3 0 01.3-.1.3.3 0 01.2 0 .4.4 0 01.1.3l.6-.4v.2l-.6.4v.3h.6v.2zm-.7-.2v-.3a.7.7 0 000-.2.2.2 0 00-.1 0 .2.2 0 00-.1 0 .2.2 0 00-.2 0 .4.4 0 000 .2v.4h.4zm-1.3-.3a1.3 1.3 0 111.3 1.3 1.3 1.3 0 01-1.3-1.3zm.3 0a1 1 0 111 1 1 1 0 01-1-1zm.3 16h1.3v.6a.6.6 0 010 .2.2.2 0 01-.1.2.3.3 0 01-.2 0 .3.3 0 01-.2 0 .4.4 0 01-.2-.3l-.5.4V61l.5-.4v-.3H14V60zm.7.2v.3a.7.7 0 000 .2.2.2 0 00.1.1.3.3 0 00.1 0 .2.2 0 00.2 0 .3.3 0 000-.3v-.4zm1.2.3a1.3 1.3 0 11-1.2-1.3 1.3 1.3 0 011.3 1.3zm-.2 0a1 1 0 11-1-1 1 1 0 011 1zm-5.3-8.2a4.3 4.3 0 01.4-2 4 4 0 013.7-2 4 4 0 012 .5 4 4 0 011.5 1.5 4.2 4.2 0 01.5 2 3.8 3.8 0 01-.1 1 4.9 4.9 0 01-.4 1 3.8 3.8 0 01-1.4 1.5 4 4 0 01-2.1.5 4.1 4.1 0 01-2.3-.5 3.7 3.7 0 01-1.4-1.5 4.6 4.6 0 01-.4-2zm-.6 0a5 5 0 01.5-2.2 4.5 4.5 0 011.7-1.8 4.6 4.6 0 012.5-.7 4.6 4.6 0 012.4.6 4.4 4.4 0 011.7 1.8 4.7 4.7 0 01.5 2.3 4.3 4.3 0 01-.1 1.1 5.2 5.2 0 01-.4 1.2 4.3 4.3 0 01-1.6 1.7 4.6 4.6 0 01-2.5.6 4.7 4.7 0 01-2.5-.7 4.4 4.4 0 01-1.6-1.7 4.6 4.6 0 01-.6-2.2zm-6.7 0A12 12 0 014.4 47a11 11 0 014-4.3 11.2 11.2 0 016.2-1.7 11 11 0 019.8 5.7 11.7 11.7 0 011.4 5.7 10.9 10.9 0 01-.4 2.8 13.9 13.9 0 01-1 2.7 10.6 10.6 0 01-3.9 4.2 11 11 0 01-6 1.6A11.5 11.5 0 018.5 62a10.7 10.7 0 01-4-4.2 11.7 11.7 0 01-1.3-5.5zM10.6 5.6a1.8 1.8 0 00.7.8 2 2 0 00.8.4h.3a6.2 6.2 0 001.4-.2L16 6zm-.2-2.1l8.6 1v1.7L16.4 6 19 7.5v1.8l-3.4-1.5a4.6 4.6 0 01-.8.4l-.9.3-1 .3a4.6 4.6 0 01-1 0 4 4 0 01-.8 0 3 3 0 01-1.5-.7 2 2 0 01-.4-.7 4.3 4.3 0 01-.3-1l1.3-2 .2.6a2.7 2.7 0 00.3.5zM8.8 9.3L19 10.6v1.8l-3.9-.3 1.2 1.2 2.7.4v1.9L9.6 15v-2.2l5 .4-1.3-1.3-4.5-.3zm0 6.5L19 17.1v1.8l-3.5-.2.2 1.1 3.3.4V22l-9.4-.5v-2.2l4.6.4v-1.2l-5.4-.4zm2.2 10l4.5 1v-1zm-2.2-2.4l10.2.7V26h-2v1l2 .6V29l-9.4-1.3v-2.1l-.8-.1zM19 36.8l-9.4-.5v-2.9h6L9 32l.3-2.8 9.7 1.2V32l-5.7-.4 5.5 1.2.1 1v.8h-5.2l2 .4 1.8.2 1.5.2v1.5zM8.9 66.6l5 .5V69l-1.9-.2-1.6-.2a16 16 0 002.4.8 8.6 8.6 0 002 .3 5.2 5.2 0 001.7-.3 5.4 5.4 0 001.3-.7 14.5 14.5 0 001.4-1.2V70a5.5 5.5 0 01-1.9 1.2 6.2 6.2 0 01-2.3.5 10.4 10.4 0 01-2.4-.3 17.4 17.4 0 01-2.8-1v-2l-1-.2v-1.7zm0 5.4l10.3 1.2V75l-3.5-.2.2 1.1 3.3.4v1.7l-9.5-.5v-2l4.6.3v-1.1L9 74.2V72zm0 6.1l10.3 1.2V81l-4-.3 1.4 1.3 2.7.4V84l-9.6-.5v-2.1l5 .4-1.2-1.3-4.6-.3v-2.2zm7.7 12.1l2.6 1.6v2l-3.6-2-6.8 1.6V91l6.3-.8-5.5-.5v-2.1l5.5.8-6.2-2V84l7 2.5 3.4-1.4V87l-3 1.2 2.9.5v1.7zm-5.5 6.3l6.7 1.2V97zm6.5-2.9l5 .5v1.8l-3.5-.3.1 2.9h3.4v1.8l-4.8.2v-1.1l-8-1v-2l-1-.1v-2.1l9 .6z"/></svg>
