<svg xmlns="http://www.w3.org/2000/svg" viewBox="0 0 65.89 467.41"><title>ehkonika</title><path d="M40.43,3.33c2.2,4.1,11.6,35.4,11.4,40.1-.2,3.4-2.2,4.1-4.1,4.3a16.14,16.14,0,0,1-3.7-.2c-1.5-.2-4.6-.6-5.5.7a33.5,33.5,0,0,0-2,3.5,2,2,0,0,0,.2,1.5,37.36,37.36,0,0,0,3.1,3.8c1.3,1.6,2.7,3.1,4,4.8a52.78,52.78,0,0,1,3.3,4.9c1,1.7,1.1,2.3,1.1,2.6a.75.75,0,0,1-.1.5c-.3.4-.8.4-2,.2a12.89,12.89,0,0,1-3.4-1.4,22.84,22.84,0,0,1-3.9-2.7,14.39,14.39,0,0,1-3.4-4.3,16.09,16.09,0,0,1-1.6-6,17.31,17.31,0,0,1,1.4-7.7h0a2.13,2.13,0,0,0,.2-1.7,2.89,2.89,0,0,0-.6-1c-.2-.2-.5-.2-.9-.1a1.42,1.42,0,0,0-.9.8c-.3.6-.6,1.6-1.1,2.9a26.31,26.31,0,0,0-1,4.6,41.16,41.16,0,0,0-.3,5.1v.7a23.41,23.41,0,0,0,1.2,6.2,19.63,19.63,0,0,0,3.4,5.9,17.5,17.5,0,0,0,1.9,2h0a27.76,27.76,0,0,0,3.1,2.3c3.1,7.1,8.6,16.9,9.2,18.4a21.06,21.06,0,0,1,1.4,5.5,13.51,13.51,0,0,1-.4,4.7,9.6,9.6,0,0,1-1.6,3.2,9.14,9.14,0,0,1-2.4,2c-1.4.9-8.5,3.3-8.5,3.3-1.3-3.7-3.3-9.9-4.2-11.8-1-2.2-2.1-3.6-3.8-3.4-.6.1-.9.6-1.4,1.3a1.11,1.11,0,0,0,.1,1.6,19.93,19.93,0,0,1,3,4.7c1.5,3.1,3.4,7.5,5.1,11.9.6,1.5,2.3,6,2.5,6.6h0l-.1-.1s-23.5-10.7-25-11.3a6.92,6.92,0,0,0-2.8-.8c-.6.1-.8.5-1,1.1a2,2,0,0,0,.1,1.1l6.6,13.5h.5a.88.88,0,0,0,.6-.7,2.07,2.07,0,0,0-.3-1.4c-.3-.5-2.2-4.3-2.5-4.9,1.8.9,24.6,11.3,26.9,12.5,1.1.4,9,25.5,8.8,27.2a.48.48,0,0,1-.2.6c-.3.2-.7.1-1.4-.2-2.8-1.1-9.8-4.9-9.8-4.9-2.1-1.1-5.7-2.8-5.7-.5a6.92,6.92,0,0,0,1.6,3.8q2.25,3,5.4,6.6c2.2,2.4,4.3,5,6.3,7.6a20.51,20.51,0,0,1,4,8.3q.3,1.05-.3,1.5a1.09,1.09,0,0,1-1,.2c-2.6-.5-10.6-4.6-12-5.3a15,15,0,0,0-3.7-1.3c-1.1-.2-1.4.2-1.6,1a7.59,7.59,0,0,0-.2,3.1,19.49,19.49,0,0,0,1.6,5.5c.6,1.6,14.1,29.4,14.8,31.6,1.3,4.2,1.4,5.4,1.4,6a2.68,2.68,0,0,1-.4,1.7c-.7.9-1.6.3-4.7-1.1-.8-.4-4-1.9-6.2-3.2a29.77,29.77,0,0,0-6.2-4.9,2.59,2.59,0,0,0-1.6-.3,1.83,1.83,0,0,0-1.5.6c-.5.7-.6,1.9.1,3.7a12.9,12.9,0,0,0,1,2.2c1.2,1.9,5.2,4,5.2,4,.6.3,1.1.6,1.6.9.2.1.5.3.7.4,4.3,7.7,5.7,13.9,5.8,17.3-1.2-.7-2.8-1.8-3.7-2.4-1.1-.8-3-2.3-4.4-2.4a2.15,2.15,0,0,0-1.5.4,4.81,4.81,0,0,0-1.2,1.6,5.73,5.73,0,0,0-.4,1.4c0,.1-.1.7-.1.8a2.17,2.17,0,0,0,.2,1.2h0a23.29,23.29,0,0,0,.9,2.3c.1.3,7.9,24.5,8.6,29.3-2.9-1.5-5.6-1.5-7.6.2-2.8,2.5-3.3,8-1.8,13.9-.1.1-.1.1-.2.1-1,1.1-1.2,6.8,1.5,6.5l1.1-.3c.1.3,1.5,3,2.2,4.2,1.4,2.8,11.6,26.5,12.4,28.6a21.06,21.06,0,0,1,1.4,5.5,13.75,13.75,0,0,1-.4,4.7,9.6,9.6,0,0,1-1.6,3.2,9.14,9.14,0,0,1-2.4,2c-.8.4-1.7.8-2.5,1.2l-6.1,2.1c-1.3-3.7-3.3-9.9-4.2-11.8-1-2.2-2.1-3.6-3.8-3.4-.6.1-.9.6-1.4,1.3a1.11,1.11,0,0,0,.1,1.6,19.93,19.93,0,0,1,3,4.7c2.4,4.7,5.5,12.7,7.6,18.4,0,0-23.7-10.8-25.1-11.4a6.92,6.92,0,0,0-2.8-.8,1.18,1.18,0,0,0-1,1.1v.4a1.51,1.51,0,0,0,.2.8c.2.3,6.7,13.7,6.7,13.7h.5a.88.88,0,0,0,.6-.7,1.62,1.62,0,0,0-.3-1.4c-.2-.3-1.6-3.2-1.8-3.7s-.4-1-.7-1.6c1.9,1,32.8,15,34.4,15.6,3.4,1.3,3.7.4,3.9,0a4.28,4.28,0,0,0,.6-1.7,6.7,6.7,0,0,0,0-2,9.59,9.59,0,0,0-.3-1.5h0c-.5-.9-12.3-5.9-12.3-5.9l-1.6-4.9c1.1-.4,3.3-1.3,4-1.5a21.4,21.4,0,0,0,5.3-2.4,10.88,10.88,0,0,0,3.7-3.7,14.25,14.25,0,0,0,1.3-7.7,27.61,27.61,0,0,0-1.6-7.3c-.7-2.2-12.7-28.2-12.7-28.2,4.1,4.1,8.8,5.3,11.6,2.8,4-3.6,3.4-13.4-1.5-21.9a27.3,27.3,0,0,0-5.6-7l-10.1-31.3a3.51,3.51,0,0,0,.8.5c1.3.8,4.6,2.4,6.1,3.1s2.8,1.2,4.1,1.7,2.3.8,3,1c.3.1,2.5.7,3.1,0a6.66,6.66,0,0,0,1.2-2,5,5,0,0,0,.3-2.4c-.1-.5-.1-1-.3-1.2a1,1,0,0,0-.7-.4,34.85,34.85,0,0,1-7.6-2.4,54.34,54.34,0,0,0-3.4-15.9c.8.4,1.6.8,2.5,1.2q2.1.9,3.9,1.5c2.5.7,4.3.7,5.3-.1.7-.5.9-1.6.9-3.2a13.76,13.76,0,0,0-.8-4.7c-2.2-6.2-18.2-38-18.2-38a3,3,0,0,1-.3-1.3c0-.3.2-.4.3-.4.3-.1.7.1,1.6.6s2.1,1.1,3.3,1.8a31.33,31.33,0,0,0,4.1,2c3.7,1.5,9,2.8,9.9.1.7-2.2-.1-6-.7-7.6a37.9,37.9,0,0,0-3.3-7,56.89,56.89,0,0,0-5.3-7.1l-1.1-1.2,1.5.6c1.8.7,5.9,2.4,7.2,2.2a1.52,1.52,0,0,0,1.2-.7,3.07,3.07,0,0,0,.5-2.4,14.94,14.94,0,0,0-.8-4c-1.3-4.1-9.4-27.7-9.5-28,2.2,1,3.7,1.5,5.2,2.1a6.89,6.89,0,0,1,.8.3,27.33,27.33,0,0,0,2.7.8h0a1.44,1.44,0,0,0,1.1-.7h0a4.28,4.28,0,0,0,.6-1.7,6.7,6.7,0,0,0,0-2v-.1c0-.4-.1-.5-.1-.9a3.22,3.22,0,0,0-.2-.6c-.4-.8-13.1-6-13-6.2l-1.6-4.9a94,94,0,0,0,9.3-3.9,10.88,10.88,0,0,0,3.7-3.7,14.25,14.25,0,0,0,1.3-7.7,21,21,0,0,0-1.6-7.3c-2-4.7-8.2-15.2-10.4-20.2a30.24,30.24,0,0,0,5.3,2.3,6.9,6.9,0,0,0,3.7.2,2.27,2.27,0,0,0,1.6-1.4,5.42,5.42,0,0,0,.2-2.6,13.62,13.62,0,0,0-.8-3.2,22.25,22.25,0,0,0-1.4-3.1c-.7-1.4-1.5-2.8-2.4-4.3s-2.4-3.5-3.2-4.7c-1.1-1.5-5.1-6.2-5.1-6.2l5.9.5c6.2.4,10.9-6.4,8.5-13.6-.5-1.6-1.2-3.7-1.9-6.1L40.73.43s-.2-.4-.4-.4C39.73-.27,39.53,1.83,40.43,3.33Zm7.7,283.9c3.8,5.6,4.4,11.7,1.4,13.8-2.7,1.9-7.6-.4-11.3-5.1a17.72,17.72,0,0,0,5-4.5,16.65,16.65,0,0,0,2.4-7.2A10.53,10.53,0,0,1,48.13,287.23Zm-5.8-5.8c-.1.2-.1,1.3-3.9,5.3a12.12,12.12,0,0,1-3.6,2.7c-1.3-3.8-1-7.3,1.1-8.7C37.53,279.73,39.93,280,42.33,281.43Z" fill="#fff"/><path d="M1.73,421.73c3.6,19.3,15.1,39.6,15.9,40.6,1.3,1.6,2.5,2.1,3.1,1.5s.2-1.4-1.9-4.8S8.33,440.43,4,421.23s1.1-35.4,15.7-37a18.34,18.34,0,0,1,7.9,1,242.28,242.28,0,0,0,5,43c5.2,25,12.9,40.4,21.5,39.1s16.4-15.9,8.4-41.6c-6-19.4-20.1-37.8-32.3-45.8,0-2.7-.5-3.5-1.5-4s-1.3.5-1.4,2.3a17.48,17.48,0,0,0-8.1-2.5C6.23,375.43-4.27,388.53,1.73,421.73Zm58.4,8.4c7.2,28.2-15.1,48.1-25.8-2.3a191.75,191.75,0,0,1-4.2-41.6C42.23,391.93,54.63,408.43,60.13,430.13Z" fill="#fff"/></svg>