<svg xmlns="http://www.w3.org/2000/svg" viewBox="0 0 120 264"><path fill="#fff" d="M57 67l-5-2h5v2zm4-6H44v2l8 3 8 4 1 1 1 1 2 1v-4h-2v1l-2-1-2-1v-3h4v1h2v-5l-2-1-1 1zM60 75h2v3h-2l-6-1v-2h2v-2l-5-1v2h2v2l-7-1v-3l1-1 1 1v-2l-4-1v10l2 1v-1-1h1l5 2 9 2 1 1 2 1V74l-4-1v2zM57 105l-5-3h5v3zm5-2v1h2v-6h-2l-1 1H44v1l14 7 3 2h1v1h2v-3l-2-1v1l-4-1v-4h4v1zM47 43l-1-1v-1h-2v5h2v-1h1l9 2-11 4h-1v4h2v-1h2l12 3 2 1v1h2v-4l-2-1v1h-1l-9-2 12-4v-2l-15-3-2-1zM48 83l-1-1v-1l-3-1v9l3 1v-1-1h1l4 1 17 5 4 1v2l-1-1h-1v2l3 1 1 1h1v-1-2l-2-6-6-3-15-4-5-1zM50 132a49 49 0 0110 3l2 2h-8l-6-2-2-2v-1h4zm7-1l-3-1-7-1-2 2-1 1v1l1 2 2 2c1 2 4 3 7 3l7 1c2-1 3-2 3-4l-1-2a8 8 0 00-2-3h-1l-3-1zM62 112h-1l-14-3-1-1v-1h-2v6l2 1v-1h1l14 3h1v1l2 1v-6l-2-1v1zM49 120l4 2v2l-7-2v-1l1-1h2zm2-3h-6l-1 2v7l2 1v-1h1l14 3 1 1v1h2v-6h-2v1h-1l-6-2 9-1v-4l-2-1v1l-2 1h-6a7 7 0 00-3-3zM61 144l1 1v2l-1 1h-1l-13-3-1-2h-2v6h2v-1h1l14 4h1v1l2 1v-11l-5-1v2h2zM51 155v-3l-6-1v2l-1 4c0 7 5 11 15 14h11c3-1 5-3 5-6l-2-7-7-2-6-1v7l3 1v-1-1h1l8 2v1l-1 2c-1 1-5 1-12-1l-10-3-2-5v-2l3-1 1 1z" /><path fill="#fff" d="M49 35v-2l-4-1v1l-1 3 2 3 3 3c3 0 5 0 7-2v-1l3-1 3 3v1h-3v2l4 1a11 11 0 001-3v-1l-1-4-5-2c-2-1-4 0-6 2h-1l-3 1-2-2v-1h3z" /></svg>
