<svg xmlns="http://www.w3.org/2000/svg" viewBox="0 0 25.11 49.86">
  <title>grand-gudini</title>
  <g id="Слой_2" data-name="Слой 2">
    <g id="Layer_1" data-name="Layer 1">
      <path d="M11.53,43.59v0c0-.27-.47-.3-.47-.86.72,0,.86.75.86,1.49a.54.54,0,0,0,.51.27l.76-.06c.43-.12.61-.49.61-1a.38.38,0,0,1,.27-.12c.22,0,.22.16.47.16a3.13,3.13,0,0,0,.94-.24l-.16-2.05.08,1.65a6.32,6.32,0,0,1-.78.31h0a.65.65,0,0,1-.2,0,3.73,3.73,0,0,0-.77-1.54,6.33,6.33,0,0,1-.91-1.44l.12,0a2.53,2.53,0,0,0,1.44-.71c.29-.26.88-1,1.1-1.09l-.16.94v1.25l.07.59V41l0-1.25a9.62,9.62,0,0,1,.31-1.84c-.27.07-.57.82-.9.82s-.1-.19-.28-.19h-.12a2.42,2.42,0,0,0-1.6,1.09c-.2.39-.1.71-.74.38a2.28,2.28,0,0,0-1.06-.3h-.24c-.77,0-1.33.91-1.33,1.72v.16c0,.24.07.29.07.54s-.6.51-1,.51c-.22,0-.26-.09-.43-.12V42.4c.17,0,.35-.1.35-.27,0-.67-1.75-1.61-2.58-1.61H5.37C5,40.52,4.92,41,4,41a3.65,3.65,0,0,0-.88,0c-.24.07-.41.29-.61.29H2.44c-.3,0-.27-.38-.63-.54a2.5,2.5,0,0,0-1.1-.12c.07.11.94,1,1.1,1.12.51.49,1.14.05,1.91.16l.35,0V42c-.63.14-1.36.12-2,.24-.37.07-.94.87-1,1.24l.78-.07c.07-.15,0-.27.27-.27h.16l1.61.23c.39.06,1.07-.44,1.6-.44h.31c.52,0,1.34.56,1.37,1a.59.59,0,0,1-.2,0H6.8a4.51,4.51,0,0,1-.73-.33,3.26,3.26,0,0,0-.8-.25v.35c0,.86,1.15,1.65,2,1.65H7.5a2.63,2.63,0,0,0,.6-.12c.18,0,.54,0,.74,0,.39,0,.26-.21.44-.27s.55,0,.67-.07C10.56,44.84,11.53,44.26,11.53,43.59Zm1.25-3.87c0-.26.94-1,1.33-1h0c-.39,0-1.33.76-1.33,1Zm.19.2a.58.58,0,0,1-.19,0h0a.58.58,0,0,0,.19,0h.08s.07,0,.09,0,0,0,0-.09-.12-.09-.12-.23A3.35,3.35,0,0,1,14,39h0c-.25.35-.68.37-.74.62.1,0,0,0,.07,0a4.39,4.39,0,0,0,1.14-.77s-.12-.12-.16-.16l-.2.12h0l.2-.12s.16.11.16.16h0a4.17,4.17,0,0,1-1.14.78c-.09,0,0,0-.08,0,.06-.25.48-.27.73-.61a3.23,3.23,0,0,0-.92.58c0,.14.12.09.12.23s0,.08,0,.09a.12.12,0,0,1-.09,0Zm.35,3L13.25,42v-.31c.2.07.27.64.43.82a2.19,2.19,0,0,1,0-.27V42a.42.42,0,0,1,.31.39v.24c0,.1-.4.86-.47,1-.16.4-.44.5-1,.5h-.24c-.19,0-.13-.49-.16-.69a5.27,5.27,0,0,0-.22-.67H12c.25,0,.7.13.7.35h0v0c0,.17-.47.35-.47.54v0c0,.07,0,.12.08.12a2.34,2.34,0,0,0,.44-.19c.13-.06.42-.12.42-.24v0c0-.23-.17-.84-.22-1.14A6.91,6.91,0,0,1,12.85,41C13.16,41.23,13,42.63,13.32,42.9ZM9.47,42v-.12a4.06,4.06,0,0,1,.3-1.31,1.1,1.1,0,0,1,1-.61h0a2.61,2.61,0,0,1,1,.3,4.4,4.4,0,0,1,.48.18c.12.08.23.2.37.3l0,.51v.63c0,.47.22.69.23,1-.19-.1-.57-.38-.82-.37h-1v0h-.39c-.54,0-.76.72-1,.86Zm-.65,3.08L8.7,45H7.21a1.73,1.73,0,0,1-1.84-1.52c.32,0,1.28.74,1.57.74s.51-.18.5-.42-.24-.44-.4-.57a2.7,2.7,0,0,0-1.38-.57H5.42c-.63,0-1,.43-1.48.43H3.55c-.41,0-.87-.23-1.25-.23H2s-.45.2-.51.23c.13-.49.8-.59,1.45-.59s1.3-.2,1.4-.66a1.57,1.57,0,0,0-.7-.17l-1.21.09H2.3a6.4,6.4,0,0,1-1.25-1c.86,0,.9.63,1.53.63.43,0,.5-.31.9-.34a3.69,3.69,0,0,1,1,.2c.28-.15.59-.51,1-.51h.23c2.34,0,2,2.46,1.6,2.27l0,.33.35-.5,0,0-.11.56.28-.56.5.08c.24,0,.71-.33.86-.43,0,1.48.71,1.23,1.8,1.48a3.53,3.53,0,0,1-1,.64,2,2,0,0,1-.64.18C8.85,44.83,9,45.07,8.82,45.07Z" fill="#fff" fill-rule="evenodd"/>
      <path d="M16.31,14.9v-.12H16v1.37h.31l.07-.47.51-.1H19c1,0,1.84.12,1.84,1.14s-.61,1.1-1.53,1.1H16.62c-.14,0-.14,0-.27-.08l-.05-.43H16V19.2h.31V19c0-.44,1.12-.27,1.57-.27a13.14,13.14,0,0,0,1.78,0c.65-.12,1-.05,1.36-.44a2,2,0,0,0,.42-1.38v-.12c0-1-1-1.48-2-1.49-.59,0-1.18,0-1.76,0S16.31,15.39,16.31,14.9Z" fill="#fff" fill-rule="evenodd"/>
      <path d="M12.24,35.37a7,7,0,0,0,1-1.56,6.84,6.84,0,0,0,.43-2.16v-.86a5.66,5.66,0,0,0-2-4.16,8,8,0,0,0-4.43-1.71v0a7.41,7.41,0,0,0,4.37-1.65A6.23,6.23,0,0,0,13,21.6a6.3,6.3,0,0,0,.69-2.27V18.15A6.3,6.3,0,0,0,13.25,16a5.67,5.67,0,0,0-.44-.85,8.38,8.38,0,0,1-.57-.72l1.21-.56v-.42H7.55v3.32h.74V14.87h2.78c.35,0,1.1,1.11,1.27,1.43a5.17,5.17,0,0,1,.53,2.16v0c0,3.21-2.57,4.77-5.79,4.77H6.54a7.74,7.74,0,0,1-3.78-1.15A4.05,4.05,0,0,1,.83,19.17v-.71a4.85,4.85,0,0,1,.82-2.62A2.61,2.61,0,0,1,3.8,14.55v-.82H.2v.82H1.6L2,14.5v.16C1,14.68,0,17.23,0,18.45V19a6.14,6.14,0,0,0,6.1,5.86c-.09.07-1.06.19-1.25.24a7.6,7.6,0,0,0-1.14.35,6.19,6.19,0,0,0-1.8,1.16,4.78,4.78,0,0,0-1.27,1.7A6.6,6.6,0,0,0,0,30.65v.7a5.83,5.83,0,0,0,.61,2.32,3.93,3.93,0,0,0,.57.93,3.33,3.33,0,0,0,.35.39c.2.15.4,0,.43.27l-.51,0H.21v.91H3.85v-.86h0c-1.85,0-3-2.05-3-3.91v-.59a4,4,0,0,1,2-3.1,8.07,8.07,0,0,1,4-1.12h0c3.3,0,6,1.48,6,4.77v.07a5.43,5.43,0,0,1-.52,2.14,5.8,5.8,0,0,1-.52.8,8.91,8.91,0,0,0-.63.66H8.29V33.07H7.55v3.32h5.9V36Z" fill="#fff" fill-rule="evenodd"/>
      <path d="M21.1,38.08h.16V36.24H21c0,.37-.14.37-.42.48s-.45.13-.67.22c-.42.17-.87.28-1.31.45s-.95.32-1.32.44-.93.35-1.32.44v.43l5,1.54.09.41h.26V39.29H21l-.05.44a.5.5,0,0,1-.19,0c-.21,0-1.09-.19-1.11-.35V38c0-.12.92-.39,1.06-.39h.12C21.09,37.65,20.86,38.08,21.1,38.08Zm-1.83,1.28-2-.61,2-.66Z" fill="#fff" fill-rule="evenodd"/>
      <path d="M19.85,41.76a8.27,8.27,0,0,1-1.38.66A1.42,1.42,0,0,0,17,41.53a.93.93,0,0,0-1,.82V45h.19c.29,0-.12-.5.47-.5h4c.43,0,.16.5.43.5h.16V43.09H21l-.05.39-.07.07-.65.06H16.52c-.09,0-.12,0-.12-.12v-.35a.77.77,0,0,1,.78-.74h.23c.45,0,1.06.27,1.06.67v.31c.22,0,2.25-1.2,2.82-1.33V40.9H21C21,41.27,20.16,41.64,19.85,41.76Z" fill="#fff" fill-rule="evenodd"/>
      <path d="M19.48,47.24l0-.59a.32.32,0,0,1,.23-.08h1c.15,0,.28.46.28.63v.31c0,.78-1.21,1.44-2,1.44h-.54a2.45,2.45,0,0,1-1.28-.29c-.49-.24-.48-.4-.75-.81l-.05-.54v-.23c0-.49.39-.73.47-.94l.51,0h.19v-.23l-1.21-.11a3,3,0,0,0-.39,1.4v.51a2.39,2.39,0,0,0,2.27,2.19h.63a2.41,2.41,0,0,0,2.62-2.23v-.27A4.16,4.16,0,0,0,21,45.72H19.6c-.18-.13-.14-.28-.27-.28h-.16v1.8Z" fill="#fff" fill-rule="evenodd"/>
      <path d="M21.4,31.71H16.67c-.27,0-.35-.08-.35-.35V31.2H16v1.37h.31c0-.48,0-.49.51-.51.31,0,.67,0,1,0h2l0,0L16,34.61l0,0v1.25h.31V35.5c0-.15.2-.19.35-.19h4c.14,0,.15,0,.27,0,0,.18,0,.47.16.47h.2V34.44H21v.31c0,.09,0,.09-.08.16L17.22,35l4.11-2.74Z" fill="#fff" fill-rule="evenodd"/>
      <path d="M19.31,19.67h-.12v1.76h.28l0-.59a.37.37,0,0,1,.23-.07h1c.2,0,.28.51.28.74v.19a1.64,1.64,0,0,1-.86,1.14,3.69,3.69,0,0,1-1.64.35c-1,0-2.15-.51-2.15-1.49v-.39a1.38,1.38,0,0,1,.55-1c.28,0,.62,0,.62-.23L16.34,20a2.52,2.52,0,0,0-.43,1.39v.28c0,1.61,1.17,2.46,2.78,2.46a2.44,2.44,0,0,0,2.74-2.39v-.23A5.71,5.71,0,0,0,21,19.9a.59.59,0,0,1-.2,0h-1.1C19.48,19.94,19.46,19.67,19.31,19.67Z" fill="#fff" fill-rule="evenodd"/>
      <path d="M21.28,30.58v-2a2.61,2.61,0,0,0-2.74-2.31h-.2a2.79,2.79,0,0,0-1.6.39A1.78,1.78,0,0,0,16,27.85v3h.31c0-.34,0-.51.35-.51h4.15C21,30.31,21,30.57,21.28,30.58Zm-4.86-1.13,0-.35v-.47c0-1.09.94-1.48,2-1.48h.31c1,0,2.14.49,2.14,1.52v.54c0,.12,0,.24-.16.24Z" fill="#fff" fill-rule="evenodd"/>
      <path d="M16.31.16V0H16l.05.67v.54l0,.67h.31c0-.57.15-.51.75-.51h3.32l.5,0c.05.06.08.06.08.15v.31h.31V0H21a2.19,2.19,0,0,0,0,.27V.43c-.14,0-.14.08-.27.08h-4C16.39.51,16.31.43,16.31.16Z" fill="#fff" fill-rule="evenodd"/>
      <path d="M12.55,6.1H12.3c-.5,0-.36.58-.45,1s-.38.76-.69.76c-.09,0-.12,0-.12-.12v0c0-.34.47-.39.47-.86v0c0-.41-.59-.8-.86-.93a2.81,2.81,0,0,0-1.44-.36c-.2-.38-.46-.23-.9-.23s-.39-.12-.63-.12H7.21A2,2,0,0,0,5.26,7v.12c.62,0,1.23-.55,1.48-.55H7c.07,0,.12,0,.12.08,0,.34-.89.94-1.33.94H5.5c-.65,0-1-.44-1.57-.44H3.62a6.1,6.1,0,0,0-1,.16c-.48.07-.6.21-.82-.18L1,7A2.54,2.54,0,0,0,2,8.27a8.93,8.93,0,0,0,1,.1c.39,0,.69.11,1,.12V8.6l-.35.05c-.67.1-1.34-.33-1.87.12-.11.1-1,1.07-1.06,1.13a.5.5,0,0,1,.12,0,2.46,2.46,0,0,0,.86-.11c.45-.2.3-.35.51-.51-.17-.09-.62.51-1,.54H1.1a4,4,0,0,1,1.25-1c.39,0,2,.21,2-.16,0-.14-.42-.4-.56-.46a2,2,0,0,0-.89-.13c-.61,0-1.29-.15-1.41-.59.2,0,.41.23.59.23H2.2c.52,0,1.07-.27,1.53-.27.79,0,1.06.47,1.72.47h.27c.58,0,1.76-.67,1.76-1.21,0-.2-.29-.35-.51-.35H6.9c-.18,0-1.16.67-1.49.74a1.44,1.44,0,0,1,.9-1.29c.74-.38,1-.19,1.88-.24l.78,0c.08.33.8.31,1.18.47a2.76,2.76,0,0,1,1,.63c-.62.14-.78,0-1.35.3a1.3,1.3,0,0,0-.45,1.19,1.41,1.41,0,0,0-1-.44A1.2,1.2,0,0,0,8,7.72l-.33-.64.12.63h0l-.36-.53,0,.41.11-.1a1,1,0,0,1,.2.44A1.64,1.64,0,0,1,6,9.78H5.52a1.15,1.15,0,0,1-.91-.47c-.37,0-.51.16-.78.16H3.36c-.29,0-.29-.27-1-.27v0l.2,0c.21.05.24.21.65.28a6.42,6.42,0,0,0,.87,0h0c.67,0,.86.47,1.33.47h.16a3.42,3.42,0,0,0,1.54-.5c.24-.15,1.08-.69,1.08-1V8.37c0-.13-.17-.22-.31-.23a.28.28,0,0,1,.31-.2h.24c.3,0,.9.14.87.47l-.09.78a2.45,2.45,0,0,0,.42,1.18,1.41,1.41,0,0,0,1.15.5h0c.55,0,1.17-.43,1.37-.43h.12c.22,0,.22.39.31.56a1.62,1.62,0,0,0,.43.47,2.56,2.56,0,0,0,1.18.57h.07c.12,0,.17-.14.2-.23h.09c.25,0,.61.77.88.86l-.29-1.48c-.12.19.06.8.08,1h-.08A5.16,5.16,0,0,0,13,10.44h-.31a8,8,0,0,1,1-1.46,3.84,3.84,0,0,0,.46-.76c.09-.16.26-.79.42-.79a7.14,7.14,0,0,1,.87.31l0,1,.2-1.29a1.48,1.48,0,0,0-1-.31c-.19,0-.28.16-.5.16C13.52,7.31,14.31,6.1,12.55,6.1Zm-1.69,4.46h-.27c-.86,0-1.13-1.25-1.13-2.15V8.34c0-.34.18-.85.19-1.1h.12a1.19,1.19,0,0,0,1.06.9h0c.29,0,.71-.06,1.14-.07s.61-.33.9-.35c-.07.32-.27.52-.27.94v.27l.05.86A3.06,3.06,0,0,1,10.86,10.56ZM14,8a.47.47,0,0,1-.35.47V8.36a2.19,2.19,0,0,1,0-.27c-.16.19-.2.74-.43.82V8.52l.09-.86c-.3.34-.2,1.7-.47,1.88A12.57,12.57,0,0,1,13,8.25c0-.3.27-1.06.27-1.13s-.2-.22-.37-.29a4.76,4.76,0,0,0-.49-.22c-.09,0-.12,0-.12.12v0c0,.18.47.37.47.51s-.36.43-.63.43v0h-.23a2.9,2.9,0,0,0,.27-1.05V6.33h.43c.67,0,.77.14,1,.58A5.72,5.72,0,0,1,14,8Z" fill="#fff" fill-rule="evenodd"/>
      <path d="M16.3,3.72V3.41c0-.11.1-.15.16-.2l.78,0h2.58A26.42,26.42,0,0,1,16,5.67V6.92h.31V6.61c0-.19.49-.2.71-.2h3.36l.5,0c.11.2,0,.46.2.46h.2V5.55H21L20.93,6l-3.68,0,4.07-2.71.09-.54-.67,0H16.87l-.53-.07c0-.15,0-.43-.16-.43H16V3.72Z" fill="#fff" fill-rule="evenodd"/>
      <path d="M20.91,7.9,20.29,8H17.23l-.81-.05a.48.48,0,0,1-.12-.34V7.47h-.19c-.09,0-.12,0-.12.12V9.31h.19c.15,0,.16-.29.16-.43l.9-.09h3l.66,0a.37.37,0,0,1,.08.23V9.3h.31V7.46h-.2C20.91,7.46,21,7.72,20.91,7.9Z" fill="#fff" fill-rule="evenodd"/>
      <path d="M24.6,24.53V25c0,4.23-.93,8.08-2.62,10.6v.68a13,13,0,0,0,2.2-4.43c.12-.47.25-.82.35-1.33s.17-.9.27-1.37a18.92,18.92,0,0,0,.31-3V24.45A12.48,12.48,0,0,0,25,22.81c-.06-.39-.17-1.1-.19-1.49a19.65,19.65,0,0,0-.61-2.78C24,17.46,22.65,14.46,22,14v.66A19.46,19.46,0,0,1,24.6,24.53Z" fill="#fff" fill-rule="evenodd"/>
      <path d="M18.33,9.87C17,9.87,16,10.43,16,11.78v.39l0,2.27h.16c.24,0,.05-.37.21-.46a4.32,4.32,0,0,1,.57-.05h3.6c.55,0,.36.26.71.27v-2a2.6,2.6,0,0,0-2.78-2.31h-.16Zm.32.89c1.19,0,2.23.44,2.23,1.64h0v.4a2.23,2.23,0,0,1,0,.27H16.42a.59.59,0,0,1,0-.2v-.7c0-.92.94-1.41,1.88-1.41Z" fill="#fff" fill-rule="evenodd"/>
    </g>
  </g>
</svg>
