<svg xmlns="http://www.w3.org/2000/svg" viewBox="0 0 192.8 192.8"><g fill="#fff" fill-rule="evenodd" clip-rule="evenodd"><path d="M130.4 44.3c6-3 9.2-2.5 9.3.5 0 4-.6 9.2-1 13-2.3 20.7-6 37.5-6.3 58.8a798 798 0 0 1 29-66c3.5-7 5.7-5.7 8.5-7 11-4.9 11.3-1.8 9.9 4.2-5.3 22-18.8 91.4-20.9 102-.6 3.1-4 1.9-4.8.7-4-5.4-8.4-5.5-8-9.1 2.6-17.7 11.4-62.5 13.7-73a834.4 834.4 0 0 0-30 70.8c-1.4 3.6-3.8 3.3-5.3.7-2.1-3.8-6.2-5.7-6.8-10-2.2-13.9 2.4-40.4 3-57.3-6.3 18.3-17 54-21.6 70.1-2 6.7-8.4 5.5-6.7-.9 7.1-27 22.4-74.8 29-91.9 1.6-4.1 5.7-3.9 9-5.6zM91.8 41c-2.1-.5-8.2 2.8-11.9 3.3a4.5 4.5 0 0 0-2.6 2.4 1017 1017 0 0 0-15.7 38.1 712 712 0 0 0-20.3 4l16.3-41c2.7-6.7-4.3-7.4-7-.7C47 55.7 40.5 72 33.2 90.8a336 336 0 0 0-17 4.6c-4.4 1.1-4.6 2.3-2.7 5 1 1.3 3.1 1.2 4.1 2.3 2.6 2.6 4.1 5.8 8.7 6.2a936 936 0 0 0-11.8 32.6c-2.3 6.8 4.3 8.2 6.8 1 4-11.4 8.3-23 12.7-34.6l20.5-4.5a494.5 494.5 0 0 0-12.3 37.8c-.3 1.3.3 1.9.5 2.5 2.1 3.1 4.3 3.3 7.1 7.2.7 1.1 3.3 1.7 4.2-1a1241.2 1241.2 0 0 1 17.8-50.3c2.4-.6 6.7-1.6 9.4-5.5 4.6-7 6-5.6 7.2-7.7 1.4-2.7.4-5-4.6-4.5l-5.4.5c5.5-14.2 10.5-26.2 14-35.4 1-3.2 1.2-5.6-.6-6z"/><path d="M86.3 129.2l2.2-3.1c3-4.4.1-7-3-4.4l-1.3 1.3a980.9 980.9 0 0 1-1.4-4.6c1.4-1.7 2.7-3.5 3.9-5.3 4.8-7.5-4.7-11.8-8.8-7-2.2 2.6-1.6 5.2-1 7.4l.8 2.8a105 105 0 0 0-4.4 5c-4.7 5.3-3.4 12.3 1.6 13.9 3 .9 5.8-.5 8.2-2.6l.4.9c1.3 3.2 5.4 2.2 3.8-1.7l-1-2.6zm-6.7-6.9l1.3 3.9c-.6.4-1.1.9-1.7 1.2-2 1.1-3.3 0-.8-3.4l1.2-1.7zm1.5-9.5l-.3-1c-1.3-5.2 4.6-3.8 1.6-.4l-1.3 1.4z"/></g></svg>
