<svg xmlns="http://www.w3.org/2000/svg" viewBox="0 0 59.79 22.92"><path fill="#fff" d="M3.9 2.95L6 0h1.56L4.68 4 7.8 8.39H6.24L3.9 5.09l-2.34 3.3H0L3.12 4 .24 0H1.8zM13.02 2.65h1.08v5.76h-1.2V4.63l-3 3.78H8.82V2.65h1.2v3.78zM18.83 5.17l2.11-2.52h1v5.76h-1.2V4.63l-1.87 2.22-1.86-2.22v3.78h-1.2V2.65h1zM27.18 8.41V6.27a2.46 2.46 0 01-1.45.42 2.24 2.24 0 01-1.66-.63 2.35 2.35 0 01-.62-1.71V2.67h1.2v1.68a1.25 1.25 0 00.35.9 1.14 1.14 0 00.85.36 2 2 0 00.7-.12 1.76 1.76 0 00.48-.24l.15-.12V2.67h1.19v5.76zM34.25 2.65h1.08v5.76h-1.21V4.63l-3 3.78h-1.07V2.65h1.2v3.78zM37.54 7.63a3 3 0 013.36-4.82 3 3 0 01.83.58l.25.28-.78.78a2.11 2.11 0 00-.18-.24 2.43 2.43 0 00-.52-.37 1.7 1.7 0 00-.86-.23 1.66 1.66 0 00-1.26.56 2 2 0 000 2.72 1.71 1.71 0 002.12.33 1.94 1.94 0 00.58-.45l.18-.22.78.78-.1.13a3.39 3.39 0 01-.31.29 5.6 5.6 0 01-.49.36 3.66 3.66 0 01-.67.28 2.62 2.62 0 01-.83.13 2.85 2.85 0 01-2.1-.89zM42.64 3.73V2.65h5.15v1.08h-2v4.68H44.6V3.73zM53.98 2.65l-2.22 2.4 2.39 3.36h-1.32l-1.85-2.58-.91 1v1.62h-1.2V2.69h1.2v2.58l2.46-2.58zM59.73 8.41h-1.2v-.6l-.08.08-.22.17a3.13 3.13 0 01-.36.22 2.75 2.75 0 01-.49.17 2.32 2.32 0 01-.59.07 2.13 2.13 0 01-1.46-.51 1.5 1.5 0 01-.58-1.16 1.68 1.68 0 01.45-1.19 2.12 2.12 0 011.23-.61l2.1-.36a1 1 0 00-.34-.77 1.2 1.2 0 00-.86-.31 1.75 1.75 0 00-.83.19 1.4 1.4 0 00-.51.38l-.16.21-.78-.78a.77.77 0 01.1-.12 2.33 2.33 0 01.27-.26 3.72 3.72 0 01.45-.33 2.42 2.42 0 01.64-.26 2.81 2.81 0 01.82-.12 2.44 2.44 0 011.73.63 2 2 0 01.67 1.54zm-2.76-1a1.52 1.52 0 001.15-.44 1.78 1.78 0 00.41-1.25v-.11l-1.86.3a1 1 0 00-.53.26.73.73 0 00-.19.52.64.64 0 00.27.5 1.24 1.24 0 00.75.26zM3.23 17.89l-1.43 2 1.43 2.05H2.04L.6 19.89l1.44-2zm2.41 0l-1.44 2 1.44 2.05h-1.2L3 19.89l1.44-2zM13.92 14.4v8.41H12.6v-7.2H9.54v1.31a21.23 21.23 0 01-.18 3 5.33 5.33 0 01-.53 1.86 2.11 2.11 0 01-.78.87 2 2 0 01-1 .24 2.45 2.45 0 01-.46 0 2.64 2.64 0 01-.37-.1h-.13v-1.26a2.09 2.09 0 00.65.12 1 1 0 00.6-.18 1.56 1.56 0 00.47-.64 4.79 4.79 0 00.33-1.45 23.18 23.18 0 00.1-2.42v-2.52zM20.1 17.05h1.08v5.76h-1.21v-3.78l-3 3.78H15.9v-5.76h1.2v3.78zM23.39 22.03a3 3 0 013.36-4.82 3 3 0 01.83.58l.25.28-.78.78a2.11 2.11 0 00-.18-.24 2.43 2.43 0 00-.52-.37 1.73 1.73 0 00-.86-.23 1.68 1.68 0 00-1.26.55 1.91 1.91 0 00-.54 1.37 1.89 1.89 0 00.54 1.36 1.69 1.69 0 001.26.56 1.73 1.73 0 00.86-.23 1.94 1.94 0 00.58-.45l.18-.22.78.78-.11.13a2.1 2.1 0 01-.3.29 5.6 5.6 0 01-.49.36 3.66 3.66 0 01-.67.28 2.62 2.62 0 01-.83.13 2.85 2.85 0 01-2.1-.89zM33.29 17.05h1.08v5.76h-1.19v-3.78l-3 3.78h-1.07v-5.76h1.2v3.78zM39.64 22.81v-2.16a2.4 2.4 0 01-1.44.42 2.22 2.22 0 01-1.66-.63 2.35 2.35 0 01-.62-1.71v-1.68h1.2v1.68a1.25 1.25 0 00.35.9 1.13 1.13 0 00.85.36 2 2 0 00.7-.12 1.76 1.76 0 00.48-.24l.14-.12v-2.46h1.2v5.76zM47.62 17.05l-2.22 2.4 2.39 3.36h-1.31l-1.86-2.54-.9 1v1.62h-1.2v-5.76h1.2v2.58l2.46-2.58zM53.37 22.81h-1.19v-.6l-.08.08-.22.17a3.13 3.13 0 01-.36.22 2.75 2.75 0 01-.49.17 2.32 2.32 0 01-.59.07 2.15 2.15 0 01-1.46-.51 1.53 1.53 0 01-.58-1.16 1.68 1.68 0 01.45-1.19 2.12 2.12 0 011.23-.61l2.1-.36a1 1 0 00-.34-.77 1.2 1.2 0 00-.86-.31 1.78 1.78 0 00-.83.19 1.4 1.4 0 00-.51.38l-.16.21-.78-.78.1-.12a2.33 2.33 0 01.27-.26 4.84 4.84 0 01.46-.33 2.34 2.34 0 01.63-.26 2.86 2.86 0 01.82-.12 2.44 2.44 0 011.73.63 2 2 0 01.67 1.54zm-2.76-1a1.52 1.52 0 001.15-.44 1.78 1.78 0 00.41-1.25v-.11l-1.86.3a.89.89 0 00-.52.26.69.69 0 00-.2.52.62.62 0 00.28.5 1.18 1.18 0 00.74.26zM56.18 19.92l-1.44-2h1.2l1.44 2-1.44 2.05h-1.2zm2.4 0l-1.44-2h1.2l1.44 2-1.44 2.05h-1.16z"/></svg>
