<svg xmlns="http://www.w3.org/2000/svg" viewBox="0 0 351.1 1499.87"><title>house</title><path d="M143,1250.52c-8.32,6.61-4.27,9.15-5.23,22.68-.81,21.32,3.77,32.88-8.43,31.83-36.17-.46-27.72-2.44-28.76,29-2.64,13.34,19,7.12,31.11,8.44,4.88-.46,6.66,5.86,6.08,7.57.34,64-9.39,36,69.77,76.5,13.85,5.57,21.5,12.43,24.28,7.18,1.17-14,1.85-35.41-5.8-36.15-70.79-34-82.67-32.07-79.77-49.35-2-11.17,49.08-3.73,72.36-5.75,19.52,3.7,13.27-16.1,12.69-34.56-5.13-10.28-90.69,6.37-85.05-9.65-.3-18.3,8.21-13.14,20-20.71L223,1251.33c5-1.72,10.51-4.88,9.06-17.84,1.28-31.77-2.29-21.28-19.69-14.74Zm25.51,249.35C77.3,1496.22,3.65,1422.56,0,1331.4H35.07c3.59,71.86,61.54,129.81,133.39,133.41ZM351.1,1331.4c-3.65,91.16-77.3,164.82-168.46,168.47v-35.06c71.85-3.61,129.8-61.55,133.39-133.41ZM182.64,1148.76c91.15,3.65,164.81,77.31,168.46,168.47H316c-3.59-71.85-61.54-129.8-133.39-133.4ZM0,1317.23c3.65-91.16,77.3-164.82,168.46-168.47v35.07c-71.85,3.59-129.8,61.54-133.39,133.4Z" fill="#fff"/><path d="M165.1,740.73c.93,37.32,54.81,39.84,55.68-1.51C218.19,703.94,167.63,701.11,165.1,740.73Zm-34.13,0c2.48-129.83,98.6-155.77,121.36-31.49C273,874.58,138.11,912.22,131,740.73Zm11.89-247.18c-12.07,3.45-7.67-12.57-8.44-28.44,1.22-31.06-3-49.15,2.91-58.38,3.37-7,36.82-13.69,69.5-25.13,25-6,38.82-17.62,43.55-7.73-.62,50.71,6,82.49-8.32,88.36-1.33.39,1.25,3,1.36,4.09,25.52,51.42,7.8,152.92-52.18,154-21.22-2.48-56,7-56.77-8.23-.32-1.36.12-52.41-.05-64.48-.13-1.66-.36-9.67,8.08-10.74,22.79-2.18,60.31,7.31,72.33-11.17,12.92-16.36,3.87-44.13-19.1-46.54-7.07-2.26-45.66,12.82-52.88,14.36ZM132.56,80.81c5.45-47.49,37.5-97,52.95-75.74A16.49,16.49,0,0,1,187.05,9c2.48,7.86,20.3,64.24,23.9,75.66-.15,1,5.05,8.19-1.82,15.14-10.73,8.34-16.61-1.63-20.35-12.3-7-8.44-17.35-3.86-21.52,7.79C151.58,139.43,230.8,163.33,220.79,80c-.81-10.71,24-8.82,30.48-6.32,3.58,2.08,3.86,7.43,3.57,10.06,1.77,52.62-6.66,98.23-36.15,124.66C149.91,256.07,122.59,124.6,132.56,80.81Zm3.83,138.85c.69-1.64,5.43-3.5,6.72-3.19,43.08-2.27,14.76,9.52,33,26,17.37,13.86,59.26-32.73,74,9.18,1,3.4,1.55,102.15-.12,105.76-1.56,2.62-3.59,4.55-7.58,4.67-42,1.87-16.25-7-32.06-24.85-15-17.09-67,36.25-75.91-15.64C135.42,309.11,132.06,219.78,136.39,219.66Zm111.44,629c5,1.4,2.39,21.28,3,41.38-1.35,28.73,3.4,33.85-3.29,45.5-7.13,10.25-69.78,19.27-75.32,29.95-6.14,8.31-2.08,21.14,8.84,24,85.41,6.4,67.83-24.51,69.77,72.43-.53,2.09,2.2,4-4.5,9.68-1.24.3-3.83,1.36-3.32,1H110.39c-5-.08-13.76,1.53-14.16-9.2,2.64-50.62-8.58-75.3,12.64-73.32,26.08,2.22,25.91-11.16,25.56-24.27V903.16h.29c-2-11.08,6.8-23.81,17.33-26.07l89.55-28.37C241.83,849.36,242.5,846.66,247.83,848.7Z" fill="#fff"/></svg>