<svg xmlns="http://www.w3.org/2000/svg" viewBox="0 0 8.4 61.24">
  <g id="Layer_2" data-name="Layer 2">
    <g id="Layer_1-2" data-name="Layer 1">
      <g>
        <path d="M10.2,55.31v1.32H4.14l6.06,4.68v1.13H1.8V61.13H7.86L1.8,56.44V55.31Z" transform="translate(-1.8 -1.2)" fill="#fff"/>
        <path d="M5.88,48.53,1.8,45.29V44.14h8.4v1.32H4.08l3.84,3.07L4.08,51.59H10.2V52.9H1.8V51.77Z" transform="translate(-1.8 -1.2)" fill="#fff"/>
        <path d="M1.8,35h8.4v1.32H3v4.14h7.2v1.32H1.8Z" transform="translate(-1.8 -1.2)" fill="#fff"/>
        <path d="M9,31.25V26.51h1.2v6.06H1.8V26.63H3v4.62H5.22V27.59h1.2v3.66Z" transform="translate(-1.8 -1.2)" fill="#fff"/>
        <path d="M1.8,24.71V21.36a2.79,2.79,0,0,1,.79-2,2.55,2.55,0,0,1,1.91-.81,2.59,2.59,0,0,1,1.92.81,2.82,2.82,0,0,1,.78,2v2h3v1.31ZM3,21.36v2H6v-2a1.43,1.43,0,0,0-.43-1.06,1.41,1.41,0,0,0-1.07-.44A1.49,1.49,0,0,0,3,21.36Z" transform="translate(-1.8 -1.2)" fill="#fff"/>
        <path d="M10.2,9.48V10.8H4.14l6.06,4.68v1.14H1.8V15.3H7.86L1.8,10.62V9.48Z" transform="translate(-1.8 -1.2)" fill="#fff"/>
        <path d="M1.8,1.2h8.4V2.52H7V4.44l3.24,1.8V7.68L6.84,5.76a.67.67,0,0,1-.08.18,2.58,2.58,0,0,1-.26.41,3.16,3.16,0,0,1-.45.51,2.64,2.64,0,0,1-.7.4,2.58,2.58,0,0,1-1,.18,2.45,2.45,0,0,1-1.83-.77A2.65,2.65,0,0,1,1.8,4.74ZM3.4,5.72a1.3,1.3,0,0,0,1,.4A1.37,1.37,0,0,0,5.76,4.74V2.52H3V4.74A1.3,1.3,0,0,0,3.4,5.72Z" transform="translate(-1.8 -1.2)" fill="#fff"/>
      </g>
    </g>
  </g>
</svg>
