<svg xmlns="http://www.w3.org/2000/svg" viewBox="0 0 36 74.4"><path fill="#fff" d="M12.8 53.8V51h.1v.2a.7.7 0 00.2.6.9.9 0 00.6.1h5.9a1 1 0 00.6-.1.7.7 0 00.2-.6v-.2h.1v3h-.1v-.2a.7.7 0 00-.8-.8h-5.9a1.1 1.1 0 00-.6.1c-.1.1-.2.3-.2.7v.1zM12.7 47l5.6-4.2h-4.7q-.8 0-.8.8v.2h-.1v-2.4h.1v.2q0 .8.8.8h7v.1l-6.4 4.8h5.3a.8.8 0 00.6-.2 1 1 0 00.2-.6v-.2h.1v2.4h-.1v-.2a.7.7 0 00-.8-.8h-5.9a2.2 2.2 0 00-.6.6 1.3 1.3 0 00-.2.7h-.1zM12.6 33.9l2.6-.1v.1a3.5 3.5 0 00-1.7 1 2.5 2.5 0 00-.1 2.9 2.7 2.7 0 001.2 1 6.5 6.5 0 002 .3 4.9 4.9 0 001.8-.3 2.4 2.4 0 001.2-1 2.7 2.7 0 00.4-1.5 2.8 2.8 0 00-.3-1.3 5.3 5.3 0 00-1.3-1.2l.1-.2a3.8 3.8 0 011.5 1.3 3.7 3.7 0 01.5 1.8 3.5 3.5 0 01-1.4 3 4.4 4.4 0 01-2.5.7 3.9 3.9 0 01-2-.5 4 4 0 01-1.5-1.4 4 4 0 01-.6-2A3.6 3.6 0 0113 35a.4.4 0 00.2-.3l-.1-.3a2.4 2.4 0 00-.5-.2V34zM14.6 29.4l2.9 1.2v-2.4l-2.9 1.2zm6 3.4h-.2a.8.8 0 00-.3-.5 2.9 2.9 0 00-.8-.5l-6.6-2.7V29l6.6-2.7a4.5 4.5 0 00.6-.3.8.8 0 00.3-.3 1 1 0 00.2-.5h.1v2.9h-.1c-.1-.5-.3-.7-.5-.7a1.2 1.2 0 00-.4 0L18 28v2.7l1.4.6h.2l.1.1h.2a.4.4 0 00.3-.2 1 1 0 00.2-.5h.1zM12.7 22.1l5.6-4.2h-4.7q-.8 0-.8.8v.2h-.1v-2.4h.1v.2q0 .8.8.8h7v.1l-6.4 4.8h5.3a.8.8 0 00.6-.2 1 1 0 00.2-.6v-.2h.1v2.4h-.1v-.2a.7.7 0 00-.8-.8h-5.9a2.2 2.2 0 00-.6.6 1.3 1.3 0 00-.2.7h-.1v-2zM12.6 8.8h1.9V9a2.2 2.2 0 00-.8.1 1.6 1.6 0 00-.5.5 2.2 2.2 0 00-.1.7v1h6l1-.1a.7.7 0 00.2-.6v-.3h.2v3h-.2v-.2a1 1 0 00-.3-.7 3 3 0 00-.9 0h-6v.8a1.8 1.8 0 000 .7 1 1 0 00.5.5 2.6 2.6 0 00.9.2v.2l-2-.1V8.8zM12.6 4.1a3.5 3.5 0 011-2.5A3.9 3.9 0 0116.5.5h.2a4 4 0 012.8 1 3.5 3.5 0 011.1 2.7A3.5 3.5 0 0119.4 7a4 4 0 01-2.9 1 3.9 3.9 0 01-3-1.2 3.6 3.6 0 01-1-2.6zm.4.2a2 2 0 00.7 1.6 4.3 4.3 0 002.8.7 4.5 4.5 0 002.9-.7 2 2 0 00.7-1.7 2.2 2.2 0 00-.8-1.7 4 4 0 00-2.7-.7 4.6 4.6 0 00-2.9.8 2 2 0 00-.7 1.6z"/></svg>
