<svg xmlns="http://www.w3.org/2000/svg" viewBox="0 0 38 126"><g fill="#fff"><path d="M9.8 85h18.3V0H9.8v85zM27.9.2v84.6H10V.2h17.9z"/><path d="M17 78.2h5.5v1.2H17zM19.2 73.5c-1 0-1.2-.7-1.2-1.4 0-.9.4-1.3 1.2-1.3h3.3v-1.2h-3.4a2 2 0 00-1.6.7c-.4.5-.6 1.1-.5 1.7 0 .5.1 1 .3 1.4H17v1.2h5.5v-1.2h-3.3zM20.9 66.1c1 0 1.6-.7 1.6-1.7v-.8h-1v.7c0 .5-.3.6-.5.6h-3v-1.3h-1v1.3h-1.6v1.2H17v.8h1v-.8h2.9zM17 59.5h5.5v1.2H17zM19.2 54.9c-1 0-1.2-.7-1.2-1.4 0-.9.4-1.3 1.2-1.3h3.3V51h-3.4c-.7 0-1.1-.5-1.1-1.4 0-.9.4-1.3 1.2-1.3h3.3v-1.2h-3.4a2 2 0 00-1.6.7c-.4.5-.6 1.1-.5 1.7 0 .7.2 1.4.7 2-.5.5-.8 1.2-.7 1.9 0 .5.1 1 .4 1.4H17V56h5.5v-1.2h-3.3zM17 42.5h5.5v1.2H17zM21.5 37c0 .6-.1 1.2-.5 1.7l-.2.3.8.9.2-.3c.6-.7.8-1.6.8-2.6 0-1.6-.7-2.6-1.8-2.6-1.4 0-1.5 1.4-1.6 2l-.1 1c-.1.9-.4.9-.5.9-.6 0-.7-.8-.7-1.2 0-.5.1-1 .4-1.5l.1-.2-.7-.9-.2.3c-.4.7-.6 1.4-.6 2.2 0 1.4.7 2.4 1.7 2.4.7 0 1.5-.4 1.6-2l.1-1c.1-.8.4-.8.5-.8.6 0 .7.8.7 1.4zM21.5 29.4c0 .6-.1 1.2-.5 1.7l-.2.2.8.9.2-.3c.5-.7.8-1.6.8-2.6 0-1.6-.7-2.6-1.8-2.6-1.4 0-1.5 1.4-1.6 2l-.1 1c-.1.9-.4.9-.5.9-.6 0-.7-.8-.7-1.2 0-.5.1-1 .4-1.5l.1-.2-.7-.9-.2.3c-.4.7-.6 1.4-.6 2.2 0 1.5.7 2.4 1.7 2.4.7 0 1.5-.4 1.6-2l.1-1c.1-.8.4-.8.5-.8.6 0 .7.8.7 1.5zM17 22.6h5.5v1.2H17zM19.2 18c-1 0-1.2-.7-1.2-1.4 0-.9.4-1.3 1.2-1.3h3.3v-1.2h-3.4c-.7 0-1.1-.5-1.1-1.4 0-.9.4-1.3 1.2-1.3h3.3v-1.2h-3.4a2 2 0 00-1.6.7 3 3 0 00.2 3.7c-.5.5-.8 1.2-.7 1.9 0 .5.1 1 .4 1.4H17v1.2h5.5V18h-3.3zM17 5.6h5.5v1.2H17z"/></g></svg>
