<svg xmlns="http://www.w3.org/2000/svg" viewBox="0 0 83.37 32.19"><path fill="#fff" fill-rule="evenodd" d="M25.34 7.31h-9l-9.97 9.46V.28H0v31.46h6.37v-8.89l9.97 8.89h8.95L12.18 19.55 25.34 7.31zm49.17-1.48a4.43 4.43 0 108.86 0c0-3.39-2.75-5.75-6.74-5.83C72-.09 66.16 2.43 63.54 10.16V7.31h-6.37v24.42h6.37v-14.2c0-9.14 5.22-16.57 13.05-16.49.73 0 1.45.14 2.14.35a4.45 4.45 0 00-4.22 4.44zm1.24 25.9h6.37V12.14h-6.37v19.59zm-38.24-5.41c-3.56 0-6.45-3.04-6.45-6.8 0-3.75 2.89-6.79 6.45-6.79a6.82 6.82 0 016.83 6.79 6.8 6.8 0 01-6.83 6.8zm6.43-17.06a11.52 11.52 0 00-7.39-2.4c-6.55 0-11.86 5.67-11.86 12.66 0 7 5.31 12.67 11.86 12.67 3.11 0 5.55-.92 7.39-2.4v1.94h6.37V7.31h-6.37v1.95z" clip-rule="evenodd"/></svg>
