<svg xmlns="http://www.w3.org/2000/svg" viewBox="0 0 335.8 131.1"><path fill="#fff" d="M107.7 42.6c.3 6.5-1.1 12.3-1.9 18.1-2 14.9-4.3 29.7-11.4 43.3a49.3 49.3 0 01-41.8 26.8C22.3 133.6 4.6 112 .9 86.4a69.7 69.7 0 0111.4-52.3c13.5-19 31.5-31 54.8-34C82.4-1.6 93.7 10.9 91.6 26a47.1 47.1 0 01-14.7 29.3A24.7 24.7 0 0069 71 31.4 31.4 0 0155 94.3c-3.8 2.7-6.1 7-8.7 10.8-1 1.6-2.1 3.9-4.5 3.2S39 105 39 103c-.1-7.4 2-14 8.4-18.2 4.6-3.1 7.6-7 8.3-12.4C57.5 59 63.5 48.3 73 39c4.9-4.8 5.7-11.6 5.6-18.2 0-4.6-2.9-7.2-7.6-7.7a20.2 20.2 0 00-8 .4c-21.8 7-39 19.3-47 41.7-5 14-4.4 28.3 1.2 42 7.2 17.5 24 24.6 43.3 20C81 112.4 91.1 98 97.2 79.4c3.4-10.4 6.2-21 8.6-31.8.4-1.5.3-3.3 1.9-5zM335.7 90.1v25.5c0 2.6-.6 4.1-3.5 4.1s-3.5-1.7-3.4-4.2c0-4 1.2-9-.7-11.6-2.1-3-7.4-.8-11.3-1-2.4-.2-3.8-.5-3.8-3.3 0-2.6 1-3.7 3.6-3.5h2.4c9.8 0 9.8 0 9.8-10V71.6c0-2.7-.8-4-3.7-3.8-2.1.2-4.3 0-6.5 0-11.2 0-15 3.4-15.3 14.8-.3 10.5 0 21-.1 31.5 0 2.5.7 5.7-3.6 5.6s-3.2-3.4-3.2-5.8c-.1-10.4-.2-20.7 0-31 .1-15.6 6.8-22.2 22.2-22.2 4 0 8 .2 12 0 3.8-.2 5.3 1 5.2 5-.3 8.1 0 16.3 0 24.4zM188 88.8c6.8 2.8 9.6 7.7 11.7 13 1.6 4 3.4 8 4.7 12.1.6 1.7 3.2 4.2-.3 5.4-2.8 1-5.9 1-7.2-3a242 242 0 00-6-15.3 12.9 12.9 0 00-12-8.3c-3.1-.2-4.5.5-4.4 4 .3 6.1 0 12.3.1 18.4.1 3.2-.9 4.7-4.2 4.6s-3.6-1.9-3.6-4.6V65.2c0-3 .5-4.7 4-4.6 3.6 0 3.9 2 3.8 4.9 0 5.4.2 11 0 16.4-.2 3.5 1.3 4.2 4.3 4a12 12 0 0011-8c1.9-4.6 3.4-9 5-13.7.7-2.3 2-3.6 4.6-3.6 3.2 0 4.8.8 3.4 4.4L197 79.8c-1.4 3.9-4 7-9 9zM248.6 87v21c-.1 7.5-4 11.4-11.3 11.6-5.5.1-11 .2-16.5 0-6-.1-10.1-3.4-11.6-9.1-.4-1.5-1.6-3.6.8-4.3 2.2-.5 5.3-1.4 6.1 1.5 1.7 6 6 6.5 11 6.2 2.4-.2 5-.1 7.4 0 4.6.2 6.8-2 7-6.5.3-6.7.2-7-6.6-7a120.3 120.3 0 01-12.5-.5c-8.7-1.1-14-7.2-14.2-15.9V64.5c-.1-2.7.8-3.8 3.7-3.8s3.3 1.3 3.3 3.7v18.5c.2 8.3 3.4 11.5 11.6 11.7 14.7.3 14.7.3 14.7-14.3V65.8c0-2.4-.8-5.1 3.4-5.2 4.4 0 3.6 2.9 3.7 5.5V87zM253 90c0-3.2-.2-6.3 0-9.5a22.3 22.3 0 0133.5-17c1.4.8 3 1.7 3.6 3.3s1.1 3.8-.3 5.2-2.7-.4-3.8-1.1c-4-2.5-8-4.2-12.7-3.5-7 1-12 5.8-12.3 13a170.6 170.6 0 00.4 20c.6 8 5.2 12 13.3 12.5a21.6 21.6 0 0012.8-3.5c1.2-.7 2.6-2.5 3.9-1.1s.7 3.4.1 5.2a2.6 2.6 0 01-.9 1.2 26.5 26.5 0 01-23.8 3.9c-7.3-2-12-6.7-13.2-14.6a86.9 86.9 0 01-.6-14zM202.5 31v15c0 1.6-.2 3-2.4 3-1.8-.2-2-1.5-2-3a13.8 13.8 0 010-2.4c.6-3.8-.7-5.7-4.8-5a11 11 0 01-2.5 0c-1.3-.1-2.2-.7-2.2-2.1s1-1.8 2.3-2c7.2-1.2 7.2-1.2 7.2-8.5a2.7 2.7 0 000-1c-1.1-2.8 3-8-3.9-8-8.5-.2-11.4 1.6-11.7 8.5-.2 6.5 0 13-.1 19.5 0 1.7.6 4.1-2.4 4-2.6 0-2-2.3-2-3.8 0-6.5-.1-13 .1-19.5.3-9 4.4-12.9 13.4-13 11-.3 11-.3 11 10.4v8zM281.5 31.2v14.5c0 2.2-.7 3.5-3.2 3.3a8.3 8.3 0 00-1 0c-17.6.6-20.3-2-20.3-19.7V15.8c0-1.5 0-3.1 2.2-3.1s2.1 1.7 2.1 3.1l.1 19.5c.2 7.6 6.9 11.8 14 9.3 2.3-.9 1.6-2.7 1.6-4.2l.1-23.5c0-1.6-.8-4.1 2-4.2s2.3 2.3 2.3 4v14.5zM284.9 13c3.4-1 5 0 4.7 3.7a35 35 0 000 6.5c.2 1.6-1.2 4 1.4 4.7a6.3 6.3 0 006.3-2c2-2.2 2.6-5 3.6-7.7a34.5 34.5 0 011.9-4.6c.7-1.3 2.3-1.2 3.5-.8 1.8.6.9 2 .5 3-2 4.4-2.6 9.7-6.8 13-1.1.9-1 1.5 0 2.3 5 3.4 5.6 9.2 7.9 14.1.5 1.2 2 2.9-.5 3.6-1.8.5-3.3.1-4-1.9l-2.9-7.4a13 13 0 00-3-5.1c-1.9-1.7-4.2-2.6-6.5-2-2.6.8-1.2 3.4-1.4 5.2a36.2 36.2 0 000 7c.4 3.6-1 5-4.5 4.3-1.4-1.4-.8-3.2-.7-4.8.2-10.4-.8-20.8.5-31.2zM124 30.6v-15c0-1.7.3-3 2.3-3s2.5 1.2 2.5 3V25c-.2 3 1.4 3.2 3.7 2.9 3.4-.5 5.1-2.9 6.3-5.8 1-2.6 1.8-5.3 2.9-8 .6-1.7 2.2-2 3.7-1.5 2 .7 1 2.2.6 3.3-1.9 4.4-2.6 9.4-6.5 12.7-.9.7-1.7 1.3-.4 2.2 5 3.4 5.8 9.2 8 14.1.4 1.2 2 2.9-.3 3.8a3 3 0 01-4.3-2.1l-2.9-7.5a11 11 0 00-3.2-5c-1.9-1.5-4.1-2.6-6.4-1.7s-1 3.3-1.1 5c-.2 2.6-.1 5.3 0 8 0 1.7 0 3.4-2.4 3.5s-2.5-1.7-2.5-3.4v-15zM335.8 30.9v15c0 1.6-.2 3-2.3 3-2-.1-1.9-1.6-2-3a17.6 17.6 0 010-3c.5-3.4-1-4.9-4.4-4.4a15.8 15.8 0 01-3 0c-1.3 0-2.3-.4-2.3-2s1-1.8 2.2-2c2.5-.3 5.8 1.2 7-1 1.2-2.2.5-5.3.5-8a2.5 2.5 0 000-1c-1-2.6 2.8-7.5-3.7-7.6-8.6-.3-11.7 1.6-12 8.3s0 13.3-.1 20c0 1.5.5 3.6-2 3.7s-2.2-2-2.2-3.6c0-7-.2-14 .1-21 .4-7.8 4.4-11.4 12-11.8 12.2-.6 12.2-.6 12.2 11.4zM174.8 31v13.6c0 1.6 1 4-2 4.2s-2.1-2.4-2.2-4V21.3c.2-3.5-1-4.5-4.5-4.5-9 0-11.3 2-11.4 11v17.6c0 1.6.3 3.6-2.3 3.5-2.2 0-1.9-1.9-1.9-3.3 0-7-.2-14 .2-21 .3-8 4.3-11.7 12.2-12 11.9-.6 11.9-.6 11.9 11v7.5zM235.7 31.2v2.5c.2 10.2 6.3 13.8 15.6 9.4 1-.5 2.3-2.3 3.3-.5.8 1.4 0 3-1.5 3.9a16.7 16.7 0 01-15.8 1.1c-4.7-2-6.4-6-6.5-10.8a116.8 116.8 0 010-13c1-9.4 13-14.7 20.8-9.5 1.6 1.1 3.1 2.7 2 4.5-1.3 2.1-2.6-.2-3.7-.7-7.8-3.8-14.2 0-14.3 8.6v4.5zM210.2 31.1v3.5c.5 9.2 6.5 12.6 15 8.8 1.2-.5 2.6-2.7 3.8-.7s-.5 3.3-2.2 4.3c-9.6 5.7-20.6.4-21.5-10.7a48.3 48.3 0 01.1-13c1.6-9 12.5-13.8 20.3-9.2 1.1.7 2.3 1.4 2.6 2.8a3.3 3.3 0 01-.4 2.3c-.6 1-1.4.2-2-.2a14 14 0 00-5-2.2c-6-.9-10.5 2.6-10.8 8.8v5.5zM152.4 87.9c6.7-4.8 8.2-11 5.8-18s-8.4-9-15.1-9.1c-5-.2-10-.1-15-.2-2.5 0-4.2 1-4.2 3.8v51.4c0 2.7 1.4 4 4 4 6.3 0 12.7.2 19-.4 8.7-.9 14.3-5.9 15.7-13 1.6-8-1.4-13.6-10.2-18.5zM141.7 67c6.3.5 9.4 3.5 9.4 9.3s-3.4 9.3-9.6 9.7c-9.8.7-9.8.7-9.8-9.8 0-10 0-10 10-9.2zm7 45.2a15.3 15.3 0 01-5.9 1c-11 .3-11 .3-11-10.8 0-10.7 0-10.7 10.8-10a17 17 0 016.7 1.5c3.9 2 5.5 5.2 5.5 9.4a9.1 9.1 0 01-6.1 9z"/></svg>
