<svg xmlns="http://www.w3.org/2000/svg" viewBox="0 0 992.8 180.2">
  <path fill="#fff" d="M858.6 86.5L822 132.4l-3.8 4.7c-4.1 4.9-9.5 6.6-15.1 4.6-5.5-1.9-8.9-6.7-9-13.1-.1-8.8 0-17.6 0-26.5V51.7c0-7.1 4.3-12.3 10.7-13.8 5.7-1.3 12 1.7 14.6 7.1a18 18 0 011.5 8.3v40.3l15.6-19.5 23.7-29.7c4.9-6.1 10.2-8.1 16.1-6.1 6.3 2.1 9.2 6.8 9.2 14.9v75.4a13.3 13.3 0 01-26 4.4c-.5-1.7-.5-3.6-.5-5.4v-39c-.2-.3-.3-.6-.4-2.1zM383.1 90.3a53.7 53.7 0 01-55.2 53.1 54 54 0 01-55.5-53.5c.3-30.3 24.6-53.1 56.5-53.1a54 54 0 0154.2 53.5zm-55.4 28.3c16.1.2 28-11.9 28.1-28.5A27.3 27.3 0 00328 61.8c-16.2-.1-27.6 11.3-27.8 28-.3 17 10.8 28.5 27.5 28.8zM590 90.1V53.7c0-10.8 5.2-16 15.9-16h51.9c9.7.1 15.3 9.5 10.6 17.4-2.3 3.9-5.9 5.6-10.4 5.6-12.3-.1-24.6.1-37-.1-3.1 0-4.6.6-4.2 4.1.5 4.4-1.8 10.1.9 13 2.5 2.7 8.2.7 12.5.8h13a31.6 31.6 0 0131.8 30.6 31.5 31.5 0 01-29.6 33.2c-14.1.7-28.3.4-42.4.1-7.8-.2-12.8-6.2-12.8-14.9-.2-12.5-.2-24.9-.2-37.4zm38.7 29.3h10.2c5.3-.2 9.4-4.1 9.4-9 0-5-3.9-8.8-9.3-8.9-5.6-.1-11.3.4-16.9-.1-4.7-.4-5.7 1.4-5.3 5.6.4 3.9-1.2 9.2.8 11.6 2.4 2.7 7.8.3 11.1.8zM178.1 89.6v-37c0-8.7 5.6-14.9 13.3-15 7.9-.1 13.4 5.9 13.5 14.7.1 7.2.2 14.3-.1 21.5-.1 3.2 1 3.7 4 3.9a11 11 0 0010.8-5.1c7.5-10.2 15.5-20 23.5-29.8 3.4-4.2 7.8-6.1 13.3-4.6a12 12 0 019 10.2c.7 4.3-1.1 7.7-3.6 11l-22 27.8c-1.8 2.3-1.8 3.6 0 5.9 7.4 9 14.5 18.2 21.7 27.4 5.7 7.2 5.4 14.7-.7 19.4-6 4.6-13.1 3.4-18.7-3.6l-24.5-30.9c-1.7-2.2-9.6-3.9-11.8-2.6-1.5.9-.8 2.4-.9 3.6v21.5c-.1 8.9-5.6 14.8-13.5 14.7-7.8-.1-13.3-6.2-13.3-15v-38zM905.7 89.8V51.9c0-8.4 5.6-14.3 13.3-14.2 7.6.1 13 5.8 13 14 0 7.2.2 14.3-.1 21.5-.1 3.3.6 4.5 4.3 4.7 4.9.2 7.9-1.4 10.8-5.2 7.6-10.1 15.5-20 23.5-29.8 4.1-5.1 9.9-6.3 15.2-3.9 4.7 2.1 7.7 7.3 7.1 12.6-.3 2.9-1.7 5.3-3.5 7.6-7.4 9.4-14.8 18.9-22.3 28.1-1.8 2.2-1.7 3.7 0 5.8l22 27.8c5.4 6.9 5 14.2-.9 19-5.8 4.7-13.2 3.3-18.7-3.5l-24.1-30.5c-2.1-2.7-9.2-4.3-12.1-3-1.7.8-1.1 2.2-1.1 3.4l-.1 23a13 13 0 01-13.1 13.4 13 13 0 01-13.2-13.3V89.8zM398.4 90.5V52.6c0-9.6 5.2-14.9 14.7-15h34a35.2 35.2 0 0136 35.9c-.2 20-15.8 35-36.4 35-6.2 0-12.3.1-18.5-.1-2.7-.1-3.4.9-3.3 3.4.2 5.5.1 11 0 16.5 0 8.2-5.4 14-12.9 14.1-7.6.2-13.5-5.8-13.6-14.1V90.5zm26.5-18.4c0 3.9.2 7.1-.1 10.2-.2 2.8.9 3.4 3.5 3.3 5.2-.2 10.3 0 15.5-.1 7-.1 12.2-5 12.5-11.7.4-6.8-4.1-12.1-11.1-13.1-2.6-.3-5.3-.3-8-.2-4 .1-9-1.7-11.5.7-2.5 2.6-.4 7.7-.8 10.9zM575.9 129.5c0 6.2-3.7 11-9.3 12.6-5.4 1.5-11.8-.7-13.8-6.1-2.2-6-5.8-6.7-11.3-6.5-10 .4-20 .3-30 0-4.2-.1-6.5.9-8.2 5.1-2.9 7.1-10 9.7-16.4 7-6.9-3-9.3-10.2-5.8-18.1L510.5 58l5.7-12.7c2.3-4.8 6.1-7.5 11.4-7.5 5.3 0 9.3 2.5 11.5 7.4l35.9 80a9 9 0 01.9 4.3zm-48.3-48.9l-11.9 26.8h20.4c1.7 0 3.7.3 2.4-2.5l-10.9-24.3zM732.2 81.6c-7.8 17.5-15.6 34.9-23.5 52.2-2.8 6.3-7.9 9.4-13.7 8.5a12.4 12.4 0 01-9.7-17.3c11.8-26.7 23.8-53.4 35.9-80 2.2-4.9 6.2-7.4 11.5-7.3 5.3 0 9.2 2.7 11.4 7.6 11.9 26.5 23.9 53 35.7 79.6 2.9 6.5.1 13.7-6 16.5-6.4 2.9-13.7.4-16.7-6.3-7.5-16.3-14.7-32.7-22.1-49.1-.7-1.6-.9-3.3-2.8-4.4z" class="st0"/>
  <g fill="#fff">
    <path d="M101.9 118.2c4.8-.1 9.6-.3 14.5-.2 4.7.1 7.1 2.5 6.6 7.3a56.7 56.7 0 01-22.7 41.1 61.7 61.7 0 01-99.4-37c-.1-.6-.6-1.1-.9-1.7v-6c2.9-3.2 6.4-4 10.7-4 15.3.2 30.6.1 45.9.1 1.8 0 3.7-.5 5.3.8l.2 16.4c0 2.8-.3 5.7 2.9 7.3 3.3 1.7 5.9.5 8.6-1.7 9.3-7.5 18.8-14.9 28.3-22.4zM51 0c3.8 2.5 5.2 5.9 4.9 10.5-.3 4.8-.1 9.6-.1 14.4 0 3.3-1.1 5.8-4.2 7.2-3 1.4-5.4.1-7.7-1.7L23.8 14.2C16.9 8.6 17 5.1 24 0h27z" class="st0"/>
    <path d="M101.9 118.2c-9.5 7.5-19 14.9-28.4 22.5-2.7 2.2-5.3 3.4-8.6 1.7-3.2-1.6-2.9-4.5-2.9-7.3l-.2-16.4c.1-2.1.4-4.3.4-6.4V40c0-2.8.1-5.2 3-6.8 3.1-1.7 5.4-.3 7.7 1.5l58.7 47c5.5 4.4 5.1 7.7-.6 12.4-9.6 8.1-20 15.4-29.1 24.1zM48.8 75.7a17.8 17.8 0 11-35.6-.6 17.8 17.8 0 1135.6.6z" class="st0"/>
  </g>
</svg>
