<svg xmlns="http://www.w3.org/2000/svg" viewBox="0 0 36.2 92.4"><path fill="#fff" d="M10.5 83v3.4h14.2V83h-7.5l7.5-1.7v-3.4L16.4 80l-6-2.1v3.4l6.3 1.7zm2-12.6V70a.8.8 0 01.2-.6 1 1 0 01.7-.2h2.8a1 1 0 01.7.2.7.7 0 01.2.6v.4zm12.1 0h-5.5v-.6a8.2 8.2 0 00-.1-1.5 4.3 4.3 0 00-.5-1.3 2.5 2.5 0 00-.9-.9 2.9 2.9 0 00-1.4-.3h-2.9a2.8 2.8 0 00-1.3.3 2.5 2.5 0 00-1 .9 4.3 4.3 0 00-.4 1.3 7.4 7.4 0 00-.1 1.5v4h14.2zm-14.1-9h14.2V55h-2v3h-5v-3h-2v3h-3.2v-3h-2zm8.3-14l-5.9-.5v-.1l5.9-.5zm5.9 3.9v-3l-4-.5V46l4-.4v-3.5l-14.2 2v4.5zM12.5 32.9v-2.3h-2v8h2v-2.3h12.2v-3.4zm-2-6.4h14.2v-3.4l-6.8-1.7h6.8v-3.2H10.5v3.5l6.5 1.6h-6.5zm2-16.1V10a.8.8 0 01.2-.6 1 1 0 01.7-.2h2a1 1 0 01.8.2.8.8 0 01.2.6v.4zm12.2 3.4v-4a8.2 8.2 0 00-.2-1.8 3.2 3.2 0 00-.5-1.2 2.2 2.2 0 00-1-.8 4 4 0 00-1.5-.3h-1.3a5.7 5.7 0 00-1.4.2 2.2 2.2 0 00-1 .5 1.9 1.9 0 00-.5.8 4 4 0 00-.2 1.1 4.6 4.6 0 00-.4-1.3 2.2 2.2 0 00-.6-.8 2 2 0 00-.7-.3 4.1 4.1 0 00-1-.1h-1A2.8 2.8 0 0012 6a2.5 2.5 0 00-.9.9 4.2 4.2 0 00-.5 1.3 7.3 7.3 0 00-.1 1.5v4zM18 10.4V10a1.4 1.4 0 010-.5.4.4 0 01.3-.2 1 1 0 01.4 0H22a1 1 0 01.4 0 .4.4 0 01.2.3 1.5 1.5 0 010 .4v.4zm-15 58.1C-3 31 .9 16 6.4.3l5.4-.2C5.7 13.3 1 23.1 3.2 68.5zM35 23.3c3.5 38.4-1.4 53.5-8 69h-5.4C28.6 79 34 69.4 35 23.3z"/></svg>
