<svg xmlns="http://www.w3.org/2000/svg" viewBox="0 0 21.97 163.79"><title>kristall</title><path d="M7.2,155.57l2.65,2.63c.71-.6,1.41-1.24,2.12-1.88l2.13-1.91,2.31-2.06c.82-.75,1.5-1.31,2-1.73l3.1-2.51h.15c0,.23,0,.53,0,.9a7,7,0,0,0,0,.79,8.66,8.66,0,0,0,0,.9c0,.45,0,.71,0,.9-1.12.79-2.06,1.5-2.8,2.14l-7.91,6.78a.74.74,0,0,0-.15.45c0,.08,0,.08.07.08H21.64c0,.19,0,.41,0,.71a4.64,4.64,0,0,0,0,.64,5.22,5.22,0,0,0,0,.71c0,.34,0,.53,0,.68H.49a2.57,2.57,0,0,1,0-.42c0-.18,0-.37,0-.52v-.41a1.76,1.76,0,0,0,0-.42c0-.18,0-.33,0-.52s0-.34,0-.41H10c.07,0,.07-.08.07-.19a1.06,1.06,0,0,0-.22-.6,22.07,22.07,0,0,0-1.53-1.65L.49,151a3.9,3.9,0,0,1,.07-.64,3.18,3.18,0,0,0,0-.6,1.62,1.62,0,0,0,0-.37c0-.15,0-.3,0-.45s0-.3,0-.38Z" fill="#fff"/><path d="M21.64,141.44c0,.18,0,.41,0,.71a4.64,4.64,0,0,0,0,.64,5.22,5.22,0,0,0,0,.71,4.76,4.76,0,0,1,0,.68H.49v-5.55a18,18,0,0,1,.48-4.8,4.29,4.29,0,0,1,1.57-2.48,5.27,5.27,0,0,1,3-.75A7,7,0,0,1,8,131a4.92,4.92,0,0,1,1.79,1.24A8.49,8.49,0,0,1,11,134.31a15.55,15.55,0,0,1,.86,2.93A10.26,10.26,0,0,1,12,139c0,.37,0,.86,0,1.39s0,.89,0,1Zm-10.93,0c0-.6.07-1.09.07-1.43s0-.86-.07-1.65a5.62,5.62,0,0,0-1.57-3.6,4.71,4.71,0,0,0-3.43-1.35,4.51,4.51,0,0,0-1.94.38A3.19,3.19,0,0,0,2.39,135a4,4,0,0,0-.64,2c0,.45-.07,1.24-.07,2.4s0,1.76,0,2.1Z" fill="#fff"/><path d="M.49,126.29a6.21,6.21,0,0,0,.07-1.35c0-.11,0-.56-.07-1.35H16.64v-.3L.49,109.15V107.8H21.64a9.13,9.13,0,0,0-.08,1.35c0,.3,0,.75.08,1.35H4.74v.3l15,13c.64.56,1.27,1.12,1.91,1.61v.9Z" fill="#fff"/><path d="M20.22,85.27A12,12,0,0,1,22,92.13a12.78,12.78,0,0,1-.78,4.57A9.42,9.42,0,0,1,19,100.15a9.11,9.11,0,0,1-3.51,2.18,13.64,13.64,0,0,1-4.59.75A11,11,0,0,1,5,101.54a10,10,0,0,1-3.77-4.2,14.87,14.87,0,0,1-1.23-6A17.14,17.14,0,0,1,1.42,84.7a15,15,0,0,0,2.38.64l0,.23a5.16,5.16,0,0,0-1,1.12,8.15,8.15,0,0,0-1.12,2.1,7.26,7.26,0,0,0-.49,2.7A8.24,8.24,0,0,0,2,95.17a7.89,7.89,0,0,0,2.13,2.7,9,9,0,0,0,3.13,1.61,12.85,12.85,0,0,0,3.81.52,11.44,11.44,0,0,0,5.11-1,8,8,0,0,0,3.43-3,8.11,8.11,0,0,0,1.19-4.35,8.92,8.92,0,0,0-.85-3.9A12.19,12.19,0,0,0,18.28,85Z" fill="#fff"/><path d="M21.64,72a8.11,8.11,0,0,0-.08,1.35c0,.49,0,.94.08,1.35H1.94a64,64,0,0,0,.37,6.83c-.11,0-.26,0-.48,0a2.46,2.46,0,0,0-.45,0,2,2,0,0,0-.45,0,2.25,2.25,0,0,1-.48,0v-16a.91.91,0,0,1,.3,0c.11,0,.22,0,.37,0s.22,0,.3,0h.3c.11,0,.22,0,.37,0s.22,0,.3,0A52.85,52.85,0,0,0,2,72Z" fill="#fff"/><path d="M21.64,45.3c0,.22,0,.48,0,.82a6.32,6.32,0,0,0,0,.79,7.63,7.63,0,0,0,0,.86,7,7,0,0,1,0,.79c-.75.26-1.65.6-2.65,1s-2,.75-2.91,1.13-1.87.79-2.8,1.16v7.91c3.92,1.58,6.68,2.59,8.36,3.08,0,.15,0,.37,0,.6a2.81,2.81,0,0,0,0,.52,3.63,3.63,0,0,0,0,.6,3,3,0,0,1,0,.49L0,55.31V54.6ZM4.07,55.72,12,59.09V52.27Z" fill="#fff"/><path d="M21.64,40.12c0,.11,0,.3,0,.56a3.69,3.69,0,0,0,0,.6,2.91,2.91,0,0,0,0,.53,3.45,3.45,0,0,1,0,.56c-.41-.22-1.61-.79-3.59-1.69s-4.14-1.87-6.52-2.92-4.67-2-6.76-2.93A42.11,42.11,0,0,0,.49,33.15V31.69C1.83,31.12,4,30.22,7.05,29s6-2.51,9-3.79,4.85-2.1,5.64-2.51c0,.15,0,.37,0,.71a6.32,6.32,0,0,0,0,.79,5.22,5.22,0,0,0,0,.71,6.32,6.32,0,0,1,0,.79L19,26.7c-1.45.56-3.36,1.35-5.78,2.28s-4.4,1.77-5.93,2.37-2.69,1-3.36,1.35V33A183,183,0,0,0,21.64,40.12Z" fill="#fff"/><path d="M21.64,17.47c0,.12,0,.3,0,.57a3.63,3.63,0,0,0,0,.6,2.81,2.81,0,0,0,0,.52,3.45,3.45,0,0,1,0,.56c-.41-.22-1.61-.78-3.59-1.68s-4.14-1.88-6.52-2.93-4.67-2-6.76-2.92S1.27,10.72.49,10.5V9C1.83,8.47,4,7.57,7.05,6.3s6-2.51,9-3.79S20.85.41,21.64,0c0,.15,0,.37,0,.71a6.32,6.32,0,0,0,0,.79,5.22,5.22,0,0,0,0,.71,6.32,6.32,0,0,1,0,.79L19,4.05c-1.45.56-3.36,1.35-5.78,2.29L7.24,8.7q-2.36.9-3.36,1.35v.3A180.46,180.46,0,0,0,21.64,17.47Z" fill="#fff"/></svg>