<svg xmlns="http://www.w3.org/2000/svg" viewBox="0 0 84.2 35.1"><path fill="#fff" d="M68.1 0c.1.3.2.6.1.9l.9.4.1.8-.1.3c-.5.2-1.1.2-1.6.5.1.3 0 .6-.1.9l-.6-.2c-.2-.2-.1-.5-.1-.8h-1.3v-.9l.4-.4-.2-.1-.1-.6.1-.7.6.3.6.5.5-.3.8-.6zm-1.2 1.7c-.1 0-.1.1 0 .2l.6-.2.1-.4-.7.4zm-.3 2.9h.7c.3.3.4.7.4 1 0 .8-.2 1.5-.5 2.2a18.3 18.3 0 0 1-4.8 7c-.9.8-1.9 1.6-2.9 2.2l-.3.1c0-.2.2-.2.3-.4l2.6-2.9a30.3 30.3 0 0 0 4.1-8l.2-.7c-.1-.2 0-.4.2-.5zM16.2 14.5c.2-.2.4-.2.7-.2l.6.2v.3l-.4 1.5-.2.6-.1-.2-.1-.2-.2-.6-.1-.2-.2-.7v-.5zm-9.6-.1l1.6-.1.6.1.5.1.5.2a8 8 0 0 1 3.5 2.8 14.4 14.4 0 0 1 2.2 4.6l-.2.8-.3.4-.1-.2-.2-.5-.4-.8-.2-.3-.9-1.5-.1-.1a9.5 9.5 0 0 0-3.3-3 .8.8 0 0 0-.5-.2l-1.1-.3c-.1 0-.2-.1-.2 0h-.6a5 5 0 0 0-1.2.2 6.4 6.4 0 0 0-3.1 2.1c-.9.9-1.6 2-2.3 3.2l-.1.3-.1.2-.2.4-.3.5H0v-.1l.2-.9.4-1.4.2-.6.6-1.3v-.1c.4-.8 1-1.6 1.6-2.3 1-1.1 2.2-1.9 3.6-2.2zm59.1 0c.8-.2 1.5-.2 2.3 0H68.3l1.1.4.4.2 1.1.7 1.3 1.3.4.5.1.1.3.4.1.1.5.8.8 1.8.2.5.2.6c.1.2 0 .5-.1.7l-.4.7-.7-1.4-.2-.3-.1-.3-.1-.2a15.3 15.3 0 0 0-3.3-3.8l-.4-.3-.1-.1-1-.4c-.8-.3-1.6-.3-2.5-.1l-.5.1-.1.1-.7.3-.2.1c-1.3.8-2.4 2-3.3 3.2l-.2.3-.4.7-.1.1-.4.7-.5 1.1-.1.1V23v-.1-.1-.1-.2l.2-.7.1-.2.1-.2v-.1l.1-.4.1-.4.2-.5c.5-1.2 1.2-2.4 2-3.4.7-.8 1.5-1.4 2.4-1.9l.4-.2.1-.1h.6zm-44.6.3l1.6-.2c.9 0 1.9 0 2.8.2l.5.1h.1l.4.1 1.7.8.1.1.3.2a4 4 0 0 1 1.5 2.1l.1.5v1l-.2.9-.1.2-.2.4c-.3.5-.7.8-1.2 1.2l-.1.1-.1.1-.8.4-.6.2-.3.1-.8.2h-.1-.1-.1-.1-.1c-1.3.2-2.7.1-4.1 0-1-.1-2-.4-2.8-.9h-.1l-.1-.1.5-.3s.1-.1.1 0l.8.4.4.2 2.2.4a8 8 0 0 0 3.4-.4l.6-.2.1-.1.1-.1.8-.8c.3-.4.5-.9.6-1.4l.1-.5h-.1l-.7.1h-.9c-.4 0-.7-.1-1.1-.3l-.7-.2h-1.6l-1.2.3v-.7l.7-.2.3-.1h.1c.7-.1 1.3-.1 2 .1l.6.2.3.1c.6.2 1.4.2 2 0l.3-.1-.1-.8-.4-.9-.2-.3-.7-.7-.3-.2-.1-.1-.8-.4-.6-.2h-.1l-1.1-.1h-1.7-.1-.1l-1.3.3-.5.2-1 .5-.6-.3c.6-.4 1.2-.6 1.9-.8l.4-.1H20.8l.3-.2zm31.4 1.7l1.3-.1 2.1.1h.1l1 .2.3.2.1.1.2.2c.2.2.3.4.3.7v5.5h-5.7l-1.2-.1c-.6-.1-1.1-.3-1.6-.7-.3-.3-.4-.6-.4-1s.1-.8.4-1.1a2 2 0 0 1 1-.6l.6-.2H51.3l1.1-.1H56.1V18v-.1-.1a1 1 0 0 0-.5-.6L55 17h-2l-1.2.3-.4.3-.1.4v.3h-1.7c0-.5.3-.9.7-1.1l.3-.2.3-.1.7-.2H52.2l.3-.3zm.1 3.3h-.1l-.3.1-.4.2c-.1 0-.2 0-.1.1l-.2.2c-.5.5-.6 1.3-.2 1.9.2.3.5.4.8.6l1.1.2h3.1v-3.2h-2.6c-.4-.2-.8-.2-1.1-.1zm-21.7-3.2h6.9v.4h-2.5v6.3h-1.9V23v-5.2-.9h-2.6l.1-.4zm7.9 0l.1.1 5.1 6.5-1.9 2.7v.1h.5l.1-.1.4-.5.2-.3 1.4-2 1.8-2.5 2.4-3.4.2-.3.2-.3h-.6l-.1.2-1.8 2.5-.2.3-.9 1.3-.5.7-.1.1c-.1.1-.1.3-.3.3l-.2-.2-.1-.1-.2-.3-1.2-1.5-.1-.1-.4-.5-1.9-2.5h-.3c-.4-.2-1-.2-1.6-.2zm36.8 0h1.8v2.7h1.7c.9 0 1.7 0 2.6.2H82l.6.2 1 .7.3.6v.5l-.2.4-.1.1-.1.1-.7.6-.1.1c-.6.3-1.3.4-2 .5H75.5l.1-6.7zm1.9 3.1v3.2h2.3c.6 0 1.2 0 1.8-.4l.1-.1.2-.2.2-.2.1-.1c.2-.4.2-1 0-1.4.1-.1 0-.2-.1-.1l-.4-.4-.1-.1-.2-.1h-.2l-.7-.1h-3z"/></svg>
