<svg xmlns="http://www.w3.org/2000/svg" viewBox="0 0 162 22.46">
  <title>letu</title>
  <g id="Слой_2" data-name="Слой 2">
    <g id="Слой_1-2" data-name="Слой 1">
      <path id="Path_147" data-name="Path 147" d="M15,0C7.82,0,2,7.2,0,17c0,.07,0,.18,0,.3a.13.13,0,0,0,.11.14A.78.78,0,0,0,1,16.9C4.68,9,9.26,4.18,14.93,4.18s10.51,5.71,13.42,13a.14.14,0,0,0,.19.06l0,0c.59-.59,1.4-1.44,1.4-2.25C27.61,6.39,21.72,0,15,0Z" fill="#fff" fill-rule="evenodd"/>
      <path id="Path_148" data-name="Path 148" d="M129,0c-7.15,0-13,7.19-15,17,0,.07,0,.18,0,.3a.13.13,0,0,0,.11.14.78.78,0,0,0,.85-.51c3.73-7.86,8.3-12.72,14-12.72s10.51,5.71,13.42,13a.14.14,0,0,0,.19.06l0,0c.59-.59,1.4-1.44,1.4-2.25C141.69,6.39,135.79,0,129,0Z" fill="#fff" fill-rule="evenodd"/>
      <path id="Path_149" data-name="Path 149" d="M32.44,0a1.46,1.46,0,0,0-1.61,1.27s0,.09,0,.13a23.28,23.28,0,0,0,1.55,3.5.11.11,0,0,0,.14.08.11.11,0,0,0,.08-.08,21.24,21.24,0,0,0,1.51-3.5C34.1.42,33.33,0,32.44,0Z" fill="#fff" fill-rule="evenodd"/>
      <path id="Path_150" data-name="Path 150" d="M45.61.42c-5.09,0-8.15,1.21-10,2.36a.12.12,0,0,0,0,.19s0,0,0,0l1.7.85a.19.19,0,0,0,.18,0,12.14,12.14,0,0,1,7.41-2.1c7.19,0,8.85,4.05,9.22,6,0,.11,0,0,0,.08v.07c0,.07,0,.15,0,.15l-.15,0a11.21,11.21,0,0,1-3.68.59,4.39,4.39,0,0,1-1.92-.44,9,9,0,0,0-3.47-.66,12.16,12.16,0,0,0-3.39.51.26.26,0,0,0-.15.19V9.78c0,.11.12.19.19.15a11.19,11.19,0,0,1,3.35-.55,6.88,6.88,0,0,1,2.84.55,6.6,6.6,0,0,0,2.55.55,12.71,12.71,0,0,0,3.87-.55.07.07,0,0,1,.07.07v.59c-.18,1.59-1.36,5.87-9.29,5.87-4.2,0-5.94-.78-7.56-2a.22.22,0,0,0-.22,0l-1.62,1a.14.14,0,0,0,0,.19l0,0c2,1.22,4.42,2.1,10.06,2.1,7.64,0,12.9-3.39,12.9-8.26S53.24.42,45.61.42Z" fill="#fff" fill-rule="evenodd"/>
      <path id="Path_151" data-name="Path 151" d="M59.51,5.17v.67a.14.14,0,0,0,.14.14h4.72a.17.17,0,0,1,.15.15V17.34a.16.16,0,0,0,.15.15H68a.15.15,0,0,0,.14-.15V6.09A.15.15,0,0,1,68.24,6h4.54a.16.16,0,0,0,.14-.15V4.51a.16.16,0,0,0-.14-.15H59.65a.15.15,0,0,0-.14.15v.66Z" fill="#fff" fill-rule="evenodd"/>
      <path id="Path_152" data-name="Path 152" d="M94,4.36H92.84s-.08,0-.12,0L85.54,14.5a.11.11,0,0,1-.14.05.12.12,0,0,1-.05-.05L78.75,4.43s-.07-.07-.11-.07h-3.5a.12.12,0,0,0-.13.12.14.14,0,0,0,0,.06L83.4,17.23a.28.28,0,0,1,0,.22l-3.47,4.83c-.07.07,0,.18.11.18h2.07s.07,0,.11,0L95.05,4.54c.08-.07,0-.18-.11-.18Z" fill="#fff" fill-rule="evenodd"/>
      <path id="Path_153" data-name="Path 153" d="M103.79,4.14c-4.69,0-8,1-8.08,3.21v.33a.17.17,0,0,0,.15.15h3.43a.15.15,0,0,0,.14-.15c0-1.18.82-1.95,4.58-1.95,4,0,4.38.81,4.38,2.1v1.7a.15.15,0,0,1-.14.14h-5.53c-5.24,0-7.89,1.77-7.89,4.13,0,2.07,2.17,3.61,6.48,3.61h10.52a.14.14,0,0,0,.14-.14V7.68C112,5,110,4.14,103.79,4.14Zm4.64,11.58a.16.16,0,0,1-.15.14h-6c-2.69,0-3.57-.88-3.57-2.21s1.1-2.4,3.91-2.4h5.71a.17.17,0,0,1,.15.15Z" fill="#fff" fill-rule="evenodd"/>
      <path id="Path_154" data-name="Path 154" d="M154.89,9.67h-5.2a.17.17,0,0,1-.15-.15v-5a.16.16,0,0,0-.15-.15H146a.17.17,0,0,0-.15.15V17.3a.17.17,0,0,0,.15.15h9.84c4,0,6.12-1.66,6.12-4C162,10.74,158.79,9.67,154.89,9.67Zm.18,6.19h-5.38a.16.16,0,0,1-.15-.14V11.4a.15.15,0,0,1,.15-.14h5.12c2.62,0,3.65.92,3.65,2.21,0,1.51-.88,2.39-3.39,2.39Z" fill="#fff" fill-rule="evenodd"/>
    </g>
  </g>
</svg>
