<svg xmlns="http://www.w3.org/2000/svg" viewBox="0 0 495.4 44.2"><path fill="#fff" d="M275.9 15.8v27.6H265V.6c4.7 0 9.1-.3 13.5.2 1.2.1 2.7 2.1 3.3 3.5 3.3 8 6.3 16.1 9.9 25.4 1.6-4 2.9-6.9 4-9.9l3.4-8.9c4.5-11.5 6.2-12.4 19.4-9.7v42.1h-10.7V16.4l-.9-.3c-.5.8-1.2 1.6-1.5 2.5l-7.6 19.5c-1.1 2.9-1.5 5.8-6.1 5.7-4.7 0-4.8-3.2-5.9-5.9L277 15.4l-1.1.4zM488.1 23.8c8.6 5 4.2 13.2 7.1 19.8l-4.9.2c-7.4.1-7.4.1-7.7-7.4-.2-6.7-1.7-8.2-8.4-8.2h-8.1v15.4h-11.2v-15-24c0-2.1 0-4 3-4 8.2.2 16.3-.1 24.5.4 5.7.3 10.9 2.3 12.6 8.7 1.5 6.1-.7 10.7-6.9 14.1zm-21.7-3.6c4.6-.2 8.7.2 12.4-.8 1.9-.5 4.1-3.4 4.2-5.4.1-1.5-2.8-4.1-4.7-4.5-3.8-.7-7.8-.2-12-.2l.1 10.9zM364.7.9h37.1l-1.2 8.5h-24.8v8.5h23l-1.2 8c-6 0-11.7.2-17.5-.1-4.1-.2-4.6 1.7-4.6 5.1 0 3.4.8 4.8 4.5 4.7 7.3-.2 14.6-.1 21.9-.1.7 8.1.4 8.4-6.9 8.4h-30.2l-.1-43zM126.7 35.4c.3 8.4.3 8.4-7.2 8.4H89.7V.9h37l-1.3 8.3h-24.7v8.5h22.9l-1.3 8.1c-5.9 0-11.7.2-17.4-.1-4.1-.2-4.5 1.8-4.5 5.1 0 3.4.9 4.7 4.5 4.6h21.8zM176 43.8c5.3-7.1 9.8-13.3 14.5-19.3 1.7-2.2 1.8-3.8 0-6.1-4.3-5.5-8.3-11.2-12.4-16.8 13-5.3 16.6 4.9 21.8 13.2 2.1-3.2 4.1-5.6 5.4-8.4 2.2-4.8 5.7-6.5 10.8-5.8 1.7.3 3.5 0 6.5 0-4.5 6.1-7.9 11.4-12 16.1-3.3 3.7-2.7 6.2.2 9.7 4.4 5.2 8.2 10.8 12.3 16.3l-.4 1.6c-4.7-.6-10.2.1-13.7-2.2-3.8-2.5-5.8-7.9-9-12.7-2.3 3.4-4.7 6.2-6.3 9.3-2.1 4.1-5 5.8-9.6 5.2-2.2-.3-4.5-.1-8.1-.1zM32.5 35.4c.3 8.4.3 8.4-6.9 8.4H0V1h10.9v21.3c0 13.1 0 13.1 13.3 13.1h8.3z"/></svg>
