<svg xmlns="http://www.w3.org/2000/svg" viewBox="0 0 120.74 708.37">
  <title>linii-lyubvi</title>
  <g id="Слой_2" data-name="Слой 2">
    <g id="Слой_1-2" data-name="Слой 1">
      <polygon points="97.24 162.37 117.07 162.37 117.07 160.78 100.02 147.9 117.07 147.9 117.07 146.11 97.24 146.11 97.24 147.7 114.19 160.59 97.24 160.59 97.24 162.37" fill="#fff"/>
      <polygon points="117.07 171 106.46 182.4 97.24 171.69 97.24 173.97 106.46 184.77 117.07 173.37 117.07 171" fill="#fff"/>
      <polygon points="97.24 185.27 97.24 187.05 117.07 187.05 117.07 185.27 97.24 185.27" fill="#fff"/>
      <path d="M108.74,202.62c0-4.17-2.28-6.25-5.75-6.25s-5.75,2.08-5.75,6.25v4.56h19.83v-1.79h-8.33Zm-9.91.1c0-3.18,1.69-4.56,4.16-4.56s4.17,1.38,4.17,4.56v2.67H98.83Z" fill="#fff"/>
      <path d="M117.07,233.35v-1.89l-6.64-2.87v-9.32l6.64-2.87v-1.89l-19.83,8.63v1.58ZM108.94,228l-9.42-4.06,9.42-4.06Z" fill="#fff"/>
      <path d="M115.48,258.53h5.26v-1.69h-3.67V239h3.67v-1.59h-5.26v1.79l-18.24,7.93v1.58l18.24,7.93Zm0-17.45v13.68l-16-6.84Z" fill="#fff"/>
      <path d="M107.06,263.78a9.91,9.91,0,1,0,0,19.82,9.91,9.91,0,1,0,0-19.82Zm0,1.78a8.14,8.14,0,1,1,0,16.26,8.14,8.14,0,1,1,0-16.26Z" fill="#fff"/>
      <polygon points="117.07 309.58 117.07 307.79 98.83 307.79 98.83 295.2 117.07 295.2 117.07 293.42 97.24 293.42 97.24 309.58 117.07 309.58" fill="#fff"/>
      <polygon points="97.24 334.06 97.24 344.47 117.07 344.47 117.07 333.66 115.48 333.66 115.48 342.68 107.55 342.68 107.55 334.46 105.97 334.46 105.97 342.68 98.83 342.68 98.83 334.06 97.24 334.06" fill="#fff"/>
      <path d="M97.24,374.31h19.83v-5.46c0-4.16-2.28-6.24-5.75-6.24s-5.75,2.08-5.75,6.24v3.67H97.24Zm9.92-1.79v-3.67c0-3.07,1.68-4.46,4.16-4.46s4.16,1.39,4.16,4.46v3.67Z" fill="#fff"/>
      <polygon points="117.07 400.77 107.55 400.77 107.55 388.08 117.07 388.08 117.07 386.3 97.24 386.3 97.24 388.08 105.97 388.08 105.97 400.77 97.24 400.77 97.24 402.56 117.07 402.56 117.07 400.77" fill="#fff"/>
      <path d="M108.74,418.12c0-4.16-2.28-6.25-5.75-6.25s-5.75,2.09-5.75,6.25v4.56h19.83V420.9h-8.33Zm-9.91.1c0-3.17,1.69-4.56,4.16-4.56s4.17,1.39,4.17,4.56v2.68H98.83Z" fill="#fff"/>
      <polygon points="97.24 450.93 117.07 450.93 117.07 449.35 100.02 436.46 117.07 436.46 117.07 434.67 97.24 434.67 97.24 436.26 114.19 449.15 97.24 449.15 97.24 450.93" fill="#fff"/>
      <polygon points="99.52 467.68 117.07 460.15 117.07 458.27 97.24 466.89 97.24 468.48 117.07 477.1 117.07 475.22 99.52 467.68" fill="#fff"/>
      <polygon points="97.24 483.84 97.24 494.25 117.07 494.25 117.07 483.44 115.48 483.44 115.48 492.47 107.55 492.47 107.55 484.24 105.97 484.24 105.97 492.47 98.83 492.47 98.83 483.84 97.24 483.84" fill="#fff"/>
      <path d="M117.07,511.8c0-3.37-1.39-6.65-5.55-6.65-3,0-4.56,1.59-5.06,3.67h-.1a4.62,4.62,0,0,0-4.26-2.38c-2.48,0-4.86,1.39-4.86,5.36V517h19.83V511.8Zm-18.34,3.37v-2.78c0-2.78.89-4.16,3.57-4.16,2.38,0,3.67,1.38,3.67,4.06v2.88Zm8.72-3.28c0-3.66,1.59-4.95,4.07-4.95s4.06,1.49,4.06,4.86v3.37h-8.13Z" fill="#fff"/>
      <path d="M97.24,553.23h19.83v-1.78h-9.52v-4.86a9.92,9.92,0,1,0-.49-19.83A9.89,9.89,0,0,0,106,546.49v5H97.24v1.78Zm9.82-8.42a8.14,8.14,0,1,1,0-16.26,8.14,8.14,0,1,1,0,16.26Z" fill="#fff"/>
      <path d="M64.83,60.77a99.46,99.46,0,0,1-.69-12.4,25.9,25.9,0,0,1,.69-5.75L23.69,20.12v-.2H53.63c5.75,0,7.14,1.69,8.23,6.55l3-.8a63.58,63.58,0,0,1-.69-11c0-7.43.69-13.88.69-13.88l-3-.79c-1.09,6.84-2.48,8.92-8.23,8.92H25.08c-5.75,0-7.14-2.08-8.23-8.92l-3,.79a99.38,99.38,0,0,1,.69,12.39,25.78,25.78,0,0,1-.69,5.75L55,41.34v.29H25.08c-5.75,0-7.14-1.68-8.23-6.54l-3,.79a63.65,63.65,0,0,1,.69,11c0,7.43-.69,13.88-.69,13.88l3,.79c1.09-6.84,2.48-8.92,8.23-8.92H53.63c5.75,0,7.14,2.08,8.23,8.92Z" fill="#fff"/>
      <path d="M53.63,109.64c5.75,0,7.14,2.08,8.23,8.92l3-.8s-.69-6.44-.69-13.87c0-5.75.69-7.84.69-12.79,0-8.23-2.38-19.43-14.87-19.43-6.84,0-11,5.75-12,13.78h-.2c-1.09-7.93-6.05-11.7-11.8-11.7-7.33,0-12.09,4.86-12.09,17.84,0,3.77.59,7.54.69,12.3a95,95,0,0,1-.69,13.87l3,.8c1.09-6.84,2.48-8.92,8.23-8.92Zm-35.69-11v-3c0-6.44,2.48-10.51,9.32-10.51s9.52,3.47,9.52,10.41H40v-.89c0-8.73,4.26-11.2,11.2-11.2,5.55,0,10.11,3,10.11,9.31,0,3.67-1.68,5.85-7.63,5.85Z" fill="#fff"/>
      <path d="M64.83,174.76s-.69-6.44-.69-13.88c0-5.75.69-7.83.69-12.78,0-8.23-2.38-19.33-14.87-19.33-12.29,0-14.17,12.88-14.17,19.43,0,1.28,0,3.17.09,4.36l3.18-.2v-.89c0-8.73,5.15-10.91,12.09-10.91,5.55,0,10.11,2.88,10.11,9.22,0,3.67-1.68,5.85-7.63,5.85H17.94V147.7c0-7.93,2.78-11.4,9.82-13.18l-.7-3.37-13.18,1.68s.69,20.52.69,28-.69,13.88-.69,13.88l3,.79c1.09-6.84,2.48-8.92,8.23-8.92H53.63c5.75,0,7.14,2.08,8.23,8.92Z" fill="#fff"/>
      <path d="M16.85,261.9c1.09-6.84,2.48-8.93,8.23-8.93H53.63c5.75,0,7.14,2.09,8.23,8.93l3-.8s-.69-6.44-.69-13.88a63.58,63.58,0,0,1,.69-11l-3-.79c-1.09,4.86-2.48,6.54-8.23,6.54H40.35v-8.62c14.07-.6,25.07-10.81,25.07-24.59,0-14.27-11.59-24.68-26.26-24.68-14.48,0-25.88,10.31-25.88,24.68,0,13.48,10.21,23.4,23.5,24.49V242H25.08c-5.75,0-7.14-1.68-8.23-6.54l-3,.79a63.58,63.58,0,0,1,.69,11c0,7.44-.69,13.88-.69,13.88l3,.8Zm20.62-40c-14,0-20.62-4.86-20.62-13.09,0-10.41,12.79-13.18,24.29-13.18,13.88,0,20.72,4.86,20.72,13.08C61.86,219.07,49,221.85,37.47,221.85Z" fill="#fff"/>
      <path d="M64.83,423.67a99.38,99.38,0,0,1-.69-12.39,25.9,25.9,0,0,1,.69-5.75L23.69,383v-.2H53.63c5.75,0,7.14,1.69,8.23,6.54l3-.79a63.58,63.58,0,0,1-.69-11c0-7.44.69-13.88.69-13.88l-3-.79c-1.09,6.84-2.48,8.92-8.23,8.92H25.08c-5.75,0-7.14-2.08-8.23-8.92l-3,.79a99.38,99.38,0,0,1,.69,12.39,25.9,25.9,0,0,1-.69,5.75L55,404.24v.3H25.08c-5.75,0-7.14-1.69-8.23-6.54l-3,.79a63.58,63.58,0,0,1,.69,11c0,7.44-.69,13.88-.69,13.88l3,.79c1.09-6.84,2.48-8.92,8.23-8.92H53.63c5.75,0,7.14,2.08,8.23,8.92l3-.79Z" fill="#fff"/>
      <path d="M64.83,494.94a99.18,99.18,0,0,1-.69-12.39,25.9,25.9,0,0,1,.69-5.75L23.69,454.3v-.2H53.63c5.75,0,7.14,1.69,8.23,6.55l3-.8a63.58,63.58,0,0,1-.69-11c0-7.44.69-13.88.69-13.88l-3-.79c-1.09,6.84-2.48,8.92-8.23,8.92H25.08c-5.75,0-7.14-2.08-8.23-8.92l-3,.79a99.38,99.38,0,0,1,.69,12.39,25.78,25.78,0,0,1-.69,5.75L55,475.51v.3H25.08c-5.75,0-7.14-1.68-8.23-6.54l-3,.79a63.65,63.65,0,0,1,.69,11c0,7.43-.69,13.87-.69,13.87l3,.8c1.09-6.84,2.48-8.92,8.23-8.92H53.63c5.75,0,7.14,2.08,8.23,8.92l3-.8Z" fill="#fff"/>
      <path d="M53.63,557.3c5.75,0,7.14,2.08,8.23,8.92l3-.8s-.69-6.44-.69-13.87a63.65,63.65,0,0,1,.69-11l-3-.79c-1.09,4.86-2.48,6.54-8.23,6.54H40.35V525.38H53.63c5.75,0,7.14,1.68,8.23,6.54l3-.79a63.65,63.65,0,0,1-.69-11c0-7.43.69-13.88.69-13.88l-3-.79c-1.09,6.84-2.48,8.92-8.23,8.92H25.08c-5.75,0-7.14-2.08-8.23-8.92l-3,.79s.69,6.45.69,13.88a63.65,63.65,0,0,1-.69,11l3,.79c1.09-4.86,2.48-6.54,8.23-6.54h11.7v20.91H25.08c-5.75,0-7.14-1.68-8.23-6.54l-3,.79a63.65,63.65,0,0,1,.69,11c0,7.43-.69,13.87-.69,13.87l3,.8c1.09-6.84,2.48-8.92,8.23-8.92Z" fill="#fff"/>
      <path d="M64.83,636.7a99.38,99.38,0,0,1-.69-12.39,25.78,25.78,0,0,1,.69-5.75L23.69,596.05v-.19H53.63c5.75,0,7.14,1.68,8.23,6.54l3-.79a63.65,63.65,0,0,1-.69-11c0-7.43.69-13.88.69-13.88l-3-.79c-1.09,6.84-2.48,8.92-8.23,8.92H25.08c-5.75,0-7.14-2.08-8.23-8.92l-3,.79a99.46,99.46,0,0,1,.69,12.4,25.75,25.75,0,0,1-.69,5.74L55,617.27v.29H25.08c-5.75,0-7.14-1.68-8.23-6.54l-3,.8a63.58,63.58,0,0,1,.69,11c0,7.43-.69,13.88-.69,13.88l3,.79c1.09-6.84,2.48-8.92,8.23-8.92H53.63c5.75,0,7.14,2.08,8.23,8.92Z" fill="#fff"/>
      <polygon points="117.07 358.25 117.07 356.46 97.24 356.46 97.24 358.25 117.07 358.25" fill="#fff"/>
      <path d="M48.28,313.34c5.65,2.18,7.33,2.58,9.12,2.58,2.47,0,3.37-2.08,4.06-6.15l3.37.9s-.69,6.93-.69,11.1a85.24,85.24,0,0,0,.69,10l-3.37,1s-1.09-5.35-3.07-8-5.16-4.56-11.6-7.14L0,299a11.29,11.29,0,0,0,.1-1.39A14.42,14.42,0,0,0,0,296l54.42-22.61c4.46-1.88,5.95-3.66,7-8.32l3.37,1a63.84,63.84,0,0,0-.69,10.61c0,4.85.69,13.48.69,13.48l-3.37,1c-.89-4.36-1.69-5.95-3.77-5.95a13.37,13.37,0,0,0-3.57,1L17.25,301.25l31,12.09Z" fill="#fff"/>
      <path d="M48.28,688.94c5.65,2.18,7.33,2.57,9.12,2.57,2.47,0,3.37-2.08,4.06-6.14l3.37.89s-.69,6.94-.69,11.1a85,85,0,0,0,.69,10l-3.37,1s-1.09-5.36-3.07-8-5.16-4.56-11.6-7.14L0,674.56a11,11,0,0,0,.1-1.38,14.48,14.48,0,0,0-.1-1.59L54.42,649c4.46-1.89,5.95-3.67,7-8.33l3.37,1a63.84,63.84,0,0,0-.69,10.61c0,4.86.69,13.48.69,13.48l-3.37,1c-.89-4.36-1.69-6-3.77-6a13.08,13.08,0,0,0-3.57,1L17.25,676.84Z" fill="#fff"/>
    </g>
  </g>
</svg>
