<svg xmlns="http://www.w3.org/2000/svg" viewBox="0 0 35 35"><path fill="#fff" d="M3.38 11.63c-.26.58-.35.61-1 .61-.45 0-.54 0-.61-.12s-.1-.3-.1-.59v-2c0-.59.05-.61.32-.65h.13a.12.12 0 000-.17H.55a.12.12 0 000 .17h.16c.27 0 .32.06.32.65v2.12c0 .59-.05.61-.32.64H.54c-.05 0 0 .15 0 .17h2.83a6 6 0 00.24-.83.16.16 0 00-.23 0zM3.4 8.48a.28.28 0 00-.32.27.21.21 0 00.18.25.3.3 0 01.3.29c0 .25-.21.42-.46.52a.14.14 0 000 .15 1 1 0 00.78-.85.57.57 0 00-.48-.63zM9.54 10.1a2.34 2.34 0 00-2.47-2.44 2.46 2.46 0 00-2.54 2.51 2.41 2.41 0 002.54 2.42 2.43 2.43 0 002.47-2.49zm-4.29-.16c0-1.56 1-2.06 1.7-2.06 1.36 0 1.88 1.26 1.88 2.44 0 1.4-.81 2-1.67 2-1.4.04-1.91-1.32-1.91-2.38zM13.57 11.49a1.24 1.24 0 01-1.19.84 1.59 1.59 0 01-1.5-1.8 1.48 1.48 0 011.46-1.68 1 1 0 011.1.83.15.15 0 00.18 0c0-.42-.06-.76-.08-.89h-.15a4.39 4.39 0 00-1-.13 2.68 2.68 0 00-1.57.48 1.85 1.85 0 00-.72 1.51 1.8 1.8 0 00.81 1.57 2.57 2.57 0 001.46.38 3.51 3.51 0 00.89-.13h.19a2.24 2.24 0 00.28-.87.11.11 0 00-.16-.11zM17.52 11.49a1.23 1.23 0 01-1.19.84 1.59 1.59 0 01-1.49-1.8 1.48 1.48 0 011.45-1.68 1.05 1.05 0 011.11.83.15.15 0 00.18 0c-.06-.42-.07-.76-.08-.89h-.16a4.31 4.31 0 00-1-.13 2.7 2.7 0 00-1.57.48 1.88 1.88 0 00-.72 1.51 1.8 1.8 0 00.81 1.57 2.59 2.59 0 001.46.38 3.51 3.51 0 00.89-.13h.2a2.27 2.27 0 00.27-.87.11.11 0 00-.16-.11zM18.14 12.31H18v.17h1.53s.05-.13 0-.17h-.13c-.26 0-.31-.06-.31-.66V9.53c0-.6.05-.62.31-.65h.13a.14.14 0 000-.17H18a.14.14 0 000 .17h.13c.26 0 .32 0 .32.65v2.12c.01.6-.05.62-.31.66zM22.61 12.32h-.21c-.26 0-.32-.05-.32-.65V9.19c0-.24 0-.25.16-.25h.32c.61 0 .72.11.8.55a.12.12 0 00.17 0 4.22 4.22 0 01.09-.9H23.47c-.06.13-.15.15-.43.15h-2.32c-.39 0-.47 0-.5-.15s0 0-.06 0h-.06a8.43 8.43 0 01-.22.86.13.13 0 00.18 0c.21-.46.37-.52.89-.52h.32c.15 0 .15 0 .15.25v2.46c0 .6-.05.62-.32.64h-.23v.17h1.72s.06-.09.02-.13zM26.79 12.32h-.08c-.29-.06-.32-.1-.45-.48l-.82-2.39c-.1-.25-.17-.52-.26-.78a.13.13 0 00-.1 0 1 1 0 01-.4.27.89.89 0 01-.1.42l-.79 2-.27.69c-.09.19-.15.24-.32.26h-.17a.13.13 0 000 .17H24.19c.05 0 .06-.13 0-.17h-.17c-.21 0-.23 0-.12-.38l.23-.68c.06-.15.05-.15.2-.15h.76c.16 0 .17 0 .23.15l.27.77c.07.25.05.28-.15.31h-.13a.15.15 0 000 .17h1.44a.12.12 0 00.04-.18zM25 10.82h-.59c-.14 0-.15 0-.09-.17l.28-.65.17-.45a3 3 0 01.16.45l.24.68c.06.13.03.14-.17.14zM30.4 8.71h-.65c-.06 0-.06.13 0 .17h.13c.14 0 .23 0 .28.14a3.07 3.07 0 01.11 1.12v1.11a.38.38 0 010 .14c-.06 0-.59-.64-.83-.9l-.57-.62a7.23 7.23 0 01-.92-1.18h-1.06c-.21 0-.07.13 0 .17h.09a1 1 0 01.3.12c.19.16.19.25.19.7V11a4.09 4.09 0 01-.08 1.12.27.27 0 01-.25.13h-.12a.12.12 0 000 .17h1.24a.1.1 0 000-.17h-.12c-.14 0-.24-.05-.29-.14a3.31 3.31 0 01-.14-1.11V9.93v-.36l.65.71 1.33 1.52.67.79a.26.26 0 00.2-.08v-2.37A4.09 4.09 0 0130.64 9a.27.27 0 01.24-.13h.13a.12.12 0 000-.17zM34.32 11.63c-.2.46-.33.62-1 .61-.48 0-.58 0-.64-.12s-.1-.3-.1-.59v-.73c0-.14 0-.15.14-.15h.27c.49 0 .59 0 .63.25v.23h.18c.02 0 0-.38 0-.6v-.57c0-.16-.13 0-.18 0v.19c0 .25-.13.25-.63.25h-.27c-.13 0-.14 0-.14-.15v-1c0-.32 0-.33.24-.33h.39a1.64 1.64 0 01.45.05c.18 0 .27.19.36.52h.18c0-.25-.07-.7-.09-.8a6.52 6.52 0 01-.77 0H31.47a.12.12 0 000 .17h.09c.27 0 .32.06.32.66v2.12c0 .6-.05.62-.32.65h-.21v.17h2.91a3.54 3.54 0 00.24-.83.14.14 0 00-.18 0zM8.06 15.35c-.15.3-.24.31-.47.31s-.25 0-.29-.07a.54.54 0 010-.26V15c0-.08 0-.08.08-.08h.18c.14 0 .17 0 .2.15v.07h.1v-.29-.28c0-.08-.08 0-.1 0v.07c0 .13-.06.15-.2.15h-.22c-.08 0-.08 0-.08-.08v-.47c0-.1 0-.11.09-.11h.21a.36.36 0 01.27.09.68.68 0 01.1.21h.1v-.42H6.68a.08.08 0 000 .1h.07c.12 0 .14 0 .14.29v1c0 .24 0 .26-.14.28h-.13v.09h1.43a1.77 1.77 0 00.11-.43.07.07 0 00-.1.01zM10.14 14h-.36a.09.09 0 000 .1h.07c.08 0 .14 0 .16.08a2 2 0 010 .5v.37a.45.45 0 010 .12l-.26-.3-.22-.26a2.35 2.35 0 01-.42-.61h-.59v.1h.07c.09 0 .13 0 .15.09s0 .08 0 .23v.68a1.83 1.83 0 010 .49c0 .06-.07.07-.14.09h-.08a.1.1 0 000 .09h.66v-.09h-.07c-.07 0-.13 0-.16-.09a1.83 1.83 0 010-.49v-.52-.17a4.41 4.41 0 01.29.34l.62.77.22.29a.24.24 0 00.16-.06v-1.07a2 2 0 010-.5s.08-.07.15-.08 0-.08 0-.1zM13 14.07a1.52 1.52 0 00-.5-.07 5.72 5.72 0 00-.62 0 .06.06 0 000 .09h.08c.11 0 .12 0 .12.32v1c0 .25 0 .27-.14.29h-.07v.09h.82v-.09h-.09c-.12 0-.14 0-.14-.29v-1.15c0-.11 0-.13.11-.13s.34.21.34.41 0 .36-.27.43v.07h.09c.14 0 .58-.06.58-.5a.48.48 0 00-.31-.47zM15.33 15.63a2.21 2.21 0 01-.42-.67v-.06a.43.43 0 00.28-.4.44.44 0 00-.23-.4 1.18 1.18 0 00-.53-.1 6.59 6.59 0 00-.67 0v.09h.07c.11 0 .12 0 .12.32v1c0 .24 0 .26-.14.28h-.07v.09h.78v-.09h-.07c-.12 0-.14 0-.14-.28v-.33c0-.06 0-.06.1-.06a.15.15 0 01.15.09 2.74 2.74 0 00.21.42.54.54 0 00.52.28h.21v-.07a.38.38 0 01-.17-.11zm-.62-.82a.27.27 0 01-.21.08c-.16 0-.16 0-.16-.1v-.53c0-.13 0-.13.11-.13a.35.35 0 01.35.39.41.41 0 01-.09.29zM16.73 14a.92.92 0 00-1 .94.88.88 0 00.93.92.93.93 0 100-1.86zm0 1.73c-.44 0-.55-.52-.55-.85s.17-.76.5-.76.54.37.54.83-.12.75-.47.75zM19.61 14h-.33a.05.05 0 000 .09h.07c.07 0 .08 0 .08.05v.09c0 .1-.14.4-.21.57l-.1.25-.09.2-.08-.21-.24-.6-.11-.3c0-.02 0 0 .07-.05h.08a.07.07 0 000-.09h-.77a.07.07 0 000 .09h.08c.12 0 .12 0 .23.3l.43 1.09c0 .09.09.23.12.31H19l.27-.69.2-.47a3.15 3.15 0 01.22-.45.21.21 0 01.15-.09h.07V14zM21.51 15.35c-.15.3-.24.31-.47.31s-.25 0-.28-.07a.54.54 0 010-.26V15c0-.08 0-.08.07-.08H21c.13 0 .16 0 .19.15v.07a.09.09 0 00.1 0 2.71 2.71 0 010-.29 2.44 2.44 0 010-.28.08.08 0 00-.1 0v.07c0 .13-.06.15-.19.15h-.19c-.07 0-.07 0-.07-.08v-.47c0-.1 0-.11.08-.11H21a.35.35 0 01.26.09.51.51 0 01.1.21h.1v-.42h-1.33a.07.07 0 000 .1h.06c.12 0 .14 0 .14.29v1c0 .24 0 .26-.14.28h-.12v.09h1.43a1.41 1.41 0 00.11-.43.07.07 0 00-.1.01zM23.6 14h-.36v.1h.07c.07 0 .13 0 .15.08a2 2 0 010 .5v.37a.45.45 0 010 .12l-.25-.3-.21-.25a2.23 2.23 0 01-.44-.62H22v.1c.09 0 .13 0 .15.09s0 .08 0 .23v.68a1.83 1.83 0 010 .49c0 .06-.07.07-.15.09s0 .08 0 .09h.66a.1.1 0 000-.09h-.08c-.07 0-.13 0-.15-.09a1.83 1.83 0 010-.49v-.52a.58.58 0 010-.17 2.85 2.85 0 01.29.34l.62.77.22.29a.22.22 0 00.16-.06v-1.06a2 2 0 010-.5s.07-.07.14-.08a.09.09 0 000-.1zM25.93 15.29a.57.57 0 01-.55.41c-.32 0-.63-.29-.63-.82s.32-.79.62-.79a.48.48 0 01.5.38h.11a2.83 2.83 0 010-.41 2.71 2.71 0 00-.55-.07 1.15 1.15 0 00-.74.24.87.87 0 00-.33.71.85.85 0 00.34.7 1.25 1.25 0 00.73.2 2 2 0 00.54-.09 1.28 1.28 0 00.1-.43.07.07 0 00-.14-.03zM27.85 15.35c-.15.3-.24.31-.47.31s-.25 0-.29-.07a.54.54 0 010-.26V15c0-.08 0-.08.08-.08h.18c.14 0 .17 0 .2.15v.07h.1v-.57h-.1v.07c0 .13-.06.15-.2.15h-.18c-.08 0-.08 0-.08-.08v-.47c0-.1 0-.11.09-.11h.21a.36.36 0 01.27.09.68.68 0 01.1.21h.1v-.42h-1.39a.08.08 0 000 .1h.07c.12 0 .14 0 .14.29v1c0 .24 0 .26-.14.28h-.13v.09h1.44a1.77 1.77 0 00.11-.43.07.07 0 00-.11.01z"/></svg>
