<svg xmlns="http://www.w3.org/2000/svg" viewBox="0 0 45.4 249.6"><path fill="#fff" fill-rule="evenodd" d="M13.4 100.6a16 16 0 1116 16 16 16 0 01-16-16m4.2-50.2L17 40.2h27.7V36H17l.6-10.2H14v24.5zm3.9 171.7h23.2v-4.3H14v2.9L33.5 234 14 247.2v2.4h30.7v-3.3H22.2L40 234.4zm12-31v10.4l-12.2-4.4-1.8-.6zm3.3 11.6v-13l7.9-3V182L14 194v3l30.7 12.3v-3.7zm3.6-26.7c7.9-6.7 6.2-21-4.5-20.4-6.8.3-8.1 9-11 13.1-2.2 3.1-5.7 2.7-7.4.3-2.3-3-.5-7.5 1.4-10.3l-2.9-2.3a15 15 0 00-2.1 12c1.8 6 9.3 8.4 13.6 3.2 3.4-4.1 5.2-12.4 9.7-12.6a4.6 4.6 0 014 1.8c2.9 3.8-.2 9.8-3.3 12.5l2.5 2.7zm-23.7-53.4l2.5 2a16.7 16.7 0 00-1.9 3 11 11 0 001.2 11c4.9 6.8 16.8 6.8 21.7 0 2.7-3.9 2.8-9.2-.7-13.7l2.5-2.3a13.5 13.5 0 011.4 2.1 16 16 0 01-6.4 21.6 16.3 16.3 0 01-15.3 0 16 16 0 01-8.3-14 15.6 15.6 0 013.3-9.8zM0 95.6l5.8 10.2 2.1-1-4.5-11zm17.6-14.8L17 70.5h27.7v-4H17l.6-10.3H14v24.5zm27-61.4V0h-3.4l.5 15.2H30.2l.3-12.7h-3.6l.2 12.7H17L17.5.4H14v19zM16.5 104c-1.7-6.5 3-12.6 10-14.5s14.2 1 16 7.5-3 12.7-10 14.5-14.2-1-16-7.5z"/></svg>
