<svg xmlns="http://www.w3.org/2000/svg" viewBox="0 0 39.96 196.43"><title>maxmara</title><path d="M37.85,150.2c-.31,2.82-1.41,3.87-3.28,3.92l-30.52.28c-1.86,0-2.12-1.38-2.44-4.2-.13-1.27-1.58-1.43-1.61,0,0,1.75.26,3.52.27,5.28,0,1.13-.05,2.24-.12,3.36-.07,1.46.74,2.38,2.25,2.93l23,8.46c1,.35,1.1,1,0,1.55l-23.16,11c-.84.4-1.69.83-1.7,2.1,0,1,0,1.95,0,2.93,0,1.76-.3,4.32-.27,6.07,0,1.43,1.37,1.27,1.5,0,.32-2.83.78-5.22,3.39-5.23a169,169,0,0,0,29.41,1.74c2.61,0,3.08,2.24,3.39,5.06.15,1.27,1.47,1.43,1.5,0,0-1.75-.27-4.3-.27-6.07h0v-1.71c0-1.75.3-4.3.27-6.07,0-1.42-1.35-1.26-1.5,0-.31,2.82-.78,5.23-3.39,5.24a209.3,209.3,0,0,1-23,.24c-1.36,0-1.53-.65-.07-1.28l26-11.35c1.37-.59,2-1.11.1-1.85l-26.31-10c-1.71-.64-1.45-1.31.41-1.34l22.87-.35c1.87.06,3,1.1,3.28,3.92.15,1.27,1.58,1.43,1.61,0,0-1.75-.27-3-.27-4.75V155c0-1.73.29-3,.27-4.75,0-1.43-1.46-1.27-1.61,0" fill="#fff"/><path d="M37.85,59.05c-.31,2.82-1.41,3.87-3.28,3.91l-30.52.3C2.19,63.2,1.93,61.87,1.61,59,1.48,57.79,0,57.62,0,59c0,1.77.26,3.54.27,5.29,0,1.12-.05,2.24-.12,3.37-.07,1.44.74,2.36,2.25,2.93l23,8.45c1,.36,1.1,1,0,1.56l-23.16,11c-.84.39-1.69.82-1.7,2.09,0,1,0,2,0,2.94,0,1.75-.3,4.31-.27,6.07,0,1.43,1.37,1.26,1.5,0,.32-2.82.78-5.23,3.39-5.24a168,168,0,0,0,29.41,1.74c2.61,0,3.08,2.26,3.39,5.08a1.47,1.47,0,0,0,.12.46c-.38,2.18-1.3,2.7-2.91,4.14l-8.47,5.92a1.17,1.17,0,0,1-1.35-.05l-.26-.21c-1.65-1.33-3.08-2.73-4.73-4.19a8.06,8.06,0,0,1-3-5.13c-.15-1.06-1.34-1-1.3,0,.1,2.83.08,5.42,0,8.26a.52.52,0,1,0,1,.12c.82-2.89,3.36-.72,5.61,1.07l1.38,1.14a.61.61,0,0,1,0,.85L21,118.82c-2.35,1.66-3.25,2.07-3.83,0-.21-.71-1.08-.64-1.05.07.08,2.83.09,7.79,0,10.63,0,1,1.15,1.07,1.3,0,.31-2.26,1.37-3,3-4.2l7.47-5c.72-.49,1.19-.58,1.85,0l4.88,4.12a9.84,9.84,0,0,1,3.53,6c.17,1.17,1.29.69,1.24-.38a88.47,88.47,0,0,1-.12-9.1.66.66,0,0,0-1.3-.14c-.9,3.21-3.58,1.35-6.09-.61l-1-.85c-.71-.58-.08-1.16.3-1.45l3.15-2.42c2.6-1.86,3.33-1.18,3.69.14a.65.65,0,0,0,1.28-.14c-.15-3.2,0-7.55.11-10.61a1.52,1.52,0,0,0,.09-.52c0-1.76-.27-4.32-.27-6.07h0V96.49c0-1.77.3-4.32.27-6.07,0-1.43-1.35-1.27-1.5,0-.31,2.82-.78,5.21-3.39,5.22a206.19,206.19,0,0,1-23,.25c-1.36,0-1.53-.65-.07-1.29l26-11.34c1.37-.6,2-1.12.1-1.85l-26.31-10c-1.71-.64-1.45-1.31.41-1.33l22.87-.35c1.87,0,3,1.1,3.28,3.92.15,1.25,1.58,1.42,1.61,0,0-1.77-.27-3-.27-4.76V63.81c0-1.73.29-3,.27-4.76,0-1.43-1.46-1.26-1.61,0" fill="#fff"/><path d="M32.37,137.27a5.11,5.11,0,0,1,3.27,1.31c1.18,1.46,1.49,3.33.74,4.19-2,2.24-4.48,1.67-6.61.45a5.46,5.46,0,0,1-2-2.08,10.74,10.74,0,0,1-1-2.16c-.44-1.25.18-1.77,1.12-1.81a29.41,29.41,0,0,1,4.5.1m5.4-6.94c-.36-.35-.74-.05-.78.39-.1,1.42-1.16,1.83-2.29,1.83H21.16c-2.61,0-4.47.36-5.32,1.78a10,10,0,0,0-1.05,7.82,11.51,11.51,0,0,0,6.37,7.72c1,.41,1.68.07,1.91-.63.51-1.56-.66-3-2.11-3.61-2.05-.84-3.59-1.38-4.19-2.43a4.38,4.38,0,0,1,.05-4.27c.62-1.47,3.18-1.79,6.24-1.76a2.14,2.14,0,0,1,1.91.88,16.62,16.62,0,0,1,1.54,3.26,19.79,19.79,0,0,0,4,6.08A5.48,5.48,0,0,0,35,149.11c2.29,0,2.89-.47,3.6-1.18,1.75-1.73,1.52-3.38.91-5.14a18.61,18.61,0,0,0-2.68-4.54c-.26-.39-.29-1.06.08-1.29,3.33-2,2.62-5,.86-6.63" fill="#fff"/><path d="M32.37,46.22a5.06,5.06,0,0,1,3.27,1.31c1.18,1.46,1.49,3.32.74,4.17-2,2.26-4.48,1.69-6.61.47a5.62,5.62,0,0,1-2-2.08,11.61,11.61,0,0,1-1-2.16c-.44-1.26.18-1.78,1.12-1.83a30.76,30.76,0,0,1,4.5.12M37,39.67c-.1,1.4-1.16,1.83-2.29,1.83H21.16c-2.61,0-4.47.37-5.32,1.78a10,10,0,0,0-1.05,7.83,11.44,11.44,0,0,0,6.37,7.7h0c1,.43,1.68.08,1.91-.62.51-1.55-.66-3-2.11-3.6-2.05-.86-3.59-1.39-4.19-2.45a4.34,4.34,0,0,1,.05-4.25c.62-1.49,3.18-1.81,6.24-1.76A2.14,2.14,0,0,1,25,47a16.35,16.35,0,0,1,1.54,3.26,19.63,19.63,0,0,0,4,6.07A5.39,5.39,0,0,0,35,58c2.29,0,2.89-.45,3.6-1.18,1.75-1.71,1.52-3.38.91-5.12a18.8,18.8,0,0,0-2.68-4.54c-.26-.39-.29-1.07.08-1.3,3.33-2,2.62-5,.86-6.62-.36-.35-.74-.07-.78.39" fill="#fff"/><path d="M32.37,7.09A5.22,5.22,0,0,1,35.64,8.4c1.18,1.46,1.49,3.33.74,4.19-2,2.25-4.48,1.68-6.61.45a5.5,5.5,0,0,1-2-2.07,11.52,11.52,0,0,1-1-2.15C26.31,7.55,26.93,7,27.87,7a30.75,30.75,0,0,1,4.5.1M37,.54C36.89,2,35.83,2.37,34.7,2.37H21.16c-2.61,0-4.47.36-5.32,1.78A10,10,0,0,0,14.79,12a11.46,11.46,0,0,0,6.37,7.7c1,.43,1.68.08,1.91-.63.51-1.55-.66-3-2.11-3.6-2.05-.85-3.59-1.39-4.19-2.44a4.38,4.38,0,0,1,.05-4.27C17.44,7.28,20,7,23.06,7A2.12,2.12,0,0,1,25,7.88a15.94,15.94,0,0,1,1.54,3.27,19.86,19.86,0,0,0,4,6.07A5.48,5.48,0,0,0,35,18.93c2.29,0,2.89-.47,3.6-1.18,1.75-1.72,1.52-3.38.91-5.13a18.66,18.66,0,0,0-2.68-4.55c-.26-.39-.29-1.06.08-1.29,3.33-2,2.62-5,.86-6.63C37.41-.2,37,.1,37,.54" fill="#fff"/><path d="M16,20.11a3.54,3.54,0,0,0-1.25,3.83,8.88,8.88,0,0,0,2.91,4.59c.49.47.57,1.08-.63,1.18-.77.06-1.55.06-2.32.13-1.12.11-1.31.51-.68,1.22a24.13,24.13,0,0,1,3.66,5.28c.51,1.06,1.26,1.11,1.76-.05.68-1.61,1.82-1.81,3.31-1.81H34.31c2,0,3.34.37,3.65,3.2.15,1.25,1.47,1.43,1.5,0,0-1.77-.63-4.32-.63-6.08q0-3.5.25-7c0-1.43-1.27-1.27-1.42,0-.31,2.82-.65,4.92-3.27,4.94H22.83c-1.57,0-3.62-.34-3.88-2.77a3.36,3.36,0,0,1,1-2.1c.85-1.07,1.44-2.38.62-3.8-.71-1.23-2.57-2-4.61-.77" fill="#fff"/></svg>