<svg xmlns="http://www.w3.org/2000/svg" viewBox="0 0 35 28"><path fill="#fff" fill-rule="evenodd" d="M25.76 10.52a.66.66 0 11.65-.65.65.65 0 01-.65.65zm-1.54 0a.66.66 0 11.65-.65.65.65 0 01-.65.65zm-1.55 0a.66.66 0 11.66-.65.65.65 0 01-.66.65zm.11-8.08v5.42a.43.43 0 01-.43.43h-.65l-.05.05v4.55h.48a5.25 5.25 0 00.65-10.47z"/><path fill="#fff" fill-rule="evenodd" d="M21.12 6.73a.66.66 0 11.66-.66.65.65 0 01-.66.66zm1-4.33A5.25 5.25 0 0021 12.79V8.07a.44.44 0 01.42-.42h.66a.06.06 0 00.06-.05V2.4zM33.02 16.01V17h-1.34v-.99h-.65v2.62h.65v-1.06h1.34v1.06h.65v-2.62h-.65zM21.09 17.55l.4-.95a.06.06 0 01.05 0 .07.07 0 01.06 0l.4.95zm1-1.25a.6.6 0 00-.54-.36.6.6 0 00-.54.36l-1.07 2.33h.7l.23-.56h1.36l.24.56h.7zM14.27 15.53c-.31 0-.5.17-.65.5l-.86 2-.85-2c-.15-.33-.34-.5-.65-.5a.6.6 0 00-.59.66v2.44h.66v-2.38l.86 2a.62.62 0 00.57.44.63.63 0 00.58-.44l.86-2v2.38h.65v-2.44a.59.59 0 00-.58-.66zM16 18.07v-.54h1.63V17H16v-.4a.06.06 0 01.05-.06h1.62V16h-1.99a.39.39 0 00-.39.39v1.84a.39.39 0 00.39.39h1.94v-.56zM18.74 18.63v-2a.06.06 0 01.05-.06h1.62V16h-1.94a.39.39 0 00-.39.39v2.23zM29.19 18.11H29c-.54 0-.75-.25-.75-.8 0-.53.18-.79.75-.79h.21c.56 0 .76.26.76.79 0 .55-.21.8-.76.8zm1.4-.8c0-.91-.39-1.34-1.39-1.34H29c-1 0-1.38.43-1.38 1.34 0 .91.4 1.34 1.39 1.34h.22c1 0 1.39-.43 1.39-1.34zM26.43 17.31c-.09.26-.25.43-.7.43h-.3v-1.59h.41c.37 0 .63.23.63.79a1 1 0 010 .37zm-1.65.43h-.3c-.45 0-.61-.17-.71-.43a1.35 1.35 0 010-.37c0-.56.25-.79.63-.79h.41v1.59zm1-2.15h-1.3a1.18 1.18 0 00-1.35 1.35 2.17 2.17 0 000 .37c.11.61.46 1 1.37 1h.29v.34h.65v-.34h.29c.91 0 1.26-.37 1.36-1a2.13 2.13 0 000-.37 1.19 1.19 0 00-1.34-1.35z"/></svg>
