<svg xmlns="http://www.w3.org/2000/svg" viewBox="0 0 55 176"><path fill="#fff" fill-rule="evenodd" d="M12 91h2v2c0 2 1 2 2 2a4 4 0 001-1l31-15-33-11h3l36 12v2L17 99c-1 0-3 1-3 4h-2zM26 170l18-8-18-7v-5h1v1c0 1 0 2 2 2h17c2 0 2-1 2-2v-1h1v8h-1v-1c0-1 0-2-2-2H29l20 8v1l-20 8h10c4 0 9 0 9-2v-1h1v7h-1v-1c0-2-5-2-9-2H29l-2 1v2h-1zM26 138h1v1l2 1h17l2-1v-1h1v8h-1v-2l-2-1H29l-2 1v2h-1zM26 125h1v2l2 1h17l2-1c0-2-1-9-4-9v-1l5 1v16h-1v-2l-2-1H29l-2 1v2h-1zM40 110h2l4 2 2-1v-1h1v6h-1v-1c0-1-1-2-8-4l-14-5v-1l20-7c1 0 2 0 2-2v-1h1v8h-1v-1l-1-1a10 10 0 00-2 0l-5 2v7zm-1-7l-9 3 9 3zM26 61h1v2l2 1h17l2-1v-2h1v9h-1v-2l-2-1H29l-2 1v2h-1zM26 40h5v1c-2 0-4 3-4 6l1 1h18l2-1v-2h1v9h-1v-2l-2-1H28l-1 1c0 3 2 6 4 6v1h-5zM43 36c3 0 5-3 5-6a5 5 0 00-4-5 4 4 0 00-4 2l-3 6c-2 2-3 4-5 4-3 0-6-1-6-6a12 12 0 011-6h-1v-1h6v1h-1c-2 0-4 3-4 6 0 2 1 4 3 4a4 4 0 003-2l4-6c1-2 2-4 6-4 2 0 6 2 6 7a12 12 0 01-1 6h1v1h-6zM40 14l2 1 4 1 2-1v-1h1v6h-1c0-1-1-2-8-5l-14-4v-1l20-7 2-2V0h1v8h-1V7l-1-2a10 10 0 00-2 1l-5 2v6zm-1-6l-9 3 9 3z"/><path fill="#fff" fill-rule="evenodd" d="M9 67l-9-1 9-1-4-5 5 4 1-37 1 38 10 1-9 1 2 5-3-4-1 19-1-19-5 4 4-5z"/></svg>
