<svg xmlns="http://www.w3.org/2000/svg" viewBox="0 0 334.6 73.66"><title>monro</title><path d="M11.24,13.23v1.13q0,25.86,0,51.72A1.65,1.65,0,0,0,12.53,68c2,.65,3.89,1.47,5.85,2.14.88.3,1.29.73.95,1.76H.14c-.37-1,0-1.43.94-1.75,2.08-.71,4.11-1.55,6.19-2.27a1.24,1.24,0,0,0,1-1.38q0-31.19,0-62.39c0-.86-.27-1.17-1.11-1.31C5.45,2.46,3.78,2,2.1,1.67,1,1.42,1,1.41,1.15,0H2.42c4.12,0,8.24,0,12.36,0,6,0,10.64,2.41,13.49,7.87q6.23,11.9,12.46,23.77l9.83,18.8c.18.35.39.69.68,1.22.26-.59.45-1,.62-1.42C57.39,36.45,63,22.69,68.4,8.86,70.5,3.51,74,.3,79.89.12,84.24,0,88.59.1,93,.1c.44,1.07-.06,1.48-1.07,1.69-1.36.28-2.7.71-4.07,1A1,1,0,0,0,86.89,4c0,.19,0,.4,0,.6q0,31.44,0,62.87c0,1.19.33,1.69,1.5,1.9,1.56.29,3.09.76,4.67,1.16v1.33H64c-.31-1,0-1.42,1-1.61,1.44-.27,2.85-.74,4.3-1.06.63-.14.9-.41.84-1,0-.32,0-.64,0-1V13.31l-.23-.08c-.19.4-.39.79-.55,1.2Q57.8,43,46.32,71.56c-.27.65-.3,1.53-1.42,1.43s-2.13.21-2.87-1.22Q27.14,43,12.09,14.26c-.19-.37-.41-.73-.61-1.09Z" fill="#fff"/><path d="M189.47,71.9H161c-.33-.93-.14-1.43.88-1.63,1.41-.28,2.78-.73,4.19-1,.78-.16,1-.51,1-1.29,0-3.8,0-7.6,0-11.4,0-10.44,0-20.87,0-31.31,0-1.24-.22-1.9-1.57-2.07s-2.39-.64-3.6-.86c-1-.19-1.26-.67-.84-1.83,4.07.14,8.26,0,12.34.53a10.44,10.44,0,0,1,8,6.21c.14.28.29.55.49.94a3.07,3.07,0,0,0,.34-.39c4.46-7.22,10.89-10,19.22-8.28,6.32,1.34,11.25,4.64,14.11,10.62a14.42,14.42,0,0,1,1.31,6.28c0,10.44,0,20.88,0,31.32,0,1,.25,1.42,1.23,1.6,1.34.25,2.63.7,4,1,.94.18,1.22.62.89,1.63-.33,0-.71,0-1.09,0-4.08,0-8.16,0-12.24,0a15.37,15.37,0,0,1-2.62-.23,7.32,7.32,0,0,1-6.35-7.06c-.09-1.2-.1-2.4-.11-3.6,0-9.15,0-18.31-.15-27.47a15,15,0,0,0-2.16-7.4c-2.38-4.07-6.59-4.8-10.26-1.84a15.22,15.22,0,0,0-4.35,6.08,3.46,3.46,0,0,0-.21,1.4q0,18,0,36c0,.87.24,1.29,1.12,1.46,1.33.26,2.63.71,4,1C189.44,70.41,189.79,70.84,189.47,71.9Z" fill="#fff"/><path d="M307.35,73.66a35,35,0,0,1-12.21-2.29,22.51,22.51,0,0,1-13.69-15.21,34.41,34.41,0,0,1,0-19.75,22.35,22.35,0,0,1,15.73-15.9,33.68,33.68,0,0,1,21,.25C327.36,23.87,332.39,30.61,334,40a34.52,34.52,0,0,1-.89,16.37c-2.93,9.33-9.42,14.66-18.88,16.52C312,73.31,309.65,73.4,307.35,73.66Zm9.95-27.41c-.25-3.51-.36-7-.77-10.52-.45-3.85-1.22-7.67-3.33-11-3.09-4.92-8.75-5-11.72,0a20.9,20.9,0,0,0-2.42,6.08A75.21,75.21,0,0,0,298.61,60a19.63,19.63,0,0,0,3.33,8.64c2.91,3.91,7.89,3.95,10.72,0a17.5,17.5,0,0,0,2.24-4.47C316.89,58.34,317.13,52.31,317.3,46.25Z" fill="#fff"/><path d="M154.85,46.36a36,36,0,0,1-2.35,12.21,22.49,22.49,0,0,1-15.05,13.55,34.49,34.49,0,0,1-19.75.06,22.43,22.43,0,0,1-16.1-16,34.22,34.22,0,0,1,0-19.87c2.49-8.35,8.09-13.76,16.47-16a34,34,0,0,1,20.09.42c8.92,3,14,9.42,15.83,18.53C154.47,41.57,154.58,44,154.85,46.36Zm-37.31,1.49c.16,2.1.33,5.85.78,9.58a25.63,25.63,0,0,0,3.06,10.14c3.15,5.33,9.06,5.36,12.11,0a20.5,20.5,0,0,0,2.08-5.2,74,74,0,0,0,.61-29.64,19.15,19.15,0,0,0-3.57-9c-2.83-3.55-7.51-3.6-10.27,0A16.91,16.91,0,0,0,120,28.22C117.87,34,117.69,40.11,117.54,47.85Z" fill="#fff"/><path d="M228.63,71.89c-.31-1-.1-1.44.92-1.63,1.45-.28,2.85-.75,4.3-1.06.7-.14.89-.47.88-1.14,0-2.36,0-4.72,0-7.08,0-12,0-24,0-36,0-1.1-.34-1.55-1.38-1.75-1.29-.24-2.55-.69-3.84-.91-1.05-.19-1.17-.73-.86-1.81,4,.12,8.13,0,12.14.46A10.61,10.61,0,0,1,249,27c.18.34.35.69.6,1.19l.89-1.05c4.95-5.77,11.1-8.21,18.62-6.57a8.09,8.09,0,0,1,6.6,7.82,13.75,13.75,0,0,1-.2,3.57A6.39,6.39,0,0,1,270,37.27a27,27,0,0,1-5-.05c-.78,0-1-.45-1-1.18,0-4,0-8,0-12V22.6a10.43,10.43,0,0,0-5,1,17.55,17.55,0,0,0-7.59,6.76,2.72,2.72,0,0,0-.36,1.34q0,18.12,0,36.24c0,.76.19,1.15,1,1.31,1.4.28,2.77.75,4.18,1,1,.19,1.22.69.92,1.63Z" fill="#fff"/></svg>