<svg xmlns="http://www.w3.org/2000/svg" viewBox="0 0 697.36 149.66"><title>mur-mur</title><path d="M32.68,56c-2.11,9.87-4.28,19.72-6.31,29.61-1.61,7.83-3.2,15.67-4.48,23.56-.66,4.13-3.11,6.08-6.77,5.7-4.06-.42-8.37-1.18-11.92-3.05C-1.06,109.58-.14,105,.75,101,4.09,86.25,7.34,71.45,11,56.74c2.36-9.53,5.88-18.79,7.88-28.38,1.3-6.19.67-12.77,1.18-19.16.13-1.72.81-4,2.05-4.93,6.2-4.55,13.16-5.54,20.3-2.61a7.22,7.22,0,0,1,3.46,4.4C47.6,12.65,48.93,19.34,50.39,26c1.57,7.1,3.11,14.21,4.8,21.9A22.18,22.18,0,0,0,66.68,36.74c3.35-6.87,6.38-13.92,9.08-21.07,1.27-3.36,3.18-4.91,6.59-4.84,2,0,4,.16,6,.35,4.92.48,7.93,2.56,9.3,7.92,5,19.66,11,39.09,15.83,58.79,2.15,8.67,2.7,17.76,3.71,26.69.47,4.25-1,7.11-6,8.15-12.47,2.64-12.32,2.77-15.34-9.5C93,91.43,89.73,79.72,86.52,68c-1.25-4.56-3.3-5.08-6.33-1.4a40.77,40.77,0,0,0-6.06,9.68c-3.66,8.57-6.94,17.3-10.19,26-1.51,4.06-3.78,7.29-8.34,7.48s-6.93-3.18-8-7c-2.61-9.63-4.71-19.4-7.32-29-1.65-6-3.86-11.94-5.82-17.9Z" fill="#fff"/><path d="M467.18,48a23.79,23.79,0,0,0,11.74-11.71A217.53,217.53,0,0,0,487.48,16c1.28-3.55,3.21-5.28,6.85-5.22,1.82,0,3.66.11,5.48.32,5,.57,8.33,2.41,9.78,8.07,4.83,18.86,10.68,37.45,15.31,56.35,2.32,9.49,3,19.41,4.15,29.16.52,4.33-1.15,7-6,8-12.49,2.59-12.33,2.71-15.3-9.59-2.81-11.64-6-23.19-9.19-34.75-.4-1.46-1.63-3.86-2.37-3.82A6.25,6.25,0,0,0,491.67,67a167.36,167.36,0,0,0-9.15,17.12c-2.63,5.92-4.6,12.14-6.72,18.28-1.43,4.12-3.84,7.23-8.41,7.37s-6.86-3.32-7.9-7.14c-2.62-9.63-4.7-19.41-7.32-29-1.64-6-3.86-11.87-5.82-17.8l-1.61.1c-1.47,6.54-3,13.07-4.38,19.63-2.31,11.26-4.65,22.51-6.62,33.83-.7,4-3,5.82-6.36,5.49-4.22-.43-8.74-1.13-12.4-3.08-4.22-2.25-3.12-7-2.27-10.88,2.67-12.2,5.31-24.42,8.35-36.53,3-11.79,6.86-23.35,9.43-35.21,1.41-6.49.83-13.4,1.38-20.11a7.69,7.69,0,0,1,1.84-4.63c4.51-4.37,15.11-5.76,20.73-2.66a7.83,7.83,0,0,1,3.4,4.47c1.76,6.93,3.08,14,4.62,21C464,33.92,465.52,40.67,467.18,48Z" fill="#fff"/><path d="M210.12,91.84q0-22.22,0-44.44c0-2.49.29-5,.4-7.48.48-11,5.57-12.58,17.23-12.5.8,0,2,.19,2.33.72,3.67,5.44,8.68,3.11,13.47,2.57,18-2,36.73,12.9,40.66,32.23a89.6,89.6,0,0,1,0,35.22c-2.51,12.88-14,24.12-26.88,26.2-5.26.85-10.53,1.67-15.83,2.1-4,.33-5.52,1.63-4.73,5.92a52,52,0,0,1,.35,11.44c-.14,3.45-2.05,5.45-5.76,5.47-4.16,0-8.32.35-12.48.29-6.09-.09-7.68-1.66-7.71-7.81-.08-16.65,0-33.29,0-49.93Zm20.5-16.62c.49,11.63,2.39,18.73,7,24.64,6.21,8,16.42,8.44,23.37,1.1,8.82-9.31,11.25-29.08,5-40.34A19.08,19.08,0,0,0,246.64,51c-7.64,1-12.1,6-14.15,13C231.43,67.6,231.22,71.47,230.62,75.22Z" fill="#fff"/><path d="M622.37,91.32c0-16.8-.28-33.62.11-50.41.24-10.49,5.63-14.66,16.18-13.62,1.44.14,3.47.41,4.12,1.37,2.79,4.06,6.33,3.22,10.19,2.41,7.12-1.5,13.93-.05,20.4,3,15.17,7.09,23,19.32,23.78,35.79a153.23,153.23,0,0,1-.88,26.84c-1.91,14.57-13.4,25.44-28,27.78-5.25.84-10.53,1.64-15.82,2.15-3.24.32-4.17,1.61-3.79,4.83a79.42,79.42,0,0,1,.44,12.43c-.14,3.41-2.05,5.44-5.8,5.45-4.16,0-8.32.44-12.47.34-6.13-.16-7.67-1.67-7.71-7.89-.11-16.81,0-33.62,0-50.44Zm59.86-14c-1.35-5.55-2-10.73-3.88-15.41-3.11-7.66-11-11.76-19.47-11-6.83.59-12.49,5.86-14.7,13.73-2.65,9.47-1.7,18.94,1.35,28,2.33,6.9,6.48,13,15,13.44s13.77-4.57,16.73-11.81C679.46,88.75,680.63,82.88,682.23,77.3Z" fill="#fff"/><path d="M573.9,64.38c3.56-8.63,6.44-16.06,9.66-23.34,3.7-8.34,10.29-10.43,17.93-6,4.26,2.47,6.79,8.34,5.16,12.9C597,75.06,587.33,102.18,577.4,129.2c-3.29,9-16.59,12.2-24,6.06-1.31-1.08-1.9-3.45-2.16-5.31-1.29-9.33,1.33-18.25,5.9-25.87,5.81-9.7,3.38-15.64-4.21-23.09-8-7.82-14-17.69-20.48-26.93-4.69-6.66-4.94-13.53.57-20.21,3.41-4.12,6.22-5.37,10.7-2.34a71.06,71.06,0,0,1,13,11.39C562.56,49.45,567.73,56.59,573.9,64.38Z" fill="#fff"/><path d="M161.93,64.48c3.54-8.55,6.42-16,9.67-23.22,3.64-8.13,8.9-10.23,16.48-7,5.39,2.28,8.52,8.55,6.59,14-9.41,26.49-18.83,53-28.47,79.39-3.8,10.41-14.53,13.89-24.1,8a6.68,6.68,0,0,1-2.65-4.92,76.17,76.17,0,0,1,1.46-15.25c1.05-4.66,3.1-9.13,5-13.55,4.55-10.59,4.19-10.19-3.17-18.79a343.82,343.82,0,0,1-22.08-28.88c-5.57-8.11-4.77-13.75.93-21,2.55-3.27,5.88-4.51,9.13-2.19A87.81,87.81,0,0,1,145,43.16C150.78,49.53,155.76,56.63,161.93,64.48Z" fill="#fff"/><path d="M355.47,67.81c1.12-2.23,2-4.35,3.19-6.34,6.5-11.21,18.94-14.7,29.48-8.31s14.17,20.85,8,31.05a25.57,25.57,0,0,1-3.3,4.37q-9.77,10.31-19.66,20.49c-4.64,4.77-10,6.07-16.39,3.62-8.69-3.35-17.59-6.15-26.16-9.76C320,98.42,315.78,91.16,316.38,79.69c.8-15.3,15.38-24.31,29.33-17.95C349,63.23,351.9,65.56,355.47,67.81Z" fill="#fff"/><path d="M370.89,36.12c-.08,4.74-1.18,9-6,11.1s-9.18.07-12-3.47a49.56,49.56,0,0,1-7.56-13.24,10.39,10.39,0,0,1,4.41-13,12.24,12.24,0,0,1,14.66,2.33C368.06,23.53,370.87,30.54,370.89,36.12Z" fill="#fff"/><path d="M339.9,41.61c-1,3-1.68,7.39-3.72,11-3.25,5.75-10.28,6.17-14.72,1.22-5.84-6.54-6.64-14.33-4.29-22.39,1.45-5,6.05-7.72,11.08-7.62,4.76.09,8.56,3,10,8.17C339.05,34.67,339.24,37.51,339.9,41.61Z" fill="#fff"/><path d="M315.29,63.34c-.13,7.52-4,13.3-9.14,13.65s-8.57-4.25-9.46-12.53c0-.17,0-.34-.05-.5-.66-7.61,3-13.37,8.57-13.55C311.28,50.22,315.42,55.54,315.29,63.34Z" fill="#fff"/><path d="M403,42.27c-2.14,3-3.45,6.8-5.87,7.75s-6.84.15-8.93-1.61c-3-2.53-5.16-6.42-6.89-10.1-2-4.18-.94-8.25,3-11,3.55-2.47,9.45-1.78,12.16,2.06C399,33,400.59,37.43,403,42.27Z" fill="#fff"/></svg>