<svg xmlns="http://www.w3.org/2000/svg" viewBox="0 0 599.5 107.8"><path fill="#fff" d="M107.3 88.1c0-13.7.2-27.5 0-41.3-.3-12.6-1-25.2-1.4-37.8a6 6 0 012.7-4.5c2.9-1.6 6.2-2.4 9.6-3.6V83c0 5.3.2 10.6.7 15.9.2 3.3-1.7 4.6-4.3 5.9-2.8 1.4-4.3.2-6.4-1.6Q62.6 62.8 16.8 22.7a48.6 48.6 0 00-4.4-3c-.2 3.3-.6 6.1-.6 8.9l1.3 68.3c.1 3.6-.9 5.8-4.3 6.7L.6 106V82.5L0 10.3c0-4 .6-7 4.8-7.7a6.7 6.7 0 015 1Q53.5 42.8 97 82c2.7 2.4 5.7 4.5 8.6 6.7zM262.8 95.8c-2 8-4.8 10-13.5 9.8h-3.5l-72-.5h-27V.8a609.2 609.2 0 00103 0c-2.5 6.2-5.2 8.1-11 8.1l-73.5-.4h-6c-.4 7-.9 13.5-.8 20.1 0 1 2.6 2.7 4 2.7l68.2-2.7a5.3 5.3 0 011 .1c-1.8 6.1-5 8.6-11.3 8.6H159v62.8zM599.5 101.4c-3.7 1.3-7.5 3-11.4 3.9-1.1.2-3.2-1.8-4.1-3.2q-8.4-14-16.3-28.1c-1.5-2.6-3.4-3.5-6.4-3.5h-65c-2.7 0-4.5.7-6 3.2-4.8 7.6-10.4 14.8-14.6 22.7-4.3 8.4-11.4 9-20 9.5 6-8.2 11.9-15.7 17.3-23.4 17.3-24.6 34.4-49.4 52-74 2.3-3.4 6.3-5.7 9.5-8.5zm-37.7-37.6L529.7 15l-33.1 49zM415.7 107.8L349.8 5.6c3.5-1.5 7.3-3.2 11.3-4.5.7-.2 2.5 1.7 3.2 3C377 24.5 389.2 45.3 402 65.8c5 8.2 11 15.8 17 24.4 6.3-8.9 12.5-16.9 18-25.3a2149 2149 0 0035.7-55.5c4.4-7.2 11-7.7 18-8.7zM292.2 1v98c15.9 0 31.1.5 46.3 0s30-2.2 45-3.3c-1.6 7.2-4.8 9.9-12.5 9.9h-90.8V88.4l-.1-75.9c-.1-8.3 1.1-10 12.1-11.5z"/></svg>
