<svg xmlns="http://www.w3.org/2000/svg" viewBox="0 0 34 69.41"><path fill="#fff" d="M12.56 58.26c-.3-5.1 5.57-3.42 5.42 1.56-.02.91-.28 1.73-.87 2.43-.19.22-.73.61-1 .65-.07.02-.93-.37-1.13-.47-1.49-.78-2.32-2.55-2.42-4.17zm3.09 4.67c-1.03.27-2.61-.18-3.49-.81-.73-.53-1.87-2.02-1.18-2.89.52-.67.64.4.89.88.25.49.54.88.92 1.29.83.88 1.71 1.22 2.86 1.53zm-1.63-8.45c-1.38-.11-2.41.61-2.69 1.99-.1.53.01 1.92-.11 2.09-.4.59-.84.2-.79 1.51.08 2.26 2.78 4.41 4.96 4.44 5.8.1 4.28-9.58-1.37-10.03zM17.15 33.69c1.84.36.89 3.4-.54 2.28-.23-.18-.44-.52-.55-.79-.29-.72-.48-.42-.32 0 .2.57.59 1.21 1.03 1.63 1.29 1.24 3.06.56 2.56-1.35-.16-.62-.56-1.18-1.08-1.56-.66-.49-.89-.44-1.12-.54-.02-.17-.04-.2-.27-.69.42.49 2.64.4 2.31-.2-.12-.4-1.03-1.99-1.26-2.53l.08-.03c.22-.16 2.01.07.86-1.37-.21-.27-.85-1.31-1.25-1.54-.07-.04-.21-.05-.22.03l.63 1.24c.15.89-1.81-.54-2.06-.52-.05-.01-.08.02-.1.05-.05.06-.05.11-.05.17.04.58.22 1.1.39 1.3.15.19.35.2.65.36.37.14.4.21.59.72.15.41.4 1.09.13 1.11-.54.03-1.7-.91-1.88-.77l-.08.07c-.07.17-.05.35 0 .53.2 1.03 1.52 1.2.55 2.45-.43.54-.83.77.15 1.08.98.28.94-.38.85-1.13z"/><path fill="#fff" d="M16.73 40.4c-.08-.11-.02-1.18-.24-1.66-.23-.51-.91-.74-1.11-.22-.26.66.88 1.95 1.31 2.41.3.34.61.66.94.98.32.3-.28.54-.94-.03-.32-.27-.74-.87-1.13-.5-.54.49-.09.76.34 1.03.54.35 2.19 1.16 2.79.93 1.36-.55-1.16-1.5-1.12-1.86.03-.3 2.15-.82 1.84-1.86-.1-.34-1.34-2.18-1.63-2.17-.02.38.93 1.4.54 1.92-.13.17-1.45 1.09-1.59 1.03zM17.5 43.42c-.07.12.45.74.54 1.05.11.35-.14 1.09-.49.97-.15-.08-.63-.64-.84-.79-.49-.45-.9-.16-.8.37-.03.32 1.35 1.21 1.71 1.56.88.88.35 2.25-.27 1.94-.14-.07-.55-.77-.96-1.08-.31-.23-.64-.11-.73.31-.09.59 1.17 1.36 1.63 1.6.63.43 1.98.5 2.09-.56.11-.94-.73-1.55-1.2-2.02.37-.03.95-.25 1.14-.64.1-.22.05-.56-.31-1.08-.16-.25-1.27-1.76-1.51-1.63z"/><path fill="#fff" d="M17.51 49.67c-.35.14 1.36 1.67.02 1.37-.49-.1-1.89-.69-1.83.2.05.75 1.84 2.26 2.35 2.94.45.63-.48.07-.58.07-.45.01-.32.57-.1.82.42.46 1.69.64 1.81.02.14-.72-2.65-2.26-2.32-2.88.09-.08.49-.03.94.03.65.22 1.38.19 1.45-.17.05-.11.03-.26-.07-.48-.17-.23-1.58-2.24-1.67-1.92z"/></svg>
