<svg xmlns="http://www.w3.org/2000/svg" viewBox="0 0 36 72.1"><path fill="#fff" d="M21.3 65c0 4 3.3 7.2 7.3 7.1 4 0 7.2-3.1 7.3-7.1-.2-4-3.6-7.1-7.7-6.9a7.3 7.3 0 00-6.9 6.9zm7.3-5a5 5 0 015.2 4.9v.1c0 2.9-2.4 5.2-5.2 5.2s-5.2-2.4-5.2-5.2a5 5 0 015.2-5c-.1 0-.1 0 0 0zM30.8 49.1l-9.6 4 14.3 4.4v-2.2h.1l-8.5-2.5 8.9-3.7-8.9-3.7 8.5-2.6v-2.1l-14.4 4.4zM20.8 7.4l14.7 7.3v-2.3l-2.9-1.5V3.7l2.9-1.4V0L20.8 7.4zm9.9 2.6l-5.3-2.5 5.3-2.6V10zM28.1 14.5v6.9h2v-4.8a5.2 5.2 0 01-1.5 10.1 5.2 5.2 0 01-5.2-5.2c0-1.7.9-3.2 2.2-4.2l-1.2-1.6a7.1 7.1 0 00-3.1 5.8c0 3.8 3.1 7 6.9 7.1 3.9.1 7.2-3 7.3-6.9s-3-7.2-6.9-7.3l-.5.1zM8.2 43.8c-3.7 0-7.4-2.6-7.4-6.7 0-4.2 3.5-6.7 7.4-6.7 3.8 0 6.8 2 9 4.9l.3-.1v-6.6l-2.8-1.4v.7l1.4.9v3.4a9.6 9.6 0 00-7.7-4.3c-5.3 0-8.4 4.6-8.4 9.3s3.1 9.3 8.4 9.3c3.1-.1 6-1.7 7.7-4.3v3.4l-1.4.9v.7l2.8-1.4v-6.6l-.3-.2a11.5 11.5 0 01-9 4.8zM35.5 39v-8.3h-2v6.2h-3.9v-6h-2v6h-4v-6.2h-2V39z"/></svg>
