<svg xmlns="http://www.w3.org/2000/svg" viewBox="0 0 82 478"><g fill="#fff"><path d="M0 394.7c14.9-7 30.2-12.9 45.3-19.4 5.3-2.5 11.4-4 15.7-8.3 2.4-2.2 2.7-5.6 4.2-8.3-.2 4.9-.8 9.8-.6 14.7 0 4.9.9 9.7.3 14.5-1-2.4-1.2-5.6-3.6-7.1a8.8 8.8 0 00-5 .5 953 953 0 00-40.5 15.5C30 402 44 407.7 58.3 412.2c4.6 1.4 5.7-4 6.8-7.1.2 4.8-.7 9.6-.4 14.4.2 3.5.6 7 .5 10.6-1.8-3.4-2.2-7.7-5.6-10-4.2-2.8-9.1-4.2-13.7-6.2C30.6 407.4 15 401.5 0 394.7zM16.1 352c-5.5-.6-10.8-2.3-16.1-3.6a12.7 12.7 0 003.3-9c.2-12.4 0-24.8.2-37.3C18 312 32.6 321.8 46.9 332a52.2 52.2 0 0114.8 15.6c-1-4.6-1.5-9.4-.5-14 2.2-11.7 11-20.6 13.9-32a36 36 0 00-.4-19.6c-1.3-3.9-4.1-6.9-6-10.5 11.8 8.8 15.4 25.2 12.2 39-2.8 12-12.3 21-15 33-1 4-.6 8-1 12C46 342.3 26.7 329.7 7.5 317c-.4 6.5 0 13-.2 19.4 0 3.4-.3 7.2 1.7 10.3 2 2.2 4.8 3.4 7 5.4zM3.8 116c-.5-6.3 0-12.8-.4-19.1 15.5-14 30.7-28.2 46.2-42.2-11.4-.2-22.8.4-34.2.2-3.3 0-7.4-.3-9.4 2.9-1.3 2.5-1.5 5.4-2.3 8.2-.9-6.5.8-13 0-19.5 0-2.6-1-5.5.8-7.8.3 2.6-.3 5.3 1.3 7.6 1.7 3 5.5 2.9 8.4 3 17.6.2 35.3 0 52.8.8a53 53 0 01-6.2 6.7L16 99.6h38.3c2.7 0 6 0 7.8-2.5 1.8-2.6 1.7-6 2.9-8.8-.4 9.2-.2 18.4-.1 27.6-1.2-3-1-6.5-3.2-9-2.9-2.4-6.9-1.6-10.4-1.8-13.7.3-27.4-.3-41.1.4C5 106 4.7 112 3.8 116zm0-84c-1-5.9.3-11.8.1-17.6 0-4.5-.7-9-.3-13.4 1.3 3 .9 7.2 4 9.2 2.6 1.7 6 1 9 1.3 12.2.2 24.5 0 36.8.1 3-.2 6.8.2 8.9-2.5C64 6.4 63.9 3 65 0a650 650 0 000 31.8c-1.4-3.8-1.4-9.9-6.6-10.5-8-.4-16 0-24-.2-8.3.3-16.7-1-25 .3-4.7 1.2-4.5 7-5.7 10.6z"/><path d="M3 267a41.5 41.5 0 011.4-23.6 29.5 29.5 0 0117.3-17.6c11.4-4 25-1.9 34 6.2a36 36 0 013.6 48.4A32.6 32.6 0 013 267zm3-2c2.4 7.2 9.4 11.7 16.5 13.4a40.2 40.2 0 0031.8-5.2 21 21 0 009.2-18.8 18 18 0 00-8-13.1c-6.7-4.5-15.1-5.8-23-5.3-8.8.6-18 4-23.4 11.2A19.6 19.6 0 006 265zM3.5 478c-.1-7.2.5-14.3 0-21.5-.3-7.7-.5-16.2 4.5-22.6 4.2-5.8 12.6-6.8 18.9-4.2 9 3.9 14 13.8 13.9 23.2l-.9 1.1c-.9-4.8-2.2-10-6.4-13-8-6-20.8-2.9-25.6 5.8-2 3.2-2.1 7.1-2 10.8 14.5 0 29 .4 43.5 0 4-.1 8.7.9 12.3-1.6 2.3-2.7 2-6.6 3.3-9.7 0 7-.5 14.1-.1 21.1 0 3.5.5 7 0 10.5-1.2-2.9-1-6.5-3.2-8.8-1.9-2-4.8-1.9-7.3-2h-40c-2.8.3-6.2 0-8 2.4-1.6 2.6-1.7 5.7-3 8.5zm.2-262.5c-.7-4.7 0-9.4.2-14.1.2-5.6-.6-11.2-.5-16.8 1.3 2.6 1.2 5.6 2.8 8 2.1 2.8 6 2.4 9.1 2.6h38.1c3.6 0 7.3-2.2 7.7-6 .2-5.4.2-11-1.2-16.4-1.6-4.4-6.5-5.5-10-7.7 3.6 0 7.2 1.1 10.7 1.8 1.9.5 4.8.8 4.6 3.5 0 10.6-1 21.4-.3 32 0 4.5.6 9 0 13.4-1.2-3-1.1-6.3-3-9-1.5-1.9-4.1-2.2-6.4-2.1H12.4c-2.5 0-5.3.8-6.5 3.1s-1.3 5.2-2.1 7.7zm0-59c-.9-5.7.3-11.4.2-17.1 0-4.8-.7-9.5-.2-14.2.8 2.6.9 5.4 2.2 7.9s4 2.8 6.5 2.8c13 .5 26 .2 39 .3 3.4-.3 7 .2 10-1.7 2.7-2.6 2.1-6.7 3.7-9.8-.4 10.5-.3 21 0 31.5-1.6-3.7-1.3-9.5-6.3-10.3-11.4-.6-23 .2-34.4-.5-5.2.2-10.5-.5-15.6.7-4.2 1.6-4 6.8-5 10.4z"/></g></svg>
