<svg xmlns="http://www.w3.org/2000/svg" viewBox="0 0 199 31"><path fill="#fff" d="M192.6 18.6c.6 1.2 1.3 1.8 2.2 3.6A90 90 0 00199 30h-6.6c-1-1.7-1.9-3.6-2.7-5.2-1-2.2-2-3.1-2.5-4.4-1.8.3-3.2.3-3.2.3V30h-5V1h7c7.1 0 11.4 3.6 11.4 9.5a9 9 0 01-4.8 8.1zm-7-12.5H184v9.2h1.7c2.8 0 6.3-.5 6.3-4.7 0-3-2.3-4.5-6.5-4.5zM168.2 23h-11l-3 7h-5.7l12.2-29h4.1l12.5 29h-6l-3-7zM163 9l-3.6 8.9h7.1L163 9.1zm-28 15.9h12v5h-17V1h17v5h-12v7H147v5h-12v7zm-17.7 5H108V1h5.6c3.2 0 5.6.2 7.4 1.3a8.2 8.2 0 014.2 7.3c0 2-.9 3.6-2.5 5 3 1.4 4.4 3 4.4 6.4 0 5-4.3 9-9.9 9zm-1.9-24H113v7h2.5c2 0 4.4-.4 4.4-3.4 0-1.5-.4-3.7-4.6-3.7zm1 12H113v7h3.2c5.5 0 5.5-2.2 5.5-3.2s0-3.9-5.4-3.9zm-18 11.9l-2-2.3c-1.9 2-4.6 3.4-7.7 3.4a9.7 9.7 0 01-9.6-9.8c0-3.5 1.8-6.4 4.5-8a7.2 7.2 0 01-2.3-5.3 8 8 0 012.3-5.6A7.7 7.7 0 0189 0a7.7 7.7 0 015.5 2.3A7.9 7.9 0 0196 4.5l-4.4 2.3a3 3 0 00-.6-1 2.8 2.8 0 00-4 0A3 3 0 0086 8c0 .8.3 1.5.9 2.1l7.6 8.3c.8-3.5 3.8-6 7.4-6v5h-.2c-1.1 0-2 1.2-2.5 3a9.8 9.8 0 00-.4 2.7l6 6.9h-6.5zM87 17c-1.8.4-3.1 2-3.1 4 0 2.7 2 4.9 4.7 5a5.8 5.8 0 004.5-2.2L87 17.1zM63 1h5v24h9v5H63V1zM47 1h5v24h9v5H47V1zM31.8 30.3C25 30.4 21 25.5 21 18.3V1h5v17c0 4.7 1.8 7.3 5.8 7.3 5.2 0 6.2-4 6.2-7.2V1h5v17.2c0 7.2-4.2 12.1-11.2 12.1zM7.5 22H5v8H0V1h6.5c7.4 0 11.7 5 11.7 10.6 0 5.5-4 10.4-10.7 10.4zm-1-16H5v11h2c3.7 0 6-2.4 6-5.4 0-3-2.3-5.5-6.6-5.5z"/></svg>
