<svg xmlns="http://www.w3.org/2000/svg" viewBox="0 0 765.2 84.2"><defs><clipPath id="a" clipPathUnits="userSpaceOnUse"><path d="M0 841.9h1190.6V0H0v841.9z"/></clipPath></defs><path fill="#fff" d="M532.7 84.2h-3l-41.3-83h18.2l24.9 52.6h.2L556.5 1h17.7l-41.5 83.1zM160.6 1.1v13.6h-40V35H158v13.1h-37.4V69h43.7v13.6h-59.6V1.1h56zM357 1.1v13.6h-40v21h37.4v13.1H317V69h43.7v13.6h-59.5V1.1H357zM657.5 1.1v13.6h-40v21.2H655v13h-37.4V69h43.7v13.6h-59.5V1.1h55.8z"/><g clip-path="url(#a)" transform="matrix(1.25 0 0 -1.25 -361.5 568.3)"><path fill="#fff" d="M845.7 388.6v65.2h22.1c22.2 0 33.5-13.5 33.5-32.6s-11.3-32.6-33.5-32.6h-22.1zm22.1 10.6c14.5 0 21 7.3 21 22 0 14.6-6.5 21.9-21 21.9h-9.4v-43.9h9.4zM498.3 446.8l-6-8.3c-5.3 3.5-11 5.5-17.8 5.5-9.4 0-12.3-3.7-12.3-7.1 0-11.7 38-4.9 38-28 0-12.5-10.9-21.3-26.2-21.3a34.5 34.5 0 00-27.3 11.7l6.8 8a28.7 28.7 0 0120.7-9c9.4 0 14 4.6 14 9.6 0 14-38.9 4.5-38.9 28.4 0 10.4 10.5 18.3 25.4 18.3 9.6 0 18.4-3.3 23.6-7.8M316 422.4h-14.1v21h13.9c8 0 11.7-4 11.7-10.1 0-7.7-5-11-11.6-11m30.9-33.5l-1.1 9.5c-1-.2-2.2-.3-3.6-.3-5.3 0-8 1.7-11.2 6.7l-3.5 6c-1.3 1.9-2.1 2.8-3.4 3.6 9.4 2.2 16 9 16 19.4 0 11.6-8.3 20-24.2 20h-26.6v-65.1h12.7v23.9h5.7c3.2 0 4.7-1.2 6-3.3l5.8-9.4c5.7-9 12-12 20.4-12 3 0 5.6.5 7 1M635.6 422.4h-14v21h14c7.9 0 11.6-4 11.6-10.1 0-7.7-5-11-11.6-11m30.9-33.5l-1.1 9.5c-1-.2-2.2-.3-3.5-.3-5.4 0-8 1.7-11.2 6.7l-3.6 6c-1.3 1.9-2 2.8-3.3 3.6 9.3 2.2 15.9 9 15.9 19.4 0 11.6-8.3 20-24.2 20H609v-65.1h12.7v23.9h5.7c3.2 0 4.7-1.2 6-3.3 1.4-2 5.8-9.4 5.8-9.4 5.7-9 12-12 20.4-12 3 0 5.6.5 7 1"/></g></svg>
