<svg xmlns="http://www.w3.org/2000/svg" viewBox="0 0 78.3 432"><path fill="#fff" d="M0 274.4c0 12.2 9.1 21.8 20.5 21.8 11.5 0 20.6-9.6 20.6-21.8s-9.1-22-20.6-22C9 252.4 0 262.2 0 274.4zm35.2 0a14.6 14.6 0 11-14.7-15 14.7 14.7 0 0114.7 15zM13 396.3a11.3 11.3 0 00-7.7 3.1c-2.7 2.5-4.1 6-4.1 11.2V432H40v-6.7H25v-13.7l15-8.3v-7.7L24.2 405c-2-5.1-6-8.6-11.1-8.6zm6.1 13.1v16h-12v-14.8c0-2 .2-4.2 2.1-6a5.5 5.5 0 013.9-1.6 6.3 6.3 0 016 6.4zM40 320.3L1.2 302.4v7.2L31.5 323v.4L1.2 336.8v7.6l38.8-18v-6.1zM22.7 376.8v-14.9h-6v14.9H7.1V352H1.2v31.4H40v-32.8h-6v26.2H22.7zM34 210v23.8H1.2v6.6H40V210h-6zM1.2 102.8H40v6.7H1.2zM41.1 184c0-9.8-5.4-17.1-15-17.1h-25v6.6h25c5.9 0 9 4.7 9 10.6s-3.2 10.5-9 10.5h-25v6.7h25c9.6 0 15-7.4 15-17.2zM0 69c0 12.2 9.1 21.7 20.5 21.7C32 90.7 41 81.1 41 69S32 47 20.5 47C9 47 0 56.7 0 69zm35.2 0a14.6 14.6 0 11-14.7-15 14.7 14.7 0 0114.7 15zM7.1 157.1v-15.3H40v-6.6H7.1V120H1.2v37.1h5.9zM1.2 6.7h26.9L1.2 29.1V35H40v-6.7H13.1L40 5.9V0H1.2v6.7zM62.6 151.9v7.3h15.2v-7.3a7.2 7.2 0 00-1.8-5.4 8 8 0 00-5.8-2.3 7.8 7.8 0 00-5.5 2.1 7.2 7.2 0 00-2 5.6zm11.7-3.4a4.5 4.5 0 011.2 3.5v4.6H65V152a4.5 4.5 0 011.3-3.6 5.7 5.7 0 014-1.5 5.8 5.8 0 014 1.6zM68.5 232.4l-5.9 4.4v3.3l8.2-6.3h7v-2.6h-7l-8.2-6.2v3.1l5.9 4.3zM69.5 317a3.4 3.4 0 00-5.5-1 5 5 0 00-1.4 3.7v9.2h15.2v-9.4a5.1 5.1 0 00-1.3-3.9 4.3 4.3 0 00-3.2-1.4 3.7 3.7 0 00-3.8 2.8zm-4.5 9.3V320a2.3 2.3 0 01.6-1.7 1.8 1.8 0 011.3-.5 2.1 2.1 0 011.5.6 2.2 2.2 0 01.5 1.6v6.3zm9.8-8.8a2.6 2.6 0 01.7 2v6.8H71v-6.9a2.6 2.6 0 01.8-1.9 2.1 2.1 0 011.5-.6 2.2 2.2 0 011.5.6zM73.2 107.8l-10.6 8.8v2.3h15.2v-2.6H67.3l10.5-8.8v-2.3H62.6v2.6h10.6zM62.2 132.2a8 8 0 108-8.6c-4.4 0-8 3.8-8 8.6zm13.8 0a5.7 5.7 0 11-5.8-5.9 5.8 5.8 0 015.8 5.9zM65 256.5v-6h12.8v-2.6H65V242h-2.4v14.5H65zM62.6 212.5v2.6h15.2v-11.9h-2.3v9.3H62.6zM62.2 192.3a8 8 0 108-8.6 8.2 8.2 0 00-8 8.6zm13.8 0a5.7 5.7 0 11-5.8-5.9 5.8 5.8 0 015.8 5.9zM73.2 167.9l-10.6 8.8v2.3h15.2v-2.7H67.3l10.5-8.7v-2.3H62.6v2.6h10.6zM71.1 306.5v-5.9h-2.3v5.9H65v-9.8h-2.4v12.4h15.2v-12.9h-2.3v10.3h-4.4zM72.5 263c2.2 0 3.5 1.8 3.5 4.1s-1.3 4.2-3.5 4.2h-9.8v2.6h9.8c3.7 0 5.8-3 5.8-6.8s-2.1-6.7-5.8-6.7h-9.8v2.6zM62.6 286.6l15.2 7.1V291l-4-1.8v-7.3l4-1.8v-2.9l-15.2 7zm9 1.6l-5.8-2.6v-.1l5.9-2.6z"/></svg>
