<svg xmlns="http://www.w3.org/2000/svg" viewBox="0 0 447.9 448.7"><path fill="#fff" d="M224 19.8A204.4 204.4 0 01428 224.4 204.2 204.2 0 1179.6 79.7a202.6 202.6 0 01144.3-60zM224 0C100.2 0 0 100.5 0 224.4s100.3 224.3 224 224.3 223.9-100.4 223.9-224.3S347.6 0 223.9 0z"/><path fill="#fff" fill-rule="evenodd" d="M412.6 199.7l-.6-3.3a26.6 26.6 0 00-.6-2.8 35.5 35.5 0 00-2-5.6 29 29 0 00-1.4-2.8 48.5 48.5 0 00-4.5-6.5 20.4 20.4 0 00-2-2.4 70 70 0 00-5.4-4.4 54 54 0 00-3.3-2 32.2 32.2 0 00-3.2-1.6c-1.2-.5-2.4-1-3.5-1.3a27.4 27.4 0 00-3.2-1 54 54 0 00-17.8-1.4 82.8 82.8 0 00-20.2 3.5 151 151 0 00-13.7 4.7l-6.9 3s-3.9 2-6 3.4c-2 1-4.5 2.8-6.5 4.3l-5.5 4a83.8 83.8 0 00-10.7 9.7l-4.7 5-4.5 5.6a95 95 0 00-7 10.3l-2.2 3.7-.4.7h-7.5c-1.5 0-1.5 0-1.1-.7l2.2-4.2 4-7.4 3.8-7.3c1.2-2.3 2.2-4.9 3.3-7.4a108.2 108.2 0 007.1-23.2 66.1 66.1 0 001.9-12.4c.2-1.8.4-3.8.4-6.7v-9.8a84.2 84.2 0 00-3-20.9l-2-6.8-2.8-7.3a86.7 86.7 0 00-7.7-15A114.7 114.7 0 00258.5 71c-2.2-2.4-4.3-4.7-6.5-6.8s-4.5-4.3-6.8-6.3l-7.5-6.3A227.6 227.6 0 00225 42c-1-.7-1-.7-1.5-.3l-3.4 2.4-6.3 4.8A217 217 0 00187 73.7a140.4 140.4 0 00-23.5 38.3 135.8 135.8 0 00-3.8 12 81 81 0 00-2.1 11.4 78.6 78.6 0 00-.9 12.4l.1 6.6.5 5.7c0 2.1.4 3.7.7 5.6l1 6 1.4 6.3c.4 2 1 4 1.6 5.7l1.7 5.2a192.9 192.9 0 008.7 19.6l3.1 5.8 3.8 7 .9 1.7h-7.5c-1.6 0-1.7-.2-1.7-.3a2 2 0 00-.3-.4l-1.3-2.4-3-5c-1-1.7-2.2-3.3-3.6-5l-4.3-5.6c-1.4-1.8-2.8-3.3-4-4.7s-2.6-2.7-3.9-4a106.5 106.5 0 00-22.4-17.2 61.7 61.7 0 00-10.9-5.3 132.3 132.3 0 00-24.3-7.2 118 118 0 00-11.4-1.3h-4.4l-3.8.1-3 .4-2.8.4a67.4 67.4 0 00-8 2.4 28 28 0 00-2.8 1.2l-2.9 1.6-2.5 1.6a124.2 124.2 0 00-4 3.2l-1.6 1.7-1.6 1.8-1.5 2-1.3 1.9-1 1.7-1 1.8-1 2.2-.9 2.2-.7 2-.5 1.7-.4 1.8c0 .6-.2 1-.3 1.5l-.2 1.3-.2 1.3v1.4L35 203V205.6l.2 1.6.2 1.4.2 1.3.3 1.5.6 2.3.7 2.4c.3.7.4 1.5.6 2.2l.8 2.3.8 2.3c.2.8.7 1.6 1 2.6s1 2.3 1.5 3.4l1.5 3.3 1.4 3 2.4 5 2.2 4.4 1.5 2.9 1.3 2.6 1.3 2.4 1.3 2.6 1.3 2.6c.4.8.8 1.5 1 2.2s.7 1.5 1 2.1l1 2.1 1 2 .7 1.7.9 2.1.8 2 .7 2 .6 1.8a29.7 29.7 0 01.8 3l.3 1 .2 1.4.2 1.3v1a.6.6 0 010 .3l-.3.4-.4.8a6.7 6.7 0 01-.6.8 6.5 6.5 0 01-.6.6 4 4 0 01-.7.6 5.1 5.1 0 01-.8.6 5.4 5.4 0 01-.9.5l-.8.3-1 .4-.8.1-1.3.2h-1.3a7 7 0 01-1.2-.1l-.7-.1c-.1-.1-.2 0-.1 0a2.9 2.9 0 000 .6l.4 1.1.7 1.9.8 2 1 1.8 1 1.7 1.3 2 1.5 2 1.4 1.7 1.4 1.6 1.2 1.1 1.2 1.2 1.3 1.1c.5.3.8.8 1.3 1.2L70 311c.6.4 1.1.9 1.7 1.2s.9.7 1.3 1l1.7 1 1.6 1 1.4.8 1.4.7 1.6.7 1.6.6 1.6.6 1.7.5a10.9 10.9 0 001.7.3l1.6.3h1.5a10.3 10.3 0 001.4 0h1.4a14.6 14.6 0 001.5-.2 12.2 12.2 0 001.4-.2 12.5 12.5 0 001.4-.4 14.4 14.4 0 001.4-.4l1.3-.6 1-.5 1.2-.7c.5-.2.8-.7 1.2-1l1.1-1a12.5 12.5 0 00.9-1l.8-1 .8-1.2.7-1.2a16.4 16.4 0 00.7-1.6l.6-1.7.6-2 .4-1.6.2-.9c0-.2 0-.1 2.4 0h13.9l2.2.1 3.4.2c1.2 0 2.4.2 3.4.3l2.4.2a52.5 52.5 0 014 .7l2 .6a12 12 0 011.7.6 14.3 14.3 0 011.5.8 12 12 0 011.3 1.1 10.1 10.1 0 011 1 9.3 9.3 0 01.6 1.3 11.7 11.7 0 01.5 1.4 6.5 6.5 0 010 1.3 13.8 13.8 0 010 1.6 15.7 15.7 0 01-.2 1.6 26.9 26.9 0 01-2.7 7.3l-1.5 2.7-1.6 2.8-3.2 5.3c-1.1 1.8-2 3.2-2.7 4s-.9 1.4-1.3 2l-1.2 1.5-1.3 1.7-1.2 1.5-1 1.2-1.2 1.3-1.1 1.2-1.6 1.5-1.8 1.6-1.8 1.6-2.2 1.8-2 1.5-1.2 1-.8.6-.1.2h2.3l1.6-.1 2-.1 2.4-.2c.9 0 1.6-.3 2.5-.4l2.4-.5 2.2-.5 2-.5 2-.7 2.1-.8 2-.8 1.6-.7 1.7-1 1.5-.7a98 98 0 003.7-2.4l2.4-1.7c.8-.5 1.4-1.1 2-1.6l1.8-1.5 1.6-1.5 1.9-1.8 1.8-1.9 1.5-1.7 1.4-1.6 1.5-1.8 1.7-2.2 1.5-2.1 1.7-2.3 2-2.9 1.4-2.1 1.5-2.2 1.1-1.6 1-1.5 1.3-1.6 1.4-1.5 1-1.1 1.2-1a14.2 14.2 0 011.2-.8 5.4 5.4 0 011-.5 10.7 10.7 0 011.1-.4 8.3 8.3 0 011.2-.2 8.5 8.5 0 011.2 0 9.4 9.4 0 011.6.3l1.8.7a9.4 9.4 0 011.2.5c.2.1.2.2.2.3a7.5 7.5 0 01-.2 1l-.6 2.4-.7 2.8-.8 3-1.1 3.4-1.4 4-1.1 3-1.2 3-1.5 3.8c-.5 1.4-1.3 3-2 4.3L182 345l-1.4 2.7c-.5.9-1 2-1.7 3l-2 3.2-1.4 2.3-1.6 2.4-1.9 2.4-2.2 2.8-1.6 2-.3.3.2.1 1.7 1.3 7.2 5.3 13.8 10.2 13.9 10.3 10.1 7.5 5.8 4.2 2.1 1.6 1.1.8.2.1h.1l.9-.6 2.3-1.7 5-3.7 5.7-4.2 9.4-7 10.5-7.8 9.9-7.2 6.5-4.9 3.9-2.8 1.7-1.3.2-.2s0-.2-.3-.5l-1.3-1.4c-.6-.6-1-1.4-1.7-2.2l-1.7-2.2-1.6-2.3-1.7-2.6-2.2-3.5c-.7-1.1-1.3-2.1-1.8-3.2l-1.9-3.5-2-4.3-1.8-3.9-2.1-5.2-1.9-5a88 88 0 01-3-9.7l-.9-3.4-.4-2v-.4a2.5 2.5 0 01.4-.2 7.5 7.5 0 011-.5 12.8 12.8 0 011.2-.5 10.6 10.6 0 011.4-.4 4.9 4.9 0 011.2-.1h1.2a7 7 0 011.1.3 6.2 6.2 0 011.1.4 8 8 0 011.1.7 11.6 11.6 0 011.2.8l1.3 1.2 1.2 1.3 1.1 1.3 1 1.3 1.6 2.2 2 3 2 3a254.5 254.5 0 008.4 11.1l2.8 3.2c.8 1 1.8 1.8 2.8 2.8l3.2 2.7 2.8 2.3c.8.7 1.8 1.3 2.8 2l3.2 2 3.4 1.7a35.5 35.5 0 003.4 1.4 70.2 70.2 0 0011.3 3 74.7 74.7 0 007.7.8h2.2l-.3-.3-1.3-1-2-1.7-3-2.4c-1-.7-1.4-1.3-2.1-2l-2.1-2-2-2-1.8-2a66.3 66.3 0 01-5.8-7.8 156.2 156.2 0 01-9.3-16l-.6-1.6-.4-1-.2-.7a4.3 4.3 0 01-.2-.6l-.1-.5-.2-.6v-.4a2.5 2.5 0 01-.1-.6l-.1-.5v-.9-.8-.4-.4a1.4 1.4 0 000-.4v-.3a1.4 1.4 0 00.2-.4 1.2 1.2 0 010-.4l.2-.4a2 2 0 01.2-.4l.3-.6.3-.5.4-.4a8.3 8.3 0 01.9-1c.2 0 .4-.3.6-.4a6.1 6.1 0 01.7-.4l1.4-.7a13.8 13.8 0 012-.7 19.9 19.9 0 012.2-.6 31.5 31.5 0 015.3-.7l3.3-.3 3.5-.2 3.9-.1h4.7l4.5-.1 4.6-.1c1 0 1 0 1 .4l.4 1.6.5 1.8.6 1.6.6 1.6a12.6 12.6 0 00.6 1.2l.7 1.2.6 1c.2.4.6.7 1 1.1a10.6 10.6 0 001 1.2l1 1a9.4 9.4 0 001 .6l.7.5 1 .5 1 .6 1.4.5 1.3.4a9 9 0 001.4.3l1.4.3h1.5l1.3.2h1.2l1.2-.1a10.9 10.9 0 001.1-.2l1.4-.2a11.3 11.3 0 001.3-.4c.5 0 1-.2 1.4-.4a13.8 13.8 0 001.5-.5l1.5-.6 1.6-.7 1.6-.8 2-1.1c.7-.3 1.3-.7 1.8-1.1l2-1.3c.7-.4 1.4-1 2.1-1.6l2-1.5a11 11 0 00.8-.8l.6-.5.6-.5.5-.5.4-.4a5.5 5.5 0 01.5-.4l.4-.5.5-.5.4-.4.4-.5.5-.4.4-.6.5-.5.4-.6.4-.4a5.3 5.3 0 00.4-.6l.5-.6.5-.7.4-.6.3-.5.4-.6.4-.6a3.4 3.4 0 00.4-.6 5 5 0 00.3-.6l.3-.6.4-.6c.2-.2.1-.4.2-.5a2.9 2.9 0 00.2-.5l.4-.8.3-.8.3-.8.3-.7.2-.7.2-.7a4 4 0 01.1-.4 1.9 1.9 0 010-.4 1 1 0 010-.1 1.9 1.9 0 00-.4 0h-.9a1.9 1.9 0 01-.4 0h-1.4a2.1 2.1 0 01-.5 0h-.4a2 2 0 01-.4 0h-.4a1.3 1.3 0 00-.4-.2 2 2 0 00-.4 0l-.3-.2-.4-.1-.4-.1-.3-.2-.3-.1a1 1 0 01-.2-.1l-.4-.2c-.2 0-.2-.2-.3-.2a1.9 1.9 0 01-.3-.2l-.4-.3a2.4 2.4 0 01-.3-.3l-.3-.2-.3-.3a2.5 2.5 0 01-.3-.3l-.2-.3-.2-.3-.3-.3a1.3 1.3 0 00-.2-.4 1 1 0 01-.1-.3 1.4 1.4 0 01-.2-.2 2 2 0 01-.1-.3 1 1 0 01-.1-.2v-.2a6 6 0 010-.6l.1-1.3.3-2 .6-2.1.8-2.7 1-2.8 1.2-3 1.6-3.6 2.1-4.6c.7-1.6 1.5-3 2.3-4.5l2.3-4.7 2.3-4.5 2.9-5.7.7-1.4.6-1.2 1.8-3.8a102.6 102.6 0 004-9l1.3-3.2a55.2 55.2 0 002.6-8.1l.7-2.6.4-2 .4-2.5a34 34 0 00.2-3.6 26.3 26.3 0 00-.1-4zm-265.7 39.6V251h-17.6a8.7 8.7 0 00-6 2.6 8.3 8.3 0 00-2.4 6v24h-11.6v-24a20 20 0 015.8-14.2 20.2 20.2 0 0114-6zm16.5 44.2H151v-44h12.3zm55.4-16.3h-29.3v-8.8H207a6 6 0 00-.3-2.2 5 5 0 00-1.3-1.8 12.8 12.8 0 00-6-3.1 24 24 0 00-6-.8 18.2 18.2 0 00-8.6 2 10.7 10.7 0 00-4.7 4.6 10.7 10.7 0 00.8 10.3 10 10 0 005.2 3.7 17.4 17.4 0 005.8.9h26.6v11.6H192a27.4 27.4 0 01-13.7-3.4 20.8 20.8 0 01-8.8-9.9 22.3 22.3 0 01-1.8-8.9 21 21 0 017.8-16.6 27.9 27.9 0 0118-5.9 35 35 0 0110 1.5 25.1 25.1 0 018.7 4.4 19.3 19.3 0 014.2 4.9 16.9 16.9 0 012.4 8.7v8.8zm40.2 16.4l-21.8-17H236v16.7h-12.2V219H236V255h1.1l20.3-16h18.3l-27.2 21.7 29.2 22.8H259zm61.5-16.4H291v-8.8h17.7a7 7 0 00-.4-2.1 4.8 4.8 0 00-1.2-1.9 13 13 0 00-6-3.1 23.8 23.8 0 00-6.1-.8 18.3 18.3 0 00-8.6 2 10.7 10.7 0 00-4.7 4.6 10.3 10.3 0 00-1 4.3 10 10 0 001.8 6 10 10 0 005.2 3.7 17.5 17.5 0 005.8.9h26.6v11.6h-26.6a27.4 27.4 0 01-13.7-3.4 21 21 0 01-8.8-9.8 22.6 22.6 0 01-1.8-9 21 21 0 017.9-16.5 27.9 27.9 0 0117.9-6 35.2 35.2 0 0110.1 1.5 25.2 25.2 0 018.6 4.5 19.5 19.5 0 014.3 4.8 17.2 17.2 0 012.4 8.7v8.8zm41.8-27.9V251h-17.6a8.7 8.7 0 00-6 2.6 8.3 8.3 0 00-2.4 6v24h-11.6v-24a20 20 0 015.9-14.2 20.2 20.2 0 0114-6z"/></svg>
