<svg xmlns="http://www.w3.org/2000/svg" viewBox="0 0 132 20.6"><path fill="#fff" d="M109.3 15.7h-.1l-4.4-15h-7v19h4.7L102.2 4l4.8 15.6h6.7V.6H109zM20.2.7l-3.5 19.1h5.1l2.6-17.4L27 19.9h5L28.7.6zm28.5 0l-2.3 14.6h-.1L43.9.6h-7.6l-.5 19.2h4.8V2.5h.2l3.1 17.3h4.8L52 2.6h.1l.1 17.2h4.7L56.4.6zM5 5.5a2.4 2.4 0 010-1 1.6 1.6 0 011.7-1.3A1.6 1.6 0 018.5 5v1.2h4.7V4.8C13.2.8 9.5 0 6.8 0 3.5 0 .8 1.1.2 4.3a6.9 6.9 0 000 2.6c.9 3.9 7.6 5 8.6 7.5a2.6 2.6 0 010 1.4A1.6 1.6 0 017 17.1a1.7 1.7 0 01-1.9-1.7v-1.9H0V15c0 4.3 3.3 5.6 6.9 5.6s6.2-1.2 6.6-4.4a9.6 9.6 0 000-3.2c-.8-4-8-5.2-8.5-7.4zm61.4 0a2.6 2.6 0 010-1A1.6 1.6 0 0168 3.3a1.6 1.6 0 011.7 1.8v1.1h4.7V5C74.5.8 70.8.1 68.2.1c-3.4 0-6 1.1-6.6 4.2a6.6 6.6 0 000 2.6c.8 3.9 7.5 5 8.4 7.5a2.6 2.6 0 010 1.4 1.6 1.6 0 01-1.8 1.3 1.7 1.7 0 01-1.8-1.8v-1.8h-5V15c0 4.2 3.2 5.5 6.7 5.5s6.2-1.2 6.6-4.3a9.9 9.9 0 000-3.2C74 9 67 7.8 66.4 5.6zm21.4 9.2a4.3 4.3 0 010 .8 1.9 1.9 0 01-3.7 0 3.5 3.5 0 010-.8V.6h-4.8V15.7c.3 3.6 3.1 4.7 6.6 4.7s6.2-1.1 6.6-4.7V.6h-4.7v14.2zM125.3 9v2.8h2v2.8a4.3 4.3 0 010 .7 2 2 0 01-4 0 3.5 3.5 0 010-.7V5.8a5 5 0 01.2-.9 2 2 0 013.7 0 5.7 5.7 0 010 .8v1h4.8v-.6a11.1 11.1 0 000-1.3c-.3-3.6-3.3-4.7-6.6-4.7s-6.2 1.1-6.6 4.8a12.5 12.5 0 00-.1 1.2v9.4c.3 3.5 3.3 4.7 6.7 4.7s6.3-1.2 6.6-4.7a11.1 11.1 0 000-1.3V9z"/></svg>
