<svg xmlns="http://www.w3.org/2000/svg" viewBox="0 0 205.11 114.03">
  <title>shokoladnica</title>
  <g id="Слой_2" data-name="Слой 2">
    <g id="Слой_1-2" data-name="Слой 1">
      <g>
        <path d="M100.62,0a6.71,6.71,0,0,1,.9,0c1,0,1.92,0,2.88,0,.31.09.63,0,.95.09A28,28,0,0,1,120,5.79c.64.47,1.23,1,1.84,1.54l1.38,1.38c.18.16.3.39.49.55a26.49,26.49,0,0,1,3.46,5c.15.33.37.63.51,1,.27.61.58,1.21.81,1.83a28.33,28.33,0,0,1,1.84,7.07c.06.45.11.89.13,1.34s0,.76.1,1.12c0,.92,0,1.85,0,2.77,0,.26-.1.52-.06.79s-.08.61-.07.93a31,31,0,0,1-.61,3.8,29.12,29.12,0,0,1-1.92,5.57c-.29.55-.53,1.13-.86,1.66a25.14,25.14,0,0,1-2.27,3.43,18.35,18.35,0,0,1-1.69,1.94c-.17.16-.28.37-.46.53s-.44.37-.64.57a15.2,15.2,0,0,1-1.27,1.14,28.55,28.55,0,0,1-2.73,2,29.17,29.17,0,0,1-3.3,1.79,28.5,28.5,0,0,1-7.52,2.25,23.72,23.72,0,0,1-2.38.26,4.73,4.73,0,0,1-1,0c-.22,0-.44.08-.67.07-.45,0-.9,0-1.34,0a9.15,9.15,0,0,0-1.28-.07c-.28-.08-.57,0-.84-.08a28.64,28.64,0,0,1-4.5-.79c-.7-.16-1.38-.4-2.07-.63a29.24,29.24,0,0,1-3.48-1.43,32.05,32.05,0,0,1-3.09-1.82c-.57-.39-1.12-.81-1.67-1.22l-1.3-1.09a6.78,6.78,0,0,0-.73-.69,4.29,4.29,0,0,1-.69-.72,24.49,24.49,0,0,1-2.32-2.77,27.59,27.59,0,0,1-4.49-9.88,33,33,0,0,1-.61-3.69c0-.44-.1-.88-.08-1.33a5.64,5.64,0,0,1-.06-1.23V27a2.75,2.75,0,0,1,0-.64c.07-.3,0-.62.07-.92A28.81,28.81,0,0,1,76.25,18a23.3,23.3,0,0,1,1-2.42,5.28,5.28,0,0,1,.49-1,25.49,25.49,0,0,1,2.58-4c.27-.35.56-.68.83-1s.43-.43.61-.68c.48-.51,1-1,1.49-1.51a27.36,27.36,0,0,1,3.45-2.7A28.13,28.13,0,0,1,99.77.1c.28-.07.57,0,.85-.07Zm.61,4.3a1.75,1.75,0,0,1-.51,0,24.44,24.44,0,0,0-6,1.21A23.1,23.1,0,0,0,90.8,7.28,22.54,22.54,0,0,0,87,10c-.23.18-.41.41-.65.57s-.62.61-.93.92a23.13,23.13,0,0,0-3.24,4.37A24,24,0,0,0,79.08,26a5.58,5.58,0,0,0,0,1A9.22,9.22,0,0,0,79,28.68,9.07,9.07,0,0,1,79.06,30c.07.25,0,.52.08.77a23.55,23.55,0,0,0,2.21,8,8.74,8.74,0,0,0,.56,1.1,21.54,21.54,0,0,0,2.57,3.76,12.12,12.12,0,0,0,.9,1c.47.45.9,1,1.41,1.35a23.28,23.28,0,0,0,12.3,5.57,17,17,0,0,0,1.75.16,5.15,5.15,0,0,0,1,.06h1.42a3.57,3.57,0,0,0,1-.05,14,14,0,0,0,1.59-.14,28,28,0,0,0,3-.58,26.19,26.19,0,0,0,3.84-1.37,22.62,22.62,0,0,0,3-1.65,25.15,25.15,0,0,0,3.11-2.42L120,44.32c.33-.4.69-.78,1-1.2a22.44,22.44,0,0,0,2.2-3.26c.27-.55.55-1.09.82-1.64s.51-1.2.71-1.81.38-1,.5-1.59a23.89,23.89,0,0,0,.79-4.36c0-.35.1-.69.07-1s.09-.7.06-1.05a6.93,6.93,0,0,0,0-1.29,7.66,7.66,0,0,0-.07-1.17A9.06,9.06,0,0,0,126,25a24.62,24.62,0,0,0-.92-4.42,23.62,23.62,0,0,0-1.31-3.36A22.38,22.38,0,0,0,120.26,12a3.61,3.61,0,0,1-.33-.35,7.56,7.56,0,0,0-.78-.82c-.21-.24-.49-.4-.7-.65A23.27,23.27,0,0,0,108.59,5a25.75,25.75,0,0,0-4.19-.67,2.5,2.5,0,0,1-.67-.06H102a4.34,4.34,0,0,0-.72,0ZM91.68,17.38c.11.32.26.61.38.92.24.56.4,1.15.61,1.73a16.36,16.36,0,0,1,.46,2,12.21,12.21,0,0,1,.1,2.18,29.66,29.66,0,0,1-2,6.68,15.62,15.62,0,0,0-.92,3.74,7.43,7.43,0,0,0,0,1.25c0,.27.07.53.06.8a8.78,8.78,0,0,0,.5,2.2H95.2a10.77,10.77,0,0,1-.56-2.82V35A13.89,13.89,0,0,1,95,33c.71-2.84,2.19-5.45,2.56-8.38a9.4,9.4,0,0,0,0-1.19,9.48,9.48,0,0,0-.28-2.31A17.8,17.8,0,0,0,96,17.39Zm8.59,0a1.63,1.63,0,0,0,.2.49,16.38,16.38,0,0,1,1.35,5.1,10.24,10.24,0,0,1,0,1.66A20.7,20.7,0,0,1,100.52,29c-.41,1.1-.81,2.2-1.16,3.32a14.37,14.37,0,0,0-.48,2.52c0,.41,0,.82,0,1.23s.08.6.08.91a8.91,8.91,0,0,0,.48,1.91h4.37a10.33,10.33,0,0,1-.57-2.69,12.67,12.67,0,0,1,.07-1.85,29.33,29.33,0,0,1,1.81-5.92,17.05,17.05,0,0,0,1.07-4.33V23a16.7,16.7,0,0,0-1.55-5.58Zm8.6,0c.19.62.52,1.19.7,1.82a17.29,17.29,0,0,1,.62,2.21,11,11,0,0,1,.23,2.23,6.25,6.25,0,0,1-.11,1.29,33.36,33.36,0,0,1-1.79,5.7,17.24,17.24,0,0,0-1,4.11,16.42,16.42,0,0,0,.07,2.22,7.39,7.39,0,0,0,.49,2h4.34a10.42,10.42,0,0,1-.54-2.64,13.73,13.73,0,0,1,.07-2,30.8,30.8,0,0,1,1.78-5.77,16.13,16.13,0,0,0,1.06-4.22,7.08,7.08,0,0,0,0-1.13,15.35,15.35,0,0,0-1-4.27c-.17-.51-.42-1-.6-1.49C111.78,17.38,110.32,17.38,108.87,17.39Z" fill="#fff" fill-rule="evenodd"/>
        <path d="M119.57,70.43a18.57,18.57,0,0,1,1.84-.3h1.91a9.25,9.25,0,0,1,4.07,1.14,9.74,9.74,0,0,1,1.37,1,8.68,8.68,0,0,1,1.91,2.94,14.27,14.27,0,0,1,.9,4.08c.09.38,0,.77.09,1.14s0,.94,0,1.41a3.76,3.76,0,0,1,0,.58c-.09.34,0,.7-.07,1a13,13,0,0,1-.95,4,8.64,8.64,0,0,1-.81,1.46,7.91,7.91,0,0,1-1.26,1.45,6.12,6.12,0,0,1-1.55,1,8.44,8.44,0,0,1-3.07.86c-.31,0-.61.09-.92.07a7.86,7.86,0,0,1-.84,0c-.25-.07-.52,0-.77-.08a7.68,7.68,0,0,1-3.82-1.53,4,4,0,0,1-.6-.56,7,7,0,0,1-1.81-3,8.45,8.45,0,0,1-.34-2.06,4.51,4.51,0,0,1,0-1.16c.08-.29,0-.6.09-.88a8.63,8.63,0,0,1,1.25-3.55,6.89,6.89,0,0,1,3.05-2.6,8,8,0,0,1,2.54-.65,15.3,15.3,0,0,1,2.14.06,6.44,6.44,0,0,1,3.51,1.67,4.82,4.82,0,0,0-.48-1.82,2.93,2.93,0,0,0-.48-.74,2.84,2.84,0,0,0-.67-.62,5.49,5.49,0,0,0-2.5-.94,6.18,6.18,0,0,0-1.77,0,7.81,7.81,0,0,0-1.67.23A10.25,10.25,0,0,0,116,75.79c0-1.23,0-2.45,0-3.68a6.8,6.8,0,0,1,1.61-1,10.56,10.56,0,0,1,1.95-.7Zm3,9.36a4,4,0,0,0-2.22,1.1,5,5,0,0,0-.77,1.19,5.12,5.12,0,0,0-.41,2.11,5.38,5.38,0,0,0,0,1.06,4.32,4.32,0,0,0,1.08,2.43,3.84,3.84,0,0,0,1.93,1c.23.07.48,0,.71.09a2.93,2.93,0,0,0,.78,0A3.83,3.83,0,0,0,125.6,88c.2-.19.39-.39.58-.59a5,5,0,0,0,1-2.74,10.38,10.38,0,0,0,0-1.25,4.45,4.45,0,0,0-1-2.34,3.25,3.25,0,0,0-.64-.59,4.25,4.25,0,0,0-3-.65ZM0,71.48H5.72c0,5.56,0,11.13,0,16.69,1.53,0,3.07,0,4.6,0,0-5.57,0-11.13,0-16.7,1.45,0,2.9,0,4.35,0,0,5.57,0,11.14,0,16.71,1.56,0,3.11,0,4.67,0V71.48h4.29q0,10.22,0,20.44-11.13,0-22.28,0c0-4.68,0-9.37,0-14-.13-.51,0-1-.1-1.55a12.06,12.06,0,0,0-.9-4.15c-.1-.24-.28-.44-.36-.69Zm33.81,4.38a5.89,5.89,0,0,1,.84,0,4.57,4.57,0,0,1,1.11,0,8.88,8.88,0,0,1,2.59.6,7.92,7.92,0,0,1,1.6.92,7.61,7.61,0,0,1,2.94,5.29c.08.29,0,.59.1.88a5.56,5.56,0,0,1-.05,1.29A9.21,9.21,0,0,1,42.58,87,7.35,7.35,0,0,1,40.9,90a1.22,1.22,0,0,1-.34.34,7.45,7.45,0,0,1-3.89,1.88,6.44,6.44,0,0,1-1.16.13,4.09,4.09,0,0,1-1,.06,2.09,2.09,0,0,1-.56,0A8.15,8.15,0,0,1,29,90.44a9.94,9.94,0,0,1-.83-.89,8,8,0,0,1-1.66-4.17c-.09-.32,0-.65-.09-1a3.09,3.09,0,0,1,0-.91,7.77,7.77,0,0,1,.29-2,8.26,8.26,0,0,1,.81-2,9.43,9.43,0,0,1,1.07-1.44,7.58,7.58,0,0,1,2.48-1.63,9.33,9.33,0,0,1,2.69-.63Zm.49,3.56a3.52,3.52,0,0,0-2.25,1.07,3.77,3.77,0,0,0-.89,1.37A5.44,5.44,0,0,0,30.78,84a5.69,5.69,0,0,0,.78,3.15,3.64,3.64,0,0,0,1.9,1.42,5.86,5.86,0,0,0,1.25.23c.35-.08.72-.06,1.07-.17a4.22,4.22,0,0,0,.83-.33,3.63,3.63,0,0,0,1.59-1.78,5.66,5.66,0,0,0,.44-1.9A9.08,9.08,0,0,0,38.57,83a4.64,4.64,0,0,0-.9-2.17,3.52,3.52,0,0,0-1.83-1.24,4.21,4.21,0,0,0-1.54-.14Zm33-3.55a6.5,6.5,0,0,1,1.08,0A9.47,9.47,0,0,1,70,76a10.18,10.18,0,0,1,1.87.52,8.66,8.66,0,0,1,1.67,1,7.35,7.35,0,0,1,2.17,2.74,8.61,8.61,0,0,1,.75,3.19,4,4,0,0,1,0,1.42,8.61,8.61,0,0,1-.4,2.3,8.09,8.09,0,0,1-.72,1.62,5.48,5.48,0,0,1-.9,1.19,6.89,6.89,0,0,1-3.07,2,8.92,8.92,0,0,1-2.4.44,5.58,5.58,0,0,1-1.49,0,8.27,8.27,0,0,1-3.55-.94,6.6,6.6,0,0,1-1.34-.88,7.44,7.44,0,0,1-1.23-1.4,8.46,8.46,0,0,1-1.36-4c0-.37-.1-.73-.07-1.11s.09-.52.07-.79a8,8,0,0,1,2.35-5.27,7.71,7.71,0,0,1,1.74-1.2,8.49,8.49,0,0,1,3.24-.87Zm.49,3.55a3.61,3.61,0,0,0-2.16,1,3.85,3.85,0,0,0-1,1.56,5.21,5.21,0,0,0-.34,2,4.17,4.17,0,0,0,0,1,5,5,0,0,0,.59,1.93,2.1,2.1,0,0,0,.45.65,2.33,2.33,0,0,0,.61.56,3.55,3.55,0,0,0,1.68.65c.28,0,.55.13.81,0a3.64,3.64,0,0,0,2-.66,2.71,2.71,0,0,0,.61-.56,4.64,4.64,0,0,0,1-2.42,9.07,9.07,0,0,0,.06-1.48,4.78,4.78,0,0,0-1.35-3.25,3.63,3.63,0,0,0-2-.93,2.88,2.88,0,0,0-1,0Zm33-3.3a7.23,7.23,0,0,1,2.12-.28A6.91,6.91,0,0,1,107.05,77l.73.58V76.21h4.29q0,5.22,0,10.43c0,.38.1.74.06,1.11s.07.77.06,1.17a10.5,10.5,0,0,0,.33,1.76,4.74,4.74,0,0,0,.55,1.24h-4.31a5.16,5.16,0,0,1-.81-2.05c-.22.19-.42.41-.63.62a4.92,4.92,0,0,1-.71.57,6.69,6.69,0,0,1-1.78.92,5.82,5.82,0,0,1-1.6.31,3.5,3.5,0,0,1-1.25,0,6.85,6.85,0,0,1-5.82-3.82,8.61,8.61,0,0,1-.8-3.07,6.51,6.51,0,0,1-.06-1.17,10.64,10.64,0,0,1,.32-2.57,7.74,7.74,0,0,1,2.19-3.83,5.9,5.9,0,0,1,1.3-1,7.54,7.54,0,0,1,1.69-.7Zm2.33,3.24a3.84,3.84,0,0,0-1.67.61,4.7,4.7,0,0,0-1.76,3.21c-.06.22,0,.45-.07.67a5.25,5.25,0,0,0,0,1.31,4.79,4.79,0,0,0,.54,1.73,3.51,3.51,0,0,0,3.25,2,4,4,0,0,0,2-.45,4.17,4.17,0,0,0,2.07-2.72,6.34,6.34,0,0,0-.26-4.1A3.71,3.71,0,0,0,105.87,80l-.69-.35a4.9,4.9,0,0,0-2-.24Zm89.63-3.21a8.9,8.9,0,0,1,4.38-.09,6.18,6.18,0,0,1,2.73,1.45c0-.43,0-.87,0-1.3h4.23c0,2.76,0,5.53,0,8.29,0,.16.06.32.06.48,0,.88,0,1.76,0,2.64.11.37,0,.76.1,1.13a7.5,7.5,0,0,0,.63,2.75c.06.14.2.25.19.42-1.42,0-2.85,0-4.28,0a4.91,4.91,0,0,1-.78-2.1,5.81,5.81,0,0,1-1.15,1.12A6.73,6.73,0,0,1,196,92.22a6.22,6.22,0,0,1-2,.09,6.81,6.81,0,0,1-2.79-.77,5.7,5.7,0,0,1-1.7-1.26A6.67,6.67,0,0,1,188,88a8.48,8.48,0,0,1-.58-2.37,3.71,3.71,0,0,1,0-.88V83.39a9.63,9.63,0,0,1,1.21-4,10.16,10.16,0,0,1,1-1.31,7.15,7.15,0,0,1,3.19-2Zm2.41,3.21a4,4,0,0,0-.84.2,3.74,3.74,0,0,0-2.07,2,6,6,0,0,0-.53,2,5.73,5.73,0,0,0,.95,4,3.51,3.51,0,0,0,1.4,1.07,4.17,4.17,0,0,0,3.85-.44,2.64,2.64,0,0,0,.68-.61,4.89,4.89,0,0,0,1.14-2.85,5.05,5.05,0,0,1,.06-.67,2.21,2.21,0,0,1-.06-.68,4.78,4.78,0,0,0-1.15-2.84,4.2,4.2,0,0,0-3.43-1.13ZM45,76.21a13,13,0,0,1,.6,3c.06.22,0,.45.05.68s0,.6.09.89c0,.48,0,1,0,1.45a3.13,3.13,0,0,1,0,.81v8.9c1.43,0,2.87,0,4.3,0V85.09l4.28,6.12a6,6,0,0,0,.53.71c1.67,0,3.35,0,5,0a7.74,7.74,0,0,0-.71-1.08l-5-7a.24.24,0,0,1,0-.38l5.86-7.22H55.46c-.25,0-.37.25-.51.41-1.63,2-3.25,4-4.89,6V76.21Zm35.51,0H92.55V91.93h-4.3V79.65c-1.23,0-2.45,0-3.68,0,0,2.39,0,4.79,0,7.18-.08.31,0,.63-.1.94a7.81,7.81,0,0,1-.49,1.9A5.34,5.34,0,0,1,83.14,91a4.23,4.23,0,0,1-1.5,1,5.76,5.76,0,0,1-4.07,0c0-1.2,0-2.4,0-3.6a2.43,2.43,0,0,0,1.72.07,1.35,1.35,0,0,0,.66-.51,3.31,3.31,0,0,0,.44-2V77.19a4.57,4.57,0,0,0,.07-1Zm53.17,0h5.1v6.07c2.06,0,4.13,0,6.19,0,0-2,0-4,0-6.07h4.29q0,7.86,0,15.71c-1.44,0-2.87,0-4.3,0,0-2,0-4.08,0-6.13-2.07,0-4.14,0-6.2,0,0,2,0,4.09,0,6.14h-4.3c0-3.35,0-6.71,0-10.06,0-.36-.11-.7-.06-1s-.1-.69-.06-1c-.09-.76-.17-1.52-.31-2.27a5.77,5.77,0,0,0-.37-1.29Zm18.67,0h4.29c0,3.14,0,6.27,0,9.41.35-.48.64-1,1-1.49s.7-1,1-1.56c.7-1,1.35-2.08,2.05-3.11s1.43-2.15,2.11-3.25h4.33q0,7.86,0,15.71-2.15,0-4.29,0c0-3.15,0-6.31,0-9.47a4.85,4.85,0,0,0-.47.71c-.36.55-.75,1.1-1.1,1.67-.61.9-1.18,1.83-1.8,2.73-.34.58-.73,1.12-1.09,1.68s-.75,1.13-1.12,1.7c-.19.34-.42.65-.63,1-1.43,0-2.85,0-4.28,0V76.21Zm17.87,0h4.29c0,4.07,0,8.14,0,12.21q2.94,0,5.88,0c0-4.07,0-8.14,0-12.21h4.29c0,4.07,0,8.14,0,12.21h1.83a4.59,4.59,0,0,1-.05,1.17c0,.4,0,.81,0,1.22a6.29,6.29,0,0,1,.07,1.15c.07.24,0,.48.08.72a11.83,11.83,0,0,0,.43,2c.09.26.21.5.29.77H183a8.45,8.45,0,0,1-.72-2.79c-.08-.25,0-.53-.11-.76h-12q0-7.85,0-15.71ZM118.32,106a12,12,0,0,1,3.34-.89c0,.46,0,.92,0,1.39-.32.11-.66.12-1,.2l-1.2.27a1.65,1.65,0,0,0-.67.28,4.67,4.67,0,0,1,.63-.07,2.69,2.69,0,0,1,1.31.49,2.73,2.73,0,0,1,.74.91,2.87,2.87,0,0,1,.13,2.19,2.5,2.5,0,0,1-1.87,1.63,2.63,2.63,0,0,0-.49,0,5.17,5.17,0,0,1-.79-.1,2.29,2.29,0,0,1-1.31-1,3.23,3.23,0,0,1-.45-2.32,4.6,4.6,0,0,1,.46-1.86,2.51,2.51,0,0,1,1.15-1.19Zm.89,2.63a1.1,1.1,0,0,0-.81.52,1.27,1.27,0,0,0,.2,1.58.9.9,0,0,0,.88.24,1.14,1.14,0,0,0,.68-.68,1.25,1.25,0,0,0-.36-1.43.76.76,0,0,0-.59-.23Zm8.75-3c.27-.18.59-.26.88-.42.16.15.2.44.43.55a.87.87,0,0,0,1.15-.14,3.07,3.07,0,0,0,.28-.42c.29.11.56.28.85.4,0,.21-.17.35-.27.52a1.82,1.82,0,0,1-2.58.46,2.75,2.75,0,0,1-.74-1Zm-54.81.07c.78,0,1.55,0,2.33,0a2.69,2.69,0,0,1,.88.17,1.83,1.83,0,0,1,.76.59,1.5,1.5,0,0,1,.39,1c0,.24,0,.48,0,.73a2.82,2.82,0,0,1-.42.73,1.7,1.7,0,0,1,.67,1.49,1.77,1.77,0,0,1-.66,1.43,2.49,2.49,0,0,1-1.36.53H73.15c0-2.21,0-4.42,0-6.63Zm1.53,1.42v1.16c.4,0,.85.11,1.18-.17a1.48,1.48,0,0,0,.17-.33.6.6,0,0,0-.34-.57,2.3,2.3,0,0,0-1-.09Zm0,2.51v1.23h.87a.64.64,0,0,0,.67-.66c-.07-.15-.12-.35-.29-.41a2.64,2.64,0,0,0-1.25-.16Zm4.16-1.8a2.44,2.44,0,0,1,1.68-.66,3.31,3.31,0,0,1,1.22.33c0,.57,0,1.14,0,1.72-.13,0-.2-.14-.29-.22a1.34,1.34,0,0,0-1-.37,1.18,1.18,0,0,0-.91,1.46,1,1,0,0,0,1.07.9c.45,0,.77-.33,1.1-.57,0,.57,0,1.14,0,1.71a3,3,0,0,1-1,.27c-.25.08-.49,0-.74,0a2.48,2.48,0,0,1-2-1.92,2.29,2.29,0,0,1,0-1,2.45,2.45,0,0,1,.8-1.6Zm3.61.35a2.4,2.4,0,0,1,3.15-.69,4,4,0,0,1,.64.59,2.74,2.74,0,0,1,.41,1.07c0,.34.16.7,0,1h-3a1,1,0,0,0,.62.85,2.07,2.07,0,0,0,1.13,0,3.39,3.39,0,0,0,.77-.29c0,.49,0,1,0,1.47a4.11,4.11,0,0,1-1.1.2c-.23,0-.45.09-.68,0a2.33,2.33,0,0,1-1.61-.66,2.49,2.49,0,0,1-.66-1.37,3.09,3.09,0,0,1,.34-2.19Zm1.19,1c.54,0,1.07,0,1.61,0a.81.81,0,0,0-.55-.75.82.82,0,0,0-1.06.75Zm14.3-2a1.67,1.67,0,0,1,.83,0,1.81,1.81,0,0,1,1.83,1.86c0,1.08,0,2.16,0,3.25H99.25c0-.11,0-.22,0-.32-.28.13-.52.39-.86.38a3.41,3.41,0,0,1-1.19-.09,1.3,1.3,0,0,1-.85-1.18,1.53,1.53,0,0,1,1.12-1.8,3.54,3.54,0,0,1,1.3-.12.92.92,0,0,1,.36.07.53.53,0,0,0-.24-.56,1.14,1.14,0,0,0-1-.14,4.54,4.54,0,0,0-1,.33c0-.47,0-.94,0-1.4a4,4,0,0,1,1-.28Zm.19,3a.5.5,0,0,0-.42.45.42.42,0,0,0,.31.48,1.14,1.14,0,0,0,.66-.07.8.8,0,0,0,.44-.83c-.33,0-.67-.16-1,0Zm5.79-2.86a2.44,2.44,0,0,1,1.41-.14,5.66,5.66,0,0,1,.79.27v1.72c-.18-.05-.27-.24-.43-.33a1.08,1.08,0,0,0-1.19-.14,1.26,1.26,0,0,0-.37,1.77,1,1,0,0,0,.54.44,1.3,1.3,0,0,0,1-.21,3.39,3.39,0,0,1,.42-.33v1.71a3.11,3.11,0,0,1-1.26.3,3,3,0,0,1-.93-.18,2.48,2.48,0,0,1-1.5-2,1.63,1.63,0,0,1,0-.82,2.54,2.54,0,0,1,.52-1.32,2.63,2.63,0,0,1,1-.74Zm9.59-.17a2.56,2.56,0,0,1,1,.07,2.61,2.61,0,0,1,1.5,1.21,2.16,2.16,0,0,1,.24.61,3.62,3.62,0,0,1,.07,1.09,2.38,2.38,0,0,1-.75,1.52,2.11,2.11,0,0,1-1.28.69,4.5,4.5,0,0,1-1.37-.09,2.58,2.58,0,0,1-1.63-2,3.45,3.45,0,0,1,.2-1.63,2.46,2.46,0,0,1,.73-.93,2.29,2.29,0,0,1,1.3-.54Zm.24,1.41a1.24,1.24,0,0,0-.52.21,1.32,1.32,0,0,0-.41.64,1.23,1.23,0,0,0,.66,1.47,1,1,0,0,0,1.2-.54,1.62,1.62,0,0,0,.1-.82,1.34,1.34,0,0,0-.42-.75,1.12,1.12,0,0,0-.61-.21Zm10.45-1.41a2.52,2.52,0,0,1,1.75.41,2.71,2.71,0,0,1,.78,3.54,2.46,2.46,0,0,1-1.46,1.18,2.7,2.7,0,0,1-.85.07,2.3,2.3,0,0,1-2.13-1.31,2,2,0,0,1-.27-1,4,4,0,0,1,.08-1.09,2.41,2.41,0,0,1,1-1.43,2.53,2.53,0,0,1,1.07-.4Zm.3,1.41a1.07,1.07,0,0,0-.65.33,1.45,1.45,0,0,0-.35.82,1.25,1.25,0,0,0,.71,1.18.94.94,0,0,0,1.12-.4,1.22,1.22,0,0,0,.2-.79,1.1,1.1,0,0,0-1-1.14Zm-37.35-1.31c1,0,2.08,0,3.13,0v1.29H88.69c0,1.24,0,2.49,0,3.74H87.15v-5Zm4,0V109a4.29,4.29,0,0,1-.44,2.08h-.48V114H91.5c0-.56,0-1.11,0-1.66h3.31c0,.55,0,1.1,0,1.65h1.29v-3h-.79c0-1.25,0-2.49,0-3.74-1.39,0-2.78,0-4.17,0Zm1.48,1.29h1.16v2.45c-.5,0-1,0-1.49,0a6.54,6.54,0,0,0,.26-.86,10.52,10.52,0,0,0,.07-1.59Zm14.92-1.29c0,.43,0,.86,0,1.29h1.11c0,1.25,0,2.49,0,3.74h1.53c0-1.25,0-2.49,0-3.74h1.1c0-.43,0-.86,0-1.29-1.24,0-2.49,0-3.73,0Zm19.95,0H129c0,.55,0,1.1,0,1.66a2.75,2.75,0,0,1,0,.7c.33-.43.62-.9,1-1.31s.55-.69.81-1c.42,0,.85,0,1.27,0,0,1.68,0,3.35,0,5h-1.47c0-.83,0-1.65,0-2.48-.32.39-.55.85-.89,1.23s-.66.86-1,1.25h-1.15C127.48,110.69,127.49,109,127.49,107.34Z" fill="#fff" fill-rule="evenodd"/>
      </g>
    </g>
  </g>
</svg>
