<svg xmlns="http://www.w3.org/2000/svg" viewBox="0 0 473 172"><g fill-rule="evenodd" fill="#fff"><path d="M84.2 100.3c0 6.5-1.7 12.2-4.9 17-6.9 10-18.8 15-35.9 15a54.4 54.4 0 01-29.8-8c-9.2-5.9-13.9-14-14-24h25c0 4.5 2 8 5.9 10.5 3.4 2.2 7.7 3.2 12.8 3.2 4.4 0 8.3-.8 11.5-2.5 3.4-1.9 5-4.2 5-7 0-3.9-4.9-6.9-14.6-9a170 170 0 01-27.5-7.8C8 83 3.1 75.8 3.1 66.1c0-5.8 1.3-11 4-15.7a28 28 0 0114-11.2 52.4 52.4 0 0147.4 3.1c8 5.5 12.3 13.3 12.9 23.4h-24c-1.3-8.1-6.7-12.2-16.2-12.2-4 0-7.3.9-10.2 2.6-2.9 1.7-4.3 3.9-4.3 6.5 0 3.5 5 6.3 14.8 8.4a169 169 0 0127.8 7.8c10 4.8 14.9 12 14.9 21.5zM204.7 129.5h-24.4V74.1c0-6.4-1-11-2.9-13.5-2.4-3.1-6.7-4.7-13-4.7-12.5 0-18.7 7-18.7 21.2v52.4h-24.4V38h23.3v8.6c0 3.3 0 5 .2 5 0-.2 0-.2.2-.2 2.8-5 7-9 12.2-11.7a36 36 0 0117.1-4.3c12.2 0 21 4.7 26.6 14.2 2.5 4.6 3.8 10.1 3.8 16.6v63.4zM295 100.3c0 6.5-1.7 12.2-5 17-6.8 10-18.8 15-35.8 15a54.4 54.4 0 01-29.9-8c-9.2-5.9-13.8-14-14-24h25c0 4.5 2 8 6 10.5 3.4 2.2 7.7 3.2 12.7 3.2 4.5 0 8.4-.8 11.6-2.5 3.3-1.9 5-4.2 5-7 0-3.9-5-6.9-14.7-9a170 170 0 01-27.4-7.8c-9.8-4.7-14.7-11.9-14.7-21.6 0-5.8 1.4-11 4.2-15.7a28 28 0 0114-11.2 52.4 52.4 0 0147.2 3.1c8 5.5 12.4 13.3 13 23.4h-24c-1.3-8.1-6.7-12.2-16.3-12.2-3.9 0-7.3.9-10.1 2.6-3 1.7-4.3 3.9-4.3 6.5 0 3.5 4.9 6.3 14.8 8.4a169 169 0 0127.8 7.8c9.9 4.8 14.8 12 14.8 21.5zM357 84.8a30 30 0 01-12.7 4.7 53.3 53.3 0 00-13.5 3.6c-4.2 2.1-6.4 6-6.4 11.3 0 6.9 3.7 10.3 11 10.3a26.8 26.8 0 0018.4-7.9c2.4-3 3.6-7.4 3.6-13.2a80.7 80.7 0 00-.3-8.8zm25.8 44.7h-22.6c-.7-1.2-1.5-3.7-2.3-7.4-5.6 6.2-14.6 9.3-26.9 9.3-8.5 0-15.5-2-21-5.8a23 23 0 01-9.7-20c0-12.5 4.9-21 14.7-25.8 4.4-2.2 13.6-4.1 27.4-5.8 9.8-1.3 14.7-4 14.7-8 0-3.5-1.5-6.3-4.5-8.4a16.4 16.4 0 00-10.2-3.2c-4 0-7.5 1-10.4 3.2-2.7 2-4.4 4.7-5.1 8.1h-23.6c.8-6.5 2.7-11.8 5.3-16 3-4.6 7.7-8.1 14.3-10.6 6-2.3 13-3.5 20.7-3.5 26.1.2 39.2 12.7 39.2 37.3v56.6zM114.1 26H89.8V1.7h24.3V26zM114.1 129.5H89.8V83.7h24.3v45.8zM472.6 134.7c0 12.1-4.4 21.9-13.1 29.2-8 6.6-17.7 9.8-29 9.8-11 0-20.4-3.2-28-9.6a37 37 0 01-12.6-29.6h22.7c0 5.9 1.7 10.4 5.1 13.8 3 3 6.8 4.4 11.4 4.4 5 0 9.5-1.7 13.3-5.1 4-4 6-9 6-15.3v-14.1a18.9 18.9 0 01-9.4 9.6 33 33 0 01-15.2 3.4c-9 0-16.7-2.6-23-7.9a31 31 0 01-10.9-25V37.8h24.4v56.7c0 11.4 5.2 17 15.5 17a19 19 0 0013.5-4.8 16 16 0 005.1-12.2V38h24.2v96.8z"/></g></svg>
