<svg xmlns="http://www.w3.org/2000/svg" viewBox="0 0 78.02 210.69"><title>soho</title><path d="M22.36,95.43c-.19-.64-.31-1.13-.48-1.59a30.22,30.22,0,0,1,0-21.79,15.47,15.47,0,0,1,15-10.47q18.9-.06,37.79,0c1,0,2.47-.23,3,.34s.18,2,.2,3-.06,1.85,0,2.76-.34,1.22-1.26,1.21q-10.61-.1-21.23-.14c-6.11,0-12.23,0-18.35,0a9.94,9.94,0,0,0-9.25,6.48,21.81,21.81,0,0,0,0,15.47,7.07,7.07,0,0,0,6.81,4.88c14-.14,27.91,0,41.87-.09,1.09,0,1.49.3,1.44,1.42a45.21,45.21,0,0,0,0,4.8c0,1.06-.31,1.36-1.36,1.36-7.8,0-15.6,0-23.4,0q-25.26,0-50.51.09c-3.22,0-2.58.2-2.65-2.6C0,99.28.08,98,0,96.8c-.06-1,.32-1.23,1.24-1.23q9.78,0,19.56,0C21.27,95.53,21.73,95.47,22.36,95.43Z" fill="#fff"/><path d="M19.82,135.26C20,119,32.31,106.43,48.75,106.49a28.56,28.56,0,0,1,28.8,30A28.85,28.85,0,0,1,48,164.13C31.38,163.87,19.73,149.79,19.82,135.26Zm28.7,22c11.62.3,21.79-9.73,22.23-20.8A22,22,0,0,0,48.9,113.13c-13.26,0-21.5,9.69-22.27,20.94C25.75,146.74,36.5,157.5,48.52,157.28Z" fill="#fff"/><path d="M19.87,28.82A28.42,28.42,0,0,1,48.59,0a28.7,28.7,0,0,1,.86,57.39C32.26,57.82,19.59,44.26,19.87,28.82Zm50.86.09a22.07,22.07,0,0,0-44.1-1.4,22.07,22.07,0,1,0,44.1,1.4Z" fill="#fff"/><path d="M36.62,167.84c0,2.14,0,4.29,0,6.43,0,.27-.53.61-.88.75-1.33.55-2.72.93-4,1.56a7.81,7.81,0,0,0-3.92,4.79,20.91,20.91,0,0,0,.13,15c1.76,4.24,5.91,6.5,10.24,4.11,2.34-1.3,3.32-3.53,4-5.9,1.51-5.5,2.81-11.06,4.39-16.55,1.17-4.09,3.29-7.75,7-10,4.8-2.86,9.85-2.74,14.76-.11a17.18,17.18,0,0,1,8.44,10.87A31.29,31.29,0,0,1,75.86,199a17.25,17.25,0,0,1-14,11.39c-3.39.57-2.92.8-3-2.47,0-1.08,0-2.16,0-3.24-.05-.85.28-1.21,1.12-1.34A12.42,12.42,0,0,0,65.56,201a13.08,13.08,0,0,0,4.51-6.78,22.24,22.24,0,0,0,0-14.26,9.09,9.09,0,0,0-5-6c-4.41-1.88-9-.18-10.58,4.35-1.31,3.75-2.13,7.68-3.23,11.51s-2.05,7.71-3.94,11.29C43,209.29,33.39,210.26,27.12,206a13.88,13.88,0,0,1-5.22-6.85c-2.89-7.82-2.85-15.61.94-23.12C25.7,170.42,30.89,167.86,36.62,167.84Z" fill="#fff"/><path d="M.48,115.16c1.67,1.69,3.35,3.38,5,5.09q4.8,4.92,9.57,9.86a1.36,1.36,0,0,1,.4.81c0,3.31,0,6.62,0,10.12a6.79,6.79,0,0,1-.77-.53q-7-7-13.94-14a1.72,1.72,0,0,1-.56-1c0-3.39,0-6.78,0-10.17Z" fill="#fff"/></svg>