<svg xmlns="http://www.w3.org/2000/svg" viewBox="0 0 1484 521"><path fill="#fff" fill-rule="evenodd" d="M428 1h37c4 0 8 0 11 2 3 3 3 9-1 10-4 2-8 2-12 2-29 0-58 8-83 23-26 17-47 43-61 70-17 35-26 74-29 112a439 439 0 0020 171c10 29 26 57 49 77a113 113 0 00107 24c17-6 31-17 43-30 14-16 24-34 31-53 15-38 22-78 25-118 3-49-1-99-16-145-7-19-15-38-27-54-9-12-21-23-35-28-16-6-35-4-50 3-18 9-31 25-40 42a220 220 0 00-4 185c11 21 27 40 47 53l13 8c3 3 2 7 0 10-3 2-8 1-11 0a150 150 0 01-111-157c0-37 8-74 27-106 16-25 38-46 66-56 26-11 57-12 84-3 18 7 35 18 48 32 23 23 38 53 48 84a381 381 0 01-16 254c-14 30-35 58-62 78a155 155 0 01-119 29c-35-4-69-19-97-42-33-29-56-68-69-109a315 315 0 01-6-184c10-39 27-77 52-109A206 206 0 01428 1zm288 41c-13 5-23 15-31 26-12 17-20 37-26 57a737 737 0 00-9 276c-12 4-24 5-36 8-4 4 0 13 6 13 11 1 23-1 34-2 5 20 14 39 27 55 10 13 24 23 40 28 17 6 36 4 52-3 13-6 24-16 32-28 11-16 17-34 21-52 1 20 7 40 17 57 8 11 17 21 30 26 12 6 27 6 39 0s21-17 27-28c8-15 12-30 14-47 5 23 13 45 29 61 9 9 19 16 31 18 9 1 18-1 25-6 10-8 17-19 23-30 8-17 14-36 18-55 5-22 9-45 12-67 11 16 22 33 38 45 2 25 9 48 22 69 11 17 26 31 44 39 17 7 37 10 55 6 16-4 30-12 42-24 14-15 25-34 33-53 16-39 23-81 28-123 7-1 15-2 22 3 4 3 5 9 4 14-4 24-7 47-8 71-1 23-1 46 5 69 4 14 11 28 23 36 10 8 24 10 37 8 16-3 31-11 44-21 2-2 5-4 4-7 0-4-5-7-8-4-11 6-22 12-35 12-8 0-15-4-20-10-6-9-8-19-9-29-1-14-1-28 1-41 3-31 10-61 18-91 3-12 5-25 2-37-2-7-6-15-13-18-8-5-17-5-25-5-12 1-24 5-35 10v-26c0-5 0-11-3-15-3-7-10-11-17-11-7-1-14 3-18 8-5 8-6 18-6 27 0 12 5 22 7 33 3 9 1 19 1 28-2 33-7 66-16 97-6 20-13 40-27 56-9 12-22 21-37 23-17 3-36-3-47-17-13-15-19-36-21-56 22 6 46 6 67-5 16-10 27-26 34-43a148 148 0 00-11-126c-8-11-19-21-32-25-14-4-30-2-43 5-13 8-24 20-32 33-11 17-17 37-23 56-5 20-8 41-8 62-6-6-10-13-13-21-7-16-13-33-16-50l6-54c1-12 1-25-2-37-2-7-7-14-15-17-6-4-14-1-19 4-7 5-10 13-12 21-3 14-2 29 0 43 2 17 6 33 12 48v5c-2 22-5 44-9 65s-9 42-16 63c-3 7-7 15-13 21-3 3-8 5-12 2-8-4-12-13-15-22-6-17-8-36-10-54-3-33-2-67 0-100 0-8-5-15-12-18-10-4-23-2-31 5-5 4-7 11-8 17-1 33-1 65 3 98 1 4 2 9 1 14-2 17-5 34-12 49-4 10-10 19-19 24-7 4-16 5-23 1-9-3-14-11-18-19-6-14-7-29-8-44-2-40 3-81 7-121 1-6 2-13-2-19-5-7-13-9-21-9s-16 2-21 9c-4 4-3 11-4 16-1 29-2 58-6 87-3 17-8 34-14 51-6 14-13 28-25 38a47 47 0 01-42 10c-12-3-21-11-27-21-9-14-15-30-18-46 22-10 37-31 49-51a465 465 0 0044-229c-2-21-6-41-13-59-5-12-13-24-24-30-10-5-23-4-34 0zm14 37c3-2 7-4 11-4 5 0 9 3 11 7 5 8 7 17 8 25a522 522 0 01-20 201c-5 19-13 37-23 53-7 10-15 20-26 26l-3-30a955 955 0 019-202c4-19 9-38 17-56 4-8 9-15 16-20zm473 192c5-7 13-13 21-15 6-2 12 0 17 3 7 6 11 14 14 22 6 20 6 42 2 63-4 17-12 35-26 47a56 56 0 01-42 11l-14-2c-1-11 0-21 1-32 2-22 5-43 12-64 4-12 8-23 15-33zM848 162c8-2 17 1 23 7 11 10 13 28 5 40-9 14-32 13-42 1s-9-29 0-40c4-4 8-7 14-8zM73 227c15-3 31-1 44 7 12 6 19 17 24 29 4 11 6 24 4 36 0 2 0 4-2 5-2 4-9 3-11-1-4-7-4-16-7-24-6-15-27-24-42-16-12 6-20 18-22 31-2 10-2 22 3 32 4 9 13 16 21 22 16 10 34 18 50 30 12 9 21 22 24 37 4 17 3 35-5 51-7 14-20 24-34 31-22 9-46 10-69 5-15-4-29-12-38-24a75 75 0 01-11-59c0-4 3-8 7-8 7 0 11 8 11 14 0 10 1 21 7 31 4 8 12 13 21 15 26 7 55-11 62-36 4-13 4-28-3-41-7-12-20-20-32-26-15-8-31-15-43-28-8-9-15-21-16-34-2-20 4-40 17-55 10-12 24-21 40-24zm129 212c-14 3-25 19-22 34 1 9 7 17 15 22 10 5 24 4 34-3 9-8 11-21 7-32-4-14-19-24-34-21z" clip-rule="evenodd"/></svg>