<svg xmlns="http://www.w3.org/2000/svg" viewBox="0 0 1472 225"><path fill="#fff" fill-rule="evenodd" d="M538 177c18 0 32-5 43-15 11-8 18-20 22-33 4-14 3-25-3-34s-17-14-34-14-32 5-43 14a67 67 0 00-22 34c-4 13-3 25 3 33 5 10 17 15 34 15zm7-23c-5 0-9-2-11-7-1-5-1-11 1-18a45 45 0 019-18 19 19 0 0115-7c5 0 9 2 11 7 1 4 1 10-1 18-2 7-5 13-9 18a19 19 0 01-15 7zm868-5c-5 0-8-2-9-6-2-4-2-9-1-15s5-12 9-15c4-4 8-6 12-6 11 0 14 7 11 21a37 37 0 01-9 16c-4 3-8 5-13 5zm-31-66l-34 122h35l11-40c4 7 10 11 19 11 11 0 22-3 33-11a64 64 0 0014-15c4-5 7-13 10-22 3-13 3-24-1-33s-13-15-27-15c-5 0-10 2-17 4s-11 7-15 13h-1l4-14zm-29 54c5-17 4-31-2-41s-17-16-34-16a63 63 0 00-39 14c-12 8-20 20-25 36-4 14-2 26 5 34s18 12 32 12a80 80 0 0032-6q16-7 26-24h-34a19 19 0 01-7 6 16 16 0 01-8 2c-5 0-9-1-11-5s-3-7-2-12h67zm-61-18q4-16 20-17c4 1 8 2 10 5a13 13 0 011 12zm-120 55l19-65h-31l8-26h96l-8 26h-30l-19 65zm-16-57c1-13-1-23-9-28-8-6-17-9-29-9-15 0-28 4-40 13-12 8-20 21-24 36q-7 23 4 35c8 8 18 13 33 13a71 71 0 0034-9 56 56 0 0015-12l10-17h-35a26 26 0 01-6 9 15 15 0 01-11 4c-6 0-9-2-10-6-2-4-2-9 0-17a67 67 0 014-8 53 53 0 014-8 22 22 0 017-6 16 16 0 018-3c4 0 6 2 8 4s2 6 1 9h36zm-171 39q-12 0-10-7a12 12 0 015-7 19 19 0 018-3 55 55 0 019-2l11-3a34 34 0 01-8 16c-4 4-9 6-15 6zm51 18l1-2a7 7 0 01-3-6 18 18 0 011-6l12-42 3-15a17 17 0 00-2-12c-2-3-6-6-11-8s-14-3-25-3c-17 0-30 3-39 8a37 37 0 00-18 23h35c2-4 4-6 7-8a25 25 0 018-1 21 21 0 017 1c2 1 3 3 3 7q-3 6-13 7a393 393 0 01-23 3 34 34 0 00-12 3 50 50 0 00-12 5 37 37 0 00-9 8 34 34 0 00-7 13c-3 9-1 16 4 20 5 5 11 7 20 7a54 54 0 0036-12l-1 10h38zm-303 0l18-65h-31l8-26h96l-7 26h-31l-18 65zm-77-25c-5 0-8-2-9-6-2-4-2-9 0-15s4-12 8-15c4-4 8-6 13-6 10 0 13 7 10 21a37 37 0 01-8 16c-5 3-9 5-14 5zm-31-66l-34 122h35l11-40c4 7 11 11 19 11 11 0 22-3 33-11a64 64 0 0014-15c4-5 7-13 10-22 4-13 3-24-1-33s-13-15-27-15c-5 0-10 2-16 4s-12 7-16 13h-1l4-14zm-246 91h34l19-65h28l-19 65h36l25-91h-97l-26 91zm5-56c2-14-1-23-9-29-7-6-17-9-29-9-15 0-28 4-40 13-11 8-20 21-24 36q-6 23 5 35c7 8 17 13 32 13a71 71 0 0035-9 56 56 0 0014-12c5-5 8-11 11-17h-36a25 25 0 01-6 9 15 15 0 01-11 4c-6 0-9-2-10-6s-1-9 1-17a67 67 0 013-8 55 55 0 014-8 22 22 0 017-6 16 16 0 018-3c4 0 7 2 8 4 2 2 2 6 1 10h36zM841 54l24 112 88-112-70 49zM834 83l-26 91h45zm110 0l-69 91h43zM274 35l-85 97L0 36l179 38z"/><path fill="#fff" fill-rule="evenodd" d="M17 225l100-113 221 112-209-44zM173 0a30 30 0 1032 27 30 30 0 00-32-27z"/></svg>
