<svg xmlns="http://www.w3.org/2000/svg" viewBox="0 0 8.64 48.88">
  <g id="Layer_2" data-name="Layer 2">
    <g id="Layer_1-2" data-name="Layer 1">
      <g>
        <path d="M7.8,44.31a.94.94,0,0,0-.65.25,1.72,1.72,0,0,0-.41.64,7.3,7.3,0,0,0-.27.86c-.08.32-.18.63-.29.95a4.32,4.32,0,0,1-.43.86,1.74,1.74,0,0,1-.7.64A2.28,2.28,0,0,1,4,48.76,2.08,2.08,0,0,1,2.33,48a3,3,0,0,1-.65-2,3.26,3.26,0,0,1,.12-.9,2.71,2.71,0,0,1,.27-.72,3.9,3.9,0,0,1,.31-.5,2.44,2.44,0,0,1,.26-.31l.12-.09.84.83a.3.3,0,0,1-.08.07l-.17.2a2.84,2.84,0,0,0-.22.34,2.14,2.14,0,0,0-.17.46,2.51,2.51,0,0,0-.08.62,1.56,1.56,0,0,0,.33,1,.92.92,0,0,0,.75.4.88.88,0,0,0,.65-.25A1.57,1.57,0,0,0,5,46.56a7.49,7.49,0,0,0,.27-.87,9.42,9.42,0,0,1,.3-.95A4,4,0,0,1,6,43.88a1.82,1.82,0,0,1,.7-.64A2.31,2.31,0,0,1,7.8,43a2.32,2.32,0,0,1,1.82.79,3.27,3.27,0,0,1,.7,2.21,4.34,4.34,0,0,1-.14,1.09,3.43,3.43,0,0,1-.33.85,3.88,3.88,0,0,1-.38.58,3.37,3.37,0,0,1-.32.36L9,49l-.84-.84.1-.08a2,2,0,0,0,.24-.25,2.56,2.56,0,0,0,.52-1,3,3,0,0,0,.1-.8,1.81,1.81,0,0,0-.38-1.23A1.16,1.16,0,0,0,7.8,44.31Z" transform="translate(-1.68 -0.12)" fill="#fff"/>
        <path d="M1.8,42.4V36H3v2.52h7.2v1.32H3V42.4Z" transform="translate(-1.68 -0.12)" fill="#fff"/>
        <path d="M10.2,34.6H1.8V33.28h8.4Z" transform="translate(-1.68 -0.12)" fill="#fff"/>
        <path d="M10.2,25.49v5.39H1.8V29.57H9V25.49Z" transform="translate(-1.68 -0.12)" fill="#fff"/>
        <path d="M10.2,18.53v5.4H1.8V22.61H9V18.53Z" transform="translate(-1.68 -0.12)" fill="#fff"/>
        <path d="M9.06,16.66A4.11,4.11,0,0,1,6,17.94a4.11,4.11,0,0,1-3.06-1.28A4.33,4.33,0,0,1,1.68,13.5a4.31,4.31,0,0,1,1.26-3.16A4.08,4.08,0,0,1,6,9.06a4.08,4.08,0,0,1,3.06,1.28,4.31,4.31,0,0,1,1.26,3.16A4.33,4.33,0,0,1,9.06,16.66Zm-5.27-.95A3,3,0,0,0,6,16.62a3,3,0,0,0,2.21-.91,3.15,3.15,0,0,0,0-4.43A3,3,0,0,0,6,10.38,3.09,3.09,0,0,0,2.88,13.5,3,3,0,0,0,3.79,15.71Z" transform="translate(-1.68 -0.12)" fill="#fff"/>
        <path d="M1.8,5.82H5.88L1.8,2V.36L5.28,3.6,10.2.12V1.74l-4,2.76L7.68,5.82H10.2V7.14H1.8Z" transform="translate(-1.68 -0.12)" fill="#fff"/>
      </g>
    </g>
  </g>
</svg>
