<svg xmlns="http://www.w3.org/2000/svg" viewBox="0 0 355 140"><path fill="#fff" d="M5 51.3v18.8l50.6-5.6V44.2L5 51.3m16.2 20v64.3h18.5V69.4l-18.5 1.9m41.3-28v92.3H82v-95l-19.5 2.7M85.7 40v21.2l28.2-3V36l-28.2 4m0 37v21.7l18.5-1V75.5L85.7 77m0 37.2v21.3h28.2v-22.2l-28.2.9m101.1-88.5v109.8h25.7V22.2l-25.7 3.6m30.4-4.3v25.3l37.4-4.2V16.2l-37.4 5.3m0 44.3v25.7l24.5-1.4V63.7l-24.5 2m0 44.6v25.3h37.4v-26.4l-37.4 1M121.3 35v100.6h22.3V31.9l-22.3 3m26.5 77.5v23.2H180v-24.2l-32.3 1M338.2 15a39 39 0 0 0-32.9-9v28.1c5.3-.3 9.5 1.7 11.4 5.6 3 6.2 0 15.5-7.4 24a665.9 665.9 0 0 1-41.2 40.6l43-1.5c26.3-25.6 35.7-41.2 37.4-60.6A33.2 33.2 0 0 0 338.2 15M350 135.6v-29.3l-87.2 2.6m0 0v26.7H350M300.3 6.7c-25.3 5.4-37.8 24-36.3 54.4l27-2.4c-1.3-17.1 4-21.2 9.3-23.5V6.7"/></svg>
