<svg xmlns="http://www.w3.org/2000/svg" viewBox="0 0 22.1 200"><g fill="#fff"><path d="M3.3 127.2c-.1 1.1 0 2.1.3 3.2.4 1.2 1.5 2 2.8 1.8h13.9s1.3 0 1.3 2-1.3 2-1.3 2h-13c-5.6 0-6.8-4.6-6.8-7 0-1.3.3-4.5 2.2-4.1.5.1.8.6.8 1.1v.1a3 3 0 00-.2.9z"/><path d="M3.3 143.3c-.1 1.1 0 2.1.3 3.2.4 1.2 1.5 2 2.8 1.8h13.9s1.3 0 1.3 2-1.3 2-1.3 2h-13c-5.7 0-6.8-4.6-6.8-7 0-1.3.3-4.5 2.2-4.1.5.1.8.6.8 1.1v.1a3 3 0 00-.2.9z"/><path d="M.1 58.8c0 8.8 4.9 11.8 11 11.8s11-2.9 11-11.8c0-9-4.9-12-11-12s-11 3-11 12zm19.2-.1c0 5.5-3.7 8-8.2 8s-8.2-2.4-8.2-8 3.7-8 8.2-8c4.5 0 8.2 2.4 8.2 8z"/><path d="M.6 182.1v17c0 .6.7.9 1.7.9s1.7-.3 1.7-.9v-5.3s.1-1.2 1.2-1.2h15.1c1.3 0 1.3-2 1.3-2s0-1.9-1.3-1.9H5.1c-.7 0-1.2-.5-1.2-1.2v-5.4c0-.6-.7-.9-1.7-.9s-1.6.3-1.6.9z"/><path d="M17.2 159.7c.8 1.5 1.5 3.8 1.5 8 0 2.2-.4 5.3-2.7 5.3-1.8 0-2.5.3-2.5-1.8 0-.9-.1-5.2-.3-6.5-.3-2.3-1.6-7.1-6.7-7.1-2.2 0-6.3 1.9-6.3 10.1 0 1.9 0 9.1 8.5 9.1h6c3.5 0 7-1.4 7-9.1 0-4.8-1.2-7.4-2.5-8.8-.6-.6-1.2-.9-1.8-.5a1 1 0 00-.2 1.3zM3 167.6c0-4.9 1.6-6.6 3.7-6.6 3.2 0 3.7 3.4 3.9 4.8l.2 5c0 2.2-2.8 2.1-2.8 2.1-5 .1-5-4.2-5-5.3z"/><path d="M0 86.1c0 5.8 1.1 10.5 6.9 10.5h13.4c1.3 0 1.3-2 1.3-2s0-2-1.3-2h-14c-2.9 0-3.3-3.3-3.3-6.5s.4-6.5 3.3-6.5h14c1.4 0 1.3-2 1.3-2s0-2-1.3-2H6.9C1.1 75.6 0 80.3 0 86.1z"/><path d="M13.6 26.1L18 28c.3.1 3.6 1.6 3.6 4.7s-3.3 4.6-3.6 4.7l-4.4 1.9L7.2 42l-4.8 2c-1.2.5-1.9-1.3-1.9-1.3s-.8-1.8.4-2.2l11.2-4.7 4.4-1.9c.6-.2 1.4-.7 1.4-1.2s-.7-1-1.4-1.2l-4.4-1.9L1 24.9c-1.2-.5-.4-2.2-.4-2.2s.7-1.8 1.9-1.3l4.7 2 6.4 2.7z"/><path d="M.3 111.8c0 1.5.1 3 .4 4.5l.4 1.5c.2.6.5 1.1.9 1.6.4.6 1.2.9 1.8.6.5-.2.7-.8.4-1.3-.7-2.2-1.1-4.5-1-6.9 0-2.2.4-5.1 2.7-5.1h1.3c.8 0 1.1.3 1.1 1.8 0 .9.1 5.1.3 6.4.3 2.3 1.6 7.1 6.7 7.1 2.2 0 6.3-.6 6.3-7v-9.1-.5a3 3 0 00-2.9-2.4H7.2c-3.5-.1-6.9 1.1-6.9 8.8zm12.5-5.1h4.5s1.1 0 1.2.8v6.4c0 3.8-1.9 4.1-3.2 4.1-3 0-3.6-2.9-3.7-4.2l-.1-5.4c.1-1.8 1.3-1.7 1.3-1.7z"/><path d="M.3 8.9c0 1.5.1 3 .4 4.5l.4 1.5.9 1.6c.4.6 1.2.9 1.8.6.5-.2.7-.8.4-1.3-.7-2.2-1.1-4.5-1-6.9 0-2.2.4-5.1 2.7-5.1h1.3c.8 0 1.1.3 1.1 1.8 0 .9.1 5.1.3 6.4.4 2.2 1.7 7 6.8 7 2.2 0 6.3-.6 6.3-7V2.9v-.5a3.2 3.2 0 00-3-2.4H7.2C3.7-.1.3 1.1.3 8.9zm12.5-5.2h4.5s1.1 0 1.2.8v6.4c0 3.8-1.9 4.1-3.2 4.1-3 0-3.6-2.9-3.7-4.2l-.1-5.4c.1-1.8 1.3-1.7 1.3-1.7z"/> </g></svg>
