<svg xmlns="http://www.w3.org/2000/svg" viewBox="0 0 105 264"><path fill="#fff" d="M65 85v-4c-1-1-1-7-9-7-5 0-8 3-8 9 0 11 11 9 14 7l3-5zm-14-1v-5c2-3 10-3 11 2 1 4-1 7-4 7-3 1-7 0-7-4zM51 54c1-2-2-7 0-9 1-2 2-2 3 0l1 4c1 3 2 6 4 6 4 2 5-2 5-5l-1-9-4-1c-6 0-10-1-10 6-1 2 0 5 1 7l1 1zm5-8l1-3 3 1c5 2 2 10-2 7l-2-5zM51 128v-9c1-1 2-2 3 0l1 4c1 3 2 6 4 7 7 2 6-12 4-14l-2-1h-8c-3 0-4 2-4 5s0 8 2 8zm5-8c0-1 0-2 2-2h3l2 5c-1 4-6 5-7-3zM49 166c0 3 2 5 5 5 4 0 8 1 9-2 2-3 1-11-2-12-3-2 1 2 1 6 1 2 0 4-1 5-2 1-2-1-3-3 0-2 0-6-3-8h-4c-2 2-3 6-2 9zm1-1c-1-5 5-8 6-2l1 4-3 1c-2 0-3-1-4-3zM48 104c1 4 2 6 5 6h11v-3h-8c-3 0-6 1-5-6 0-4 2-3 8-3h2l3-1v-2H51c-3 2-3 6-3 9zM61 64l-7 3-4 2-1 2 1 1 4-1 3-2 4-2 3-2c1-4-3-4-5-5l-8-3h-2v2l4 2 4 1 4 2zM50 187h1v-2-3h13v-3l-12-1c-2-2 1-5-2-5l-1 1v12l1 1zM45 29h-1l-2 2-1 3v2c0 1 0 3 2 4 3 2 6-3 5-7 0-2-1-3-2-3l-1-1zm-3 7c-2-6 5-8 6-3 1 6-5 8-6 3zM51 132c-3-1-3 6 0 8l5 1h6l2-1v-2l-12-1-1-5zM51 144c-3-1-3 6 0 8l5 1h6l2-1v-2l-12-1-1-5z"/><path fill="#fff" d="M42 36l1-1h1l-1-1v-1h-1v3zM47 36v-3h-1v1l-1 1 1 1h1z"/></svg>
