<svg xmlns="http://www.w3.org/2000/svg" viewBox="0 0 21 141.6"><path fill="#fff" d="M19.8 136.3v-3.5h-16v-5.3H1v14.1h2.9v-5.3zM.6 18.3v-.8H21v.7zM8.1 3.4a5 5 0 011.4.7c.6.4 1.2.8 1.2 1.5s-.4.8-.4 1.5.4 1 .4 1.6-.6 1-1.2 1.5c-1.2.8-3.4 1.4-4.8.6a2.3 2.3 0 01-1.2-2c0-.6.4-1.2.4-1.6s-.5-1-.4-1.8a2.3 2.3 0 011-1.7 2.1 2.1 0 001.8 1A2 2 0 008 3.5zM2.7 6a2.1 2.1 0 00-1.5-.5 2 2 0 00.7 1.4 2 2 0 001.5.5A1.7 1.7 0 002.7 6zm16-5.2a.5.5 0 000 .1.4.4 0 00.2.4.7.7 0 00.4 0h1v.5h-1.9v-.3h.4a.7.7 0 01-.4-.2.6.6 0 01-.1-.4zm.5 1.5h.2v1.3a.6.6 0 00.5-.2.7.7 0 00.2-.4 1.3 1.3 0 00-.2-.5h.4a1.5 1.5 0 010 .6 1 1 0 01-.2.7 1 1 0 01-.7.3 1.1 1.1 0 01-.8-.3.8.8 0 01-.3-.7.7.7 0 01.3-.6 1.5 1.5 0 01.6-.2zm0 .4a.7.7 0 00-.4 0 .4.4 0 00-.2.4.4.4 0 00.2.4.6.6 0 00.3 0zm-1.8 1.8h3V5h-3zm0 1h3v.4h-3zm1.9.8h.1v1.3a.6.6 0 00.5-.2.5.5 0 00.2-.4 1.3 1.3 0 00-.2-.5l.4-.1a1.7 1.7 0 010 .7 1 1 0 01-.2.6 1 1 0 01-.7.3 1.1 1.1 0 01-.8-.2.8.8 0 01-.3-.7.7.7 0 01.3-.7 1 1 0 01.6-.1zm-.2.4a.7.7 0 00-.3.1.4.4 0 00-.2.3c0 .2 0 .3.2.4a.7.7 0 00.3 0zm.7 1.6a.6.6 0 01.4.2.9.9 0 01.2.6 1.1 1.1 0 01-.1.6l-.4-.1a1 1 0 00.2-.5c0-.2-.1-.4-.3-.4a.3.3 0 00-.2.1 1 1 0 00-.1.3c-.1.3-.3.5-.6.5a.6.6 0 01-.4-.2.8.8 0 01-.2-.5 1 1 0 01.1-.5h.3a.8.8 0 000 .5.4.4 0 000 .2.3.3 0 00.2.1.2.2 0 00.1 0 1 1 0 00.1-.4c.2-.3.4-.5.7-.5zm-.5 1.6h.1v1.4a.6.6 0 00.5-.2.7.7 0 00.2-.5 1.3 1.3 0 00-.2-.5h.4a1.7 1.7 0 010 .6 1 1 0 01-.2.7 1 1 0 01-.7.3 1.1 1.1 0 01-.8-.2.8.8 0 01-.3-.7.8.8 0 01.3-.7 1.1 1.1 0 01.6-.2zm-.2.5a.7.7 0 00-.3 0 .4.4 0 00-.2.4.4.4 0 00.2.4.6.6 0 00.3 0zm1.2 1.5v.4a4 4 0 01-.6.2.8.8 0 00-.4.2.5.5 0 00-.1.3v.3h1.2v.5h-2.8a5.1 5.1 0 010-.8 1.3 1.3 0 01.2-.8.7.7 0 01.5-.2.7.7 0 01.5.1.9.9 0 01.2.4.8.8 0 01.6-.4l.4-.1a1.3 1.3 0 00.4-.1zm-2 .5q-.4 0-.4.6a1.3 1.3 0 000 .3h1V13a.6.6 0 00-.2-.4.4.4 0 00-.4-.2zM16 0v.4h-1.1c-.4 0-.6.2-.6.4a.3.3 0 00.2.3.5.5 0 00.3.1H16v.5h-1.2a.6.6 0 00-.3 0 .3.3 0 00-.2.3.3.3 0 00.2.3.5.5 0 00.3.1H16v.4h-2v-.3h.3a.6.6 0 01-.3-.6.6.6 0 01.4-.6.8.8 0 01-.3-.2.7.7 0 01-.1-.5.6.6 0 01.2-.4 1 1 0 01.6-.2zm0 3.3v.4h-.3a.7.7 0 01.3.6.6.6 0 01-.1.5 1 1 0 01-.7.2H14v-.4h1.1c.4 0 .6-.1.6-.4a.4.4 0 00-.3-.4.4.4 0 00-.2 0H14v-.5h1.4zm-2.6 2.2a.3.3 0 01.2 0 .3.3 0 010 .3.3.3 0 010 .2.3.3 0 01-.4-.4.3.3 0 01.2-.1zm2.6 0V6h-2v-.5zm0 1V7H15c-.4 0-.6.1-.6.4a.3.3 0 00.2.2.5.5 0 00.3.1H16v.5h-1.2a.6.6 0 00-.3 0 .3.3 0 00-.2.3.4.4 0 00.2.3.5.5 0 00.3.1H16v.5h-2V9h.3a.7.7 0 01-.3-.7.5.5 0 01.4-.5.6.6 0 01-.3-.2.6.6 0 010-.8 1 1 0 01.8-.3zm-1.7 3.4a.8.8 0 00-.3.6.9.9 0 00.3.7 1.2 1.2 0 00.7.3 1 1 0 00.8-.3 1 1 0 00.3-.7 1.7 1.7 0 00-.2-.7h-.3a1.5 1.5 0 01.1.6.6.6 0 01-.1.4.6.6 0 01-.5.2V9.7H15a1.2 1.2 0 00-.6.2zm.5 1.1a.7.7 0 01-.3 0 .4.4 0 010-.8.6.6 0 01.3 0zm-.4.6a.5.5 0 000 .2.5.5 0 00.2.3.7.7 0 00.4.1h1v.5h-2v-.4h.4a.6.6 0 01-.3-.2.5.5 0 01-.1-.4zm-.3 1.4a.8.8 0 01.6.2 1.1 1.1 0 01.3.9 1.7 1.7 0 010 .2h1v.4h-2.7a3.1 3.1 0 010-.6 1.1 1.1 0 01.1-.8.7.7 0 01.7-.3zm0 .4a.5.5 0 00-.4.2.6.6 0 00-.2.4 1.3 1.3 0 000 .3h1a1 1 0 000-.2.7.7 0 00-.1-.5.5.5 0 00-.3-.2zm5.6 112.3v-3.4h-8a4.9 4.9 0 01-.6 0 2 2 0 01-.5-.2 3 3 0 01-1-.5 2.7 2.7 0 01-.6-1 2.9 2.9 0 01-.3-1.1 2.5 2.5 0 01.5-1.5 2.5 2.5 0 011.2-.8 5.6 5.6 0 011.7-.3h7.7v-3.4h-8a8.2 8.2 0 00-2.8.4 5 5 0 00-1.8 1 4.2 4.2 0 00-1 1.6 4.6 4.6 0 00-.3 1.7 5 5 0 00.1 1.2 4.8 4.8 0 00.5 1.2 4.6 4.6 0 00.7 1 4 4 0 00.8.7H0v3.5zM14 98.3a5.2 5.2 0 00-.6 0h-.8a9.6 9.6 0 00-1.8.1 7.3 7.3 0 00-1.8.6 5.3 5.3 0 00-1.5 1 5 5 0 00-1 1.8 6.2 6.2 0 00-.5 2.2 6.7 6.7 0 00.4 2.4 5.8 5.8 0 001.1 1.8 6.3 6.3 0 001.6 1.4 7.6 7.6 0 002 .8 9 9 0 002.2.3 7.5 7.5 0 003.6-.9 5.7 5.7 0 002.4-2.3 8 8 0 00.8-3.8 13.4 13.4 0 00-.2-2.7 9.8 9.8 0 00-.6-2l-2.4.5.3 1a10.3 10.3 0 01.3 1.3 12.5 12.5 0 010 1.5 5.7 5.7 0 01-.2 1.5 4 4 0 01-.6 1.3 3 3 0 01-1 1 3.6 3.6 0 01-1.7.3zm-2.4 9a4.2 4.2 0 01-1-.2 3.8 3.8 0 01-1.1-.6 3 3 0 01-.8-1 2.8 2.8 0 01-.4-1.3 2.7 2.7 0 01.4-1.5 2.5 2.5 0 01.8-.8 3.4 3.4 0 011.1-.4 4 4 0 011-.2zm8.2-21H6.3v3.4h13.6zM.6 88a2.1 2.1 0 00.2 1 1.7 1.7 0 00.7.7 2 2 0 001 .2 2 2 0 001-.2A1.8 1.8 0 004 89a2 2 0 00.3-1 2.1 2.1 0 00-.3-1 1.8 1.8 0 00-.7-.7 2 2 0 00-.9-.2 2.1 2.1 0 00-1 .2 1.7 1.7 0 00-.6.7 2.1 2.1 0 00-.2 1zm18.3-4.7a6.7 6.7 0 00.6-1.3 13.2 13.2 0 00.4-1.8 12.9 12.9 0 00.2-2 10 10 0 00-.5-3.1 6.3 6.3 0 00-1.2-2.2 5 5 0 00-1.8-1.3 5.4 5.4 0 00-2.2-.5 5 5 0 00-2.4.6 5.2 5.2 0 00-1.8 1.6A11 11 0 009 76a19 19 0 01-.9 2 3.6 3.6 0 01-1 1.2 2 2 0 01-1.2.3 2 2 0 01-1.1-.3 2.3 2.3 0 01-.8-1 4 4 0 01-.4-1.7 7.8 7.8 0 01.2-1.6 8.1 8.1 0 01.3-1.3 6.5 6.5 0 01.4-.9l-2.7-.8a7.5 7.5 0 00-.7 1.8 11.2 11.2 0 00-.3 2.7 9 9 0 00.4 2.7 6.2 6.2 0 001.1 2.1A5 5 0 004 82.5a5 5 0 002.1.5 4.5 4.5 0 002.4-.6 5.8 5.8 0 001.8-1.8 12.1 12.1 0 001.2-2.7 11.2 11.2 0 011-1.9 3.1 3.1 0 011-1 2.3 2.3 0 011.2-.4 2.4 2.4 0 011.3.4 2.6 2.6 0 01.9 1.1 5 5 0 01.3 1.9 9.5 9.5 0 01-.2 1.7 10 10 0 01-.4 1.6 8 8 0 01-.6 1.2zM3.7 67.8h2.5v1.9h2.6v-2H15a8.4 8.4 0 002.3-.2 3.5 3.5 0 001.5-.8 3.3 3.3 0 00.9-1.3 4.8 4.8 0 00.3-1.7 10.4 10.4 0 00-.2-1.4 5.3 5.3 0 00-.2-1H17a3.7 3.7 0 01.1.6v.8a1.8 1.8 0 01-.3 1 1.6 1.6 0 01-.8.5 4.7 4.7 0 01-1.4.2h-6V61H6.2v3.3H2.7zm2.2-15.2a7.7 7.7 0 00.5 2.8 6.2 6.2 0 003.7 3.7 8.5 8.5 0 003 .5A8 8 0 0016 59a6.1 6.1 0 003.6-3.6 7.3 7.3 0 00.4-2.7 7.8 7.8 0 00-.2-2 6.6 6.6 0 00-.8-2 6.1 6.1 0 00-1.4-1.5 6.7 6.7 0 00-2-1 8.4 8.4 0 00-2.7-.4 8.2 8.2 0 00-2.8.4A6.3 6.3 0 008 47.7a6.1 6.1 0 00-1.4 2.1 7.3 7.3 0 00-.5 2.8zm2.5 0a2.7 2.7 0 01.4-1.4 3.2 3.2 0 011-1 5.3 5.3 0 011.5-.6 7.3 7.3 0 011.6-.2 6.5 6.5 0 012.5.4A3.8 3.8 0 0117 51a2.7 2.7 0 01.6 1.7 2.8 2.8 0 01-.4 1.4 3.1 3.1 0 01-1 1 4.5 4.5 0 01-1.4.7 6.6 6.6 0 01-1.8.3 7.1 7.1 0 01-1.7-.2 5 5 0 01-1.5-.6 3.1 3.1 0 01-1-1 3 3 0 01-.4-1.6zm11.3-9.5v-3.5h-7.5a3.9 3.9 0 01-.5 0 3.4 3.4 0 01-1.4-.6 3 3 0 01-.9-1 3.2 3.2 0 01-.3-1.4 5 5 0 010-.6 3.5 3.5 0 010-.5H6v.8a3.5 3.5 0 00.2 1.5 4 4 0 001 1.3 4.6 4.6 0 001.6.9l-2.6.2v3l2-.1h2.4zM14 22a5.2 5.2 0 00-.6 0h-.8a9.6 9.6 0 00-1.8.1 7.7 7.7 0 00-1.8.6 5.5 5.5 0 00-1.5 1.1 4.8 4.8 0 00-1 1.7 6.1 6.1 0 00-.5 2.3 6.7 6.7 0 00.4 2.2 6 6 0 001.1 1.9A6.5 6.5 0 009 33.2a7.6 7.6 0 002 .8 9 9 0 002.2.3 7.6 7.6 0 003.6-.8 5.8 5.8 0 002.4-2.4 8 8 0 00.8-3.8 13.6 13.6 0 00-.2-2.6 9.9 9.9 0 00-.7-2.1l-2.3.5.3 1a10.3 10.3 0 01.2 1.3 12.7 12.7 0 01.1 1.4 5.7 5.7 0 01-.2 1.6 4.2 4.2 0 01-.6 1.3 3.1 3.1 0 01-1.1 1 3.6 3.6 0 01-1.6.3v-9zm-2.3 9a4.7 4.7 0 01-1.1-.3 4.1 4.1 0 01-1.1-.5 3 3 0 01-.8-1 2.8 2.8 0 01-.3-1.3 2.7 2.7 0 01.3-1.4 2.5 2.5 0 01.8-1 3.7 3.7 0 011.1-.3 4.3 4.3 0 011-.1z"/></svg>
