<svg xmlns="http://www.w3.org/2000/svg" overflow="visible" viewBox="0 0 30.5 30.5"><path fill="#fff" fill-rule="evenodd" d="M0 0v30.5h30.5V0H0zm13.7 20.4v2.5c0 .4-.2.3-.6.3h-3c-.1 0-.3 0-.3-.2v-9.3c0-.1 0-.2.2-.3h3.4c.2 0 .2 0 .3.2v6.8zm7 2.4c0 .3 0 .4-.3.4h-2.9c-.6 0-.5.1-.5-.9v-8.6c0-.5 0-.9-.1-1.3-.2-.7-.8-1.2-1.4-1.5-.4-.2-.7-.2-1.2-.2H7.1c-.2.1-.1.3-.1.6v11.5c0 .3.1.4-.3.4H3.5c-.5 0-.5-.1-.5-.8V8c0-.8-.1-.7.7-.7h11.5c1 0 1.6 0 2.5.3.4.2 1.1.6 1.4.9l.3.3c.1.2.2.2.3.4.6.8.8 1.7.8 2.8v10.8zm6.8-14.7v14.8c0 .2 0 .4-.2.4h-3.1c-.2 0-.4 0-.5-.2V7.7c0-.2 0-.4.2-.4H27c.6 0 .5 0 .5.8z" clip-rule="evenodd"/></svg>