<svg xmlns="http://www.w3.org/2000/svg" viewBox="0 0 227.4 43.3"><path fill="#fff" d="M21.7 0a21.6 21.6 0 1021.6 21.6A21.6 21.6 0 0021.7 0zm0 40A18.4 18.4 0 1140 21.6 18.3 18.3 0 0121.7 40zm0-33.9a15.7 15.7 0 00-14.3 9.2 15 15 0 0110.3 6.3c1-6.9 6.7-11 13-12.6l-.2-.1A15.7 15.7 0 0021.7 6zm-1 18.8c4.7-2.3 7.8-6.6 7.4-11.9a12.3 12.3 0 00-7.8 11.7V37h1.2A15.6 15.6 0 0033 32a14.8 14.8 0 01-12.3-7.2zM30.7 9c1 6.4-.4 13-5.8 16.5 2 2.3 6 4 10.2 3.5a15.3 15.3 0 002-7.5A15.5 15.5 0 0030.6 9zM6.6 18.2a12.9 12.9 0 00-.4 3.4 15.4 15.4 0 0011.2 14.8V30A12 12 0 006.6 18.2zm217.3 4.7a4.7 4.7 0 00-1.6-9.1h-8.6v15.7h3.2v-6.3h3.7l3.1 6.3h3.7zm-2.3-2.2h-4.8v-4.2h4.8a2.1 2.1 0 110 4.2zM177 24.2h-3.6a5.2 5.2 0 11-4.5-8 5.5 5.5 0 014.5 2.8h3.6v-.4a8.4 8.4 0 00-8-5.3 8.2 8.2 0 100 16.5 8.3 8.3 0 008-5.3zM59.8 20.5L56 13.7h-3.8l6 9.6v6h3.2v-6l5.8-9.7h-3.6zm15.7 4.8l-4-11.6h-3.4l5.6 15.7H77l5.7-15.7h-3.5zm38-.5a4.2 4.2 0 00-1.8-3.5 11.3 11.3 0 00-3.9-1.4c-3.4-.7-3.6-1-3.6-2 0-1.1.8-1.8 2.7-1.8s2.6.6 3 2h3.1c-.2-3-2.5-4.6-6-4.6s-5.8 1.8-5.8 4.7a3.7 3.7 0 001.6 3.2 17.4 17.4 0 004.3 1.5l.3.1.6.1a5.6 5.6 0 011.4.5c.8.4 1.1.9 1.1 1.5 0 1.3-1 2.1-3 2.1-2.2 0-3.4-.8-3.6-2.5h-3.2c.3 3.2 2.7 5.1 6.6 5.1 3.7 0 6.2-1.9 6.2-5zm76.4-4.5h-6.5v-6.6h-3.2v15.7h3.2V23h6.5v6.3h3.1V13.7H190zm8.1 9.2h11.5v-2.8h-8.3v-3.5h5.9v-2.7h-5.9v-4h8.3v-2.7h-11.4v15.7zm-48.6-16.1a8.3 8.3 0 00-8.5 8.3 8.4 8.4 0 108.5-8.3zm0 13.5a5.3 5.3 0 010-10.6 5.2 5.2 0 015 5.3 5.2 5.2 0 01-5 5.3zm-11.2-8.4a4.7 4.7 0 00-4.7-4.7h-8.6v15.7h3.2v-6.3h3.7l3.1 6.3h3.7l-3.4-6.6a4.8 4.8 0 003-4.4zm-5.3 2.2H128v-4.2h4.8a2.1 2.1 0 110 4.2zm-35.4 5.9h-8.2V23H95v-2.7h-5.8v-4h8.2v-2.7H86v15.7h11.5zm30 8.3l-3 8.2h1.8l.7-1.8h3l.7 1.8h1.9l-3.1-8.2zm0 5.1l1-2.9 1.1 2.9zm19 .1l-3.4-5.1h-1.7v8.3h1.7V38l3.4 5.1h1.7V35h-1.7zm-52.6 3h1.7V40H99v-1.5h-3.3v-2.1h4.2v-1.4H94l-.1 8.2zm21.5-5.7a2.5 2.5 0 00-2.5-2.5h-4.3V43h1.8V40h1.7l1.6 3.2h1.9l-1.9-3.4a2.4 2.4 0 001.7-2.3zm-2.8 1.1h-2.2v-2.2h2.3a1 1 0 011 1 1.2 1.2 0 01-1.1 1.2zm49.7-2.3a2.7 2.7 0 012.3 1.4h1.8l-.1-.1a4.4 4.4 0 10-4.1 5.8 4.4 4.4 0 004.1-2.8l.1-.2h-1.8a2.6 2.6 0 01-5-1.3 2.7 2.7 0 012.7-2.8zm13 7h5.8v-1.5H177v-1.8h3v-1.5h-3v-2.1h4.1v-1.4h-5.7z"/></svg>
