<svg xmlns="http://www.w3.org/2000/svg" viewBox="0 0 86 36.1"><path fill="#fff" d="M82.2 34.5L69.6.2V0h-.7l-2.5 6.9-4.7 12.8-.1.5-.5-.5a13 13 0 0 0-6-2.4c4.5-1.1 7.4-4.1 7.4-7.7 0-5.1-4.8-8.7-11.7-8.7H36.9v.7h3.8v25L31 .2h-.6l-2.5 6.9-10 27.5H7L26.3 1.1H2.1v10.8h.7v-.2c0-4.9 2.9-9.8 9.2-9.8h7.5L.5 34.8l-.5.7h26.8v-9.4h-.7v.2c0 4.4-2.6 7.3-7.4 8.1h-.1l3.9-10.8h11.2l3.9 10.9h-3.7v.7h15.5v-.7h-3.5V17.9h4.5c4.7 0 7.4 2 7.4 5.6v4.2l.1 1.4-1.9 5.4h-3.2v.7h6.7v-.7h-2.8l1.4-3.9a7.7 7.7 0 0 0 2.5 4.2l.2.1c1.1.7 2.4 1.2 4.1 1.2 2.2 0 3.5-.5 4.7-1.8l.1-.1-.4-.5-.1.1c-1 1-1.8 1.3-2.8 1.3-1.7 0-2.6-2.2-2.6-4.2v-4.3a7 7 0 0 0-.5-3H72l3.9 10.9h-3.8v.7H86v-.7h-3.8zM23.1 22.9l5.3-14.8.1.1 5.4 14.7H23.1zM46.3 17V1.7h3.3c4.7 0 7.2 2.8 7.2 8.1 0 5.6-1.3 7.3-6 7.3h-4.5V17zm17.1 5.9c-.4-.7-.7-1.4-1.3-2l.2-.5 4.4-12.2 5.4 14.7h-8.7z"/></svg>
