<svg xmlns="http://www.w3.org/2000/svg" viewBox="0 0 258.49 85.46"><g data-name="Layer 2"><g fill="#fff" data-name="Layer 1"><path d="M110.19 12.71c-.9-.8-3.9.8-5.4 1.9-1.1 1-.9 1.6-1.2 3.1-2.2 7.2-4.5 20.4-1.2 27.6 2.6 5.6 8.6 4.6 12.9 1.4a19.44 19.44 0 007.6-11.2c.5-2.3.5-6.3-.8-8.4-1.8-3-5.3-6.1-8.9-6.1-2.6 0-2.9.5-2.9.5a43.67 43.67 0 00.5-5c0-1.7.1-3.2-.6-3.8zm1 12.8c1.4-.5 3.9-.9 5.5.7 2.1 2.2 1.6 8.1-.4 10.1a3.85 3.85 0 01-5.9-.9c-.6-1.2-.3-5.8-.1-8 .1-1.3-.4-1.41.9-1.9zM86 45.61c-7-3.3-12.3 10.5-14.4 14.5a17.85 17.85 0 00-1 2.6l-3.7-5.2s-.9-4.1-3.9-2.7a7 7 0 00-3.3 2.5c-.1.3-.3.3-.4.9s-.7.5-.4.4a32.77 32.77 0 00-.8-9.5c-.8-3.1-1.6-6.5-3.2-9.3a3.72 3.72 0 00-1.1-1.3.66.66 0 01-.2-.7c.1-.4.9-.4 1.5-.8 4.7-2.8 10.5-6.5 12.2-7.8.6-.4.2-.4.9-.1 2.3.8 6 .9 7.2-1.3.2-.4.1-.8-.3-1.3s-1.9-.3-3-.2c-.4.1-.9.7-1.1.1s.6-.4 1-.7a5.26 5.26 0 002.2-2c.9-1.7-2.9-3.2-3.8-1.4l-1 2c-.2.4 0 1.1-.6 1s.1-.7.2-1.1c.4-1.3.9-3.4-.3-3.6-1.8-.3-2.8 1.3-3.1 2.9a10 10 0 000 3c.1.7.3.5-.5.7-2.3.5-10.5 2.5-12.3 3.1-1 .3-4.2 1.2-7.4 2.1a12.77 12.77 0 01-.5-2.8v-.9A26.6 26.6 0 0060.09 23a16.37 16.37 0 003.6-3.9c3.4-.4 1.4-7.8-3.3-6a4.8 4.8 0 00-2.1 1.3c-.9.3-1.8.6-2.6.9a23.93 23.93 0 00-6 5.2c.9-1.6.3-4.2-.8-4.7-.1 0-.2-.1-.3-.1a1.78 1.78 0 00-1.1-.8 11.63 11.63 0 00-1.8-.4c1.5-2.9 5.2-10.8 3.1-11.5-.6.4-3.7 2.9-4.4 5.6a28.89 28.89 0 00-.7 5.6 8.63 8.63 0 00-4.6.8c-.8-2.5-3.1-11.3-9.6-11.2.3 2 3.4 9.4 8.1 12.2a10.64 10.64 0 00-2.8 8c.4 2.4 2.6 4.4 6.2 5 .1.7.4 1.8.5 2.9a7.39 7.39 0 010 2.1c-8.9 2.7-11.3 6.1-17 13.3-1 1.2-.5.8-2 .9a23.48 23.48 0 01-2.6.1 3.59 3.59 0 00-3.9 3.4c.1.9 1.1 1.4 2.5.7 1.7-.9 1.6-.5 1.6-.5s-2.8 1.9-2.2 3.1c1.3 2.4 4 .2 4.9-1.7a2.36 2.36 0 00.9 2.6c1.4.9 2.8-.7 3-2.6a5.73 5.73 0 00-.4-2.8c-.3-1-.5-.6.3-1.2 1.7-1.1 6.3-4.2 8.8-5.5.5-.3.8-.8 1.2-.7s0 .9-.1 1.3l-3 17.4s-.5.2-4.1-.9-8.5 1.5-8.1 4.2a6.47 6.47 0 001.6 3.2c-4.5-.8-8.7-2.2-11.5-5.4-3.2-3.8-4.9-10-2.8-15.4.6-1.5-.3-1.8-1.7-1.1a13 13 0 00-4.2 4.2c-7.7 11 2.4 20.5 14.6 26-4.2 1.8-6.4 5-2.6 7.1 5.1 2.8 24.2 1.5 30.4 1.1 4.1-.3 7.4 1 7.5-4a3.77 3.77 0 00-1.3-3.1c-2.8-2.5-6.3-3.2-8.2-5-.9-.8 0-.7.4-.6 1.3.3 6.2 2 8.2 1.7 4.5-.7 11.5-11.7 12.9-7.5.9 3.1 1.7 10.6 5.6 10.8 1.6.1 2.9-.9 4-1.6 2.3-1.6 4.6-4.5 6.7-7.3C83.69 64.61 92 48.41 86 45.61zM160.29 20.31c-.8.1-2 1.5-2 1.5l-4.5 8.3s-.6 1-.7 0-2-5-2.2-5.9c-.4-1.5-2.1-3.4-3.6-3.4a2.74 2.74 0 00-2.4 1.5 7.92 7.92 0 00-1 2.1 113 113 0 00-1.9 13.9c-.1 1.7-.8 9.2 2.2 8.9.9-.1 2.7-.3 3.1-.9 1.3-2.1-.6-12.6.5-13.2.4-.2 1.1 3 1.5 4.2.4 1.4 2.8 6.1 4.7 3l2.7-6.5c.7-1-1.5 6.7-1.3 10.7 1.1 4.6 5.4 3.1 5.4 1.4 0-6.5 1.3-8.9 2.1-15 .2-2 1-7 0-8.7s-1.8-2-2.6-1.9zM248.89 68h-.7l-.1.1a.1.1 0 00-.1.1c-.1 0-.1.1-.1.2v.6h1.6v5.1a.75.75 0 00.1.5v.1h.7a.37.37 0 00.3-.1h.1v-5.5H252c.1 0 .2-.1.4-.3a.37.37 0 00.1-.3V68h-3.6zM258.29 70a1.93 1.93 0 00-.5-.9 1.79 1.79 0 00-.7-.5 2.92 2.92 0 00-.9-.2h-.4c-.1 0-.3.1-.4.1a.76.76 0 00-.5.2c-.2.1-.3.2-.5.3a.35.35 0 00-.4-.4c-.2.1-.3.2-.4.2a.35.35 0 00-.2.1c0 .1.1.2.1.4v8.3h.8a.44.44 0 00.3-.1c0-.1 0-.2.2-.1v-2.6a1.69 1.69 0 01.5.2 1.48 1.48 0 00.7.1 2 2 0 00.7-.1 5.74 5.74 0 00.7-.4 3.6 3.6 0 00.8-1.2 5.84 5.84 0 00.3-2.1 5.07 5.07 0 00-.2-1.3zm-1.3 2.7a1.88 1.88 0 01-.4.9 1.76 1.76 0 01-.5.4.9.9 0 01-.5.1.75.75 0 01-.5-.1 1.38 1.38 0 01-.4-.3v-3.9a1 1 0 01.5-.4 1.85 1.85 0 01.7-.2 1.23 1.23 0 011 .5 3.23 3.23 0 01.3 1.6 5.21 5.21 0 01-.19 1.41zM173.29 68.31a3.55 3.55 0 00-1 .2 1.56 1.56 0 00-.8.6 2.81 2.81 0 00-.5 1.1 8.81 8.81 0 00-.2 1.7 3.4 3.4 0 00.7 2.5 4.05 4.05 0 00.9.5 3.75 3.75 0 001 .1h.6c.2 0 .3-.1.4-.1s.3-.2.5-.3a.54.54 0 00.3-.4v-.6c-.2.2-.5.2-.7.3a2 2 0 01-.8.1 2.17 2.17 0 01-1-.2.85.85 0 01-.5-.3 1.63 1.63 0 01-.3-.6 2.22 2.22 0 01-.1-.9h1.6a2.49 2.49 0 01.8-.1 1.27 1.27 0 00.6-.1c.2-.1.3-.1.4-.2a.6.6 0 00.1-.4v-1a2.59 2.59 0 00-.6-1.4 2 2 0 00-1.4-.5zm1.1 2.2v.2c0 .1-.1.3-.1.4a.1.1 0 01-.1.1h-2.1a3.94 3.94 0 01.4-1.5c.2-.3.4-.5.7-.5h.1a1.14 1.14 0 01.8.3 1.22 1.22 0 01.3.9zM180.09 73.41l-.3-.6a2.09 2.09 0 01-.4-.6c-.1-.2-.3-.4-.4-.6a2.18 2.18 0 00-.4-.5 10.63 10.63 0 00.9-1.1c.3-.4.6-.8.8-1.1l.1-.1.1-.1c.1-.2.1-.2.1-.3s0-.2-.1-.2a.37.37 0 00-.3-.1h-.7a5.5 5.5 0 00-.7.9 8.65 8.65 0 01-.7 1c0 .1-.1.1-.1.2s-.1.1-.1.2-.1.1-.1.2v-2.2c0-.1-.1-.2-.1-.3V68H177a.35.35 0 00-.2.1h-.1v6.3c0 .1.1.1.1.2v.1h.7a.37.37 0 00.3-.1v-2.9c.1.1.2.1.2.2a.35.35 0 00.1.2 3.59 3.59 0 01.7 1 9.25 9.25 0 01.5 1c0 .1.1.2.1.3a.31.31 0 00.1.2l.2.2a.37.37 0 00.3.1h.4c.1-.1.1-.1.2-.1l.1-.1v-.3a1.38 1.38 0 01-.3-.4zM185.29 74a.35.35 0 01-.1-.2v-3.7a2.5 2.5 0 00-.3-1.3 1 1 0 00-1-.5h-.4a5 5 0 00-1.2.2 1.91 1.91 0 00-.8.4v.3a.37.37 0 01-.1.3.37.37 0 00.1.3.76.76 0 00.4-.1 2.54 2.54 0 00.7-.2 1.7 1.7 0 01.7-.1c.2 0 .4 0 .5.2a1.48 1.48 0 01.1.7v.8h-.8a2 2 0 00-.7.1 1.08 1.08 0 00-.7.3 1.7 1.7 0 00-.6.6 2.51 2.51 0 00-.2 1 2 2 0 00.1.8.92.92 0 00.4.6 2.19 2.19 0 00.5.3 1.27 1.27 0 00.6.1h.5a.9.9 0 00.5-.1l.2-.2.2-.2q0 .15.3.3c.2.1.3.2.5.2a.9.9 0 00.5-.1.77.77 0 00.3-.2v-.5c-.1.01-.2.01-.2-.1zm-1.2-1.3v.7c0 .1 0 .1-.1-.1v.1a1.38 1.38 0 01-.4.3 1.27 1.27 0 01-.6.1h-.1a.76.76 0 01-.5-.2 1.17 1.17 0 01-.2-.7.75.75 0 01.1-.5 1.38 1.38 0 01.3-.4c.1-.1.3-.1.4-.2s.3-.1.5-.1h.6zM187.29 68h-.7l-.1.1a.1.1 0 00-.1.1c-.1 0-.1.1-.1.2v.6h1.6v5.1a.75.75 0 00.1.5v.1h.7a.37.37 0 00.3-.1v-5.5h1.3c.2 0 .3-.1.5-.3a.37.37 0 00.1-.3V68h-3.6zM193.79 68.31a3.55 3.55 0 00-1 .2 1.56 1.56 0 00-.8.6 2.81 2.81 0 00-.5 1.1 8.81 8.81 0 00-.2 1.7 3.4 3.4 0 00.7 2.5 4.05 4.05 0 00.9.5 3.75 3.75 0 001 .1h.6c.2 0 .3-.1.4-.1s.3-.2.5-.3a.54.54 0 00.3-.4v-.6a.91.91 0 01-.7.3 2 2 0 01-.8.1 2.68 2.68 0 01-1-.2.85.85 0 01-.5-.3 1.63 1.63 0 01-.3-.6 2.22 2.22 0 01-.1-.9h1.6a2.49 2.49 0 01.8-.1 1.27 1.27 0 00.6-.1c.2-.1.3-.1.4-.2a.6.6 0 00.1-.4v-1a2.59 2.59 0 00-.6-1.4 2 2 0 00-1.4-.5zm1.2 2.2v.2c0 .1-.1.3-.1.4a.1.1 0 01-.1.1h-2.1a3.94 3.94 0 01.4-1.5c.2-.3.4-.5.7-.5h.1a1.33 1.33 0 01.8.3 1.22 1.22 0 01.3.9zM199.09 68.41h-.6a.37.37 0 00-.3.1v2.9a5.7 5.7 0 01-.1 1.3 2.15 2.15 0 01-.2 1q-.15.3-.3.3c-.1 0-.1 0 .1.1h-.8v.4q0 .15.3.3a1.27 1.27 0 00.6.1 1.09 1.09 0 00.9-.4 3.13 3.13 0 00.5-1 5.9 5.9 0 00.2-1.4 8.08 8.08 0 00.1-1.6v-1.3h2v5.4a.9.9 0 00.1.5v.1h.7a.37.37 0 00.3-.1v-6.7h-3.5zM206.89 70a1.48 1.48 0 00-.7-.1c-.2 0-.4 0-.3.2-.2.1-.3.1-.5.2v-1.6c0-.1-.1-.2-.1-.3v-.1h-.6c-.2 0-.3.1-.4.3V74a1.27 1.27 0 00.1.6c.2.1.4.1.6.2a1.48 1.48 0 00.7.1 1.7 1.7 0 00.7-.1l.6-.3c.1 0 .2-.2.3-.3a2.19 2.19 0 00.3-.5 6.37 6.37 0 00.2-.7 3.08 3.08 0 00.1-1 2.54 2.54 0 00-.5-1.6 1 1 0 00-.5-.4zm-.2 3.2a.85.85 0 01-.2.6l-.3.3a.6.6 0 01-.4.1 1.09 1.09 0 00-.5.1c-.1 0-.1-.1-.2-.1v-3.1a.76.76 0 01.4-.2.6.6 0 01.4-.1c.4 0 .6.1.7.3a2.68 2.68 0 01.2 1.1 3.08 3.08 0 01-.1 1.01zM212.69 68.11c-.1.1-.3.1-.3.2s-.2.4 0 .6v1.9h-2v-2.3c0-.1-.1-.2-.1-.3l-.1-.1h-.7a.37.37 0 00-.3.1v6.5h.7a.37.37 0 00.3-.1c0-.1.1-.2.1-.3v-2.6h2v2.4c0 .2.1.3.1.5v.1h.7a.37.37 0 00.3-.1v-6.5h-.7zM217.79 70a1.48 1.48 0 00-.7-.1c-.2 0-.4 0-.3.2-.2.1-.3.1-.5.2v-1.6c0-.1-.1-.2-.1-.3v-.1h-.6c-.2 0-.3.1-.4.3V74a1.27 1.27 0 00.1.6 1.42 1.42 0 00.6.2 1.48 1.48 0 00.7.1 1.7 1.7 0 00.7-.1l.6-.3c.1 0 .2-.2.3-.3a2.19 2.19 0 00.3-.5 6.37 6.37 0 00.2-.7 3.08 3.08 0 00.1-1 2.54 2.54 0 00-.5-1.6 1 1 0 00-.5-.4zm-.2 3.2a.85.85 0 01-.2.6l-.3.3a.6.6 0 01-.4.1.76.76 0 00-.4.1c-.2 0-.2-.1-.3-.1v-3.1a.76.76 0 01.4-.2.6.6 0 01.4-.1c.4 0 .6.1.7.3a2.68 2.68 0 01.2 1.1 3.08 3.08 0 01-.1 1.01zM219.39 68.31c-.1.1-.2.1-.3.3v6a.44.44 0 00.1.3h.7c.1 0 .2-.1.3-.2v-6.3c-.1-.1-.1-.1-.2-.1zM226.09 68.21h-.5a.6.6 0 00-.4.1 9.88 9.88 0 00-.9 1.5l-.3.5-.2.4-.3.6-.3.6-.3.6v-3.9c0-.1-.1-.2-.1-.3a.37.37 0 00-.3-.1h-.7v6.5h.1a.35.35 0 00.2.1.37.37 0 00.3.1h.6a4.35 4.35 0 00.4-.7 3 3 0 01.4-.8l.5-.9.4-.7c.1-.2.1-.3.2-.5s.1-.3.2-.5v3.7c0 .2.1.2.1.3s.2.2.3.2h.8v-6.2a.31.31 0 00.1-.2v-.3h-.1c-.1-.1-.1-.1-.2-.1zM222.89 66.81a1.92 1.92 0 001.2.4 2.1 2.1 0 001.1-.4 2.61 2.61 0 00.7-1.3.1.1 0 01-.1-.1l-.1-.1-.1-.1a.1.1 0 00-.1-.1c-.1 0-.2 0-.2.1a2.18 2.18 0 01-.5.8 1.14 1.14 0 01-.8.3 1 1 0 01-.8-.3 2.77 2.77 0 01-.5-.8c-.1-.1-.1-.1-.2-.1l-.1.1a.1.1 0 00-.1.1l-.1.1-.1.1a2.64 2.64 0 00.8 1.3zM235.69 73.91v-5.7h-.8a.35.35 0 00-.4.4v5.2h-2.3v-5.7h-.6c-.1 0-.2.1-.3.1a.35.35 0 00-.2.1H231v6.5h4.1a.65.65 0 00.2.5v.5a.37.37 0 00.1.3.85.85 0 00.6.2h.1l.1-.1c.1 0 .1 0 .1-.1v-1.8c0-.1-.1-.2-.2-.3s-.21-.1-.41-.1zM239.19 68.31a3.55 3.55 0 00-1 .2 1.56 1.56 0 00-.8.6 2.81 2.81 0 00-.5 1.1 8.81 8.81 0 00-.2 1.7 3.4 3.4 0 00.7 2.5 4.05 4.05 0 00.9.5 3.75 3.75 0 001 .1h.6c.2 0 .3-.1.4-.1s.3-.2.5-.3a.54.54 0 00.3-.4v-.6a1.08 1.08 0 01-.7.3 2 2 0 01-.8.1 2.4 2.4 0 01-1-.2.85.85 0 01-.5-.3 1.63 1.63 0 01-.3-.6 2.22 2.22 0 01-.1-.9h1.6a2.49 2.49 0 01.8-.1 1.27 1.27 0 00.6-.1c.2-.1.3-.1.4-.2a.6.6 0 00.1-.4v-1a2.59 2.59 0 00-.6-1.4 2 2 0 00-1.4-.5zm1.2 2.2v.2c0 .1-.1.3-.1.4a.1.1 0 01-.1.1h-2.1a3.94 3.94 0 01.4-1.5c.2-.3.4-.5.7-.5h.1a1.33 1.33 0 01.8.3 1.22 1.22 0 01.3.9zM246.09 68.11c-.1.1-.2.1-.3.2a.64.64 0 000 .6v1.9h-2v-2.3c0-.1-.1-.2-.1-.3v-.1H243a.37.37 0 00-.3.1v6.5h.7c.2 0 .2 0 .3-.1s.1-.2.1-.3v-2.6h2v2.4a.9.9 0 00.1.5v.1h.7a.37.37 0 00.3-.1v-6.5h-.8zM105 68.81c0-.2 0-.4-.2-.5a.73.73 0 00-.6-.2l-2.1.2v1.5a10.15 10.15 0 01-.4 3.4 1.7 1.7 0 01-.6.6h-.4v2.1l.6.1a.37.37 0 00.3-.1c.1 0 .1-.1.1-.2v-.9h3v1.1a.1.1 0 01.1.1h.2l.7-.1v-2.1h-.7zm-.9 5h-1.7c.1-.1.2-.1.2-.2s.1-.1.1-.2a5.41 5.41 0 00.4-1.5 9.72 9.72 0 00.1-1.8V69l.6-.1c.1 0 .1.1.2.1s.1.1.1.2zM109.39 68.31a3.55 3.55 0 00-1 .2 1.56 1.56 0 00-.8.6 2.81 2.81 0 00-.5 1.1 8.81 8.81 0 00-.2 1.7 3.4 3.4 0 00.7 2.5 4.05 4.05 0 00.9.5 3.75 3.75 0 001 .1h.6c.2 0 .3-.1.4-.1s.3-.2.5-.3a.54.54 0 00.3-.4v-.6a1.08 1.08 0 01-.7.3 2 2 0 01-.8.1 2.17 2.17 0 01-1-.2.85.85 0 01-.5-.3 1.63 1.63 0 01-.3-.6 2.22 2.22 0 01-.1-.9h1.6a2.49 2.49 0 01.8-.1 1.27 1.27 0 00.6-.1c.2-.1.3-.1.4-.2a.6.6 0 00.1-.4v-1a2.59 2.59 0 00-.6-1.4 2 2 0 00-1.4-.5zm1.1 2.2v.2c0 .1-.1.3-.1.4a.1.1 0 01-.1.1h-2.1a3.94 3.94 0 01.4-1.5c.2-.3.4-.5.7-.5h.1a1.14 1.14 0 01.8.3 1.22 1.22 0 01.3.9zM113.09 68h-.7l-.1.1a.1.1 0 00-.1.1v.8h1.6v5.1a.75.75 0 00.1.5v.1h.7a.37.37 0 00.3-.1v-5.5h1.3c.2 0 .3-.1.5-.3V68h-3.6zM121.19 68.31c-.1 0-.2-.1-.4-.1a1.27 1.27 0 00-.6-.1 3.08 3.08 0 00-1 .1 2 2 0 00-.9.5 2 2 0 00-.7 1 4.84 4.84 0 00-.3 1.8 7.18 7.18 0 00.2 1.7c.2.4.3.8.6 1a4.05 4.05 0 00.9.5 3.08 3.08 0 001 .1c.3 0 .5-.1.7-.1a.76.76 0 00.5-.2.22.22 0 00.2-.2.37.37 0 00.1-.3v-.2c-.1-.1-.1-.1-.1-.2-.1.1-.3.1-.5.2a1.85 1.85 0 01-1.2 0 .71.71 0 01-.6-.3c-.2-.1-.3-.4-.4-.7a4.12 4.12 0 01-.1-1.2 3 3 0 01.4-1.8 1.1 1.1 0 011-.6h.2a2.35 2.35 0 01.8.2h.5c0-.1.1-.2.1-.3v-.3a.44.44 0 01-.1-.3c-.1-.1-.2-.1-.3-.2zM126 73.41l-.3-.6-.3-.6c-.1-.2-.3-.4-.4-.6a2.18 2.18 0 00-.4-.5 10.63 10.63 0 00.9-1.1c.3-.4.6-.8.8-1.1l.1-.1.1-.1c.1-.2.1-.2.1-.3s0-.2-.1-.2a.37.37 0 00-.3-.1h-.7a5.5 5.5 0 00-.7.9 8.65 8.65 0 01-.7 1c0 .1-.1.1-.1.2s-.1.1-.1.2-.1.1-.1.2v-2.2c0-.1-.1-.2-.1-.3V68h-.7a.35.35 0 00-.2.1h-.1v6.3c0 .1.1.1.1.2v.1h.7a.37.37 0 00.3-.1v-2.9c.1.1.2.1.2.2a.35.35 0 00.1.2 3.59 3.59 0 01.7 1 9.25 9.25 0 01.5 1c0 .1.1.2.1.3a.31.31 0 00.1.2c0 .1.1.1.2.2a.37.37 0 00.3.1h.2c.1-.1.1-.1.2-.1l.1-.1c.1-.1.1-.1.1-.2v-.1a1.38 1.38 0 01-.3-.4zM131.59 68.21h-.3a.6.6 0 00-.4.1c-.2.4-.5.9-.8 1.5l-.3.5-.2.4-.3.6-.3.6-.3.6v-3.9c0-.1-.1-.2-.1-.3a.37.37 0 00-.3-.1h-.6v6.5h.1a.35.35 0 00.2.1.37.37 0 00.3.1h.5a4.35 4.35 0 00.4-.7 3 3 0 01.4-.8l.5-.9.4-.7c.1-.2.1-.3.2-.5s.1-.3.2-.5v3.7c0 .2.1.2.1.3s.2.2.3.2h.6v-6.2a.31.31 0 00.1-.2v-.3c-.1-.1-.1-.1-.2-.1zM138 68.21h-.5a.6.6 0 00-.4.1c-.3.4-.5.9-.9 1.5l-.3.5-.2.4-.3.6-.3.6-.3.6v-3.9c0-.1-.1-.2-.1-.3a.37.37 0 00-.3-.1h-.7v6.5h.1a.35.35 0 00.2.1.37.37 0 00.3.1h.6a4.35 4.35 0 00.4-.7 3 3 0 01.4-.8l.5-.9.4-.7c.1-.2.1-.3.2-.5s.1-.3.2-.5v3.7c0 .2.1.2.1.3s.2.2.3.2h.8v-6.2a.31.31 0 00.1-.2v-.3h-.1c-.11-.1-.11-.1-.2-.1zM134.79 66.81a1.92 1.92 0 001.2.4 2.1 2.1 0 001.1-.4 2.61 2.61 0 00.7-1.3.1.1 0 01-.1-.1l-.1-.1-.1-.1a.1.1 0 00-.1-.1c-.1 0-.2 0-.2.1a2.18 2.18 0 01-.5.8 1.14 1.14 0 01-.8.3 1 1 0 01-.8-.3 2.77 2.77 0 01-.5-.8c-.1-.1-.1-.1-.2-.1l-.1.1a.1.1 0 00-.1.1l-.1.1-.1.1a2.64 2.64 0 00.8 1.3zM147.29 69.11a1.79 1.79 0 00-.7-.5 2.92 2.92 0 00-.9-.2h-.4c-.1 0-.3.1-.4.1s-.3.1-.5.2-.3.2-.5.3a.35.35 0 00-.4-.4c-.2.1-.3.2-.4.2a.35.35 0 00-.2.1c0 .1.1.2.1.4v8.3h.8a.44.44 0 00.3-.1c0-.1 0-.2.2-.1v-2.6a1.69 1.69 0 01.5.2 1.48 1.48 0 00.7.1 2 2 0 00.7-.1 2.51 2.51 0 00.7-.4 3.6 3.6 0 00.8-1.2 5.84 5.84 0 00.3-2.1 5.07 5.07 0 00-.2-1.3 1.93 1.93 0 00-.5-.9zm-.8 3.6a1.88 1.88 0 01-.4.9 1.76 1.76 0 01-.5.4.9.9 0 01-.5.1 1.27 1.27 0 01-.6-.1 1.38 1.38 0 01-.4-.3v-3.9a1 1 0 01.5-.4 1.85 1.85 0 01.7-.2 1.23 1.23 0 011 .5 3.23 3.23 0 01.3 1.6 5.72 5.72 0 01-.1 1.4zM152.79 73.81v-3.7a2.5 2.5 0 00-.3-1.3 1 1 0 00-1-.5h-.4a5 5 0 00-1.2.2 1.91 1.91 0 00-.8.4v.6a.37.37 0 00.1.3.76.76 0 00.4-.1 2.54 2.54 0 00.7-.2 1.7 1.7 0 01.7-.1c.2 0 .4 0 .5.2a1.48 1.48 0 01.1.7v.8h-.8a2 2 0 00-.7.1 1.08 1.08 0 00-.7.3 1.7 1.7 0 00-.6.6 2.51 2.51 0 00-.2 1 2 2 0 00.1.8.92.92 0 00.4.6 2.19 2.19 0 00.5.3 1.27 1.27 0 00.6.1h.5a.9.9 0 00.5-.1l.2-.2.2-.2q0 .15.3.3c.2.1.3.2.5.2a.9.9 0 00.5-.1.77.77 0 00.3-.2v-.5c-.2 0-.2 0-.3-.1a.35.35 0 01-.1-.2zm-1.1-1.1v.7c0 .1 0 .1-.1-.1v.1a1.38 1.38 0 01-.4.3 1.27 1.27 0 01-.6.1h-.1a.76.76 0 01-.5-.2 1.17 1.17 0 01-.2-.7.75.75 0 01.1-.5 1.38 1.38 0 01.3-.4.52.52 0 01.4-.2c.2 0 .3-.1.5-.1h.6zM157.09 71a2.65 2.65 0 00.5-.6 1.88 1.88 0 00.2-.8c0-.2-.1-.3-.1-.5s-.2-.3-.3-.4a2.19 2.19 0 00-.5-.3c-.2 0-.4-.1-.6-.1a2.15 2.15 0 00-.8 0c-.2.1-.5.2-.7.3l-.2.2a.22.22 0 00-.2.2c0 .1 0 .2-.1 0 0 .1.1.2.1.3s.1.1.2.1.1-.1.2-.1a1.45 1.45 0 01.7-.2h.6c.1 0 .1.1.2.1a.35.35 0 01.1.2.45.45 0 010 .5 1.77 1.77 0 01-.7.7.76.76 0 01-.4.2.35.35 0 00-.1.2.37.37 0 00-.1.3v.4h1a.76.76 0 01.5.2.52.52 0 01.2.4 1.13 1.13 0 01-.1.8.9.9 0 01-.6.6 1.27 1.27 0 01-.6.1h-.4c0-.1-.1-.1-.2-.1s-.1-.1-.2-.1h-.2c-.1 0-.1 0-.1.1v.4a.37.37 0 00.1.3c.1.1.2.2.3.2s.2.1.3.1a1.27 1.27 0 00.6.1 3.55 3.55 0 001-.2.86.86 0 00.6-.3 1.21 1.21 0 00.5-.5.91.91 0 00.3-.7v-.8a1.14 1.14 0 00-.3-.8 1.79 1.79 0 00-.7-.5zM162.89 71.71l-.3-.3c-.1-.1-.2-.1-.3-.2a3.1 3.1 0 00.6-1.3 1.61 1.61 0 00-.5-1.1 2.46 2.46 0 00-1.5-.5h-1.5v6.5h.1a2 2 0 00.7.1h.7a2.07 2.07 0 002.3-2.2 1.08 1.08 0 00-.1-.6c-.09-.11-.09-.3-.2-.4zm-2.4-2.8h.4a1.42 1.42 0 01.6.2.6.6 0 01.3.6v.2a1.45 1.45 0 01-.2.7l-.3.3h-.8zm1.5 3.8a1.61 1.61 0 01-.3 1.1 1.14 1.14 0 01-.8.3h-.6v-2.5h.5a1.88 1.88 0 01.8.2.72.72 0 01.4.7zm.24-1.54s-.04-.01 0 0zM166.19 68.41h-.6a.37.37 0 00-.3.1v2.9a5.7 5.7 0 01-.1 1.3 2.15 2.15 0 01-.2 1q-.15.3-.3.3s-.1 0 0 .1h-.8v.4q0 .15.3.3a1.27 1.27 0 00.6.1 1.09 1.09 0 00.9-.4 3.13 3.13 0 00.5-1c.1-.4.1-.9.2-1.4a8.08 8.08 0 00.1-1.6v-1.3h2v5.4c0 .2.1.3.1.5v.1h.7a.37.37 0 00.3-.1v-6.7h-3.4zM256 37.81c-.7 0-4.2 2.2-6 3.2-.2.1-1.3.7-1.4.8s-.4-.1-.4-.6c-.1-2.1 5.3-11.5 6-15.1a11.81 11.81 0 00.3-4.3c-.9-4.1-5.3-4-8.3-2.5-1.2.6-6.4 4.7-5.8 6.7a2.84 2.84 0 002.5 2.1c.8 0 2.9-1.6 4-2.4s3.1-2 2.2-.6l-1.8 2.7c-3.6 5.3-7.7 14.3-7.8 20.9 0 .9.5 3.3 2.7 3.1a11.11 11.11 0 004.7-2c3.6-2.5 7.7-6.5 9.9-7.7 3.49-1.9.69-4.3-.8-4.3zM235.49 43.21c-.6-5.9 2.8-18.2 2.8-22.9 0-2.1-1.2-2.6-2.4-2.4-1.6.3-1.3.6-1.7 2.3-.6 2.4-1.6 6.5-1.9 8.1-.2 1.2-.3 2-.5 3.1-.6-.6-3.3-.3-4.2 0a45.17 45.17 0 00-1.1-10.3 4.19 4.19 0 00-1.1-2.2 2.78 2.78 0 00-2.2-1c-1.7.6-1.2 3.1-1.2 4.4 0 3.6 0 8.6-.2 11.2-.2 3.3-3 13.8 0 15.1 4.3 2 5.2-9.6 5.6-12.4.1-.7-.2-1.1.3-1.2 0 0 2.9.1 3.3.2s-.2 1-.2 1c-1 3.8-1.8 8.8.1 12 1.5 1.7 5.11-.21 4.6-5zM217.59 38.61a30.54 30.54 0 00-.3-5.4 25.33 25.33 0 00-1.5-5.5 27.69 27.69 0 00-4.7-8.6c-2-1.5-3.9-1.1-4 .5.4.7-4.3 10.7-5 13s-2.6 13.4 1 14.2c1.2.2 3.2-.8 3.4-1.5a34.9 34.9 0 00.8-6.6c.9-.3 2.1-.7 2.8-.9a18 18 0 002.1-.8c.1 3.4.2 5.6 1 6s4.4-1.2 4.4-4.4zm-9.7-3.9l.3-1.2c.5-1.7 1.7-3.6 2.5-3.8 0 0 .8 0 .8.5.1.7.3 1.9.4 3.3-1 .2-2.8.8-4 1.2zM172.89 38l1.5-1 2.3-1.8c3.6-2.8 5.6-6.3 5.6-10.9 0-1.8-1.5-4.1-2.9-5.3-3-2.4-7-.4-8.9 2.3a28.91 28.91 0 00-2.6 5c-2.3 4.9-5.2 14.9-2.1 20 1.7 2.7 3.2 3.9 6.9 3 2.4-.6 4.2-2.5 3-4.2-.6-.8-2.7 1.5-4.1-.8a7.29 7.29 0 010-5.8zM174 28c.5-1.2 2.4-4.4 3.8-3.1 1 .9.1 2.7.1 2.7-.6 1.1-4.3 4.6-5.4 4.6-.01.01 1.09-3.39 1.5-4.2zM188.19 59.21c-.3-2.2-1.5-4.4-1.6-8.2a6.14 6.14 0 01.3-2.6c.9-1.3 1.6-.8 2.7-1.1 5-1.1 9-8.4 9.8-14.7.5-3.9.3-7.4-2.2-10.6-1.5-1.9-5.6-3.6-8.1-2a1.51 1.51 0 00-1.5-.2 3.45 3.45 0 00-2 2.1c-.2.9-2 8.1-2 8.1-1.2 5.2-4.3 19.2-2.6 24.5.9 2.7 2 4.7 4.8 5.9a1.72 1.72 0 002.4-1.2zm2.5-31.7c.1-.8 0-1.9.6-2.4 1.4-1.3 2.7-.4 3.6 1.5a5.23 5.23 0 01.5 2.5c0 3-1.9 9.2-4.2 11.1a21.19 21.19 0 01-2 1.3c-.8.4-1.2.2-1.2.2 1.01-5 2.01-9.4 2.7-14.2zM89 15.21c-3.1 2.2-10.6 6.5-11.7 4.8-1.9.4-1 2.8 1.7 2 1-.2 12.89-6.1 10-6.8zM90.59 10.41c-2.3.6-6.8 2.2-7.5 1.2-1.2.3-.6 1.7 1 1.2.7-.1 8.3-2 6.5-2.4zM89.89 12.61c-3.4 1.2-8.8 4.3-9.9 2.9-1.7.5-.7 2.6 1.7 1.7.9-.3 10.9-4.21 8.2-4.6z"/><path d="M122 8.31c-.9 1.1-5.1 5.1-5.1 5.1-.5.6-4.7 4.6.8 2.7 4.4-1.5 9.7-5.9 12.9-9.7 1-1.1 1.8-2 1.8-3.6a2.57 2.57 0 00-.7-1.8c-1-.9-3.2-1.2-5.8-.9a129.64 129.64 0 00-14.2 2.8c-2.5.7-14.4 4.3-16.7 5.9a8.49 8.49 0 00-2.4 2c-1 1.4 1.3 1.6 3.8 1 7.2-1.5 16.3-5.3 23.6-5.7 1.79-.11 2.89 1.2 2 2.2zM137.39 22.31l-4.6 13.9c-.1.2-.9-1.1-.9-1.3-.9-2.6-1.1-10.3-1.1-13.2s-1.9-3.8-2.8-3c-2.6 2.3-2.4 2.3-2.4 5.9 0 2.7.6 13.6 1.6 15.5.2.3.6 1 1 1.6a3.2 3.2 0 01.8 1.7c.2 3.3-10.3 12.6-13.5 14.9-.6 1.8 4.1 2.3 5.3 2.1 5.2-.6 14.7-15.3 16.2-19.2 2.6-6.9 4.2-10.4 4.2-17.3a5.15 5.15 0 00-1-2.6c-.9-1.1-2.8 1-2.8 1z"/></g></g></svg>
