<svg xmlns="http://www.w3.org/2000/svg" viewBox="0 0 285.3 349.8"><g fill="#fff">
  <path d="M44.5 265.2c.3-1.6.4-3.2.8-4.7.8-3.3 1.6-6.6 2.6-9.9a60.8 60.8 0 0113-22.4 59.2 59.2 0 0139-19.8c3.6-.2 7.2-.4 10.7-.2a61 61 0 0124.4 7.3c3.1 1.8 6 3.9 8.9 6 1.8 1.3 3.4 3 5 4.5.5.4.8.5 1.5.3 5.3-2 10.5-4.1 15.9-6 4-1.4 8-2.9 12.1-4a325 325 0 0117-4.3 53 53 0 0113.7-1.2c2.8.1 5.5.5 8 1.9 2.6 1.4 4 3.6 4.1 6.6.2 3.8-1.2 7.1-3 10.2a63 63 0 01-5.5 8c-2 2.5-4.3 4.8-6.5 7.1-4.4 4.5-9.2 8.4-14.3 12-4 2.8-8.1 5.6-12.5 7.8l-8.7 4.2-.8.1 11.3-8.3c2.1-1.6 4-3.3 6-5 1.4-1.2 2.8-2.3 4.1-3.6 3-3.3 6.2-6.5 7.7-10.8a9 9 0 00-.1-7c-.9-1.8-2.5-2.7-4.2-3.5a21.9 21.9 0 00-8.7-1.8h-5.7c-2.1.1-4.2.3-6.2.8a475 475 0 00-11.5 2.6c-2.2.5-4.3 1.2-6.6 1.9a70 70 0 0112.2 33.7l-.3.1-.6-1.6c-2-6.4-5.3-12.1-9.3-17.4a69.9 69.9 0 00-22.2-19 62 62 0 00-30.7-7.4c-2.8.2-5.6.6-8.3.9a62.3 62.3 0 00-27.1 11.6c-2.3 1.8-4.6 3.6-6.8 5.6-5.3 4.6-9.5 10-13 16-1.6 2.8-2.9 5.7-4.3 8.5l-.5.6-.6-.4zM46.7 295.2l3.2 6.9c1.8 3.5 4 6.9 6.6 9.9 1.8 2 3.6 4.1 5.5 5.9 2.8 2.7 5.9 5 9.1 7.2.4.3.9.3 1.4.1 5.2-2 10.4-3.7 15.5-5.8 5.6-2.3 11.2-4.8 16.8-7.3l7.5-3.5c3.7-1.8 7.5-3.6 11.1-5.5 5.2-2.7 10.2-5.6 15.4-8.4l4.1-2.4h.3l.2.2-16.1 12.3a215.5 215.5 0 01-21.9 13.9 588 588 0 01-17.6 9.2 320 320 0 01-53.1 19.3c-3.5.9-7.2 1.4-10.7 2.1-3.6.7-7.2.5-10.8.4-2.9-.1-5.8-.8-8-2.7a7.8 7.8 0 01-2.6-7.3c.8-5.6 3.8-10.1 7-14.5s7.1-8.2 11.1-12c2.4-2.3 5.1-4.2 7.7-6.3a104.7 104.7 0 0118.3-11.7zm15 33.3a70.7 70.7 0 01-15.1-31.1l-5.7 4.4-4.5 3.7a36.5 36.5 0 00-7.3 7.4 19.4 19.4 0 00-4.7 9.1c-.4 2.3.6 5.6 2.8 7 3.2 2.1 6.7 2.9 10.4 3 3.3.1 6.6-.1 9.9-.5 3.3-.4 6.6-1.2 9.9-1.9 1.3-.2 2.7-.6 4.3-1.1zM169.4 291c-.5 3.2-1 6.4-1.7 9.5a69.3 69.3 0 01-17.5 31.8 69.3 69.3 0 01-11.4 8.8 52.4 52.4 0 01-20.6 7.6c-2.2.4-4.5.6-6.7.7-1.8.1-3.6.3-5.3.2l-8.5-.9a61.4 61.4 0 01-24.8-10.2l-.9-.7 6-2.6 5.8-2.6c.8-.4 1.5-.5 2.4-.2a59.2 59.2 0 0022.6 3.1c2.3-.1 4.6-.6 6.9-.9a65.6 65.6 0 0023.7-9.3c2.5-1.6 5.1-3.3 7.5-5.1a68.7 68.7 0 0018.8-23c.9-1.8 1.6-3.8 2.4-5.6.1-.3.3-.9 1.3-.6z"/><path d="M80.6 268.3a246 246 0 0135-24.8c2.5-1.5 5.1-2.8 7.7-4.2 3.7-1.9 7.5-3.8 11.1-5.8.9-.5 1.6-.4 2.3.1l5.4 3.9 1.1.8a439.1 439.1 0 00-62.6 30zM49.3 283.2l3.7-.7.1 1.8h11.5v-3.4h-9.1c-1 0-2.1-.1-3.1-.3-1.4-.2-2.3-1.1-2.3-2.5-.1-1.6.1-3.2.2-4.7.1-1.6 1.5-2.4 2.8-2.4h12.1c2 .1 3.2.9 3 4.1l-3.4.8-.1-1.8H54v3.4h10.5l2.1.3c1.1.3 1.7 1.2 1.8 2.3.1 1.7.2 3.5-.1 5.2-.3 1.9-1.1 2.4-3 2.4H51.8c-1.5-.3-2.2-1.4-2.4-3.2l-.1-1.3zM112.6 281.7l7 5.7-.1.2h-5.2c-.6 0-1.2-.6-1.6-1a97.8 97.8 0 01-4.7-4.4c-.5-.5-1-.8-1.8-.7h-2.5v6.1h-3.9v-16.5h15c2.1 0 3.5 1.1 3.3 3.3v4.2c0 1.8-1 2.8-2.8 2.9h-2.5c-.2 0-.2.1-.2.2zm-8.9-7.7v4.4h7.8c3.1.1 2.8-.5 2.8-3 0-1-.4-1.4-1.5-1.4h-9.1zM204.5 287.6v-16.7h12c2 0 3.8.6 5.5 1.6a6.4 6.4 0 012.9 4.5c.2 1.5.1 3.1-.1 4.6-.4 2.7-2.2 4.3-4.7 5.1-1.4.5-2.8.7-4.3.7-3.8.2-7.5.2-11.3.2zm4-3.2h7.6c1.8-.1 3.7-.7 4.4-2.8.4-1.2.6-2.4.3-3.7-.4-1.7-1.1-3.1-3-3.4-1.4-.3-2.9-.4-4.3-.5h-5v10.4zM196.6 287.6h-2.7c-.3 0-.6-.3-.9-.5l-7.7-6.3-3.5-3-1.5-1.1v10.8h-3.6v-16.6c.8 0 1.7-.2 2.5.1.7.2 1.2.8 1.8 1.2l8.4 6.7 3.4 2.9V271h3.7l.1 16.6zM75.7 287.6v-16.5h17.2v2.9h-13v3.4h7.5v3h-7.5v4h13.2v3.2H75.7zM158.3 271h2.7c.9-.1 1.4.3 1.8 1.1l3.2 5.5 5.1 8.9.6 1.2h-3.5c-.8.1-1.2-.3-1.6-.9l-1.2-2.2c-.2-.3-.6-.5-.9-.5h-9c-.7 0-1 .4-1.3.9l-1.5 2.7h-4.1a1013 1013 0 009.7-16.7zm1.8 3.3l-3.6 6.7h7.2a219 219 0 00-3.6-6.7zM45.1 287.6h-4.6l-2-3.6h-9.9c-.3 0-.7.3-.9.6l-1.3 2.3c-.2.5-.5.7-1.1.7h-3.4l1.2-2.2 6.3-10.9 1.5-2.7c.3-.6.7-.8 1.4-.8 3.2 0 3.2 0 4.9 3l7.9 13.6zm-8.2-6.6l-3.6-6.7-3.5 6.7h7.1zM126.6 267.4h4.6v16.2H146v3.9h-19.4v-20.1zM4.6 283.7h14.6v3.9H.1v-20.1h4.6l-.1 16.2z"/>
</g></svg>
