<svg xmlns="http://www.w3.org/2000/svg" viewBox="0 0 512 512"><path d="M144.1 53.6a54.6 54.6 0 00-77.7 0 54.6 54.6 0 000 77.7 54.8 54.8 0 0077.7 0 55 55 0 000-77.7zm-10.8 67a39.7 39.7 0 01-56-56.2 39.4 39.4 0 0156 0 39.7 39.7 0 010 56.1z"/><path d="M341.3 158a92 92 0 0065.4 27 92.6 92.6 0 10-50.3-170.2 7.7 7.7 0 108.4 12.9 77.2 77.2 0 11-29.3 94.8 7.6 7.6 0 00-13.6-1L295 166.7a53.1 53.1 0 00-23.2-14.6 32037.2 32037.2 0 0037.7-54.4l8-11.6 24.6-34.9a7.6 7.6 0 00-12.4-9L305 77.5 297 89c-8.8 12.6-18 25.7-26.4 38L256 148a23641.5 23641.5 0 01-41-59l-8-11.6C178.8 36.9 173 29.3 170.7 27 153.3 9.6 130 .1 105.3.1s-48 9.5-65.4 27a92.6 92.6 0 10144.1 114l23.1 38.9-73.8 105.7a326.6 326.6 0 00-57 219.4l7.5-.7L90 509l87.7-115.5a7.6 7.6 0 10-12.2-9.3L90 483.6a311.3 311.3 0 0155.8-189l57.8-83a53 53 0 0010.1 23.3l32.6 43-59.3 78a7.6 7.6 0 1012.2 9.3l56.7-74.7L422 509a7.7 7.7 0 0013.8-4 326.5 326.5 0 00-57.1-219.3L304.9 180l23.1-38.8a92 92 0 0013.3 16.8zM190 121.5a7.6 7.6 0 00-13.6 1 76.8 76.8 0 01-71.2 47.3A77.3 77.3 0 11159.9 38c1.6 1.5 8.9 11.2 34.6 48.1l8 11.6 25.6 36.9 12.1 17.5a53.1 53.1 0 00-23.1 14.7l-27-45.3zm176 173a311.2 311.2 0 0155.8 189L226 225.5a37.7 37.7 0 0123.5-60l.2.3.5-.4a39 39 0 0111.6 0l.5.4.2-.3a37.2 37.2 0 0124.6 15.6l79 113.3z"/><path d="M445.6 53.6a54.6 54.6 0 00-77.7 0 55 55 0 1077.7 0zm-10.8 67a39.7 39.7 0 11-56.1-56.3 39.7 39.7 0 0156 56.2zM255.8 177.6a25.4 25.4 0 100 50.9 25.4 25.4 0 000-51zm0 35.5a10.1 10.1 0 110-20.3 10.1 10.1 0 010 20.3z"/></svg>
