<svg xmlns="http://www.w3.org/2000/svg" viewBox="0 0 512 512"><path d="M499.1 186.2L473.3 164a7.6 7.6 0 1 0-10 11.6l25.8 22.3a22 22 0 0 1 2.3 31L324 422.5a7.7 7.7 0 0 0 11.6 10l167.3-193.7a37.4 37.4 0 0 0-3.8-52.6zM453.7 147L334.6 44a37 37 0 0 0-52.7 3.8L270.6 61A7.7 7.7 0 1 0 282 71l11.4-13.2a21.9 21.9 0 0 1 31-2.2l119.2 103a7.6 7.6 0 0 0 10.8-.8c2.8-3.2 2.4-8-.8-10.8z"/><path d="M381.1 120L174.9 50.8a37.4 37.4 0 0 0-47.2 23.5l-2.8 8.1a7.7 7.7 0 0 0 14.6 4.9l2.7-8.1A22 22 0 0 1 170 65.3l206.2 69.2a22 22 0 0 1 13.9 27.8l-96 286a7.7 7.7 0 0 0 14.6 5l96-286.1c6.5-19.5-4-40.7-23.6-47.2z"/><path d="M254.8 100.8H37.3A37.4 37.4 0 0 0 0 138v301.7A37.4 37.4 0 0 0 37.3 477h217.5a37.4 37.4 0 0 0 37.3-37.3V138a37.4 37.4 0 0 0-37.3-37.3zm22 339a22 22 0 0 1-22 22H37.3a22 22 0 0 1-22-22V138a22 22 0 0 1 22-22h217.5a22 22 0 0 1 22 22v301.7z"/><path d="M258.8 312H33.3a7.7 7.7 0 0 0 0 15.3h225.5a7.7 7.7 0 1 0 0-15.3zM223.1 355.7h-94.7a7.7 7.7 0 0 0 0 15.3H223a7.7 7.7 0 0 0 0-15.3zM102.8 355.7H69a7.7 7.7 0 0 0 0 15.3h33.8a7.7 7.7 0 0 0 0-15.3zM223.1 385h-154a7.7 7.7 0 0 0 0 15.3h154a7.7 7.7 0 0 0 0-15.3zM223.1 414.2h-154a7.7 7.7 0 0 0 0 15.3h154a7.7 7.7 0 0 0 0-15.3zM230.2 189.6a7.6 7.6 0 0 0-6.2-5.3l-49.1-7-22-44.6a7.7 7.7 0 0 0-13.7 0l-22 44.5-49 7.1a7.6 7.6 0 0 0-4.3 13L99.4 232 91 281a7.7 7.7 0 0 0 11.1 8l44-23 43.9 23a7.7 7.7 0 0 0 11-8l-8.3-49 35.5-34.6c2.1-2 2.9-5 2-7.8zm-51 34.3a7.7 7.7 0 0 0-2.3 6.8l6.5 37.5-33.8-17.7a7.7 7.7 0 0 0-7.1 0l-33.8 17.7 6.5-37.5c.4-2.5-.4-5-2.2-6.8l-27.3-26.6 37.7-5.5c2.5-.4 4.7-2 5.8-4.2l16.9-34.2 16.8 34.2a7.7 7.7 0 0 0 5.8 4.2l37.7 5.5-27.3 26.6z"/></svg>