<svg xmlns="http://www.w3.org/2000/svg" viewBox="0 0 201.4 201.4"><path d="M129.4 24.9a29.1 29.1 0 0 0-52.1-13 3.4 3.4 0 1 0 5.5 4 22.3 22.3 0 0 1 39.9 10 3.4 3.4 0 0 0 6.7-1zM178.7 63.1l-10.2-17c-.6-1.1-1.8-1.7-3-1.7h-9.8a3.4 3.4 0 0 0 0 6.8h8l6 10.2h-138l6-10.2h3.7a3.4 3.4 0 0 0 0-6.8h-5.6c-1.2 0-2.3.6-2.9 1.6L22.7 63.1a3.4 3.4 0 0 0 2.9 5.2h150.2a3.4 3.4 0 0 0 3-5.2z"/><path d="M161.7 31.6a3.4 3.4 0 0 0-2.1-1.5L113 19.2a3.4 3.4 0 0 0-4 2.6l-3.6 15a3.4 3.4 0 1 0 6.7 1.5l2.7-11.7 39.9 9.4-6.3 26.8a3.4 3.4 0 1 0 6.7 1.5l7-30.1c.2-.9 0-1.8-.4-2.6zM102.5 39.7l-3.1-26.3a3.4 3.4 0 0 0-3.8-3l-57 6.7c-2 .3-3.3 2-3 3.8l5.1 44a3.4 3.4 0 1 0 6.8-.9l-4.8-40.5 50.3-6 2.7 23a3.4 3.4 0 0 0 6.8-.8z"/><path d="M129.5 63.6l-6.8-28.2a3.4 3.4 0 0 0-4.1-2.5L63.6 46c-1.8.4-3 2.3-2.5 4.1l3.4 14a3.4 3.4 0 1 0 6.6-1.5l-2.6-10.8L117 40.3l6 24.9a3.4 3.4 0 1 0 6.6-1.6z"/><path d="M179.2 64.7c-.1-1.8-1.6-3.3-3.4-3.3H25.6a3.4 3.4 0 0 0-3.4 3.3l-6.8 133.1a3.4 3.4 0 0 0 3.4 3.6h163.8a3.4 3.4 0 0 0 3.4-3.6l-6.8-133.1zM22.4 194.6l6.4-126.3h143.7l6.5 126.3H22.4z"/><path d="M126.3 75a10.3 10.3 0 1 0 0 20.6 10.3 10.3 0 0 0 0-20.5zm0 13.7a3.4 3.4 0 1 1 0-6.8 3.4 3.4 0 0 1 0 6.8zM75 75a10.3 10.3 0 1 0 .1 20.6 10.3 10.3 0 0 0 0-20.5zm0 13.7a3.4 3.4 0 1 1 .1-6.8 3.4 3.4 0 0 1 0 6.8z"/><path d="M126.3 85.3h-.3a3.4 3.4 0 0 0-3.1 4.8v17.4a22.2 22.2 0 0 1-44.4 0V88.7a3.4 3.4 0 0 0-6.8 0v18.8a29 29 0 0 0 58 0V88.7c0-1.8-1.5-3.4-3.4-3.4z"/></svg>