<svg xmlns="http://www.w3.org/2000/svg" viewBox="0 0 187.73 187.73"><path d="M93.87 0C43.05 0 1.7 41.34 1.7 92.16a92.4 92.4 0 0 0 20.33 57.75 3.41 3.41 0 1 0 5.32-4.28A84.4 84.4 0 0 1 8.53 92.16c0-47.05 38.28-85.33 85.34-85.33S179.2 45.1 179.2 92.16s-38.28 85.33-85.33 85.33a85.43 85.43 0 0 1-40.68-10.3 3.42 3.42 0 0 0-3.25 6 92.28 92.28 0 0 0 43.93 11.13c50.81 0 92.16-41.35 92.16-92.16S144.68 0 93.87 0z"/><path d="M79.98 159.2a3.41 3.41 0 0 0-4.42-1.95l-54.87 21.33 11.58-37.63a3.41 3.41 0 1 0-6.52-2L12.1 183.31a3.41 3.41 0 0 0 4.5 4.18l61.44-23.89a3.41 3.41 0 0 0 1.94-4.42zM63.94 61.44a19.71 19.71 0 0 0-19.69 19.69 3.41 3.41 0 0 0 6.83 0c0-7.1 5.77-12.86 12.86-12.86a12.88 12.88 0 0 1 12.84 13.49 3.41 3.41 0 1 0 6.82.32 19.7 19.7 0 0 0-19.66-20.64zM125.38 61.44a19.71 19.71 0 0 0-19.69 19.69 3.41 3.41 0 0 0 6.83 0c0-7.1 5.77-12.86 12.86-12.86a12.88 12.88 0 0 1 12.84 13.49 3.41 3.41 0 1 0 6.82.32 19.7 19.7 0 0 0-19.66-20.64zM138.24 98.93H49.49a3.47 3.47 0 0 0-3.47 3.47c0 26.38 21.46 47.85 47.85 47.85s47.84-21.47 47.84-47.85a3.47 3.47 0 0 0-3.47-3.47zM93.87 143.3a40.95 40.95 0 0 1-40.76-37.43h81.51a40.96 40.96 0 0 1-40.75 37.43z"/></svg>