<svg xmlns="http://www.w3.org/2000/svg" viewBox="0 0 512 512"><path d="M455 375a56 56 0 0 0-47-29 180 180 0 0 0-1-36c28-4 49-27 49-55a56 56 0 0 0-66-54 131 131 0 0 0 6-84c23-10 38-31 38-56 0-34-29-61-64-61-21 0-41 10-52 27a147 147 0 0 0-119 0 64 64 0 0 0-53-27c-34 0-63 27-63 61 0 25 15 46 38 56a131 131 0 0 0 5 84l-9-1c-31 0-57 25-57 55 0 28 22 51 49 55a180 180 0 0 0 0 37h-1c-5 0-10 0-15 2-16 4-28 13-36 27-14 24-13 61-6 85a71 71 0 0 0 72 51h1c26-2 49-17 60-39a140 140 0 0 0 146 1l1 2a70 70 0 0 0 62 35c32 0 60-20 68-50 7-25 8-61-6-86zM103 61c0-23 20-41 43-41 17 0 33 10 40 24a10 10 0 0 0 14 5 127 127 0 0 1 117 0 10 10 0 0 0 14-5c7-14 22-24 39-24 24 0 44 18 44 41 0 16-10 30-25 37l-8-16a10 10 0 0 0-17 11 111 111 0 0 1 16 58c0 61-49 111-112 116v-75c15-5 25-20 25-33 0-7-3-24-35-24-31 0-34 17-34 24 0 13 10 28 24 33v75c-62-5-112-55-112-116 0-13 3-25 7-37a10 10 0 0 0-7-13c-19-5-33-21-33-40zm155 283c-5 0-10 5-10 10v30a70 70 0 0 1-47-109 146 146 0 0 0 115 0 70 70 0 0 1-48 109v-30c0-5-4-10-10-10zm-14-185l1-2c2-1 6-2 13-2 8 0 12 1 13 2l2 2c0 6-7 15-15 15-7 0-14-9-14-15zm-80 308a50 50 0 0 1-41 25h-4c-23 0-43-15-49-36-6-20-7-51 5-70 5-9 13-15 23-18a40 40 0 0 1 20 0c26 8 44 41 50 63 4 12 2 25-4 36zm160-42c-2 10-3 20-1 30a121 121 0 0 1-133-3c1-8 0-17-2-26-8-26-28-62-58-75a160 160 0 0 1 1-49 10 10 0 0 0-11-12h-3c-20 0-37-15-37-35 0-19 17-35 37-35 10 0 19 4 26 10 11 15 24 27 40 36a90 90 0 1 0 151 0c15-9 29-21 39-36 7-6 17-10 26-10 21 0 37 16 37 35s-16 35-37 35h-2a10 10 0 0 0-11 12 159 159 0 0 1 2 47c-34 10-56 49-64 76zm118 31c-6 21-26 35-49 35l-14-1c-13-4-24-12-31-24-6-11-8-23-4-35 6-23 26-59 54-64a37 37 0 0 1 16 1c10 2 18 8 23 17 12 20 11 50 5 71z"/><path d="M321 113c-9 0-16 8-16 16 0 9 7 16 16 16s17-7 17-16c0-8-8-16-17-16zM195 113c-9 0-16 8-16 16 0 9 7 16 16 16 10 0 17-7 17-16 0-8-7-16-17-16zM361 57v-1a10 10 0 0 0-14 15 10 10 0 0 0 14 0c4-4 4-11 0-14zM258 315c-5 0-10 5-10 10a10 10 0 1 0 20 0c0-5-4-10-10-10z"/></svg>
