<svg xmlns="http://www.w3.org/2000/svg" viewBox="0 0 512 512" version="1"><path d="M345 221a12 12 0 1 0 0 25 12 12 0 0 0 0-25zM415 221a12 12 0 1 0 0 25 12 12 0 0 0 0-25zM97 221a12 12 0 1 0 0 25 12 12 0 0 0 0-25zM167 221a12 12 0 1 0 0 25 12 12 0 0 0 0-25z"/><path d="M508 394a7 7 0 1 0-15 4l4 22H355l-7-2v-1c0-33-17-63-43-79 11-10 24-17 39-22a39 39 0 0 0 73 0c28 9 51 29 66 55 2 4 7 5 11 3 3-2 4-7 2-10-6-11-13-21-22-29 7-5 13-13 18-24 20-41 20-121 6-157a126 126 0 0 0-201-50 8 8 0 0 0 10 11 111 111 0 0 1 177 44c13 33 13 108-5 146-5 10-10 16-16 19-13-10-28-18-43-23 31-15 52-46 52-83v-15c0-4-3-7-6-7-37-7-63-44-63-45-4-5-11-4-13 2-1 0-19 43-94 43-4 0-8 3-8 7v15c0 37 22 68 53 83-16 5-31 13-44 23-6-3-11-9-15-19-18-38-18-113-6-146 3-8 7-15 12-23a8 8 0 0 0-12-8c-6 8-10 17-14 26-14 36-14 116 6 157 2 6 5 10 8 14l-20-2v-21a8 8 0 0 0-15-3l-1 19c-11-8-14-19-14-20a7 7 0 0 0-15 3c1 1 3 14 16 25l-7 3c-14-13-31-22-49-28 16-7 29-19 39-34a27 27 0 0 0 34-40c20-57 11-90 1-108a69 69 0 0 0-87-27c-10-13-22-19-47-19-28 0-68 14-89 47-24 35-15 77-3 108-3 4-5 9-5 15a27 27 0 0 0 40 24c9 15 23 27 38 34-21 7-40 18-55 35-3 2-3 7 0 10 2 3 8 3 11 0 13-14 29-24 47-30a39 39 0 0 0 74 0c13 4 25 11 36 20a95 95 0 0 0-46 81v1l-6 2H15c2-18 7-36 16-51a8 8 0 0 0-13-8C6 381 0 404 0 427c0 4 4 8 8 8h130l-2 10a27 27 0 0 0 39 25 95 95 0 0 0 158 0l11 2a27 27 0 0 0 25-37h135c4 0 8-4 8-8 0-11-2-23-4-33zM222 255l-5-1c3-7 5-15 6-23a12 12 0 0 1-1 24zM34 128c18-28 53-40 77-40s31 7 39 18c2 3 7 4 10 2 0-1 14-9 32-7 17 3 31 12 40 26 12 21 12 52 0 90l-8-1v-13c0-4-3-7-6-7-38-7-63-44-64-45-3-5-10-4-13 2 0 0-4 10-18 21-18 14-44 22-76 22-4 0-7 3-7 7v13c-3 0-6 0-9 2-13-36-12-67 3-90zm8 127a12 12 0 0 1-1-24c1 8 3 16 6 23l-5 1zm13-32v-13c57-2 83-27 94-41 10 12 31 33 60 40v14a77 77 0 0 1-154 0zm77 104c-10 0-18-6-22-15a118 118 0 0 1 44 0c-4 9-12 15-22 15zm248 0c-10 0-18-6-22-15a118 118 0 0 1 44 0c-4 9-12 15-22 15zm-77-109v-8c57-2 84-27 94-41 11 12 32 33 60 40v9a77 77 0 0 1-154 0zM163 457a12 12 0 0 1-3-24l7 23-4 1zm91 40a80 80 0 1 1 0-160 80 80 0 0 1 0 160zm90-40l-4-1c3-7 6-15 7-23a12 12 0 0 1-3 24z"/><path d="M219 414a12 12 0 1 0 0 24 12 12 0 0 0 0-24zM289 414a12 12 0 1 0 0 24 12 12 0 0 0 0-24zM236 72c12 10 24 16 25 17h6c1-1 13-7 25-17 16-14 24-30 22-45-3-18-16-26-27-27-9-1-17 2-23 7-6-5-14-8-23-7-11 1-24 9-27 27-2 15 6 31 22 45zm-7-43c2-11 9-14 14-14h1c6 0 12 3 13 7a7 7 0 0 0 14 0c2-4 8-7 14-7 5 0 12 3 14 14 2 19-22 37-35 44-13-7-37-25-35-44z"/></svg>
